<?xml version="1.0" encoding="utf-8"?>
<!-- Generator: Adobe Illustrator 23.0.1, SVG Export Plug-In . SVG Version: 6.00 Build 0)  -->
<svg version="1.1" id="レイヤー_1" xmlns="http://www.w3.org/2000/svg" xmlns:xlink="http://www.w3.org/1999/xlink" x="0px"
	 y="0px" viewBox="0 0 631 350" style="enable-background:new 0 0 631 350;" xml:space="preserve">
<style type="text/css">
	.st0{fill:none;}
	.st1{fill:#F50A00;}
	.st2{fill:#FFFFFF;}
</style>
<path class="st0" d="M-0.5,0h630.9v350H-0.5V0z"/>
<path class="st1" d="M75.9,232.8c-15.5,0-22.5,10.6-22.5,24.3s7.1,24.3,22.5,24.3s22.5-10.6,22.5-24.3S91.4,232.8,75.9,232.8z
	 M75.9,273.2c-8,0-12.3-5.1-12.3-16.1S67.9,241,75.9,241s12.4,5.1,12.4,16.1S84,273.2,75.9,273.2z M219.9,280.6
	c1.7,0.3,3.5,0.4,5.3,0.4c4.1,0,4.9-0.4,4.9-0.4l-16.5-47.1c0,0-0.8-0.4-4.3-0.4s-4.3,0.4-4.3,0.4l-16.5,47.1c0,0,0.8,0.4,4.9,0.4
	c1.8,0.1,3.6-0.1,5.3-0.4l10.6-34.8L219.9,280.6z M189.3,233.2c-1.8-0.1-3.6,0.1-5.3,0.4l-6.3,33.8l-8.2-33.8c0,0-0.8-0.4-4.1-0.4
	s-4.1,0.4-4.1,0.4l-8.2,33.8l-6.3-33.8c-1.7-0.3-3.5-0.4-5.3-0.4c-4.3,0-5.1,0.4-5.1,0.4l11.4,47.1c0,0,0.8,0.4,4.1,0.4
	c2.1,0.1,4.2,0,6.3-0.4l7.2-30l7.3,30c2.1,0.3,4.2,0.5,6.3,0.4c3.3,0,4.1-0.4,4.1-0.4l11.4-47.1
	C194.4,233.6,193.6,233.2,189.3,233.2z M259.3,233.2c-1.8-0.1-3.6,0.1-5.3,0.4l-10.4,37.2l-10.4-37.2c-1.7-0.3-3.5-0.4-5.3-0.4
	c-4.3,0-5.1,0.4-5.1,0.4l15.1,47.1c0,0,0.8,0.4,5.7,0.4s5.7-0.4,5.7-0.4l15.1-47.1C264.4,233.6,263.6,233.2,259.3,233.2L259.3,233.2
	z"/>
<path class="st1" d="M122.4,256.3l14.5-22.8c0,0-0.8-0.4-5.1-0.4c-1.9-0.1-3.8,0.1-5.7,0.4l-13.9,22.8l14.7,24.3
	c1.9,0.3,3.8,0.5,5.7,0.4c4.3,0,5.1-0.4,5.1-0.4L122.4,256.3z M100.8,233.6v47.1c0,0,0.8,0.4,4.9,0.4s4.9-0.4,4.9-0.4v-47.1
	c0,0-0.8-0.4-4.9-0.4S100.8,233.6,100.8,233.6z M276.5,272.4v-12h17.6c0,0,0.4-0.8,0.4-4.1s-0.4-4.1-0.4-4.1h-17.6v-10.4h20.8
	c0,0,0.4-0.8,0.4-4.1s-0.4-4.1-0.4-4.1h-30.6v47.1h30.6c0,0,0.4-0.8,0.4-4.1s-0.4-4.1-0.4-4.1L276.5,272.4z M174.5,54.9
	c-67.8,0-80.9,13.1-80.9,80.9s13.1,80.9,80.9,80.9s80.9-13.1,80.9-80.9S242.3,54.9,174.5,54.9L174.5,54.9z M174.5,208.5
	c-62.9,0-72.8-9.9-72.8-72.8S111.6,63,174.5,63s72.8,9.9,72.8,72.8S237.4,208.5,174.5,208.5L174.5,208.5z"/>
<path class="st1" d="M200.4,92.6c-11.6,0-21.6,7.5-25.9,18.2c-4.3-10.7-14.2-18.2-25.9-18.2c-11.9,0-28.1,7.1-28.1,30.2
	c0,30.9,40.4,58.4,53.9,68.7c13.5-10.3,53.9-37.8,53.9-68.7C228.5,99.7,212.3,92.6,200.4,92.6z M62.1,301.4v1.3h-3.4v-16.3h3.4v6.9
	c0.8-1.2,2.1-2,3.6-1.9c1.3-0.1,2.5,0.5,3.3,1.5c0.8,1.2,1.2,2.6,1.2,4c0.1,1.6-0.4,3.1-1.3,4.4c-0.9,1.1-2.2,1.7-3.6,1.7
	C64,303,62.8,302.4,62.1,301.4L62.1,301.4z M62,296.8v1.1c0,0.6,0.2,1.3,0.6,1.8c0.4,0.5,1,0.7,1.6,0.7c0.7,0,1.4-0.3,1.8-0.9
	c0.5-0.8,0.7-1.6,0.6-2.5c0-0.8-0.2-1.5-0.6-2.1c-0.4-0.5-1-0.8-1.7-0.8c-0.7,0-1.3,0.3-1.7,0.8C62.2,295.3,62,296,62,296.8
	L62,296.8z M94.4,298.1h-7.2c0.1,1.6,1.1,2.4,3,2.4c1.1,0,2.2-0.3,3.2-0.9v2.4c-1.2,0.6-2.6,0.9-4,0.8c-2.8,0.3-5.3-1.8-5.6-4.6
	c0-0.3,0-0.7,0-1c-0.1-1.6,0.5-3.2,1.6-4.3c1-1,2.4-1.6,3.9-1.6c1.4-0.1,2.7,0.4,3.7,1.4c0.9,1.1,1.4,2.5,1.3,3.9L94.4,298.1z
	 M91.3,296.1c0-1.6-0.6-2.4-1.9-2.4c-0.5,0-1.1,0.3-1.4,0.7c-0.4,0.5-0.7,1.1-0.7,1.7H91.3z M108.2,302.4v-2.8
	c0.5,0.3,1.1,0.6,1.7,0.8c0.5,0.2,1,0.2,1.6,0.2c0.5,0,1-0.1,1.4-0.2c0.3-0.1,0.5-0.4,0.5-0.8c0-0.2-0.1-0.4-0.2-0.5
	c-0.2-0.2-0.4-0.3-0.6-0.4c-0.3-0.1-0.5-0.2-0.8-0.3c-0.3-0.1-0.6-0.2-0.8-0.3c-0.4-0.1-0.8-0.3-1.2-0.5c-0.3-0.2-0.6-0.4-0.8-0.7
	c-0.2-0.3-0.4-0.5-0.5-0.9c-0.1-0.4-0.2-0.8-0.2-1.2c0-0.6,0.1-1.1,0.4-1.6c0.3-0.4,0.6-0.8,1.1-1.1c0.5-0.3,1-0.5,1.5-0.6
	c0.6-0.1,1.2-0.2,1.8-0.2c0.5,0,1,0,1.5,0.1c0.5,0.1,1,0.2,1.5,0.3v2.6c-0.4-0.3-0.9-0.4-1.4-0.6c-0.5-0.1-1-0.2-1.4-0.2
	c-0.2,0-0.4,0-0.6,0.1c-0.2,0-0.4,0.1-0.5,0.2c-0.1,0.1-0.3,0.2-0.4,0.3c-0.1,0.1-0.1,0.3-0.1,0.4c0,0.2,0.1,0.4,0.2,0.5
	c0.1,0.2,0.3,0.3,0.5,0.4c0.2,0.1,0.5,0.2,0.7,0.3l0.8,0.3c0.4,0.1,0.8,0.3,1.2,0.5c0.3,0.2,0.7,0.4,0.9,0.7
	c0.3,0.2,0.5,0.5,0.6,0.9c0.1,0.4,0.2,0.8,0.2,1.2c0,0.6-0.1,1.2-0.4,1.7c-0.3,0.5-0.7,0.8-1.1,1.1c-0.5,0.3-1,0.5-1.6,0.6
	c-0.6,0.1-1.3,0.2-1.9,0.2C110.4,303,109.3,302.8,108.2,302.4L108.2,302.4z M138.8,302.5c-0.7,0.3-1.5,0.4-2.3,0.4
	c-2.4,0-3.6-1.2-3.6-3.7v-5h-1.8v-2.5h1.8v-2.4l3.4-1v3.3h2.5v2.5h-2.5v4.4c0,1.1,0.4,1.7,1.4,1.7c0.4,0,0.8-0.1,1.1-0.3V302.5z
	 M177.3,302.7h-3.2v-1.6c-0.7,1.2-1.9,1.9-3.3,1.9c-0.9,0.1-1.8-0.3-2.5-0.9c-0.6-0.6-1-1.5-0.9-2.4c0-2.1,1.3-3.4,3.8-3.7l3-0.4
	c0-1.2-0.6-1.8-1.9-1.8c-1.3,0-2.6,0.4-3.7,1.2v-2.5c0.6-0.3,1.3-0.5,1.9-0.6c0.7-0.2,1.5-0.3,2.2-0.3c3.1,0,4.7,1.6,4.7,4.7
	L177.3,302.7z M174.1,298.2v-0.7l-2,0.3c-1.1,0.1-1.7,0.6-1.7,1.5c0,0.4,0.1,0.7,0.4,1c0.3,0.3,0.7,0.4,1.1,0.4
	c0.6,0,1.2-0.2,1.6-0.7C173.9,299.5,174.1,298.8,174.1,298.2L174.1,298.2z M202.8,302.9h-3.4v-6.1c0-1.7-0.6-2.6-1.8-2.6
	c-0.6,0-1.1,0.2-1.4,0.7c-0.4,0.5-0.6,1.1-0.6,1.7v6.3h-3.4v-11h3.4v1.7c0.7-1.3,2.1-2,3.5-2c2.4,0,3.6,1.5,3.6,4.5L202.8,302.9z
	 M216.1,302.4v-2.8c0.5,0.3,1.1,0.6,1.7,0.8c0.5,0.2,1,0.2,1.6,0.2c0.5,0,1-0.1,1.4-0.2c0.3-0.1,0.5-0.4,0.5-0.8
	c0-0.2-0.1-0.4-0.2-0.5c-0.2-0.2-0.4-0.3-0.6-0.4c-0.3-0.1-0.5-0.2-0.8-0.3c-0.3-0.1-0.6-0.2-0.9-0.3c-0.4-0.1-0.8-0.3-1.2-0.5
	c-0.3-0.2-0.6-0.4-0.8-0.7c-0.2-0.3-0.4-0.6-0.5-0.9c-0.1-0.4-0.2-0.8-0.2-1.2c0-0.6,0.1-1.1,0.4-1.6c0.3-0.4,0.6-0.8,1.1-1.1
	c0.5-0.3,1-0.5,1.5-0.6c0.6-0.1,1.2-0.2,1.8-0.2c0.5,0,1,0,1.5,0.1c0.5,0.1,1,0.2,1.5,0.3v2.6c-0.4-0.3-0.9-0.4-1.4-0.6
	c-0.5-0.1-1-0.2-1.4-0.2c-0.2,0-0.4,0-0.6,0.1c-0.2,0-0.4,0.1-0.5,0.2c-0.1,0.1-0.3,0.2-0.4,0.3c-0.1,0.1-0.1,0.3-0.1,0.4
	c0,0.2,0.1,0.4,0.2,0.5c0.1,0.2,0.3,0.3,0.5,0.4c0.2,0.1,0.5,0.2,0.7,0.3l0.8,0.3c0.4,0.1,0.8,0.3,1.2,0.5c0.3,0.2,0.7,0.4,0.9,0.7
	c0.3,0.2,0.5,0.5,0.6,0.9c0.1,0.4,0.2,0.8,0.2,1.2c0,0.6-0.1,1.2-0.4,1.7c-0.3,0.5-0.7,0.8-1.1,1.1c-0.5,0.3-1,0.5-1.6,0.6
	c-0.6,0.1-1.3,0.2-1.9,0.2C218.3,302.9,217.1,302.8,216.1,302.4L216.1,302.4z M253.7,291.9l-3.2,11H247l-1.6-6.4
	c-0.1-0.5-0.2-0.9-0.2-1.4h-0.1c0,0.5-0.1,0.9-0.2,1.4l-1.7,6.5h-3.5l-3.1-11h3.5l1.5,7.2c0.1,0.4,0.1,0.8,0.2,1.2h0.1
	c0-0.4,0.1-0.9,0.2-1.3l1.9-7.1h3.2l1.7,7.2c0,0.2,0.1,0.6,0.1,1.2h0.1c0-0.4,0.1-0.8,0.2-1.2l1.4-7.2L253.7,291.9z M273.8,298.1
	h-7.2c0.1,1.6,1.1,2.4,3,2.4c1.1,0,2.2-0.3,3.2-0.9v2.4c-1.2,0.6-2.6,0.9-4,0.8c-2.8,0.3-5.3-1.8-5.6-4.6c0-0.3,0-0.7,0-1
	c-0.1-1.6,0.5-3.2,1.6-4.3c1-1,2.4-1.6,3.9-1.6c1.4-0.1,2.7,0.4,3.7,1.4c0.9,1.1,1.4,2.5,1.3,3.9L273.8,298.1z M270.6,296.1
	c0-1.6-0.6-2.4-1.9-2.4c-0.5,0-1.1,0.3-1.4,0.7c-0.4,0.5-0.7,1.1-0.7,1.7H270.6z M294.5,295c-0.4-0.2-0.9-0.3-1.4-0.3
	c-0.7,0-1.3,0.3-1.7,0.8c-0.4,0.6-0.7,1.4-0.6,2.2v5.2h-3.4v-11h3.4v2c0.3-1.3,1.5-2.3,2.9-2.2c0.3,0,0.6,0,0.8,0.1L294.5,295z"/>
<circle class="st2" cx="303.3" cy="301.2" r="1.8"/>
<path class="st1" d="M516.5,69.9c-24,0-44.7,15.5-53.5,37.6c-8.8-22.1-29.4-37.6-53.5-37.6c-24.6,0-58,14.7-58,62.4
	c0,63.8,83.6,120.8,111.5,142c27.9-21.3,111.5-78.2,111.5-142C574.5,84.7,541,69.9,516.5,69.9z M515.6,94.8c0.8-2.4,4-2,6-1.2
	c0.3,0.1,0.6,0.3,0.8,0.5c1.3,1.2,1,4.5-0.3,5.5c-1.5,1-3.4,1-5,0.1C515.7,98.6,515.1,96.6,515.6,94.8L515.6,94.8z M503.3,152.7h2.3
	l-4,10.6h-2l-4-10.6h2.3l2.7,7.1L503.3,152.7z M494,178.2c3.1,0.6,6.3,0.9,9.5,1l-0.4,2.6c-2.5-0.2-7-0.6-9.5-1L494,178.2z
	 M491.9,163.4v-10.6h2.3v10.6H491.9z M479.3,112.2c0-0.6,0.5-1.2,1.2-1.2l0,0h4c0.6,0,1.2,0.5,1.2,1.2c0,0,0,0,0,0v15
	c0,0.6,0.4,0.8,0.9,0.5c0.7-0.5,1.4-1,2.2-1.4c1.1-0.5,2.2-0.7,3.4-0.7c2-0.1,3.9,0.8,5.1,2.4c1.2,1.6,1.7,5.4,1.7,5.4
	c0.1,0.8,0.1,1.6,0.1,2.3v9.9c0,0.6-0.5,1.1-1.2,1.1h-3.9c-0.6,0-1.2-0.5-1.2-1.2v0v-8.8c0-0.8-0.1-1.6-0.2-2.3
	c-0.1-0.8-0.4-1.6-0.9-2.2c-0.6-0.8-1.5-1.4-2.5-1.4c-1.2-0.1-2.2,0.5-2.8,1.6c-0.4,1.2-0.7,2.5-0.8,3.8c0,0.6-0.1,1.7-0.1,2.3v7.1
	c0,0.6-0.5,1.2-1.2,1.2h-4c-0.6,0-1.2-0.5-1.2-1.2L479.3,112.2z M480.7,180.5l1.5,2.5c-0.6,0.4-1.3,0.7-2.1,1.1c-2,0.9-4,2-5.9,3.1
	c-1.8,1.1-2.9,2.4-2.9,3.8s1.5,2.3,4.4,2.3c2.3,0,4.6-0.3,6.9-0.8v3c-2.2,0.4-4.5,0.5-6.8,0.5c-4.2,0-7.4-1.2-7.4-4.8
	c0-2.4,1.5-4.1,3.5-5.6c-1-1.8-2-4.1-3-6.3l2.7-1.1c0.8,2,1.6,4,2.6,5.8c1.7-1,3.6-1.9,4.6-2.5C479.5,181.4,480.1,181,480.7,180.5
	L480.7,180.5z M477.7,152.7v10.6h-2.2l-4.9-6.9v6.9h-2.3v-10.6h2.3l4.9,6.9v-6.9H477.7z M460.5,126c0-0.7,0.5-1.2,1.2-1.2h2.1
	c0.6,0,1.2-0.5,1.2-1.2V120c0-0.6,0.5-1.2,1.2-1.2h3.9c0.6,0,1.2,0.5,1.2,1.2v3.7c0,0.6,0.5,1.2,1.2,1.2h1.9c0.6,0,1.2,0.5,1.2,1.2
	c0,0,0,0,0,0v3.4c0,0.6-0.5,1.2-1.2,1.2l0,0h-1.9c-0.6,0-1.2,0.5-1.2,1.2v13.9c0,0.6-0.5,1.2-1.2,1.2h-3.9c-0.6,0-1.2-0.5-1.2-1.2
	v-14c0-0.6-0.5-1.2-1.2-1.2h-2.1c-0.6,0-1.2-0.5-1.2-1.2V126z M374.8,162.6l16.2-20.5l0.7-0.9l0.7-0.9c0,0,3.9-5.2,5-7.4
	c1.1-1.9,1.7-4.1,1.7-6.3c0.1-2-0.7-4-2.1-5.4c-1.4-1.4-3.4-2.2-5.4-2.1c-1.1,0-2.2,0.2-3.2,0.7c-0.9,0.4-1.7,1.1-2.2,2
	c-1.1,1.7-1.8,6.5-1.8,6.5c-0.1,0.7-0.7,1.1-1.3,1.2h-8.6c-0.6,0-1-0.4-1-1c0-0.1,0-0.1,0-0.2c0,0,1.7-9.7,5.3-13.1
	c3.8-3.5,8.7-5.3,13.9-5.1c5.1,0,9.3,1.5,12.5,4.4c3.2,2.9,5,7.1,4.8,11.4c0,4.5-5.2,14.1-5.2,14.1c-0.3,0.6-0.9,1.5-1.2,2l-1.8,2.7
	l-0.7,1l-0.7,1L397,151c-0.4,0.5-1,1.3-1.5,1.8l-0.5,0.6c-0.4,0.5-0.5,0.9-0.3,0.9h14c0.7,0,1.2,0.5,1.2,1.2v6.7
	c0,0.6-0.5,1.2-1.2,1.2h-33.5C374.6,163.5,374.4,163.1,374.8,162.6L374.8,162.6z M409.2,196.6l-1.4-2.2c4.1-0.4,5.7-2.5,5.7-4.6
	c0-1.4-0.9-2.6-2.2-3c-1,2.5-2.5,4.6-4.5,6.4c0.1,0.6,0.3,1.1,0.5,1.6l-2.4,0.7c-0.1-0.2-0.2-0.6-0.3-0.9c-1,0.5-2.1,0.8-3.3,0.9
	c-1.6,0-2.9-0.9-2.9-3.1c0-2.7,2.2-5.5,5.2-6.9c0.1-0.9,0.1-1.8,0.2-2.6h-0.7c-1.1,0-2.8-0.1-3.7-0.1l-0.1-2.4
	c1.3,0.2,2.6,0.3,3.9,0.3h0.8l0.1-1.1c0.1-0.4,0.1-0.8,0.1-1.3l2.8,0.1c-0.1,0.4-0.2,0.7-0.3,1.1c-0.1,0.4-0.2,0.7-0.2,1.1
	c2.4-0.1,4.8-0.4,7.2-0.9v2.4c-2.5,0.4-5,0.7-7.5,0.8c-0.1,0.6-0.1,1.3-0.1,1.9c1-0.2,2.1-0.4,3.1-0.4h0.4c0.1-0.4,0.2-0.8,0.2-1.3
	l2.6,0.6c-0.1,0.4-0.3,0.7-0.4,1.1c2.4,0.6,4,2.7,4.1,5.2C416.1,192.9,414.4,195.8,409.2,196.6L409.2,196.6z M419.6,157
	c-3.8-4.8-5.7-11.1-5.7-18.9c0-8.4,1.9-15,5.6-20c3.3-4.8,8.8-7.6,14.6-7.5h0.3c5.8-0.2,11.3,2.5,14.7,7.1
	c3.7,4.7,5.5,11.1,5.5,19.1c0,9.4-2.1,16.3-6.1,20.7s-8.8,6.7-14.1,6.7C428.6,164.3,423.1,161.7,419.6,157L419.6,157z M431,181.7
	c-2.5,0-4.7,3.8-4.8,6.5c0,0.7,0,1.5,0.1,2.2l-2.6,0.2c-0.2-1.2-0.2-2.3-0.2-3.5c0.1-2.3,0.2-4.5,0.6-6.8c0.1-0.8,0.1-1.6,0.2-2.2
	l2.9,0.1c-0.4,1.4-0.7,2.9-0.9,4.4c1-1.6,2.8-3.4,5.2-3.4c3,0,5.2,2.9,5.2,7.5c0,6-3.7,8.8-9.2,9.9l-1.6-2.4c4.7-0.7,8-2.3,8-7.4
	C433.8,183.6,432.7,181.7,431,181.7z M437.8,210.2c-0.1,2.3-0.3,8.2-1.3,10.4c-0.4,1.1-1.6,1.8-2.8,1.6c-1.2,0-2.5-0.1-3.5-0.2
	l-0.3-2.9c1,0.2,2,0.3,3,0.3c0.5,0.1,1-0.2,1.2-0.7c0.6-1.4,0.9-5.6,0.9-7.9h-4.8c-0.8,5.6-2.8,9-6.6,11.7l-2.5-2
	c1-0.6,2-1.3,2.8-2.1c2-2.1,3.2-4.7,3.5-7.6h-2.9c-0.7,0-1.9,0-2.8,0.1v-2.8c0.9,0.1,2,0.1,2.8,0.1h3v-1.9c0-0.7-0.1-1.3-0.1-2h3.1
	c-0.1,0.5-0.1,1.4-0.1,1.9c0,0.7,0,1.3-0.1,1.9h4c0.5,0,1.1-0.1,1.6-0.1l1.8,0.9C437.8,209.4,437.8,209.8,437.8,210.2L437.8,210.2z
	 M445.6,183.1c0.7,0,1.7-0.1,2.7-0.2c0.3-1.5,0.4-3,0.5-4.5l3.1,0.3c-0.1,0.6-0.3,1.2-0.4,1.8s-0.3,1.4-0.5,2.2
	c0.7,0,1.3-0.1,1.8-0.1c2.2,0,3.8,1,3.8,4c0,2.5-0.3,5.9-1.2,7.7c-0.6,1.3-2,2.1-3.5,1.9c-0.8,0-1.7-0.1-2.5-0.3l-0.5-2.8
	c0.8,0.2,1.7,0.4,2.6,0.4c0.7,0.1,1.3-0.3,1.6-0.9c0.6-1.9,0.9-3.8,0.9-5.8c0-1.7-0.7-1.9-2-1.9c-0.4,0-0.9,0-1.5,0.1
	c-0.8,3.2-2.4,8.2-4.3,11.3l-2.8-1.1c2-3,3.4-6.4,4.2-9.9c-0.7,0.1-1.4,0.2-1.8,0.2c-0.6,0.1-1.7,0.2-2.3,0.3l-0.2-2.9
	C444.1,183.1,444.8,183.1,445.6,183.1L445.6,183.1z M460.6,209.5c-0.7,2.1-1.7,4-2.9,5.8c0.8,0.5,1.5,1,2,1.4l-1.9,2.5
	c-0.5-0.4-1.2-1-2-1.5c-2.2,2.4-4.9,4.2-7.9,5.3l-2.5-2.2c3-0.9,5.8-2.5,8-4.8c-1.5-0.9-2.9-1.8-4-2.4l1.8-2c1.1,0.6,2.6,1.4,4,2.2
	c1-1.4,1.7-2.9,2.2-4.5h-6.1c-1.6,2.1-3.5,4-5.6,5.5l-2.3-1.8c2.8-1.7,5.2-4.2,6.8-7.1c0.4-0.7,0.8-1.5,1-2.2l3.1,1
	c-0.5,0.7-1.1,1.7-1.3,2.2h4.4c0.6,0,1.2-0.1,1.9-0.2l2.2,1.3C461.1,208.5,460.8,209,460.6,209.5L460.6,209.5z M460.1,189.9
	c-0.7-2.9-1.9-5.6-3.6-8l2-0.8c-0.4-0.9-0.9-1.7-1.5-2.5l1.7-0.7c0.5,0.8,1.3,2.1,1.7,2.9l-1.1,0.5c1.4,2.3,2.5,4.8,3.4,7.4
	L460.1,189.9z M461.3,180.6c-0.5-1-1.1-2-1.7-3l1.7-0.7c0.6,0.9,1.2,1.9,1.7,2.9L461.3,180.6z M463.7,161.3h-4.1l-0.8,2.1h-2.3
	l4.3-10.6h1.8l4.3,10.6h-2.3L463.7,161.3z M484.7,214.1c-0.6,0-1.3-0.1-1.9-0.1h-5.5c-0.2,3.7-2.3,7-5.5,8.8l-2.7-1.8
	c2.9-1.1,5-3.8,5.4-6.9h-5.9c-0.7,0-1.5,0.1-2,0.1v-2.8c0.7,0.1,1.3,0.1,2,0.1h6v-3c-2,0.2-4.3,0.2-5.7,0.3l-0.7-2.5
	c2.4,0.1,4.9-0.1,7.3-0.4c1.8-0.2,3.6-0.6,5.4-1.3l1.7,2.3l-1.6,0.4c-1.2,0.3-2.4,0.5-3.6,0.7v3.4h5.4c0.5,0,1.5-0.1,1.9-0.1
	L484.7,214.1z M489.5,163.4h-2.2l-4.9-6.9v6.9h-2.3v-10.6h2.3l4.9,6.9v-6.9h2.2V163.4z M493.3,220.4c-0.1,0.3-0.1,0.7-0.1,1v0.9
	l-2.4,0.2c-0.6-2.3-0.9-4.6-0.8-6.9c0.1-2.8,0.4-5.6,0.9-8.4c0.1-0.7,0.2-1.4,0.2-2.1l3,0.3c-0.2,0.6-0.4,1.2-0.5,1.9
	c-0.5,2.6-0.9,5.1-1,7.7c0,0.5,0,0.9,0.1,1.4c0.3-0.7,0.6-1.4,0.9-2.1l1.3,1C494.3,216.9,493.8,218.6,493.3,220.4L493.3,220.4z
	 M493.7,193.9c5.2-0.6,8.6-2.3,8.6-5.6c0-1.4-1.1-2.5-3-2.5c-1.9,0.1-3.7,0.4-5.5,1c-0.6,0.2-1.4,0.5-2,0.7l-0.8-3
	c0.8-0.1,1.5-0.2,2.3-0.4c2.1-0.6,4.2-0.9,6.4-1c3.3,0,5.7,1.9,5.7,5.2c0,4.5-4.2,7.3-10,8.1L493.7,193.9z M506.4,206.7v2.7
	c-3,0.2-6,0.2-9.1,0v-2.7C500.3,207,503.4,207,506.4,206.7L506.4,206.7z M501.6,221.7c-3.6,0-5.4-1.3-5.4-3.5c0-0.9,0.1-1.8,0.4-2.8
	l2.4,0.2c-0.2,0.6-0.2,1.2-0.2,1.8c0,0.9,0.8,1.5,2.9,1.5c1.8,0,3.5-0.2,5.3-0.6l0.1,2.9C505.2,221.6,503.4,221.8,501.6,221.7
	L501.6,221.7z M513.1,157v2.1h-3.7v2.2h3.7v2.1h-6v-10.7h6v2.1h-3.7v2.2H513.1z M523.8,192.3h-2.5c0-0.6,0.1-1.6,0.1-2.5
	c-1.6,0.9-2.4,1.7-2.4,2.7s1,1.5,3,1.5c2,0,4-0.2,6-0.6l-0.1,2.8c-2,0.2-4,0.3-6,0.3c-3.3,0-5.8-0.8-5.8-3.5s2.5-4.4,5-5.6
	c-0.3-0.5-0.9-0.8-1.5-0.7c-1.2,0.1-2.4,0.6-3.3,1.4c-0.7,0.7-1.4,1.5-2,2.3l-2.3-1.7c1.9-1.6,3.5-3.6,4.7-5.8h-0.3
	c-0.8,0-2.4,0-3.6-0.1v-2.5c1.2,0.2,2.5,0.2,3.7,0.2h1c0.2-0.8,0.4-1.6,0.4-2.4l2.8,0.2c-0.1,0.5-0.3,1.2-0.5,2.1c2-0.1,4-0.3,6-0.6
	v2.5c-2,0.3-4.6,0.5-6.9,0.6c-0.3,0.7-0.7,1.5-1.2,2.1c0.8-0.3,1.6-0.4,2.4-0.4c1.2-0.1,2.3,0.6,2.8,1.6c1.1-0.5,2-0.9,2.8-1.2
	l2.3-1.1l1.1,2.4c-0.9,0.2-1.7,0.5-2.5,0.9c-0.9,0.4-2.1,0.8-3.4,1.4C523.8,189.8,523.8,191.3,523.8,192.3L523.8,192.3z
	 M523.3,163.4h-2.6l-2.8-4.1h-0.3v4.1h-2.3v-10.7h3.5c0.9-0.1,1.8,0.2,2.5,0.8c0.6,0.6,1,1.4,0.9,2.3c0,0.6-0.2,1.2-0.4,1.7
	c-0.3,0.6-0.9,1.1-1.6,1.4L523.3,163.4z M530.1,162.5c-0.7,0.7-1.6,1-2.6,1c-1.2-0.1-2.4-0.6-3.3-1.5l1.5-1.8c0.5,0.6,1.2,0.9,1.9,1
	c0.3,0,0.6-0.1,0.8-0.4c0.2-0.2,0.4-0.5,0.4-0.8c0-0.6-0.6-1-1.8-1.5c-0.5-0.2-1-0.4-1.4-0.7c-0.3-0.3-0.5-0.6-0.7-0.9
	c-0.2-0.4-0.3-0.8-0.3-1.2c0-0.9,0.3-1.7,0.9-2.3c0.7-0.6,1.5-0.9,2.4-0.9c1.1,0,2.2,0.4,3,1.1l-1.4,1.6c-0.5-0.3-1-0.6-1.6-0.7
	c-0.3,0-0.5,0.1-0.7,0.3c-0.2,0.2-0.3,0.4-0.3,0.7c0,0.5,0.5,1,1.4,1.4c0.6,0.2,1.1,0.5,1.6,0.8c0.4,0.3,0.7,0.6,0.9,1
	c0.2,0.4,0.4,0.9,0.4,1.4C531.2,161,530.8,161.9,530.1,162.5L530.1,162.5z M540.1,163.4l-0.8-2.1h-4.1l-0.8,2.1H532l4.3-10.6h1.8
	l4.3,10.6H540.1z M536,126.8c-6.3,0.7-15.4-1-20.9-4.2c-6.4-3.8-10-10.9-9.5-18.3c0-0.8,0.3-1.6,0.9-2.1c4.9-2.8,4.4,4.8,5.1,7
	c1.4,4.2,4.4,7.7,8.3,9.7c3.4,1.6,9.6,2.9,13.3,1.8c2.3-0.7,4.1-3.8,7-2.7C546.9,120.5,539.7,126.4,536,126.8L536,126.8z M542,110.4
	c-1.5,0.6-3.2,0.4-4.5-0.6c-1.1-1.2-1.4-2.8-1-4.3c0.8-2.2,3.3-2.3,5.3-1.9c0.5,0.1,0.9,0.3,1.2,0.6c0.2,0.3,0.4,0.6,0.4,1
	C544,107.1,544.2,109.6,542,110.4L542,110.4z M549.2,163.4l-2.8-4.1h-0.3v4.1H544v-10.7h3.5c0.9,0,1.8,0.3,2.5,0.8
	c0.6,0.6,1,1.4,0.9,2.3c0,0.6-0.2,1.2-0.4,1.7c-0.3,0.6-0.9,1.1-1.6,1.4l3,4.4L549.2,163.4z M557.7,163.4h-2.3v-5l-3.4-5.7h2.5
	l2,3.3l2-3.3h2.5l-3.4,5.7L557.7,163.4z"/>
<path class="st1" d="M535.9,159.4h2.5l-1.3-3.1L535.9,159.4z M519.5,155c-0.4-0.3-0.8-0.4-1.3-0.4h-0.5v2.8h0.5
	c1.2,0,1.8-0.5,1.8-1.5C520,155.6,519.8,155.2,519.5,155z M401,192c0,0.7,0.3,1,1,1c0.7,0,1.5-0.3,2.1-0.7c-0.2-1.4-0.4-2.8-0.4-4.2
	C402.1,189.1,401,190.8,401,192L401,192z M460.4,159.4h2.5l-1.3-3.1L460.4,159.4z M406.1,187c0,1.2,0.1,2.3,0.2,3.5
	c1.1-1.1,2.1-2.5,2.7-4C408,186.5,407,186.7,406.1,187L406.1,187z M441.6,150c1.8-3.1,2.7-7.2,2.7-12.4c0-5.4-0.9-9.7-2.6-12.9
	c-0.8-1.4-1.8-2.7-3.2-3.6c-1.2-0.8-2.7-1.2-4.1-1.2c-1.5,0-3,0.4-4.3,1.2c-1.4,0.9-2.5,2.2-3.2,3.6c-1.8,3.2-2.7,7.5-2.7,13.1
	c0,5,0.9,9.1,2.7,12.2c0.8,1.4,1.9,2.6,3.2,3.5c1.2,0.8,2.7,1.2,4.1,1.2c1.5,0,2.9-0.4,4.2-1.2C439.8,152.6,440.9,151.4,441.6,150
	L441.6,150z M548.1,155c-0.4-0.3-0.8-0.4-1.3-0.4h-0.5v2.8h0.5c1.2,0,1.8-0.5,1.8-1.5C548.6,155.6,548.4,155.2,548.1,155z
	 M525.3,65.5h0.4c1.7,0,3.1-1.3,3.3-3l1-9.3c0.3-1.8-0.9-3.5-2.7-3.8c-1.8-0.3-3.5,0.9-3.8,2.7c0,0.1,0,0.2,0,0.4l-1,9.3
	C522.1,63.6,523.4,65.2,525.3,65.5C525.2,65.5,525.2,65.5,525.3,65.5L525.3,65.5z M542.8,69.2c0.4,0.1,0.8,0.2,1.2,0.2
	c1.4,0,2.6-0.9,3.1-2.2l5.1-13.8c0.5-1.8-0.6-3.6-2.3-4.1c-1.5-0.4-3.1,0.3-3.8,1.7l-5.1,13.8C540.2,66.6,541.1,68.5,542.8,69.2
	L542.8,69.2z M560,78.2c0.9,0,1.7-0.3,2.3-0.9l8.5-8.2c1.3-1.3,1.3-3.4,0.1-4.7c-1.3-1.3-3.4-1.3-4.7-0.1l-8.5,8.3
	c-1.3,1.3-1.3,3.4,0,4.7C558.3,77.8,559.1,78.2,560,78.2L560,78.2z"/>
</svg>
