<?xml version="1.0" encoding="utf-8"?>
<!-- Generator: Adobe Illustrator 22.1.0, SVG Export Plug-In . SVG Version: 6.00 Build 0)  -->
<svg version="1.1" id="レイヤー_1" xmlns="http://www.w3.org/2000/svg" xmlns:xlink="http://www.w3.org/1999/xlink" x="0px"
	 y="0px" viewBox="0 0 526.6 259" style="enable-background:new 0 0 526.6 259;" xml:space="preserve">
<style type="text/css">
	.st0{fill:none;}
	.st1{fill:#F50A00;}
	.st2{fill:#FFFFFF;}
</style>
<path class="st0" d="M-51.5-47h630.9v350H-51.5V-47z"/>
<path class="st1" d="M24.9,185.8c-15.5,0-22.5,10.6-22.5,24.3c0,13.7,7.1,24.3,22.5,24.3s22.5-10.6,22.5-24.3S40.4,185.8,24.9,185.8
	z M24.9,226.2c-8,0-12.3-5.1-12.3-16.1S16.9,194,24.9,194s12.4,5.1,12.4,16.1S33,226.2,24.9,226.2z M168.9,233.6
	c1.7,0.3,3.5,0.4,5.3,0.4c4.1,0,4.9-0.4,4.9-0.4l-16.5-47.1c0,0-0.8-0.4-4.3-0.4s-4.3,0.4-4.3,0.4l-16.5,47.1c0,0,0.8,0.4,4.9,0.4
	c1.8,0.1,3.6-0.1,5.3-0.4l10.6-34.8L168.9,233.6z M138.3,186.2c-1.8-0.1-3.6,0.1-5.3,0.4l-6.3,33.8l-8.2-33.8c0,0-0.8-0.4-4.1-0.4
	s-4.1,0.4-4.1,0.4l-8.2,33.8l-6.3-33.8c-1.7-0.3-3.5-0.4-5.3-0.4c-4.3,0-5.1,0.4-5.1,0.4l11.4,47.1c0,0,0.8,0.4,4.1,0.4
	c2.1,0.1,4.2,0,6.3-0.4l7.2-30l7.3,30c2.1,0.3,4.2,0.5,6.3,0.4c3.3,0,4.1-0.4,4.1-0.4l11.4-47.1
	C143.4,186.6,142.6,186.2,138.3,186.2z M208.3,186.2c-1.8-0.1-3.6,0.1-5.3,0.4l-10.4,37.2l-10.4-37.2c-1.7-0.3-3.5-0.4-5.3-0.4
	c-4.3,0-5.1,0.4-5.1,0.4l15.1,47.1c0,0,0.8,0.4,5.7,0.4s5.7-0.4,5.7-0.4l15.1-47.1C213.4,186.6,212.6,186.2,208.3,186.2L208.3,186.2
	z"/>
<path class="st1" d="M71.4,209.3l14.5-22.8c0,0-0.8-0.4-5.1-0.4c-1.9-0.1-3.8,0.1-5.7,0.4l-13.9,22.8l14.7,24.3
	c1.9,0.3,3.8,0.5,5.7,0.4c4.3,0,5.1-0.4,5.1-0.4L71.4,209.3z M49.8,186.6v47.1c0,0,0.8,0.4,4.9,0.4s4.9-0.4,4.9-0.4v-47.1
	c0,0-0.8-0.4-4.9-0.4S49.8,186.6,49.8,186.6z M225.5,225.4v-12h17.6c0,0,0.4-0.8,0.4-4.1s-0.4-4.1-0.4-4.1h-17.6v-10.4h20.8
	c0,0,0.4-0.8,0.4-4.1s-0.4-4.1-0.4-4.1h-30.6v47.1h30.6c0,0,0.4-0.8,0.4-4.1s-0.4-4.1-0.4-4.1L225.5,225.4z M123.5,7.9
	C55.7,7.9,42.6,21,42.6,88.8s13.1,80.9,80.9,80.9s80.9-13.1,80.9-80.9S191.3,7.9,123.5,7.9L123.5,7.9z M123.5,161.5
	c-62.9,0-72.8-9.9-72.8-72.8S60.6,16,123.5,16s72.8,9.9,72.8,72.8S186.4,161.5,123.5,161.5L123.5,161.5z"/>
<path class="st1" d="M149.4,45.6c-11.6,0-21.6,7.5-25.9,18.2c-4.3-10.7-14.2-18.2-25.9-18.2c-11.9,0-28.1,7.1-28.1,30.2
	c0,30.9,40.4,58.4,53.9,68.7c13.5-10.3,53.9-37.8,53.9-68.7C177.5,52.7,161.3,45.6,149.4,45.6z M11.1,254.4v1.3H7.7v-16.3h3.4v6.9
	c0.8-1.2,2.1-2,3.6-1.9c1.3-0.1,2.5,0.5,3.3,1.5c0.8,1.2,1.2,2.6,1.2,4c0.1,1.6-0.4,3.1-1.3,4.4c-0.9,1.1-2.2,1.7-3.6,1.7
	C13,256,11.8,255.4,11.1,254.4L11.1,254.4z M11,249.8v1.1c0,0.6,0.2,1.3,0.6,1.8c0.4,0.5,1,0.7,1.6,0.7c0.7,0,1.4-0.3,1.8-0.9
	c0.5-0.8,0.7-1.6,0.6-2.5c0-0.8-0.2-1.5-0.6-2.1c-0.4-0.5-1-0.8-1.7-0.8c-0.7,0-1.3,0.3-1.7,0.8C11.2,248.3,11,249,11,249.8
	L11,249.8z M43.4,251.1h-7.2c0.1,1.6,1.1,2.4,3,2.4c1.1,0,2.2-0.3,3.2-0.9v2.4c-1.2,0.6-2.6,0.9-4,0.8c-2.8,0.3-5.3-1.8-5.6-4.6
	c0-0.3,0-0.7,0-1c-0.1-1.6,0.5-3.2,1.6-4.3c1-1,2.4-1.6,3.9-1.6c1.4-0.1,2.7,0.4,3.7,1.4c0.9,1.1,1.4,2.5,1.3,3.9L43.4,251.1z
	 M40.3,249.1c0-1.6-0.6-2.4-1.9-2.4c-0.5,0-1.1,0.3-1.4,0.7c-0.4,0.5-0.7,1.1-0.7,1.7L40.3,249.1L40.3,249.1z M57.2,255.4v-2.8
	c0.5,0.3,1.1,0.6,1.7,0.8c0.5,0.2,1,0.2,1.6,0.2c0.5,0,1-0.1,1.4-0.2c0.3-0.1,0.5-0.4,0.5-0.8c0-0.2-0.1-0.4-0.2-0.5
	c-0.2-0.2-0.4-0.3-0.6-0.4c-0.3-0.1-0.5-0.2-0.8-0.3c-0.3-0.1-0.6-0.2-0.8-0.3c-0.4-0.1-0.8-0.3-1.2-0.5c-0.3-0.2-0.6-0.4-0.8-0.7
	c-0.2-0.3-0.4-0.5-0.5-0.9s-0.2-0.8-0.2-1.2c0-0.6,0.1-1.1,0.4-1.6c0.3-0.4,0.6-0.8,1.1-1.1c0.5-0.3,1-0.5,1.5-0.6
	c0.6-0.1,1.2-0.2,1.8-0.2c0.5,0,1,0,1.5,0.1s1,0.2,1.5,0.3v2.6c-0.4-0.3-0.9-0.4-1.4-0.6c-0.5-0.1-1-0.2-1.4-0.2
	c-0.2,0-0.4,0-0.6,0.1c-0.2,0-0.4,0.1-0.5,0.2s-0.3,0.2-0.4,0.3c-0.1,0.1-0.1,0.3-0.1,0.4c0,0.2,0.1,0.4,0.2,0.5
	c0.1,0.2,0.3,0.3,0.5,0.4s0.5,0.2,0.7,0.3l0.8,0.3c0.4,0.1,0.8,0.3,1.2,0.5c0.3,0.2,0.7,0.4,0.9,0.7c0.3,0.2,0.5,0.5,0.6,0.9
	s0.2,0.8,0.2,1.2c0,0.6-0.1,1.2-0.4,1.7s-0.7,0.8-1.1,1.1c-0.5,0.3-1,0.5-1.6,0.6s-1.3,0.2-1.9,0.2C59.4,256,58.3,255.8,57.2,255.4
	L57.2,255.4z M87.8,255.5c-0.7,0.3-1.5,0.4-2.3,0.4c-2.4,0-3.6-1.2-3.6-3.7v-5h-1.8v-2.5h1.8v-2.4l3.4-1v3.3h2.5v2.5h-2.5v4.4
	c0,1.1,0.4,1.7,1.4,1.7c0.4,0,0.8-0.1,1.1-0.3L87.8,255.5L87.8,255.5z M126.3,255.7h-3.2v-1.6c-0.7,1.2-1.9,1.9-3.3,1.9
	c-0.9,0.1-1.8-0.3-2.5-0.9c-0.6-0.6-1-1.5-0.9-2.4c0-2.1,1.3-3.4,3.8-3.7l3-0.4c0-1.2-0.6-1.8-1.9-1.8c-1.3,0-2.6,0.4-3.7,1.2v-2.5
	c0.6-0.3,1.3-0.5,1.9-0.6c0.7-0.2,1.5-0.3,2.2-0.3c3.1,0,4.7,1.6,4.7,4.7L126.3,255.7z M123.1,251.2v-0.7l-2,0.3
	c-1.1,0.1-1.7,0.6-1.7,1.5c0,0.4,0.1,0.7,0.4,1c0.3,0.3,0.7,0.4,1.1,0.4c0.6,0,1.2-0.2,1.6-0.7C122.9,252.5,123.1,251.8,123.1,251.2
	L123.1,251.2z M151.8,255.9h-3.4v-6.1c0-1.7-0.6-2.6-1.8-2.6c-0.6,0-1.1,0.2-1.4,0.7c-0.4,0.5-0.6,1.1-0.6,1.7v6.3h-3.4v-11h3.4v1.7
	c0.7-1.3,2.1-2,3.5-2c2.4,0,3.6,1.5,3.6,4.5L151.8,255.9z M165.1,255.4v-2.8c0.5,0.3,1.1,0.6,1.7,0.8c0.5,0.2,1,0.2,1.6,0.2
	c0.5,0,1-0.1,1.4-0.2c0.3-0.1,0.5-0.4,0.5-0.8c0-0.2-0.1-0.4-0.2-0.5c-0.2-0.2-0.4-0.3-0.6-0.4c-0.3-0.1-0.5-0.2-0.8-0.3
	c-0.3-0.1-0.6-0.2-0.9-0.3c-0.4-0.1-0.8-0.3-1.2-0.5c-0.3-0.2-0.6-0.4-0.8-0.7c-0.2-0.3-0.4-0.6-0.5-0.9c-0.1-0.4-0.2-0.8-0.2-1.2
	c0-0.6,0.1-1.1,0.4-1.6c0.3-0.4,0.6-0.8,1.1-1.1c0.5-0.3,1-0.5,1.5-0.6c0.6-0.1,1.2-0.2,1.8-0.2c0.5,0,1,0,1.5,0.1s1,0.2,1.5,0.3
	v2.6c-0.4-0.3-0.9-0.4-1.4-0.6c-0.5-0.1-1-0.2-1.4-0.2c-0.2,0-0.4,0-0.6,0.1c-0.2,0-0.4,0.1-0.5,0.2s-0.3,0.2-0.4,0.3
	c-0.1,0.1-0.1,0.3-0.1,0.4c0,0.2,0.1,0.4,0.2,0.5c0.1,0.2,0.3,0.3,0.5,0.4s0.5,0.2,0.7,0.3l0.8,0.3c0.4,0.1,0.8,0.3,1.2,0.5
	c0.3,0.2,0.7,0.4,0.9,0.7c0.3,0.2,0.5,0.5,0.6,0.9s0.2,0.8,0.2,1.2c0,0.6-0.1,1.2-0.4,1.7c-0.3,0.5-0.7,0.8-1.1,1.1
	c-0.5,0.3-1,0.5-1.6,0.6s-1.3,0.2-1.9,0.2C167.3,255.9,166.1,255.8,165.1,255.4L165.1,255.4z M202.7,244.9l-3.2,11H196l-1.6-6.4
	c-0.1-0.5-0.2-0.9-0.2-1.4h-0.1c0,0.5-0.1,0.9-0.2,1.4l-1.7,6.5h-3.5l-3.1-11h3.5l1.5,7.2c0.1,0.4,0.1,0.8,0.2,1.2h0.1
	c0-0.4,0.1-0.9,0.2-1.3l1.9-7.1h3.2l1.7,7.2c0,0.2,0.1,0.6,0.1,1.2h0.1c0-0.4,0.1-0.8,0.2-1.2l1.4-7.2L202.7,244.9z M222.8,251.1
	h-7.2c0.1,1.6,1.1,2.4,3,2.4c1.1,0,2.2-0.3,3.2-0.9v2.4c-1.2,0.6-2.6,0.9-4,0.8c-2.8,0.3-5.3-1.8-5.6-4.6c0-0.3,0-0.7,0-1
	c-0.1-1.6,0.5-3.2,1.6-4.3c1-1,2.4-1.6,3.9-1.6c1.4-0.1,2.7,0.4,3.7,1.4c0.9,1.1,1.4,2.5,1.3,3.9L222.8,251.1z M219.6,249.1
	c0-1.6-0.6-2.4-1.9-2.4c-0.5,0-1.1,0.3-1.4,0.7c-0.4,0.5-0.7,1.1-0.7,1.7L219.6,249.1L219.6,249.1z M243.5,248
	c-0.4-0.2-0.9-0.3-1.4-0.3c-0.7,0-1.3,0.3-1.7,0.8c-0.4,0.6-0.7,1.4-0.6,2.2v5.2h-3.4v-11h3.4v2c0.3-1.3,1.5-2.3,2.9-2.2
	c0.3,0,0.6,0,0.8,0.1L243.5,248z"/>
<circle class="st2" cx="252.3" cy="254.2" r="1.8"/>
<path class="st1" d="M465.5,22.9c-24,0-44.7,15.5-53.5,37.6c-8.8-22.1-29.4-37.6-53.5-37.6c-24.6,0-58,14.7-58,62.4
	c0,63.8,83.6,120.8,111.5,142c27.9-21.3,111.5-78.2,111.5-142C523.5,37.7,490,22.9,465.5,22.9z M464.6,47.8c0.8-2.4,4-2,6-1.2
	c0.3,0.1,0.6,0.3,0.8,0.5c1.3,1.2,1,4.5-0.3,5.5c-1.5,1-3.4,1-5,0.1C464.7,51.6,464.1,49.6,464.6,47.8L464.6,47.8z M452.3,105.7h2.3
	l-4,10.6h-2l-4-10.6h2.3l2.7,7.1L452.3,105.7z M443,131.2c3.1,0.6,6.3,0.9,9.5,1l-0.4,2.6c-2.5-0.2-7-0.6-9.5-1L443,131.2z
	 M440.9,116.4v-10.6h2.3v10.6H440.9z M428.3,65.2c0-0.6,0.5-1.2,1.2-1.2l0,0h4c0.6,0,1.2,0.5,1.2,1.2l0,0v15c0,0.6,0.4,0.8,0.9,0.5
	c0.7-0.5,1.4-1,2.2-1.4c1.1-0.5,2.2-0.7,3.4-0.7c2-0.1,3.9,0.8,5.1,2.4c1.2,1.6,1.7,5.4,1.7,5.4c0.1,0.8,0.1,1.6,0.1,2.3v9.9
	c0,0.6-0.5,1.1-1.2,1.1H443c-0.6,0-1.2-0.5-1.2-1.2l0,0v-8.8c0-0.8-0.1-1.6-0.2-2.3c-0.1-0.8-0.4-1.6-0.9-2.2
	c-0.6-0.8-1.5-1.4-2.5-1.4c-1.2-0.1-2.2,0.5-2.8,1.6c-0.4,1.2-0.7,2.5-0.8,3.8c0,0.6-0.1,1.7-0.1,2.3v7.1c0,0.6-0.5,1.2-1.2,1.2h-4
	c-0.6,0-1.2-0.5-1.2-1.2L428.3,65.2z M429.7,133.5l1.5,2.5c-0.6,0.4-1.3,0.7-2.1,1.1c-2,0.9-4,2-5.9,3.1c-1.8,1.1-2.9,2.4-2.9,3.8
	s1.5,2.3,4.4,2.3c2.3,0,4.6-0.3,6.9-0.8v3c-2.2,0.4-4.5,0.5-6.8,0.5c-4.2,0-7.4-1.2-7.4-4.8c0-2.4,1.5-4.1,3.5-5.6
	c-1-1.8-2-4.1-3-6.3l2.7-1.1c0.8,2,1.6,4,2.6,5.8c1.7-1,3.6-1.9,4.6-2.5C428.5,134.4,429.1,134,429.7,133.5L429.7,133.5z
	 M426.7,105.7v10.6h-2.2l-4.9-6.9v6.9h-2.3v-10.6h2.3l4.9,6.9v-6.9H426.7z M409.5,79c0-0.7,0.5-1.2,1.2-1.2h2.1
	c0.6,0,1.2-0.5,1.2-1.2V73c0-0.6,0.5-1.2,1.2-1.2h3.9c0.6,0,1.2,0.5,1.2,1.2v3.7c0,0.6,0.5,1.2,1.2,1.2h1.9c0.6,0,1.2,0.5,1.2,1.2
	l0,0v3.4c0,0.6-0.5,1.2-1.2,1.2l0,0h-1.9c-0.6,0-1.2,0.5-1.2,1.2v13.9c0,0.6-0.5,1.2-1.2,1.2h-3.9c-0.6,0-1.2-0.5-1.2-1.2v-14
	c0-0.6-0.5-1.2-1.2-1.2h-2.1c-0.6,0-1.2-0.5-1.2-1.2V79z M323.8,115.6L340,95.1l0.7-0.9l0.7-0.9c0,0,3.9-5.2,5-7.4
	c1.1-1.9,1.7-4.1,1.7-6.3c0.1-2-0.7-4-2.1-5.4s-3.4-2.2-5.4-2.1c-1.1,0-2.2,0.2-3.2,0.7c-0.9,0.4-1.7,1.1-2.2,2
	c-1.1,1.7-1.8,6.5-1.8,6.5c-0.1,0.7-0.7,1.1-1.3,1.2h-8.6c-0.6,0-1-0.4-1-1c0-0.1,0-0.1,0-0.2c0,0,1.7-9.7,5.3-13.1
	c3.8-3.5,8.7-5.3,13.9-5.1c5.1,0,9.3,1.5,12.5,4.4s5,7.1,4.8,11.4c0,4.5-5.2,14.1-5.2,14.1c-0.3,0.6-0.9,1.5-1.2,2l-1.8,2.7l-0.7,1
	l-0.7,1L346,104c-0.4,0.5-1,1.3-1.5,1.8l-0.5,0.6c-0.4,0.5-0.5,0.9-0.3,0.9h14c0.7,0,1.2,0.5,1.2,1.2v6.7c0,0.6-0.5,1.2-1.2,1.2
	h-33.5C323.6,116.5,323.4,116.1,323.8,115.6L323.8,115.6z M358.2,149.6l-1.4-2.2c4.1-0.4,5.7-2.5,5.7-4.6c0-1.4-0.9-2.6-2.2-3
	c-1,2.5-2.5,4.6-4.5,6.4c0.1,0.6,0.3,1.1,0.5,1.6l-2.4,0.7c-0.1-0.2-0.2-0.6-0.3-0.9c-1,0.5-2.1,0.8-3.3,0.9c-1.6,0-2.9-0.9-2.9-3.1
	c0-2.7,2.2-5.5,5.2-6.9c0.1-0.9,0.1-1.8,0.2-2.6h-0.7c-1.1,0-2.8-0.1-3.7-0.1l-0.1-2.4c1.3,0.2,2.6,0.3,3.9,0.3h0.8l0.1-1.1
	c0.1-0.4,0.1-0.8,0.1-1.3l2.8,0.1c-0.1,0.4-0.2,0.7-0.3,1.1c-0.1,0.4-0.2,0.7-0.2,1.1c2.4-0.1,4.8-0.4,7.2-0.9v2.4
	c-2.5,0.4-5,0.7-7.5,0.8c-0.1,0.6-0.1,1.3-0.1,1.9c1-0.2,2.1-0.4,3.1-0.4h0.4c0.1-0.4,0.2-0.8,0.2-1.3l2.6,0.6
	c-0.1,0.4-0.3,0.7-0.4,1.1c2.4,0.6,4,2.7,4.1,5.2C365.1,145.9,363.4,148.8,358.2,149.6L358.2,149.6z M368.6,110
	c-3.8-4.8-5.7-11.1-5.7-18.9c0-8.4,1.9-15,5.6-20c3.3-4.8,8.8-7.6,14.6-7.5h0.3c5.8-0.2,11.3,2.5,14.7,7.1
	c3.7,4.7,5.5,11.1,5.5,19.1c0,9.4-2.1,16.3-6.1,20.7s-8.8,6.7-14.1,6.7C377.6,117.3,372.1,114.7,368.6,110L368.6,110z M380,134.7
	c-2.5,0-4.7,3.8-4.8,6.5c0,0.7,0,1.5,0.1,2.2l-2.6,0.2c-0.2-1.2-0.2-2.3-0.2-3.5c0.1-2.3,0.2-4.5,0.6-6.8c0.1-0.8,0.1-1.6,0.2-2.2
	l2.9,0.1c-0.4,1.4-0.7,2.9-0.9,4.4c1-1.6,2.8-3.4,5.2-3.4c3,0,5.2,2.9,5.2,7.5c0,6-3.7,8.8-9.2,9.9l-1.6-2.4c4.7-0.7,8-2.3,8-7.4
	C382.8,136.6,381.7,134.7,380,134.7z M386.8,163.2c-0.1,2.3-0.3,8.2-1.3,10.4c-0.4,1.1-1.6,1.8-2.8,1.6c-1.2,0-2.5-0.1-3.5-0.2
	l-0.3-2.9c1,0.2,2,0.3,3,0.3c0.5,0.1,1-0.2,1.2-0.7c0.6-1.4,0.9-5.6,0.9-7.9h-4.8c-0.8,5.6-2.8,9-6.6,11.7l-2.5-2
	c1-0.6,2-1.3,2.8-2.1c2-2.1,3.2-4.7,3.5-7.6h-2.9c-0.7,0-1.9,0-2.8,0.1v-2.8c0.9,0.1,2,0.1,2.8,0.1h3v-1.9c0-0.7-0.1-1.3-0.1-2h3.1
	c-0.1,0.5-0.1,1.4-0.1,1.9c0,0.7,0,1.3-0.1,1.9h4c0.5,0,1.1-0.1,1.6-0.1l1.8,0.9C386.8,162.4,386.8,162.8,386.8,163.2L386.8,163.2z
	 M394.6,136.1c0.7,0,1.7-0.1,2.7-0.2c0.3-1.5,0.4-3,0.5-4.5l3.1,0.3c-0.1,0.6-0.3,1.2-0.4,1.8s-0.3,1.4-0.5,2.2
	c0.7,0,1.3-0.1,1.8-0.1c2.2,0,3.8,1,3.8,4c0,2.5-0.3,5.9-1.2,7.7c-0.6,1.3-2,2.1-3.5,1.9c-0.8,0-1.7-0.1-2.5-0.3l-0.5-2.8
	c0.8,0.2,1.7,0.4,2.6,0.4c0.7,0.1,1.3-0.3,1.6-0.9c0.6-1.9,0.9-3.8,0.9-5.8c0-1.7-0.7-1.9-2-1.9c-0.4,0-0.9,0-1.5,0.1
	c-0.8,3.2-2.4,8.2-4.3,11.3l-2.8-1.1c2-3,3.4-6.4,4.2-9.9c-0.7,0.1-1.4,0.2-1.8,0.2c-0.6,0.1-1.7,0.2-2.3,0.3l-0.2-2.9
	C393.1,136.1,393.8,136.1,394.6,136.1L394.6,136.1z M409.6,162.5c-0.7,2.1-1.7,4-2.9,5.8c0.8,0.5,1.5,1,2,1.4l-1.9,2.5
	c-0.5-0.4-1.2-1-2-1.5c-2.2,2.4-4.9,4.2-7.9,5.3l-2.5-2.2c3-0.9,5.8-2.5,8-4.8c-1.5-0.9-2.9-1.8-4-2.4l1.8-2c1.1,0.6,2.6,1.4,4,2.2
	c1-1.4,1.7-2.9,2.2-4.5h-6.1c-1.6,2.1-3.5,4-5.6,5.5l-2.3-1.8c2.8-1.7,5.2-4.2,6.8-7.1c0.4-0.7,0.8-1.5,1-2.2l3.1,1
	c-0.5,0.7-1.1,1.7-1.3,2.2h4.4c0.6,0,1.2-0.1,1.9-0.2l2.2,1.3C410.1,161.5,409.8,162,409.6,162.5L409.6,162.5z M409.1,142.9
	c-0.7-2.9-1.9-5.6-3.6-8l2-0.8c-0.4-0.9-0.9-1.7-1.5-2.5l1.7-0.7c0.5,0.8,1.3,2.1,1.7,2.9l-1.1,0.5c1.4,2.3,2.5,4.8,3.4,7.4
	L409.1,142.9z M410.3,133.6c-0.5-1-1.1-2-1.7-3l1.7-0.7c0.6,0.9,1.2,1.9,1.7,2.9L410.3,133.6z M412.7,114.3h-4.1l-0.8,2.1h-2.3
	l4.3-10.6h1.8l4.3,10.6h-2.3L412.7,114.3z M433.7,167.1c-0.6,0-1.3-0.1-1.9-0.1h-5.5c-0.2,3.7-2.3,7-5.5,8.8l-2.7-1.8
	c2.9-1.1,5-3.8,5.4-6.9h-5.9c-0.7,0-1.5,0.1-2,0.1v-2.8c0.7,0.1,1.3,0.1,2,0.1h6v-3c-2,0.2-4.3,0.2-5.7,0.3l-0.7-2.5
	c2.4,0.1,4.9-0.1,7.3-0.4c1.8-0.2,3.6-0.6,5.4-1.3l1.7,2.3l-1.6,0.4c-1.2,0.3-2.4,0.5-3.6,0.7v3.4h5.4c0.5,0,1.5-0.1,1.9-0.1
	L433.7,167.1z M438.5,116.4h-2.2l-4.9-6.9v6.9h-2.3v-10.6h2.3l4.9,6.9v-6.9h2.2V116.4z M442.3,173.4c-0.1,0.3-0.1,0.7-0.1,1v0.9
	l-2.4,0.2c-0.6-2.3-0.9-4.6-0.8-6.9c0.1-2.8,0.4-5.6,0.9-8.4c0.1-0.7,0.2-1.4,0.2-2.1l3,0.3c-0.2,0.6-0.4,1.2-0.5,1.9
	c-0.5,2.6-0.9,5.1-1,7.7c0,0.5,0,0.9,0.1,1.4c0.3-0.7,0.6-1.4,0.9-2.1l1.3,1C443.3,169.9,442.8,171.6,442.3,173.4L442.3,173.4z
	 M442.7,146.9c5.2-0.6,8.6-2.3,8.6-5.6c0-1.4-1.1-2.5-3-2.5c-1.9,0.1-3.7,0.4-5.5,1c-0.6,0.2-1.4,0.5-2,0.7l-0.8-3
	c0.8-0.1,1.5-0.2,2.3-0.4c2.1-0.6,4.2-0.9,6.4-1c3.3,0,5.7,1.9,5.7,5.2c0,4.5-4.2,7.3-10,8.1L442.7,146.9z M455.4,159.7v2.7
	c-3,0.2-6,0.2-9.1,0v-2.7C449.3,160,452.4,160,455.4,159.7L455.4,159.7z M450.6,174.7c-3.6,0-5.4-1.3-5.4-3.5c0-0.9,0.1-1.8,0.4-2.8
	l2.4,0.2c-0.2,0.6-0.2,1.2-0.2,1.8c0,0.9,0.8,1.5,2.9,1.5c1.8,0,3.5-0.2,5.3-0.6l0.1,2.9C454.2,174.6,452.4,174.8,450.6,174.7
	L450.6,174.7z M462.1,110v2.1h-3.7v2.2h3.7v2.1h-6v-10.7h6v2.1h-3.7v2.2L462.1,110L462.1,110z M472.8,145.3h-2.5
	c0-0.6,0.1-1.6,0.1-2.5c-1.6,0.9-2.4,1.7-2.4,2.7s1,1.5,3,1.5s4-0.2,6-0.6l-0.1,2.8c-2,0.2-4,0.3-6,0.3c-3.3,0-5.8-0.8-5.8-3.5
	s2.5-4.4,5-5.6c-0.3-0.5-0.9-0.8-1.5-0.7c-1.2,0.1-2.4,0.6-3.3,1.4c-0.7,0.7-1.4,1.5-2,2.3l-2.3-1.7c1.9-1.6,3.5-3.6,4.7-5.8h-0.3
	c-0.8,0-2.4,0-3.6-0.1v-2.5c1.2,0.2,2.5,0.2,3.7,0.2h1c0.2-0.8,0.4-1.6,0.4-2.4l2.8,0.2c-0.1,0.5-0.3,1.2-0.5,2.1c2-0.1,4-0.3,6-0.6
	v2.5c-2,0.3-4.6,0.5-6.9,0.6c-0.3,0.7-0.7,1.5-1.2,2.1c0.8-0.3,1.6-0.4,2.4-0.4c1.2-0.1,2.3,0.6,2.8,1.6c1.1-0.5,2-0.9,2.8-1.2
	l2.3-1.1l1.1,2.4c-0.9,0.2-1.7,0.5-2.5,0.9c-0.9,0.4-2.1,0.8-3.4,1.4C472.8,142.8,472.8,144.3,472.8,145.3L472.8,145.3z
	 M472.3,116.4h-2.6l-2.8-4.1h-0.3v4.1h-2.3v-10.7h3.5c0.9-0.1,1.8,0.2,2.5,0.8c0.6,0.6,1,1.4,0.9,2.3c0,0.6-0.2,1.2-0.4,1.7
	c-0.3,0.6-0.9,1.1-1.6,1.4L472.3,116.4z M479.1,115.5c-0.7,0.7-1.6,1-2.6,1c-1.2-0.1-2.4-0.6-3.3-1.5l1.5-1.8c0.5,0.6,1.2,0.9,1.9,1
	c0.3,0,0.6-0.1,0.8-0.4c0.2-0.2,0.4-0.5,0.4-0.8c0-0.6-0.6-1-1.8-1.5c-0.5-0.2-1-0.4-1.4-0.7c-0.3-0.3-0.5-0.6-0.7-0.9
	c-0.2-0.4-0.3-0.8-0.3-1.2c0-0.9,0.3-1.7,0.9-2.3c0.7-0.6,1.5-0.9,2.4-0.9c1.1,0,2.2,0.4,3,1.1l-1.4,1.6c-0.5-0.3-1-0.6-1.6-0.7
	c-0.3,0-0.5,0.1-0.7,0.3s-0.3,0.4-0.3,0.7c0,0.5,0.5,1,1.4,1.4c0.6,0.2,1.1,0.5,1.6,0.8c0.4,0.3,0.7,0.6,0.9,1s0.4,0.9,0.4,1.4
	C480.2,114,479.8,114.9,479.1,115.5L479.1,115.5z M489.1,116.4l-0.8-2.1h-4.1l-0.8,2.1H481l4.3-10.6h1.8l4.3,10.6H489.1z M485,79.8
	c-6.3,0.7-15.4-1-20.9-4.2c-6.4-3.8-10-10.9-9.5-18.3c0-0.8,0.3-1.6,0.9-2.1c4.9-2.8,4.4,4.8,5.1,7c1.4,4.2,4.4,7.7,8.3,9.7
	c3.4,1.6,9.6,2.9,13.3,1.8c2.3-0.7,4.1-3.8,7-2.7C495.9,73.5,488.7,79.4,485,79.8L485,79.8z M491,63.4c-1.5,0.6-3.2,0.4-4.5-0.6
	c-1.1-1.2-1.4-2.8-1-4.3c0.8-2.2,3.3-2.3,5.3-1.9c0.5,0.1,0.9,0.3,1.2,0.6c0.2,0.3,0.4,0.6,0.4,1C493,60.1,493.2,62.6,491,63.4
	L491,63.4z M498.2,116.4l-2.8-4.1h-0.3v4.1H493v-10.7h3.5c0.9,0,1.8,0.3,2.5,0.8c0.6,0.6,1,1.4,0.9,2.3c0,0.6-0.2,1.2-0.4,1.7
	c-0.3,0.6-0.9,1.1-1.6,1.4l3,4.4L498.2,116.4z M506.7,116.4h-2.3v-5l-3.4-5.7h2.5l2,3.3l2-3.3h2.5l-3.4,5.7L506.7,116.4z"/>
<path class="st1" d="M484.9,112.4h2.5l-1.3-3.1L484.9,112.4z M468.5,108c-0.4-0.3-0.8-0.4-1.3-0.4h-0.5v2.8h0.5
	c1.2,0,1.8-0.5,1.8-1.5C469,108.6,468.8,108.2,468.5,108z M350,145c0,0.7,0.3,1,1,1s1.5-0.3,2.1-0.7c-0.2-1.4-0.4-2.8-0.4-4.2
	C351.1,142.1,350,143.8,350,145L350,145z M409.4,112.4h2.5l-1.3-3.1L409.4,112.4z M355.1,140c0,1.2,0.1,2.3,0.2,3.5
	c1.1-1.1,2.1-2.5,2.7-4C357,139.5,356,139.7,355.1,140L355.1,140z M390.6,103c1.8-3.1,2.7-7.2,2.7-12.4c0-5.4-0.9-9.7-2.6-12.9
	c-0.8-1.4-1.8-2.7-3.2-3.6c-1.2-0.8-2.7-1.2-4.1-1.2c-1.5,0-3,0.4-4.3,1.2c-1.4,0.9-2.5,2.2-3.2,3.6c-1.8,3.2-2.7,7.5-2.7,13.1
	c0,5,0.9,9.1,2.7,12.2c0.8,1.4,1.9,2.6,3.2,3.5c1.2,0.8,2.7,1.2,4.1,1.2c1.5,0,2.9-0.4,4.2-1.2C388.8,105.6,389.9,104.4,390.6,103
	L390.6,103z M497.1,108c-0.4-0.3-0.8-0.4-1.3-0.4h-0.5v2.8h0.5c1.2,0,1.8-0.5,1.8-1.5C497.6,108.6,497.4,108.2,497.1,108z
	 M474.3,18.5h0.4c1.7,0,3.1-1.3,3.3-3l1-9.3c0.3-1.8-0.9-3.5-2.7-3.8s-3.5,0.9-3.8,2.7c0,0.1,0,0.2,0,0.4l-1,9.3
	C471.1,16.6,472.4,18.2,474.3,18.5C474.2,18.5,474.2,18.5,474.3,18.5L474.3,18.5z M491.8,22.2c0.4,0.1,0.8,0.2,1.2,0.2
	c1.4,0,2.6-0.9,3.1-2.2l5.1-13.8c0.5-1.8-0.6-3.6-2.3-4.1c-1.5-0.4-3.1,0.3-3.8,1.7L490,17.8C489.2,19.6,490.1,21.5,491.8,22.2
	L491.8,22.2z M509,31.2c0.9,0,1.7-0.3,2.3-0.9l8.5-8.2c1.3-1.3,1.3-3.4,0.1-4.7c-1.3-1.3-3.4-1.3-4.7-0.1l-8.5,8.3
	c-1.3,1.3-1.3,3.4,0,4.7C507.3,30.8,508.1,31.2,509,31.2L509,31.2z"/>
</svg>
