<svg xmlns="http://www.w3.org/2000/svg" viewBox="0 0 156 30"><defs><style>.cls-2{fill:#f50a00}</style></defs><g id="PC"><g id="PC:156_30_gif" data-name="PC:156*30 gif"><g id="gif"><path fill="none" d="M-7.92-10H161.7v50H-7.92z"/><path class="cls-2" d="M46.47 4.67c-6.59 0-9.59 4.5-9.59 10.33s3 10.33 9.59 10.33 9.58-4.5 9.58-10.33-3-10.33-9.58-10.33zm0 17.16c-3.42 0-5.25-2.16-5.25-6.83s1.83-6.83 5.25-6.83 5.25 2.16 5.25 6.83-1.84 6.83-5.25 6.83zM107.63 25a10.39 10.39 0 0 0 2.25.17A6.37 6.37 0 0 0 112 25l-7-20a5.27 5.27 0 0 0-1.84-.17 5.16 5.16 0 0 0-1.86.17l-7 20a6.24 6.24 0 0 0 2.08.17 10.27 10.27 0 0 0 2.25-.17l4.5-14.79zM94.63 4.83a10.39 10.39 0 0 0-2.25.17l-2.69 14.37L86.22 5a4.9 4.9 0 0 0-1.75-.17 4.83 4.83 0 0 0-1.75.17l-3.48 14.37L76.55 5a10.39 10.39 0 0 0-2.25-.17 6.74 6.74 0 0 0-2.17.17L77 25a4.83 4.83 0 0 0 1.75.17 12.76 12.76 0 0 0 2.63-.17l3.09-12.76L87.55 25a12.94 12.94 0 0 0 2.67.17A4.9 4.9 0 0 0 92 25l4.8-20a6.66 6.66 0 0 0-2.17-.17zM124.38 4.83a10.39 10.39 0 0 0-2.25.17l-4.41 15.82L113.3 5a10.39 10.39 0 0 0-2.25-.17 6.74 6.74 0 0 0-2.17.17l6.42 20a7.9 7.9 0 0 0 2.42.17 7.84 7.84 0 0 0 2.41-.17l6.42-20a6.66 6.66 0 0 0-2.17-.17z"/><path class="cls-2" d="M66.22 14.67L72.38 5a6.61 6.61 0 0 0-2.16-.17A11.38 11.38 0 0 0 67.8 5l-5.92 9.67L68.13 25a11.38 11.38 0 0 0 2.42.17 6.74 6.74 0 0 0 2.17-.17zM57.05 5v20a6.24 6.24 0 0 0 2.08.17 6.37 6.37 0 0 0 2.09-.17V5a6.37 6.37 0 0 0-2.09-.17 6.24 6.24 0 0 0-2.08.17zM131.72 21.5v-5.08h7.5a5.19 5.19 0 0 0 .16-1.75 5.11 5.11 0 0 0-.16-1.75h-7.5V8.5h8.83a4.83 4.83 0 0 0 .17-1.75 4.83 4.83 0 0 0-.17-1.75h-13v20h13a4.83 4.83 0 0 0 .17-1.75 4.83 4.83 0 0 0-.17-1.75zM15.88 0C3.31 0 .88 2.43.88 15s2.43 15 15 15 15-2.43 15-15-2.43-15-15-15zm0 28.5c-11.66 0-13.5-1.83-13.5-13.5S4.22 1.5 15.88 1.5s13.5 1.83 13.5 13.5-1.83 13.5-13.5 13.5z"/><path class="cls-2" d="M20.68 7a5.21 5.21 0 0 0-4.8 3.37A5.21 5.21 0 0 0 11.09 7c-2.2 0-5.21 1.32-5.21 5.6 0 5.72 7.5 10.83 10 12.73 2.5-1.9 10-7 10-12.73 0-4.28-3-5.6-5.2-5.6zM147.53 17.53a3.62 3.62 0 1 1-3.62 3.61 3.62 3.62 0 0 1 3.62-3.61m0-.55a4.17 4.17 0 1 0 4.17 4.16 4.17 4.17 0 0 0-4.17-4.14z"/><path class="cls-2" d="M148.4 23.42l-.89-1.7H147v1.7h-1.16V18.6h1.77c1 0 1.89.35 1.89 1.52a1.42 1.42 0 0 1-.83 1.39l1.07 1.91zm-1.4-2.61h.52c.55 0 .84-.24.84-.69s-.29-.6-.84-.6H147z"/></g></g></g></svg>