<svg xmlns="http://www.w3.org/2000/svg" viewBox="0 0 60 50"><path d="M25.8 5.2a4.8 4.8 0 0 1 .3-1.8 6.4 6.4 0 0 1 1-1.3 5.7 5.7 0 0 1 1.3-.8 3.9 3.9 0 0 1 1.5-.2 4.4 4.4 0 0 1 1.6.2l1.4.8a3 3 0 0 1 .9 1.3 3.4 3.4 0 0 1 .4 1.8 4 4 0 0 1-.8 2.6 3.7 3.7 0 0 1-2 1.3l3.8 10.8 5.3-8.6a4.3 4.3 0 0 1-2-1.5 3.5 3.5 0 0 1-.8-2.4 3.4 3.4 0 0 1 .4-1.8 2.7 2.7 0 0 1 1-1.3 2.9 2.9 0 0 1 1.4-.8 3.9 3.9 0 0 1 3 0 2.9 2.9 0 0 1 1.4.8 3.4 3.4 0 0 1 1 1.3 4.8 4.8 0 0 1 .4 1.8 3.5 3.5 0 0 1-.3 1.4 3.5 3.5 0 0 1-.7 1.2 4 4 0 0 1-1.2 1 3.3 3.3 0 0 1-1.5.4L45.5 22l5.6-6.3a3.6 3.6 0 0 1-1.5-1.5 3.7 3.7 0 0 1-.6-2.1 3.4 3.4 0 0 1 .4-1.8 3.2 3.2 0 0 1 1-1.3 3.2 3.2 0 0 1 1.4-.8l1.5-.3 1.5.3a3.9 3.9 0 0 1 1.4.8 3 3 0 0 1 .9 1.3 3.4 3.4 0 0 1 .4 1.8 4 4 0 0 1-.3 1.5 3.5 3.5 0 0 1-.8 1.3 3.8 3.8 0 0 1-1.3.9 3.4 3.4 0 0 1-1.8.4h-.5l-2.8 18v9s-9.6 4.7-20.1 4.7S10 43.2 10 43.2v-9l-2.8-18h-.5a3.4 3.4 0 0 1-1.8-.4 3.8 3.8 0 0 1-1.3-.9 5.7 5.7 0 0 1-.8-1.3 4 4 0 0 1-.3-1.5 3.4 3.4 0 0 1 .4-1.8A3 3 0 0 1 3.8 9a3.9 3.9 0 0 1 1.4-.8l1.5-.3 1.5.3a3.2 3.2 0 0 1 1.4.8 3.2 3.2 0 0 1 1 1.3 3.4 3.4 0 0 1 .4 1.8 3.7 3.7 0 0 1-.6 2.1 3.6 3.6 0 0 1-1.5 1.5l5.6 6.3 2.9-10.6a3.3 3.3 0 0 1-1.5-.4 4 4 0 0 1-1.2-1 3.5 3.5 0 0 1-.7-1.2 3.5 3.5 0 0 1-.3-1.4 4.8 4.8 0 0 1 .4-1.8 3.4 3.4 0 0 1 1-1.3 2.9 2.9 0 0 1 1.4-.8 3.9 3.9 0 0 1 3 0 2.9 2.9 0 0 1 1.4.8 2.7 2.7 0 0 1 1 1.3 3.4 3.4 0 0 1 .4 1.8 3.5 3.5 0 0 1-.8 2.4 4.3 4.3 0 0 1-2 1.5l5.3 8.6 3.8-10.8a3.7 3.7 0 0 1-2-1.3 4 4 0 0 1-.8-2.6"/></svg>