<svg xmlns="http://www.w3.org/2000/svg" viewBox="0 0 40 35"><path d="M17.2 3.9a2.7 2.7 0 0 1 .2-1.3l.6-.8.9-.6H21a4.7 4.7 0 0 1 .9.6 2.7 2.7 0 0 1 .7.8 2.7 2.7 0 0 1 .2 1.3 2.3 2.3 0 0 1-.5 1.7 3.4 3.4 0 0 1-1.4.9l2.6 7.2 3.6-5.8a2.4 2.4 0 0 1-1.4-1 2.2 2.2 0 0 1-.5-1.6 5 5 0 0 1 .2-1.2 2.2 2.2 0 0 1 .7-.9l.9-.5 1.1-.2 1 .2a1.9 1.9 0 0 1 .9.5 2.2 2.2 0 0 1 .7.9 2.5 2.5 0 0 1 .2 1.2 3.4 3.4 0 0 1-.1 1 2.2 2.2 0 0 1-.5.8 2.4 2.4 0 0 1-.8.6 1.7 1.7 0 0 1-1 .3l1.9 7.1 3.8-4.2a1.9 1.9 0 0 1-1-1 2.3 2.3 0 0 1-.4-1.4 3.7 3.7 0 0 1 .2-1.2 2.2 2.2 0 0 1 .7-.9 2 2 0 0 1 .9-.5 2.2 2.2 0 0 1 1.1-.2h1l.9.6a2.2 2.2 0 0 1 .7.9 3.7 3.7 0 0 1 .2 1.2 3.6 3.6 0 0 1-.2 1 4.1 4.1 0 0 1-.5.9 4.7 4.7 0 0 1-.9.6l-1.2.2h-.4l-1.9 12.2v6.1A34 34 0 0 1 20 32.6a34.1 34.1 0 0 1-13.5-3.2v-6.1L4.7 11.2h-.4L3.1 11l-.9-.6a4.1 4.1 0 0 1-.5-.9 3.6 3.6 0 0 1-.2-1 3.7 3.7 0 0 1 .2-1.2 2.2 2.2 0 0 1 .7-.9 2 2 0 0 1 .9-.5 1.8 1.8 0 0 1 1-.2 2.2 2.2 0 0 1 1.1.2 2 2 0 0 1 .9.5 2.2 2.2 0 0 1 .7.9 3.7 3.7 0 0 1 .2 1.2 2.3 2.3 0 0 1-.4 1.4 1.9 1.9 0 0 1-1 1l3.8 4.2L11.5 8a1.7 1.7 0 0 1-1-.3 2.4 2.4 0 0 1-.8-.6 5.6 5.6 0 0 1-.5-.8 3.4 3.4 0 0 1-.1-1 2.5 2.5 0 0 1 .2-1.2 2.2 2.2 0 0 1 .7-.9l.9-.5 1-.2 1.1.2.9.5a2.2 2.2 0 0 1 .7.9 5 5 0 0 1 .2 1.2 2.2 2.2 0 0 1-.5 1.6 2.4 2.4 0 0 1-1.4 1l3.6 5.8 2.6-7.2a3.4 3.4 0 0 1-1.4-.9 2.3 2.3 0 0 1-.5-1.7"/></svg>