<svg xmlns="http://www.w3.org/2000/svg" viewBox="0 0 30 27"><path d="M12.8 3.2a1.5 1.5 0 0 1 .2-.9 1.8 1.8 0 0 1 .5-.7l.7-.4h1.6l.7.4a1.8 1.8 0 0 1 .5.7 1.5 1.5 0 0 1 .2.9 2 2 0 0 1-.4 1.4 1.9 1.9 0 0 1-1.1.7l2 5.7 2.8-4.6a1.8 1.8 0 0 1-1-.7 2 2 0 0 1-.4-1.3 1.6 1.6 0 0 1 .2-1l.5-.7.7-.4h1.6l.8.4.5.7a3 3 0 0 1 .2 1 1.4 1.4 0 0 1-.2.7l-.3.7-.6.5-.8.2 1.5 5.6 2.9-3.3a3 3 0 0 1-.8-.8 2 2 0 0 1-.3-1.1 3 3 0 0 1 .2-1l.5-.7.8-.4h1.6l.7.4a1.8 1.8 0 0 1 .5.7 3 3 0 0 1 .2 1 1.3 1.3 0 0 1-.2.8 1.3 1.3 0 0 1-.4.7l-.7.5H27l-1.5 9.5v4.8A26.6 26.6 0 0 1 15 25.8a27.4 27.4 0 0 1-10.6-2.5v-4.8L3 9H1.8l-.7-.5a2.5 2.5 0 0 1-.4-.7A3.1 3.1 0 0 1 .5 7a3 3 0 0 1 .2-1 1.8 1.8 0 0 1 .5-.7l.7-.4h1.6l.8.4.5.7A3 3 0 0 1 5 7a2 2 0 0 1-.3 1l-.8.8 2.9 3.3 1.5-5.6-.8-.2-.6-.5-.3-.7a1.4 1.4 0 0 1-.2-.7 3 3 0 0 1 .2-1l.5-.7.8-.4h1.6l.7.4.5.7a1.6 1.6 0 0 1 .2 1 2 2 0 0 1-.4 1.3 1.8 1.8 0 0 1-1 .7l2.8 4.6 2-5.7a1.9 1.9 0 0 1-1.1-.7 2 2 0 0 1-.4-1.4"/></svg>