<?xml version="1.0" encoding="utf-8"?>
<!-- Generator: Adobe Illustrator 22.0.1, SVG Export Plug-In . SVG Version: 6.00 Build 0)  -->
<svg version="1.1" id="レイヤー_1" xmlns="http://www.w3.org/2000/svg" xmlns:xlink="http://www.w3.org/1999/xlink" x="0px"
	 y="0px" viewBox="0 0 60 60" style="enable-background:new 0 0 60 60;" xml:space="preserve">
<style type="text/css">
	.st0{fill:#ADADAD;}
</style>
<title>アートボード 1</title>
<path class="st0" d="M25.8,10.2c0-0.6,0.1-1.2,0.3-1.8c0.3-0.5,0.6-0.9,1-1.3c0.4-0.3,0.8-0.6,1.3-0.8c0.5-0.2,1-0.2,1.5-0.2
	s1.1,0,1.6,0.2l1.4,0.8c0.4,0.3,0.7,0.8,0.9,1.3c0.3,0.6,0.4,1.2,0.4,1.8c0,0.9-0.2,1.9-0.8,2.6c-0.5,0.6-1.2,1.1-2,1.3l3.8,10.8
	l5.3-8.6c-0.8-0.3-1.5-0.8-2-1.5c-0.6-0.7-0.8-1.5-0.8-2.4c0-0.6,0.1-1.2,0.4-1.8c0.2-0.5,0.5-1,1-1.3c0.4-0.4,0.9-0.7,1.4-0.8
	c1-0.4,2-0.4,3,0c0.5,0.1,1,0.4,1.4,0.8c0.4,0.3,0.8,0.8,1,1.3c0.2,0.6,0.4,1.2,0.4,1.8c0,0.5-0.1,1-0.3,1.4s-0.4,0.9-0.7,1.2
	c-0.3,0.4-0.7,0.7-1.2,1s-1,0.4-1.5,0.4L45.5,27l5.6-6.3c-0.6-0.3-1.2-0.9-1.5-1.5c-0.4-0.6-0.6-1.4-0.6-2.1c0-0.6,0.1-1.2,0.4-1.8
	c0.2-0.5,0.6-1,1-1.3c0.4-0.4,0.9-0.7,1.4-0.8l1.5-0.3l1.5,0.3c0.5,0.2,1,0.4,1.4,0.8c0.4,0.3,0.7,0.8,0.9,1.3
	c0.3,0.6,0.4,1.2,0.4,1.8c0,0.5-0.1,1-0.3,1.5s-0.4,0.9-0.8,1.3c-0.4,0.4-0.8,0.7-1.3,0.9c-0.6,0.3-1.2,0.4-1.8,0.4h-0.5l-2.8,18v9
	c0,0-9.6,4.7-20.1,4.7S10,48.2,10,48.2v-9l-2.8-18H6.7c-0.6,0-1.2-0.1-1.8-0.4c-0.5-0.2-0.9-0.5-1.3-0.9c-0.3-0.4-0.6-0.8-0.8-1.3
	c-0.2-0.5-0.3-1-0.3-1.5c0-0.6,0.1-1.2,0.4-1.8c0.2-0.5,0.5-1,0.9-1.3c0.4-0.4,0.9-0.6,1.4-0.8l1.5-0.3l1.5,0.3
	c0.5,0.1,1,0.4,1.4,0.8c0.4,0.3,0.8,0.8,1,1.3c0.3,0.6,0.4,1.2,0.4,1.8c0,0.7-0.2,1.5-0.6,2.1c-0.3,0.6-0.9,1.2-1.5,1.5l5.6,6.3
	l2.9-10.6c-0.5,0-1-0.1-1.5-0.4c-0.5-0.3-0.9-0.6-1.2-1c-0.3-0.3-0.5-0.8-0.7-1.2s-0.3-0.9-0.3-1.4c0-0.6,0.2-1.2,0.4-1.8
	c0.2-0.5,0.6-1,1-1.3c0.4-0.4,0.9-0.7,1.4-0.8c1-0.4,2-0.4,3,0c0.5,0.1,1,0.4,1.4,0.8c0.5,0.3,0.8,0.8,1,1.3
	c0.3,0.6,0.4,1.2,0.4,1.8c0,0.9-0.2,1.7-0.8,2.4c-0.5,0.7-1.2,1.2-2,1.5l5.3,8.6l3.8-10.8c-0.8-0.2-1.5-0.7-2-1.3
	C26,12.1,25.8,11.1,25.8,10.2"/>
</svg>
