<svg version="1.1" id="レイヤー_1" xmlns="http://www.w3.org/2000/svg" x="0" y="0" viewBox="-434 183.803 90 195.197" xml:space="preserve"><style>.st0{fill:#fff}</style><path class="st0" d="M-430.39 365.068l-.065-.667c-.165-.013-.313-.036-.462-.036-.679.002-1.359.029-2.038.01-.46-.011-.902-.402-1.013-.827-.086-.328 0-.64.285-.812.309-.185.646-.324.973-.48.123-.057.253-.1.376-.157a.65.65 0 00.352-.363c.238-.591.662-1.03 1.185-1.382.048-.033.113-.058.138-.105.169-.321.49-.355.79-.418a.628.628 0 00.39-.22c.196-.237.453-.361.775-.277.138.036.265.02.392-.053a.45.45 0 01.222-.053c.637.008 1.109-.35 1.616-.667.289-.18.547-.397.82-.59.288-.204.621-.31.906-.508.398-.277.869-.238 1.3-.198.417.039.769-.067 1.115-.236a35.42 35.42 0 001.542-.811c.849-.468 1.72-.88 2.63-1.22.523-.195 1.03-.435 1.526-.699.53-.28 1.097-.49 1.646-.738.762-.344 1.56-.575 2.37-.776.41-.102.804-.274 1.204-.417.292-.104.577-.227.872-.317.76-.23 1.531-.43 2.286-.674.627-.204 1.238-.455 1.856-.687 1.107-.414 2.217-.82 3.32-1.248.755-.294 1.503-.605 2.221-.985a.627.627 0 00.319-.391c.208-.633.088-1.267.024-1.902-.006-.054-.044-.106-.07-.157-.445-.89-.702-1.846-.999-2.788-.296-.943-.608-1.882-.876-2.833-.24-.855-.62-1.672-.723-2.566-.25-.586-.275-1.202-.248-1.826.002-.054.006-.13-.025-.16-.18-.172-.147-.39-.148-.6-.003-.427-.055-.86 0-1.278.083-.627.155-1.268.465-1.838.112-.206.157-.438.256-.632.096-.185.19-.367.253-.567.111-.352.412-.562.656-.8.156-.152.292-.299.385-.493.05-.105.104-.212.178-.3.263-.31.238-.63.064-.97a4.087 4.087 0 01-.34-.986 2.232 2.232 0 01.006-1.086c.085-.325.075-.684.154-1.021.022-.094.034-.191.065-.282.302-.88.576-1.77.921-2.633.338-.843.835-1.61 1.285-2.398.584-1.026 1.346-1.893 2.238-2.659.188-.16.352-.364.483-.575.347-.558.69-1.122.999-1.702.459-.859 1.043-1.636 1.56-2.457.33-.525.699-1.02 1.092-1.5.194-.237.31-.536.47-.801.261-.43.551-.845.791-1.286.452-.83.867-1.682 1.225-2.557.138-.339.184-.708.132-1.12-.222-.098-.462-.212-.708-.308-.065-.025-.152-.006-.226.006-.32.055-.619.19-.968.123-.165-.031-.39.074-.539.185-.256.19-.489.419-.703.657-.155.172-.209.375-.177.64.039.316-.047.649-.083.974-.016.146-.104.244-.235.309-.555.276-.555.277-.93.745-.373.194-.761.068-1.142.051-.066-.003-.128-.077-.194-.115-.098-.058-.192-.126-.297-.168-.658-.26-1.114-.7-1.428-1.351-.278-.577-.292-1.152-.245-1.755.022-.29.03-.579.053-.867.03-.368.057-.736.102-1.101.072-.596.16-1.19.236-1.786.047-.367.125-.719.287-1.058.106-.223.161-.48.194-.726.033-.247.143-.436.3-.615.167-.19.326-.386.48-.586.082-.106.175-.216.213-.34a.727.727 0 01.315-.4c.193-.131.367-.274.408-.537a.585.585 0 01.35-.442c.22-.093.31-.268.425-.452.379-.609.78-1.204 1.17-1.805.435-.667.86-1.34 1.304-2 .793-1.176 1.59-2.348 2.493-3.445.43-.522.815-1.086 1.171-1.662.225-.364.493-.687.746-1.027.464-.622.91-1.259 1.329-1.912a95.88 95.88 0 012.198-3.292c.4-.57.764-1.167 1.144-1.752.307-.471.614-.942.918-1.416.146-.227.28-.463.427-.69.307-.471.625-.935.927-1.409.52-.815 1.03-1.635 1.545-2.453.185-.294.376-.585.557-.882.202-.331.394-.668.592-1 .526-.884 1.046-1.77 1.581-2.647.212-.347.475-.661.685-1.009.23-.38.423-.781.634-1.173.578-1.076 1.082-2.192 1.742-3.224.081-.126.178-.242.256-.345.184.023.24.113.243.244.002.155.017.314-.01.465-.09.514-.187 1.038-.44 1.491-.17.304-.327.608-.46.927l-.195.476c-.163.389-.3.797-.725.987.052.153.126.275.125.397-.002.105-.086.21-.14.312-.435.799-.867 1.598-1.308 2.393-.263.475-.542.941-.812 1.412-.164.286-.32.575-.487.858-.135.232-.376.395-.44.675-.009.035-.037.08-.068.092-.429.179-.56.62-.833.935-.128.149-.242.306-.457.334-.036.005-.082.023-.103.05-.163.218-.39.362-.59.536-.048.041-.053.13-.094.243l.424.067c-.005.025-.003.08-.018.084-.143.046-.264.142-.437.125-.142-.014-.29.05-.493.09.068.09.1.151.15.194.11.093.184.18.135.346-.03.103.014.226.007.339-.005.074-.026.199-.066.21-.369.102-.429.476-.64.714-.136.155-.199.372-.324.54-.123.166-.302.278-.405.476-.12.23-.255.449-.45.646-.174.176-.315.383-.545.495-.167.083-.224.26-.343.372-.146.136-.17.286-.183.452l-.228.083c-.122.266-.226.491-.328.718-.023.052-.069.116-.055.16.095.293-.107.483-.244.683-.174.253-.304.535-.538.752-.102.095-.152.266-.185.412-.07.307-.304.488-.498.7-.097.106-.34.066-.33.271.01.185-.204.218-.21.3-.018.266-.238.393-.327.597-.06.137-.158.2-.26.29-.189.166-.461.318-.325.656-.084.262-.198.514-.414.686-.294.234-.483.537-.681.846-.238.371-.484.736-.707 1.116-.115.195-.298.35-.485.561.002.521-.253.981-.649 1.377a.34.34 0 00-.094.142c-.147.58-.572 1-.853 1.502-.529.945-1.184 1.812-1.634 2.808-.253.561-.573 1.096-.803 1.666l.836.763c.46.174.96.085 1.403-.322.084-.078.192-.13.285-.199.65-.48 1.399-.755 2.152-1.006a12.26 12.26 0 012.673-.553c.617-.062 1.23-.165 1.846-.223.676-.063 1.356-.084 2.032-.144.308-.027.632-.052.911-.166.645-.265 1.33-.26 1.997-.373.112-.02.231.007.347.017.136.01.28.063.405.032.53-.133 1.032.093 1.55.09.093 0 .195.027.276.071.489.27.988.527 1.397.918a.69.69 0 01.163.227c.066.161.131.328.158.498.042.263.072.515-.046.79a2.78 2.78 0 00-.23 1.36c.027.287-.008.579-.015.869a1.046 1.046 0 01-.278.684c-.026.03-.062.049-.086.079-.196.24-.35.54-.596.704-.262.174-.516.351-.717.582-.412.472-.913.83-1.411 1.197-.123.09-.257.186-.339.31-.204.311-.514.463-.827.62-.19.095-.366.205-.531.347-.203.175-.454.293-.684.437-.245.153-.488.309-.734.46-.196.122-.405.225-.59.363-.512.38-1.035.752-1.515 1.17-.436.38-.82.82-1.228 1.23-.41.412-.824.821-1.237 1.23-.18.177-.364.349-.543.527-.258.257-.517.514-.768.778-.254.266-.461.593-.754.8-.805.569-1.337 1.396-2.033 2.064-.19.183-.348.347-.63.342-.06 0-.122.088-.186.133l.005.003c-.095-.107-.08-.205.018-.304.351-.357.708-.709 1.05-1.075.474-.51.951-1.018 1.396-1.552.193-.232.398-.416.709-.52.018-.2.065-.384.211-.557.338-.398.638-.83 1.053-1.159.03-.024.062-.047.086-.077.397-.5.788-1.006 1.191-1.502.29-.357.408-.765.423-1.269-.174.084-.316.165-.467.22-.162.06-.333.096-.5.142l.016.013c-.016-.035-.028-.073-.049-.104-.085-.129-.197-.16-.269-.071-.17.21-.36.41-.493.642-.153.27-.324.518-.538.742-.058.06-.074.16-.143.32l.49-.18c.15.226-.02.405-.12.533-.147.187-.208.42-.34.587-.151.189-.248.372-.324.594-.046.132-.222.214-.298.343-.162.275-.388.42-.662.402-.203.268-.373.5-.55.723-.147.184-.23.19-.584.061.172-.213.34-.415.5-.623.094-.122.185-.248.26-.383.034-.061.06-.164.031-.218-.206-.395.054-.62.314-.808.193-.14.403-.307.677-.228.061-.188.106-.352.168-.51.057-.144.123-.286.2-.42.078-.135-.003-.216-.093-.327.41-.482.72-1.036 1.053-1.592l-.4-.488c.033-.093.074-.198.105-.304.016-.055.04-.15.017-.167-.288-.205-.102-.564-.295-.828-.246-.237-.573.14-.835-.033-.153-.165.11-.35-.078-.516-.8.465-1.37 1.093-1.507 2.05-.006.037.002.08-.01.115-.219.647-.313 1.317-.408 1.99-.092.652-.257 1.293-.382 1.94-.045.232-.091.458-.29.602.242.454.048.908.06 1.384l.405.025c.004.03.025.083.01.097-.346.303-.485.764-.837 1.072-.16.14-.238.382-.333.587-.036.08-.012.176-.083.262-.183.223-.344.463-.517.694-.046.061-.116.109-.15.175-.326.645-.79 1.197-1.193 1.79-.175.257-.341.52-.494.79-.315.555-.645 1.103-.915 1.68-.145.307-.272.627-.422.933-.196.4-.43.78-.648 1.169-.066.117-.13.237-.201.351-.33.525-.304 1.117-.262 1.69.049.668.084 1.345.292 1.995.047.146.067.3.093.452.07.4.259.59.653.61.15.006.305-.026.451-.065.639-.17.907-.083 1.305.433.059.076.125.149.198.21.206.175.236.382.143.624-.027.07-.073.168-.045.216.14.237-.046.518.119.753.048.068.06.197.03.277-.101.269.02.404.252.489.277.102.523.251.746.445.13.113.26.217.457.224.126.004.27.074.369.158.29.247.639.35.988.463.147.048.296.095.436.16.165.076.33.087.543.066-.177-.273-.58-.192-.687-.498l-.011.013c.308.026.616.056.925.077.131.009.264.001.392.001.187-.322.249-.646.342-.958.272-.911.505-1.836.826-2.73.347-.966.667-1.941 1-2.912.24-.697.467-1.398.725-2.088.183-.49.388-.974.618-1.444.28-.572.367-1.18.417-1.8.033-.405.054-.812.113-1.213.076-.516.314-.957.72-1.292.39-.321.77-.658 1.185-.94.518-.352.974-.77 1.426-1.196.436-.413.862-.836 1.312-1.233.26-.23.554-.423.838-.626.354-.253.76-.367 1.182-.449.36-.07.715-.17 1.073-.25.306-.07.61-.106.92-.002.107.036.23.019.345.036.476.07.97.058 1.407.317.097.057.22.085.335.093.556.04 1.048.278 1.542.503.227.103.434.25.648.382.066.04.117.111.186.137.423.157.69.483.947.83.287.389.616.748.886 1.147.192.282.316.61.47.917.06.12.106.249.176.363.383.626.748 1.258.872 2 .025.15.13.286.156.436.075.434.155.86-.03 1.304-.229.55-.396 1.124-.579 1.691-.134.42-.415.742-.69 1.064-.101.12-.208.225-.25.378-.08.29-.256.518-.474.714-.42.38-.799.792-1.075 1.291-.018.034-.037.071-.066.096-.496.437-.714 1.056-.981 1.622a5.747 5.747 0 00-.55 2.294 25.185 25.185 0 00.304 4.638c.119.763.157 1.538.23 2.308.005.039.005.078.01.116.023.22.137.314.342.291.307-.034.617-.048.922-.099.418-.07.833-.165 1.249-.252.094-.02.186-.062.28-.075.653-.087 1.309-.153 1.958-.256.628-.1 1.254-.205 1.866-.404.586-.191 1.205-.28 1.803-.44.448-.12.885-.282 1.326-.427.165-.054.325-.135.494-.163.526-.088.988-.332 1.458-.559.436-.21.872-.42 1.304-.638.707-.358 1.429-.696 2.063-1.179.524-.398 1.064-.786 1.53-1.245.44-.431.8-.945 1.18-1.435.078-.1.145-.173.272-.178l.013-.005a1.17 1.17 0 00-.176.548c-.019.27-.049.54-.076.833.083.064.188.205.26.19.272-.055.532.13.802.012.15-.064.294-.013.444.058.172.08.367.127.556.151.24.031.512-.072.678.2.154-.006.33.036.455-.026.35-.174.744-.19 1.098-.368.364-.182.75-.125 1.042.24.182.226.44.375.672.55.554.416 1.17.637 1.848.73.285.038.549.164.854.14a.495.495 0 01.49.256c.017.033.043.09.06.09.43-.037.42.39.616.593.18.187.17.443.007.644-.2.248-.318.512-.357.832-.042.34-.344.503-.59.684-.25.184-.516.343-.779.506-.706.44-1.413.879-2.21 1.146-.054.018-.106.046-.158.073-.734.373-1.52.57-2.33.692-.248.037-.491.097-.694.273-.082.071-.207.1-.318.13-.579.155-1.193.17-1.747.429-.658.043-1.318.131-1.975.12a12.931 12.931 0 01-2.538-.304 8.092 8.092 0 00-2.781-.104c-.595.077-1.182.233-1.793.173-.105-.01-.218.063-.329.092-.336.086-.663.184-1.02.207-.44.027-.876.156-1.312.25-.435.092-.87.186-1.3.296-.565.143-1.126.299-1.687.456-.688.193-1.374.393-2.061.59-.056.016-.113.029-.17.045-.716.21-.701.207-.577.944.154.918.314 1.835.362 2.769.018.366.091.731.168 1.09.243 1.142.356 2.3.49 3.457.045.384.117.767.14 1.153.043.735.096 1.473.077 2.208-.015.573.01 1.164-.3 1.698-.081.138-.07.338-.077.51-.005.13.09.259.003.394-.017.027-.016.088.003.11.385.444.184.956.156 1.44-.024.423-.18.847-.147 1.26.04.519-.102 1.002-.138 1.502a1.49 1.49 0 01-.056.344c-.206.65-.307 1.322-.457 1.984-.097.429-.242.849-.218 1.301.007.131-.05.266-.081.399-.141.605-.215 1.218-.294 1.834-.118.921-.147 1.855-.366 2.766-.126.522-.167 1.067-.257 1.597-.148.88-.38 1.744-.58 2.614-.057.245-.122.487-.182.731-.024.094-.039.191-.069.283-.365 1.104-.643 2.236-1.092 3.313-.14.338-.13.722-.34 1.044-.191.29-.337.61-.513.91a.576.576 0 01-.202.204c-.49.275-.978.558-1.545.641-.25.037-.503.048-.727.188a.46.46 0 01-.22.068c-.787.017-1.58.238-2.353-.103-.266-.118-.55-.19-.818-.304a1.756 1.756 0 01-.387-.25c-.091-.071-.169-.167-.15-.299.034-.245-.078-.447-.168-.664-.079-.19-.141-.417-.112-.613.038-.262-.02-.5-.058-.747-.06-.4-.141-.798-.196-1.2-.047-.343-.047-.67.084-1.02.146-.39.15-.831.232-1.247.07-.36-.044-.661-.286-.906-.257-.26-.476-.574-.842-.652-.043-.084-.082-.133-.093-.188-.085-.428-.36-.72-.71-.94-.13-.08-.226-.187-.237-.31-.02-.222-.255-.407-.112-.668.186-.07.437.067.58-.165-.076-.152-.245-.279-.202-.492l1.071.083.44-.527c.266.146.516.244.78.07a.298.298 0 01.17-.032c.679.035 1.285-.268 1.925-.414.386-.088.701-.3.954-.612.16-.197.34-.381.634-.341.019.002.039-.004.058-.008.74-.157.815-.211 1.139-.915.111-.242.27-.454.363-.715.09-.253.124-.498.043-.72-.118-.321.026-.512.225-.704.112-.107.221-.225.354-.298.268-.148.37-.386.421-.662.133-.723.263-1.447.396-2.17.067-.362.148-.723.206-1.087.153-.958.298-1.918.444-2.877.103-.671.206-1.342.3-2.014.1-.711.227-1.421.276-2.137.04-.598-.01-1.203-.032-1.805-.024-.64-.075-1.278-.091-1.918-.019-.74-.106-1.472-.205-2.204-.088-.653-.13-1.31-.201-1.965-.03-.27-.082-.538-.116-.807-.026-.212-.066-.427-.052-.637a2.595 2.595 0 00-.152-1.02c-.037-.108-.053-.224-.073-.338-.05-.282-.128-.343-.378-.26-.992.336-2.022.536-3.013.88a97.95 97.95 0 01-3.651 1.18c-.763.232-1.494.544-2.243.81-.657.233-1.297.501-1.94.769-.66.275-1.345.489-2.037.736-.095.243-.213.47-.271.71-.132.543-.397 1.05-.405 1.628-.003.187-.097.374-.162.557-.216.603-.414 1.214-.795 1.742-.054.075-.064.181-.106.266-.25.502-.492 1.009-.763 1.5-.11.199-.284.363-.43.542-.444.54-.83 1.122-1.232 1.693-.512.727-.93 1.51-1.423 2.247-.065.095-.119.197-.178.297.24.574.665.981 1.154 1.292.885.562 1.81 1.06 2.821 1.37.537.164 1.077.324 1.623.454s1.062.363 1.62.45c.556.087 1.082.296 1.626.428 1.113.27 2.232.52 3.383.588.323.02.643.09.951.136.023.135-.039.165-.12.189a2.52 2.52 0 01-.802.111c-.35-.009-.704-.025-1.047.023a8.285 8.285 0 00-1.359.293c-.27.085-.57.11-.808.3-.067.053-.185.046-.28.055-.171.016-.343.023-.524.035-.023.287.262.332.355.518l-.27.202-.768-.122c0 .113.004.186 0 .258-.008.116-.274.077-.167.235.049.072.202.075.308.109l.19.057-.244.267-.457-.067c-.105.292-.103.379.056.47.254.144.513.276.686.59-.176-.02-.291-.123-.426-.153-.183-.04-.38-.029-.558-.085-.181-.058-.341-.179-.518-.256-.086-.037-.19-.033-.282-.057a.744.744 0 01-.214-.084c-.472-.304-.472-.315-.972-.242-.259.038-.473-.067-.647-.21a6.09 6.09 0 00-.71-.49c-.044-.027-.069-.085-.115-.146l.268-.113c-.006-.032-.001-.082-.02-.095-.532-.36-1.086-.672-1.72-.818a.364.364 0 01-.156-.07c-.337-.297-.747-.388-1.175-.458-.544-.09-.542-.104-1.177-.614.05-.27.24-.51.206-.822-.02-.17.028-.338-.106-.488-.042-.047-.04-.142-.043-.216-.014-.367-.129-.661-.476-.857-.23-.13-.422-.327-.636-.497-.401.25-.783.478-1.154.722-.28.183-.596.258-.904.369-.75.27-1.536.399-2.294.64-.636.201-.86.654-1.03 1.202a3.12 3.12 0 00-.121 1.372c.058.42.122.846.045 1.275a.723.723 0 00.003.232c.159 1.041.044 2.092.114 3.136.014.212-.032.427-.023.64.016.372-.093.651-.498.736-.076.251-.087.5-.221.726-.291.488-.276.496-.855.714-.362.137-.714.121-1.078-.016a1.293 1.293 0 01-.557-.406c-.214-.27-.469-.522-.577-.868-.034-.11-.071-.232-.145-.316-.454-.513-.515-1.158-.61-1.79-.059-.399-.107-.8-.13-1.203-.04-.717-.025-1.432.085-2.146.068-.44.083-.887.125-1.363-.086-.015-.18-.056-.264-.042-.497.084-.992.184-1.489.272-.611.107-1.224.203-1.835.314-1.127.205-2.251.424-3.379.623-.744.132-1.492.24-2.239.36-.613.097-1.223.221-1.84.291-1.019.116-2.024.336-3.061.332-.656-.002-1.311.13-1.967.2-.115.011-.232.024-.348.023-.407-.003-.812.04-1.217.064-.696.039-1.397 0-2.096-.016-.694-.017-1.389-.059-2.083-.064a.833.833 0 00-.486.163c-.205.16-.43.19-.657.173-.25-.018-.471.025-.648.19-.2.188-.425.193-.648.113a1.042 1.042 0 00-.818.025c-.143-.012-.184-.274-.357-.096-.036.037-.11.078-.148.065-.195-.067-.283.03-.365.186-.026.049-.125.059-.19.086l.011.011zm49.043-48.061c-.17.182-.338.343-.485.521-.572.694-.946 1.51-1.372 2.291-.333.611-.576 1.272-.857 1.911-.155.355-.273.727-.523 1.037a.687.687 0 00-.141.313c-.092.61-.28 1.196-.438 1.79-.225.842-.436 1.688-.642 2.535-.082.337-.124.684-.2 1.023-.15.663-.314 1.323-.558 1.96-.13.34-.16.682.091.99.068.084.07.166.054.268-.027.19-.034.383-.042.575-.004.114.045.246.003.34-.123.272-.009.489.116.712.105.188.24.346.428.46a.69.69 0 01.351.506c.045.307.095.613.155.916.07.35.096.707-.062 1.028-.23.467-.29.958-.323 1.464-.007.112-.017.257-.086.327-.194.198-.184.46-.267.692-.09.253-.153.517-.242.77-.167.473-.38.93-.42 1.442-.025.328-.096.652-.131.98-.025.235.141.377.364.311.147-.043.279-.133.423-.186.672-.25 1.347-.489 2.018-.741 1.016-.383 2.027-.776 3.043-1.16.997-.376 1.996-.746 2.994-1.12.235-.087.465-.199.707-.259.332-.082.606-.257.867-.46.074-.058.17-.142.176-.22.018-.234.164-.333.347-.424.259-.129.505-.285.768-.406.217-.1.407-.22.543-.441-.14-.87-.276-1.752-.428-2.63-.117-.68-.259-1.355-.385-2.034-.042-.229-.06-.462-.105-.69-.182-.913-.367-1.825-.558-2.737-.12-.57-.264-1.134-.374-1.705-.13-.684-.343-1.347-.442-2.043-.108-.76-.283-1.52-.583-2.24-.023-.053-.05-.11-.052-.165-.014-.363-.188-.667-.339-.982a10.247 10.247 0 01-.349-.798c-.267-.708-.567-1.4-1.005-2.02-.224-.317-.446-.639-.705-.926-.34-.376-.733-.691-1.334-.775zm-47.09 46.38c.254.044.439.091.626.106.637.048 1.275.094 1.914.122.91.04 1.822.087 2.733.087 1.36 0 2.718-.07 4.07-.221.522-.058 1.045-.097 1.567-.149a38.963 38.963 0 002.883-.374c.917-.161 1.84-.292 2.759-.438.478-.077.957-.15 1.432-.24.362-.07.717-.17 1.077-.248.852-.186 1.705-.361 2.555-.554.47-.107.932-.258 1.404-.36.44-.094.828-.306 1.27-.456.08-.366.155-.724.233-1.082.095-.434.075-.893.3-1.3a.435.435 0 00.033-.227c-.043-.648.28-1.249.234-1.898-.007-.108.065-.222.1-.333.16-.518.358-1.03.464-1.559.06-.305.193-.53.405-.727-.063-.488.11-.84.527-1.086a.704.704 0 00.296-.342c.183-.545.361-1.094.42-1.678-.247-.126-.485-.055-.698.002-.711.191-1.418.401-2.101.683-.646.267-1.295.527-1.942.789-.234.094-.464.233-.706.266-.376.05-.704.216-1.046.346-.38.144-.744.33-1.12.488-.536.226-1.081.431-1.613.667a36.604 36.604 0 01-3.196 1.258c-.604.202-1.197.44-1.787.68-.608.249-1.206.525-1.811.781-.304.129-.606.278-.924.355-.818.198-1.563.576-2.327.904-1.034.442-2.047.927-2.978 1.57-.559.385-1.148.727-1.719 1.095-.685.441-1.309.962-1.913 1.506-.217.195-.432.392-.643.592-.28.266-.57.524-.778.975zm34.767-30.687c-.084.57-.278 1.076-.276 1.619 0 .075-.01.152-.028.225-.111.47-.225.938-.342 1.406-.018.074-.05.147-.084.216a4.291 4.291 0 00-.351 1.03c-.07.332-.242.642-.198 1 .004.035-.026.072-.037.11-.185.625-.456 1.22-.626 1.853-.104.389-.242.773-.373 1.155-.215.626-.214 1.289-.393 1.92-.104.366-.104.76-.167 1.14-.092.548-.199 1.094-.296 1.62.31.258.312.268.527.228a2.88 2.88 0 00.559-.145c.52-.21 1.024-.468 1.554-.649.538-.183.855-.571 1.124-1.027.068-.116.109-.248.162-.372.077-.178.128-.373.236-.53.333-.485.505-1.04.702-1.58.337-.926.636-1.866.953-2.799.056-.165.128-.325.188-.488.14-.382.29-.76.412-1.147.193-.606.343-.743-.029-1.322-.28-1.083-.972-1.921-1.65-2.768-.06-.075-.118-.155-.192-.217-.38-.317-.79-.555-1.375-.478zm-6.02 10.39c.087-.299.206-.505.188-.697-.02-.21.041-.374.102-.554.036-.108.07-.22.08-.331.085-1.02.165-2.042.245-3.063.038-.483.074-.965.11-1.448.008-.116-.01-.235.014-.347.175-.82.087-1.654.129-2.481a3.42 3.42 0 00-.057-.917c-.074-.328.006-.645-.012-.965-.021-.365-.047-.73-.227-1.06-.035-.064-.077-.141-.137-.172-.43-.226-1.116-.35-1.554.15-.127.145-.276.275-.39.43a6.191 6.191 0 00-1.002 2.02c-.078.28-.175.585-.133.858.084.55.12 1.11.3 1.648.135.4.23.818.291 1.236.023.156.022.287.138.413.073.079.097.207.13.316.178.592.35 1.185.528 1.777.022.074.064.141.093.213.072.179.179.353.205.539.092.643.402 1.209.61 1.81.068.198.16.387.348.624zm5.641 6.39c-.092-.006-.206-.057-.287.085-.044.078-.132.181-.203.183-.205.007-.302.143-.427.264-.158.152-.27.327-.35.526-.077.19-.173.31-.416.327-.282.02-.475.24-.631.467-.118.17-.107.304.022.478.092.124.208.234.282.368.159.287.285.593.447.878.21.37.431.736.67 1.087.173.252.364.263.586.055a5.392 5.392 0 001.008-1.251c.33-.573.629-1.144.82-1.783.16-.539.336-1.072.4-1.63.045-.397.21-.712.505-.959l-.228-.43c.282-.01.536.076.803-.06l.227-.925c-.281-.104-.357-.092-.4.069-.039.147-.053.3-.07.403-.251.42-.714.173-1.006.404-.026.02-.128-.055-.205-.09-.19.125-.236.397-.515.437-.295.043-.524.22-.665.506-.1.204-.24.39-.367.591zm-4.013 2.845c-.04.044-.075.068-.088.1-.192.487-.242 1.013-.4 1.506-.106.334-.16.671-.211 1.013-.02.133-.026.272-.07.397-.085.246-.008.449.114.658.11.191.244.274.474.227.338-.069.683-.105 1.024-.165.543-.095.896-.399 1.009-.927-.2-.404-.38-.788-.58-1.161a41.636 41.636 0 00-.735-1.31c-.12-.206-.278-.369-.537-.338zm1.097-.779c-.15.068-.255.112-.357.163-.247.124-.303.39-.097.564.158.134.334.269.578.154.117-.055.255-.067.376-.096.03-.548.03-.548-.5-.785zm6.831-3.739c-.268-.002-.282.197-.392.283.173.188-.166.345-.031.527.038.053.094.093.186.18l.237-.99zm-.374 1.203c-.038.021-.063.027-.07.04-.046.095-.162.175-.067.3.01.011.033.023.045.02.146-.043.13-.163.129-.275 0-.017-.014-.034-.037-.085zm-6.139.032l.16-.167c-.04-.03-.083-.083-.124-.082-.093.003-.19.131-.153.187.016.025.058.032.117.062zM-390.97 225.048c.093-.001.216.036.276-.01.439-.337.937-.337 1.447-.28.192.021.383.06.573.097.318.062.603.03.875-.186.193-.154.437-.246.661-.36.195-.098.404-.126.622-.122.37.007.739.014 1.107-.001.477-.02.926.111 1.372.239.198.056.38.194.55.322.386.29.78.579 1.03 1.009.238.411.38.837.296 1.33-.062.364-.13.713-.299 1.05-.163.326-.29.678-.382 1.032-.135.515-.499.916-.659 1.417-.049.154-.192.278-.305.433.096.104.164.196.25.268.235.199.515.342.682.621.043.07.158.104.246.138.181.068.367.124.55.188a.917.917 0 01.428.281c.108.13.248.249.399.321.348.168.709.313 1.07.452.143.056.3.082.453.105.483.075.833-.15 1.064-.544a.788.788 0 01.305-.323c.39-.217.68-.578 1.091-.764.033-.015.07-.05.08-.082.084-.322.377-.423.616-.578.407-.264.824-.513 1.226-.784.328-.22.659-.193 1.002-.063.26.099.386.303.435.567.057.303.139.604.173.91.035.32.027.647.035.906-.298.367-.552.683-.809.996a1.42 1.42 0 01-.2.21c-.499.401-1.003.796-1.502 1.196-.529.424-1.054.852-1.58 1.28a.54.54 0 00-.115.13c-.233.373-.592.605-.947.838a1.263 1.263 0 01-.478.194c-.54.085-.966.355-1.36.72a9.83 9.83 0 01-.997.792c-.874.62-1.658 1.343-2.406 2.106-.31.318-.583.672-.894.989-.529.54-1.072 1.066-1.613 1.594a44.05 44.05 0 01-.888.837 2.756 2.756 0 01-.361.292c-.251.163-.453.35-.545.653-.043.14-.165.26-.265.377-.2.236-.441.443-.607.7-.339.522-.75.984-1.127 1.475-.058.077-.121.153-.165.238-.135.26-.284.494-.533.677-.272.2-.38.537-.495.842-.232.619-.67 1.056-1.168 1.458-.193.155-.344.362-.516.543-.065.068-.126.16-.207.188-.595.207-1.09.592-1.613.92a12.07 12.07 0 01-1.96.985c-.393.157-.767.365-1.158.53-.371.155-.576.446-.716.799-.056.142-.097.29-.15.455-.419.09-.728.344-1.02.638-.19.191-.407.359-.625.52-.435.324-.923.378-1.437.243-.168-.045-.332-.108-.498-.162-.624-.204-.99-.663-1.194-1.256-.098-.286-.187-.581-.11-.909.06-.258.025-.538.044-.807.008-.112.041-.224.072-.334.073-.259.136-.522.231-.773.137-.36.301-.71.45-1.067.299-.715.652-1.408.879-2.151.152-.5.28-1.008.406-1.515a1.47 1.47 0 01.348-.662c.327-.355.65-.713.981-1.065.239-.253.48-.505.734-.743.08-.076.204-.106.308-.157.326-.16.578-.407.729-.73.245-.526.497-1.045.817-1.53.052-.078.08-.175.109-.267a2.79 2.79 0 01.498-.91c.236-.298.384-.667.569-1.006.055-.1.092-.214.162-.301.304-.375.572-.765.71-1.24.046-.159.215-.28.275-.437.124-.326.232-.644.497-.9.127-.123.163-.34.241-.515.031-.07.044-.168.098-.203.41-.27.514-.758.81-1.107.124-.146.266-.282.364-.444.17-.276.393-.52.49-.844.042-.141.158-.263.252-.386.226-.297.41-.608.478-.985.027-.147.112-.285.18-.422.249-.492.256-.52.206-1.213-.072.03-.144.04-.191.08-.689.591-1.375 1.184-2.058 1.78-.122.107-.249.19-.413.187-.128-.002-.236.01-.36-.11-.169-.165-.433-.095-.567.108-.077.116-.163.162-.287.136-.43-.087-.779.142-1.148.286-.305.118-.475.394-.648.646-.093.136-.116.32-.18.514l.445.3c.236-.095.441-.153.617-.26.16-.095.281-.252.43-.37.163-.13.338-.246.507-.367.122.216-.186.333-.172.537.04.017.083.053.104.043.206-.098.353.001.422.172.135.332.348.64.281 1.041-.034.203.03.422.047.619-.373.5-.837.928-.909 1.625-.207.107-.43.235-.592.465-.114.162-.327.252-.493.378-.474.36-.957.71-1.483.989-.393.208-.803.383-1.207.57-.07.033-.142.072-.216.08-.805.083-1.531.39-2.24.758-.343.178-.657.402-1.014.56-.711.314-1.62.28-2.29-.126-.15-.09-.295-.187-.416-.265l-.28-.874c.078-.348.14-.729.251-1.095.11-.365.253-.72.477-1.039.267-.38.526-.766.76-1.167a3.69 3.69 0 00.313-.747c.145-.46.24-.94.405-1.392.147-.401.42-.735.731-1.032.373-.356.858-.524 1.3-.759.149-.079.375-.012.6-.012.078-.104.19-.216.259-.35.252-.485.632-.866.983-1.273.063-.073.138-.15.163-.239.06-.214.186-.34.371-.468.182-.126.296-.353.428-.544.218-.316.42-.643.64-.958.387-.557.778-1.111 1.175-1.662.135-.188.289-.363.437-.541.037-.045.104-.073.123-.122.164-.425.501-.739.713-1.127.142-.259.318-.485.485-.721l.706-.997c.079-.11.14-.241.238-.33.207-.186.3-.444.46-.657.15-.2.346-.366.494-.567.32-.438.639-.879.842-1.389.021-.053.044-.111.082-.153.402-.44.563-1 .793-1.53.185-.429.222-.896.426-1.31.03-.587.312-1.165.033-1.79-.085-.052-.209-.111-.312-.196-.07-.058-.166-.157-.158-.228.036-.356-.258-.548-.366-.88-.152.11-.29.179-.385.285-.569.633-1.205 1.2-1.719 1.887-.498.667-1.085 1.262-1.705 1.819-.24.215-.452.458-.747.617-.287.154-.434.497-.758.62-.05.02-.09.076-.12.125-.266.443-.712.698-1.068 1.045-.416.405-.927.706-1.27 1.186a.405.405 0 01-.13.111c-.447.25-.777.634-1.133.988a8.178 8.178 0 01-.775.69 6.478 6.478 0 00-1.486 1.617c-.1.154-.126.363-.154.552-.062.42-.141.83-.291 1.233a2.33 2.33 0 01-1.048 1.238c-.116.068-.232.139-.343.215-1.053.713-2.155.797-3.309.27-.317-.145-.634-.29-.953-.43-.21-.093-.409-.17-.593-.339-.183-.167-.486-.21-.742-.289-.535-.167-1.089-.286-1.608-.493-.44-.175-.751-.539-.99-.95-.01-.017-.008-.041-.02-.056-.269-.35-.33-.72-.14-1.133.064-.137.08-.298.114-.448.05-.224-.02-.353-.22-.471-.75-.448-1.57-.643-2.436-.687a5.85 5.85 0 01-.867-.093c-.731-.15-1.472-.097-2.208-.141-.233-.014-.464-.031-.696-.047-.388-.026-.775-.05-1.163-.08a1.823 1.823 0 01-.4-.064.46.46 0 01-.32-.49c.018-.232.048-.463.091-.691a.61.61 0 01.125-.253 6.178 6.178 0 011.986-1.666 38.671 38.671 0 012.092-1.003c1.436-.645 2.92-1.16 4.408-1.66.624-.21 1.267-.366 1.906-.527.734-.186 1.472-.357 2.227-.436.154-.016.31-.023.464-.041.288-.034.575-.08.864-.109.48-.048.96-.087 1.441-.132.791-.075 1.582-.051 2.374-.01.349.019.692-.048 1.034-.132.209-.052.335-.165.443-.34.272-.438.388-.93.43-1.425.037-.455-.071-.883-.532-1.147-.228-.131-.425-.327-.61-.519-.185-.19-.43-.299-.576-.557-.158-.28-.433-.492-.652-.739-.126-.143-.26-.274-.345-.459-.112-.244-.346-.36-.616-.381-.174-.014-.349-.031-.523-.032-.174-.001-.342.027-.472-.147-.045-.06-.176-.057-.269-.075-1.038-.205-1.864-1.196-1.916-2.27-.017-.366-.048-.726-.02-1.096.041-.56-.012-.632-.425-1.181.029-.056.061-.124.098-.189.125-.216.077-.418-.078-.586-.12-.129-.2-.278-.299-.415-.185-.257-.125-.48-.003-.705.15-.278.355-.511.669-.616a.91.91 0 01.546.314c.46.568 1.118.734 1.79.862.068.013.146-.03.22-.038.23-.025.452-.047.686.038.174.063.38.033.57.057.19.023.386.038.566.097.477.154.907.434 1.421.495.117.014.222.144.33.224.207.151.461.157.542-.058.123-.322.385-.455.63-.625.162-.11.242-.27.207-.451-.088-.443.061-.877.025-1.316-.02-.25-.059-.498-.091-.747-.005-.038-.032-.073-.035-.11-.043-.728-.343-1.383-.598-2.046-.17-.443-.311-.91-.667-1.264-.078-.077-.109-.201-.17-.299a.583.583 0 00-.644-.286c-.114.022-.236.043-.333.1-.284.167-.524.047-.761-.094-.155-.093-.265-.214-.261-.421.003-.152-.043-.305-.064-.436-.344-.335-.783-.45-1.174-.644-.29-.144-.568-.284-.78-.532-.102-.118-.187-.252-.297-.36-.245-.24-.231-.518-.144-.81.113-.38.413-.65.603-.984.031-.055.133-.068.202-.103.242-.121.495-.222.674-.445.053-.067.163-.096.252-.122.092-.028.211-.002.284-.051.357-.24.749-.153 1.132-.144.364.01.73.01 1.09.056.58.073 1.148.197 1.666.488.135.076.277.145.421.2.33.124.625.271.854.567.174.225.434.382.66.565.286.232.55.483.734.808a.436.436 0 00.112.13c.386.293.766.596 1.166.87.324.224.698.22 1.067.13.412-.1.82-.22 1.23-.332.394-.108.803-.122 1.205-.14.775-.034 1.545-.162 2.325-.098.17.014.347-.03.518-.06.323-.057.642-.137.966-.183.494-.068.892-.345 1.287-.606.18-.119.35-.244.555-.298.198-.053.34-.164.481-.307.136-.138.211-.282.183-.466-.041-.276.001-.542.07-.807.02-.075.047-.152.045-.228-.007-.27.023-.555-.053-.808-.076-.254.1-.493-.027-.739-.068-.131-.079-.292-.113-.44-.027-.113-.093-.235-.069-.337.112-.481-.139-.904-.194-1.357-.013-.112-.066-.222-.115-.325-.1-.208-.197-.407-.253-.64-.092-.384-.368-.633-.784-.67-.81-.074-1.398-.542-1.922-1.101-.138-.148-.189-.38-.272-.576-.053-.124-.093-.254-.138-.382.05-.185.113-.369.148-.558.036-.192.077-.367.209-.528.117-.144.1-.302-.043-.415-.176-.138-.254-.332-.381-.496-.244-.312-.222-.667-.193-1.001.03-.347.285-.603.61-.718.34-.12.694-.282 1.068-.092.515.005 1.034.17 1.544-.058a.57.57 0 01.342-.012c.414.101.843.135 1.248.24.482.124.93.379 1.39.583.105.047.191.141.298.181.758.286 1.39.775 2 1.28.385.319.696.728 1.02 1.113.094.113.123.282.179.427.049.126.075.266.143.38.292.487.241 1.012.152 1.527-.038.216-.195.412-.304.614-.235.436-.2.757.207 1.047.407.29.746.68 1.224.87a.415.415 0 01.099.061c.274.215.576.377.893.526.382.18.76.379 1.09.662.434.373 1.006.492 1.502.753.188.098.378.193.57.282.299.138.62.238.897.41.63.393 1.408.447 2.006.905.03.023.07.038.106.046.3.064.599.125.895.186.253-.256.106-.511.041-.768l-.759-.471c.092-.052.163-.113.244-.135.471-.128.958-.163 1.441-.165.694-.003 1.393-.04 2.076.146.147.04.313.047.464.026.804-.114 1.58.08 2.361.205.167.026.345.095.48.196a.872.872 0 00.655.17c.114-.012.232.007.347.02.25.03.497.087.746.09.357.003.697.051 1.014.221.58.31 1.19.4 1.85.375a40.134 40.134 0 013.032.014c1.401.052 2.79.22 4.121.695 1.28.457 2.52.997 3.655 1.76.532.36.971.825 1.477 1.214.307.236.59.497.974.617.374.118.648.417.992.593.064.033.114.105.157.167.066.096.112.207.182.298.43.556.445 1.187.294 1.825-.124.521-.287 1.027-.58 1.499-.274.438-.444.941-.647 1.421-.25.588-.51 1.167-.834 1.72-.531.909-1.015 1.653-1.626 2.378-.162.193-.31.398-.46.6-.788 1.054-1.616 2.076-2.444 3.1-.425.524-.876 1.035-1.215 1.628a2.643 2.643 0 01-.383.511c-.205.215-.337.47-.469.73-.253.499-.538.982-.773 1.49-.188.408-.459.758-.687 1.137a4.972 4.972 0 00-.586 1.56c-.042.203.042.378.148.524-.074.299-.117.592-.222.86-.098.247-.264.468-.409.716.166.257.285.517.42.77.233.44.362.934.535 1.406.06.16.1.333.185.48.26.45.493.907.657 1.408.128.39.063.767.079 1.15.003.09-.1.24-.186.268-.432.14-.6.529-.81.859a.977.977 0 01-.578.445 2.054 2.054 0 01-.865.076c-.89-.112-1.766-.304-2.582-.674-.4-.182-.826-.312-1.203-.553-.376-.24-.772-.448-1.154-.68-.415-.251-.838-.493-1.232-.775-.46-.328-.971-.553-1.464-.817-.51-.273-.997-.587-1.494-.884-.067-.04-.129-.087-.198-.12-.669-.313-1.295-.702-1.934-1.067-.606-.347-1.23-.664-1.825-1.027-.58-.353-1.165-.698-1.699-1.122-.135-.107-.299-.179-.45-.267-.736-.43-1.476-.853-2.208-1.29a6.574 6.574 0 00-1.492-.644c-.37-.112-.733-.244-1.094-.38-.689-.262-1.39-.48-2.106-.658-.207-.051-.415-.097-.62-.158-.464-.139-.918-.133-1.359.078-.472.226-.945.45-1.41.689-.24.123-.449.29-.642.489-.28.287-.61.527-.91.795-.333.296-.65.608-1.032.845-.227.14-.42.335-.636.497-.524.396-1.127.673-1.638 1.092-.343.281-.715.53-1.087.773-.454.298-.704.763-1.012 1.182-.054.05-.104.106-.166.142-.152.088-.207.21-.156.378-.054.007-.117-.002-.158.024-.043.028-.067.088-.09.139-.003.007.054.06.077.055.051-.01.118-.029.143-.067.027-.04.012-.108.016-.164.277-.073.338-.277.324-.528zm29.022-28.905c0 .388.004.697 0 1.005-.012.693-.205 1.296-.84 1.681a.726.726 0 00-.216.185c-.165.232-.395.372-.643.488-.84.394-1.686.777-2.523 1.178-.873.418-1.77.796-2.526 1.42-.381.314-.863.428-1.287.657a.374.374 0 01-.165.054c-.6.003-1.211.116-1.788-.117-.319-.128-.614-.091-.907.021a24.84 24.84 0 00-1.45.6 84.23 84.23 0 00-2.463 1.168c-.623.31-1.23.65-1.842.983-.341.185-.67.394-1.015.57-.901.46-1.76.99-2.584 1.572-.616.435-1.194.924-1.824 1.334-.377.246-.57.564-.66.974-.05.227-.064.463-.124.687-.13.49-.148.993-.18 1.493-.014.228 0 .479.188.652.286.263.558.555.884.756.475.292.957.587 1.501.752.275.084.542.195.808.305.215.088.422.192.633.288.941.425 1.953.627 2.932.931.535.166 1.086.282 1.628.425.467.123.914.328 1.411.33.093 0 .184.057.278.082.243.065.485.14.732.187 1.165.22 2.302.545 3.419.94.145.052.279.136.42.2.194.088.386.228.587.244.462.037.943.084 1.392-.002.814-.157 1.64-.313 2.362-.772.095-.06.215-.081.325-.116a8.037 8.037 0 001.483-.659c.573-.323 1.149-.644 1.715-.982.349-.209.69-.433 1.02-.673a42.733 42.733 0 001.57-1.197c.693-.558 1.391-1.113 2.052-1.709.57-.514 1.096-1.077 1.63-1.629.62-.64 1.22-1.3 1.843-1.94.907-.93 1.761-1.904 2.51-2.968.2-.284.413-.564.583-.867.31-.558.578-1.14.894-1.696.297-.524.387-1.095.43-1.674.02-.262.004-.535-.1-.797a3.013 3.013 0 00-.954-1.29c-.106-.083-.26-.142-.313-.25-.124-.252-.406-.284-.574-.476-.161-.185-.378-.33-.587-.464-.358-.23-.73-.439-1.096-.657-.066-.039-.127-.092-.197-.118-.49-.18-.992-.33-1.471-.535-.581-.25-1.196-.333-1.808-.427-1.077-.164-2.166-.19-3.254-.203-.599-.007-1.198.035-1.839.056zm-37.515 23.053c.4.073.426.08.658-.138.464-.436 1-.792 1.408-1.29.158-.192.34-.368.528-.532.715-.621 1.427-1.244 2.069-1.943.039-.042.072-.098.121-.122.504-.25.788-.787 1.314-1.006.418-.484.996-.796 1.38-1.322.14-.192.369-.343.588-.447.235-.112.415-.278.61-.435.254-.205.428-.496.736-.648.086-.042.132-.185.177-.29.07-.16.144-.322.179-.491.06-.29.24-.482.466-.641.125-.089.265-.156.398-.235.12-.072.236-.163.235-.312-.002-.485.144-.945.221-1.416a.853.853 0 00-.037-.398c-.048-.14-.049-.259.023-.385.047-.083.11-.17.118-.259.049-.5.089-1.003.12-1.505.033-.56-.026-1.125.135-1.675.022-.073.022-.154.024-.231.01-.329.014-.658.027-.986.004-.116.075-.249.037-.343-.142-.358-.003-.723-.054-1.083-.032-.237.048-.489.077-.73-.312-.133-.381-.143-.548-.041-.082.049-.156.115-.223.183-.217.222-.434.444-.64.676-.212.239-.538.376-.641.716-.015.048-.08.082-.124.12-.599.516-1.203 1.025-1.795 1.547-.538.474-1.07.956-1.594 1.446-.21.196-.38.434-.586.635-.43.418-.908.78-1.333 1.206-.365.366-.743.72-1.074 1.116-.273.327-.509.684-.564 1.122-.021.171.007.352-.035.516-.177.682-.182 1.374-.164 2.07.006.24.05.463.168.67.286.497.194 1.055.255 1.587.006.051-.035.11-.06.161-.128.254-.228.53-.394.754-.378.512-.765 1.02-1.193 1.489-.456.5-.576 1.126-.765 1.732.054.398-.142.745-.248 1.158zm-21.7 4.459c.025.045.045.104.084.143.055.053.12.096.188.132.586.316 1.228.366 1.866.31.693-.062 1.375-.24 2.08-.158.094.011.192-.01.289-.013.756-.017 1.52-.102 2.267-.028.703.068 1.437.026 2.107.333a.337.337 0 00.113.026c.322.024.587.202.85.353.62.356 1.198.775 1.77 1.2.237.175.477.245.76.213.31-.034.61-.095.883-.264.129-.08.268-.168.413-.196.485-.093.905-.348 1.318-.578.502-.28.974-.623 1.456-.943.53-.352 1.004-.787 1.537-1.133.367-.238.666-.52.92-.868.312-.427.329-.437-.158-.7a1.52 1.52 0 01-.783-.961c-.057-.203-.08-.415-.125-.622-.02-.092-.038-.19-.085-.267-.105-.175-.648-.541-.845-.574-.535-.087-1.071-.168-1.607-.247a2.183 2.183 0 00-.347-.023c-.678.008-1.36-.01-2.035.043-.389.03-.778-.047-1.157.016-.457.076-.935 0-1.375.193-1.021.14-2.008.428-2.984.741-1.236.396-2.46.824-3.652 1.347-.659.288-1.312.577-1.93.943-.397.235-.805.458-1.18.725-.295.208-.607.43-.638.857zm38.85-30.415c-.087.095-.132.16-.191.206-.215.164-.34.36-.315.646.008.09-.056.185-.068.28-.05.395-.186.773-.216 1.171-.016.21-.022.422-.043.632-.06.616-.138 1.232-.186 1.85-.057.733-.065 1.47-.14 2.201-.064.616-.15 1.236-.301 1.835-.302 1.188-.355 2.412-.57 3.612-.052.29-.094.614.102.881.193.034.318-.042.451-.134.525-.363 1-.789 1.523-1.157.917-.644 1.813-1.316 2.746-1.936a33.139 33.139 0 012.476-1.51c.58-.316 1.158-.635 1.716-.986.297-.186.611-.332.91-.504.447-.256.94-.452 1.31-.82-.065-.653-.065-.653-.504-1.108-.065-.067-.134-.131-.225-.22l-1.573.535c.238-.203.425-.273.607-.36.258-.124.531-.253.554-.598-.333-.506-.824-.82-1.329-1.094-.577-.313-1.19-.558-1.781-.848-.557-.273-1.138-.498-1.692-.777-.57-.286-1.118-.616-1.68-.918-.425-.227-.851-.446-1.222-.762-.08-.068-.213-.072-.359-.117zm-7.227 42.965c-.164.337-.35.613-.55.852-.352.42-.536.985-1.072 1.256-.128.065-.21.225-.306.347-.3.381-.597.764-.89 1.15-.057.075-.085.172-.133.255-.124.22-.25.437-.377.655-.137.234-.268.472-.415.7-.135.21-.287.41-.432.615-.342.073-.256.451-.45.63-.042.04-.094.07-.133.113-.064.071-.15.14-.178.226-.165.5-.46.932-.693 1.397-.069.138-.12.287-.155.437-.013.058.043.132.075.219.155-.04.284-.074.413-.105.415-.101.83-.2 1.138-.534a.42.42 0 01.2-.115c.618-.15 1.11-.533 1.63-.868.386-.25.695-.616 1.15-.762.052-.016.09-.074.137-.107.362-.26.724-.52 1.089-.774.333-.233.654-.487 1.009-.679.294-.158.56-.343.82-.547.455-.36.901-.732 1.376-1.063.65-.453 1.274-.94 1.911-1.41.999-.736 1.952-1.534 2.923-2.307.091-.073.164-.188.266-.223.36-.126.52-.44.745-.718-.2-.334-.498-.539-.819-.725-.52-.3-1.032-.615-1.553-.915-.52-.3-1.05-.586-1.57-.884-.195-.111-.377-.086-.546.034-.157.11-.29.256-.452.359-.26.163-.517.362-.805.443-.726.205-1.292.582-1.639 1.266-.05.1-.13.19-.208.272-.132.14-.287.26-.41.408-.136.162-.32.332-.354.522-.076.43-.305.602-.742.58zm-7.9-31.527c.083 0 .199.037.261-.005.43-.293.932-.478 1.277-.899.206-.25.44-.479.758-.61a.71.71 0 00.334-.307c.17-.329.462-.521.747-.711.245-.163.48-.325.655-.564.056-.078.119-.167.2-.208.566-.284.846-.908 1.416-1.186.064-.031.096-.121.152-.174.138-.133.282-.26.423-.39.114-.105.222-.213.17-.42-.222-.081-.45-.216-.689-.24-.61-.063-1.213-.263-1.838-.14-.055.01-.116-.019-.173-.017-.445.017-.906-.029-1.33.076-.393.097-.784.185-1.204.207-.035.252-.129.489-.083.695.057.26.024.497.007.763-.49.4-.758.956-1.002 1.527-.045.105-.087.22-.093.333-.037.746-.189 1.494.013 2.27zm8.37 25.995c-.133.111-.23.198-.333.277-.334.256-.714.485-.541 1.014.016.05-.018.113-.023.171-.046.528-.297.967-.66 1.322-.244.238-.396.514-.563.796a.826.826 0 00-.108.608c.054.285.101.57.165.853.028.121.089.235.138.363.39-.24.747-.453 1.096-.679.059-.038.077-.133.128-.19.241-.272.44-.585.797-.742.24-.106.294-.34.285-.586-.02-.511-.169-.98-.521-1.386.096-.23.133-.49.281-.639.226-.225.22-.478.231-.744.011-.257-.13-.391-.372-.438zm-3.411-3.676c-.096.091-.173.147-.228.22a53.56 53.56 0 00-.726.97c-.15.206-.308.393-.556.494-.167.068-.254.227-.336.386-.087.17-.168.366-.308.483-.48.4-.855.885-1.18 1.407-.17.271-.303.565-.487.83-.032.047-.103.126-.005.214.043 0 .108.019.154-.003.496-.233.86-.643 1.283-.973.02-.016.011-.07.016-.108-.03-.103-.241-.083-.151-.31.384-.234.892-.313 1.306-.614.42-.306.82-.628 1.184-.957.048-.258-.067-.52.162-.707.024-.019.031-.073.027-.108-.047-.391-.099-.782-.155-1.224zm.593 19.098l.058.444c.333.07.554-.049.716-.309a.454.454 0 01.219-.174c.351-.124.618-.374.914-.58.054-.038.303-.402.348-.512-.287.14-.55.25-.791.392-.465.275-.912.581-1.464.739zm-5.545-13.476c.1-.076.172-.107.205-.161.054-.09-.028-.134-.099-.145-.039-.006-.115.029-.122.059-.016.058.005.127.016.247zM-394.451 269.586c-.053.157-.118.312-.15.474-.008.04.1.152.136.144.166-.036.326-.103.514-.167v.294c.123.142.214-.005.316-.018.146-.019.178.02.189.247-.296.026-.416.064-.569.175-.263.193-.288.532-.038.74.1.082.239.118.394.19.297.52.612 1.073.932 1.623.078.134.156.275.265.382.45.443.662 1.037.995 1.552.142.22.189.465.232.713.007.038.035.09.02.112-.207.301-.044.64-.104.957-.04.21-.05.428-.254.564a.233.233 0 00-.072.09c-.154.311-.382.492-.733.599-.33.1-.63.143-.964.065a5.428 5.428 0 00-.805-.115c-.246-.02-.445-.081-.597-.3-.085-.121-.226-.214-.357-.293-.285-.172-.513-.407-.764-.617-.49-.408-.803-.942-1.132-1.456-.626-.976-1.252-1.952-1.876-2.93-.647-1.015-1.261-2.052-1.895-3.076-.234-.379-.494-.743-.552-1.203a.5.5 0 00-.09-.213c-.3-.428-.603-.853-.91-1.276-.182-.25-.38-.49-.556-.744-.59-.854-1.316-1.586-2.08-2.277a30.535 30.535 0 00-2.055-1.712c-.46-.348-.988-.607-1.482-.912-1.195-.739-2.509-1.224-3.794-1.77-.446-.19-.894-.375-1.344-.556a977.54 977.54 0 00-3.026-1.216c-1.26-.503-2.529-.983-3.777-1.513-1.25-.532-2.51-1.047-3.672-1.763-.412-.254-.796-.555-1.187-.842-.07-.05-.112-.138-.216-.272.231.011.385-.007.525.03.62.162 1.243.306 1.83.581.366.172.76.288 1.146.417.884.295 1.784.533 2.694.735.302.066.6.151.894.246.926.297 1.9.378 2.834.632 1.67.169 3.262.68 4.87 1.115.901.243 1.772.574 2.627.947.32.14.635.293.963.409.574.202 1.079.527 1.585.85.47.3.931.613 1.353.98.073.064.181.117.21.198.124.358.456.515.696.76.653.665 1.29 1.343 1.865 2.078.276.35.584.676.885 1.006.524.574.947 1.228 1.452 1.816.188.218.397.421.61.617.203.189.438.305.72.157.037.08.09.135.083.182-.08.506.262.79.596 1.034.272.198.516.39.657.703.066.147.164.262.365.185.059-.022.153.01.215.043.222.12.505.202.638.388.197.277.385.266.64.162.022-.009.063.029.105.049z"/><path class="st0" d="M-397.348 263.6c.219-.602.407-1.173.634-1.727.175-.43.377-.851.607-1.253.348-.605.734-1.187 1.099-1.782.647-1.056 1.29-2.116 1.938-3.172.223-.363.456-.72.683-1.082a5.99 5.99 0 00.238-.4.396.396 0 00-.021-.44c-.155-.223-.29-.461-.46-.672-.204-.254-.21-.505-.13-.814.178-.69.697-1.045 1.255-1.37.217-.127.456-.217.68-.333.223-.115.436-.25.66-.36.905-.451 1.862-.61 2.819-.266a4.04 4.04 0 011.612 1.11c.373.412.73.837 1.114 1.28.218-.087.305-.29.42-.457.23-.336.44-.686.675-1.018.436-.62.94-1.185 1.438-1.756.346-.397.73-.749 1.115-1.101a5.907 5.907 0 011.711-1.081c.196-.083.378-.2.574-.282.483-.2.965-.404 1.458-.578a8.225 8.225 0 001.762-.87c.282-.184.643-.262.979-.345.829-.204 1.657-.112 2.483.047.209.04.421.065.633.082.502.043 1.014.03 1.505.125.762.146 1.515.359 2.174.79.535.352 1.043.737 1.462 1.237.343.408.597.86.809 1.339.303.687.084 1.328-.214 1.952-.038.079-.136.132-.212.19-.137.103-.276.129-.428.017-.041-.03-.11-.025-.189-.04-.346.409-.782.424-1.259.248-.199-.073-.42-.1-.605-.198a1.23 1.23 0 00-.655-.149c-.04-.449-.084-.501-.506-.537-.267-.023-.454-.1-.597-.367-.289-.538-.514-.69-1.158-.964-.069-.03-.13-.08-.192-.125-.078-.056-.145-.14-.232-.17a7.532 7.532 0 01-1.409-.645.116.116 0 00-.055-.017c-.694 0-1.36-.36-2.07-.16-1.588.13-3.074.633-4.526 1.254-.09.038-.183.072-.262.126-.48.329-.956.664-1.434.995-.513.356-.962.79-1.345 1.27-.36.452-.634.974-.932 1.473-.227.38-.235.77.004 1.154.04.065.062.148.114.202.375.385.51.899.746 1.359.3.585.602 1.161 1.041 1.668.415.479.845.965 1.046 1.593.035.108.116.202.176.302.05.083.12.16.146.251.158.568.525 1.03.775 1.55.102.213.18.431.132.675-.042.215-.118.395-.321.522-.261.162-.482.383-.8.454-.23.053-.456.086-.688.025-.453-.118-.893-.262-1.257-.573a13.594 13.594 0 00-.405-.332 2.609 2.609 0 01-.56-.585c-.173-.256-.38-.49-.56-.742-.146-.204-.294-.41-.402-.634-.444-.925-.94-1.82-1.504-2.677-.534-.812-1.14-1.559-1.887-2.192-.368-.313-.704-.667-.868-1.145-.193-.562-.669-.776-1.184-.923a.68.68 0 00-.697.19c-.15.151-.29.314-.416.485a6.066 6.066 0 00-.867 1.7c-.311.926-.798 1.766-1.31 2.592-.345.56-.675 1.13-1.028 1.685-.457.717-.934 1.422-1.394 2.138-.177.275-.356.554-.485.853-.088.203-.223.359-.345.532-.131.185-.285.348-.344.59-.04.167-.182.35-.504.278z"/></svg>