<svg xmlns="http://www.w3.org/2000/svg" viewBox="-1301 654.2 350 300"><path d="M-951 689.7c-4 6.7-9.4 13.7-16.1 21.1-5.4 5.9-11.9 12-19.6 18.1V733.7c0 1.2.1 2.1.3 2.6v2.6c0 25.4-4.6 50.9-13.7 76.4-9.1 25.5-22.1 48.4-38.9 68.6-18 21.7-39.9 38.8-65.6 51.4-25.7 12.6-54.5 18.9-86.3 18.9-20.6 0-40-3-58.2-8.9-18.7-5.9-36-14.3-51.9-25.2.9.2 2.3.4 4.2.4 3.7.5 6.5.7 8.4.7h4.6c16.4 0 32.4-2.8 48-8.5 14.5-5.4 28.2-13.3 41-23.7-15-.2-28.9-5.4-41.7-15.5-12.6-9.9-21-22.3-25.3-37.4 3.5.7 5.7 1.1 6.7 1.1h3.5c.7.2 1.8.4 3.2.4 2.1 0 3.7-.1 4.9-.4 2.3 0 5.6-.5 9.8-1.5.5 0 1.2-.1 2.1-.4.9-.2 1.6-.4 2.1-.4-16.6-3.5-30.3-12.2-41-26.3-11-14.1-16.5-30.1-16.5-48.1v-.9c4.4 3 9.6 5.2 15.4 6.7 6.1 2 11.8 3 17.2 3-10.3-7.4-18-16.4-23.1-27-5.8-10.9-8.8-22.9-8.8-36.3 0-7.4.8-14.1 2.5-20 .9-4.2 3.3-10.2 7-18.1 18.2 23.7 40 42.2 65.2 55.5 26 14.3 53.5 22.2 82.8 23.7-.7-5.2-1.1-8-1.1-8.5-.5-3.5-.7-6.3-.7-8.5 0-21 7-38.8 21-53.6 14-14.8 31-22.2 50.9-22.2 10.3 0 20 2.1 29.1 6.3 9.1 4.7 17 10.6 23.5 17.8 7.5-1.7 15.4-4.2 23.8-7.4 7-2.7 14.3-6.4 21.7-11.1-2.8 8.9-6.9 16.9-12.3 24-6.1 7.4-12.5 13.3-19.3 17.8 7-1.2 14-2.7 21-4.4 5.6-1.6 12.3-4.1 20.2-7.6z" fill="#fff"/></svg>