<?xml version="1.0" encoding="utf-8"?>
<!-- Generator: Adobe Illustrator 23.0.4, SVG Export Plug-In . SVG Version: 6.00 Build 0)  -->
<svg version="1.1" id="レイヤー_1" xmlns="http://www.w3.org/2000/svg" xmlns:xlink="http://www.w3.org/1999/xlink" x="0px"
	 y="0px" viewBox="0 0 526.6 259" style="enable-background:new 0 0 526.6 259;" xml:space="preserve">
<style type="text/css">
	.st0{fill:none;}
	.st1{fill:#F50A00;}
	.st2{fill:#FFFFFF;}
</style>
<path class="st0" d="M-51.5-47h630.9v350H-51.5V-47z"/>
<path class="st1" d="M24.9,185.8c-15.5,0-22.5,10.6-22.5,24.3s7.1,24.3,22.5,24.3s22.5-10.6,22.5-24.3S40.4,185.8,24.9,185.8z
	 M24.9,226.2c-8,0-12.3-5.1-12.3-16.1S16.9,194,24.9,194s12.4,5.1,12.4,16.1S33,226.2,24.9,226.2z M168.9,233.6
	c1.7,0.3,3.5,0.4,5.3,0.4c4.1,0,4.9-0.4,4.9-0.4l-16.5-47.1c0,0-0.8-0.4-4.3-0.4s-4.3,0.4-4.3,0.4l-16.5,47.1c0,0,0.8,0.4,4.9,0.4
	c1.8,0.1,3.6-0.1,5.3-0.4l10.6-34.8L168.9,233.6z M138.3,186.2c-1.8-0.1-3.6,0.1-5.3,0.4l-6.3,33.8l-8.2-33.8c0,0-0.8-0.4-4.1-0.4
	s-4.1,0.4-4.1,0.4l-8.2,33.8l-6.3-33.8c-1.7-0.3-3.5-0.4-5.3-0.4c-4.3,0-5.1,0.4-5.1,0.4l11.4,47.1c0,0,0.8,0.4,4.1,0.4
	c2.1,0.1,4.2,0,6.3-0.4l7.2-30l7.3,30c2.1,0.3,4.2,0.5,6.3,0.4c3.3,0,4.1-0.4,4.1-0.4l11.4-47.1
	C143.4,186.6,142.6,186.2,138.3,186.2z M208.3,186.2c-1.8-0.1-3.6,0.1-5.3,0.4l-10.4,37.2l-10.4-37.2c-1.7-0.3-3.5-0.4-5.3-0.4
	c-4.3,0-5.1,0.4-5.1,0.4l15.1,47.1c0,0,0.8,0.4,5.7,0.4s5.7-0.4,5.7-0.4l15.1-47.1C213.4,186.6,212.6,186.2,208.3,186.2L208.3,186.2
	z"/>
<path class="st1" d="M71.4,209.3l14.5-22.8c0,0-0.8-0.4-5.1-0.4c-1.9-0.1-3.8,0.1-5.7,0.4l-13.9,22.8l14.7,24.3
	c1.9,0.3,3.8,0.5,5.7,0.4c4.3,0,5.1-0.4,5.1-0.4L71.4,209.3z M49.8,186.6v47.1c0,0,0.8,0.4,4.9,0.4s4.9-0.4,4.9-0.4v-47.1
	c0,0-0.8-0.4-4.9-0.4S49.8,186.6,49.8,186.6z M225.5,225.4v-12h17.6c0,0,0.4-0.8,0.4-4.1s-0.4-4.1-0.4-4.1h-17.6v-10.4h20.8
	c0,0,0.4-0.8,0.4-4.1s-0.4-4.1-0.4-4.1h-30.6v47.1h30.6c0,0,0.4-0.8,0.4-4.1s-0.4-4.1-0.4-4.1L225.5,225.4z M123.5,7.9
	C55.7,7.9,42.6,21,42.6,88.8s13.1,80.9,80.9,80.9s80.9-13.1,80.9-80.9S191.3,7.9,123.5,7.9L123.5,7.9z M123.5,161.5
	c-62.9,0-72.8-9.9-72.8-72.8S60.6,16,123.5,16s72.8,9.9,72.8,72.8S186.4,161.5,123.5,161.5L123.5,161.5z"/>
<path class="st1" d="M149.4,45.6c-11.6,0-21.6,7.5-25.9,18.2c-4.3-10.7-14.2-18.2-25.9-18.2c-11.9,0-28.1,7.1-28.1,30.2
	c0,30.9,40.4,58.4,53.9,68.7c13.5-10.3,53.9-37.8,53.9-68.7C177.5,52.7,161.3,45.6,149.4,45.6z M11.1,254.4v1.3H7.7v-16.3h3.4v6.9
	c0.8-1.2,2.1-2,3.6-1.9c1.3-0.1,2.5,0.5,3.3,1.5c0.8,1.2,1.2,2.6,1.2,4c0.1,1.6-0.4,3.1-1.3,4.4c-0.9,1.1-2.2,1.7-3.6,1.7
	C13,256,11.8,255.4,11.1,254.4L11.1,254.4z M11,249.8v1.1c0,0.6,0.2,1.3,0.6,1.8c0.4,0.5,1,0.7,1.6,0.7c0.7,0,1.4-0.3,1.8-0.9
	c0.5-0.8,0.7-1.6,0.6-2.5c0-0.8-0.2-1.5-0.6-2.1c-0.4-0.5-1-0.8-1.7-0.8s-1.3,0.3-1.7,0.8C11.2,248.3,11,249,11,249.8L11,249.8z
	 M43.4,251.1h-7.2c0.1,1.6,1.1,2.4,3,2.4c1.1,0,2.2-0.3,3.2-0.9v2.4c-1.2,0.6-2.6,0.9-4,0.8c-2.8,0.3-5.3-1.8-5.6-4.6
	c0-0.3,0-0.7,0-1c-0.1-1.6,0.5-3.2,1.6-4.3c1-1,2.4-1.6,3.9-1.6c1.4-0.1,2.7,0.4,3.7,1.4c0.9,1.1,1.4,2.5,1.3,3.9L43.4,251.1z
	 M40.3,249.1c0-1.6-0.6-2.4-1.9-2.4c-0.5,0-1.1,0.3-1.4,0.7c-0.4,0.5-0.7,1.1-0.7,1.7H40.3L40.3,249.1z M57.2,255.4v-2.8
	c0.5,0.3,1.1,0.6,1.7,0.8c0.5,0.2,1,0.2,1.6,0.2c0.5,0,1-0.1,1.4-0.2c0.3-0.1,0.5-0.4,0.5-0.8c0-0.2-0.1-0.4-0.2-0.5
	c-0.2-0.2-0.4-0.3-0.6-0.4c-0.3-0.1-0.5-0.2-0.8-0.3s-0.6-0.2-0.8-0.3c-0.4-0.1-0.8-0.3-1.2-0.5c-0.3-0.2-0.6-0.4-0.8-0.7
	s-0.4-0.5-0.5-0.9s-0.2-0.8-0.2-1.2c0-0.6,0.1-1.1,0.4-1.6c0.3-0.4,0.6-0.8,1.1-1.1s1-0.5,1.5-0.6c0.6-0.1,1.2-0.2,1.8-0.2
	c0.5,0,1,0,1.5,0.1c0.5,0.1,1,0.2,1.5,0.3v2.6c-0.4-0.3-0.9-0.4-1.4-0.6c-0.5-0.1-1-0.2-1.4-0.2c-0.2,0-0.4,0-0.6,0.1
	c-0.2,0-0.4,0.1-0.5,0.2s-0.3,0.2-0.4,0.3c-0.1,0.1-0.1,0.3-0.1,0.4c0,0.2,0.1,0.4,0.2,0.5c0.1,0.2,0.3,0.3,0.5,0.4s0.5,0.2,0.7,0.3
	l0.8,0.3c0.4,0.1,0.8,0.3,1.2,0.5c0.3,0.2,0.7,0.4,0.9,0.7c0.3,0.2,0.5,0.5,0.6,0.9s0.2,0.8,0.2,1.2c0,0.6-0.1,1.2-0.4,1.7
	s-0.7,0.8-1.1,1.1c-0.5,0.3-1,0.5-1.6,0.6s-1.3,0.2-1.9,0.2C59.4,256,58.3,255.8,57.2,255.4L57.2,255.4z M87.8,255.5
	c-0.7,0.3-1.5,0.4-2.3,0.4c-2.4,0-3.6-1.2-3.6-3.7v-5h-1.8v-2.5h1.8v-2.4l3.4-1v3.3h2.5v2.5h-2.5v4.4c0,1.1,0.4,1.7,1.4,1.7
	c0.4,0,0.8-0.1,1.1-0.3V255.5L87.8,255.5z M126.3,255.7h-3.2v-1.6c-0.7,1.2-1.9,1.9-3.3,1.9c-0.9,0.1-1.8-0.3-2.5-0.9
	c-0.6-0.6-1-1.5-0.9-2.4c0-2.1,1.3-3.4,3.8-3.7l3-0.4c0-1.2-0.6-1.8-1.9-1.8s-2.6,0.4-3.7,1.2v-2.5c0.6-0.3,1.3-0.5,1.9-0.6
	c0.7-0.2,1.5-0.3,2.2-0.3c3.1,0,4.7,1.6,4.7,4.7L126.3,255.7z M123.1,251.2v-0.7l-2,0.3c-1.1,0.1-1.7,0.6-1.7,1.5
	c0,0.4,0.1,0.7,0.4,1s0.7,0.4,1.1,0.4c0.6,0,1.2-0.2,1.6-0.7S123.1,251.8,123.1,251.2L123.1,251.2z M151.8,255.9h-3.4v-6.1
	c0-1.7-0.6-2.6-1.8-2.6c-0.6,0-1.1,0.2-1.4,0.7c-0.4,0.5-0.6,1.1-0.6,1.7v6.3h-3.4v-11h3.4v1.7c0.7-1.3,2.1-2,3.5-2
	c2.4,0,3.6,1.5,3.6,4.5L151.8,255.9z M165.1,255.4v-2.8c0.5,0.3,1.1,0.6,1.7,0.8c0.5,0.2,1,0.2,1.6,0.2c0.5,0,1-0.1,1.4-0.2
	c0.3-0.1,0.5-0.4,0.5-0.8c0-0.2-0.1-0.4-0.2-0.5c-0.2-0.2-0.4-0.3-0.6-0.4c-0.3-0.1-0.5-0.2-0.8-0.3s-0.6-0.2-0.9-0.3
	c-0.4-0.1-0.8-0.3-1.2-0.5c-0.3-0.2-0.6-0.4-0.8-0.7s-0.4-0.6-0.5-0.9c-0.1-0.4-0.2-0.8-0.2-1.2c0-0.6,0.1-1.1,0.4-1.6
	c0.3-0.4,0.6-0.8,1.1-1.1s1-0.5,1.5-0.6c0.6-0.1,1.2-0.2,1.8-0.2c0.5,0,1,0,1.5,0.1s1,0.2,1.5,0.3v2.6c-0.4-0.3-0.9-0.4-1.4-0.6
	c-0.5-0.1-1-0.2-1.4-0.2c-0.2,0-0.4,0-0.6,0.1c-0.2,0-0.4,0.1-0.5,0.2s-0.3,0.2-0.4,0.3c-0.1,0.1-0.1,0.3-0.1,0.4
	c0,0.2,0.1,0.4,0.2,0.5c0.1,0.2,0.3,0.3,0.5,0.4s0.5,0.2,0.7,0.3l0.8,0.3c0.4,0.1,0.8,0.3,1.2,0.5c0.3,0.2,0.7,0.4,0.9,0.7
	c0.3,0.2,0.5,0.5,0.6,0.9s0.2,0.8,0.2,1.2c0,0.6-0.1,1.2-0.4,1.7c-0.3,0.5-0.7,0.8-1.1,1.1c-0.5,0.3-1,0.5-1.6,0.6s-1.3,0.2-1.9,0.2
	C167.3,255.9,166.1,255.8,165.1,255.4L165.1,255.4z M202.7,244.9l-3.2,11H196l-1.6-6.4c-0.1-0.5-0.2-0.9-0.2-1.4h-0.1
	c0,0.5-0.1,0.9-0.2,1.4l-1.7,6.5h-3.5l-3.1-11h3.5l1.5,7.2c0.1,0.4,0.1,0.8,0.2,1.2h0.1c0-0.4,0.1-0.9,0.2-1.3l1.9-7.1h3.2l1.7,7.2
	c0,0.2,0.1,0.6,0.1,1.2h0.1c0-0.4,0.1-0.8,0.2-1.2l1.4-7.2L202.7,244.9z M222.8,251.1h-7.2c0.1,1.6,1.1,2.4,3,2.4
	c1.1,0,2.2-0.3,3.2-0.9v2.4c-1.2,0.6-2.6,0.9-4,0.8c-2.8,0.3-5.3-1.8-5.6-4.6c0-0.3,0-0.7,0-1c-0.1-1.6,0.5-3.2,1.6-4.3
	c1-1,2.4-1.6,3.9-1.6c1.4-0.1,2.7,0.4,3.7,1.4c0.9,1.1,1.4,2.5,1.3,3.9L222.8,251.1z M219.6,249.1c0-1.6-0.6-2.4-1.9-2.4
	c-0.5,0-1.1,0.3-1.4,0.7c-0.4,0.5-0.7,1.1-0.7,1.7H219.6L219.6,249.1z M243.5,248c-0.4-0.2-0.9-0.3-1.4-0.3c-0.7,0-1.3,0.3-1.7,0.8
	c-0.4,0.6-0.7,1.4-0.6,2.2v5.2h-3.4v-11h3.4v2c0.3-1.3,1.5-2.3,2.9-2.2c0.3,0,0.6,0,0.8,0.1V248z"/>
<circle class="st2" cx="252.3" cy="254.2" r="1.8"/>
</svg>
