<svg xmlns="http://www.w3.org/2000/svg" width="380" height="380" viewBox="0 0 380 380">
  <g id="グループ_7822" data-name="グループ 7822" transform="translate(-718 -3751)">
    <g id="グループ_3545" data-name="グループ 3545" transform="translate(72 -64)">
      <g id="グループ_3548" data-name="グループ 3548" transform="translate(444.695 3756.417)">
        <path id="パス_6596" data-name="パス 6596" d="M391.3,58.583v190L279.959,402.539A189.127,189.127,0,0,0,391.3,438.583c104.934,0,190-85.066,190-190S496.239,58.583,391.3,58.583Z" fill="#0a46c8"/>
        <path id="パス_6597" data-name="パス 6597" d="M391.3,58.583c-104.934,0-190,85.066-190,190a189.735,189.735,0,0,0,78.654,153.956L391.3,248.583Z" fill="#cae2f2"/>
      </g>
      <circle id="楕円形_154" data-name="楕円形 154" cx="113" cy="113" r="113" transform="translate(723 3892)" fill="#fff"/>
      <path id="パス_10015" data-name="パス 10015" d="M-83.468-12.672V-14.41H-70v1.738h-5.478v-1.254H-78.1v1.254Zm16.478,9.2V-5.742h-8.69A7.47,7.47,0,0,0-75.5-7.128H-69.5V-9.24h-5.984v-1.32h6.424v-1.452h1.76V-16.7H-75.35v-1.914h-2.684V-16.7h-8.03v4.686h1.958v1.452H-78.1v1.32h-5.654v2.112h5.632a10.083,10.083,0,0,1-.22,1.386h-7.9v2.266h6.622c-1.21,1.3-3.322,2.442-7.018,3.278a10.676,10.676,0,0,1,1.628,2.112C-80.52.7-78.078-1.034-76.78-2.992c1.738,2.728,4.356,4.29,8.536,4.95A10.179,10.179,0,0,1-66.7-.33c-3.476-.374-5.94-1.386-7.5-3.146Zm10.318-.066A10.127,10.127,0,0,1-59.092.066a19.8,19.8,0,0,1,1.98,1.21A13.62,13.62,0,0,0-54.428-2.97Zm10.736-.726V-6.38H-57.288v2.112h4.444V-.55c0,.22-.088.264-.352.286-.242,0-1.122,0-1.936-.022a8.473,8.473,0,0,1,.792,2.2,7.178,7.178,0,0,0,3.014-.4c.748-.352.946-.924.946-2.024V-4.268ZM-49.368-2.64a18.708,18.708,0,0,1,2.574,3.872L-44.682.088a19.407,19.407,0,0,0-2.706-3.74Zm-4.884-7.172a15.241,15.241,0,0,0,2.64-5.39,16.752,16.752,0,0,0,2.706,5.39Zm-4.554,1.056a9.652,9.652,0,0,0-.836-1.848c.132-.484.286-1.012.44-1.584a7.771,7.771,0,0,1,.946.858c.176-.154.352-.33.55-.506a11.772,11.772,0,0,1,1.342,1.144A8.778,8.778,0,0,1-58.806-8.756Zm-3.014-6.6h1.21c-.264,1.54-.638,3.564-.99,4.972a7.845,7.845,0,0,1,1.122,4.246,2.523,2.523,0,0,1-.264,1.408.683.683,0,0,1-.484.2,5.771,5.771,0,0,1-.594-.022Zm6.358,3.5a9.984,9.984,0,0,0-1.364-1.012,7.816,7.816,0,0,0,.506-.682,11.429,11.429,0,0,1,1.32.968A5.053,5.053,0,0,1-55.462-11.858Zm1.628-3.344q-.2.627-.462,1.254a14.5,14.5,0,0,0-1.3-.792l.264-.462Zm7.788-2-.418.132h-2.9v1.848h1.958a13.029,13.029,0,0,1-.99,2.09,18.241,18.241,0,0,1-1.848-5.1l-2.046.4c.088.374.154.748.264,1.1l-.682-.242-.4.066H-54.56a11.691,11.691,0,0,0,.44-1.232l-2-.418a12.652,12.652,0,0,1-2.728,4.95c.286-1.122.55-2.266.792-3.278l-1.584-.88-.33.088h-4.114v19.6h2.266v-6.38a5.253,5.253,0,0,1,.4,2.024A5.964,5.964,0,0,0-60.3-2.486a2.026,2.026,0,0,0,1.078-.484c.594-.44.858-1.408.858-2.838a9.408,9.408,0,0,0-.374-2.706,8.387,8.387,0,0,1,1.188,1.562,12.05,12.05,0,0,0,2.266-1.716v.946h7.194V-8.91A10.655,10.655,0,0,0-45.65-7.062,8.908,8.908,0,0,1-44.11-9a9.13,9.13,0,0,1-3.058-2.354,17.453,17.453,0,0,0,2.53-5.038Zm12.232,1.848.022,2.816a60.3,60.3,0,0,0,9.35,0v-2.816A44.454,44.454,0,0,1-33.814-15.356Zm-.748,9.086a13.427,13.427,0,0,0-.374,2.838c0,2.222,1.782,3.586,5.544,3.586a30.283,30.283,0,0,0,5.632-.44l-.066-2.948a25.109,25.109,0,0,1-5.456.572c-2.2,0-3.036-.572-3.036-1.54a7.17,7.17,0,0,1,.264-1.826Zm-5.654-10.78a16.28,16.28,0,0,1-.22,2.134,60.408,60.408,0,0,0-.9,8.624A27.813,27.813,0,0,0-40.48.836L-37.972.66c-.022-.308-.022-.66-.044-.9a6.4,6.4,0,0,1,.132-1.012A52.527,52.527,0,0,1-36.322-6.6l-1.364-1.056c-.308.7-.66,1.43-.968,2.2a10.514,10.514,0,0,1-.088-1.408,53.866,53.866,0,0,1,1.056-7.986,18.308,18.308,0,0,1,.528-1.936Zm24.86,12.716h9.548v.968h-9.548Zm0-2.42h9.548v.946h-9.548Zm0-2.442h9.548v.946h-9.548Zm12.21,7.414v-8.976h-7.172a5.846,5.846,0,0,0,2.156-2.706H-5.94v2.31h2.332v-2.31H-.836v-1.892H-7.722c.022-.22.022-.44.022-.638v-.11a34.343,34.343,0,0,0,6.006-.946l-1.584-1.562a33.956,33.956,0,0,1-4.928.9l-1.76-.418v2a3.982,3.982,0,0,1-.77,2.552v-1.782h-6.05c.022-.22.022-.462.022-.66v-.11a28.178,28.178,0,0,0,5.588-.946l-1.606-1.54a26.871,26.871,0,0,1-4.576.88l-1.672-.418v2A5.971,5.971,0,0,1-20.9-11.44a7.542,7.542,0,0,1,1.716,1.628,7.351,7.351,0,0,0,2.112-3.652h1.936v2.288H-12.8v-2.288h1.98a5.419,5.419,0,0,1-1.276,1.1,6.253,6.253,0,0,1,1.518,1.606h-7.3v8.976h3.256A25.833,25.833,0,0,1-20.68.066,26.534,26.534,0,0,1-18.744,1.98,27.261,27.261,0,0,0-11.88-.9l-2-.88h6.424L-9.438-.638a43.379,43.379,0,0,1,5.72,2.6L-.682.792C-2.178.066-4.708-.99-6.952-1.782ZM8.1-15.8v1.188H4.73V-15.8Zm-3.366,4.2v-1.254H8.1v1.254Zm5.808,1.98V-17.8h-8.4V1.914h2.6V-9.614Zm2.53,3.674v2.6H9.438v-2.6ZM15.51-1.188V-8.1H7V.044H9.438V-1.188Zm-.968-10.384v-1.276h3.476v1.276Zm3.476-4.246v1.21H14.542v-1.21ZM20.68-17.8H12.056v8.206h5.962v8.338c0,.4-.154.528-.572.528-.418.022-1.914.044-3.19-.044a9.368,9.368,0,0,1,.88,2.684,10.807,10.807,0,0,0,4.312-.506C20.372.99,20.68.242,20.68-1.21ZM36.036-3.168c-.022-.99-.066-2.6-.088-3.806,1.342-.616,2.574-1.1,3.542-1.474a23.1,23.1,0,0,1,2.6-.924l-1.1-2.53c-.792.374-1.562.748-2.4,1.122-.9.4-1.826.77-2.948,1.3a2.968,2.968,0,0,0-2.9-1.694,6.818,6.818,0,0,0-2.464.44,13.308,13.308,0,0,0,1.254-2.2,70.975,70.975,0,0,0,7.106-.572l.022-2.552a50.309,50.309,0,0,1-6.16.638c.264-.88.418-1.628.528-2.156l-2.86-.242a12.124,12.124,0,0,1-.44,2.486H28.666a27.952,27.952,0,0,1-3.828-.242v2.552c1.188.11,2.794.154,3.674.154h.264a21.3,21.3,0,0,1-4.8,5.984l2.332,1.738a27.9,27.9,0,0,1,2.024-2.4,5.392,5.392,0,0,1,3.41-1.5,1.7,1.7,0,0,1,1.518.748c-2.486,1.276-5.126,3.036-5.126,5.808,0,2.816,2.574,3.63,5.984,3.63a60.278,60.278,0,0,0,6.16-.352l.088-2.838a33.324,33.324,0,0,1-6.182.638c-2.134,0-3.168-.33-3.168-1.54,0-1.078.88-1.936,2.486-2.816-.022.946-.044,1.958-.088,2.6Zm12.98-14.256a13.679,13.679,0,0,1,.286,2.948c0,1.87-.22,7.59-.22,10.516,0,3.718,2.31,5.28,5.874,5.28a11.338,11.338,0,0,0,9.46-4.972l-1.98-2.442c-1.562,2.376-3.85,4.444-7.458,4.444-1.672,0-2.992-.7-2.992-2.9,0-2.706.154-7.59.264-9.922a22.36,22.36,0,0,1,.286-2.9Zm18.326,2.332.264,2.992c2.53-.55,7.128-1.034,9-1.232a8.708,8.708,0,0,0-3.212,6.71C73.392-1.914,77.7.55,82.28.858l1.012-3.014c-3.674-.2-7.04-1.474-7.04-5.06a6.643,6.643,0,0,1,4.6-6.094,22.5,22.5,0,0,1,4.2-.286l-.022-2.816c-1.518.066-3.916.2-6.16.374-3.982.352-7.59.66-9.394.836C69.036-15.158,68.2-15.114,67.342-15.092ZM-44.33,22.8a6.236,6.236,0,0,1,1.056,1.5c.154-.066.308-.154.462-.22a11.942,11.942,0,0,1-1.518,4.29Zm-3.388,5.434V26.41h1.254v1.826Zm-2.97-1.826h1.254v1.826H-50.71c.022-.506.022-.99.022-1.452Zm2.31-7.018c-.2.55-.4,1.122-.616,1.606h-1.892c.264-.506.506-1.056.748-1.606Zm.66,3.52h1.254v1.65h-1.254Zm-2.97,0h1.254v1.65h-1.254Zm17.006,7.04h-3.74v-1.98h3.3v-2.2h-3.3v-1.98h-2.486v1.98h-1.078c.132-.462.22-.946.308-1.408l-1.958-.4a6.7,6.7,0,0,0,3.454-5.346h2.552c-.088,1.826-.2,2.574-.4,2.816a.651.651,0,0,1-.594.242c-.308,0-.9-.022-1.584-.088A5.215,5.215,0,0,1-38.61,23.7a16.247,16.247,0,0,0,2.222-.066,1.958,1.958,0,0,0,1.342-.726c.484-.572.66-2.09.77-5.588.022-.286.044-.836.044-.836H-44v2.134h2.464A4.607,4.607,0,0,1-44.33,22.34V21h-2.464a24.691,24.691,0,0,0,1.21-2.772l-1.5-.924-.33.11h-2c.176-.506.33-1.034.462-1.562l-2.31-.484a15.4,15.4,0,0,1-3.256,6.754A14.173,14.173,0,0,1-52.8,23.528v3.256c0,2.464-.11,5.742-1.584,8.008a9.048,9.048,0,0,1,1.8,1.166,13.709,13.709,0,0,0,1.738-5.786h4.378V33.34c0,.286-.11.374-.374.374s-1.122,0-2-.044a6.982,6.982,0,0,1,.748,2.222,6.185,6.185,0,0,0,2.926-.44c.66-.374.836-1.034.836-2.068V28.742a12.3,12.3,0,0,1,1.716.924,9.384,9.384,0,0,0,.88-1.694h1.826v1.98h-4.07V32.2h4.07v3.63h2.486V32.2h3.74Zm8.03-12.32a17.4,17.4,0,0,0-3.982-2.178l-1.43,1.958a15.107,15.107,0,0,1,3.894,2.376Zm-1.21,5.852a15.35,15.35,0,0,0-4.07-2.09l-1.386,1.958a17.087,17.087,0,0,1,3.96,2.31Zm-.968,3.476a66.278,66.278,0,0,1-3.894,7.018l2.288,1.628c1.232-2.156,2.508-4.686,3.608-7.018Zm9.152-5.764h2.728v3.982h-2.794c.044-.726.066-1.43.066-2.156Zm6.93,6.446V25.178H-13.4V18.732h-5.28V15.388h-2.6v3.344h-3.674V21.2h3.674V23q0,1.089-.066,2.178h-4.686v2.464h4.29a9.869,9.869,0,0,1-5.456,6.49,9.972,9.972,0,0,1,2.178,1.848,11,11,0,0,0,5.7-7.062,12.406,12.406,0,0,0,5.984,7.04,9.723,9.723,0,0,1,1.826-2.288,10.316,10.316,0,0,1-5.61-6.028Zm5.434-11.066a13.679,13.679,0,0,1,.286,2.948c0,1.87-.22,7.59-.22,10.516,0,3.718,2.31,5.28,5.874,5.28a11.338,11.338,0,0,0,9.46-4.972l-1.98-2.442C5.544,30.282,3.256,32.35-.352,32.35c-1.672,0-2.992-.7-2.992-2.9,0-2.706.154-7.59.264-9.922a22.359,22.359,0,0,1,.286-2.9Zm29.04,9.086a32.009,32.009,0,0,1,4.2-.242,31.469,31.469,0,0,1,3.74.264l.066-2.618a37.825,37.825,0,0,0-3.828-.2c-1.408,0-2.97.11-4.18.22Zm1.716-7c-1.188.286-2.42.528-3.652.726l.176-.836c.11-.484.308-1.452.462-2.046l-3.322-.264a11.311,11.311,0,0,1-.088,2.2q-.066.528-.2,1.254c-.66.044-1.3.066-1.936.066a21.448,21.448,0,0,1-2.75-.176l.066,2.728c.77.044,1.584.088,2.64.088.44,0,.924-.022,1.43-.044-.154.616-.308,1.232-.462,1.8a48.036,48.036,0,0,1-3.762,9.812L16.1,34.99a70.264,70.264,0,0,0,3.454-10.076c.242-.88.462-1.848.66-2.794,1.452-.176,2.926-.418,4.224-.7Zm-3.058,9.658a14.953,14.953,0,0,0-.374,2.9c0,2.2,1.87,3.476,5.544,3.476A34.863,34.863,0,0,0,31,34.4l.11-2.794a25.258,25.258,0,0,1-4.532.44c-2.332,0-2.882-.7-2.882-1.65A7.537,7.537,0,0,1,24,28.566ZM39.93,16.356a24.121,24.121,0,0,1-.462,4.62c-1.1.088-2.134.154-2.816.176a20.229,20.229,0,0,1-2.31,0l.242,2.948c.682-.11,1.8-.264,2.42-.33.418-.066,1.1-.154,1.87-.242-.792,2.97-2.266,7.326-4.4,10.186l2.86,1.144c2-3.212,3.586-8.338,4.422-11.638.616-.044,1.144-.088,1.5-.088,1.386,0,2.134.242,2.134,1.98a16.113,16.113,0,0,1-.9,5.962,1.584,1.584,0,0,1-1.628.946,12.537,12.537,0,0,1-2.662-.462l.484,2.882a12.162,12.162,0,0,0,2.6.308,3.5,3.5,0,0,0,3.586-2c.924-1.892,1.232-5.368,1.232-7.942,0-3.124-1.628-4.158-3.938-4.158-.44,0-1.1.044-1.826.088.154-.792.33-1.584.44-2.244.11-.55.264-1.232.4-1.8Zm8.118,3.476a25.162,25.162,0,0,1,3.7,8.294l2.75-1.3a39.268,39.268,0,0,0-3.806-8.1Z" transform="translate(836 3998)" fill="#0b3880"/>
    </g>
    <path id="パス_10016" data-name="パス 10016" d="M-19.168-1.2c-1.264,0-2.112-1.1-2.3-3.44A2.741,2.741,0,0,1-19.28-6.016c1.264,0,1.936.848,1.936,2.368S-18.144-1.2-19.168-1.2Zm3.344-9.536A3.955,3.955,0,0,0-18.768-12c-2.32,0-4.448,1.808-4.448,6.336,0,4,1.824,5.872,4.064,5.872a3.589,3.589,0,0,0,3.52-3.856c0-2.5-1.328-3.712-3.312-3.712A3.54,3.54,0,0,0-21.5-6c.08-3.36,1.328-4.5,2.832-4.5a2.53,2.53,0,0,1,1.84.88ZM-10.656.208a3.885,3.885,0,0,0,3.968-4.08,3.387,3.387,0,0,0-3.584-3.744,3.32,3.32,0,0,0-1.616.416l.272-3.024h4.368v-1.552h-5.968l-.352,5.584.9.592a3.1,3.1,0,0,1,1.888-.672,2.184,2.184,0,0,1,2.24,2.464A2.3,2.3,0,0,1-10.88-1.3,3.768,3.768,0,0,1-13.632-2.56l-.88,1.2A5.211,5.211,0,0,0-10.656.208Zm7.216,0a1.224,1.224,0,0,0,1.232-1.28A1.252,1.252,0,0,0-3.44-2.384,1.252,1.252,0,0,0-4.672-1.072,1.224,1.224,0,0,0-3.44.208ZM2.032,0H3.92c.192-4.608.624-7.2,3.392-10.656v-1.12H-.272v1.552H5.264C2.992-7.056,2.24-4.3,2.032,0Zm9.84-4.736c1.664,0,2.768-1.376,2.768-3.76,0-2.352-1.1-3.712-2.768-3.712-1.648,0-2.768,1.36-2.768,3.712C9.1-6.112,10.224-4.736,11.872-4.736Zm0-1.1c-.816,0-1.408-.832-1.408-2.656,0-1.808.592-2.624,1.408-2.624.848,0,1.424.816,1.424,2.624C13.3-6.672,12.72-5.84,11.872-5.84Zm8.4,5.888c1.648,0,2.768-1.376,2.768-3.76,0-2.368-1.12-3.712-2.768-3.712S17.488-6.08,17.488-3.712C17.488-1.328,18.624.048,20.272.048Zm0-1.1c-.832,0-1.424-.832-1.424-2.656s.592-2.624,1.424-2.624,1.424.8,1.424,2.624S21.1-1.056,20.272-1.056ZM12.24.048h1.168l6.48-12.256H18.72Z" transform="translate(1060 3948)" fill="#fff"/>
  </g>
</svg>
