<svg xmlns="http://www.w3.org/2000/svg" width="380" height="280" viewBox="0 0 380 280">
  <g id="グループ_7813" data-name="グループ 7813" transform="translate(-710 -1036)">
    <g id="グループ_3601" data-name="グループ 3601" transform="translate(3.456 18.911)">
      <g id="グループ_3599" data-name="グループ 3599" transform="translate(893.678 1110.733)">
        <path id="パス_6766" data-name="パス 6766" d="M1181.54,521.044a1.3,1.3,0,0,1-.248-.023,1.333,1.333,0,0,1-1.064-1.558l3.769-20a26.53,26.53,0,0,0-.213-5.1,1.334,1.334,0,0,1,2.57-.717,28.456,28.456,0,0,1,.308,6.009l-.022.2-3.788,20.1A1.337,1.337,0,0,1,1181.54,521.044Z" transform="translate(-1063.907 -426.784)" fill="#1c428c"/>
        <path id="パス_6767" data-name="パス 6767" d="M1191.348,521.86h-.018a1.382,1.382,0,0,1-1.316-1.415l.311-22.8,1.433-4.1a1.332,1.332,0,1,1,2.517.871l-1.288,3.669-.305,22.39A1.387,1.387,0,0,1,1191.348,521.86Z" transform="translate(-1065.065 -426.783)" fill="#1c428c"/>
        <path id="パス_6768" data-name="パス 6768" d="M1215.073,538.59h-.007a1.341,1.341,0,0,1-1.328-1.352l.167-35.942c-.17-1.378-1.03-4.928-3.111-5.9-.468-.219-3.743-1.647-6.632-2.908-2.646-1.153-5.146-2.243-5.666-2.48a1.334,1.334,0,1,1,1.106-2.429c.5.228,2.99,1.312,5.627,2.461,3.046,1.328,6.195,2.7,6.694,2.933,3.912,1.826,4.617,7.838,4.644,8.093a1.491,1.491,0,0,1,.009.153l-.17,36.03A1.342,1.342,0,0,1,1215.073,538.59Z" transform="translate(-1065.974 -426.169)" fill="#1c428c"/>
        <path id="パス_6769" data-name="パス 6769" d="M1133.292,533.283a1.335,1.335,0,0,1-.944-2.279l2.09-2.088a1.337,1.337,0,0,1,1.293-.345l4.408,1.2,14.1-5.1c1.021-4.267,6.239-25.784,8.749-30.962a1.336,1.336,0,0,1,.685-.65c3.953-1.654,13.509-5.778,13.606-5.82a1.334,1.334,0,1,1,1.057,2.449c-.093.04-8.947,3.862-13.153,5.631-2.7,6.2-8.456,30.42-8.516,30.671a1.331,1.331,0,0,1-.844.946l-15.174,5.484a1.336,1.336,0,0,1-.8.033l-4.07-1.1-1.542,1.542A1.336,1.336,0,0,1,1133.292,533.283Z" transform="translate(-1058.211 -426.13)" fill="#1c428c"/>
        <path id="パス_6770" data-name="パス 6770" d="M1183.384,485.236a1.632,1.632,0,0,1-.184-.012,1.337,1.337,0,0,1-1.14-1.5,28.964,28.964,0,0,0,.17-4.232c-2.337-1.66-3.683-4.923-4-9.715-.646-9.676.5-12.4.743-12.847a1.334,1.334,0,0,1,2.358,1.25h0s-1.035,2.475-.439,11.42c.2,2.926.924,6.687,3.282,7.965l.66.358.036.748a31.815,31.815,0,0,1-.163,5.419A1.335,1.335,0,0,1,1183.384,485.236Z" transform="translate(-1063.65 -422.481)" fill="#1c428c"/>
        <path id="パス_6771" data-name="パス 6771" d="M1198.362,462.891a1.8,1.8,0,0,1-.182-.011,1.337,1.337,0,0,1-1.142-1.5,11.167,11.167,0,0,0-.923-5.6c-.947-1.959-4.239-4.627-9.026-3.464a7.682,7.682,0,0,0-5.655,5.046c.732,1.278,2.487,1.392,6.237,1.348.519-.007,1.054-.012,1.6-.012,3.524,0,4.56,2.2,4.617,3.358l-2.667.13c-.017-.094-.208-.818-1.95-.818-.539,0-1.063.005-1.571.011-3.9.045-7.581.09-8.924-3.405l-.141-.367.083-.385a10.172,10.172,0,0,1,7.735-7.5c5.629-1.37,10.418,1.5,12.06,4.894a13.717,13.717,0,0,1,1.166,7.126A1.335,1.335,0,0,1,1198.362,462.891Z" transform="translate(-1063.722 -421.672)" fill="#1c428c"/>
        <path id="パス_6772" data-name="パス 6772" d="M1199.084,488.231a1.357,1.357,0,0,1-1.334-1.323l-.35-12.118a1.34,1.34,0,0,1,1.3-1.38,1.324,1.324,0,0,1,1.371,1.292l.349,12.132a1.34,1.34,0,0,1-1.293,1.4Z" transform="translate(-1065.937 -424.511)" fill="#1c428c"/>
        <path id="パス_6773" data-name="パス 6773" d="M1197.179,474.763a1.334,1.334,0,0,1-.166-2.658c1.655-.208,2.044-.839,2.2-1.364a1.66,1.66,0,0,0-1.089-1.962,1.452,1.452,0,0,0-1.311.169,1.334,1.334,0,1,1-1.54-2.179,4.143,4.143,0,0,1,3.7-.517,4.33,4.33,0,0,1,2.8,5.242c-.376,1.278-1.447,2.883-4.422,3.259A1.374,1.374,0,0,1,1197.179,474.763Z" transform="translate(-1065.619 -423.639)" fill="#1c428c"/>
        <path id="パス_6774" data-name="パス 6774" d="M1175.026,535.492c-.038,0-.076,0-.116-.005l-6.7-.582a1.335,1.335,0,1,1,.231-2.66l6.564.572L1199,529.981l.623-22.229a1.335,1.335,0,1,1,2.669.074l-.656,23.381a1.331,1.331,0,0,1-1.176,1.287l-25.275,2.987A1.127,1.127,0,0,1,1175.026,535.492Z" transform="translate(-1062.347 -428.412)" fill="#1c428c"/>
        <path id="パス_6775" data-name="パス 6775" d="M1186.168,483.117a8.792,8.792,0,0,1-2.484-.343,1.334,1.334,0,1,1,.816-2.54,5.745,5.745,0,0,0,4.091-.381,1.334,1.334,0,0,1,1.344,2.3A7.438,7.438,0,0,1,1186.168,483.117Z" transform="translate(-1064.208 -425.25)" fill="#1c428c"/>
        <path id="パス_6776" data-name="パス 6776" d="M1132.21,520.356h-73.571c-3.041,0-5.006-2.389-5.006-6.089h2.668c0,1.56.4,3.421,2.338,3.421h73.571c1.827,0,4.148-1.611,4.148-3.421V468.741c0-1.74-2.229-3.089-4.148-3.089h-28.541v-2.671h28.541c3.224,0,6.817,2.365,6.817,5.759v45.526C1139.027,517.7,1135.362,520.356,1132.21,520.356Z" transform="translate(-1048.963 -423.279)" fill="#03abf2"/>
        <path id="パス_6777" data-name="パス 6777" d="M1090.521,539.022a1.334,1.334,0,0,1-1.334-1.334V526.346a1.334,1.334,0,1,1,2.668,0v11.342A1.334,1.334,0,0,1,1090.521,539.022Z" transform="translate(-1053.161 -430.603)" fill="#03abf2"/>
        <path id="パス_6778" data-name="パス 6778" d="M1115.483,539.022a1.334,1.334,0,0,1-1.334-1.334V526.346a1.334,1.334,0,1,1,2.668,0v11.342A1.334,1.334,0,0,1,1115.483,539.022Z" transform="translate(-1056.108 -430.603)" fill="#03abf2"/>
        <path id="パス_6779" data-name="パス 6779" d="M1122.155,540.541h-6.672a1.335,1.335,0,0,1,0-2.67h6.672a1.335,1.335,0,0,1,0,2.67Z" transform="translate(-1056.108 -432.121)" fill="#03abf2"/>
        <path id="パス_6780" data-name="パス 6780" d="M1089.538,540.541H1082.2a1.335,1.335,0,0,1,0-2.67h7.339a1.335,1.335,0,0,1,0,2.67Z" transform="translate(-1052.178 -432.121)" fill="#03abf2"/>
        <path id="パス_6781" data-name="パス 6781" d="M1240.071,618.592a1.352,1.352,0,0,1-1.335-1.368V550.817a1.336,1.336,0,1,1,2.671,0v66.407A1.352,1.352,0,0,1,1240.071,618.592Z" transform="translate(-1070.817 -433.488)" fill="#1c428c"/>
        <path id="パス_6782" data-name="パス 6782" d="M1059.505,618.708a1.344,1.344,0,0,1-1.333-1.357V551.482a1.334,1.334,0,1,1,2.668,0v65.868A1.345,1.345,0,0,1,1059.505,618.708Z" transform="translate(-1049.499 -433.568)" fill="#1c428c"/>
        <path id="パス_6783" data-name="パス 6783" d="M1213.085,619.315a1.333,1.333,0,0,1-1.334-1.333V557.94h-144.1v59.375a1.335,1.335,0,0,1-2.67,0V556.6a1.334,1.334,0,0,1,1.334-1.334h146.772a1.334,1.334,0,0,1,1.333,1.334v61.377A1.333,1.333,0,0,1,1213.085,619.315Z" transform="translate(-1050.303 -434.175)" fill="#1c428c"/>
        <path id="パス_6784" data-name="パス 6784" d="M1224.463,551.262h-6.671a1.334,1.334,0,1,1,0-2.668h5.336v-2H1051.006v2h7.338a1.334,1.334,0,1,1,0,2.668h-8.673a1.334,1.334,0,0,1-1.333-1.333v-4.672a1.333,1.333,0,0,1,1.333-1.333h174.792a1.334,1.334,0,0,1,1.333,1.333v4.672A1.335,1.335,0,0,1,1224.463,551.262Z" transform="translate(-1048.338 -432.836)" fill="#1c428c"/>
        <path id="パス_6785" data-name="パス 6785" d="M1141.872,617.123a1.294,1.294,0,0,1-.369-.052,1.333,1.333,0,0,1-.915-1.65l.79-2.767a1.336,1.336,0,0,1,.543-.742l3.65-2.434,6.833-49.8a1.334,1.334,0,0,1,2.644.363l-6.916,50.391a1.328,1.328,0,0,1-.582.929l-3.741,2.5-.656,2.294A1.332,1.332,0,0,1,1141.872,617.123Z" transform="translate(-1059.223 -434.56)" fill="#1c428c"/>
        <path id="パス_6786" data-name="パス 6786" d="M1108.932,616.729a1.313,1.313,0,0,1-.525-.109,1.333,1.333,0,0,1-.7-1.752l1.185-2.766a1.324,1.324,0,0,1,.685-.694l6.526-2.9,12.287-47.3a1.334,1.334,0,1,1,2.582.67L1118.525,609.8a1.336,1.336,0,0,1-.751.884l-6.636,2.947-.98,2.286A1.335,1.335,0,0,1,1108.932,616.729Z" transform="translate(-1055.335 -434.758)" fill="#1c428c"/>
        <path id="パス_6787" data-name="パス 6787" d="M1162.487,613.06a1.7,1.7,0,0,1-.2-.013,1.338,1.338,0,0,1-1.124-1.518l6.325-42.328a1.207,1.207,0,0,1,1.32-.98h0s21.9-.114,26.344-.114c7.031,0,7.462-8.813,7.476-9.184a1.355,1.355,0,0,1,1.385-1.32,1.314,1.314,0,0,1,1.281,1.361c-.146,4.038-2.454,11.664-10.142,11.664-3.831,0-20.626-.038-25.2-.049l-6.155,41.346A1.332,1.332,0,0,1,1162.487,613.06Z" transform="translate(-1061.657 -434.451)" fill="#1c428c"/>
        <path id="パス_6788" data-name="パス 6788" d="M1201.124,576.939h-24.369a1.334,1.334,0,0,1,0-2.669h24.258c.947-.174,9.136-2.057,9.136-14.953a1.334,1.334,0,1,1,2.668,0c0,15.8-11.393,17.592-11.508,17.608A1.306,1.306,0,0,1,1201.124,576.939Z" transform="translate(-1063.342 -434.496)" fill="#1c428c"/>
        <path id="パス_6789" data-name="パス 6789" d="M1174.137,620.306c-.053,0-.109,0-.163-.009a1.333,1.333,0,0,1-1.162-1.486l4.941-40.511a1.334,1.334,0,0,1,2.649.322l-4.942,40.511A1.334,1.334,0,0,1,1174.137,620.306Z" transform="translate(-1063.033 -436.756)" fill="#1c428c"/>
        <path id="パス_6790" data-name="パス 6790" d="M1209.905,620.226a1.335,1.335,0,0,1-1.326-1.206l-3.953-41.105a1.335,1.335,0,0,1,2.658-.255l3.951,41.1a1.335,1.335,0,0,1-1.2,1.457C1209.992,620.224,1209.949,620.226,1209.905,620.226Z" transform="translate(-1066.789 -436.677)" fill="#1c428c"/>
        <path id="パス_6791" data-name="パス 6791" d="M1131.786,618.752a1.3,1.3,0,0,1-.345-.047,1.332,1.332,0,0,1-.944-1.632l11.265-42.094a1.334,1.334,0,0,1,2.577.69l-11.265,42.093A1.337,1.337,0,0,1,1131.786,618.752Z" transform="translate(-1058.033 -436.385)" fill="#1c428c"/>
        <g id="グループ_3596" data-name="グループ 3596" transform="translate(99.343 0)">
          <path id="パス_6794" data-name="パス 6794" d="M1134.513,429.431a.928.928,0,0,1-1-.908,1.034,1.034,0,0,1,1-1.039l14.967-.055h0a1.073,1.073,0,0,1,1,1.081.958.958,0,0,1-1,.951l-14.968-.031Z" transform="translate(-1133.512 -420.091)" fill="#ff5963"/>
          <path id="パス_6795" data-name="パス 6795" d="M1143.007,435.786c-.553,0-1-.288-1-.84l-.016-14.9a.946.946,0,0,1,1-.938h0a1.015,1.015,0,0,1,1,1.015l.015,14.814c0,.551-.447.848-1,.848Z" transform="translate(-1134.513 -419.109)" fill="#ff5963"/>
        </g>
        <path id="パス_6798" data-name="パス 6798" d="M1102.114,501.755a4.841,4.841,0,1,1,4.842-4.84A4.845,4.845,0,0,1,1102.114,501.755Zm0-7.681a2.839,2.839,0,1,0,2.84,2.841A2.841,2.841,0,0,0,1102.114,494.074Z" transform="translate(-1054.116 -426.714)" fill="#03abf2"/>
      </g>
      <g id="グループ_3600" data-name="グループ 3600" transform="translate(721.137 1019.089)">
        <path id="パス_6630" data-name="パス 6630" d="M525.842,371.2h-25.9l-8.286,6.933-1.415-6.933h-4.812V351.8h40.416Z" transform="translate(-269.967 -255.077)" fill="#03abf2" opacity="0.1"/>
        <path id="パス_6631" data-name="パス 6631" d="M296.842,390.959a1.071,1.071,0,0,1-1.031-1.361l3.28-11.615a28.216,28.216,0,0,1,21.474-46.667h0a28.372,28.372,0,0,1,0,56.743h0a28.171,28.171,0,0,1-11.843-2.7l-11.289,5.552a1.025,1.025,0,0,1-.532.081C296.88,390.988,296.861,390.959,296.842,390.959Z" transform="translate(-206.639 -248.362)" fill="#03abf2" opacity="0.73"/>
        <g id="グループ_3553" data-name="グループ 3553" transform="translate(213.96 88.021)">
          <path id="パス_6632" data-name="パス 6632" d="M524.782,361.836H502.2a.977.977,0,0,1-.943-1,.937.937,0,0,1,.966-.93h0l22.561-.032a.982.982,0,0,1,0,1.964Z" transform="translate(-489.115 -345.743)" fill="#03abf2"/>
          <path id="パス_6633" data-name="パス 6633" d="M531.088,369.952h-9.652a.978.978,0,0,1-.943-1,.937.937,0,0,1,.967-.93h0l9.628-.032a.982.982,0,0,1,0,1.963Z" transform="translate(-495.421 -348.404)" fill="#03abf2"/>
          <g id="グループ_3552" data-name="グループ 3552" transform="translate(0 7.119)">
            <path id="パス_6634" data-name="パス 6634" d="M490.586,379.806a1.287,1.287,0,0,1-1.286-1.234l-.268-6.476-3.105,0a2.828,2.828,0,0,1-2.731-2.905l.02-16.844a2.83,2.83,0,0,1,2.733-2.9l37.807.042a2.674,2.674,0,0,1,1.983.9,2.984,2.984,0,0,1,.749,2l-.02,16.841a2.824,2.824,0,0,1-2.733,2.9l-24.956-.027-7.28,7.317A1.287,1.287,0,0,1,490.586,379.806Zm-4.635-27.788c-.033,0-.159.107-.16.332l-.019,16.839a.341.341,0,0,0,.159.329l4.338,0a1.287,1.287,0,0,1,1.285,1.234l.2,4.766,5.58-5.7a1.385,1.385,0,0,1,.914-.467h0l25.488.115c.032,0,.159-.066.159-.285l.019-16.822a.375.375,0,0,0-.093-.272.108.108,0,0,0-.067-.04Z" transform="translate(-483.196 -349.444)" fill="#03abf2"/>
          </g>
          <path id="パス_6635" data-name="パス 6635" d="M524.884,341.429h0l-39.894.091a1.334,1.334,0,0,1,0-2.666h0l39.894.163a1.208,1.208,0,1,1,0,2.411Z" transform="translate(-483.362 -338.854)" fill="#03abf2"/>
        </g>
        <path id="パス_6636" data-name="パス 6636" d="M429.468,456.076A20.029,20.029,0,1,1,449.5,436.048,20.051,20.051,0,0,1,429.468,456.076Zm0-37.917a17.888,17.888,0,1,0,17.888,17.888A17.908,17.908,0,0,0,429.468,418.16Z" transform="translate(-245.061 -276.126)" fill="#1c428c"/>
        <path id="パス_6637" data-name="パス 6637" d="M383.042,280.677a1.067,1.067,0,0,1-.487-.118,74.314,74.314,0,0,0-34.231-8.234,1.07,1.07,0,0,1,0-2.141,76.431,76.431,0,0,1,35.208,8.47,1.071,1.071,0,0,1-.489,2.023Z" transform="translate(-224.677 -228.325)" fill="#1c428c"/>
        <path id="パス_6638" data-name="パス 6638" d="M457.333,392.631a1.093,1.093,0,0,1-.266-.034,1.072,1.072,0,0,1-.773-1.3,75.593,75.593,0,0,0-1.635-42.806,1.071,1.071,0,0,1,2.027-.688,77.759,77.759,0,0,1,1.683,44.024A1.071,1.071,0,0,1,457.333,392.631Z" transform="translate(-259.864 -253.528)" fill="#1c428c"/>
        <path id="パス_6639" data-name="パス 6639" d="M355.1,491.826a1.07,1.07,0,0,1-.062-2.139,74.787,74.787,0,0,0,39.5-14.089,1.07,1.07,0,1,1,1.255,1.734,76.91,76.91,0,0,1-40.63,14.492Z" transform="translate(-226.898 -295.588)" fill="#1c428c"/>
        <path id="パス_6640" data-name="パス 6640" d="M264.057,458.527a1.062,1.062,0,0,1-.715-.276A77.821,77.821,0,0,1,243.571,430.3a1.07,1.07,0,0,1,1.978-.818,75.69,75.69,0,0,0,19.224,27.173,1.071,1.071,0,0,1-.716,1.867Z" transform="translate(-190.666 -280.323)" fill="#1c428c"/>
        <path id="パス_6641" data-name="パス 6641" d="M246.348,323.472a1.072,1.072,0,0,1-.971-1.519c4-8.682,11.782-18.757,17.318-24.444A1.071,1.071,0,0,1,264.229,299c-5.585,5.736-13.186,15.769-16.908,23.846A1.071,1.071,0,0,1,246.348,323.472Z" transform="translate(-191.252 -237.175)" fill="#1c428c"/>
        <g id="グループ_3554" data-name="グループ 3554" transform="translate(18.675 89.894)">
          <path id="パス_6642" data-name="パス 6642" d="M220.725,397.713a28.036,28.036,0,1,1,28.036-28.035A28.067,28.067,0,0,1,220.725,397.713Zm0-53.93a25.895,25.895,0,1,0,25.894,25.9A25.923,25.923,0,0,0,220.725,343.782Z" transform="translate(-192.69 -341.641)" fill="#03abf2"/>
          <path id="パス_6643" data-name="パス 6643" d="M208.543,408.958a1.071,1.071,0,0,1-.993-1.47h0a63.349,63.349,0,0,0,2.355-8.781,1.073,1.073,0,0,1,.35-.588,17.479,17.479,0,0,1,7.328-3.666,1.066,1.066,0,0,1,.724.117,19.194,19.194,0,0,0,7.195,2.153c2.029.116,6.037-1.543,7.408-2.187a1.074,1.074,0,0,1,.633-.087,17.99,17.99,0,0,1,7.855,3.672,1.07,1.07,0,0,1,.35.587c1.359,6.289,2,8.48,2.007,8.5a1.07,1.07,0,1,1-2.052.609c-.026-.088-.641-2.181-1.969-8.3a16.14,16.14,0,0,0-6.238-2.9c-1.275.575-5.485,2.369-8.1,2.237a20.823,20.823,0,0,1-7.751-2.222,15.823,15.823,0,0,0-5.721,2.881,61.754,61.754,0,0,1-2.383,8.768A1.072,1.072,0,0,1,208.543,408.958Z" transform="translate(-197.535 -358.945)" fill="#03abf2"/>
          <path id="パス_6644" data-name="パス 6644" d="M230.048,377.759h-.008a9.111,9.111,0,0,1-9.156-9.091v-4.507a9.1,9.1,0,1,1,18.2,0v4.507A9.008,9.008,0,0,1,230.048,377.759Zm-.061-20.612a6.972,6.972,0,0,0-6.962,7.014v4.507a6.968,6.968,0,0,0,7.015,6.95h.008a6.865,6.865,0,0,0,6.895-6.95v-4.507A6.971,6.971,0,0,0,229.987,357.148Z" transform="translate(-201.931 -346.022)" fill="#03abf2"/>
        </g>
        <path id="パス_6645" data-name="パス 6645" d="M425.395,378.2a1.069,1.069,0,0,1-.812-.372l-4.518-5.249a1.07,1.07,0,0,1,.113-1.51l5.249-4.519a1.071,1.071,0,0,1,1.51.113l4.518,5.249a1.069,1.069,0,0,1-.113,1.51l-5.249,4.518A1.066,1.066,0,0,1,425.395,378.2ZM422.386,372l3.121,3.626,3.627-3.121-3.121-3.626Z" transform="translate(-248.458 -259.828)" fill="#1c428c"/>
        <path id="パス_6646" data-name="パス 6646" d="M281.828,440.4a1.068,1.068,0,0,1-.758-.314l-5.993-6a1.069,1.069,0,0,1,0-1.514l6.006-5.993a1.069,1.069,0,0,1,1.514,0l5.994,6a1.071,1.071,0,0,1,0,1.514l-6.006,5.994A1.069,1.069,0,0,1,281.828,440.4Zm-4.48-7.074,4.482,4.489,4.49-4.48-4.481-4.49Z" transform="translate(-200.917 -279.482)" fill="#1c428c"/>
        <path id="パス_6647" data-name="パス 6647" d="M302.193,502.518a23.213,23.213,0,1,1,23.213-23.213A23.239,23.239,0,0,1,302.193,502.518Zm0-44.286a21.073,21.073,0,1,0,21.072,21.074A21.1,21.1,0,0,0,302.193,458.232Z" transform="translate(-202.299 -289.261)" fill="#1c428c"/>
        <path id="パス_6648" data-name="パス 6648" d="M292.188,511.755a1.07,1.07,0,0,1-.993-1.47,52.278,52.278,0,0,0,1.924-7.181,1.069,1.069,0,0,1,.351-.588,14.579,14.579,0,0,1,6.107-3.053,1.073,1.073,0,0,1,.725.118,15.563,15.563,0,0,0,5.822,1.745c1.629.08,4.879-1.257,5.993-1.779a1.079,1.079,0,0,1,.633-.087,14.966,14.966,0,0,1,6.542,3.057,1.069,1.069,0,0,1,.35.587c1.12,5.181,1.641,6.95,1.646,6.968a1.071,1.071,0,1,1-2.053.609c-.021-.071-.524-1.781-1.607-6.761a13,13,0,0,0-4.929-2.286c-1.121.5-4.545,1.938-6.685,1.831a17.284,17.284,0,0,1-6.376-1.814,12.832,12.832,0,0,0-4.505,2.268,50.737,50.737,0,0,1-1.952,7.166A1.072,1.072,0,0,1,292.188,511.755Z" transform="translate(-206.277 -303.471)" fill="#1c428c"/>
        <path id="パス_6649" data-name="パス 6649" d="M309.842,486.222h-.006a7.761,7.761,0,0,1-7.726-7.745v-3.7a7.762,7.762,0,0,1,15.524,0v3.7A7.817,7.817,0,0,1,309.842,486.222Zm.033-17.016a5.618,5.618,0,0,0-5.623,5.571v3.7a5.617,5.617,0,0,0,5.584,5.6h.006a5.675,5.675,0,0,0,5.651-5.6v-3.7A5.617,5.617,0,0,0,309.875,469.206Z" transform="translate(-209.88 -292.857)" fill="#1c428c"/>
        <path id="パス_6650" data-name="パス 6650" d="M297.342,391.959a1.071,1.071,0,0,1-1.031-1.361l3.28-11.615a28.216,28.216,0,0,1,21.473-46.667h0a28.372,28.372,0,0,1,0,56.743h0a28.172,28.172,0,0,1-11.843-2.7l-11.289,5.552a1.025,1.025,0,0,1-.532.081C297.38,391.988,297.361,391.959,297.342,391.959Zm23.724-57.679A26.2,26.2,0,0,0,301.576,378,1.07,1.07,0,0,1,301.81,379l-2.8,9.917,9.721-4.831a1.086,1.086,0,0,1,.943.112,26.06,26.06,0,0,0,11.389,2.716h0a26.319,26.319,0,0,0,0-52.638Z" transform="translate(-206.803 -248.69)" fill="#03abf2"/>
        <g id="グループ_3555" data-name="グループ 3555" transform="translate(102.175 110.493)">
          <path id="パス_6651" data-name="パス 6651" d="M321.239,374.453a2.167,2.167,0,1,1-2.168-2.169A2.169,2.169,0,0,1,321.239,374.453Z" transform="translate(-316.905 -372.284)" fill="#fff"/>
          <path id="パス_6652" data-name="パス 6652" d="M336.322,374.456a2.168,2.168,0,1,1-2.165-2.168A2.17,2.17,0,0,1,336.322,374.456Z" transform="translate(-321.848 -372.285)" fill="#fff"/>
          <path id="パス_6653" data-name="パス 6653" d="M351.405,374.456a2.169,2.169,0,1,1-2.169-2.167A2.169,2.169,0,0,1,351.405,374.456Z" transform="translate(-326.792 -372.286)" fill="#fff"/>
        </g>
        <g id="グループ_3556" data-name="グループ 3556" transform="translate(122.195 89.895)">
          <path id="パス_6654" data-name="パス 6654" d="M391.641,391.1l-5.932-10.432a28.294,28.294,0,0,0,.935-19.759c-3.415-10.662-11.639-16.864-22.773-18.073a1.055,1.055,0,0,0-.526.082c2.654,1.822,3.992,4.861,5.343,8.545,2.465,6.722,3.3,14.046,1.793,20.615-2.829,12.34-10.457,20.327-22.911,21.511l.168.5c-.27.526-.863.571-.336.84a25.5,25.5,0,0,0,12.236,2.975,28.4,28.4,0,0,0,8.674-1.365,28.067,28.067,0,0,0,10.452-6.039l11.484,2.622a.949.949,0,0,0,1.215-.807v-.006C392.136,391.979,391.87,391.5,391.641,391.1Z" transform="translate(-346.852 -342.031)" fill="#03abf2" opacity="0.31"/>
          <path id="パス_6655" data-name="パス 6655" d="M392.148,391.38l-5.932-10.432a28.33,28.33,0,0,0-23.006-39.3,1.07,1.07,0,0,0-.225,2.129,26.211,26.211,0,0,1,21.09,36.8,1.071,1.071,0,0,0,.047.97l5.356,9.365-10.284-2.336a1.072,1.072,0,0,0-.975.268,26.219,26.219,0,0,1-29.974,4.319,1.07,1.07,0,1,0-.975,1.906,28.369,28.369,0,0,0,32-4.279l11.484,2.622a.949.949,0,0,0,1.215-.807V392.6C392.643,392.262,392.376,391.78,392.148,391.38Z" transform="translate(-346.686 -341.642)" fill="#03abf2"/>
        </g>
        <path id="パス_6656" data-name="パス 6656" d="M444.8,463.984a1.068,1.068,0,0,1-.992-.67,43.4,43.4,0,0,1-1.668-6.107,10.842,10.842,0,0,0-3.7-1.865,14.911,14.911,0,0,1-5.467,1.543c-1.851.091-4.732-1.107-5.747-1.558a11.063,11.063,0,0,0-4.067,1.88c-.919,4.228-1.347,5.682-1.365,5.744a1.07,1.07,0,1,1-2.053-.608c0-.016.454-1.551,1.4-5.955a1.077,1.077,0,0,1,.35-.587,13,13,0,0,1,5.676-2.652,1.084,1.084,0,0,1,.633.087,14.988,14.988,0,0,0,5.059,1.508,13.064,13.064,0,0,0,4.918-1.473,1.063,1.063,0,0,1,.724-.117,12.63,12.63,0,0,1,5.3,2.647,1.082,1.082,0,0,1,.35.587,44.417,44.417,0,0,0,1.642,6.126,1.072,1.072,0,0,1-.6,1.391A1.059,1.059,0,0,1,444.8,463.984Z" transform="translate(-248.423 -288.292)" fill="#1c428c"/>
        <path id="パス_6657" data-name="パス 6657" d="M435.738,442.057h-.006a6.949,6.949,0,0,1-7-6.718v-3.168a6.962,6.962,0,0,1,13.918,0v3.168A6.864,6.864,0,0,1,435.738,442.057Zm-.047-14.5a4.8,4.8,0,0,0-4.822,4.615v3.168a4.807,4.807,0,0,0,4.863,4.577h.006a4.722,4.722,0,0,0,4.767-4.577v-3.168A4.8,4.8,0,0,0,435.691,427.556Z" transform="translate(-251.383 -279.206)" fill="#1c428c"/>
        <g id="グループ_3557" data-name="グループ 3557" transform="translate(75.575 26.672)">
          <path id="パス_6658" data-name="パス 6658" d="M298.011,288.945a20.677,20.677,0,1,1,20.677-20.676A20.7,20.7,0,0,1,298.011,288.945Zm0-39.213a18.536,18.536,0,1,0,18.535,18.537A18.558,18.558,0,0,0,298.011,249.732Z" transform="translate(-277.334 -247.591)" fill="#1c428c"/>
          <path id="パス_6659" data-name="パス 6659" d="M313.866,297.124a1.069,1.069,0,0,1-.993-.67,44.775,44.775,0,0,1-1.724-6.322,11.137,11.137,0,0,0-3.863-1.948,15.384,15.384,0,0,1-5.653,1.6c-1.919.092-4.9-1.151-5.938-1.613a11.487,11.487,0,0,0-4.243,1.964c-.953,4.38-1.4,5.888-1.416,5.952a1.07,1.07,0,0,1-2.052-.609c0-.015.47-1.6,1.454-6.16a1.065,1.065,0,0,1,.35-.587,13.412,13.412,0,0,1,5.853-2.735,1.072,1.072,0,0,1,.633.087c.98.459,3.841,1.637,5.249,1.563a13.629,13.629,0,0,0,5.1-1.529,1.078,1.078,0,0,1,.724-.116,13.051,13.051,0,0,1,5.463,2.73,1.07,1.07,0,0,1,.351.588,46.206,46.206,0,0,0,1.7,6.34,1.071,1.071,0,0,1-.994,1.468Z" transform="translate(-280.81 -260.173)" fill="#1c428c"/>
          <path id="パス_6660" data-name="パス 6660" d="M304.511,274.54h-.005a7.2,7.2,0,0,1-7.173-7V264.26a6.959,6.959,0,0,1,13.918,0v3.276A6.828,6.828,0,0,1,304.511,274.54Zm-.216-15.09a4.821,4.821,0,0,0-4.821,4.81v3.276a5.056,5.056,0,0,0,5.032,4.863h.005a4.686,4.686,0,0,0,4.6-4.863V264.26A4.819,4.819,0,0,0,304.3,259.45Z" transform="translate(-283.889 -250.776)" fill="#1c428c"/>
        </g>
        <g id="グループ_3559" data-name="グループ 3559" transform="translate(130.237 66.461)">
          <path id="パス_6661" data-name="パス 6661" d="M371.5,313.751H359.721a1.071,1.071,0,1,1,0-2.141H371.5a1.071,1.071,0,1,1,0,2.141Z" transform="translate(-358.65 -308.364)" fill="#1c428c"/>
          <g id="グループ_3558" data-name="グループ 3558" transform="translate(9.209)">
            <path id="パス_6662" data-name="パス 6662" d="M373.08,306.781l-.73.784,3.867,3.593-3.867,3.595.73.784,4.708-4.379Z" transform="translate(-372.35 -306.781)" fill="#1c428c"/>
          </g>
        </g>
        <g id="グループ_3561" data-name="グループ 3561" transform="translate(0 146.697)">
          <path id="パス_6663" data-name="パス 6663" d="M183.928,433H167.233a1.071,1.071,0,0,1,0-2.142h16.695a1.071,1.071,0,0,1,0,2.142Z" transform="translate(-165.32 -427.688)" fill="#1c428c"/>
          <g id="グループ_3560" data-name="グループ 3560">
            <path id="パス_6664" data-name="パス 6664" d="M169.618,434.9l.73-.784-3.867-3.593,3.867-3.6-.73-.784-4.709,4.379Z" transform="translate(-164.909 -426.141)" fill="#1c428c"/>
          </g>
        </g>
        <g id="グループ_3563" data-name="グループ 3563" transform="translate(43.97 25.665)">
          <path id="パス_6665" data-name="パス 6665" d="M243.288,252.956H232.643a1.071,1.071,0,1,1,0-2.142h10.645a1.071,1.071,0,0,1,0,2.142Z" transform="translate(-230.73 -247.641)" fill="#1c428c"/>
          <g id="グループ_3562" data-name="グループ 3562">
            <path id="パス_6666" data-name="パス 6666" d="M235.027,254.85l.73-.784-3.867-3.593,3.867-3.6-.73-.784-4.709,4.379Z" transform="translate(-230.319 -246.094)" fill="#1c428c"/>
          </g>
        </g>
        <g id="グループ_3565" data-name="グループ 3565" transform="translate(128.952 219.595)">
          <path id="パス_6667" data-name="パス 6667" d="M454.759,503.959h-18.45a1.071,1.071,0,0,1,0-2.142h18.45a1.071,1.071,0,0,1,0,2.142Z" transform="translate(-435.238 -498.559)" fill="#ff5963"/>
          <g id="グループ_3564" data-name="グループ 3564" transform="translate(15.816)">
            <path id="パス_6668" data-name="パス 6668" d="M459.5,496.97l-.731.784,3.867,3.594-3.867,3.595.731.784,4.708-4.379Z" transform="translate(-458.766 -496.97)" fill="#ff5963"/>
          </g>
        </g>
        <g id="グループ_3567" data-name="グループ 3567" transform="translate(208.928 39.674)">
          <path id="パス_6669" data-name="パス 6669" d="M488.023,273.935H476.782a1.071,1.071,0,0,1,0-2.142h11.242a1.071,1.071,0,0,1,0,2.142Z" transform="translate(-475.711 -268.526)" fill="#1c428c"/>
          <g id="グループ_3566" data-name="グループ 3566" transform="translate(8.829)">
            <path id="パス_6670" data-name="パス 6670" d="M489.575,266.934l-.73.784,3.867,3.594-3.867,3.594.73.784,4.709-4.379Z" transform="translate(-488.845 -266.934)" fill="#1c428c"/>
          </g>
        </g>
        <g id="グループ_3568" data-name="グループ 3568" transform="translate(102.122 1.864)">
          <path id="パス_6671" data-name="パス 6671" d="M326.93,219.42h0l-9.3-.1a.754.754,0,1,1,0-1.506h0l9.3-.083a.845.845,0,0,1,0,1.689Z" transform="translate(-316.826 -212.996)" fill="#1c428c"/>
          <path id="パス_6672" data-name="パス 6672" d="M324.539,221.393h0a.729.729,0,0,1-.8-.712l.011-9.247a.758.758,0,0,1,.8-.747h0a.8.8,0,0,1,.8.8l-.011,9.2A.727.727,0,0,1,324.539,221.393Z" transform="translate(-319.091 -210.687)" fill="#1c428c"/>
        </g>
        <g id="グループ_3569" data-name="グループ 3569" transform="translate(212.107 135.798)">
          <path id="パス_6673" data-name="パス 6673" d="M521.617,434.258h0l-9.3.069a.838.838,0,0,1,0-1.675h0l9.3.087a.761.761,0,1,1,0,1.519Z" transform="translate(-511.513 -428.369)" fill="#1c428c"/>
          <path id="パス_6674" data-name="パス 6674" d="M519.225,436.988h0a.807.807,0,0,1-.8-.81l.012-9.2a.721.721,0,0,1,.8-.7h0a.718.718,0,0,1,.8.7l-.011,9.253A.765.765,0,0,1,519.225,436.988Z" transform="translate(-513.778 -426.281)" fill="#1c428c"/>
        </g>
        <g id="グループ_3570" data-name="グループ 3570" transform="translate(9.145 50.663)">
          <path id="パス_6675" data-name="パス 6675" d="M188.617,291.258h0l-9.3.069a.838.838,0,0,1,0-1.675h0l9.3.087a.761.761,0,1,1,0,1.519Z" transform="translate(-178.513 -285.369)" fill="#1c428c"/>
          <path id="パス_6676" data-name="パス 6676" d="M186.225,293.988h0a.808.808,0,0,1-.8-.81l.012-9.2a.721.721,0,0,1,.8-.7h0a.718.718,0,0,1,.8.7l-.011,9.253A.765.765,0,0,1,186.225,293.988Z" transform="translate(-180.778 -283.281)" fill="#1c428c"/>
        </g>
        <path id="パス_6677" data-name="パス 6677" d="M420.062,324.907a22.417,22.417,0,1,1,22.417-22.417A22.444,22.444,0,0,1,420.062,324.907Zm0-42.694a20.276,20.276,0,1,0,20.275,20.276A20.3,20.3,0,0,0,420.062,282.213Z" transform="translate(-241.194 -231.566)" fill="#1c428c"/>
        <path id="パス_6678" data-name="パス 6678" d="M410.416,333.811a1.07,1.07,0,0,1-.993-1.47,50.274,50.274,0,0,0,1.853-6.916,1.072,1.072,0,0,1,.35-.588,14.09,14.09,0,0,1,5.905-2.95,1.069,1.069,0,0,1,.724.118,14.983,14.983,0,0,0,5.6,1.676c1.564.075,4.689-1.208,5.76-1.711a1.074,1.074,0,0,1,.633-.087,14.48,14.48,0,0,1,6.325,2.955,1.073,1.073,0,0,1,.35.587c1.074,4.966,1.58,6.7,1.585,6.715a1.071,1.071,0,0,1-2.053.608c-.021-.069-.5-1.716-1.546-6.507a12.582,12.582,0,0,0-4.714-2.183c-1.1.49-4.381,1.863-6.451,1.761a16.694,16.694,0,0,1-6.15-1.745,12.331,12.331,0,0,0-4.3,2.167,48.773,48.773,0,0,1-1.881,6.9A1.072,1.072,0,0,1,410.416,333.811Z" transform="translate(-245.03 -245.265)" fill="#1c428c"/>
        <path id="パス_6679" data-name="パス 6679" d="M427.444,309.022h-.007a7.36,7.36,0,0,1-7.47-7.332v-3.567a7.494,7.494,0,0,1,14.989,0v3.567A7.4,7.4,0,0,1,427.444,309.022Zm.02-16.232a5.354,5.354,0,0,0-5.356,5.333v3.567a5.217,5.217,0,0,0,5.329,5.19h.007a5.253,5.253,0,0,0,5.371-5.19v-3.567A5.354,5.354,0,0,0,427.465,292.791Z" transform="translate(-248.512 -235.033)" fill="#1c428c"/>
        <path id="パス_6680" data-name="パス 6680" d="M222.533,481.064h-.182l-22.261-.479c-4.273-.094-7.679-3.382-7.594-7.331a7.2,7.2,0,0,1,5.581-6.715,6.419,6.419,0,0,1,5.894-3.951h.14a6.305,6.305,0,0,1,3.75,1.317,8.541,8.541,0,0,1,7.7-4.821l.81.015a8.585,8.585,0,0,1,8.366,7.951,7.228,7.228,0,0,1,5.513,7.014C230.17,477.99,226.778,481.064,222.533,481.064Zm-18.562-16.337a4.263,4.263,0,0,0-4.058,3.032,1.067,1.067,0,0,1-.831.748,5.146,5.146,0,0,0-4.445,4.793c-.06,2.77,2.407,5.076,5.5,5.145l22.4.481c3.018,0,5.522-2.2,5.58-4.905a5.2,5.2,0,0,0-4.6-5.051,1.07,1.07,0,0,1-.894-1.083l0-.083a6.439,6.439,0,0,0-6.291-6.562l-.764-.015a6.408,6.408,0,0,0-6.24,4.9,1.07,1.07,0,0,1-1.91.371,4.2,4.2,0,0,0-3.349-1.771Z" transform="translate(-173.951 -290.242)" fill="#ff5963"/>
        <g id="グループ_3571" data-name="グループ 3571" transform="translate(146.354 0)">
          <path id="パス_6681" data-name="パス 6681" d="M390.586,248.311a7.955,7.955,0,1,1,4.429-1.351A7.952,7.952,0,0,1,390.586,248.311Zm-.016-13.772a5.817,5.817,0,1,0,4.835,2.575A5.785,5.785,0,0,0,390.57,234.539Z" transform="translate(-382.626 -215.939)" fill="#ff5963"/>
          <path id="パス_6682" data-name="パス 6682" d="M421.98,249.09a6.186,6.186,0,1,1,5.253-2.916A6.171,6.171,0,0,1,421.98,249.09Zm.008-10.23a4.044,4.044,0,1,0,2.133.611A4.022,4.022,0,0,0,421.988,238.86Z" transform="translate(-393.498 -217.355)" fill="#ff5963"/>
          <path id="パス_6683" data-name="パス 6683" d="M398.868,218.4a5.244,5.244,0,1,1,3.216-1.105A5.211,5.211,0,0,1,398.868,218.4Zm-.006-8.347a3.1,3.1,0,1,0,2.45,1.2A3.072,3.072,0,0,0,398.862,210.056Z" transform="translate(-386.229 -207.914)" fill="#ff5963"/>
          <path id="パス_6684" data-name="パス 6684" d="M412.492,246.686h-.032l-8.3-.308a1.1,1.1,0,0,1-1.038-1.133,1.083,1.083,0,0,1,1.1-1.054l8.3.238a1.131,1.131,0,0,1-.031,2.257Z" transform="translate(-389.345 -219.804)" fill="#ff5963"/>
          <path id="パス_6685" data-name="パス 6685" d="M396.475,229.355a1.071,1.071,0,0,1-1.036-1.344l1.878-7.1a1.07,1.07,0,1,1,2.07.547l-1.878,7.1A1.072,1.072,0,0,1,396.475,229.355Z" transform="translate(-386.814 -211.912)" fill="#ff5963"/>
        </g>
      </g>
    </g>
    <rect id="長方形_3325" data-name="長方形 3325" width="380" height="280" transform="translate(710 1036)" fill="none"/>
  </g>
</svg>
