<svg xmlns="http://www.w3.org/2000/svg" width="260" height="210" viewBox="0 0 260 210">
  <g id="グループ_7833" data-name="グループ 7833" transform="translate(-150 -5175)">
    <g id="グループ_7829" data-name="グループ 7829">
      <circle id="楕円形_83" data-name="楕円形 83" cx="100" cy="100" r="100" transform="translate(180 5180)" fill="#f0f7fc"/>
      <g id="グループ_3572" data-name="グループ 3572" transform="translate(10.091 4969.175)">
        <path id="パス_6630" data-name="パス 6630" d="M520.618,368.693H498.063l-7.215,6.037-1.232-6.037h-4.19V351.8h35.192Z" transform="translate(-132.908 -59.665)" fill="#03abf2" opacity="0.1"/>
        <circle id="楕円形_160" data-name="楕円形 160" cx="66.339" cy="66.339" r="66.339" transform="matrix(0.997, -0.077, 0.077, 0.997, 215.195, 252.497)" fill="#f1f7f8" opacity="0.85"/>
        <path id="パス_6631" data-name="パス 6631" d="M296.245,383.249a.932.932,0,0,1-.9-1.185L298.2,371.95a24.569,24.569,0,0,1,18.7-40.635h0a24.7,24.7,0,0,1,0,49.409h0a24.529,24.529,0,0,1-10.312-2.355l-9.83,4.834a.894.894,0,0,1-.464.071C296.277,383.275,296.261,383.249,296.245,383.249Z" transform="translate(-52.792 -51.17)" fill="#03abf2" opacity="0.73"/>
        <g id="グループ_3553" data-name="グループ 3553" transform="translate(351.213 284.558)">
          <path id="パス_6632" data-name="パス 6632" d="M521.741,361.582H502.075a.851.851,0,0,1-.821-.871.816.816,0,0,1,.841-.81h0l19.645-.028a.855.855,0,0,1,0,1.71Z" transform="translate(-490.684 -347.57)" fill="#03abf2"/>
          <path id="パス_6633" data-name="パス 6633" d="M529.718,369.7h-8.4a.851.851,0,0,1-.821-.871.816.816,0,0,1,.842-.81h0l8.384-.028a.855.855,0,0,1,0,1.709Z" transform="translate(-498.662 -350.935)" fill="#03abf2"/>
          <g id="グループ_3552" data-name="グループ 3552" transform="translate(0 6.199)">
            <path id="パス_6634" data-name="パス 6634" d="M489.631,375.882a1.121,1.121,0,0,1-1.12-1.075l-.233-5.639-2.7,0a2.462,2.462,0,0,1-2.378-2.53l.018-14.667a2.465,2.465,0,0,1,2.38-2.525l32.92.037a2.329,2.329,0,0,1,1.727.788,2.6,2.6,0,0,1,.652,1.744l-.018,14.664a2.459,2.459,0,0,1-2.38,2.526l-21.73-.023-6.339,6.371A1.121,1.121,0,0,1,489.631,375.882Zm-4.036-24.2c-.029,0-.139.093-.139.289l-.017,14.662a.3.3,0,0,0,.139.287l3.777,0A1.121,1.121,0,0,1,490.473,368l.172,4.15,4.859-4.96a1.206,1.206,0,0,1,.8-.406h0l22.193.1c.028,0,.139-.057.139-.248l.017-14.647a.327.327,0,0,0-.081-.237.1.1,0,0,0-.058-.035Z" transform="translate(-483.196 -349.444)" fill="#03abf2"/>
          </g>
          <path id="パス_6635" data-name="パス 6635" d="M519.561,341.1h0l-34.737.08a1.161,1.161,0,0,1,0-2.322h0l34.737.142a1.052,1.052,0,1,1,0,2.1Z" transform="translate(-483.406 -338.854)" fill="#03abf2"/>
        </g>
        <path id="パス_6636" data-name="パス 6636" d="M426.879,450.9a17.44,17.44,0,1,1,17.439-17.44A17.46,17.46,0,0,1,426.879,450.9Zm0-33.016a15.576,15.576,0,1,0,15.576,15.576A15.593,15.593,0,0,0,426.879,417.883Z" transform="translate(-101.399 -86.294)" fill="#1c428c"/>
        <path id="パス_6637" data-name="パス 6637" d="M378.416,279.321a.929.929,0,0,1-.424-.1,64.708,64.708,0,0,0-29.806-7.17.932.932,0,0,1,0-1.864,66.552,66.552,0,0,1,30.657,7.375.932.932,0,0,1-.426,1.762Z" transform="translate(-75.612 -25.821)" fill="#1c428c"/>
        <path id="パス_6638" data-name="パス 6638" d="M456.98,386.743a.953.953,0,0,1-.231-.029.933.933,0,0,1-.673-1.134,65.823,65.823,0,0,0-1.424-37.273.932.932,0,0,1,1.765-.6,67.706,67.706,0,0,1,1.465,38.333A.933.933,0,0,1,456.98,386.743Z" transform="translate(-120.126 -57.705)" fill="#1c428c"/>
        <path id="パス_6639" data-name="パス 6639" d="M354.958,489.7a.932.932,0,0,1-.054-1.863,65.121,65.121,0,0,0,34.4-12.268.932.932,0,1,1,1.093,1.51A66.969,66.969,0,0,1,355.015,489.7Z" transform="translate(-78.421 -110.915)" fill="#1c428c"/>
        <path id="パス_6640" data-name="パス 6640" d="M261.4,454.688a.924.924,0,0,1-.623-.24,67.761,67.761,0,0,1-17.215-24.335.932.932,0,0,1,1.723-.712,65.907,65.907,0,0,0,16.739,23.661.932.932,0,0,1-.623,1.626Z" transform="translate(-32.584 -91.604)" fill="#1c428c"/>
        <path id="パス_6641" data-name="パス 6641" d="M246.21,320.074a.933.933,0,0,1-.846-1.323c3.484-7.56,10.259-16.333,15.079-21.284a.933.933,0,1,1,1.336,1.3c-4.863,4.995-11.481,13.731-14.722,20.764A.933.933,0,0,1,246.21,320.074Z" transform="translate(-33.326 -37.018)" fill="#1c428c"/>
        <g id="グループ_3554" data-name="グループ 3554" transform="translate(181.17 286.189)">
          <path id="パス_6642" data-name="パス 6642" d="M217.1,390.465a24.412,24.412,0,1,1,24.412-24.411A24.439,24.439,0,0,1,217.1,390.465Zm0-46.96a22.548,22.548,0,1,0,22.547,22.548A22.573,22.573,0,0,0,217.1,343.505Z" transform="translate(-192.69 -341.641)" fill="#03abf2"/>
          <path id="パス_6643" data-name="パス 6643" d="M208.4,407.081a.933.933,0,0,1-.865-1.28h0a55.157,55.157,0,0,0,2.05-7.646.934.934,0,0,1,.3-.512,15.22,15.22,0,0,1,6.381-3.192.929.929,0,0,1,.63.1,16.714,16.714,0,0,0,6.265,1.874c1.767.1,5.256-1.344,6.45-1.9a.936.936,0,0,1,.551-.075,15.663,15.663,0,0,1,6.84,3.2.932.932,0,0,1,.3.511c1.184,5.476,1.742,7.384,1.747,7.4a.932.932,0,1,1-1.787.53c-.023-.077-.558-1.9-1.714-7.224a14.054,14.054,0,0,0-5.432-2.523c-1.11.5-4.776,2.063-7.055,1.948a18.131,18.131,0,0,1-6.749-1.935,13.78,13.78,0,0,0-4.981,2.509,53.759,53.759,0,0,1-2.075,7.635A.933.933,0,0,1,208.4,407.081Z" transform="translate(-198.82 -363.532)" fill="#03abf2"/>
          <path id="パス_6644" data-name="パス 6644" d="M228.864,374.818h-.007a7.934,7.934,0,0,1-7.973-7.916v-3.924a7.924,7.924,0,1,1,15.849,0V366.9A7.844,7.844,0,0,1,228.864,374.818Zm-.053-17.948a6.071,6.071,0,0,0-6.062,6.107V366.9a6.067,6.067,0,0,0,6.109,6.052h.007a5.978,5.978,0,0,0,6-6.052v-3.924A6.07,6.07,0,0,0,228.811,356.871Z" transform="translate(-204.381 -347.183)" fill="#03abf2"/>
        </g>
        <path id="パス_6645" data-name="パス 6645" d="M424.672,376.665a.93.93,0,0,1-.707-.324l-3.934-4.57a.932.932,0,0,1,.1-1.315l4.571-3.935a.932.932,0,0,1,1.315.1l3.934,4.571a.931.931,0,0,1-.1,1.315l-4.571,3.934A.928.928,0,0,1,424.672,376.665Zm-2.62-5.4,2.718,3.157,3.158-2.718-2.718-3.157Z" transform="translate(-105.697 -65.676)" fill="#1c428c"/>
        <path id="パス_6646" data-name="パス 6646" d="M280.915,438.569a.931.931,0,0,1-.66-.273l-5.219-5.229a.931.931,0,0,1,0-1.318l5.229-5.219a.931.931,0,0,1,1.318,0l5.219,5.229a.933.933,0,0,1,0,1.318l-5.23,5.219A.93.93,0,0,1,280.915,438.569Zm-3.9-6.159,3.9,3.909,3.909-3.9-3.9-3.91Z" transform="translate(-45.553 -90.539)" fill="#1c428c"/>
        <path id="パス_6647" data-name="パス 6647" d="M299.193,496.517a20.213,20.213,0,1,1,20.213-20.212A20.235,20.235,0,0,1,299.193,496.517Zm0-38.562a18.349,18.349,0,1,0,18.348,18.35A18.37,18.37,0,0,0,299.193,457.956Z" transform="translate(-47.301 -102.911)" fill="#1c428c"/>
        <path id="パス_6648" data-name="パス 6648" d="M292.049,510.164a.931.931,0,0,1-.865-1.28,45.517,45.517,0,0,0,1.675-6.253.932.932,0,0,1,.306-.512,12.7,12.7,0,0,1,5.318-2.658.934.934,0,0,1,.631.1,13.552,13.552,0,0,0,5.07,1.519c1.419.07,4.248-1.095,5.219-1.549a.938.938,0,0,1,.551-.076,13.031,13.031,0,0,1,5.7,2.661.931.931,0,0,1,.3.511c.975,4.511,1.429,6.052,1.434,6.067a.932.932,0,0,1-1.788.53c-.019-.061-.457-1.551-1.4-5.887a11.312,11.312,0,0,0-4.292-1.99c-.976.438-3.957,1.688-5.821,1.594a15.049,15.049,0,0,1-5.552-1.579,11.172,11.172,0,0,0-3.923,1.975,44.176,44.176,0,0,1-1.7,6.24A.933.933,0,0,1,292.049,510.164Z" transform="translate(-52.334 -120.888)" fill="#1c428c"/>
        <path id="パス_6649" data-name="パス 6649" d="M308.842,483.745h-.005A6.758,6.758,0,0,1,302.11,477v-3.222a6.759,6.759,0,0,1,13.518,0V477A6.807,6.807,0,0,1,308.842,483.745Zm.029-14.817a4.892,4.892,0,0,0-4.9,4.851V477a4.891,4.891,0,0,0,4.862,4.879h.005A4.942,4.942,0,0,0,313.763,477v-3.222A4.891,4.891,0,0,0,308.871,468.929Z" transform="translate(-56.892 -107.461)" fill="#1c428c"/>
        <path id="パス_6650" data-name="パス 6650" d="M296.745,384.249a.932.932,0,0,1-.9-1.185L298.7,372.95a24.569,24.569,0,0,1,18.7-40.635h0a24.7,24.7,0,0,1,0,49.409h0a24.53,24.53,0,0,1-10.312-2.355l-9.829,4.834a.892.892,0,0,1-.464.071C296.777,384.275,296.761,384.249,296.745,384.249ZM317.4,334.025a22.816,22.816,0,0,0-16.971,38.067.932.932,0,0,1,.2.876L298.2,381.6l8.465-4.206a.945.945,0,0,1,.821.1,22.692,22.692,0,0,0,9.917,2.365h0a22.917,22.917,0,0,0,0-45.834Z" transform="translate(-52.999 -51.585)" fill="#03abf2"/>
        <g id="グループ_3555" data-name="グループ 3555" transform="translate(253.877 304.125)">
          <path id="パス_6651" data-name="パス 6651" d="M320.679,374.172a1.887,1.887,0,1,1-1.888-1.888A1.889,1.889,0,0,1,320.679,374.172Z" transform="translate(-316.905 -372.284)" fill="#fff"/>
          <path id="パス_6652" data-name="パス 6652" d="M335.761,374.176a1.888,1.888,0,1,1-1.885-1.888A1.889,1.889,0,0,1,335.761,374.176Z" transform="translate(-323.158 -372.285)" fill="#fff"/>
          <path id="パス_6653" data-name="パス 6653" d="M350.845,374.176a1.888,1.888,0,1,1-1.888-1.887A1.889,1.889,0,0,1,350.845,374.176Z" transform="translate(-329.413 -372.286)" fill="#fff"/>
        </g>
        <g id="グループ_3556" data-name="グループ 3556" transform="translate(271.31 286.19)">
          <path id="パス_6654" data-name="パス 6654" d="M385.9,384.858l-5.165-9.083a24.637,24.637,0,0,0,.814-17.205c-2.973-9.284-10.134-14.684-19.829-15.737a.919.919,0,0,0-.458.071c2.311,1.587,3.476,4.233,4.652,7.44a32.151,32.151,0,0,1,1.561,17.95c-2.464,10.745-9.105,17.7-19.95,18.731l.146.439c-.235.458-.751.5-.293.732a22.209,22.209,0,0,0,10.655,2.591,24.733,24.733,0,0,0,7.553-1.188,24.44,24.44,0,0,0,9.1-5.258l10,2.283a.827.827,0,0,0,1.058-.7v-.005C386.327,385.626,386.095,385.205,385.9,384.858Z" transform="translate(-346.896 -342.134)" fill="#03abf2" opacity="0.31"/>
          <path id="パス_6655" data-name="パス 6655" d="M386.272,384.951l-5.165-9.083a24.669,24.669,0,0,0-20.032-34.221.932.932,0,0,0-.2,1.854,22.823,22.823,0,0,1,18.364,32.041.933.933,0,0,0,.041.845l4.663,8.154-8.955-2.034a.934.934,0,0,0-.849.233,22.829,22.829,0,0,1-26.1,3.761.932.932,0,1,0-.849,1.659,24.7,24.7,0,0,0,27.866-3.726l10,2.283a.826.826,0,0,0,1.058-.7v-.005C386.7,385.719,386.471,385.3,386.272,384.951Z" transform="translate(-346.686 -341.642)" fill="#03abf2"/>
        </g>
        <path id="パス_6656" data-name="パス 6656" d="M441.556,462.582a.93.93,0,0,1-.864-.583,37.767,37.767,0,0,1-1.452-5.317,9.44,9.44,0,0,0-3.223-1.624,12.985,12.985,0,0,1-4.76,1.344,13.872,13.872,0,0,1-5-1.357,9.633,9.633,0,0,0-3.541,1.637c-.8,3.681-1.173,4.948-1.189,5a.932.932,0,1,1-1.788-.529c0-.014.4-1.35,1.223-5.185a.938.938,0,0,1,.305-.511,11.318,11.318,0,0,1,4.943-2.309.944.944,0,0,1,.551.076,13.051,13.051,0,0,0,4.4,1.314,11.376,11.376,0,0,0,4.282-1.282.925.925,0,0,1,.63-.1,11,11,0,0,1,4.614,2.3.942.942,0,0,1,.3.511,38.689,38.689,0,0,0,1.429,5.334.933.933,0,0,1-.519,1.211A.921.921,0,0,1,441.556,462.582Z" transform="translate(-105.652 -101.685)" fill="#1c428c"/>
        <path id="パス_6657" data-name="パス 6657" d="M434.832,439.906h-.005a6.051,6.051,0,0,1-6.1-5.85V431.3a6.062,6.062,0,0,1,12.119,0v2.759A5.977,5.977,0,0,1,434.832,439.906Zm-.041-12.627a4.177,4.177,0,0,0-4.2,4.018v2.759a4.186,4.186,0,0,0,4.234,3.986h.005a4.111,4.111,0,0,0,4.151-3.986V431.3A4.175,4.175,0,0,0,434.791,427.279Z" transform="translate(-109.397 -90.19)" fill="#1c428c"/>
        <g id="グループ_3557" data-name="グループ 3557" transform="translate(230.715 231.138)">
          <path id="パス_6658" data-name="パス 6658" d="M295.338,283.6a18,18,0,1,1,18-18A18.024,18.024,0,0,1,295.338,283.6Zm0-34.145A16.14,16.14,0,1,0,311.478,265.6,16.159,16.159,0,0,0,295.338,249.455Z" transform="translate(-277.334 -247.591)" fill="#1c428c"/>
          <path id="パス_6659" data-name="パス 6659" d="M310.515,295.683a.931.931,0,0,1-.864-.584,38.993,38.993,0,0,1-1.5-5.505,9.7,9.7,0,0,0-3.364-1.7,13.393,13.393,0,0,1-4.922,1.392c-1.671.08-4.267-1-5.171-1.4A10,10,0,0,0,291,289.6c-.829,3.813-1.216,5.127-1.233,5.183a.932.932,0,0,1-1.787-.53c0-.013.409-1.4,1.266-5.364a.927.927,0,0,1,.3-.511,11.679,11.679,0,0,1,5.1-2.382.934.934,0,0,1,.551.076,13.842,13.842,0,0,0,4.571,1.361,11.867,11.867,0,0,0,4.443-1.331.938.938,0,0,1,.63-.1,11.366,11.366,0,0,1,4.757,2.377.931.931,0,0,1,.306.512,40.214,40.214,0,0,0,1.477,5.521.933.933,0,0,1-.866,1.278Z" transform="translate(-281.732 -263.509)" fill="#1c428c"/>
          <path id="パス_6660" data-name="パス 6660" d="M303.583,272.313h0a6.267,6.267,0,0,1-6.245-6.1v-2.852a6.059,6.059,0,0,1,12.119,0v2.852A5.945,5.945,0,0,1,303.583,272.313Zm-.188-13.14a4.2,4.2,0,0,0-4.2,4.188v2.852a4.4,4.4,0,0,0,4.381,4.235h0a4.08,4.08,0,0,0,4-4.235v-2.852A4.2,4.2,0,0,0,303.4,259.173Z" transform="translate(-285.627 -251.621)" fill="#1c428c"/>
        </g>
        <g id="グループ_3559" data-name="グループ 3559" transform="translate(278.312 265.784)">
          <path id="パス_6661" data-name="パス 6661" d="M369.837,313.474H359.582a.932.932,0,1,1,0-1.864h10.254a.932.932,0,1,1,0,1.864Z" transform="translate(-358.65 -308.783)" fill="#1c428c"/>
          <g id="グループ_3558" data-name="グループ 3558" transform="translate(8.019)">
            <path id="パス_6662" data-name="パス 6662" d="M372.985,306.781l-.636.683,3.367,3.129-3.367,3.13.636.683,4.1-3.813Z" transform="translate(-372.35 -306.781)" fill="#1c428c"/>
          </g>
        </g>
        <g id="グループ_3561" data-name="グループ 3561" transform="translate(164.909 335.649)">
          <path id="パス_6663" data-name="パス 6663" d="M181.632,432.726H167.095a.932.932,0,0,1,0-1.865h14.537a.932.932,0,0,1,0,1.865Z" transform="translate(-165.429 -428.098)" fill="#1c428c"/>
          <g id="グループ_3560" data-name="グループ 3560">
            <path id="パス_6664" data-name="パス 6664" d="M169.009,433.765l.636-.682-3.367-3.129,3.367-3.131-.636-.683-4.1,3.813Z" transform="translate(-164.909 -426.141)" fill="#1c428c"/>
          </g>
        </g>
        <g id="グループ_3563" data-name="グループ 3563" transform="translate(203.196 230.262)">
          <path id="パス_6665" data-name="パス 6665" d="M241.773,252.679H232.5a.932.932,0,0,1,0-1.865h9.269a.932.932,0,0,1,0,1.865Z" transform="translate(-230.839 -248.051)" fill="#1c428c"/>
          <g id="グループ_3562" data-name="グループ 3562">
            <path id="パス_6666" data-name="パス 6666" d="M234.419,253.718l.636-.683-3.367-3.128,3.367-3.131-.636-.683-4.1,3.813Z" transform="translate(-230.319 -246.094)" fill="#1c428c"/>
          </g>
        </g>
        <g id="グループ_3565" data-name="グループ 3565" transform="translate(323.142 377.108)">
          <path id="パス_6667" data-name="パス 6667" d="M452.236,503.682H436.17a.932.932,0,0,1,0-1.865h16.065a.932.932,0,1,1,0,1.865Z" transform="translate(-435.238 -498.98)" fill="#ff5963"/>
          <g id="グループ_3564" data-name="グループ 3564" transform="translate(13.772)">
            <path id="パス_6668" data-name="パス 6668" d="M459.4,496.97l-.636.682,3.367,3.129-3.367,3.13.636.682,4.1-3.813Z" transform="translate(-458.766 -496.97)" fill="#ff5963"/>
          </g>
        </g>
        <g id="グループ_3567" data-name="グループ 3567" transform="translate(346.832 242.46)">
          <path id="パス_6669" data-name="パス 6669" d="M486.432,273.658h-9.789a.932.932,0,0,1,0-1.865h9.789a.932.932,0,0,1,0,1.865Z" transform="translate(-475.711 -268.949)" fill="#1c428c"/>
          <g id="グループ_3566" data-name="グループ 3566" transform="translate(7.688)">
            <path id="パス_6670" data-name="パス 6670" d="M489.48,266.934l-.636.683,3.367,3.129-3.367,3.13.636.683,4.1-3.813Z" transform="translate(-488.845 -266.934)" fill="#1c428c"/>
          </g>
        </g>
        <g id="グループ_3568" data-name="グループ 3568" transform="translate(253.831 209.537)">
          <path id="パス_6671" data-name="パス 6671" d="M325.624,219.2h0l-8.1-.087a.657.657,0,1,1,0-1.311h0l8.1-.072a.736.736,0,0,1,0,1.47Z" transform="translate(-316.826 -213.608)" fill="#1c428c"/>
          <path id="パス_6672" data-name="パス 6672" d="M324.435,220.01h0a.635.635,0,0,1-.7-.62l.01-8.052a.66.66,0,0,1,.7-.651h0a.693.693,0,0,1,.7.693l-.009,8.015A.633.633,0,0,1,324.435,220.01Z" transform="translate(-319.691 -210.687)" fill="#1c428c"/>
        </g>
        <g id="グループ_3569" data-name="グループ 3569" transform="translate(367.788 335.732)">
          <path id="パス_6673" data-name="パス 6673" d="M520.311,434.05h0l-8.1.06a.73.73,0,0,1,0-1.459h0l8.1.075a.662.662,0,1,1,0,1.323Z" transform="translate(-511.513 -428.923)" fill="#1c428c"/>
          <path id="パス_6674" data-name="パス 6674" d="M519.121,435.6h0a.7.7,0,0,1-.7-.705l.01-8.009a.628.628,0,0,1,.7-.609h0a.625.625,0,0,1,.7.609l-.009,8.057A.666.666,0,0,1,519.121,435.6Z" transform="translate(-514.378 -426.281)" fill="#1c428c"/>
        </g>
        <g id="グループ_3570" data-name="グループ 3570" transform="translate(172.872 252.029)">
          <path id="パス_6675" data-name="パス 6675" d="M187.311,291.05h0l-8.1.06a.73.73,0,0,1,0-1.459h0l8.1.076a.662.662,0,1,1,0,1.323Z" transform="translate(-178.513 -285.923)" fill="#1c428c"/>
          <path id="パス_6676" data-name="パス 6676" d="M186.121,292.6h0a.7.7,0,0,1-.7-.705l.011-8.009a.628.628,0,0,1,.7-.609h0a.626.626,0,0,1,.7.609l-.009,8.057A.666.666,0,0,1,186.121,292.6Z" transform="translate(-181.378 -283.281)" fill="#1c428c"/>
        </g>
        <path id="パス_6677" data-name="パス 6677" d="M417.165,319.111a19.52,19.52,0,1,1,19.519-19.52A19.543,19.543,0,0,1,417.165,319.111Zm0-37.175a17.655,17.655,0,1,0,17.654,17.655A17.676,17.676,0,0,0,417.165,281.936Z" transform="translate(-96.507 -29.922)" fill="#1c428c"/>
        <path id="パス_6678" data-name="パス 6678" d="M410.277,332.267a.932.932,0,0,1-.865-1.28,43.786,43.786,0,0,0,1.614-6.022.934.934,0,0,1,.3-.512,12.27,12.27,0,0,1,5.142-2.569.932.932,0,0,1,.63.1,13.042,13.042,0,0,0,4.874,1.459c1.362.066,4.083-1.052,5.016-1.49a.936.936,0,0,1,.551-.076,12.609,12.609,0,0,1,5.507,2.573.934.934,0,0,1,.3.511c.935,4.324,1.376,5.832,1.38,5.847a.932.932,0,0,1-1.788.53c-.018-.06-.439-1.494-1.346-5.666a10.957,10.957,0,0,0-4.1-1.9c-.954.427-3.815,1.622-5.617,1.533a14.539,14.539,0,0,1-5.355-1.52,10.737,10.737,0,0,0-3.748,1.887,42.481,42.481,0,0,1-1.638,6.01A.933.933,0,0,1,410.277,332.267Z" transform="translate(-101.359 -47.252)" fill="#1c428c"/>
        <path id="パス_6679" data-name="パス 6679" d="M426.478,306.648h-.006a6.408,6.408,0,0,1-6.5-6.384v-3.106a6.526,6.526,0,0,1,13.051,0v3.106A6.44,6.44,0,0,1,426.478,306.648Zm.018-14.133a4.662,4.662,0,0,0-4.663,4.643v3.106a4.542,4.542,0,0,0,4.64,4.519h.006a4.574,4.574,0,0,0,4.677-4.519v-3.106A4.662,4.662,0,0,0,426.5,292.514Z" transform="translate(-105.764 -34.308)" fill="#1c428c"/>
        <path id="パス_6680" data-name="パス 6680" d="M218.65,478.223h-.158l-19.384-.417a6.518,6.518,0,0,1-6.613-6.384,6.269,6.269,0,0,1,4.859-5.847,5.59,5.59,0,0,1,5.132-3.44h.122a5.49,5.49,0,0,1,3.266,1.147,7.437,7.437,0,0,1,6.708-4.2l.705.013a7.476,7.476,0,0,1,7.285,6.923,6.293,6.293,0,0,1,4.8,6.107A6.455,6.455,0,0,1,218.65,478.223ZM202.488,464a3.712,3.712,0,0,0-3.534,2.64.929.929,0,0,1-.723.651,4.481,4.481,0,0,0-3.87,4.173,4.657,4.657,0,0,0,4.789,4.48l19.5.419a4.665,4.665,0,0,0,4.859-4.271,4.527,4.527,0,0,0-4.006-4.4.931.931,0,0,1-.778-.943l0-.072a5.607,5.607,0,0,0-5.478-5.714l-.665-.013a5.58,5.58,0,0,0-5.433,4.269.932.932,0,0,1-1.663.323A3.658,3.658,0,0,0,202.571,464Z" transform="translate(-11.439 -104.152)" fill="#ff5963"/>
        <g id="グループ_3571" data-name="グループ 3571" transform="translate(292.346 207.914)">
          <path id="パス_6681" data-name="パス 6681" d="M389.557,246.254a6.927,6.927,0,1,1,3.856-1.177A6.924,6.924,0,0,1,389.557,246.254Zm-.013-11.992a5.065,5.065,0,1,0,4.21,2.242A5.037,5.037,0,0,0,389.543,234.262Z" transform="translate(-382.626 -218.066)" fill="#ff5963"/>
          <path id="パス_6682" data-name="パス 6682" d="M421.18,247.491a5.386,5.386,0,1,1,4.574-2.539A5.374,5.374,0,0,1,421.18,247.491Zm.007-8.908a3.521,3.521,0,1,0,1.857.532A3.5,3.5,0,0,0,421.187,238.583Z" transform="translate(-396.38 -219.858)" fill="#ff5963"/>
          <path id="パス_6683" data-name="パス 6683" d="M398.189,217.047a4.566,4.566,0,1,1,2.8-.962A4.538,4.538,0,0,1,398.189,217.047Zm-.005-7.268a2.7,2.7,0,1,0,2.134,1.042A2.675,2.675,0,0,0,398.184,209.779Z" transform="translate(-387.184 -207.914)" fill="#ff5963"/>
          <path id="パス_6684" data-name="パス 6684" d="M411.281,246.363h-.028l-7.225-.268a.957.957,0,0,1-.9-.987.943.943,0,0,1,.959-.918l7.224.207a.985.985,0,0,1-.027,1.966Z" transform="translate(-391.126 -222.956)" fill="#ff5963"/>
          <path id="パス_6685" data-name="パス 6685" d="M396.337,228.16a.933.933,0,0,1-.9-1.171l1.635-6.184a.932.932,0,1,1,1.8.476l-1.635,6.184A.933.933,0,0,1,396.337,228.16Z" transform="translate(-387.924 -212.972)" fill="#ff5963"/>
        </g>
      </g>
    </g>
    <g id="グループ_7830" data-name="グループ 7830">
      <rect id="長方形_3338" data-name="長方形 3338" width="260" height="210" transform="translate(150 5175)" fill="none"/>
    </g>
  </g>
</svg>
