<svg xmlns="http://www.w3.org/2000/svg" width="260" height="210" viewBox="0 0 260 210">
  <g id="グループ_7832" data-name="グループ 7832" transform="translate(-870 -5175)">
    <circle id="楕円形_79" data-name="楕円形 79" cx="100" cy="100" r="100" transform="translate(900 5180)" fill="#f0f7fc"/>
    <g id="グループ_3592" data-name="グループ 3592" transform="translate(96.595 4975.035)">
      <path id="パス_6686" data-name="パス 6686" d="M979.738,504.9H963.1a.724.724,0,0,1-.565-.466l-1.736-3.967a.668.668,0,0,1,.047-.612.641.641,0,0,1,.517-.306h20.109a.619.619,0,0,1,.565.869L980.3,504.43A.723.723,0,0,1,979.738,504.9ZM963.5,503.662h15.834l1.188-2.882h-18.21Z" transform="translate(-65.73 -138.01)" fill="#1c428c"/>
      <path id="パス_6687" data-name="パス 6687" d="M1082.33,319.012s-11.718,11.546-13.1,13.441c-.848,1.166-3.718,1.81-5.8,2.134.707,1.191-.087,2.667-1.032,3.558a29.1,29.1,0,0,1-3.8,3.575,1.8,1.8,0,0,1-2.182-.282,3.7,3.7,0,0,1-.879-4.033c-1.887,1.547-4.068,2.413-5.326.266a4.206,4.206,0,0,1,.254-3.97,2.516,2.516,0,0,1-.871.434c-1.072.245-2.706-.007-2.948-1.377-.326-1.847,1.283-4.584,3.164-5.9-.02-.031-.038-.063-.057-.094-1.4,1.2-3.067,2.367-4.323.792-2.021-2.534.95-5.471,3.165-6.691a1.856,1.856,0,0,1,.757-.234,8.111,8.111,0,0,1-.8-1.27c-.862-2.068,4.653-7.238,4.653-7.238l11.029-11.891-9.133-9.478s-9.306,9.478-11.374,11.029-3.1,1.206-7.755,11.891a17.114,17.114,0,0,0-1.219,8.191c1.523-1.989,3.551-3.57,4.372-6.042.446-1.339,2.593-1.954,3.292-.43a6.639,6.639,0,0,1,.465,1.423,1.561,1.561,0,0,1,.686,1.9,17.01,17.01,0,0,1-1.41,3.156c-.147.35-.306.7-.475,1.046a10.74,10.74,0,0,1-.312,1.032,1.974,1.974,0,0,1-.8,1.005,1.674,1.674,0,0,1,.223,1.451c-.1.367-.189.735-.277,1.1-.411,2.131.036,3.783.508,6.055a17.015,17.015,0,0,1,.131,5.434c1.115,1.981,5.03,7.732,13.95,10,10.856,2.757,21.885-4.825,21.885-4.825l15.768-14.82Z" transform="translate(-101.447 -37.158)" fill="#03abf2" opacity="0.52"/>
      <g id="グループ_3574" data-name="グループ 3574" transform="translate(977.516 309.418)">
        <path id="パス_6688" data-name="パス 6688" d="M1121.149,410.839a.823.823,0,0,1-.552-1.435l11.079-10a.823.823,0,0,1,1.1,1.222l-11.08,10A.815.815,0,0,1,1121.149,410.839Z" transform="translate(-1120.325 -398.955)" fill="#1c428c"/>
        <g id="グループ_3573" data-name="グループ 3573" transform="translate(8.083)">
          <path id="パス_6689" data-name="パス 6689" d="M1135.973,398.734l-.013.824,4.059.059-.355,4.045.821.071.431-4.926Z" transform="translate(-1135.96 -398.734)" fill="#1c428c"/>
        </g>
      </g>
      <path id="パス_6690" data-name="パス 6690" d="M866.7,335.236a1.59,1.59,0,1,0,1.59-1.59A1.59,1.59,0,0,0,866.7,335.236Z" transform="translate(-20.304 -57.878)" fill="#ff5963"/>
      <g id="グループ_3576" data-name="グループ 3576" transform="translate(867.033 274.608)">
        <path id="パス_6691" data-name="パス 6691" d="M941.281,337.943H908.757a.824.824,0,0,1,0-1.647h32.524a.824.824,0,0,1,0,1.647Z" transform="translate(-907.253 -333.766)" fill="#03abf2"/>
        <g id="グループ_3575" data-name="グループ 3575" transform="translate(0 0)">
          <path id="パス_6692" data-name="パス 6692" d="M910.237,338.136l.562-.6-2.974-2.764L910.8,332l-.562-.6-3.621,3.367Z" transform="translate(-906.616 -331.402)" fill="#03abf2"/>
        </g>
      </g>
      <g id="グループ_3578" data-name="グループ 3578" transform="translate(829.924 347.119)">
        <path id="パス_6693" data-name="パス 6693" d="M848.614,478.1H837.087a.824.824,0,1,1,0-1.647h11.527a.824.824,0,1,1,0,1.647Z" transform="translate(-835.525 -473.974)" fill="#03abf2"/>
        <g id="グループ_3577" data-name="グループ 3577" transform="translate(0 0)">
          <path id="パス_6694" data-name="パス 6694" d="M838.456,478.395l.562-.6-2.974-2.764,2.974-2.764-.562-.6-3.621,3.367Z" transform="translate(-834.835 -471.66)" fill="#03abf2"/>
        </g>
      </g>
      <g id="グループ_3580" data-name="グループ 3580" transform="translate(968.162 268.124)">
        <path id="パス_6695" data-name="パス 6695" d="M1103.055,332.263a.823.823,0,0,1-.546-1.439l12.563-11.147a.823.823,0,0,1,1.093,1.231L1103.6,332.056A.822.822,0,0,1,1103.055,332.263Z" transform="translate(-1102.231 -319.154)" fill="#1c428c"/>
        <g id="グループ_3579" data-name="グループ 3579" transform="translate(9.522 0)">
          <path id="パス_6696" data-name="パス 6696" d="M1120.67,318.859l-.02.824,4.059.093-.39,4.042.821.078.474-4.922Z" transform="translate(-1120.649 -318.859)" fill="#1c428c"/>
        </g>
      </g>
      <g id="グループ_3582" data-name="グループ 3582" transform="translate(824.667 310.858)">
        <path id="パス_6697" data-name="パス 6697" d="M863.786,408.021H826.735a.823.823,0,1,1,0-1.647h37.052a.823.823,0,1,1,0,1.647Z" transform="translate(-825.268 -403.864)" fill="#03abf2"/>
        <g id="グループ_3581" data-name="グループ 3581">
          <path id="パス_6698" data-name="パス 6698" d="M828.288,408.254l.561-.6-2.974-2.764,2.974-2.764-.561-.6-3.621,3.367Z" transform="translate(-824.667 -401.519)" fill="#03abf2"/>
        </g>
      </g>
      <g id="グループ_3583" data-name="グループ 3583" transform="translate(837.017 322.836)">
        <path id="パス_6699" data-name="パス 6699" d="M855.9,432.424h0l-6.727.076a.587.587,0,1,1,0-1.172l6.727.02a.543.543,0,1,1,0,1.076Z" transform="translate(-848.555 -427.896)" fill="#ff5963"/>
        <path id="パス_6700" data-name="パス 6700" d="M855.672,432.922h0a.7.7,0,0,1-.617-.707l.008-6.818a.7.7,0,0,1,.618-.709h0a.66.66,0,0,1,.617.665l-.008,6.839A.723.723,0,0,1,855.672,432.922Z" transform="translate(-851.694 -424.689)" fill="#ff5963"/>
      </g>
      <g id="グループ_3584" data-name="グループ 3584" transform="translate(884.341 230.206)">
        <path id="パス_6701" data-name="パス 6701" d="M947.439,253.12h0l-6.727.088a.663.663,0,0,1,0-1.323h0l6.727.1a.569.569,0,1,1,0,1.133Z" transform="translate(-940.095 -248.592)" fill="#ff5963"/>
        <path id="パス_6702" data-name="パス 6702" d="M947.209,253.748h0a.687.687,0,0,1-.617-.694l.008-6.825a.709.709,0,0,1,.618-.714h0a.671.671,0,0,1,.617.678l-.008,6.833A.718.718,0,0,1,947.209,253.748Z" transform="translate(-943.233 -245.515)" fill="#ff5963"/>
      </g>
      <g id="グループ_3585" data-name="グループ 3585" transform="translate(986.374 332.304)">
        <path id="パス_6703" data-name="パス 6703" d="M1144.8,450.61h0l-6.728.03a.633.633,0,0,1,0-1.265h0l6.727.042a.6.6,0,1,1,0,1.193Z" transform="translate(-1137.459 -446.081)" fill="#03abf2"/>
        <path id="パス_6704" data-name="パス 6704" d="M1144.574,450.826h0a.56.56,0,0,1-.616-.547l.008-6.692a.59.59,0,0,1,.617-.583h0a.618.618,0,0,1,.616.62l-.008,6.656A.561.561,0,0,1,1144.574,450.826Z" transform="translate(-1140.598 -443.004)" fill="#03abf2"/>
      </g>
      <path id="パス_6705" data-name="パス 6705" d="M994.5,257.1a4.536,4.536,0,1,1,3.211-1.33A4.513,4.513,0,0,1,994.5,257.1Zm0-7.841a3.275,3.275,0,0,0-2.333.967,3.3,3.3,0,1,0,2.333-.967Z" transform="translate(-79.844 -16.521)" fill="#1c428c"/>
      <path id="パス_6706" data-name="パス 6706" d="M983.838,509.013H868.919a.782.782,0,0,1-.752-.443l-3.6-8.1a.616.616,0,0,1,.063-.668.738.738,0,0,1,.69-.26H987.435a.745.745,0,0,1,.691.272.725.725,0,0,1,.062.731l-3.6,8.049A.762.762,0,0,1,983.838,509.013Zm-114.383-1.647H983.3l2.868-6.175H866.587Z" transform="translate(-19.239 -138.01)" fill="#1c428c"/>
      <path id="パス_6707" data-name="パス 6707" d="M1090.321,460.169a.825.825,0,0,1-.824-.824V415.862a.823.823,0,1,1,1.647,0v43.482A.824.824,0,0,1,1090.321,460.169Z" transform="translate(-127.918 -97.192)" fill="#1c428c"/>
      <path id="パス_6708" data-name="パス 6708" d="M876.9,460.036a.824.824,0,0,1-.823-.824V415.885a.824.824,0,1,1,1.647,0v43.327A.824.824,0,0,1,876.9,460.036Z" transform="translate(-24.834 -97.203)" fill="#1c428c"/>
      <path id="パス_6709" data-name="パス 6709" d="M876.9,377.376a.823.823,0,0,1-.823-.824v-1.87c0-3.752,3.839-7.329,7.847-7.329h62.355a.824.824,0,0,1,0,1.647H883.927c-3.1,0-6.2,2.829-6.2,5.682v1.87A.824.824,0,0,1,876.9,377.376Z" transform="translate(-24.834 -74.159)" fill="#1c428c"/>
      <path id="パス_6710" data-name="パス 6710" d="M1067.343,369.77h0a27.426,27.426,0,0,1-19.53-8.075.823.823,0,1,1,1.164-1.162,26,26,0,0,0,36.733,0l18.485-18.488-8.615-8.614-18.487,18.486a13.8,13.8,0,0,1-5.594,3.4.823.823,0,1,1-.494-1.571,12.15,12.15,0,0,0,4.924-2.989L1095,331.686a.823.823,0,0,1,1.164,0l9.779,9.779a.823.823,0,0,1,0,1.164L1086.874,361.7A27.433,27.433,0,0,1,1067.343,369.77Z" transform="translate(-107.667 -56.814)" fill="#03abf2"/>
      <path id="パス_6711" data-name="パス 6711" d="M1048.705,314.053a.826.826,0,0,1-.807-.992,13.728,13.728,0,0,1,3.741-6.915l18.487-18.487-8.614-8.614-18.487,18.487a25.668,25.668,0,0,0-6.175,9.868.823.823,0,0,1-1.557-.536,27.3,27.3,0,0,1,6.568-10.5l19.069-19.069a.823.823,0,0,1,1.164,0l9.779,9.778a.823.823,0,0,1,0,1.164l-19.069,19.07a12.085,12.085,0,0,0-3.293,6.087A.824.824,0,0,1,1048.705,314.053Z" transform="translate(-101.714 -30.544)" fill="#03abf2"/>
      <path id="パス_6712" data-name="パス 6712" d="M1136.927,355.335a.821.821,0,0,1-.582-.241l-9.447-9.447a.823.823,0,1,1,1.164-1.164l9.447,9.447a.824.824,0,0,1-.582,1.406Z" transform="translate(-145.867 -62.995)" fill="#03abf2"/>
      <path id="パス_6713" data-name="パス 6713" d="M1082.063,300.47a.818.818,0,0,1-.582-.241l-8.1-8.1a.823.823,0,0,1,1.165-1.164l8.1,8.1a.824.824,0,0,1-.582,1.406Z" transform="translate(-120.019 -37.147)" fill="#03abf2"/>
      <path id="パス_6714" data-name="パス 6714" d="M995.163,477.371a.823.823,0,0,1-.562-1.425l5.227-4.884a.824.824,0,0,1,1.125,1.2l-5.228,4.884A.82.82,0,0,1,995.163,477.371Z" transform="translate(-81.955 -124.146)" fill="#1c428c"/>
      <g id="グループ_3586" data-name="グループ 3586" transform="translate(933.378 347.979)">
        <path id="パス_6715" data-name="パス 6715" d="M1035.566,478.472a.642.642,0,0,1-.618-.644.6.6,0,0,1,.617-.6l3.973.01h0a.593.593,0,0,1,.617.588.627.627,0,0,1-.617.63l-3.973.019Z" transform="translate(-1034.948 -475.208)" fill="#1c428c"/>
        <path id="パス_6716" data-name="パス 6716" d="M1039.41,478.646a.676.676,0,0,1-.617-.681l0-4.007a.621.621,0,0,1,.617-.634.611.611,0,0,1,.618.609l0,4.035a.672.672,0,0,1-.617.678Z" transform="translate(-1036.803 -473.324)" fill="#1c428c"/>
      </g>
      <path id="パス_6717" data-name="パス 6717" d="M1020.965,432.756a2.044,2.044,0,1,1,2.044-2.045A2.045,2.045,0,0,1,1020.965,432.756Zm0-3.086a1.041,1.041,0,1,0,1.04,1.041A1.042,1.042,0,0,0,1020.965,429.67Z" transform="translate(-93.829 -103.775)" fill="#1c428c"/>
      <path id="パス_6718" data-name="パス 6718" d="M1045.369,448.564l-3.82-3.822,3.82-3.821,3.823,3.821Zm-2.4-3.822,2.4,2.4,2.4-2.4-2.4-2.4Z" transform="translate(-104.758 -109.694)" fill="#ff5963"/>
      <path id="パス_6719" data-name="パス 6719" d="M1018.825,367.287a.824.824,0,0,1-.577-1.411l5.1-5-1.077-14.278a.823.823,0,0,1,.21-.614l4.89-5.414,4.865-5.909a.824.824,0,0,1,1.091-.162c1.828,1.213,4.544,3.907,3.133,6.315-.071.121-.364.762-.623,1.327-.535,1.167-1.258,2.745-1.815,3.772a15.835,15.835,0,0,1-1.275,4.638c.645,1.868,3.4,10.745-.861,14.852a.823.823,0,0,1-1.143-1.185c3.9-3.764.379-13.327.343-13.423a.823.823,0,0,1,.04-.669,14.12,14.12,0,0,0,1.275-4.544.824.824,0,0,1,.1-.319c.535-.962,1.288-2.607,1.838-3.807.4-.87.595-1.3.7-1.474.676-1.153-.925-2.789-2.028-3.671l-4.394,5.336-4.678,5.181,1.079,14.308a.822.822,0,0,1-.244.65l-5.37,5.267A.822.822,0,0,1,1018.825,367.287Z" transform="translate(-93.385 -58.223)" fill="#1c428c"/>
      <path id="パス_6720" data-name="パス 6720" d="M1041.594,415.234a.824.824,0,0,1-.6-1.385l5.153-5.525a.824.824,0,0,1,1-.161c.1.049,2.62,1.284,5.7-2.324a.824.824,0,0,1,1.252,1.071c-3.069,3.589-5.906,3.3-7.125,2.942l-4.776,5.122A.822.822,0,0,1,1041.594,415.234Z" transform="translate(-104.382 -92.609)" fill="#1c428c"/>
      <path id="パス_6721" data-name="パス 6721" d="M1066.475,372.575a3.825,3.825,0,0,1-3.764-3.463,3.307,3.307,0,0,1,.85-2.546l6.182-6.732a3.313,3.313,0,0,1,2.473-1.067,3.829,3.829,0,0,1,3.764,3.463,3.313,3.313,0,0,1-.853,2.547l-6.181,6.732A3.311,3.311,0,0,1,1066.475,372.575Zm5.741-12.16a1.683,1.683,0,0,0-1.259.533l-6.182,6.732a1.681,1.681,0,0,0-.423,1.3,2.18,2.18,0,0,0,2.123,1.953,1.682,1.682,0,0,0,1.259-.532l6.182-6.732a1.682,1.682,0,0,0,.424-1.3,2.181,2.181,0,0,0-2.123-1.953Z" transform="translate(-114.974 -70.012)" fill="#1c428c"/>
      <path id="パス_6722" data-name="パス 6722" d="M1059.19,364.264a3.812,3.812,0,0,1-3.754-3.466,3.34,3.34,0,0,1,.861-2.553l6.226-6.781a3.338,3.338,0,0,1,2.492-1.076,3.75,3.75,0,0,1,2.536,1,3.562,3.562,0,0,1,.356,5.016l-6.226,6.781A3.334,3.334,0,0,1,1059.19,364.264Zm5.825-12.229a1.71,1.71,0,0,0-1.279.543l-6.226,6.781a1.71,1.71,0,0,0-.432,1.309,2.164,2.164,0,0,0,2.112,1.95,1.709,1.709,0,0,0,1.278-.542l6.226-6.781a1.919,1.919,0,0,0-.257-2.689A2.108,2.108,0,0,0,1065.014,352.035Z" transform="translate(-111.46 -65.964)" fill="#1c428c"/>
      <path id="パス_6723" data-name="パス 6723" d="M1075.993,380.933a3.827,3.827,0,0,1-2.584-1.036.818.818,0,0,1-.142-.171l-.057-.092a3.536,3.536,0,0,1-1.1-2.266,3.154,3.154,0,0,1,.849-2.38l1.06-1.054,2.693-3.243a3.15,3.15,0,0,1,2.371-1.031,3.827,3.827,0,0,1,2.584,1.035,3.5,3.5,0,0,1,.471,4.891l-2.679,3.229a.705.705,0,0,1-.052.057l-1.09,1.086A3.113,3.113,0,0,1,1075.993,380.933Zm-1.393-2.18a2.2,2.2,0,0,0,1.393.533,1.508,1.508,0,0,0,1.131-.467l1.087-1.085,2.666-3.214.027-.031a1.862,1.862,0,0,0-.357-2.581,2.217,2.217,0,0,0-1.47-.6,1.506,1.506,0,0,0-1.131.467l-2.691,3.242a.6.6,0,0,1-.054.058l-1.062,1.055a1.488,1.488,0,0,0-.394,1.121,1.9,1.9,0,0,0,.662,1.252.832.832,0,0,1,.142.17Z" transform="translate(-119.513 -75.274)" fill="#1c428c"/>
      <path id="パス_6724" data-name="パス 6724" d="M1055.639,353.2a3.753,3.753,0,0,1-2.59-1.054,3.551,3.551,0,0,1-.286-5l2.114-2.033,2.893-3.346a3.316,3.316,0,0,1,2.447-1.048,3.832,3.832,0,0,1,3.768,3.528,3.3,3.3,0,0,1-.893,2.528l-2.86,3.314a.756.756,0,0,1-.053.055l-2.144,2.064A3.278,3.278,0,0,1,1055.639,353.2Zm4.577-10.835a1.671,1.671,0,0,0-1.227.507l-2.891,3.346c-.017.02-.034.038-.053.055l-2.115,2.033a1.905,1.905,0,0,0,.255,2.647,2.113,2.113,0,0,0,1.455.6,1.668,1.668,0,0,0,1.227-.507l2.143-2.063,2.862-3.315a1.7,1.7,0,0,0,.47-1.312,2.185,2.185,0,0,0-2.125-1.991Z" transform="translate(-109.741 -61.292)" fill="#1c428c"/>
      <path id="パス_6725" data-name="パス 6725" d="M950.028,460.6a6.638,6.638,0,0,1-4.165-1.713c-3.838-3.1-22.269-20.258-23.052-20.985a.824.824,0,1,1,1.123-1.206c.191.178,19.171,17.847,22.964,20.909,3.36,2.715,5.279.515,5.359.42.02-.023.041-.046.063-.067l29.07-27.653a.824.824,0,1,1,1.135,1.194l-29.056,27.639A4.895,4.895,0,0,1,950.028,460.6Z" transform="translate(-47.279 -104.459)" fill="#1c428c"/>
      <path id="パス_6726" data-name="パス 6726" d="M973.674,417.655a.823.823,0,0,1-.561-1.425l17.17-16.025a.825.825,0,0,1,1.137.012l11.445,11.16a.823.823,0,0,1-1.149,1.18l-10.884-10.611-16.6,15.489A.823.823,0,0,1,973.674,417.655Z" transform="translate(-71.576 -89.92)" fill="#1c428c"/>
      <path id="パス_6727" data-name="パス 6727" d="M1024.879,406.8a.822.822,0,0,1-.575-.234l-10.867-10.6-3.324,3.293a.823.823,0,1,1-1.158-1.17l3.9-3.862a.822.822,0,0,1,1.154,0l11.447,11.161a.824.824,0,0,1-.575,1.413Z" transform="translate(-88.897 -87.024)" fill="#1c428c"/>
      <path id="パス_6728" data-name="パス 6728" d="M911.415,460.37H888.1c-.455,0-.873-.214-.873-.668V426.936a.823.823,0,0,1,1.647,0v31.787h22.54a.824.824,0,1,1,0,1.647Z" transform="translate(-30.219 -102.541)" fill="#1c428c"/>
      <g id="グループ_3587" data-name="グループ 3587" transform="translate(970.268 220.484)">
        <path id="パス_6729" data-name="パス 6729" d="M1180.093,297.739a6.388,6.388,0,0,1-2.263-.376.823.823,0,1,1,.623-1.524c.142.055,3.634,1.367,7.15-2.567a.823.823,0,1,1,1.228,1.1A8.933,8.933,0,0,1,1180.093,297.739Z" transform="translate(-1140.606 -258.727)" fill="#1c428c"/>
        <path id="パス_6730" data-name="パス 6730" d="M1193.063,250.247a.823.823,0,0,1-.607-1.38l1.147-1.251a1.95,1.95,0,0,0,.531-1.525,2.667,2.667,0,0,0-2.581-2.4h-.051a1.97,1.97,0,0,0-1.4.592l-1.811,1.9a.823.823,0,0,1-1.194-1.134l1.812-1.906a3.6,3.6,0,0,1,2.553-1.1,4.31,4.31,0,0,1,4.312,3.923,3.563,3.563,0,0,1-.973,2.774l-1.134,1.237A.819.819,0,0,1,1193.063,250.247Z" transform="translate(-1145.222 -234.115)" fill="#1c428c"/>
        <path id="パス_6731" data-name="パス 6731" d="M1172.067,241.3a.823.823,0,0,1-.595-1.393l5.33-5.567a3.84,3.84,0,0,1,5.413.109,4.39,4.39,0,0,1,1.306,2.792,3.662,3.662,0,0,1-.932,2.843.823.823,0,0,1-1.188-1.14,2.023,2.023,0,0,0,.478-1.572,2.721,2.721,0,0,0-.8-1.734,2.2,2.2,0,0,0-3.084-.159l-5.33,5.567A.819.819,0,0,1,1172.067,241.3Z" transform="translate(-1137.672 -229.88)" fill="#1c428c"/>
        <path id="パス_6732" data-name="パス 6732" d="M1201.349,261.192a.824.824,0,0,1-.6-1.391l2.053-2.156a2.155,2.155,0,0,0-.254-2.975,1.913,1.913,0,0,0-2.781-.108.824.824,0,0,1-1.188-1.14,3.541,3.541,0,0,1,5.108.059,3.772,3.772,0,0,1,.307,5.3l-2.053,2.157A.824.824,0,0,1,1201.349,261.192Z" transform="translate(-1150.766 -239.1)" fill="#1c428c"/>
        <path id="パス_6733" data-name="パス 6733" d="M1191.911,281.642a.823.823,0,0,1-.6-1.391l10.6-11.138a2.013,2.013,0,0,0-.338-2.855,1.968,1.968,0,0,0-2.838-.023.823.823,0,0,1-1.187-1.141,3.8,3.8,0,0,1,5.556,5.154l-10.6,11.138A.821.821,0,0,1,1191.911,281.642Z" transform="translate(-1147.257 -244.72)" fill="#1c428c"/>
        <path id="パス_6734" data-name="パス 6734" d="M1157.838,269.655a.818.818,0,0,1-.567-.227L1144.43,257.2a.823.823,0,0,1-.029-1.164l3.586-3.768a12.586,12.586,0,0,1,1.473-7.012c1.57-2.6.061-7.9-4.144-14.518l-.064-.1a.823.823,0,0,1-.1-.635,4.44,4.44,0,0,1,3.356-3.2c1.176-.25,3.516-.194,5.959,2.977,1.811,2.349,2.286,3.061,2.888,3.962.455.682.97,1.455,2.223,3.165a.823.823,0,1,1-1.328.973c-1.274-1.739-1.8-2.528-2.265-3.224-.584-.875-1.046-1.566-2.822-3.871-1.4-1.821-2.937-2.664-4.314-2.371a2.868,2.868,0,0,0-2,1.674c2.674,4.258,6.583,11.776,4.021,16.024a11.322,11.322,0,0,0-1.214,6.356.823.823,0,0,1-.22.671l-3.276,3.443,11.649,11.09,3.6-3.777a.823.823,0,0,1,1.192,1.136l-4.164,4.372A.821.821,0,0,1,1157.838,269.655Z" transform="translate(-1124.597 -226.708)" fill="#1c428c"/>
        <path id="パス_6735" data-name="パス 6735" d="M1156.661,307.9a1.483,1.483,0,1,1-2.1.052A1.483,1.483,0,0,1,1156.661,307.9Z" transform="translate(-1129.419 -265.727)" fill="#1c428c"/>
        <path id="パス_6736" data-name="パス 6736" d="M1137.2,301.061a.823.823,0,0,1-.6-1.391l3.33-3.5-14.718-14.013-17.51,17.523a.824.824,0,0,1-1.165-1.164l18.078-18.091a.824.824,0,0,1,1.151-.014l15.9,15.135a.825.825,0,0,1,.028,1.165l-3.9,4.093A.818.818,0,0,1,1137.2,301.061Z" transform="translate(-1106.305 -252.539)" fill="#1c428c"/>
      </g>
      <g id="グループ_3588" data-name="グループ 3588" transform="translate(999.131 271.28)">
        <path id="パス_6737" data-name="パス 6737" d="M1196.151,371.661c-4.253,0-5.408-3.012-5.456-3.141a.823.823,0,1,1,1.545-.568c.031.077.846,2.063,3.913,2.063h.089a.823.823,0,0,1,.009,1.647Z" transform="translate(-1176.906 -345.467)" fill="#03abf2"/>
        <path id="パス_6738" data-name="パス 6738" d="M1221.186,355.806h-.066l-1.06,0a.888.888,0,0,1,0-1.772h0l1.08.064a.94.94,0,0,0,.727-.28,1.367,1.367,0,0,0,0-1.832.952.952,0,0,0-.669-.306l-1.673-.033a.822.822,0,1,1,.034-1.645l1.673.034a2.591,2.591,0,0,1,1.824.819,3.043,3.043,0,0,1,.009,4.122A2.567,2.567,0,0,1,1221.186,355.806Z" transform="translate(-1190.467 -337.057)" fill="#03abf2"/>
        <path id="パス_6739" data-name="パス 6739" d="M1217.056,347.8H1217a.9.9,0,0,1,.019-1.8h.036a.907.907,0,0,0,.7-.279,1.338,1.338,0,0,0,.39-.887,1.085,1.085,0,0,0-.958-1.193l-6.349-.1a.82.82,0,1,1,.029-1.639l6.354.116a2.744,2.744,0,0,1,2.569,2.9,3.1,3.1,0,0,1-.832,2.011A2.645,2.645,0,0,1,1217.056,347.8Z" transform="translate(-1186.271 -333.142)" fill="#03abf2"/>
        <path id="パス_6740" data-name="パス 6740" d="M1219.329,363.656h-.051l-1.894-.039a.823.823,0,1,1,.033-1.647l1.9.039a1.077,1.077,0,0,0,.984-1.1.919.919,0,0,0-.852-1.047.823.823,0,0,1,.04-1.646,2.545,2.545,0,0,1,2.457,2.732A2.7,2.7,0,0,1,1219.329,363.656Z" transform="translate(-1189.431 -341.023)" fill="#03abf2"/>
        <path id="パス_6741" data-name="パス 6741" d="M1208.815,371.046h-.051l-9.788-.2a.823.823,0,0,1-.806-.84.812.812,0,0,1,.84-.806l9.788.2a1.012,1.012,0,0,0,.891-1.093.949.949,0,0,0-.916-1.037.756.756,0,1,1,.02-1.508h.022a2.518,2.518,0,0,1,2.52,2.655A2.563,2.563,0,0,1,1208.815,371.046Z" transform="translate(-1180.541 -344.669)" fill="#03abf2"/>
        <path id="パス_6742" data-name="パス 6742" d="M1188.455,337h-.029l-2.1,0a.792.792,0,0,1-.795-.814.819.819,0,0,1,.852-.775l1.693.068a11.3,11.3,0,0,1,4-3.09c2.26-.869,2.957-4.484,3.254-6.029.06-.31.107-.555.156-.733a.825.825,0,0,1,.678-.6,3.774,3.774,0,0,1,3.314.808,3.64,3.64,0,0,1,.965,2.81c0,.344,0,2.972,0,5a.823.823,0,1,1-1.647,0c0-2.173,0-5.037,0-5.037a.812.812,0,0,1,0-.088,2.072,2.072,0,0,0-.474-1.5,1.867,1.867,0,0,0-1.367-.4l-.012.063c-.349,1.814-1.166,6.06-4.28,7.257a10.551,10.551,0,0,0-3.558,2.822A.763.763,0,0,1,1188.455,337Z" transform="translate(-1174.436 -324.963)" fill="#03abf2"/>
        <path id="パス_6743" data-name="パス 6743" d="M1188.3,369.712h-.028l-2.394-.086a.826.826,0,0,1,.054-1.651l2.394.079a.829.829,0,0,1-.027,1.658Z" transform="translate(-1174.22 -345.739)" fill="#03abf2"/>
        <path id="パス_6744" data-name="パス 6744" d="M1178.018,362.317a.944.944,0,1,1-.924-.963A.944.944,0,0,1,1178.018,362.317Z" transform="translate(-1169.895 -342.541)" fill="#03abf2"/>
        <path id="パス_6745" data-name="パス 6745" d="M1171.016,358.307a.822.822,0,0,1-.008-1.645l2.947-.026.254-12.33-9.316,0a.823.823,0,1,1,0-1.646h0l10.157,0a.823.823,0,0,1,.823.84l-.286,13.97a.823.823,0,0,1-.816.8l-3.748.033Z" transform="translate(-1164.069 -333.51)" fill="#03abf2"/>
      </g>
      <g id="グループ_3589" data-name="グループ 3589" transform="translate(924.774 213.822)">
        <path id="パス_6746" data-name="パス 6746" d="M1048.9,220.008a.9.9,0,0,1-.823-.894l-.024-1.841a3.311,3.311,0,0,1,.943-2.319,3,3,0,0,1,2.109-.936,3.03,3.03,0,0,1,2.232.958,3.2,3.2,0,0,1,.894,2.122l.079,1.175a.823.823,0,0,1-1.643.109l-.081-1.2c0-.016,0-.032,0-.048a1.558,1.558,0,0,0-.439-1.029,1.407,1.407,0,0,0-1.024-.453,1.342,1.342,0,0,0-.948.43,1.633,1.633,0,0,0-.475,1.126l.024,1.883a.894.894,0,0,1-.813.916Z" transform="translate(-1032.672 -213.916)" fill="#03abf2"/>
        <path id="パス_6747" data-name="パス 6747" d="M1039.61,223.619a.9.9,0,0,1-.823-.9l-.061-5.589a3.088,3.088,0,0,1,5.375-2.285,3.294,3.294,0,0,1,1.093,2.235.777.777,0,0,1-.817.778h-.007a.784.784,0,0,1-.824-.769,1.828,1.828,0,0,0-.6-1.134,1.76,1.76,0,0,0-1.13-.567h-.009a1.718,1.718,0,0,0-1.436,1.65l.061,5.647a.916.916,0,0,1-.814.936Z" transform="translate(-1028.169 -213.822)" fill="#03abf2"/>
        <path id="パス_6748" data-name="パス 6748" d="M1062.7,222.05a.852.852,0,0,1-.823-.844l-.034-2.377a1.548,1.548,0,0,0-1.519-1.308h-.01c-.925,0-1.744.712-1.738,1.349a.725.725,0,0,1-.815.71h-.008a.792.792,0,0,1-.823-.78,3.384,3.384,0,0,1,3.366-3.113,3.26,3.26,0,0,1,3.194,3.01l.033,2.481a.852.852,0,0,1-.812.872Z" transform="translate(-1036.964 -214.723)" fill="#03abf2"/>
        <path id="パス_6749" data-name="パス 6749" d="M1069.035,238.139a.824.824,0,0,1-.271-1.6c.1-.037,2.632-1.011,2.471-4.6l-.365-9.712a1.428,1.428,0,0,0-1.375-1.341h-.012a1.39,1.39,0,0,0-1.349,1.327.741.741,0,0,1-.816.731h-.008a.744.744,0,0,1-.824-.715,3.018,3.018,0,0,1,2.979-2.99h.029a3.056,3.056,0,0,1,3.022,2.947l.364,9.722c.175,3.874-2.26,5.748-3.572,6.207A.8.8,0,0,1,1069.035,238.139Z" transform="translate(-1041.577 -216.436)" fill="#03abf2"/>
        <path id="パス_6750" data-name="パス 6750" d="M1032.257,246.936a.86.86,0,0,1-.823-.854l-.049-3.663a9.289,9.289,0,0,1-2.765-4.41c-.475-2.013-3.938-3.966-9.266-5.217l-.082-.022a.823.823,0,0,1-.519-.383,3.428,3.428,0,0,1,.119-3.584c.51-.766,1.81-1.988,4.788-1.57,2.115.3,2.72.426,3.487.588.575.121,1.228.259,2.734.509a.823.823,0,1,1-.268,1.624c-1.542-.255-2.214-.4-2.806-.522-.736-.155-1.318-.278-3.376-.568-1.546-.218-2.678.085-3.188.85a1.824,1.824,0,0,0-.2,1.543c4.275,1.037,9.382,2.97,10.181,6.364a7.907,7.907,0,0,0,2.494,3.752.827.827,0,0,1,.311.634l.055,4.053a.857.857,0,0,1-.813.876Z" transform="translate(-1018.305 -220.259)" fill="#03abf2"/>
        <path id="パス_6751" data-name="パス 6751" d="M1070.842,259.241a.76.76,0,0,1-.823-.734l-.058-4.269a.759.759,0,0,1,.812-.76h.012a.794.794,0,0,1,.823.778l.058,4.248a.743.743,0,0,1-.813.738Z" transform="translate(-1043.256 -232.977)" fill="#03abf2"/>
        <path id="パス_6752" data-name="パス 6752" d="M1063.066,269.224a1.068,1.068,0,1,1-1.054,1.081A1.069,1.069,0,0,1,1063.066,269.224Z" transform="translate(-1039.417 -240.582)" fill="#03abf2"/>
        <path id="パス_6753" data-name="パス 6753" d="M1041.563,282.283h0a.867.867,0,0,1-.821-.875l.042-18.513a.833.833,0,0,1,.819-.834l15.956-.087a1.024,1.024,0,0,1,.661.237.9.9,0,0,1,.318.581v5.245a.823.823,0,1,1-1.646,0v-4.418l-14.387.072-.078,17.721A.9.9,0,0,1,1041.563,282.283Z" transform="translate(-1029.141 -237.08)" fill="#03abf2"/>
      </g>
      <g id="グループ_3591" data-name="グループ 3591" transform="translate(993.817 309.798)">
        <path id="パス_6754" data-name="パス 6754" d="M1173.718,415.684a1.955,1.955,0,1,1,2.235,1.62A1.954,1.954,0,0,1,1173.718,415.684Z" transform="translate(-1162.403 -406.208)" fill="#ff5963"/>
        <g id="グループ_3590" data-name="グループ 3590">
          <path id="パス_6755" data-name="パス 6755" d="M1171.934,417.592a5.924,5.924,0,0,1-.2-11.844c.071,0,.143,0,.214,0a5.924,5.924,0,0,1,.2,11.844C1172.077,417.59,1172.005,417.592,1171.934,417.592Zm.011-10.613c-.056,0-.112,0-.17,0a4.684,4.684,0,1,0,.17,0Z" transform="translate(-1158.695 -402.5)" fill="#ff5963"/>
          <path id="パス_6756" data-name="パス 6756" d="M1164.958,417.859h0c-8.337,0-12.813-7.98-13-8.316a.9.9,0,0,1-.028-.778c.168-.366,4.212-8.983,12.847-9.288,8.616-.309,13.276,7.987,13.466,8.334a.812.812,0,0,1,.024.74c-.168.361-4.227,8.929-12.848,9.231C1165.265,417.789,1165.111,417.859,1164.958,417.859Zm-11.343-8.821c.937,1.5,4.829,7.034,11.342,7.034a3.152,3.152,0,0,0,.4-.006c6.748-.237,10.375-6.236,11.223-7.836-.956-1.55-5-7.364-11.75-7.123S1154.458,407.426,1153.615,409.039Z" transform="translate(-1151.855 -399.47)" fill="#ff5963"/>
        </g>
      </g>
      <path id="パス_6757" data-name="パス 6757" d="M861.394,486.061h-5.907a.824.824,0,1,1,0-1.647h5.907a.824.824,0,0,1,0,1.647Z" transform="translate(-14.489 -130.702)" fill="#1c428c"/>
      <path id="パス_6758" data-name="パス 6758" d="M877.09,396.872h-9.044a.823.823,0,0,1,0-1.647h9.044a.823.823,0,0,1,0,1.647Z" transform="translate(-20.555 -87.622)" fill="#03abf2"/>
      <path id="パス_6759" data-name="パス 6759" d="M840.216,353.392l-4.457-4.456,4.457-4.456,4.456,4.456Zm-2.711-4.456,2.711,2.709,2.71-2.709-2.71-2.71Z" transform="translate(-5.358 -63.11)" fill="#1c428c"/>
      <path id="パス_6760" data-name="パス 6760" d="M1106.715,237.514l-4.525-4.525,4.525-4.524,4.524,4.524Zm-2.778-4.525,2.778,2.778,2.778-2.778-2.778-2.778Z" transform="translate(-134.049 -7.073)" fill="#1c428c"/>
      <path id="パス_6761" data-name="パス 6761" d="M890.26,301.878l-5.3-5.3,5.3-5.3,5.3,5.3Zm-3.255-5.3,3.255,3.254,3.255-3.254-3.255-3.255Z" transform="translate(-29.123 -37.412)" fill="#ff5963"/>
      <path id="パス_6762" data-name="パス 6762" d="M1116.74,479.69h-4.9a.823.823,0,0,1,0-1.647h4.9a.823.823,0,1,1,0,1.647Z" transform="translate(-138.313 -127.624)" fill="#ff5963"/>
      <path id="パス_6763" data-name="パス 6763" d="M971.579,326h-7.333a.824.824,0,1,1,0-1.647h7.333a.824.824,0,0,1,0,1.647Z" transform="translate(-67.021 -53.388)" fill="#1c428c"/>
      <path id="パス_6764" data-name="パス 6764" d="M999.007,308.881a.82.82,0,0,1-.582-.241l-7.15-7.151a5.01,5.01,0,0,1,0-7.088l.368-.37a5.013,5.013,0,0,1,7.09,0l.274.275.1-.1a5.013,5.013,0,0,1,7.089,0l.37.371a5.013,5.013,0,0,1,0,7.089l-6.977,6.976A.82.82,0,0,1,999.007,308.881Zm-3.819-14.672a3.345,3.345,0,0,0-2.38.985l-.369.37a3.364,3.364,0,0,0,0,4.76l6.568,6.569,6.4-6.394a3.364,3.364,0,0,0,0-4.76l-.37-.371a3.367,3.367,0,0,0-4.76,0l-.682.682a.823.823,0,0,1-.582.241h0a.822.822,0,0,1-.582-.241l-.857-.857A3.344,3.344,0,0,0,995.188,294.209Z" transform="translate(-79.766 -38.033)" fill="#ff5963"/>
      <path id="パス_6765" data-name="パス 6765" d="M870.34,263.08a.818.818,0,0,1-.582-.241l-4.562-4.561a3.494,3.494,0,0,1,0-4.944l.235-.236a10.448,10.448,0,0,0,7.234-.913,3.476,3.476,0,0,1,2.472,1.024l.236.236a3.5,3.5,0,0,1,0,4.944l-4.45,4.45A.822.822,0,0,1,870.34,263.08Zm-2.437-9.359a1.838,1.838,0,0,0-1.308.542l-.235.235a1.848,1.848,0,0,0,0,2.615l3.98,3.979,3.868-3.868a1.85,1.85,0,0,0,0-2.615l-.236-.236a1.852,1.852,0,0,0-2.616,0l-.434.435a.824.824,0,0,1-1.164,0l-.547-.546A1.834,1.834,0,0,0,867.9,253.721Z" transform="translate(-19.081 -18.477)" fill="#1c428c"/>
    </g>
    <rect id="長方形_3337" data-name="長方形 3337" width="260" height="210" transform="translate(870 5175)" fill="none"/>
  </g>
</svg>
