<svg xmlns="http://www.w3.org/2000/svg" width="380" height="380" viewBox="0 0 380 380">
  <g id="グループ_7821" data-name="グループ 7821" transform="translate(-140 -3391)">
    <g id="グループ_3543" data-name="グループ 3543" transform="translate(140 3391)">
      <path id="パス_6592" data-name="パス 6592" d="M431.27,238.925A190.066,190.066,0,0,0,252.021,112.042v190Z" transform="translate(-62.02 -112.042)" fill="#0a46c8"/>
      <path id="パス_6593" data-name="パス 6593" d="M284.209,112.042c-104.935,0-190,85.066-190,190,0,90.976,63.946,167,149.339,185.624l40.661-185.624Z" transform="translate(-94.208 -112.042)" fill="#cae2f2"/>
      <path id="パス_6594" data-name="パス 6594" d="M431.27,217.43,252.021,280.546,391.26,409.8A190.169,190.169,0,0,0,431.27,217.43Z" transform="translate(-62.02 -90.547)" fill="#0a70c8"/>
      <path id="パス_6595" data-name="パス 6595" d="M218.248,455.478a190.182,190.182,0,0,0,179.9-56.366L258.909,269.854Z" transform="translate(-68.909 -79.855)" fill="#0098db"/>
    </g>
    <path id="パス_6603" data-name="パス 6603" d="M113,0A113,113,0,1,1,0,113,113,113,0,0,1,113,0Z" transform="translate(217 3468)" fill="#fff"/>
    <path id="パス_10011" data-name="パス 10011" d="M-57.134.484c-.044-.66-.088-1.826-.088-2.6v-11.4c0-.638.044-1.518.066-2.024-.374.022-1.3.044-1.936.044H-70.158c-.77,0-1.914-.044-2.728-.132v3.058c.616-.044,1.8-.088,2.728-.088h9.878v9.108H-70.422c-.99,0-1.98-.066-2.75-.132V-.528c.726-.066,1.98-.132,2.838-.132H-60.3c0,.418,0,.792-.022,1.144Zm9.064-17.71-1.034,2.6a75.474,75.474,0,0,1,11.9,2.75l1.122-2.75A80.341,80.341,0,0,0-48.07-17.226Zm-1.012,5.918-1.012,2.662a76.488,76.488,0,0,1,11.44,2.772l1.078-2.75A90.693,90.693,0,0,0-49.082-11.308ZM-50.2-5.016l-1.1,2.772A78.488,78.488,0,0,1-37.862,1.034l1.21-2.75A88.551,88.551,0,0,0-50.2-5.016ZM-16.94-2.4c.33-2.09.9-5.874,1.078-7.172a6.132,6.132,0,0,1,.22-.924l-2.112-1.034a5.22,5.22,0,0,1-1.65.242h-5.632c-.594,0-1.606-.066-2.178-.132v2.9c.638-.044,1.5-.11,2.2-.11h5.94c-.066,1.232-.55,4.356-.858,6.226H-27.06a21.135,21.135,0,0,1-2.178-.11V.352C-28.4.308-27.852.286-27.06.286h11.594c.572,0,1.65.044,2.09.066V-2.486c-.572.066-1.584.088-2.156.088ZM-8.448-.814C-7.634-.88-6.556-.946-5.7-.946H6.93a23.9,23.9,0,0,1,2.42.132V-4.18a22.335,22.335,0,0,1-2.42.154H-5.7c-.858,0-1.892-.088-2.75-.154ZM-6.6-11.748c.748-.044,1.76-.088,2.6-.088H5.082c.77,0,1.8.066,2.442.088v-3.19c-.616.066-1.562.132-2.442.132H-4.026c-.748,0-1.782-.044-2.574-.132Zm33.88-2.376c.77,0,1.606.044,2.376.088v-2.838a17.236,17.236,0,0,1-2.376.154H18.436a16.392,16.392,0,0,1-2.332-.154v2.838c.66-.044,1.584-.088,2.354-.088ZM15.642-11.11c-.682,0-1.452-.066-2.112-.132V-8.36c.616-.044,1.474-.088,2.112-.088h6.05a9.454,9.454,0,0,1-1.364,4.862A9.139,9.139,0,0,1,16.346-.44L18.92,1.43a10.556,10.556,0,0,0,4.422-4.224A13.957,13.957,0,0,0,24.75-8.448h5.3c.616,0,1.452.022,2,.066v-2.86a16.928,16.928,0,0,1-2,.132Zm32.406-2.684a21.9,21.9,0,0,1-5.654,4.576,29.381,29.381,0,0,1-7.766,2.97L36.1-3.7a41.212,41.212,0,0,0,6.2-2.4V-.44a23,23,0,0,1-.11,2.376h3.256A12.249,12.249,0,0,1,45.3-.44V-7.766a27.453,27.453,0,0,0,4.95-3.982ZM64.2-15.356l.022,2.816a60.3,60.3,0,0,0,9.35,0v-2.816A44.454,44.454,0,0,1,64.2-15.356ZM63.448-6.27a13.427,13.427,0,0,0-.374,2.838c0,2.222,1.782,3.586,5.544,3.586a30.283,30.283,0,0,0,5.632-.44l-.066-2.948a25.109,25.109,0,0,1-5.456.572c-2.2,0-3.036-.572-3.036-1.54a7.17,7.17,0,0,1,.264-1.826ZM57.794-17.05a16.28,16.28,0,0,1-.22,2.134,60.408,60.408,0,0,0-.9,8.624A27.813,27.813,0,0,0,57.53.836L60.038.66c-.022-.308-.022-.66-.044-.9a6.4,6.4,0,0,1,.132-1.012A52.527,52.527,0,0,1,61.688-6.6L60.324-7.656c-.308.7-.66,1.43-.968,2.2a10.514,10.514,0,0,1-.088-1.408,53.866,53.866,0,0,1,1.056-7.986,18.308,18.308,0,0,1,.528-1.936Zm-104.3,33.1h-6.644v1.98h6.644ZM-45.936,19h-8.338v2.068h8.338Zm-.528,3.058H-53.24v2h6.776Zm-6.776,4.972h6.776V25.068H-53.24Zm4.488,5.676h-2.332v-2.53h2.332Zm15.114-11.176V19.062h-4.818V15.388H-41.14v3.674h-4.466v2.464h2.882c-.154,4.466-.44,9.218-3.762,12.144V28.1h-6.82v7.5h2.222v-.858h4.6V34.11a7.64,7.64,0,0,1,1.672,1.826c2.706-2.354,3.85-5.742,4.378-9.372h3.344c-.2,4.356-.418,6.138-.814,6.578a.888.888,0,0,1-.77.308c-.44,0-1.364-.022-2.332-.11a6.228,6.228,0,0,1,.748,2.486,19.275,19.275,0,0,0,2.86-.044,2.474,2.474,0,0,0,1.782-.968c.682-.858.924-3.3,1.188-9.592V24.144h-5.742c.066-.88.11-1.738.154-2.618Zm21.6,8.162a4.4,4.4,0,0,1-2.794,1.54c-.55,0-.836-.374-.836-.946,0-2.266.726-5.456.726-7.722,0-1.826-1.1-3.212-3.432-3.212-2.112,0-4.62,1.738-6.336,3.234a3.282,3.282,0,0,0,.044-.462c.374-.572.836-1.276,1.122-1.65l-.814-1.034c.176-1.364.352-2.486.484-3.1l-3.19-.088a11.62,11.62,0,0,1,.088,1.936c0,.242-.044.858-.088,1.672-.924.132-1.87.242-2.508.286a18.529,18.529,0,0,1-1.892.022l.264,2.794c1.232-.154,2.9-.374,3.96-.506l-.088,1.518c-1.232,1.826-3.432,4.73-4.664,6.226l1.716,2.42c.748-1.034,1.8-2.64,2.75-4.026-.044,1.848-.044,3.1-.088,4.8,0,.352-.022,1.144-.066,1.606h2.992c-.044-.484-.132-1.276-.154-1.672-.132-2.046-.132-3.872-.132-5.654,0-.55.022-1.144.044-1.76,1.76-1.958,4.136-3.96,5.764-3.96.9,0,1.452.528,1.452,1.606,0,1.98-.77,5.17-.77,7.546,0,2.09,1.1,3.3,2.728,3.3a5.768,5.768,0,0,0,4.092-1.65ZM.726,25.662a32.009,32.009,0,0,1,4.2-.242,31.469,31.469,0,0,1,3.74.264l.066-2.618a37.825,37.825,0,0,0-3.828-.2c-1.408,0-2.97.11-4.18.22Zm1.716-7c-1.188.286-2.42.528-3.652.726l.176-.836c.11-.484.308-1.452.462-2.046l-3.322-.264a11.311,11.311,0,0,1-.088,2.2q-.066.528-.2,1.254c-.66.044-1.3.066-1.936.066a21.448,21.448,0,0,1-2.75-.176l.066,2.728c.77.044,1.584.088,2.64.088.44,0,.924-.022,1.43-.044-.154.616-.308,1.232-.462,1.8a48.036,48.036,0,0,1-3.762,9.812L-5.9,34.99A70.264,70.264,0,0,0-2.442,24.914c.242-.88.462-1.848.66-2.794,1.452-.176,2.926-.418,4.224-.7ZM-.616,28.324a14.953,14.953,0,0,0-.374,2.9c0,2.2,1.87,3.476,5.544,3.476A34.863,34.863,0,0,0,9,34.4l.11-2.794a25.258,25.258,0,0,1-4.532.44c-2.332,0-2.882-.7-2.882-1.65A7.537,7.537,0,0,1,2,28.566ZM18.9,29.05c-.7.242-1.43.462-2.156.682v-4.4h1.98v-2.4h-1.98V19.062H19.1V16.62h-7.26v2.442h2.42v3.872H12.034v2.4h2.222V30.5c-1.012.286-1.914.528-2.684.726l.594,2.662c2.112-.682,4.752-1.518,7.172-2.376Zm3.388-6.644h2.266V24.3H22.286Zm0-3.894h2.266v1.826H22.286Zm6.644,1.826H26.752V18.512H28.93Zm0,3.96H26.752V22.406H28.93Zm-1.936,8.558v-2.09h4.664V28.412H26.994V26.52h4.422V16.29H19.932V26.52h4.4v1.892H19.778v2.354h4.554v2.09H18.26v2.376H32.406V32.856Zm18.26-.7v-3.74h4.818v3.74Zm-7.37-3.74h4.664v3.74H37.884Zm4.664-6.226V25.86H37.884V22.186Zm7.524,0V25.86H45.254V22.186Zm-4.818-2.64V15.388H42.548v4.158H35.266V35.914h2.618V34.748H50.072v1.144h2.75V19.546Z" transform="translate(330 3574)" fill="#0b3880"/>
    <path id="パス_10012" data-name="パス 10012" d="M-22.688,0h6.72V-1.52h-2.3V-11.776h-1.392a7.234,7.234,0,0,1-2.56.9v1.168h2.112V-1.52h-2.576ZM-10.64-5.76c-1.232,0-1.9-.864-1.9-2.368,0-1.536.8-2.448,1.808-2.448,1.28,0,2.16,1.056,2.336,3.376A2.824,2.824,0,0,1-10.64-5.76Zm-3.424,4.72A4.041,4.041,0,0,0-11.056.208c2.272,0,4.384-1.856,4.384-6.5C-6.672-10.176-8.5-12-10.752-12a3.6,3.6,0,0,0-3.5,3.872c0,2.464,1.328,3.7,3.3,3.7A3.541,3.541,0,0,0-8.368-5.808C-8.48-2.448-9.712-1.3-11.136-1.3a2.625,2.625,0,0,1-1.936-.88ZM-3.44.208a1.224,1.224,0,0,0,1.232-1.28A1.252,1.252,0,0,0-3.44-2.384,1.252,1.252,0,0,0-4.672-1.072,1.224,1.224,0,0,0-3.44.208ZM2.032,0H3.92c.192-4.608.624-7.2,3.392-10.656v-1.12H-.272v1.552H5.264C2.992-7.056,2.24-4.3,2.032,0Zm9.84-4.736c1.664,0,2.768-1.376,2.768-3.76,0-2.352-1.1-3.712-2.768-3.712-1.648,0-2.768,1.36-2.768,3.712C9.1-6.112,10.224-4.736,11.872-4.736Zm0-1.1c-.816,0-1.408-.832-1.408-2.656,0-1.808.592-2.624,1.408-2.624.848,0,1.424.816,1.424,2.624C13.3-6.672,12.72-5.84,11.872-5.84Zm8.4,5.888c1.648,0,2.768-1.376,2.768-3.76,0-2.368-1.12-3.712-2.768-3.712S17.488-6.08,17.488-3.712C17.488-1.328,18.624.048,20.272.048Zm0-1.1c-.832,0-1.424-.832-1.424-2.656s.592-2.624,1.424-2.624,1.424.8,1.424,2.624S21.1-1.056,20.272-1.056ZM12.24.048h1.168l6.48-12.256H18.72Z" transform="translate(421 3468)" fill="#fff"/>
    <path id="パス_10013" data-name="パス 10013" d="M-22.688,0h6.72V-1.52h-2.3V-11.776h-1.392a7.234,7.234,0,0,1-2.56.9v1.168h2.112V-1.52h-2.576ZM-10.64-5.76c-1.232,0-1.9-.864-1.9-2.368,0-1.536.8-2.448,1.808-2.448,1.28,0,2.16,1.056,2.336,3.376A2.824,2.824,0,0,1-10.64-5.76Zm-3.424,4.72A4.041,4.041,0,0,0-11.056.208c2.272,0,4.384-1.856,4.384-6.5C-6.672-10.176-8.5-12-10.752-12a3.6,3.6,0,0,0-3.5,3.872c0,2.464,1.328,3.7,3.3,3.7A3.541,3.541,0,0,0-8.368-5.808C-8.48-2.448-9.712-1.3-11.136-1.3a2.625,2.625,0,0,1-1.936-.88ZM-3.44.208a1.224,1.224,0,0,0,1.232-1.28A1.252,1.252,0,0,0-3.44-2.384,1.252,1.252,0,0,0-4.672-1.072,1.224,1.224,0,0,0-3.44.208ZM2.032,0H3.92c.192-4.608.624-7.2,3.392-10.656v-1.12H-.272v1.552H5.264C2.992-7.056,2.24-4.3,2.032,0Zm9.84-4.736c1.664,0,2.768-1.376,2.768-3.76,0-2.352-1.1-3.712-2.768-3.712-1.648,0-2.768,1.36-2.768,3.712C9.1-6.112,10.224-4.736,11.872-4.736Zm0-1.1c-.816,0-1.408-.832-1.408-2.656,0-1.808.592-2.624,1.408-2.624.848,0,1.424.816,1.424,2.624C13.3-6.672,12.72-5.84,11.872-5.84Zm8.4,5.888c1.648,0,2.768-1.376,2.768-3.76,0-2.368-1.12-3.712-2.768-3.712S17.488-6.08,17.488-3.712C17.488-1.328,18.624.048,20.272.048Zm0-1.1c-.832,0-1.424-.832-1.424-2.656s.592-2.624,1.424-2.624,1.424.8,1.424,2.624S21.1-1.056,20.272-1.056ZM12.24.048h1.168l6.48-12.256H18.72Z" transform="translate(480 3610)" fill="#fff"/>
    <path id="パス_10014" data-name="パス 10014" d="M-22.688,0h6.72V-1.52h-2.3V-11.776h-1.392a7.234,7.234,0,0,1-2.56.9v1.168h2.112V-1.52h-2.576Zm10.832,0h1.888c.192-4.608.624-7.2,3.392-10.656v-1.12H-14.16v1.552h5.536C-10.9-7.056-11.648-4.3-11.856,0ZM-3.44.208a1.224,1.224,0,0,0,1.232-1.28A1.252,1.252,0,0,0-3.44-2.384,1.252,1.252,0,0,0-4.672-1.072,1.224,1.224,0,0,0-3.44.208ZM3.84-1.2c-1.264,0-2.112-1.1-2.3-3.44A2.741,2.741,0,0,1,3.728-6.016c1.264,0,1.936.848,1.936,2.368S4.864-1.2,3.84-1.2Zm3.344-9.536A3.955,3.955,0,0,0,4.24-12C1.92-12-.208-10.192-.208-5.664c0,4,1.824,5.872,4.064,5.872a3.589,3.589,0,0,0,3.52-3.856c0-2.5-1.328-3.712-3.312-3.712A3.54,3.54,0,0,0,1.5-6c.08-3.36,1.328-4.5,2.832-4.5a2.53,2.53,0,0,1,1.84.88Zm4.688,6c1.664,0,2.768-1.376,2.768-3.76,0-2.352-1.1-3.712-2.768-3.712-1.648,0-2.768,1.36-2.768,3.712C9.1-6.112,10.224-4.736,11.872-4.736Zm0-1.1c-.816,0-1.408-.832-1.408-2.656,0-1.808.592-2.624,1.408-2.624.848,0,1.424.816,1.424,2.624C13.3-6.672,12.72-5.84,11.872-5.84Zm8.4,5.888c1.648,0,2.768-1.376,2.768-3.76,0-2.368-1.12-3.712-2.768-3.712S17.488-6.08,17.488-3.712C17.488-1.328,18.624.048,20.272.048Zm0-1.1c-.832,0-1.424-.832-1.424-2.656s.592-2.624,1.424-2.624,1.424.8,1.424,2.624S21.1-1.056,20.272-1.056ZM12.24.048h1.168l6.48-12.256H18.72Z" transform="translate(379 3725)" fill="#fff"/>
  </g>
</svg>
