<svg id="レイヤー_1" xmlns="http://www.w3.org/2000/svg" viewBox="0 0 128.9 31"><style>.st0{fill:#f50a00}</style><title>Logo_OKWAVE_company_main_RGB_smallest</title><path class="st0" d="M45.5 3.2c-5.7 0-8.3 3.9-8.3 8.9s2.6 8.9 8.3 8.9 8.3-3.9 8.3-8.9-2.6-8.9-8.3-8.9zm0 14.8c-2.9 0-4.5-1.9-4.5-5.9s1.6-5.9 4.5-5.9c3 0 4.5 1.8 4.5 5.9S48.4 18 45.5 18zM95.8 3.4c-1-.2-2.1-.2-3.2 0l-6 17.2c.6.1 1.2.2 1.8.1.6 0 1.3 0 1.9-.1l1.1-3.5H97l1.1 3.5c.6.1 1.3.2 1.9.1.6 0 1.2 0 1.8-.1l-6-17.2zm-3.5 10.9L94.2 8l2 6.3h-3.9zm-5.4-11c-.6 0-1.3 0-1.9.1l-2.3 12.4-3-12.4c-1-.2-2-.2-3 0l-3 12.4-2.3-12.4c-.6-.1-1.3-.2-1.9-.1-.6-.1-1.3 0-1.9.1l4.2 17.2c.5.1 1 .2 1.5.1.8 0 1.5 0 2.3-.1l2.7-11 2.7 11c.8.1 1.5.2 2.3.1.5 0 1 0 1.5-.1L89 3.4c-.8-.1-1.4-.2-2.1-.1zm25.6 0c-.6 0-1.3 0-1.9.1L106.8 17 103 3.4c-.6-.1-1.3-.2-1.9-.1-.6-.1-1.3 0-1.9.1l5.5 17.2c1.4.2 2.8.2 4.2 0l5.5-17.2c-.6-.1-1.2-.1-1.9-.1z"/><path class="st0" d="M62.5 11.8l5.3-8.3c-.6-.2-1.2-.2-1.8-.2-.7 0-1.4 0-2.1.1l-5.1 8.4 5.4 8.9c.7.1 1.4.2 2.1.1.6.1 1.3 0 1.9-.1l-5.7-8.9zm-7.9-8.4v17.2c.6.1 1.2.2 1.8.1.6 0 1.2 0 1.8-.1V3.4c-.6-.1-1.2-.2-1.8-.1-.6-.1-1.2 0-1.8.1zm64.2 14.3v-4.4h6.5c.1-.5.2-1 .1-1.5 0-.5 0-1-.1-1.5h-6.5V6.5h7.6c.1-.5.2-1 .1-1.5 0-.5 0-1-.1-1.5h-11.2v17.2h11.2c.1-.5.2-1 .1-1.5 0-.5 0-1-.1-1.5h-7.6zm-78.3 9.8v.5h-1.2v-6h1.2v2.5c.3-.5.8-.7 1.3-.7s.9.2 1.2.5c.3.4.4.9.4 1.5s-.1 1.1-.5 1.6c-.3.4-.8.6-1.3.6-.4.1-.8-.1-1.1-.5zm0-1.7v.4c0 .2.1.5.2.6.1.2.4.3.6.3.3 0 .5-.1.7-.3.2-.3.3-.6.2-.9 0-.3-.1-.5-.2-.8-.1-.2-.4-.3-.6-.3-.2 0-.5.1-.6.3-.2.2-.3.4-.3.7zm11.9.5h-2.7c0 .5.4.9 1 .9h.2c.4 0 .8-.1 1.2-.3v.9c-.5.2-1 .3-1.5.3-1 .1-1.9-.6-2.1-1.7V26c0-.6.2-1.2.6-1.6.4-.4.9-.6 1.4-.6.5 0 1 .2 1.4.5.3.4.5.9.5 1.4v.6zm-1.2-.7c.1-.4-.1-.8-.5-.8h-.2c-.2 0-.4.1-.5.2-.2.2-.2.4-.3.6h1.5zm6.2 2.3v-1l.6.3c.2.1.4.1.6.1.2 0 .4 0 .5-.1.1 0 .2-.1.2-.3 0-.1 0-.1-.1-.2-.1 0-.2-.1-.2-.1l-.3-.1-.3-.1c-.1-.1-.3-.1-.4-.2-.1-.1-.2-.1-.3-.2-.1-.1-.1-.2-.2-.3 0-.1-.1-.3-.1-.4 0-.2 0-.4.1-.6.1-.2.2-.3.4-.5.2-.1.4-.2.6-.2.2 0 .4-.1.7-.1h.5c.2 0 .4.1.5.1v1c-.2-.1-.3-.2-.5-.2s-.4-.1-.5-.1H59l-.2.1c-.1 0-.1.1-.1.1v.1c0 .1 0 .1.1.2s.1.1.2.1l.3.1.3.1.4.2c.1.1.2.1.3.2.1.1.2.2.2.3.1.3.1.7-.1 1.1-.1.2-.2.3-.4.4-.2.1-.4.2-.6.2-.2.1-.4.1-.7.1-.4.1-.9 0-1.3-.1zm11.2 0c-.3.1-.5.2-.8.1-.7.1-1.3-.5-1.3-1.1v-2h-.7V24h.7v-.9l1.2-.4V24h.9v.9h-.9v1.6c-.1.3.1.5.4.6h.1c.1 0 .3 0 .4-.1v.9zm14.1.1h-1.2v-.6c-.2.4-.7.7-1.2.7-.3 0-.6-.1-.8-.3-.2-.2-.3-.6-.3-.9 0-.7.6-1.3 1.3-1.4h.1l1.1-.2c0-.3-.2-.6-.6-.7h-.2c-.5 0-1 .2-1.4.4v-.9c.2-.1.5-.2.7-.2.3-.1.5-.1.8-.1.8-.1 1.6.5 1.7 1.3V28zm-1.2-1.6v-.3l-.7.1c-.3 0-.6.2-.6.5 0 .1.1.3.1.3.1.1.3.1.4.1.2 0 .4-.1.6-.2.2-.1.2-.3.2-.5zM91.8 28h-1.2v-2.2c0-.6-.2-.9-.7-.9-.2 0-.4.1-.5.2-.1.2-.2.4-.2.6V28H88v-4h1.2v.6c.3-.5.8-.8 1.3-.7.7 0 1.4.6 1.4 1.3V28h-.1zm5-.1v-1l.6.3c.2.1.4.1.6.1.2 0 .4 0 .5-.1.1 0 .2-.1.2-.3 0-.1 0-.1-.1-.2-.1 0-.1-.1-.2-.1l-.3-.1-.3-.1c-.1-.1-.3-.1-.4-.2-.1-.1-.2-.1-.3-.2-.1-.1-.1-.2-.2-.3 0-.1-.1-.3-.1-.4 0-.2 0-.4.1-.6.1-.2.2-.3.4-.5.2-.1.4-.2.6-.2.2 0 .4-.1.7-.1h.5c.2 0 .4.1.5.1v1c-.2-.1-.3-.2-.5-.2s-.4-.1-.5-.1h-.2l-.2.1c-.1 0-.1.1-.1.1v.1c0 .1 0 .1.1.2s.1.1.2.1l.3.1.3.1.4.2c.1.1.2.1.3.2.1.1.2.2.2.3.1.3.1.7-.1 1.1-.1.2-.2.3-.4.4-.2.1-.4.2-.6.2-.2 0-.5.1-.7.1-.5.1-.9 0-1.3-.1zm13.4-3.9l-1.2 4h-1.3l-.6-2.4c0-.2-.1-.3-.1-.5 0 .2 0 .3-.1.5l-.6 2.4h-1.2l-1.1-4h1.2l.5 2.6v.4c0-.2.1-.3.1-.4l.7-2.6h1.2l.6 2.6v.5c0-.2.1-.3.1-.5l.5-2.6h1.3zm7.9 2.3h-2.6c0 .5.4.9 1 .9h.2c.4 0 .8-.1 1.2-.3v.9c-.5.2-1 .3-1.5.3-1 .1-1.9-.6-2.1-1.7V26c0-.6.2-1.2.6-1.6.4-.4.9-.6 1.4-.6.5 0 1 .2 1.4.5.3.4.5.9.5 1.4l-.1.6zm-1.2-.7c.1-.4-.1-.8-.5-.8h-.2c-.2 0-.4.1-.5.2-.2.2-.2.4-.3.6h1.5zm8.7-.5c-.2-.1-.3-.1-.5-.1s-.5.1-.6.3c-.2.2-.2.5-.2.8V28H123v-4h1.2v.8c.1-.5.6-.8 1.1-.8h.3v1.1zm2.5 3c-.2 0-.4-.1-.5-.2-.1-.1-.2-.3-.2-.5s.1-.4.2-.5c.1-.1.3-.2.5-.2s.4.1.5.2c.3.2.3.6 0 .9-.1.2-.3.3-.5.3zM15.5 0C2.5 0 0 2.5 0 15.5S2.5 31 15.5 31 31 28.5 31 15.5 28.5 0 15.5 0zm0 29.5c-12.1 0-14-1.9-14-14s1.9-14 14-14 14 1.9 14 14-1.9 14-14 14z"/><path class="st0" d="M20.4 7.2c-2.2 0-4.1 1.4-4.9 3.5-.8-2.1-2.7-3.4-4.9-3.5-2.3 0-5.4 1.4-5.4 5.8 0 5.9 7.8 11.2 10.3 13.2 2.6-2 10.3-7.2 10.3-13.2 0-4.4-3.1-5.8-5.4-5.8z"/></svg>