<?xml version="1.0" encoding="utf-8"?>
<!-- Generator: Adobe Illustrator 23.0.2, SVG Export Plug-In . SVG Version: 6.00 Build 0)  -->
<svg version="1.1" id="レイヤー_1" xmlns="http://www.w3.org/2000/svg" xmlns:xlink="http://www.w3.org/1999/xlink" x="0px"
	 y="0px" viewBox="0 0 411.1 411.1" style="enable-background:new 0 0 411.1 411.1;" xml:space="preserve">
<style type="text/css">
	.st0{fill:none;}
	.st1{fill:#F50A00;}
	.st2{clip-path:url(#SVGID_2_);fill:#8F1D22;}
	.st3{fill:#4D4D4D;}
	.st4{fill:#191919;}
	.st5{fill:#666666;}
	.st6{fill:#FFFFFF;}
</style>
<g>
	<g>
		<rect class="st0" width="411.1" height="411.1"/>
		<path class="st1" d="M207,22.7C92.9,22.7,68,53.8,68,53.8s0,171.4,0,186.5c0,92.4,139,145.1,139,145.1s139-51.2,139-143.6
			c0-15.1,0-186.5,0-186.5S321.1,22.7,207,22.7z"/>
		<g>
			<g>
				<defs>
					<path id="SVGID_1_" d="M207,22.7C92.9,22.7,68,53.8,68,53.8s0,171.4,0,186.5c0,92.4,139,145.1,139,145.1s139-51.2,139-143.6
						c0-15.1,0-186.5,0-186.5S321.1,22.7,207,22.7z"/>
				</defs>
				<clipPath id="SVGID_2_">
					<use xlink:href="#SVGID_1_"  style="overflow:visible;"/>
				</clipPath>
				<rect x="48.4" y="293.2" class="st2" width="317.4" height="60.4"/>
			</g>
		</g>
		<polygon class="st3" points="25.7,377.8 86.1,362.7 86.1,302.2 25.7,317.4 		"/>
		<polygon class="st3" points="388.4,377.8 327.9,362.7 327.9,302.2 388.4,317.4 		"/>
		<polygon class="st4" points="86.1,362.7 48.4,347.6 48.4,287.1 86.1,302.2 		"/>
		<polygon class="st4" points="327.9,362.7 365.7,347.6 365.7,287.1 327.9,302.2 		"/>
		<rect x="48.4" y="287.1" class="st5" width="317.4" height="60.4"/>
		<g>
			<g>
				<path class="st6" d="M71.3,302.8h9.5c6.4,0,11.4,2.2,11.4,9.1c0,6.6-5,9.6-11.2,9.6h-3.9v10.3h-5.8V302.8z M80.6,317
					c4,0,5.9-1.7,5.9-5c0-3.4-2.1-4.5-6.1-4.5h-3.3v9.5H80.6z"/>
				<path class="st6" d="M112.7,331.9l-6-11h-4v11h-5.8v-29H107c6.1,0,10.9,2.1,10.9,8.8c0,4.4-2.2,7.1-5.5,8.4l6.8,11.9
					L112.7,331.9L112.7,331.9z M102.7,316.3h3.8c3.7,0,5.8-1.6,5.8-4.7s-2-4.2-5.8-4.2h-3.8V316.3z"/>
				<path class="st6" d="M123.6,302.8h5.8v29h-5.8C123.6,331.8,123.6,302.8,123.6,302.8z"/>
				<path class="st6" d="M134.1,328.4l13.5-20.7h-12.2v-4.8h19.3v3.5L141.2,327h13.7v4.9h-20.8L134.1,328.4L134.1,328.4z"/>
				<path class="st6" d="M159.8,302.8h17.8v4.8h-12v6.7h10.2v4.9h-10.2v7.8H178v4.9h-18.2V302.8z"/>
				<path class="st6" d="M190,302.8h5.9l2.3,14.2c0.4,3.1,0.9,6.2,1.3,9.3h0.2c0.6-3.1,1.2-6.2,1.8-9.3l3.4-14.2h4.9l3.4,14.2
					c0.6,3,1.2,6.1,1.8,9.3h0.2c0.4-3.1,0.9-6.2,1.3-9.3l2.3-14.2h5.5l-5.4,29h-7.2l-3.3-14.4c-0.5-2.3-0.9-4.5-1.3-6.7h-0.2
					c-0.4,2.2-0.8,4.4-1.3,6.7l-3.2,14.4h-7.1L190,302.8z"/>
				<path class="st6" d="M228.7,302.8h5.8v29h-5.8V302.8z"/>
				<path class="st6" d="M241.3,302.8h5.9l8.4,15.5l2.9,6.3h0.2c-0.3-3-0.7-6.9-0.7-10.2v-11.6h5.5v29h-5.9l-8.4-15.5l-2.9-6.2h-0.2
					c0.3,3.1,0.7,6.8,0.7,10.1v11.7h-5.5L241.3,302.8L241.3,302.8z"/>
				<path class="st6" d="M270.4,302.8h5.9l8.4,15.5l2.9,6.3h0.2c-0.3-3-0.7-6.9-0.7-10.2v-11.6h5.5v29h-5.9l-8.4-15.5l-2.9-6.2h-0.2
					c0.3,3.1,0.7,6.8,0.7,10.1v11.7h-5.5V302.8z"/>
				<path class="st6" d="M299.5,302.8h17.8v4.8h-12v6.7h10.2v4.9h-10.2v7.8h12.4v4.9h-18.2L299.5,302.8L299.5,302.8z"/>
				<path class="st6" d="M339,331.9l-6-11h-4v11h-5.8v-29h10.1c6.1,0,10.9,2.1,10.9,8.8c0,4.4-2.2,7.1-5.5,8.4l6.8,11.9L339,331.9
					L339,331.9z M329,316.3h3.8c3.7,0,5.8-1.6,5.8-4.7s-2-4.2-5.8-4.2H329V316.3z"/>
			</g>
		</g>
	</g>
	<g>
		<g>
			<rect x="265.3" y="97.9" class="st0" width="33.9" height="33.9"/>
			<rect x="299.2" y="97.9" class="st0" width="33.9" height="33.9"/>
			<rect x="207" y="39.6" class="st0" width="33.9" height="33.9"/>
			<rect x="81" y="52.6" class="st0" width="252.1" height="252.1"/>
			<g>
				<rect x="122.1" y="202.2" class="st0" width="175.9" height="33.9"/>
				<rect x="119.2" y="202.2" class="st0" width="181.6" height="33.9"/>
				<g>
					<path class="st6" d="M207,73.5c-48.8,0-58.3,9.4-58.3,58.2s9.4,58.2,58.3,58.2c48.8,0,58.2-9.4,58.2-58.2
						C265.3,82.9,255.9,73.5,207,73.5z M207,184.2c-45.3,0-52.4-7.1-52.4-52.4s7.1-52.4,52.4-52.4s52.4,7.1,52.4,52.4
						C259.5,177.1,252.3,184.2,207,184.2z"/>
					<path class="st6" d="M225.7,100.7c-8.4,0-15.6,5.4-18.6,13.1c-3.1-7.7-10.3-13.1-18.6-13.1c-8.6,0-20.2,5.1-20.2,21.7
						c0,22.2,29.1,42.1,38.8,49.5c9.7-7.4,38.8-27.2,38.8-49.5C245.9,105.8,234.2,100.7,225.7,100.7z"/>
				</g>
			</g>
			<rect x="207" y="22.7" class="st0" width="33.9" height="16.9"/>
		</g>
		<g>
			<g>
				<path class="st6" d="M136.2,201.5c-11.2,0-16.3,7.6-16.3,17.5s5.1,17.5,16.3,17.5s16.3-7.6,16.3-17.5S147.4,201.5,136.2,201.5z
					 M136.2,230.6c-5.8,0-8.9-3.7-8.9-11.6c0-7.9,3.1-11.6,8.9-11.6s8.9,3.7,8.9,11.6C145.1,227,142,230.6,136.2,230.6z"/>
				<path class="st6" d="M235.5,202.1c0,0-0.6-0.3-3.1-0.3s-3.1,0.3-3.1,0.3l-11.9,34c0,0,0.6,0.3,3.5,0.3c2.7,0,3.8-0.3,3.8-0.3
					l7.7-25.2l0,0l7.6,25.2c0,0,1.1,0.3,3.8,0.3c3,0,3.5-0.3,3.5-0.3L235.5,202.1z"/>
				<path class="st6" d="M218,201.8c-2.7,0-3.8,0.3-3.8,0.3l-4.6,24.4l-5.9-24.4c0,0-0.6-0.3-3-0.3s-3,0.3-3,0.3l-5.9,24.4
					l-4.6-24.4c0,0-1.1-0.3-3.8-0.3c-3.1,0-3.7,0.3-3.7,0.3l8.2,34c0,0,0.6,0.3,3,0.3c3.4,0,4.5-0.3,4.5-0.3l5.2-21.7L206,236
					c0,0,1.1,0.3,4.5,0.3c2.4,0,3-0.3,3-0.3l8.2-34C221.7,202.1,221.1,201.8,218,201.8z"/>
				<path class="st6" d="M268.5,201.8c-2.7,0-3.8,0.3-3.8,0.3l-7.5,26.9l-7.5-26.9c0,0-1.1-0.3-3.8-0.3c-3.1,0-3.7,0.3-3.7,0.3
					l10.9,34c0,0,0.6,0.3,4.1,0.3s4.1-0.3,4.1-0.3l10.9-34C272.2,202.1,271.6,201.8,268.5,201.8z"/>
				<g>
					<path class="st6" d="M169.7,218.5l10.5-16.4c0,0-0.6-0.3-3.7-0.3c-3,0-4.1,0.3-4.1,0.3l-10,16.4L173,236c0,0,1.1,0.3,4.1,0.3
						c3.1,0,3.7-0.3,3.7-0.3L169.7,218.5z"/>
					<path class="st6" d="M154.2,202.1v34c0,0,0.6,0.3,3.5,0.3s3.5-0.3,3.5-0.3v-34c0,0-0.6-0.3-3.5-0.3
						C154.7,201.8,154.2,202.1,154.2,202.1z"/>
				</g>
				<path class="st6" d="M281,230.1v-8.6h12.7c0,0,0.3-0.6,0.3-3s-0.3-3-0.3-3H281V208h15l0,0c0,0,0.3-0.6,0.3-3s-0.3-3-0.3-3h-22.1
					v34H296c0,0,0.3-0.6,0.3-3s-0.3-3-0.3-3h-15V230.1z"/>
				<rect x="119.9" y="202.1" class="st0" width="176.3" height="34"/>
			</g>
		</g>
		<g>
			<g>
				<path class="st6" d="M147.3,266.9h-2.7l-2.2-5.9h-9l-2.1,5.9h-2.8l8.1-21.1h2.6L147.3,266.9z M141.5,258.8l-3.3-9
					c-0.1-0.3-0.2-0.8-0.3-1.4h-0.1c-0.1,0.6-0.2,1.1-0.3,1.4l-3.3,9H141.5z"/>
				<path class="st6" d="M172,245.8l-6,21.1h-2.9l-4.4-15.5c-0.2-0.7-0.3-1.4-0.3-2.2h-0.1c-0.1,0.7-0.2,1.4-0.4,2.1l-4.4,15.5h-2.9
					l-6.2-21.1h2.7l4.5,16.2c0.2,0.7,0.3,1.4,0.4,2.1h0.1c0-0.5,0.2-1.2,0.5-2.1l4.7-16.2h2.4l4.5,16.3c0.2,0.6,0.3,1.2,0.4,2h0.1
					c0-0.5,0.2-1.2,0.4-2l4.3-16.3h2.6V245.8z"/>
				<path class="st6" d="M188.3,266.9h-2.7l-2.2-5.9h-9l-2.1,5.9h-2.8l8.1-21.1h2.6L188.3,266.9z M182.5,258.8l-3.3-9
					c-0.1-0.3-0.2-0.8-0.3-1.4h-0.1c-0.1,0.6-0.2,1.1-0.3,1.4l-3.3,9H182.5z"/>
				<path class="st6" d="M205.4,266.9h-2.9L199,261c-0.3-0.6-0.6-1-0.9-1.4c-0.3-0.4-0.6-0.7-0.9-1c-0.3-0.2-0.7-0.4-1-0.5
					c-0.4-0.1-0.8-0.2-1.2-0.2h-2v9h-2.5v-21.1h6.3c0.9,0,1.8,0.1,2.6,0.3s1.5,0.6,2,1.1c0.6,0.5,1,1.1,1.3,1.8s0.5,1.5,0.5,2.5
					c0,0.7-0.1,1.4-0.3,2s-0.5,1.2-0.9,1.6c-0.4,0.5-0.9,0.9-1.5,1.2c-0.6,0.3-1.2,0.6-1.9,0.8v0.1c0.4,0.2,0.7,0.3,0.9,0.5
					c0.3,0.2,0.5,0.4,0.7,0.7c0.2,0.3,0.5,0.6,0.7,0.9s0.5,0.8,0.8,1.2L205.4,266.9z M192.7,248v7.7h3.4c0.6,0,1.2-0.1,1.7-0.3
					s1-0.5,1.4-0.8s0.7-0.8,0.9-1.3s0.3-1.1,0.3-1.7c0-1.1-0.4-2-1.1-2.6c-0.7-0.6-1.8-1-3.2-1L192.7,248L192.7,248z"/>
				<path class="st6" d="M207.3,266.9v-21.1h5.8c7.5,0,11.2,3.4,11.2,10.3c0,3.3-1,5.9-3.1,7.9s-4.8,3-8.3,3L207.3,266.9
					L207.3,266.9z M209.8,248v16.7h3.2c2.8,0,4.9-0.7,6.5-2.2c1.5-1.5,2.3-3.6,2.3-6.3c0-5.4-2.9-8.1-8.6-8.1h-3.4V248z"/>
			</g>
		</g>
		<g>
			<g>
				<path class="st6" d="M246,266.9h-12.7v-2.1l6.1-6.1c1.6-1.6,2.7-2.9,3.3-3.9s1-2.2,1-3.3c0-1.2-0.3-2.1-1-2.8s-1.7-1-3-1
					c-1.9,0-3.7,0.8-5.4,2.4v-2.5c1.6-1.3,3.5-1.9,5.7-1.9c1.9,0,3.3,0.5,4.4,1.5s1.6,2.4,1.6,4.1c0,1.3-0.4,2.7-1.1,3.9
					c-0.7,1.3-2.1,2.9-4,4.8l-4.8,4.8v0.1h9.8L246,266.9L246,266.9z"/>
				<path class="st6" d="M254.8,267.3c-2.1,0-3.7-0.9-4.9-2.7s-1.8-4.4-1.8-7.7c0-3.7,0.6-6.5,1.8-8.4s3-2.9,5.3-2.9
					c4.4,0,6.6,3.6,6.6,10.8c0,3.6-0.6,6.3-1.9,8.1S257,267.3,254.8,267.3z M255.1,247.6c-3,0-4.5,3-4.5,9.1c0,5.7,1.5,8.5,4.4,8.5
					s4.4-2.9,4.4-8.7C259.4,250.6,258,247.6,255.1,247.6z"/>
				<path class="st6" d="M274.9,266.9H263v-2.1h4.7v-16.3l-4.9,1.5v-2.3l7.3-2.2v19.4h4.7L274.9,266.9L274.9,266.9z"/>
				<path class="st6" d="M280.3,255.9L280.3,255.9c-2.5-1.2-3.8-2.9-3.8-5.2c0-1.5,0.6-2.8,1.7-3.7s2.6-1.5,4.5-1.5
					c1.6,0,3,0.5,4,1.4s1.6,2.1,1.6,3.5c0,2.3-1.3,4.1-3.9,5.4v0.1c3.1,1.1,4.6,3,4.6,5.7c0,1.7-0.6,3.1-1.9,4.1s-3,1.5-5.2,1.5
					c-1.8,0-3.3-0.5-4.4-1.5s-1.7-2.3-1.7-4C275.8,259.1,277.3,257.2,280.3,255.9z M282.2,257.1c-2.7,1.1-4,2.6-4,4.6
					c0,1,0.4,1.9,1.2,2.6s1.8,1,3.1,1c1.2,0,2.2-0.3,3-1s1.2-1.5,1.2-2.5C286.6,259.7,285.1,258.1,282.2,257.1z M285.9,250.7
					c0-1-0.3-1.7-0.9-2.3s-1.4-0.8-2.5-0.8c-1,0-1.8,0.3-2.5,0.9s-1,1.3-1,2.2c0,1.8,1.1,3.2,3.4,4.1
					C284.7,253.9,285.9,252.5,285.9,250.7z"/>
			</g>
		</g>
	</g>
</g>
</svg>
