<?xml version="1.0" encoding="utf-8"?>
<!-- Generator: Adobe Illustrator 24.2.1, SVG Export Plug-In . SVG Version: 6.00 Build 0)  -->
<svg version="1.1" id="レイヤー_1" xmlns="http://www.w3.org/2000/svg" xmlns:xlink="http://www.w3.org/1999/xlink" x="0px"
	 y="0px" viewBox="0 0 90.5 18" style="enable-background:new 0 0 90.5 18;" xml:space="preserve">
<style type="text/css">
	.st0{fill:#F50A00;}
</style>
<path class="st0" d="M27.4,2.8c-4,0-5.8,2.7-5.8,6.2s1.8,6.2,5.8,6.2s5.8-2.7,5.8-6.2S31.3,2.8,27.4,2.8z M27.4,13.1
	c-2,0-3.1-1.3-3.1-4.1s1.1-4.1,3.1-4.1s3.2,1.3,3.2,4.1S29.4,13.1,27.4,13.1L27.4,13.1z M64.1,15c0.4,0.1,0.9,0.1,1.3,0.1
	c0.4,0,0.8,0,1.2-0.1L62.5,3c-0.7-0.1-1.5-0.1-2.2,0l-4.2,12c0.4,0.1,0.8,0.1,1.2,0.1c0.5,0,0.9,0,1.3-0.1l2.7-8.9L64.1,15z
	 M56.3,2.9c-0.5,0-0.9,0-1.3,0.1l-1.6,8.6L51.2,3c-0.7-0.1-1.4-0.1-2.1,0L47,11.6L45.4,3c-0.4-0.1-0.9-0.1-1.3-0.1
	c-0.4,0-0.9,0-1.3,0.1l2.9,12c0.3,0.1,0.7,0.1,1,0.1c0.5,0,1.1,0,1.6-0.1l1.8-7.7L52,15c0.5,0.1,1.1,0.1,1.6,0.1c0.3,0,0.7,0,1-0.1
	l2.9-12C57.1,2.9,56.7,2.9,56.3,2.9z M74.1,2.9c-0.5,0-0.9,0-1.3,0.1l-2.7,9.5L67.5,3c-0.4-0.1-0.9-0.1-1.3-0.1
	c-0.4,0-0.9,0-1.3,0.1l3.8,12c0.5,0.1,1,0.1,1.4,0.1c0.5,0,1,0,1.4-0.1l3.8-12C75,2.9,74.5,2.9,74.1,2.9L74.1,2.9z"/>
<path class="st0" d="M39.2,8.8L42.9,3c-0.4-0.1-0.9-0.1-1.3-0.1c-0.5,0-1,0-1.5,0.1l-3.5,5.8l3.8,6.2c0.5,0.1,1,0.1,1.5,0.1
	c0.4,0,0.9,0,1.3-0.1L39.2,8.8z M33.7,3v12c0.4,0.1,0.8,0.1,1.2,0.1c0.4,0,0.8,0,1.2-0.1V3c-0.4-0.1-0.8-0.1-1.2-0.1
	C34.6,2.9,34.1,2.9,33.7,3z M78.5,12.9V9.8H83c0.1-0.3,0.1-0.7,0.1-1c0-0.4,0-0.7-0.1-1.1h-4.5V5.1h5.3c0.1-0.3,0.1-0.7,0.1-1
	c0-0.4,0-0.7-0.1-1H76v12h7.8c0.1-0.3,0.1-0.7,0.1-1c0-0.4,0-0.7-0.1-1L78.5,12.9z M9,0C1.5,0,0,1.5,0,9s1.5,9,9,9s9-1.5,9-9
	S16.6,0,9,0z M9,17.1C2,17.1,0.9,16,0.9,9S2,0.9,9,0.9S17.1,2,17.1,9S16,17.1,9,17.1L9,17.1z"/>
<path class="st0" d="M11.9,4.2c-1.3,0-2.4,0.8-2.9,2c-0.5-1.2-1.6-2-2.9-2C4.5,4.1,3.1,5.4,3,7.1c0,0.2,0,0.3,0,0.5
	C3,11,7.5,14,9,15.2c1.5-1.1,6-4.2,6-7.6c0.2-1.6-1-3.1-2.6-3.3C12.2,4.2,12.1,4.2,11.9,4.2z M88,10.5c1.2,0,2.2,1,2.2,2.2
	c0,1.2-1,2.2-2.2,2.2c-1.2,0-2.2-1-2.2-2.2v0C85.8,11.5,86.8,10.5,88,10.5 M88,10.2c-1.4,0-2.5,1.1-2.5,2.5s1.1,2.5,2.5,2.5
	s2.5-1.1,2.5-2.5S89.4,10.2,88,10.2z"/>
<path class="st0" d="M88.5,14.1l-0.5-1h-0.3v1H87v-2.9H88c0.6,0,1.1,0.2,1.1,0.9c0,0.4-0.2,0.7-0.5,0.8l0.7,1.2H88.5z M87.7,12.5H88
	c0.3,0,0.5-0.1,0.5-0.4s-0.2-0.4-0.5-0.4h-0.3V12.5z"/>
</svg>
