<svg data-name="グループ 3245" xmlns="http://www.w3.org/2000/svg" width="464.622" height="36"><g data-name="グループ 3239"><g data-name="グループ 3237"><path data-name="パス 6132" d="M110.3 5.8a7.669 7.669 0 00-2.5.2v24a15.724 15.724 0 005 0V6a7.7 7.7 0 00-2.5-.2z" fill="#ffffff"/><path data-name="パス 6133" d="M132.5 27.899a5.935 5.935 0 00-.2-2.1h-8.993l8.993-19.8h-16a11.124 11.124 0 000 4.2h8.593l-8.992 19.8h16.4a5.935 5.935 0 00.199-2.1z" fill="#ffffff"/><path data-name="パス 6134" d="M101.443 16.837A4.661 4.661 0 00104 12.5c0-5.9-4.4-6.7-8.8-6.7-4 0-7.4.2-7.4.2v24s3.4.2 7.4.2c8.2 0 10.2-3 10.2-7.3a6.13 6.13 0 00-3.957-6.063zM95.2 9.4c2 0 4.2.4 4.2 3.1 0 2.9-2.2 3.3-5 3.3h-1.6V9.5a14.147 14.147 0 012.4-.1zm0 16.8a11 11 0 01-2.4-.2v-6.6h2.4c3.2 0 5.2.6 5.2 3.5s-2.4 3.3-5.2 3.3z" fill="#ffffff"/><path data-name="パス 6135" d="M54.7 5.6C46.8 5.6 43.2 11 43.2 18s3.6 12.4 11.5 12.4S66.2 25 66.2 18 62.6 5.6 54.7 5.6zm0 20.6c-4.1 0-6.3-2.6-6.3-8.2s2.2-8.2 6.3-8.2S61 12.4 61 18s-2.2 8.2-6.3 8.2z" fill="#ffffff"/><g data-name="グループ 3236" fill="#ffffff"><path data-name="パス 6136" d="M78.4 17.6L85.8 6a8.16 8.16 0 00-2.6-.2 13.848 13.848 0 00-2.9.2l-7.1 11.6L80.7 30a13.848 13.848 0 002.9.2 8.16 8.16 0 002.6-.2z"/><path data-name="パス 6137" d="M67.4 6v24a15.724 15.724 0 005 0V6a15.724 15.724 0 00-5 0z"/></g></g><g data-name="グループ 3238" fill="#ffffff"><path data-name="パス 6138" d="M18.001 0c-15.086 0-18 2.914-18 18s2.914 18 18 18 18-2.914 18-18-2.915-18-18-18zm0 34.2c-14 0-16.2-2.2-16.2-16.2s2.2-16.2 16.2-16.2 16.2 2.2 16.2 16.2-2.2 16.2-16.2 16.2z"/><path data-name="パス 6139" d="M23.754 8.399A6.253 6.253 0 0018 12.442a6.254 6.254 0 00-5.755-4.043C9.602 8.399 6 9.985 6 15.115c0 6.87 9 13 12 15.284 3-2.288 12-8.414 12-15.284 0-5.13-3.607-6.716-6.246-6.716z"/></g><circle data-name="楕円形 144" cx="2.5" cy="2.5" r="2.5" transform="translate(134.333 25.4)" fill="#ffffff"/></g><g data-name="グループ 3244"><g data-name="グループ 3243"><g data-name="グループ 3242"><g data-name="グループ 3241" fill="#ffffff"><path data-name="パス 6140" d="M152.049 20.36v9.625h-3V20.36h-1.653v-2.522h1.653v-.9q0-4.055 3.624-4.056a6.874 6.874 0 011.036.076 7.593 7.593 0 01.947.2v2.67q-.61-.1-1-.146a6.052 6.052 0 00-.68-.044.819.819 0 00-.712.3 1.811 1.811 0 00-.216 1.024v.877h2.1v2.518z"/><path data-name="パス 6141" d="M160.853 17.55a6.274 6.274 0 012.384.432 4.994 4.994 0 011.812 1.246 5.583 5.583 0 011.157 2 8.228 8.228 0 01.407 2.683 8.11 8.11 0 01-.413 2.683 5.722 5.722 0 01-1.163 2 4.937 4.937 0 01-1.818 1.253 6.679 6.679 0 01-4.711.006 5.013 5.013 0 01-1.818-1.233 5.6 5.6 0 01-1.176-2 8.957 8.957 0 01-.006-5.4 5.653 5.653 0 011.163-2 4.981 4.981 0 011.818-1.246 6.252 6.252 0 012.364-.424zm0 10.185a2.435 2.435 0 001.081-.242 2.258 2.258 0 00.846-.725 3.715 3.715 0 00.547-1.2 7.14 7.14 0 000-3.331 3.639 3.639 0 00-.547-1.189 2.28 2.28 0 00-.846-.718 2.435 2.435 0 00-1.081-.242 2.464 2.464 0 00-1.093.242 2.278 2.278 0 00-.846.718 3.627 3.627 0 00-.547 1.189 7.127 7.127 0 000 3.331 3.7 3.7 0 00.547 1.2 2.256 2.256 0 00.846.725 2.464 2.464 0 001.093.242z"/><path data-name="パス 6142" d="M175.642 20.818a4.8 4.8 0 00-.744-.248 4.355 4.355 0 00-.96-.083 2.1 2.1 0 00-1.119.311 3.828 3.828 0 00-1 .96v8.227h-2.988V17.842h2.988v.7a3.564 3.564 0 012.429-.992 5.2 5.2 0 01.578.038q.337.038.82.14z"/><path data-name="パス 6143" d="M204.621 13.275h-3.251a4.676 4.676 0 00-.6-2.062 5.174 5.174 0 00-1.38-1.562 6.3 6.3 0 00-2-.99 8.522 8.522 0 00-2.47-.345 8.137 8.137 0 00-3.279.636 6.671 6.671 0 00-2.488 1.862 8.578 8.578 0 00-1.58 3.024 15.722 15.722 0 000 8.274 8.754 8.754 0 001.571 3.043 6.658 6.658 0 002.47 1.88 7.878 7.878 0 003.233.645 8.871 8.871 0 002.552-.345 5.777 5.777 0 002-1.026 5.161 5.161 0 001.353-1.662 5.983 5.983 0 00.618-2.271h3.251a8.769 8.769 0 01-.954 3.4 8.076 8.076 0 01-2.068 2.52 8.971 8.971 0 01-2.988 1.571 12.326 12.326 0 01-3.706.536 11.825 11.825 0 01-4.632-.872 9.712 9.712 0 01-3.524-2.5 11.215 11.215 0 01-2.234-3.923 15.877 15.877 0 01-.781-5.131 15.715 15.715 0 01.79-5.131 11.24 11.24 0 012.243-3.914 9.866 9.866 0 013.524-2.5 11.678 11.678 0 014.614-.881 11.48 11.48 0 013.6.554 9.945 9.945 0 013 1.562 8.3 8.3 0 012.134 2.434 7.671 7.671 0 01.982 3.174z"/><path data-name="パス 6144" d="M214.984 12.2a8.847 8.847 0 013.378.617 7.009 7.009 0 012.57 1.789 8.032 8.032 0 011.635 2.861 13.082 13.082 0 01-.009 7.684 8.067 8.067 0 01-1.653 2.861 7.01 7.01 0 01-2.57 1.78 8.833 8.833 0 01-3.351.609 8.733 8.733 0 01-3.315-.609 7.194 7.194 0 01-2.579-1.762 7.9 7.9 0 01-1.671-2.852 13.017 13.017 0 01-.009-7.72 7.958 7.958 0 011.653-2.861 7.143 7.143 0 012.579-1.78 8.746 8.746 0 013.342-.617zm0 15.766a4.717 4.717 0 002-.418 4.193 4.193 0 001.562-1.253 6.119 6.119 0 001.017-2.089 11.815 11.815 0 000-5.813 6.12 6.12 0 00-1.017-2.089 4.2 4.2 0 00-1.562-1.253 5.028 5.028 0 00-4.014 0 4.191 4.191 0 00-1.562 1.253 6.107 6.107 0 00-1.017 2.089 11.807 11.807 0 000 5.813 6.106 6.106 0 001.017 2.089 4.187 4.187 0 001.562 1.253 4.76 4.76 0 002.014.421z"/><path data-name="パス 6145" d="M249.292 29.986h-3.124V18.778a10.1 10.1 0 00-.145-1.853 3.417 3.417 0 00-.463-1.244 1.794 1.794 0 00-.827-.69 3.257 3.257 0 00-1.235-.209q-2.271 0-4.45 2.761v12.443h-3.033V18.778a9.516 9.516 0 00-.154-1.853 3.4 3.4 0 00-.481-1.244 1.846 1.846 0 00-.836-.69 3.256 3.256 0 00-1.235-.209q-2.234 0-4.414 2.761v12.443h-3.07V12.639h3.07v2.2a6.4 6.4 0 014.886-2.634q3.778 0 4.85 3.16a16.6 16.6 0 011.608-1.662 7.632 7.632 0 011.335-.963 3.92 3.92 0 011.19-.436 6.828 6.828 0 011.172-.1q5.358 0 5.358 6.43z"/><path data-name="パス 6146" d="M276.294 29.986h-3.124V18.778a10.1 10.1 0 00-.145-1.853 3.417 3.417 0 00-.463-1.244 1.794 1.794 0 00-.827-.69 3.256 3.256 0 00-1.235-.209q-2.271 0-4.45 2.761v12.443h-3.033V18.778a9.521 9.521 0 00-.154-1.853 3.407 3.407 0 00-.481-1.244 1.847 1.847 0 00-.836-.69 3.257 3.257 0 00-1.235-.209q-2.234 0-4.414 2.761v12.443h-3.07V12.639h3.07v2.2a6.4 6.4 0 014.886-2.634q3.778 0 4.85 3.16a16.6 16.6 0 011.606-1.665 7.625 7.625 0 011.335-.963 3.919 3.919 0 011.19-.436 6.827 6.827 0 011.172-.1q5.358 0 5.358 6.43z"/><path data-name="パス 6147" d="M290.798 27.788a6.87 6.87 0 01-5.213 2.616q-5.886 0-5.885-6.412V12.639h3.124v11.19a8.008 8.008 0 00.182 1.844 3.068 3.068 0 00.572 1.235 2.222 2.222 0 001 .7 4.348 4.348 0 001.462.218q2.6 0 4.759-2.779V12.639h3.07v17.347h-3.071z"/><path data-name="パス 6148" d="M300.516 14.837a8.01 8.01 0 012.452-1.98 6.018 6.018 0 012.725-.654q5.885 0 5.885 6.43v11.353h-3.106V18.778a8.05 8.05 0 00-.182-1.835 3.082 3.082 0 00-.572-1.244 2.223 2.223 0 00-1-.7 4.341 4.341 0 00-1.462-.218q-2.362 0-4.741 2.761v12.443h-3.07V12.639h3.07z"/><path data-name="パス 6149" d="M318.196 9.351h-3.07V6.009h3.07zm0 20.635h-3.07V12.639h3.07z"/><path data-name="パス 6150" d="M328.657 30.004a7.356 7.356 0 01-1.062.182q-.554.055-1.153.054a5.825 5.825 0 01-2.189-.336 2.592 2.592 0 01-1.235-1.008 4.031 4.031 0 01-.554-1.671 18.653 18.653 0 01-.127-2.325v-9.863h-2.143v-2.4h2.143V8.314h3.088v4.323h2.834v2.4h-2.834v10.008a7.125 7.125 0 00.118 1.453 2.149 2.149 0 00.336.835 1.007 1.007 0 00.527.382 2.51 2.51 0 00.708.091q.417 0 .8-.036t.745-.091z"/><path data-name="パス 6151" d="M332.842 33.148c1.526 0 2.208-.365 3.177-3.162l-6.539-17.347h3.342l4.577 13.55 4.614-13.55h3.324l-6.539 17.347c-.388 1.041-.343.958-.712 1.818a12.169 12.169 0 01-1.076 2.225 5.049 5.049 0 01-1.535 1.453 4.022 4.022 0 01-2.089.518 10.491 10.491 0 01-1.1-.054 5.032 5.032 0 01-.936-.182v-2.852a2.943 2.943 0 00.745.191 6.347 6.347 0 00.747.045z"/><g data-name="グループ 3240"><path data-name="パス 6152" d="M363.554 30.403a14.8 14.8 0 01-4.441-.6 8.926 8.926 0 01-3.161-1.68 7.109 7.109 0 01-1.916-2.57 8.76 8.76 0 01-.708-3.288h3.051a5.526 5.526 0 00.727 2.361 5.348 5.348 0 001.535 1.653 6.511 6.511 0 002.153.963 10.522 10.522 0 002.6.309 9.85 9.85 0 002.443-.281 5.874 5.874 0 001.88-.817 3.883 3.883 0 001.208-1.29 3.389 3.389 0 00.427-1.7 3.346 3.346 0 00-.391-1.671 3.309 3.309 0 00-1.272-1.2 10.413 10.413 0 00-2.307-.917q-1.426-.409-3.515-.845a22.673 22.673 0 01-3.479-1.044 8.781 8.781 0 01-2.4-1.381 5.053 5.053 0 01-1.39-1.807 5.739 5.739 0 01-.454-2.362 5.834 5.834 0 01.617-2.661 6.193 6.193 0 011.744-2.107 8.531 8.531 0 012.7-1.38 11.442 11.442 0 013.479-.5 12.979 12.979 0 013.678.49 8.631 8.631 0 012.87 1.426 6.685 6.685 0 011.889 2.271 7.066 7.066 0 01.736 3.024h-3.07q-.491-4.341-5.958-4.341a7.233 7.233 0 00-4.114.99 3.089 3.089 0 00-1.444 2.679 2.919 2.919 0 00.263 1.3 2.4 2.4 0 00.908.944 7.391 7.391 0 001.7.745 26.5 26.5 0 002.634.663q1.072.217 2.207.472a20.77 20.77 0 012.216.627 12.862 12.862 0 012.034.9 7.019 7.019 0 011.671 1.271 5.554 5.554 0 011.135 1.762 6.234 6.234 0 01.418 2.379 6.412 6.412 0 01-.663 2.906 6.79 6.79 0 01-1.853 2.28 8.9 8.9 0 01-2.825 1.489 11.375 11.375 0 01-3.562.538z"/><path data-name="パス 6153" d="M386.219 27.787a6.871 6.871 0 01-5.213 2.616q-5.886 0-5.885-6.412V12.638h3.124V23.83a8.009 8.009 0 00.181 1.844 3.074 3.074 0 00.572 1.235 2.223 2.223 0 001 .7 4.35 4.35 0 001.462.218q2.6 0 4.759-2.779v-12.41h3.07v17.347h-3.07z"/><path data-name="パス 6154" d="M395.517 14.691a6.224 6.224 0 014.959-2.488 6.916 6.916 0 013.043.645 6.314 6.314 0 012.252 1.816 8.171 8.171 0 011.39 2.825 13.327 13.327 0 01.472 3.669 12.126 12.126 0 01-.563 3.815 9.081 9.081 0 01-1.544 2.915 6.809 6.809 0 01-2.325 1.862 6.6 6.6 0 01-2.925.654 7.6 7.6 0 01-2.6-.427 6.327 6.327 0 01-2.162-1.335v7.347h-3.07v-23.35h3.07zm0 11.171a6.188 6.188 0 004.578 2.107 3.636 3.636 0 003.151-1.717 9.069 9.069 0 001.172-5.1 8.786 8.786 0 00-1.108-4.859 3.512 3.512 0 00-3.088-1.662q-2.579 0-4.7 2.979z"/><path data-name="パス 6155" d="M412.681 14.691a6.224 6.224 0 014.959-2.488 6.912 6.912 0 013.042.645 6.315 6.315 0 012.253 1.816 8.169 8.169 0 011.389 2.825 13.345 13.345 0 01.472 3.669 12.148 12.148 0 01-.563 3.815 9.089 9.089 0 01-1.544 2.915 6.809 6.809 0 01-2.325 1.862 6.594 6.594 0 01-2.924.654 7.593 7.593 0 01-2.6-.427 6.322 6.322 0 01-2.162-1.335v7.347h-3.07v-23.35h3.07zm0 11.171a6.187 6.187 0 004.577 2.107 3.636 3.636 0 003.151-1.717 9.069 9.069 0 001.172-5.1 8.785 8.785 0 00-1.108-4.859 3.512 3.512 0 00-3.088-1.662q-2.579 0-4.7 2.979z"/><path data-name="パス 6156" d="M434.849 12.202a8.848 8.848 0 013.379.617 7.01 7.01 0 012.57 1.789 8.027 8.027 0 011.635 2.861 13.085 13.085 0 01-.009 7.683 8.062 8.062 0 01-1.653 2.861 7.008 7.008 0 01-2.57 1.78 8.835 8.835 0 01-3.351.609 8.734 8.734 0 01-3.315-.609 7.192 7.192 0 01-2.579-1.762 7.889 7.889 0 01-1.671-2.852 13.009 13.009 0 01-.009-7.72 7.959 7.959 0 011.653-2.861 7.144 7.144 0 012.58-1.78 8.744 8.744 0 013.34-.616zm0 15.766a4.717 4.717 0 002-.418 4.191 4.191 0 001.562-1.253 6.117 6.117 0 001.017-2.089 11.8 11.8 0 000-5.813 6.12 6.12 0 00-1.017-2.089 4.2 4.2 0 00-1.562-1.253 5.027 5.027 0 00-4.014 0 4.194 4.194 0 00-1.562 1.253 6.116 6.116 0 00-1.017 2.089 11.819 11.819 0 000 5.813 6.113 6.113 0 001.017 2.089 4.188 4.188 0 001.562 1.253 4.758 4.758 0 002.014.419z"/><path data-name="パス 6157" d="M454.276 15.454a6.21 6.21 0 00-1.871-.218 4.1 4.1 0 00-2.2.618 6.6 6.6 0 00-1.871 1.853v12.279h-3.07V12.639h3.07v2.4q1.962-2.833 4.542-2.833a7.751 7.751 0 011.4.145z"/><path data-name="パス 6158" d="M464.621 30.003a7.407 7.407 0 01-1.063.182q-.554.055-1.153.054a5.827 5.827 0 01-2.188-.336 2.592 2.592 0 01-1.235-1.008 4.032 4.032 0 01-.554-1.671 18.651 18.651 0 01-.127-2.325v-9.863h-2.143v-2.4h2.143V8.313h3.088v4.323h2.834v2.4h-2.834v10.008a7.116 7.116 0 00.118 1.453 2.151 2.151 0 00.336.835 1.007 1.007 0 00.527.382 2.511 2.511 0 00.708.091q.417 0 .8-.036t.745-.091z"/></g></g></g></g></g></svg>
