<svg xmlns="http://www.w3.org/2000/svg" viewBox="0 0 524.46007 180.00005"><defs><style>.cls-1{fill:none;}.cls-2{fill:#f50a00;}</style></defs><title>アセット 1</title><g id="レイヤー_2" data-name="レイヤー 2"><g id="レイヤー_1-2" data-name="レイヤー 1"><rect class="cls-1" width="524.46007" height="180.00005"/><path class="cls-2" d="M194.35,47.00042c-19.75,0-28.75,13.5-28.75,30.99991,0,17.5001,9,31.0001,28.75,31.0001s28.75-13.5,28.75-31.0001C223.1,60.50042,214.10005,47.00042,194.35,47.00042Zm0,51.5c-10.25,0-15.75-6.5-15.75-20.5001,0-13.9999,5.5-20.49991,15.75-20.49991s15.75,6.5,15.75,20.49991C210.1,92.00043,204.6,98.50043,194.35,98.50043Z"/><path class="cls-2" d="M364.35,63.61687l13.5,44.38356a31.69838,31.69838,0,0,0,6.75.5c5.25.00065,6.25-.5,6.25-.5l-21-60s-1-.5-5.5-.5-5.5.5-5.5.5l-21,60s1,.50066,6.25.5a31.69827,31.69827,0,0,0,6.75-.5Z"/><path class="cls-2" d="M338.85,47.50041a31.6446,31.6446,0,0,0-6.75.5L324.0175,91.10723,313.6,48.00042s-1-.5-5.25-.5-5.25.5-5.25.5L292.68257,91.10723,284.6,48.00042a31.64483,31.64483,0,0,0-6.75-.5c-5.5,0-6.5.5-6.5.5l14.5,60s1,.50044,5.25.5c6-.0006,8-.5,8-.5l9.25-38.27588,9.25,38.27588s2,.49941,8,.5c4.25.00043,5.25-.5,5.25-.5l14.5-60S344.35005,47.50041,338.85,47.50041Z"/><path class="cls-2" d="M428.10005,47.50041a31.64442,31.64442,0,0,0-6.75.5L408.1,95.46312l-13.25-47.4627a31.64431,31.64431,0,0,0-6.75-.5c-5.5,0-6.5.5-6.5.5l19.25,60s1,.5,7.25.5,7.25-.5,7.25-.5l19.25-60S433.6,47.50041,428.10005,47.50041Z"/><path class="cls-2" d="M253.6,77.001l18.5-29.0006s-1-.5-6.5-.5a34.61954,34.61954,0,0,0-7.25.5L240.6,77.001l18.75,30.99941a34.61972,34.61972,0,0,0,7.25.5c5.5,0,6.5-.5,6.5-.5Z"/><path class="cls-2" d="M226.1,48.00042v60s1,.5,6.25.5,6.25-.5,6.25-.5v-60s-1-.49941-6.25-.5S226.1,48.00042,226.1,48.00042Z"/><path class="cls-2" d="M450.10005,97.50042v-15.25h22.5s.5-1,.5-5.25-.5-5.25-.5-5.25h-22.5v-13.25h26.5s.5-1,.5-5.25-.5-5.25-.5-5.25h-39v60h39s.5-1,.5-5.25-.5-5.25-.5-5.25Z"/><path class="cls-2" d="M177.22125,131.84844h-.05481V133.479h-4.33V112.70616h4.33v8.85176h.05481a5.137,5.137,0,0,1,4.56291-2.45273,5.00831,5.00831,0,0,1,4.17923,1.86353,8.036,8.036,0,0,1,1.46616,5.0973,8.70542,8.70542,0,0,1-1.7128,5.63169,5.57908,5.57908,0,0,1-4.57661,2.12388A4.42043,4.42043,0,0,1,177.22125,131.84844Zm-.12332-5.91945v1.43876a3.28483,3.28483,0,0,0,.781,2.24719,2.539,2.539,0,0,0,2.00055.89066,2.65362,2.65362,0,0,0,2.29515-1.14477,5.52436,5.52436,0,0,0,.8153-3.24,4.39453,4.39453,0,0,0-.74678-2.71931,2.519,2.519,0,0,0-2.13073-.98035,2.75011,2.75011,0,0,0-2.15813.97287A3.69525,3.69525,0,0,0,177.09793,125.929Z"/><path class="cls-2" d="M218.46055,127.6966h-9.15321q.21861,3.055,3.85038,3.05564a7.5156,7.5156,0,0,0,4.06961-1.09619v3.12415a10.69724,10.69724,0,0,1-5.05619,1.04139,6.5315,6.5315,0,0,1-7.15266-7.139,7.50867,7.50867,0,0,1,2.028-5.53578,6.75385,6.75385,0,0,1,4.98768-2.04166,6.1342,6.1342,0,0,1,4.74789,1.82242,7.01936,7.01936,0,0,1,1.67854,4.94657Zm-4.01481-2.65826q0-3.01392-2.439-3.01454a2.3284,2.3284,0,0,0-1.80187.86326,3.91936,3.91936,0,0,0-.92491,2.15128Z"/><path class="cls-2" d="M235.96415,133.10906v-3.50782a9.21481,9.21481,0,0,0,2.13072.95917,7.04792,7.04792,0,0,0,2.00741.31516,4.30023,4.30023,0,0,0,1.81557-.31516,1.01848,1.01848,0,0,0,.66457-.95917.8894.8894,0,0,0-.30146-.68512,2.79543,2.79543,0,0,0-.77418-.47958,8.79813,8.79813,0,0,0-1.03454-.37q-.56241-.16443-1.08249-.37a10.45438,10.45438,0,0,1-1.473-.67764,4.26912,4.26912,0,0,1-1.06879-.84332,3.3204,3.3204,0,0,1-.65771-1.1099,4.42731,4.42731,0,0,1-.22609-1.49356,3.845,3.845,0,0,1,.51384-2.028,4.19713,4.19713,0,0,1,1.37024-1.39142,6.28454,6.28454,0,0,1,1.95945-.79474,10.26187,10.26187,0,0,1,2.29515-.25287,12.90732,12.90732,0,0,1,1.89094.14325,14.273,14.273,0,0,1,1.89093.41855v3.34339a6.85485,6.85485,0,0,0-1.76076-.72,7.44671,7.44671,0,0,0-1.843-.23917,4.11284,4.11284,0,0,0-.80159.07474,2.72015,2.72015,0,0,0-.66457.21924,1.22307,1.22307,0,0,0-.45218.37121.84718.84718,0,0,0-.16442.51322.95068.95068,0,0,0,.24664.65771,2.14513,2.14513,0,0,0,.644.47336,6.49339,6.49339,0,0,0,.88381.35626q.4858.157.966.32139a12.43594,12.43594,0,0,1,1.56208.65771,5.003,5.003,0,0,1,1.199.83585,3.28524,3.28524,0,0,1,.76733,1.1236,4.49707,4.49707,0,0,1-.274,3.666,4.33735,4.33735,0,0,1-1.43875,1.43751,6.50863,6.50863,0,0,1-2.06907.80968,11.52592,11.52592,0,0,1-2.43217.25288A12.54748,12.54748,0,0,1,235.96415,133.10906Z"/><path class="cls-2" d="M274.97992,133.3146a6.40648,6.40648,0,0,1-2.89121.507q-4.57692,0-4.57661-4.75474v-6.42644h-2.2746v-3.19266h2.2746v-3.02824l4.31626-1.23322v4.26146h3.15156v3.19266h-3.15156v5.6728q0,2.19177,1.74021,2.19239a2.93112,2.93112,0,0,0,1.41135-.39737Z"/><path class="cls-2" d="M324.13237,133.479h-4.097v-2.01426h-.05481a4.57425,4.57425,0,0,1-4.17924,2.35682,4.37391,4.37391,0,0,1-3.21322-1.15724,4.151,4.151,0,0,1-1.17156-3.09051q0-4.0827,4.837-4.71364l3.80927-.507q0-2.302-2.49384-2.302a8.51552,8.51552,0,0,0-4.76844,1.49356V120.2836a10.76,10.76,0,0,1,2.47329-.82215,12.9733,12.9733,0,0,1,2.857-.35626q6.00167,0,6.00166,5.988Zm-4.06962-5.70021v-.94547l-2.54865.32886q-2.11049.27466-2.11017,1.90464a1.57708,1.57708,0,0,0,.51384,1.21328,1.9795,1.9795,0,0,0,1.39079.47211,2.56071,2.56071,0,0,0,1.98686-.84332A3.04174,3.04174,0,0,0,320.06275,127.77882Z"/><path class="cls-2" d="M355.60461,133.479h-4.31626v-7.79668q0-3.26055-2.32941-3.26118a2.3107,2.3107,0,0,0-1.84983.86326,3.2873,3.2873,0,0,0-.72622,2.19238V133.479h-4.33V119.44775h4.33v2.21979h.0548a4.96238,4.96238,0,0,1,4.5081-2.56235q4.65821,0,4.65882,5.78242Z"/><path class="cls-2" d="M373.16738,133.10906v-3.50782a9.21487,9.21487,0,0,0,2.13073.95917,7.0478,7.0478,0,0,0,2.0074.31516,4.3002,4.3002,0,0,0,1.81557-.31516,1.01848,1.01848,0,0,0,.66457-.95917.88942.88942,0,0,0-.30145-.68512,2.79565,2.79565,0,0,0-.77419-.47958,8.7986,8.7986,0,0,0-1.03453-.37q-.56243-.16443-1.0825-.37a10.45491,10.45491,0,0,1-1.473-.67764,4.26907,4.26907,0,0,1-1.06878-.84332,3.32042,3.32042,0,0,1-.65772-1.1099,4.42731,4.42731,0,0,1-.22609-1.49356,3.845,3.845,0,0,1,.51384-2.028,4.19713,4.19713,0,0,1,1.37024-1.39142,6.28454,6.28454,0,0,1,1.95945-.79474,10.26194,10.26194,0,0,1,2.29515-.25287,12.90732,12.90732,0,0,1,1.89094.14325,14.273,14.273,0,0,1,1.89093.41855v3.34339a6.85485,6.85485,0,0,0-1.76076-.72,7.44669,7.44669,0,0,0-1.843-.23917,4.11287,4.11287,0,0,0-.8016.07474,2.71992,2.71992,0,0,0-.66456.21924,1.223,1.223,0,0,0-.45218.37121.84713.84713,0,0,0-.16443.51322.95068.95068,0,0,0,.24664.65771,2.14526,2.14526,0,0,0,.644.47336,6.49339,6.49339,0,0,0,.88381.35626q.48582.157.966.32139a12.43594,12.43594,0,0,1,1.56208.65771,5.003,5.003,0,0,1,1.199.83585,3.28524,3.28524,0,0,1,.76733,1.1236,4.49711,4.49711,0,0,1-.274,3.666,4.33738,4.33738,0,0,1-1.43876,1.43751,6.50858,6.50858,0,0,1-2.06906.80968,11.52608,11.52608,0,0,1-2.43218.25288A12.54748,12.54748,0,0,1,373.16738,133.10906Z"/><path class="cls-2" d="M420.09471,119.44775,416.05249,133.479h-4.5492l-2.06906-8.22146a8.35382,8.35382,0,0,1-.233-1.795h-.08221a10.80231,10.80231,0,0,1-.27405,1.7402l-2.21979,8.27627h-4.49439l-3.96-14.03128H402.583l1.932,9.15321a12.06512,12.06512,0,0,1,.20553,1.56208h.08222a8.62152,8.62152,0,0,1,.24664-1.61689l2.41163-9.0984h4.12443l2.165,9.15321a14.66436,14.66436,0,0,1,.19183,1.58948h.09592a15.63914,15.63914,0,0,1,.21924-1.58948l1.82242-9.15321Z"/><path class="cls-2" d="M447.41394,127.6966h-9.15321q.21861,3.055,3.85038,3.05564a7.5156,7.5156,0,0,0,4.06961-1.09619v3.12415a10.69724,10.69724,0,0,1-5.05619,1.04139,6.5315,6.5315,0,0,1-7.15266-7.139,7.50867,7.50867,0,0,1,2.028-5.53578,6.75385,6.75385,0,0,1,4.98768-2.04166,6.1342,6.1342,0,0,1,4.74789,1.82242,7.01936,7.01936,0,0,1,1.67854,4.94657Zm-4.01481-2.65826q0-3.01392-2.439-3.01454a2.3284,2.3284,0,0,0-1.80187.86326,3.91943,3.91943,0,0,0-.92491,2.15128Z"/><path class="cls-2" d="M473.7055,123.35294a3.76184,3.76184,0,0,0-1.82243-.42478,2.62639,2.62639,0,0,0-2.20609,1.03391,4.5155,4.5155,0,0,0-.79474,2.81647V133.479h-4.33V119.44775h4.33v2.60346h.05481a3.74624,3.74624,0,0,1,3.69966-2.85011,2.78977,2.78977,0,0,1,1.06879.16443Z"/><circle class="cls-2" cx="486.18183" cy="131.54335" r="2.27823"/><path class="cls-2" d="M90.00255,36.00006C44.7438,36.00006,36,44.7434,36,90.00028,36,135.2567,44.7438,144,90.00255,144,135.25928,144,144,135.2567,144,90.00028,144,44.7434,135.25928,36.00006,90.00255,36.00006Zm-.00025,102.6c-42,0-48.60229-6.6-48.60229-48.59983C41.4,48.00005,48.0023,41.4,90.0023,41.4S138.6,48.00005,138.6,90.00023C138.6,132,132.0023,138.60006,90.0023,138.60006Z"/><path class="cls-2" d="M107.26379,61.19748A18.761,18.761,0,0,0,90,73.32521,18.761,18.761,0,0,0,72.73625,61.19748C64.80851,61.19748,54,65.95646,54,81.34611c0,20.61036,27.007,38.98712,36,45.85138,8.99326-6.86426,36-25.241,36-45.85138C126,65.95646,115.19153,61.19748,107.26379,61.19748Z"/></g></g></svg>