<svg xmlns="http://www.w3.org/2000/svg" viewBox="0 0 1322 300"><defs><style>.cls-1{fill:#141f42}</style></defs><g id="レイヤー_2" data-name="レイヤー 2"><g id="レイヤー_1-2" data-name="レイヤー 1"><path class="cls-1" d="M334.42 88c-39.6 0-57.65 27-57.65 62s18.05 62 57.65 62 57.65-27 57.65-62S374 88 334.42 88Zm0 103c-20.55 0-31.58-13-31.58-41s11-41 31.58-41S366 122 366 150s-11 40.93-31.58 40.93ZM661.82 165.44l13.5-44.24 13.5 44.24 6.09 20 7.48 24.49s4 1 13.53 1c10.53 0 12.53-1 12.53-1L686.34 90s-2-1-11-1-11 1-11 1l-42.11 120s2 1 12.53 1c9.52 0 13.53-1 13.53-1l7.48-24.49ZM624.18 89c-9.52 0-13.53 1-13.53 1l-16.21 86.18L573.55 90s-2-1-10.53-1-10.53 1-10.53 1l-20.89 86.15L515.4 90s-4-1-13.54-1c-11 0-13 1-13 1l29.07 120s2 1 10.53 1c12 0 16-1 16-1L563 133.41l18.55 76.52s4 1 16 1c8.52 0 10.53-1 10.53-1L637.22 90s-2.01-1-13.04-1ZM799.57 89c-9.52 0-13.57 1-13.57 1l-26.57 94.89L732.9 90s-4-1-13.54-1c-11 0-13 1-13 1l38.6 120s2 1 14.54 1 14.54-1 14.54-1l38.6-120s-2.04-1-13.07-1Z"/><path class="cls-1" d="m453.23 148 37.1-58s-2-1-13-1c-10.53 0-14.54 1-14.54 1l-35.59 58 37.59 62s4 1 14.54 1c11 0 13-1 13-1ZM398 90.13v119.64s2 1 12.5 1 12.5-1 12.5-1V90.13s-2-1-12.5-1-12.5 1-12.5 1ZM844 189v-31h45.14s1-2 1-10.5-1-10.5-1-10.5H844v-26h53s1-2 1-10.5-1-10.5-1-10.5h-78v120h78s1-2 1-10.5-1-10.5-1-10.5ZM150.45 60c-75.41 0-90 14.57-90 90s14.56 90 90 90 90-14.57 90-90-14.61-90-90-90Zm0 170.93c-70 0-81-11-81-81s11-81 81-81 81 11 81 81-11.03 80.99-81.01 80.99Z"/><path class="cls-1" d="M179.2 102c-12.93 0-24 8.33-28.76 20.2-4.74-11.9-15.83-20.2-28.76-20.2-13.21 0-31.21 7.93-31.21 33.57 0 34.33 45 65 60 76.38 15-11.43 60-42 60-76.38-.05-25.67-18.06-33.57-31.27-33.57ZM1054 82.79s-2-1-12.5-1-12.5 1-12.5 1v127.33s2 1 12.5 1 12.5-1 12.5-1V82.79ZM971 89.12c-20 0-37 1-37 1v120s2 1 12.5 1 12.5-1 12.5-1v-44.5s8 .5 12 .5c41 0 50-17 50-38.5 0-34.5-22-38.5-50-38.5Zm0 59c-4 0-12-.5-12-.5v-40s2-.5 12-.5c16 0 27 2 27 20.49 0 16.51-11 20.51-27 20.51ZM1152.94 188c4.88 3 16.84 5.51 24.67 5.92 6.33.33 13-.15 13.55-7.37.34-4.43-6.48-6.54-16.29-10.15-18.82-5.92-26.2-16.47-24.87-29.4s13.76-24.51 36.23-24.51c10.63 0 20.38 2.33 26 4.94l-5.68 18.15c-4-1.92-12.51-4.2-19.41-5.18-4.06-.59-10.43 0-11.57 5.58-1.31 6.52 10.75 9.19 20.45 13.55 15.76 7.09 21.82 14.33 20.08 28.94-1.92 16-12 23.65-38.9 23.65-11.85 0-23.12-1.59-29.92-5.07ZM1064 183.82a10.4 10.4 0 0 0 .1 1.45c0 15.28 10.71 26.51 27.65 26.51a28.63 28.63 0 0 0 22.25-10.27v8.43s2 1 12.5 1 12.5-1 12.5-1V122.4s-2-1-12.5-1-12.5 1-12.5 1v50.89s.73 13.27-12.17 13.27c-14.12 0-12.83-12.66-12.83-12.66v-51.49s-2-1-12.5-1-12.5 1-12.5 1ZM1261.57 95.5c0-4.62-.44-5.5-.44-5.5H1239V67.87s-.88-.44-5.5-.44-5.5.44-5.5.44V90h-22.13s-.44.88-.44 5.5.44 5.5.44 5.5H1228v22.13s.88.44 5.5.44 5.5-.44 5.5-.44V101h22.13s.44-.88.44-5.5Z"/><path fill="none" d="M0 0h1322v300H0z"/></g></g></svg>
