<?xml version="1.0" encoding="utf-8"?>
<!-- Generator: Adobe Illustrator 22.1.0, SVG Export Plug-In . SVG Version: 6.00 Build 0)  -->
<svg version="1.1" id="レイヤー_1" xmlns="http://www.w3.org/2000/svg" xmlns:xlink="http://www.w3.org/1999/xlink" x="0px"
	 y="0px" viewBox="0 0 350 350" style="enable-background:new 0 0 350 350;" xml:space="preserve">
<style type="text/css">
	.st0{fill:none;}
	.st1{fill:#FFFFFF;}
</style>
<g>
	<rect class="st0" width="350" height="350"/>
	<g>
		<g>
			<path class="st1" d="M76.4,232.8c-15.5,0-22.5,10.6-22.5,24.3c0,13.7,7.1,24.3,22.5,24.3c15.5,0,22.5-10.6,22.5-24.3
				C98.9,243.4,91.9,232.8,76.4,232.8z M76.4,273.2c-8,0-12.4-5.1-12.4-16.1c0-11,4.3-16.1,12.4-16.1c8,0,12.4,5.1,12.4,16.1
				C88.7,268.1,84.4,273.2,76.4,273.2z"/>
			<path class="st1" d="M209.7,245.8l10.6,34.8c0,0,1.6,0.4,5.3,0.4c4.1,0,4.9-0.4,4.9-0.4L214,233.6c0,0-0.8-0.4-4.3-0.4
				c-3.5,0-4.3,0.4-4.3,0.4l-16.5,47.1c0,0,0.8,0.4,4.9,0.4c3.7,0,5.3-0.4,5.3-0.4L209.7,245.8z"/>
			<path class="st1" d="M189.7,233.2c-3.7,0-5.3,0.4-5.3,0.4l-6.3,33.8l-8.2-33.8c0,0-0.8-0.4-4.1-0.4s-4.1,0.4-4.1,0.4l-8.2,33.8
				l-6.3-33.8c0,0-1.6-0.4-5.3-0.4c-4.3,0-5.1,0.4-5.1,0.4l11.4,47.1c0,0,0.8,0.4,4.1,0.4c4.7,0,6.3-0.4,6.3-0.4l7.3-30l7.3,30
				c0,0,1.6,0.4,6.3,0.4c3.3,0,4.1-0.4,4.1-0.4l11.4-47.1C194.8,233.6,194,233.2,189.7,233.2z"/>
			<path class="st1" d="M259.7,233.2c-3.7,0-5.3,0.4-5.3,0.4L244,270.8l-10.4-37.2c0,0-1.6-0.4-5.3-0.4c-4.3,0-5.1,0.4-5.1,0.4
				l15.1,47.1c0,0,0.8,0.4,5.7,0.4s5.7-0.4,5.7-0.4l15.1-47.1C264.8,233.6,264,233.2,259.7,233.2z"/>
			<path class="st1" d="M122.9,256.3l14.5-22.7c0,0-0.8-0.4-5.1-0.4c-4.1,0-5.7,0.4-5.7,0.4l-13.9,22.7l14.7,24.3
				c0,0,1.6,0.4,5.7,0.4c4.3,0,5.1-0.4,5.1-0.4L122.9,256.3z"/>
			<path class="st1" d="M101.3,233.6v47.1c0,0,0.8,0.4,4.9,0.4c4.1,0,4.9-0.4,4.9-0.4v-47.1c0,0-0.8-0.4-4.9-0.4
				C102.1,233.2,101.3,233.6,101.3,233.6z"/>
			<path class="st1" d="M277,272.4v-12h17.6c0,0,0.4-0.8,0.4-4.1c0-3.3-0.4-4.1-0.4-4.1H277v-10.4h20.8l0,0c0,0,0.4-0.8,0.4-4.1
				c0-3.3-0.4-4.1-0.4-4.1h-30.6v47.1h30.6c0,0,0.4-0.8,0.4-4.1c0-3.3-0.4-4.1-0.4-4.1H277z"/>
		</g>
		<g>
			<path class="st1" d="M175,54.9c-67.8,0-80.9,13.1-80.9,80.9c0,67.8,13.1,80.9,80.9,80.9c67.8,0,80.9-13.1,80.9-80.9
				C255.9,68,242.8,54.9,175,54.9z M175,208.5c-62.9,0-72.8-9.9-72.8-72.8c0-62.9,9.9-72.8,72.8-72.8s72.8,9.9,72.8,72.8
				C247.8,198.7,237.9,208.5,175,208.5z"/>
			<path class="st1" d="M200.9,92.6c-11.6,0-21.6,7.5-25.9,18.2c-4.3-10.7-14.2-18.2-25.9-18.2c-11.9,0-28.1,7.1-28.1,30.2
				c0,30.9,40.5,58.4,53.9,68.7c13.5-10.3,53.9-37.8,53.9-68.7C228.9,99.7,212.7,92.6,200.9,92.6z"/>
		</g>
		<g>
			<path class="st1" d="M62.6,301.4L62.6,301.4l0,1.3h-3.4v-16.3h3.4v6.9h0c0.8-1.3,2-1.9,3.6-1.9c1.4,0,2.5,0.5,3.3,1.5
				c0.8,1,1.1,2.3,1.1,4c0,1.8-0.4,3.3-1.3,4.4c-0.9,1.1-2.1,1.7-3.6,1.7C64.3,302.9,63.3,302.4,62.6,301.4z M62.5,296.8v1.1
				c0,0.7,0.2,1.3,0.6,1.8s0.9,0.7,1.6,0.7c0.8,0,1.4-0.3,1.8-0.9c0.4-0.6,0.6-1.4,0.6-2.5c0-0.9-0.2-1.6-0.6-2.1
				c-0.4-0.5-0.9-0.8-1.7-0.8c-0.7,0-1.2,0.3-1.7,0.8C62.7,295.3,62.5,295.9,62.5,296.8z"/>
			<path class="st1" d="M94.9,298.1h-7.2c0.1,1.6,1.1,2.4,3,2.4c1.2,0,2.3-0.3,3.2-0.9v2.4c-1,0.5-2.3,0.8-4,0.8
				c-1.8,0-3.2-0.5-4.1-1.5c-1-1-1.5-2.4-1.5-4.1c0-1.8,0.5-3.3,1.6-4.3c1.1-1.1,2.4-1.6,3.9-1.6c1.6,0,2.8,0.5,3.7,1.4
				c0.9,1,1.3,2.2,1.3,3.9V298.1z M91.8,296.1c0-1.6-0.6-2.4-1.9-2.4c-0.5,0-1,0.2-1.4,0.7s-0.6,1-0.7,1.7H91.8z"/>
			<path class="st1" d="M108.6,302.4v-2.8c0.6,0.3,1.1,0.6,1.7,0.8c0.6,0.2,1.1,0.2,1.6,0.2c0.6,0,1.1-0.1,1.4-0.2
				c0.3-0.2,0.5-0.4,0.5-0.8c0-0.2-0.1-0.4-0.2-0.5c-0.2-0.1-0.4-0.3-0.6-0.4s-0.5-0.2-0.8-0.3c-0.3-0.1-0.6-0.2-0.8-0.3
				c-0.4-0.2-0.8-0.3-1.2-0.5c-0.3-0.2-0.6-0.4-0.8-0.7s-0.4-0.5-0.5-0.9s-0.2-0.7-0.2-1.2c0-0.6,0.1-1.1,0.4-1.6s0.6-0.8,1.1-1.1
				c0.4-0.3,1-0.5,1.5-0.6c0.6-0.1,1.2-0.2,1.8-0.2c0.5,0,1,0,1.5,0.1c0.5,0.1,1,0.2,1.5,0.3v2.6c-0.4-0.3-0.9-0.4-1.4-0.6
				c-0.5-0.1-1-0.2-1.4-0.2c-0.2,0-0.4,0-0.6,0.1c-0.2,0-0.4,0.1-0.5,0.2c-0.2,0.1-0.3,0.2-0.4,0.3c-0.1,0.1-0.1,0.3-0.1,0.4
				c0,0.2,0.1,0.4,0.2,0.5s0.3,0.3,0.5,0.4c0.2,0.1,0.4,0.2,0.7,0.3c0.3,0.1,0.5,0.2,0.8,0.3c0.5,0.2,0.9,0.3,1.2,0.5
				s0.7,0.4,0.9,0.7c0.3,0.3,0.5,0.5,0.6,0.9s0.2,0.7,0.2,1.2c0,0.7-0.1,1.2-0.4,1.7c-0.3,0.5-0.7,0.8-1.1,1.1
				c-0.5,0.3-1,0.5-1.6,0.6c-0.6,0.1-1.2,0.2-1.9,0.2C110.8,302.9,109.7,302.8,108.6,302.4z"/>
			<path class="st1" d="M139.2,302.5c-0.5,0.3-1.3,0.4-2.3,0.4c-2.4,0-3.6-1.2-3.6-3.7v-5h-1.8v-2.5h1.8v-2.4l3.4-1v3.3h2.5v2.5
				h-2.5v4.4c0,1.1,0.5,1.7,1.4,1.7c0.4,0,0.7-0.1,1.1-0.3V302.5z"/>
			<path class="st1" d="M177.8,302.7h-3.2v-1.6h0c-0.7,1.2-1.8,1.8-3.3,1.8c-1.1,0-1.9-0.3-2.5-0.9c-0.6-0.6-0.9-1.4-0.9-2.4
				c0-2.1,1.3-3.4,3.8-3.7l3-0.4c0-1.2-0.7-1.8-2-1.8c-1.3,0-2.6,0.4-3.7,1.2v-2.6c0.5-0.2,1.1-0.5,1.9-0.6c0.8-0.2,1.6-0.3,2.2-0.3
				c3.1,0,4.7,1.6,4.7,4.7V302.7z M174.6,298.2v-0.7l-2,0.3c-1.1,0.1-1.7,0.6-1.7,1.5c0,0.4,0.1,0.7,0.4,1c0.3,0.2,0.6,0.4,1.1,0.4
				c0.6,0,1.2-0.2,1.6-0.7C174.4,299.4,174.6,298.9,174.6,298.2z"/>
			<path class="st1" d="M203.2,302.9h-3.4v-6.1c0-1.7-0.6-2.6-1.8-2.6c-0.6,0-1.1,0.2-1.5,0.7c-0.4,0.5-0.6,1-0.6,1.7v6.3h-3.4v-11
				h3.4v1.7h0c0.8-1.3,2-2,3.5-2c2.4,0,3.7,1.5,3.7,4.5V302.9z"/>
			<path class="st1" d="M216.5,302.4v-2.8c0.6,0.3,1.1,0.6,1.7,0.8c0.6,0.2,1.1,0.2,1.6,0.2c0.6,0,1.1-0.1,1.4-0.2
				c0.3-0.2,0.5-0.4,0.5-0.8c0-0.2-0.1-0.4-0.2-0.5c-0.2-0.1-0.4-0.3-0.6-0.4s-0.5-0.2-0.8-0.3c-0.3-0.1-0.6-0.2-0.8-0.3
				c-0.4-0.2-0.8-0.3-1.2-0.5c-0.3-0.2-0.6-0.4-0.8-0.7s-0.4-0.5-0.5-0.9s-0.2-0.7-0.2-1.2c0-0.6,0.1-1.1,0.4-1.6s0.6-0.8,1.1-1.1
				c0.4-0.3,1-0.5,1.5-0.6c0.6-0.1,1.2-0.2,1.8-0.2c0.5,0,1,0,1.5,0.1c0.5,0.1,1,0.2,1.5,0.3v2.6c-0.4-0.3-0.9-0.4-1.4-0.6
				c-0.5-0.1-1-0.2-1.4-0.2c-0.2,0-0.4,0-0.6,0.1c-0.2,0-0.4,0.1-0.5,0.2c-0.2,0.1-0.3,0.2-0.4,0.3c-0.1,0.1-0.1,0.3-0.1,0.4
				c0,0.2,0.1,0.4,0.2,0.5s0.3,0.3,0.5,0.4c0.2,0.1,0.4,0.2,0.7,0.3c0.3,0.1,0.5,0.2,0.8,0.3c0.5,0.2,0.9,0.3,1.2,0.5
				s0.7,0.4,0.9,0.7c0.3,0.3,0.5,0.5,0.6,0.9s0.2,0.7,0.2,1.2c0,0.7-0.1,1.2-0.4,1.7c-0.3,0.5-0.7,0.8-1.1,1.1
				c-0.5,0.3-1,0.5-1.6,0.6c-0.6,0.1-1.2,0.2-1.9,0.2C218.7,302.9,217.6,302.8,216.5,302.4z"/>
			<path class="st1" d="M254.2,291.9l-3.2,11h-3.6l-1.6-6.4c-0.1-0.4-0.2-0.9-0.2-1.4h-0.1c-0.1,0.6-0.1,1-0.2,1.4l-1.7,6.5h-3.5
				l-3.1-11h3.5l1.5,7.2c0.1,0.3,0.1,0.7,0.2,1.2h0.1c0-0.5,0.1-0.9,0.2-1.3l1.9-7.1h3.2l1.7,7.2c0,0.2,0.1,0.6,0.2,1.2h0.1
				c0-0.4,0.1-0.8,0.2-1.2l1.4-7.2H254.2z"/>
			<path class="st1" d="M274.2,298.1h-7.2c0.1,1.6,1.1,2.4,3,2.4c1.2,0,2.3-0.3,3.2-0.9v2.4c-1,0.5-2.3,0.8-4,0.8
				c-1.8,0-3.2-0.5-4.1-1.5c-1-1-1.5-2.4-1.5-4.1c0-1.8,0.5-3.3,1.6-4.3c1.1-1.1,2.4-1.6,3.9-1.6c1.6,0,2.8,0.5,3.7,1.4
				c0.9,1,1.3,2.2,1.3,3.9V298.1z M271.1,296.1c0-1.6-0.6-2.4-1.9-2.4c-0.5,0-1,0.2-1.4,0.7s-0.6,1-0.7,1.7H271.1z"/>
			<path class="st1" d="M294.9,295c-0.4-0.2-0.9-0.3-1.4-0.3c-0.7,0-1.3,0.3-1.7,0.8c-0.4,0.5-0.6,1.3-0.6,2.2v5.3h-3.4v-11h3.4v2h0
				c0.5-1.5,1.5-2.2,2.9-2.2c0.4,0,0.6,0,0.8,0.1V295z"/>
			<circle class="st1" cx="303.8" cy="301.2" r="1.8"/>
		</g>
	</g>
</g>
</svg>
