<svg xmlns="http://www.w3.org/2000/svg" viewBox="0 0 1322 300"><defs><style>.cls-1{fill:#fff}</style></defs><g id="レイヤー_2" data-name="レイヤー 2"><g id="レイヤー_1-2" data-name="レイヤー 1"><path class="cls-1" d="M334.09 87.51c-39.6 0-57.65 27-57.65 62s18.05 62 57.65 62 57.65-27 57.65-62-18.04-62-57.65-62Zm0 103c-20.55 0-31.58-13-31.58-41s11-41 31.58-41 31.59 13 31.59 41-11.03 40.96-31.59 40.96ZM661.49 165 675 120.73 688.49 165l6.09 20 7.48 24.49s4 1 13.53 1c10.53 0 12.53-1 12.53-1L686 89.51s-2-1-11-1-11 1-11 1l-42.11 120s2 1 12.53 1c9.52 0 13.53-1 13.53-1l7.44-24.51ZM623.85 88.51c-9.52 0-13.53 1-13.53 1l-16.21 86.18-20.89-86.18s-2-1-10.53-1-10.53 1-10.53 1l-20.89 86.18-16.2-86.18s-4-1-13.54-1c-11 0-13 1-13 1l29.07 120s2 1 10.53 1c12 0 16-1 16-1l18.55-76.52 18.55 76.52s4 1 16 1c8.52 0 10.53-1 10.53-1l29.13-120s-2.01-1-13.04-1ZM799.24 88.51c-9.52 0-13.53 1-13.53 1l-26.57 94.89-26.57-94.89s-4-1-13.54-1c-11 0-13 1-13 1l38.6 120s2 1 14.54 1 14.54-1 14.54-1l38.6-119.95s-2.04-1.05-13.07-1.05Z"/><path class="cls-1" d="m452.9 147.49 37.1-58s-2-1-13-1c-10.53 0-14.54 1-14.54 1l-35.59 58 37.59 62s4 1 14.54 1c11 0 13-1 13-1ZM398 89.67V209.3s2 1 12.5 1 12.5-1 12.5-1V89.67s-2-1-12.5-1-12.5 1-12.5 1ZM843 188v-30h45.14s1-2 1-10.5-1-10.5-1-10.5H843v-26h53s1-2 1-10.5-1-10.5-1-10.5h-78v119h78s1-2 1-10.5-1-10.5-1-10.5ZM150.12 59.52c-75.41 0-90 14.57-90 90s14.56 90 90 90 89.95-14.57 89.95-90-14.56-90-89.95-90Zm0 170.93c-70 0-81-11-81-81s11-81 81-81 81 11 81 81-11.03 81-81.01 81Z"/><path class="cls-1" d="M178.87 101.5c-12.93 0-24 8.33-28.76 20.21-4.74-11.88-15.83-20.21-28.76-20.21-13.21 0-31.21 7.93-31.21 33.57 0 34.34 45 65 60 76.39 15-11.44 60-42.05 60-76.39-.05-25.64-18.06-33.57-31.27-33.57ZM1054 82.32s-2-1-12.5-1-12.5 1-12.5 1v127.34s2 1 12.5 1 12.5-1 12.5-1V82.32ZM971 88.65c-20 0-37 1-37 1v120s2 1 12.5 1 12.5-1 12.5-1v-44.5s8 .5 12 .5c41 0 50-17 50-38.5 0-34.5-22-38.5-50-38.5Zm0 59c-4 0-12-.5-12-.5v-40s2-.5 12-.5c16 0 27 2 27 20.49 0 16.52-11 20.52-27 20.52ZM1152.61 187.54c4.88 3 16.84 5.52 24.67 5.92 6.33.33 13-.15 13.55-7.37.34-4.43-6.48-6.53-16.29-10.15-18.82-5.92-26.2-16.46-24.87-29.4s13.76-24.5 36.23-24.5c10.63 0 20.38 2.32 25.95 4.93l-5.68 18.15c-4-1.91-12.51-4.19-19.41-5.18-4.06-.58-10.43 0-11.57 5.59-1.31 6.52 10.75 9.18 20.45 13.54 15.76 7.09 21.82 14.34 20.08 28.94-1.92 16-12 23.66-38.9 23.66-11.85 0-23.12-1.59-29.92-5.08ZM1064 183.35a10.3 10.3 0 0 0 .1 1.45c0 15.29 10.71 26.51 27.65 26.51A28.6 28.6 0 0 0 1114 201v8.43s2 1 12.5 1 12.5-1 12.5-1v-87.5s-2-1-12.5-1-12.5 1-12.5 1v50.89s.73 13.27-12.17 13.27c-14.12 0-12.83-12.65-12.83-12.65V122s-2-1-12.5-1-12.5 1-12.5 1ZM1261.57 95.5c0-4.62-.44-5.5-.44-5.5H1239V67.87s-.88-.44-5.5-.44-5.5.44-5.5.44V90h-22.13s-.44.88-.44 5.5.44 5.5.44 5.5H1228v22.13s.88.44 5.5.44 5.5-.44 5.5-.44V101h22.13s.44-.88.44-5.5Z"/><path fill="none" d="M0 0h1322v300H0z"/></g></g></svg>