<svg xmlns="http://www.w3.org/2000/svg" viewBox="0 0 120 120"><path d="M120 60A60 60 0 1160 0a60 60 0 0160 60zM49 91.65c26.61 0 41.16-22.05 41.16-41.16v-1.86a29.64 29.64 0 007.23-7.5 29.36 29.36 0 01-8.31 2.28 14.46 14.46 0 006.36-8 29.29 29.29 0 01-9.18 3.51 14.47 14.47 0 00-25 9.9 13.26 13.26 0 00.39 3.3A41 41 0 0131.8 37a14.46 14.46 0 004.5 19.29 14.21 14.21 0 01-6.54-1.8v.18a14.48 14.48 0 0011.61 14.18 14.42 14.42 0 01-3.81.51 13.81 13.81 0 01-2.73-.27 14.44 14.44 0 0013.5 10 29.08 29.08 0 01-18 6.18 26.31 26.31 0 01-3.45-.21A40.3 40.3 0 0049 91.65" fill="#656565"/></svg>