<svg xmlns="http://www.w3.org/2000/svg" viewBox="0 0 120 120"><defs><style>.a{fill:#656565}</style></defs><path class="a" d="M60 0a60 60 0 1060 60A60 60 0 0060 0zm31.36 76.32C83 86 64.26 97.7 60 99.49s-3.63-1.14-3.46-2.15l.57-3.41a8 8 0 00-.11-3.61c-.44-1.11-2.21-1.69-3.51-2-19.2-2.5-33.4-15.91-33.4-31.92C20.09 38.54 38 24 60 24s39.91 14.54 39.91 32.4c0 7.14-2.77 13.58-8.56 19.92z"/><path class="a" d="M51.89 47.77h-2.8a.78.78 0 00-.78.77v17.39a.78.78 0 00.78.78h2.8a.78.78 0 00.78-.78V48.54a.78.78 0 00-.78-.77M71.16 47.77h-2.8a.78.78 0 00-.78.77v10.33l-8-10.76-.03-.11v-.05h-3.38a.78.78 0 00-.78.77v17.21a.78.78 0 00.78.78H59a.77.77 0 00.77-.78V55.61l8 10.77a.89.89 0 00.2.19h.11a.64.64 0 00.2 0h2.8a.78.78 0 00.78-.78V48.54a.78.78 0 00-.78-.77M45.14 62.35h-7.6V48.54a.78.78 0 00-.78-.77H34a.78.78 0 00-.78.77v17.39a.8.8 0 00.22.54.76.76 0 00.54.22h11.16a.78.78 0 00.78-.78v-2.8a.78.78 0 00-.78-.78M86.62 52.12a.77.77 0 00.77-.78v-2.79a.77.77 0 00-.77-.78H75.43a.73.73 0 00-.53.22.78.78 0 00-.21.53v17.41a.76.76 0 00.22.54.75.75 0 00.53.22h11.18a.77.77 0 00.77-.78v-2.8a.77.77 0 00-.77-.78H79v-2.91h7.61a.77.77 0 00.77-.78v-2.8a.77.77 0 00-.77-.78H79v-2.94z"/></svg>