<svg version="1.1" id="レイヤー_1" xmlns="http://www.w3.org/2000/svg" x="0" y="0" viewBox="0 0 457.9 141.4" xml:space="preserve"><style>.st0{fill:#fff}</style><path class="st0" d="M72.4.7c-58.6 0-70 11.4-70 70s11.3 69.9 69.9 69.9 69.9-11.3 69.9-69.9c.1-58.6-11.2-70-69.8-70zm0 132.9c-54.4 0-63-8.5-63-62.9S18 7.8 72.4 7.8s62.9 8.5 62.9 62.9-8.5 62.9-62.9 62.9z"/><path class="st0" d="M94.7 33.4c-10.1 0-18.7 6.5-22.4 15.7-3.6-9.2-12.2-15.7-22.3-15.7-10.3 0-24.3 6.2-24.3 26.1 0 26.7 35 50.5 46.6 59.4C84 110 119 86.2 119 59.5c0-19.9-14-26.1-24.3-26.1zm102.9-16.1c-18 0-26.2 12.3-26.2 28.2s8.2 28.2 26.2 28.2 26.2-12.3 26.2-28.2-8.2-28.2-26.2-28.2zm0 46.9c-9.3 0-14.3-5.9-14.3-18.7 0-12.7 5-18.7 14.3-18.7s14.3 5.9 14.3 18.7-5 18.7-14.3 18.7zm159.8-46s-.9-.5-5-.5-5 .5-5 .5l-19.1 54.6s.9.5 5.7.5c4.3 0 6.1-.5 6.1-.5l12.3-40.4 12.3 40.4s1.8.5 6.1.5c4.8 0 5.7-.5 5.7-.5l-19.1-54.6zm-28.2-.4c-4.3 0-6.1.5-6.1.5l-7.4 39.3-9.5-39.3s-.9-.5-4.8-.5-4.8.5-4.8.5l-9.5 39.3-7.4-39.3s-1.8-.5-6.1-.5c-5 0-5.9.5-5.9.5l13.2 54.6s.9.5 4.8.5c5.5 0 7.3-.5 7.3-.5l8.4-34.9 8.4 34.9s1.8.5 7.3.5c3.9 0 4.8-.5 4.8-.5l13.2-54.6c0-.1-.9-.5-5.9-.5zm81.3 0c-4.3 0-6.1.5-6.1.5l-12.1 43.2-12.1-43.2s-1.8-.5-6.1-.5c-5 0-5.9.5-5.9.5l17.5 54.6s.9.5 6.6.5 6.6-.5 6.6-.5l17.5-54.6c0-.1-.9-.5-5.9-.5z"/><path class="st0" d="M251.6 44.6l16.8-26.4s-.9-.5-5.9-.5c-4.8 0-6.6.5-6.6.5l-16.2 26.4 17.1 28.2s1.8.5 6.6.5c5 0 5.9-.5 5.9-.5l-17.7-28.2zm-25.1-26.4v54.6s.9.5 5.7.5 5.7-.5 5.7-.5V18.2s-.9-.5-5.7-.5c-4.8.1-5.7.5-5.7.5zm204 45.1V49.4H451s.5-.9.5-4.8-.5-4.8-.5-4.8h-20.5v-12h24.1s.5-.9.5-4.8-.5-4.8-.5-4.8h-35.5v54.6h35.5s.5-.9.5-4.8-.5-4.8-.5-4.8l-24.1.1zm-226.7 58.9h-4.7l-3.9-10.2h-15.4l-3.6 10.2h-4.7l13.9-36.4h4.4l14 36.4zm-10-14l-5.7-15.5c-.2-.5-.4-1.3-.6-2.4h-.1c-.2 1-.4 1.8-.6 2.4l-5.7 15.5h12.7zm54.5-22.3L238 122.2h-5l-7.5-26.6c-.3-1.1-.5-2.4-.6-3.7h-.1c-.1 1.3-.3 2.5-.7 3.7l-7.5 26.6h-4.9l-10.6-36.4h4.7l7.7 27.9c.3 1.2.5 2.4.6 3.7h.1c.1-.9.3-2.1.8-3.7l8-27.9h4.1l7.7 28.1c.3 1 .5 2.1.6 3.4h.1c.1-.9.3-2 .7-3.5l7.4-28 4.7.1zm29.9 36.3h-4.7l-3.9-10.2h-15.4l-3.6 10.2h-4.7l13.9-36.4h4.4l14 36.4zm-10-14l-5.7-15.5c-.2-.5-.4-1.3-.6-2.4h-.1c-.2 1-.4 1.8-.6 2.4l-5.7 15.5h12.7zm39.6 14h-5.1l-6.1-10.2c-.6-.9-1.1-1.8-1.6-2.4-.5-.7-1.1-1.2-1.6-1.6s-1.1-.7-1.8-.9c-.6-.2-1.3-.3-2.1-.3H286v15.5h-4.3V85.9h10.9c1.6 0 3.1.2 4.4.6s2.5 1 3.5 1.8 1.8 1.8 2.3 3c.6 1.2.8 2.6.8 4.2 0 1.3-.2 2.4-.6 3.5s-.9 2-1.6 2.8-1.5 1.5-2.5 2.1-2.1 1-3.3 1.4v.1c.6.3 1.1.6 1.6.9.4.3.9.8 1.3 1.2.4.5.8 1 1.2 1.6.4.6.8 1.3 1.3 2.1l6.8 11zM286 89.7v13.2h5.8c1.1 0 2-.2 3-.5.9-.3 1.7-.8 2.3-1.4.7-.6 1.2-1.3 1.5-2.2.4-.9.6-1.8.6-2.9 0-1.9-.6-3.5-1.9-4.6s-3.1-1.6-5.5-1.6H286zm25.1 32.5V85.9h10c12.8 0 19.2 5.9 19.2 17.7 0 5.6-1.8 10.1-5.3 13.5-3.6 3.4-8.3 5.1-14.3 5.1h-9.6zm4.3-32.5v28.7h5.4c4.8 0 8.5-1.3 11.1-3.8 2.7-2.6 4-6.2 4-10.9 0-9.3-5-14-14.9-14h-5.6zm59.3 32.6h-21.9v-3.7l10.6-10.6c2.7-2.7 4.6-5 5.8-6.8 1.2-1.8 1.7-3.7 1.7-5.8 0-2.1-.6-3.7-1.8-4.9-1.2-1.1-2.9-1.7-5.1-1.7-3.2 0-6.4 1.4-9.3 4.2v-4.4c2.8-2.2 6.1-3.3 9.9-3.3 3.2 0 5.8.9 7.7 2.6 1.9 1.8 2.8 4.1 2.8 7.1 0 2.3-.6 4.6-1.9 6.8-1.3 2.2-3.6 5-6.9 8.3l-8.4 8.3v.1h16.9v3.8h-.1zm16.7.6c-3.6 0-6.4-1.5-8.4-4.6s-3-7.6-3-13.4c0-6.4 1.1-11.3 3.2-14.6 2.1-3.3 5.1-4.9 9.1-4.9 7.6 0 11.4 6.2 11.4 18.6 0 6.2-1.1 10.8-3.2 14.1-2.2 3.2-5.2 4.8-9.1 4.8zm.6-34c-5.2 0-7.8 5.3-7.8 15.8 0 9.8 2.5 14.8 7.6 14.8 5 0 7.5-5 7.5-15 .1-10.4-2.4-15.6-7.3-15.6zm37.4 33.4h-20.6v-3.7h8.2V90.4l-8.4 2.5v-4l12.6-3.8v33.5h8.2v3.7zm26-35l-14.4 35h-4.3l13.6-32.6H432V86h23.4v1.3z"/></svg>