<svg version="1.1" id="レイヤー_1" xmlns="http://www.w3.org/2000/svg" xmlns:xlink="http://www.w3.org/1999/xlink" x="0" y="0" viewBox="0 0 411.1 411.1" xml:space="preserve"><style>.st0{fill:none}.st7{fill:#fff}</style><path class="st0" d="M0 0h411.1v411.1H0V0z"/><path d="M207 22.7C92.9 22.7 68 53.8 68 53.8v186.5c0 92.4 139 145.1 139 145.1s139-51.2 139-143.6V55.3c.1 0-24.9-32.6-139-32.6z" fill="#f50a00"/><defs><path id="SVGID_1_" d="M207 22.7C92.9 22.7 68 53.8 68 53.8v186.5c0 92.4 139 145.1 139 145.1s139-51.2 139-143.6V55.3c.1 0-24.9-32.6-139-32.6z"/></defs><clipPath id="SVGID_2_"><use xlink:href="#SVGID_1_" overflow="visible"/></clipPath><g clip-path="url(#SVGID_2_)"><path d="M48.4 293.2h317.4v60.4H48.4v-60.4z" fill="#8f1d22"/></g><path d="M25.7 377.8l60.4-15.1v-60.4l-60.4 15.1v60.4zm362.7 0L328 362.7v-60.4l60.4 15.1v60.4z" fill="#4d4d4d"/><path d="M86.1 362.7l-37.8-15.1v-60.4l37.8 15.1v60.4zm241.8 0l37.8-15.1v-60.4l-37.8 15.1v60.4z" fill="#191919"/><path d="M48.4 287.1h317.4v60.4H48.4v-60.4z" fill="#666"/><path class="st7" d="M71.3 302.8h9.5c6.4 0 11.4 2.2 11.4 9.1 0 6.6-5 9.6-11.2 9.6h-3.9v10.3h-5.8v-29zm9.3 14.2c4 0 5.9-1.7 5.9-5 0-3.4-2.1-4.5-6.1-4.5h-3.3v9.5h3.5zm32.1 14.9l-6-11h-4v11h-5.8v-29H107c6.1 0 10.9 2.1 10.9 8.8 0 4.4-2.2 7.1-5.5 8.4l6.8 11.9h-6.5zm-10-15.6h3.8c3.7 0 5.8-1.6 5.8-4.7s-2-4.2-5.8-4.2h-3.8v8.9zm20.9-13.5h5.8v29h-5.8v-29zm10.5 25.6l13.5-20.7h-12.2v-4.8h19.3v3.5L141.2 327h13.7v4.9h-20.8v-3.5zm25.7-25.6h17.8v4.8h-12v6.7h10.2v4.9h-10.2v7.8H178v4.9h-18.2v-29.1zm30.2 0h5.9l2.3 14.2c.4 3.1.9 6.2 1.3 9.3h.2l1.8-9.3 3.4-14.2h4.9l3.4 14.2c.6 3 1.2 6.1 1.8 9.3h.2c.4-3.1.9-6.2 1.3-9.3l2.3-14.2h5.5l-5.4 29h-7.2l-3.3-14.4c-.5-2.2-.9-4.5-1.3-6.7h-.2c-.4 2.2-.8 4.4-1.3 6.7l-3.2 14.4h-7.1l-5.3-29zm38.7 0h5.8v29h-5.8v-29zm12.6 0h5.9l8.4 15.5 2.9 6.3h.2c-.3-3-.7-6.9-.7-10.2v-11.6h5.5v29h-5.9l-8.4-15.5-2.9-6.2h-.2c.3 3.1.7 6.8.7 10.1v11.7h-5.5v-29.1zm29.1 0h5.9l8.4 15.5 2.9 6.3h.2c-.3-3-.7-6.9-.7-10.2v-11.6h5.5v29h-5.9l-8.4-15.5-2.9-6.2h-.2c.3 3.1.7 6.8.7 10.1v11.7h-5.5v-29.1zm29.1 0h17.8v4.8h-12v6.7h10.2v4.9h-10.2v7.8h12.4v4.9h-18.2v-29.1zm39.5 29.1l-6-11h-4v11h-5.8v-29h10.1c6.1 0 10.9 2.1 10.9 8.8 0 4.4-2.2 7.1-5.5 8.4l6.8 11.9H339zm-10-15.6h3.8c3.7 0 5.8-1.6 5.8-4.7s-2-4.2-5.8-4.2H329v8.9z"/><path class="st0" d="M265.3 97.9h33.9v33.9h-33.9V97.9zm33.9 0h33.9v33.9h-33.9V97.9zM207 39.6h33.9v33.9H207V39.6z"/><path class="st0" d="M81 52.6h252.1v252.1H81V52.6z"/><path class="st0" d="M122.1 202.2H298v33.9H122.1v-33.9z"/><path class="st0" d="M119.2 202.2h181.6v33.9H119.2v-33.9z"/><path class="st7" d="M207 73.5c-48.8 0-58.2 9.4-58.2 58.2S158.2 190 207 190c48.8 0 58.2-9.4 58.2-58.2.1-48.9-9.3-58.3-58.2-58.3zm0 110.7c-45.3 0-52.4-7.1-52.4-52.4s7.1-52.4 52.4-52.4 52.4 7.1 52.4 52.4c.1 45.3-7.1 52.4-52.4 52.4z"/><path class="st7" d="M225.7 100.7c-8.3.1-15.7 5.3-18.6 13.1-2.9-7.8-10.3-13-18.6-13.1-8.6 0-20.2 5.1-20.2 21.7 0 22.2 29.1 42.1 38.8 49.5 9.7-7.4 38.8-27.2 38.8-49.5 0-16.6-11.7-21.7-20.2-21.7z"/><path class="st0" d="M207 22.7h33.9v16.9H207V22.7z"/><path class="st7" d="M136.2 201.5c-11.2 0-16.3 7.6-16.3 17.5s5.1 17.5 16.3 17.5 16.3-7.6 16.3-17.5-5.1-17.5-16.3-17.5zm0 29.1c-5.8 0-8.9-3.7-8.9-11.6s3.1-11.6 8.9-11.6 8.9 3.7 8.9 11.6-3.1 11.6-8.9 11.6zm99.3-28.5c-2.1-.4-4.2-.4-6.2 0l-11.9 34s.6.3 3.5.3c1.3 0 2.6-.1 3.8-.3l7.6-25.1 7.6 25.1c1.3.2 2.5.3 3.8.3 3 0 3.5-.3 3.5-.3l-11.7-34zm-17.5-.3c-1.3 0-2.6.1-3.8.3l-4.6 24.4-5.9-24.4c-2-.4-4-.4-5.9 0l-5.9 24.4-4.6-24.4c-1.3-.2-2.5-.3-3.8-.3-3.1 0-3.7.3-3.7.3l8.2 34c1 .3 2 .4 3 .3 1.5.1 3 0 4.5-.3l5.2-21.7L206 236c1.5.2 3 .3 4.5.3 1 .1 2 0 3-.3l8.2-34c0 .1-.6-.2-3.7-.2zm50.5 0c-1.3 0-2.6.1-3.8.3l-7.5 26.9-7.5-26.9c-1.3-.2-2.5-.3-3.8-.3-3.1 0-3.7.3-3.7.3l10.9 34s.6.3 4.1.3c3.5 0 4.1-.3 4.1-.3l10.9-34s-.6-.3-3.7-.3z"/><path class="st7" d="M169.7 218.5l10.5-16.4s-.6-.3-3.7-.3c-1.4 0-2.7 0-4.1.3l-10 16.4L173 236c1.4.2 2.7.3 4.1.3 3.1 0 3.7-.3 3.7-.3l-11.1-17.5zm-15.5-16.4v34s.6.3 3.5.3 3.5-.3 3.5-.3v-34s-.6-.3-3.5-.3-3.5.3-3.5.3zm126.8 28v-8.6h12.7c.4-2 .4-4 0-5.9H281V208h15c.4-2 .4-4 0-5.9h-22.1v34H296c.4-2 .4-4 0-5.9l-15-.1z"/><path class="st0" d="M119.9 202.1h176.3v34H119.9v-34z"/><path class="st7" d="M142.3 266.9h-2.7l-2.2-5.9h-9l-2.1 5.9h-2.8l8.1-21.1h2.6l8.1 21.1zm-5.8-8.1l-3.3-9c-.1-.5-.3-.9-.3-1.4h-.1c-.1.5-.2 1-.3 1.4l-3.3 9h7.3zm32.5-13l-6 21.2h-2.9l-4.4-15.5c-.2-.7-.3-1.4-.3-2.2h-.1c-.1.7-.2 1.4-.4 2.1l-4.4 15.5h-2.9l-6.2-21.1h2.7l4.5 16.2c.2.7.3 1.4.4 2.1h.1c.1-.7.2-1.4.5-2.1l4.7-16.2h2.4l4.5 16.3c.2.6.3 1.3.4 2h.1c.1-.7.2-1.4.4-2l4.3-16.3h2.6zm18.3 21.1h-2.7l-2.2-5.9h-9l-2.1 5.9h-2.8l8.1-21.1h2.6l8.1 21.1zm-5.8-8.1l-3.3-9c-.1-.5-.3-.9-.3-1.4h-.1c-.1.5-.2 1-.3 1.4l-3.3 9h7.3zm23.9 8.1h-2.9L199 261c-.3-.5-.6-1-.9-1.4-.3-.4-.6-.7-.9-1-.3-.2-.7-.4-1-.5-.4-.1-.8-.2-1.2-.2h-2v9h-2.5v-21.1h6.3c.9 0 1.7.1 2.6.3.7.2 1.4.6 2 1.1.6.5 1 1.1 1.4 1.8.3.8.5 1.6.5 2.5 0 .7-.1 1.4-.3 2-.2.6-.5 1.2-.9 1.6-.4.5-.9.9-1.5 1.2-.6.4-1.3.6-1.9.8v.1c.3.1.6.3.9.5.3.2.5.5.7.7.3.3.5.6.7.9.2.3.5.8.8 1.2l3.6 6.4zM192.7 248v7.7h3.4c.6 0 1.2-.1 1.7-.3.5-.2 1-.4 1.4-.8.4-.4.7-.8.9-1.3.2-.5.3-1.1.3-1.7.1-1-.3-2-1.1-2.6-.9-.7-2-1-3.2-1h-3.4zm15.6 18.9v-21.1h5.8c7.5 0 11.2 3.4 11.2 10.3.1 2.9-1 5.8-3.1 7.9-2.3 2.1-5.3 3.1-8.3 3h-5.6zm2.5-18.9v16.7h3.2c2.4.1 4.7-.7 6.5-2.2 1.6-1.7 2.5-4 2.3-6.3 0-5.4-2.9-8.1-8.6-8.1l-3.4-.1zm35.7 18.9h-12.7v-2.2l6.2-6.2c1.3-1.2 2.4-2.5 3.4-3.9.7-1 1-2.2 1-3.4.1-1-.3-2.1-1-2.8-.8-.7-1.9-1.1-3-1-2.1.1-4 .9-5.4 2.4v-2.5c1.6-1.3 3.7-2 5.8-1.9 1.6-.1 3.2.5 4.5 1.5 1.1 1.1 1.7 2.6 1.6 4.1 0 1.4-.4 2.8-1.1 4-1.1 1.8-2.5 3.4-4 4.8l-4.9 4.8v.1h9.8l-.2 2.2zm9.7.4c-2 .1-3.9-1-4.9-2.7-1.2-1.8-1.8-4.4-1.8-7.8 0-3.7.6-6.6 1.8-8.5 1.1-1.9 3.1-3 5.3-2.9 4.4 0 6.6 3.6 6.6 10.8 0 3.6-.6 6.3-1.9 8.2-1 1.9-3 3-5.1 2.9zm.3-19.8c-3 0-4.5 3.1-4.5 9.2 0 5.7 1.5 8.6 4.4 8.6 2.9 0 4.4-2.9 4.4-8.7 0-6.1-1.4-9.1-4.3-9.1zm21.7 19.4h-12v-2.1h4.8v-16.4l-4.9 1.5v-2.3l7.3-2.2v19.5h4.8v2zm15.1-20.3l-8.4 20.4h-2.5l7.9-19h-10.7v-2.2h13.6v.8z"/></svg>