<?xml version="1.0" encoding="utf-8"?>
<!-- Generator: Adobe Illustrator 20.1.0, SVG Export Plug-In . SVG Version: 6.00 Build 0)  -->
<svg version="1.1" id="レイヤー_1" xmlns="http://www.w3.org/2000/svg" xmlns:xlink="http://www.w3.org/1999/xlink" x="0px"
	 y="0px" viewBox="0 0 131 45" style="enable-background:new 0 0 131 45;" xml:space="preserve">
<style type="text/css">
	.st0{fill:none;}
	.st1{fill:#F50A00;}
</style>
<g>
	<rect class="st0" width="131.1" height="45"/>
	<g>
		<g>
			<g>
				<g>
					<path class="st1" d="M48.6,11.8c-4.9,0-7.2,3.4-7.2,7.7c0,4.4,2.3,7.8,7.2,7.8c4.9,0,7.2-3.4,7.2-7.8
						C55.8,15.1,53.5,11.8,48.6,11.8z M48.6,24.6c-2.6,0-3.9-1.6-3.9-5.1c0-3.5,1.4-5.1,3.9-5.1c2.6,0,3.9,1.6,3.9,5.1
						C52.5,23,51.1,24.6,48.6,24.6z"/>
					<path class="st1" d="M91.1,15.9L94.5,27c0,0,0.5,0.1,1.7,0.1c1.3,0,1.6-0.1,1.6-0.1l-5.3-15c0,0-0.3-0.1-1.4-0.1
						S89.7,12,89.7,12l-5.3,15c0,0,0.3,0.1,1.6,0.1c1.2,0,1.7-0.1,1.7-0.1L91.1,15.9z"/>
					<path class="st1" d="M84.7,11.9C83.5,11.9,83,12,83,12l-2,10.8L78.4,12c0,0-0.3-0.1-1.3-0.1S75.8,12,75.8,12l-2.6,10.8l-2-10.8
						c0,0-0.5-0.1-1.7-0.1c-1.4,0-1.6,0.1-1.6,0.1l3.6,15c0,0,0.3,0.1,1.3,0.1c1.5,0,2-0.1,2-0.1l2.3-9.6l2.3,9.6c0,0,0.5,0.1,2,0.1
						c1.1,0,1.3-0.1,1.3-0.1l3.6-15C86.3,12,86.1,11.9,84.7,11.9z"/>
					<path class="st1" d="M107,11.9c-1.2,0-1.7,0.1-1.7,0.1L102,23.9L98.7,12c0,0-0.5-0.1-1.7-0.1c-1.4,0-1.6,0.1-1.6,0.1l4.8,15
						c0,0,0.2,0.1,1.8,0.1c1.6,0,1.8-0.1,1.8-0.1l4.8-15C108.6,12,108.4,11.9,107,11.9z"/>
					<g>
						<path class="st1" d="M63.4,19.3L68,12c0,0-0.3-0.1-1.6-0.1c-1.3,0-1.8,0.1-1.8,0.1l-4.4,7.3l4.7,7.7c0,0,0.5,0.1,1.8,0.1
							c1.4,0,1.6-0.1,1.6-0.1L63.4,19.3z"/>
						<path class="st1" d="M56.5,12v15c0,0,0.3,0.1,1.6,0.1s1.6-0.1,1.6-0.1V12c0,0-0.3-0.1-1.6-0.1C56.8,11.9,56.5,12,56.5,12z"/>
					</g>
					<path class="st1" d="M112.5,24.4v-3.8h5.6c0,0,0.1-0.3,0.1-1.3c0-1.1-0.1-1.3-0.1-1.3h-5.6v-3.3h6.6l0,0c0,0,0.1-0.3,0.1-1.3
						c0-1.1-0.1-1.3-0.1-1.3h-9.7v15h9.7c0,0,0.1-0.2,0.1-1.3s-0.1-1.3-0.1-1.3H112.5z"/>
				</g>
			</g>
			<g>
				<path class="st1" d="M44.3,33L44.3,33l0,0.4h-1.1v-5.2h1.1v2.2h0c0.3-0.4,0.6-0.6,1.1-0.6c0.5,0,0.8,0.2,1,0.5
					c0.2,0.3,0.4,0.7,0.4,1.3c0,0.6-0.1,1.1-0.4,1.4c-0.3,0.4-0.7,0.5-1.1,0.5C44.9,33.5,44.5,33.3,44.3,33z M44.3,31.5v0.4
					c0,0.2,0.1,0.4,0.2,0.6c0.1,0.1,0.3,0.2,0.5,0.2c0.2,0,0.4-0.1,0.6-0.3c0.1-0.2,0.2-0.5,0.2-0.8c0-0.3-0.1-0.5-0.2-0.7
					c-0.1-0.2-0.3-0.2-0.5-0.2c-0.2,0-0.4,0.1-0.5,0.2C44.3,31,44.3,31.2,44.3,31.5z"/>
				<path class="st1" d="M54.6,31.9h-2.3c0,0.5,0.4,0.8,1,0.8c0.4,0,0.7-0.1,1-0.3v0.8c-0.3,0.2-0.7,0.3-1.3,0.3
					c-0.6,0-1-0.2-1.3-0.5c-0.3-0.3-0.5-0.8-0.5-1.3c0-0.6,0.2-1,0.5-1.4c0.3-0.3,0.8-0.5,1.2-0.5c0.5,0,0.9,0.2,1.2,0.5
					c0.3,0.3,0.4,0.7,0.4,1.2V31.9z M53.6,31.3c0-0.5-0.2-0.8-0.6-0.8c-0.2,0-0.3,0.1-0.5,0.2s-0.2,0.3-0.2,0.5H53.6z"/>
				<path class="st1" d="M59,33.3v-0.9c0.2,0.1,0.4,0.2,0.5,0.2c0.2,0.1,0.3,0.1,0.5,0.1c0.2,0,0.3,0,0.5-0.1
					c0.1-0.1,0.2-0.1,0.2-0.2c0-0.1,0-0.1-0.1-0.2c-0.1,0-0.1-0.1-0.2-0.1c-0.1,0-0.2-0.1-0.3-0.1c-0.1,0-0.2-0.1-0.3-0.1
					c-0.1-0.1-0.3-0.1-0.4-0.2c-0.1-0.1-0.2-0.1-0.3-0.2c-0.1-0.1-0.1-0.2-0.2-0.3S59,31,59,30.9c0-0.2,0-0.4,0.1-0.5
					c0.1-0.1,0.2-0.3,0.3-0.3c0.1-0.1,0.3-0.2,0.5-0.2c0.2,0,0.4-0.1,0.6-0.1c0.2,0,0.3,0,0.5,0c0.2,0,0.3,0.1,0.5,0.1v0.8
					c-0.1-0.1-0.3-0.1-0.4-0.2c-0.2,0-0.3-0.1-0.5-0.1c-0.1,0-0.1,0-0.2,0c-0.1,0-0.1,0-0.2,0.1c0,0-0.1,0.1-0.1,0.1
					c0,0,0,0.1,0,0.1c0,0.1,0,0.1,0.1,0.2s0.1,0.1,0.2,0.1c0.1,0,0.1,0.1,0.2,0.1c0.1,0,0.2,0.1,0.2,0.1c0.1,0.1,0.3,0.1,0.4,0.2
					s0.2,0.1,0.3,0.2c0.1,0.1,0.1,0.2,0.2,0.3s0.1,0.2,0.1,0.4c0,0.2,0,0.4-0.1,0.5c-0.1,0.1-0.2,0.3-0.4,0.4
					c-0.1,0.1-0.3,0.2-0.5,0.2c-0.2,0-0.4,0.1-0.6,0.1C59.7,33.5,59.3,33.4,59,33.3z"/>
				<path class="st1" d="M68.7,33.3c-0.2,0.1-0.4,0.1-0.7,0.1c-0.8,0-1.1-0.4-1.1-1.2v-1.6h-0.6v-0.8h0.6v-0.8l1.1-0.3v1.1h0.8v0.8
					H68v1.4c0,0.4,0.1,0.5,0.4,0.5c0.1,0,0.2,0,0.4-0.1V33.3z"/>
				<path class="st1" d="M81,33.4h-1v-0.5h0c-0.2,0.4-0.6,0.6-1,0.6c-0.3,0-0.6-0.1-0.8-0.3c-0.2-0.2-0.3-0.5-0.3-0.8
					c0-0.7,0.4-1.1,1.2-1.2l1-0.1c0-0.4-0.2-0.6-0.6-0.6c-0.4,0-0.8,0.1-1.2,0.4v-0.8c0.2-0.1,0.4-0.1,0.6-0.2
					c0.3-0.1,0.5-0.1,0.7-0.1c1,0,1.5,0.5,1.5,1.5V33.4z M80,31.9v-0.2l-0.6,0.1c-0.4,0-0.5,0.2-0.5,0.5c0,0.1,0,0.2,0.1,0.3
					c0.1,0.1,0.2,0.1,0.3,0.1c0.2,0,0.4-0.1,0.5-0.2C80,32.3,80,32.2,80,31.9z"/>
				<path class="st1" d="M88.9,33.4h-1.1v-1.9c0-0.5-0.2-0.8-0.6-0.8c-0.2,0-0.3,0.1-0.5,0.2c-0.1,0.1-0.2,0.3-0.2,0.5v2h-1.1v-3.5
					h1.1v0.6h0c0.3-0.4,0.6-0.6,1.1-0.6c0.8,0,1.2,0.5,1.2,1.4V33.4z"/>
				<path class="st1" d="M93.3,33.3v-0.9c0.2,0.1,0.4,0.2,0.5,0.2c0.2,0.1,0.3,0.1,0.5,0.1c0.2,0,0.3,0,0.5-0.1
					c0.1-0.1,0.2-0.1,0.2-0.2c0-0.1,0-0.1-0.1-0.2c-0.1,0-0.1-0.1-0.2-0.1c-0.1,0-0.2-0.1-0.3-0.1c-0.1,0-0.2-0.1-0.3-0.1
					c-0.1-0.1-0.3-0.1-0.4-0.2c-0.1-0.1-0.2-0.1-0.3-0.2c-0.1-0.1-0.1-0.2-0.2-0.3s-0.1-0.2-0.1-0.4c0-0.2,0-0.4,0.1-0.5
					c0.1-0.1,0.2-0.3,0.3-0.3c0.1-0.1,0.3-0.2,0.5-0.2c0.2,0,0.4-0.1,0.6-0.1c0.2,0,0.3,0,0.5,0c0.2,0,0.3,0.1,0.5,0.1v0.8
					c-0.1-0.1-0.3-0.1-0.4-0.2c-0.2,0-0.3-0.1-0.5-0.1c-0.1,0-0.1,0-0.2,0c-0.1,0-0.1,0-0.2,0.1c0,0-0.1,0.1-0.1,0.1
					c0,0,0,0.1,0,0.1c0,0.1,0,0.1,0.1,0.2s0.1,0.1,0.2,0.1c0.1,0,0.1,0.1,0.2,0.1c0.1,0,0.2,0.1,0.2,0.1c0.1,0.1,0.3,0.1,0.4,0.2
					s0.2,0.1,0.3,0.2c0.1,0.1,0.1,0.2,0.2,0.3s0.1,0.2,0.1,0.4c0,0.2,0,0.4-0.1,0.5c-0.1,0.1-0.2,0.3-0.4,0.4
					c-0.1,0.1-0.3,0.2-0.5,0.2c-0.2,0-0.4,0.1-0.6,0.1C94,33.5,93.6,33.4,93.3,33.3z"/>
				<path class="st1" d="M105,29.9l-1,3.5h-1.1l-0.5-2.1c0-0.1-0.1-0.3-0.1-0.4h0c0,0.2,0,0.3-0.1,0.4l-0.6,2.1h-1.1l-1-3.5h1.1
					l0.5,2.3c0,0.1,0,0.2,0.1,0.4h0c0-0.2,0-0.3,0.1-0.4l0.6-2.3h1l0.5,2.3c0,0.1,0,0.2,0,0.4h0c0-0.1,0-0.3,0.1-0.4l0.5-2.3H105z"
					/>
				<path class="st1" d="M111.9,31.9h-2.3c0,0.5,0.4,0.8,1,0.8c0.4,0,0.7-0.1,1-0.3v0.8c-0.3,0.2-0.7,0.3-1.3,0.3
					c-0.6,0-1-0.2-1.3-0.5c-0.3-0.3-0.5-0.8-0.5-1.3c0-0.6,0.2-1,0.5-1.4c0.3-0.3,0.8-0.5,1.2-0.5c0.5,0,0.9,0.2,1.2,0.5
					c0.3,0.3,0.4,0.7,0.4,1.2V31.9z M110.8,31.3c0-0.5-0.2-0.8-0.6-0.8c-0.2,0-0.3,0.1-0.5,0.2s-0.2,0.3-0.2,0.5H110.8z"/>
				<path class="st1" d="M118.4,30.8c-0.1-0.1-0.3-0.1-0.5-0.1c-0.2,0-0.4,0.1-0.6,0.3c-0.1,0.2-0.2,0.4-0.2,0.7v1.7h-1.1v-3.5h1.1
					v0.7h0c0.2-0.5,0.5-0.7,0.9-0.7c0.1,0,0.2,0,0.3,0V30.8z"/>
				<circle class="st1" cx="121.5" cy="32.9" r="0.6"/>
			</g>
		</g>
		<g>
			<path class="st1" d="M22.5,9C11.2,9,9,11.2,9,22.5C9,33.8,11.2,36,22.5,36C33.8,36,36,33.8,36,22.5C36,11.2,33.8,9,22.5,9z
				 M22.5,34.7C12,34.7,10.3,33,10.3,22.5c0-10.5,1.7-12.2,12.2-12.2S34.6,12,34.6,22.5C34.6,33,33,34.7,22.5,34.7z"/>
			<path class="st1" d="M26.8,15.3c-1.9,0-3.6,1.3-4.3,3c-0.7-1.8-2.4-3-4.3-3c-2,0-4.7,1.2-4.7,5c0,5.2,6.8,9.7,9,11.5
				c2.2-1.7,9-6.3,9-11.5C31.5,16.5,28.8,15.3,26.8,15.3z"/>
		</g>
	</g>
</g>
</svg>
