<svg width="118" height="101" fill="none" xmlns="http://www.w3.org/2000/svg"><circle opacity=".2" cx="79.5" cy="62.5" r="38.5" fill="#3AD"/><path d="M68.862 76.957c0 .75-.599 1.4-1.397 1.4H13.273c-.748 0-1.397-.6-1.397-1.4 0-.8.599-1.4 1.398-1.4h54.241c.748 0 1.347.65 1.347 1.4zm10.18-48.424c-.4-.65-1.248-.9-1.896-.5-.3.2-.55.5-.649.85-.1.35-.05.75.15 1.05l1.497 2.598c.25.4.698.7 1.197.7.25 0 .5-.05.699-.2.649-.4.898-1.25.499-1.9l-1.497-2.598zm-6.836-11.744l-1.497-2.598c-.2-.3-.5-.55-.849-.65-.349-.1-.748-.05-1.048.15-.299.2-.549.5-.648.85-.1.35-.05.749.15 1.049l1.496 2.598c.25.4.699.7 1.198.7.25 0 .499-.05.699-.2.299-.2.549-.5.648-.85.1-.35.05-.699-.15-1.049zm4.191 7.196L74.9 21.387c-.2-.3-.499-.55-.848-.65-.35-.1-.749-.05-1.048.15-.3.2-.549.5-.649.85-.1.35-.05.75.15 1.049l1.497 2.599c.25.4.699.7 1.198.7.25 0 .499-.05.698-.2.3-.2.55-.5.649-.85.05-.35 0-.75-.15-1.05zM99.8 40.127c-.449 1.649-1.447 2.998-2.894 3.848l-4.79 2.798v12.593c0 .75-.599 1.4-1.397 1.4a4.241 4.241 0 00-4.242 4.247 4.241 4.241 0 004.242 4.248c.748 0 1.397.6 1.397 1.4v13.042c0 3.448-2.795 6.297-6.288 6.297H6.288A6.298 6.298 0 010 83.703V70.66c0-.75.599-1.399 1.397-1.399a4.241 4.241 0 004.242-4.248 4.241 4.241 0 00-4.242-4.247c-.748 0-1.397-.6-1.397-1.4V46.323c0-1.149.3-2.298.948-3.298v-.05c.1-.15.2-.3.3-.4l.1-.15c.1-.1.149-.2.249-.3.05-.05.1-.1.15-.2l.249-.25.15-.149c.1-.1.2-.2.349-.25.05-.05.1-.05.15-.1.15-.1.25-.2.399-.25l.05-.05L71.856.848c1.447-.85 3.144-1.05 4.74-.65 1.598.45 2.995 1.45 3.843 2.899l6.537 11.244c.2.3.25.7.15 1.049-.1.35-.3.65-.649.85a3.957 3.957 0 00-1.946 2.598c-.3 1.1-.15 2.249.449 3.198.549 1 1.497 1.7 2.595 1.95 1.098.3 2.245.15 3.194-.45.299-.2.698-.25 1.047-.15.35.1.65.3.849.65l6.537 11.243c.798 1.5.998 3.199.598 4.848zm-14.022-.1a6.34 6.34 0 015.789 3.798l3.942-2.299c.798-.45 1.397-1.25 1.647-2.149.25-.9.1-1.849-.35-2.699l-5.938-10.194a6.96 6.96 0 01-4.042.15 7.112 7.112 0 01-4.241-3.248 6.788 6.788 0 01-.699-5.297 7.036 7.036 0 012.096-3.449L78.044 4.496c-.45-.8-1.248-1.4-2.146-1.65-.898-.25-1.846-.1-2.694.35l-6.637 3.898 1.447 2.549c.2.3.25.7.15 1.05-.1.35-.3.65-.649.849-.2.1-.45.2-.699.2-.499 0-.948-.25-1.197-.7l-1.447-2.548L10.03 40.027h17.615l34.231-19.94c.649-.4 1.497-.15 1.897.5.2.3.249.7.15 1.05-.1.35-.3.65-.65.85l-30.14 17.54h49.502c-.1-.1-.2-.2-.3-.35l-1.497-2.599c-.2-.3-.25-.7-.15-1.05.1-.349.3-.649.65-.849.299-.2.698-.25 1.047-.15.35.1.649.3.849.65l1.497 2.599c.2.3.249.7.15 1.05-.05.249-.2.499-.45.699h1.347zm3.543 18.09V46.323a3.56 3.56 0 00-3.543-3.548h-7.684v2.949a1.396 1.396 0 11-2.795-.001v-2.948H6.287a3.56 3.56 0 00-3.542 3.548v11.794a6.962 6.962 0 015.588 6.846 6.962 6.962 0 01-5.588 6.847v11.793a3.56 3.56 0 003.542 3.549H75.35v-2.949a1.397 1.397 0 112.795 0v2.948h7.684a3.56 3.56 0 003.543-3.548V71.81a6.962 6.962 0 01-5.589-6.847 6.87 6.87 0 015.54-6.846zm-12.624-8.495c-.749 0-1.398.6-1.398 1.399v3.048a1.397 1.397 0 102.795 0v-3.098c0-.75-.599-1.35-1.397-1.35zm-9.182 2.048H13.273c-.748 0-1.397.6-1.397 1.4 0 .75.599 1.399 1.398 1.399h54.241c.748 0 1.397-.6 1.397-1.4-.05-.799-.649-1.399-1.397-1.399zm9.182 6.247c-.749 0-1.398.6-1.398 1.4v3.048a1.396 1.396 0 102.795-.001v-3.048c0-.8-.599-1.399-1.397-1.399zm0 8.296c-.749 0-1.398.6-1.398 1.399v3.048a1.397 1.397 0 102.795 0v-3.048c0-.8-.599-1.4-1.397-1.4zm0 8.295c-.749 0-1.398.6-1.398 1.4v3.048a1.397 1.397 0 102.795 0v-3.049c0-.799-.599-1.399-1.397-1.399z" fill="#333"/></svg>