<svg width="190" height="113" fill="none" xmlns="http://www.w3.org/2000/svg"><path d="M161.699 12.434a28.364 28.364 0 00-15.88 5.138 28.312 28.312 0 00-10.23 13.174 28.319 28.319 0 00-10.209-13.16 28.363 28.363 0 00-15.848-5.152c-11.967 0-28.34 7.173-28.34 30.43 0 31.08 40.797 58.847 54.397 69.171 13.599-10.324 54.397-38.036 54.397-69.172 0-23.256-16.319-30.429-28.287-30.429z" fill="#F50A00" fill-opacity=".1"/><path d="M5.437 42.931l3.258-31.67a6.288 6.288 0 016.251-5.63c.528 0 .969.087 1.497.175l7.66 1.848-4.314 42.051-7.836.264h-.176c-3.786-.088-6.692-3.343-6.34-7.038zm23.949-29.823h17.08c1.761 0 3.61.44 5.195 1.232l10.566 5.366-5.019 3.959c-2.641 2.111-3.962 5.366-3.698 8.797.44 5.279 4.93 9.325 10.125 9.325.969 0 1.85-.087 2.818-.351l25.093-7.038 9.773 4.926c.088 0 .176.088.176.088s.088 0 .088.088l22.892 10.909c1.849.88 2.641 3.167 1.761 5.014a3.678 3.678 0 01-3.346 2.112c-.528 0-1.144-.088-1.585-.352l-3.345-1.584c-.176-.088-.441-.263-.705-.351l-18.93-9.062c-.176-.088-.352-.176-.44-.176h-.088-.088c-.088 0-.088 0-.176-.088h-.528-.264-.264-.617s-.088 0-.088.088c0 0-.088 0-.088.088-.088 0-.088 0-.176.088 0 0-.088 0-.088.088-.088 0-.088.088-.176.088l-.088.088-.088.088-.088.088-.088.088-.088.088-.088.088-.088.088-.088.088c0 .088-.089.088-.089.176v.176s-.088.088-.088.176 0 .088-.088.176v.176c0 .088 0 .088-.088.176V49.88s0 .088.088.088c0 0 0 .088.088.088 0 0 0 .088.088.088 0 0 0 .088.089.088l.087.088s0 .088.089.088l.088.088.088.088.088.088.088.088.088.088.088.088.088.088s.088.088.176.088h.088c.176.088.352.176.616.264l19.37 9.237c.529.352.969.792 1.233 1.32.616 1.055.616 2.287.088 3.43-.528 1.144-1.585 1.936-2.905 2.112h-.529a3.46 3.46 0 01-1.585-.352l-2.201-1.056c-.264-.088-.44-.264-.704-.352l-16.024-7.653-.529-.264H91.282h-.352H90.313s-.088 0-.088.088h-.088s-.088 0-.088.088c0 0-.088 0-.088.088l-.088.088s-.088 0-.088.088l-.088.088-.088.088-.176.175c-.176.176-.352.44-.529.704-.264.44-.352.88-.352 1.32 0 .704.264 1.495.88 2.023l.265.264s.088 0 .088.088c.088.088.176.088.176.176h.088l.528.264 16.465 7.83c1.233.791 1.849 2.287 1.673 3.695-.088.264-.088.615-.264.88l-.264.44c-.705 1.143-1.849 1.759-3.17 1.759a3.457 3.457 0 01-1.585-.352l-3.258-1.584c-.176-.088-.44-.264-.704-.352l-12.062-5.718c-.176-.088-.352-.176-.44-.176h-.177c-.088 0-.088 0-.176-.088h-.528-1.145s-.088 0-.088.088c0 0-.088 0-.088.088 0 0-.088 0-.088.088 0 0-.088 0-.088.088l-.088.088-.088.088-.088.088-.088.088-.088.088-.088.088-.088.088-.088.088s0 .088-.088.088c0 0-.088.088-.088.176v.176s0 .088-.088.176c0 .088 0 .088-.088.176v.176c0 .087 0 .087-.088.175v1.76s0 .088.088.088c0 0 0 .088.088.088 0 0 0 .088.088.088 0 0 0 .088.088.088 0 0 0 .088.088.088l.088.088.088.088.088.088.088.088.088.088.088.088.088.088.088.088s.088.088.176.088h.088c.177.088.353.176.617.264L97.885 81.2c1.497.968 2.113 2.815 1.497 4.398 0 .088-.088.176-.088.352a3.679 3.679 0 01-3.346 2.112c-.528 0-1.144-.088-1.585-.352l-8.98-4.31h-.088c-.088 0-.088-.089-.176-.089 0 0-.088 0-.088-.088-.089 0-.089 0-.177-.088H83.71c.088-.528.176-1.144.176-1.671 0-3.255-1.585-6.159-4.314-7.918a6.669 6.669 0 00-1.585-.792c-1.145-.44-2.377-.704-3.61-.704s-2.465.264-3.698.704c-.616.264-1.233.616-1.76.968-1.057-1.496-2.466-2.727-4.227-3.431-1.145-.44-2.377-.704-3.61-.704s-2.465.264-3.61.704c-.88.352-1.76.88-2.465 1.496-.969-1.32-2.377-2.376-3.962-3.08-1.145-.527-2.377-.703-3.61-.703a9.53 9.53 0 00-5.283 1.583c-.44-.616-.88-1.231-1.232-1.847l-2.466-2.463c-.264-.528-6.603-12.229-12.678-17.947l3.61-34.222zm46.047 3.167a37.814 37.814 0 0119.899-5.63c1.32 0 2.73.088 4.05.176 5.283.616 10.301 2.2 14.968 4.926l5.547 3.255c1.672.968 3.61 1.408 5.635 1.408 3.962 0 8.452-1.408 12.766-2.815l2.642 29.91-.793.265-8.1 4.486a9.6 9.6 0 00-5.283-6.95l-22.892-10.908c-.088 0-.176-.088-.264-.088l-10.741-5.367c-.353-.176-.793-.264-1.321-.264-.264 0-.528 0-.793.088l-26.15 7.302c-.44.088-.791.176-1.232.176-2.289 0-4.226-1.76-4.402-4.047a4.867 4.867 0 011.585-3.87l14.88-12.053zm11.27 76.273c0 .528-.088.968-.264 1.408L86 95.1a3.299 3.299 0 01-2.025 2.023 3.99 3.99 0 01-1.409.264c-.528 0-.968-.088-1.409-.264-1.937-.792-2.817-2.991-2.025-4.839l.44-1.143c.265-.528.617-1.056 1.057-1.408.528-.44 1.145-.616 1.761-.616.44 0 .793.088 1.233.264l1.673.792c.792.352 1.408 1.32 1.408 2.375zm-10.037-9.765l-2.993 7.302c-.617 1.408-2.025 2.287-3.434 2.287-.88 0-1.673-.263-2.465-.967-.177-.088-.265-.264-.353-.352-.968-1.144-1.144-2.551-.616-3.871l1.937-4.663c0-.088 0-.088.088-.176l.969-2.375c.352-.792.88-1.495 1.672-1.935.617-.352 1.233-.44 1.85-.44.44 0 .968.088 1.408.264.264.088.44.176.617.352 1.056.703 1.672 1.847 1.672 3.167-.088.528-.176.967-.352 1.407zM63.371 80.32l-1.937 4.75c-.616 1.408-2.025 2.288-3.433 2.288-.881 0-1.761-.264-2.466-.968l-.352-.352c-.968-1.143-1.145-2.55-.616-3.87l.44-1.144v-.088l1.409-3.431c.352-.88 1.144-1.672 2.025-2.023a3.99 3.99 0 011.408-.264c.617 0 1.233.175 1.761.44 1.233.615 1.937 1.847 2.025 3.254 0 .44-.088.88-.264 1.408zm-13.559-1.76c0 .088-.088.177-.088.177l-.528 1.231c-.616 1.408-2.025 2.287-3.434 2.287-.88 0-1.76-.263-2.465-.967l-.352-.352c-.969-1.144-1.145-2.551-.617-3.871l.44-1.144c.089-.264.265-.528.44-.791.705-.968 1.85-1.496 2.994-1.496.705 0 1.41.176 2.025.616.705.44 1.233 1.055 1.497 1.847.352.792.352 1.672.088 2.464zM11.688 55.337h.353l7.836-.264c1.585-.088 2.993-.792 3.962-1.936 3.874 4.399 7.924 11.26 9.773 14.604l1.32 2.375c.529.968 1.145 1.936 1.85 2.727.264.352.616.704.968.968l-.44 1.144c-1.321 3.167-.705 6.686 1.408 9.413.353.352.705.792 1.057 1.055a9.302 9.302 0 005.987 2.2c1.32 0 2.553-.264 3.698-.792.352.88.88 1.76 1.497 2.551.352.352.704.792 1.056 1.056a9.302 9.302 0 005.988 2.2c1.32 0 2.553-.265 3.697-.792.353.88.88 1.76 1.497 2.55.352.353.705.793 1.057 1.056a9.302 9.302 0 005.987 2.2c1.32 0 2.553-.264 3.698-.792 0 .088 0 .088.088.176.968 2.287 2.73 4.047 4.93 4.927 1.145.439 2.29.703 3.522.703 1.233 0 2.377-.264 3.522-.703 2.29-.968 4.05-2.728 4.93-4.927l.44-1.144c.441-.967.617-2.023.705-2.99.88.263 1.85.44 2.818.44 3.522 0 6.779-2.024 8.276-5.191.088-.264.264-.528.352-.792.44-1.32.616-2.64.528-4.047h.529a9.237 9.237 0 007.836-4.399c.088-.088.088-.175.176-.352l.264-.44c.088-.087.088-.175.176-.351.264-.704.528-1.408.616-2.2a7.566 7.566 0 000-2.815c.265 0 .529 0 .793-.088 3.081-.44 5.635-2.375 6.955-5.102.705-1.496 1.057-3.167.881-4.839h.528c3.522 0 6.78-2.023 8.276-5.19 0-.088.088-.176.088-.264.353.088.617.088.969.088.88 0 1.849-.264 2.641-.704l7.22-3.959a5.406 5.406 0 004.931 3.695l7.836.352h.528c3.258 0 6.427-1.407 8.628-3.783 2.202-2.463 3.346-5.718 2.994-8.973l-.088-1.056-.264-2.99c-.088-1.409-1.321-2.464-2.73-2.464-1.584 0-2.817 1.407-2.729 2.99l.176 2.464.176 1.496c.352 3.695-2.641 6.862-6.339 6.862h-.264l-7.836-.352-3.346-37.653-.352-4.399 7.66-1.76c.44-.087.968-.175 1.409-.175 3.169 0 5.987 2.463 6.251 5.806l.616 6.686.264 2.991c.088 1.408 1.321 2.464 2.73 2.464 1.584 0 2.817-1.408 2.729-2.991l-.176-2.464-.616-7.214c-.265-2.99-1.585-5.718-3.786-7.653-2.201-1.936-4.931-2.991-7.836-2.991-.881 0-1.761.087-2.554.263l-7.66 1.76c-2.641.616-4.49 3.079-4.226 5.806l.264 2.551c-.528 0-.968.088-1.497.264l-.264.088c-3.874 1.232-7.836 2.464-10.917 2.464-1.233 0-2.201-.176-2.906-.616l-5.547-3.255c-5.282-3.08-11.005-4.927-17.081-5.63a39.933 39.933 0 00-4.578-.264c-8.1 0-15.936 2.199-22.804 6.51-.176.088-.352.264-.528.44l-5.459 4.398c-.528-.704-1.145-1.32-1.937-1.671L54.303 9.325c-2.378-1.143-5.02-1.847-7.572-1.847H29.56c0-2.463-1.672-4.75-4.137-5.279L17.764.352C16.884.176 15.914 0 15.034 0 12.13 0 9.4 1.056 7.198 2.991c-2.201 2.111-3.61 4.75-3.874 7.742L.066 42.403c-.352 3.343.705 6.598 2.994 9.062a11.626 11.626 0 008.628 3.87z" fill="#333"/></svg>