<svg width="1033" height="454" fill="none" xmlns="http://www.w3.org/2000/svg"><path d="M689.049 525.84l-.001-.002C671.381 499.993 661 468.724 661 435c0-88.931 72.069-161 161-161s161 72.069 161 161-72.069 161-161 161c-37.665 0-72.324-12.966-99.819-34.657l-.002-.002c-.532-.421-1.406-.741-2.666-.909-1.242-.167-2.755-.173-4.468-.055-3.427.234-7.507.952-11.537 1.741a598.54 598.54 0 00-3.442.688c-2.783.561-5.43 1.095-7.641 1.44-1.555.243-2.946.401-4.051.404-.552.002-1.071-.035-1.522-.135-.433-.097-.92-.278-1.281-.656l-.003-.003c-.361-.382-.544-.874-.643-1.341-.102-.478-.133-1.021-.122-1.597.022-1.151.219-2.579.511-4.166.418-2.266 1.052-4.968 1.72-7.809.266-1.132.537-2.287.802-3.445.936-4.095 1.799-8.261 2.129-11.831.165-1.785.193-3.388.043-4.739-.153-1.362-.479-2.389-.959-3.088zM948.015 199.955l-.001-.001A45.834 45.834 0 01940 174c0-25.409 20.591-46 46-46 25.41 0 46 20.591 46 46s-20.59 46-46 46c-10.761 0-20.665-3.705-28.519-9.902l-.002-.001s-.023-.017-.088-.039a1.587 1.587 0 00-.311-.068 5.761 5.761 0 00-1.112-.011c-.914.063-2.023.257-3.156.478l-.946.189c-.79.16-1.56.315-2.198.415a8.753 8.753 0 01-1.248.122c-.183 0-.388-.011-.587-.055a1.42 1.42 0 01-.724-.39l-.003-.003a1.495 1.495 0 01-.362-.723 2.692 2.692 0 01-.049-.611c.007-.384.071-.831.155-1.288.121-.656.306-1.443.495-2.25.074-.314.149-.632.221-.946.263-1.15.495-2.281.583-3.233.044-.475.049-.873.014-1.187-.036-.324-.107-.481-.148-.542zM573.927 287.759l.001-.002C600.429 248.99 616 202.087 616 151.5 616 18.103 507.897-90 374.5-90S133 18.103 133 151.5 241.103 393 374.5 393c56.498 0 108.485-19.448 149.729-51.986l.002-.001c.903-.716 2.321-1.214 4.252-1.472 1.914-.256 4.226-.264 6.819-.086 5.184.355 11.344 1.439 17.403 2.626 1.746.342 3.486.693 5.189 1.036 4.178.843 8.14 1.642 11.451 2.159 2.331.364 4.392.597 6.013.602.81.002 1.55-.052 2.176-.192.61-.136 1.229-.378 1.672-.843l.002-.003c.454-.479.702-1.117.841-1.774.141-.666.189-1.441.172-2.285-.032-1.689-.322-3.804-.76-6.181-.625-3.394-1.574-7.435-2.576-11.7-.401-1.705-.81-3.446-1.21-5.195-1.407-6.157-2.711-12.447-3.211-17.851-.249-2.7-.295-5.147-.063-7.224.233-2.088.738-3.724 1.526-4.871zM114.198 339.983l.001-.002A61.781 61.781 0 00125 305c0-34.247-27.753-62-62-62S1 270.753 1 305s27.753 62 62 62c14.504 0 27.852-4.993 38.439-13.346l.002-.001c.076-.061.28-.161.714-.219.416-.056.948-.06 1.579-.017 1.264.087 2.786.353 4.322.654.431.084.865.172 1.294.258 1.067.216 2.098.424 2.955.557.601.094 1.169.161 1.638.162.234.001.483-.014.717-.067.217-.048.542-.154.801-.427l.003-.003c.247-.261.352-.573.401-.808.052-.245.065-.503.06-.748-.009-.491-.092-1.075-.205-1.689-.162-.88-.41-1.933-.665-3.023-.101-.428-.203-.862-.302-1.293-.356-1.561-.677-3.114-.798-4.43-.061-.658-.069-1.223-.018-1.681.052-.469.158-.747.261-.896z" stroke="#333" stroke-opacity=".2" stroke-width="2"/></svg>