<svg width="129" height="95" fill="none" xmlns="http://www.w3.org/2000/svg"><circle opacity=".2" cx="90.5" cy="56.5" r="38.5" fill="#3AD"/><path d="M9.562 84.992c0 .958-.788 1.748-1.744 1.748s-1.743-.79-1.743-1.748c0-.96.787-1.749 1.743-1.749.956 0 1.744.79 1.744 1.749zm57.034-51.943c2.756-2.143 11.024-7.783 11.024-14.1.394-3.045-1.8-5.808-4.78-6.147-.282-.056-.62-.056-.957-.056-2.362.056-4.443 1.466-5.287 3.666-.844-2.2-2.925-3.666-5.287-3.666-3.037-.17-5.625 2.2-5.794 5.245 0 .338 0 .62.057.959-.057 6.316 8.268 12.012 11.024 14.1zm-1.35 12.408c0 2.82-1.631 5.47-3.656 7.782l4.162.057c1.575 0 3.038.508 4.219 1.354l.675.507c.9-2.2 1.35-4.568 1.35-7.05 0-1.353-.17-2.707-.394-3.947-1.631.394-3.319.564-5.062.564-.394 0-.788 0-1.238-.057 0 .226-.056.508-.056.79zm-22.105-.903c.169-3.045 2.756-5.414 5.794-5.245 2.362 0 4.443 1.467 5.287 3.666a6.236 6.236 0 01.843-1.466l-1.012-.677a22.997 22.997 0 01-8.1-9.813c-.056-.113-.112-.226-.112-.339a18.28 18.28 0 00-7.818 6.148c-2.306 3.158-3.713 7.05-3.713 11.223 0 .395 0 .733.057 1.128a19.529 19.529 0 015.68-.846c1.07 0 2.082.113 3.15.282l.732.113a8.309 8.309 0 01-.675-3.271c-.113-.282-.113-.62-.113-.903zm21.599-3.44h3.487a18.114 18.114 0 008.775-3.158c2.98-2.03 5.4-4.907 6.806-8.29.956-2.257 1.462-4.738 1.462-7.332 0-3.892-1.181-7.558-3.206-10.547-2.025-2.989-4.894-5.414-8.268-6.824-1.744-.733-3.6-1.24-5.569-1.41H64.74a18.115 18.115 0 00-8.775 3.158c-2.98 2.03-5.4 4.907-6.806 8.29-.956 2.257-1.462 4.738-1.462 7.333 0 3.891 1.181 7.557 3.206 10.546 1.913 2.82 4.5 5.076 7.593 6.542-.056 0 3.881 1.692 6.244 1.692zM12.093 63.448l-8.437-1.016h-.112l-.057.057V89.447l.057.056h.112l8.38-1.015h.057s0-.056.056-.056V63.56s0-.056-.056-.113c.056.057 0 0 0 0zm73.12-17.71c-.168-.056-.337-.112-.45-.112-.112 0-.224 0-.337.056-.394.113-.731.395-.844.733l-7.03 20.642c2.193-1.184 4.162-2.876 5.624-4.963l.338-.451L86 47.093v-.17c0-.282-.056-.508-.225-.677-.112-.225-.337-.395-.562-.507zm18.787.734c0 .62-.112 1.24-.394 1.86 0 .057-.056.057-.056.17L88.307 76.927c-2.306 4.23-5.962 7.5-10.405 9.249-.9.338-1.913-.113-2.25-.959-.338-.902.112-1.917.956-2.256 3.656-1.41 6.693-4.117 8.606-7.67L100.4 46.98c.056-.169.113-.282.113-.45 0-.226-.057-.508-.225-.678a.896.896 0 00-.563-.45c-.168-.057-.337-.114-.506-.114-.394 0-.787.17-1.012.508L85.55 63.391l-.506.677a20.374 20.374 0 01-10.8 7.614h-.056c-1.743.507-3.6.79-5.512.79-.112 0-.225 0-.394-.057l-17.942-3.948c-.056 0-.113 0-.169-.056h-.056c-.056 0-.056-.057-.113-.057h-.056c-.056 0-.056-.056-.113-.056l-.056-.057-.056-.056-.056-.056-.056-.057-.057-.056-.056-.057-.056-.056-.056-.056-.057-.057-.056-.056s0-.057-.056-.057c0 0 0-.056-.056-.056 0 0 0-.056-.057-.056 0 0 0-.057-.056-.113v-.113-.169-.113-.056-.17-.169-.056-.226-.113c0-.056 0-.056.056-.112v-.057c0-.056.056-.056.056-.112v-.057c0-.056.057-.056.057-.113v-.056c0-.056.056-.056.056-.113 0-.056.056-.056.056-.113l.056-.056s.057-.056.113-.056l.056-.057c.056 0 .056-.056.113-.056 0 0 .056 0 .056-.057 0 0 .056-.056.112-.056 0 0 .057 0 .057-.056.056 0 .056-.057.112-.057 0 0 .056 0 .056-.056.057 0 .057 0 .113-.057h.056c.056 0 .056 0 .113-.056H65.64c.562 0 1.125-.113 1.631-.338a4.365 4.365 0 001.35-.903c.394-.395.675-.846.9-1.353a3.866 3.866 0 00.337-1.636c0-.846-.28-1.636-.675-2.312a4.294 4.294 0 00-1.8-1.523 3.765 3.765 0 00-1.575-.338l-5.624-.057c-.675 0-1.294-.056-1.969-.169-.787-.113-1.575-.226-2.306-.451-1.406-.395-2.7-.959-3.993-1.636a14.705 14.705 0 00-4.556-1.635l-.9-.17-3.769-.62c-.956.113-1.856.057-2.7.057a16.023 16.023 0 00-11.643 5.019c-.618.677-1.406 1.297-2.193 1.861a41.562 41.562 0 01-2.644 1.636c-1.856 1.071-3.88 2.03-5.68 2.82-.788.394-1.52.733-2.194 1.015V84.2l2.25-.168h.112c2.306 0 4.612.225 6.918.62l7.706 1.466a73.211 73.211 0 0014.005 1.354c4.613 0 9.225-.395 13.725-1.24l5.062-.96a1.733 1.733 0 012.025 1.41 1.737 1.737 0 01-1.406 2.03l-5.063.96c-4.724.902-9.562 1.297-14.343 1.297-4.893 0-9.843-.451-14.68-1.41l-7.706-1.467c-2.025-.394-4.106-.564-6.187-.564l-2.475.17v.676c0 .677-.168 1.297-.506 1.862-.337.564-.787 1.015-1.35 1.297a3.19 3.19 0 01-1.237.394h-.056l-8.437 1.016c-.17 0-.338.056-.45.056a3.403 3.403 0 01-1.97-.62c-.562-.395-1.012-.903-1.293-1.58C.112 90.35 0 89.898 0 89.39V62.546c0-.395.056-.733.169-1.071.112-.339.281-.677.45-.96a3.915 3.915 0 011.575-1.296c.45-.17.9-.282 1.406-.282.169 0 .337 0 .45.056l8.437 1.015h.056c.675.113 1.237.395 1.744.79.056.056.112.113.168.113l.675-.339c.731-.338 1.519-.733 2.306-1.071 1.575-.79 3.263-1.58 4.725-2.425.956-.564 1.856-1.128 2.587-1.692.394-.339.788-.62 1.013-.903a19.643 19.643 0 015.118-3.835c-.112-.846-.112-1.635-.112-2.481 0-4.963 1.631-9.588 4.387-13.31a22.674 22.674 0 019.562-7.445c-.394-1.635-.562-3.27-.562-5.02 0-4.624 1.406-8.91 3.824-12.52a22.964 22.964 0 019.787-8.12C60.41.62 63.39 0 66.427 0c4.612 0 8.887 1.41 12.487 3.835 3.543 2.425 6.412 5.809 8.1 9.813 1.124 2.651 1.743 5.64 1.743 8.686 0 4.624-1.406 8.91-3.825 12.52-2.418 3.553-5.793 6.43-9.787 8.121-.112.056-.224.113-.337.113.394 1.636.563 3.327.563 5.02 0 3.778-.957 7.331-2.588 10.433.281.79.394 1.58.394 2.425a7.471 7.471 0 01-.619 2.99 7.991 7.991 0 01-1.631 2.424 7.97 7.97 0 01-2.419 1.636c-.618.282-1.35.45-2.024.564l2.306.507c1.18 0 2.362-.169 3.543-.395l7.93-23.404.057-.113c.563-1.41 1.8-2.482 3.263-2.82.393-.113.787-.113 1.124-.113.957 0 1.857.282 2.644.79a5.267 5.267 0 011.744 2.086c.225.564.393 1.185.393 1.861 0 .226 0 .508-.056.79v.113l-1.519 6.43 7.594-10.49c.9-1.242 2.306-1.975 3.825-1.975.506 0 1.012.057 1.462.226.45.169.9.338 1.237.62.732.508 1.35 1.24 1.688 2.087.169.451.281 1.071.281 1.692z" fill="#333"/></svg>