<svg width="168" height="129" fill="none" xmlns="http://www.w3.org/2000/svg"><path d="M42.852 62.554a11.733 11.733 0 01-4.16 5.066 11.29 11.29 0 01-6.425 1.983c-1.606 0-3.066-.294-4.453-.881a11.696 11.696 0 01-5.037-4.185 11.446 11.446 0 01-1.971-6.461c0-1.616.292-3.084.876-4.479a11.733 11.733 0 014.16-5.066 11.29 11.29 0 016.425-1.982c1.606 0 3.066.293 4.453.88a11.696 11.696 0 015.037 4.186 11.446 11.446 0 011.971 6.46c0 1.616-.292 3.084-.876 4.48zm-1.606-17.767c-2.555-1.762-5.621-2.717-8.906-2.717-2.19 0-4.307.44-6.205 1.248-2.847 1.248-5.33 3.23-7.009 5.8-1.752 2.57-2.7 5.654-2.7 8.958 0 2.202.438 4.331 1.24 6.24 1.241 2.864 3.213 5.36 5.768 7.049 2.555 1.762 5.62 2.716 8.906 2.716 2.19 0 4.307-.44 6.205-1.248 2.847-1.248 5.33-3.23 7.008-5.8 1.752-2.57 2.701-5.653 2.701-8.957a16.13 16.13 0 00-1.24-6.241 15.552 15.552 0 00-5.768-7.048zM19.93 124.08c-.073-.147-.146-.22-.146-.367V88.472v-.074V88.178v-.293c0-.074 0-.074-.073-.147v-.074c0-.073-.073-.073-.073-.147v-.073c0-.073-.073-.073-.073-.147 0 0 0-.073-.074-.073l-.072-.074-.073-.073-.073-.074c0-.073-.073-.073-.073-.146l-.146-.147-.146-.147s-.074 0-.074-.073l-.072-.074c-.073 0-.073-.073-.146-.073s-.073-.074-.146-.074h-.073c-.073 0-.073 0-.146-.073h-.146-.365H17.155c-.073 0-.073 0-.146.073h-.074c-.073 0-.073.074-.145.074h-.073l-1.534.88c-.292.148-.51.368-.73.662-.146.146-.219.367-.292.587l-4.964 13.876c-.073.147-.073.367-.146.588l-1.314 14.096c0 .221-.073.368-.146.588-.146.22-.292.44-.584.587-.219.147-.51.22-.803.22H6.06c-.219 0-.365-.073-.51-.146-.22-.147-.439-.294-.585-.588a1.485 1.485 0 01-.219-.807v-.147l1.241-13.803s5.33-15.86 5.767-16.52a5.047 5.047 0 011.752-1.762c4.307-2.717 9.345-4.112 14.382-4.112h9.198c5.11 0 10.074 1.395 14.381 4.112a5.046 5.046 0 011.752 1.762c.438.734 5.768 16.52 5.768 16.52l1.24 13.729v.147c0 .22 0 .367-.072.514-.073.294-.292.514-.511.661-.22.147-.511.294-.803.294h-.146c-.22 0-.365 0-.584-.074a1.472 1.472 0 01-.657-.514c-.146-.22-.292-.44-.292-.807l-1.314-14.097c0-.22-.073-.367-.146-.588l-4.965-13.876c-.073-.22-.146-.44-.292-.587-.219-.294-.438-.514-.73-.661l-1.533-.881h-.073c-.073 0-.073-.074-.146-.074h-.073c-.073 0-.073 0-.146-.073h-.584-.292H46.43h-.073c-.073 0-.073 0-.146.073h-.073c-.073 0-.073.074-.146.074s-.073.073-.146.073c0 0-.073 0-.073.074a.572.572 0 00-.292.293c0 .074-.073.074-.073.147l-.073.074-.073.073-.073.073s0 .074-.073.074c0 0-.073.073-.073.147v.073c0 .074-.073.074-.073.147v.073c0 .074 0 .074-.073.147v35.903c0 .073 0 .22-.073.294a.572.572 0 01-.292.293c-.146.074-.219.147-.365.147h-23.58c-.072 0-.218 0-.291-.073-.146.073-.22 0-.365-.147zM44.093 129a4.87 4.87 0 002.044-.441c.95-.367 1.752-1.101 2.336-1.908.584-.808.876-1.836.876-2.937V98.237l1.971 5.58 1.242 13.803c.073.807.291 1.542.657 2.202a5.845 5.845 0 002.19 2.423c.949.588 2.044.881 3.212.881h.584a5.448 5.448 0 002.19-.66 5.842 5.842 0 002.409-2.203c.584-.955.876-2.056.876-3.231v-.587l-1.314-14.023c0-.221-.073-.367-.146-.588 0 0-5.548-16.446-6.278-17.694a9.68 9.68 0 00-3.212-3.23c-5.038-3.158-10.878-4.773-16.791-4.773h-9.198c-5.913 0-11.754 1.615-16.79 4.772a9.68 9.68 0 00-3.213 3.231c-.73 1.175-6.278 17.621-6.278 17.621-.073.147-.073.367-.146.587L0 116.445v.587c0 .735.146 1.542.438 2.203.438 1.028 1.095 1.909 1.971 2.57.876.661 1.971 1.101 3.14 1.248h.583c.803 0 1.533-.147 2.19-.441 1.022-.44 1.898-1.101 2.555-1.982.657-.881 1.095-1.982 1.241-3.157l1.241-13.803 1.971-5.58v25.477c0 .734.146 1.395.438 2.056.366.954 1.095 1.762 1.898 2.349.803.587 1.825.881 2.92.881h23.507V129zm55.482-75.403a11.734 11.734 0 014.161-5.066 11.29 11.29 0 016.424-1.982c1.606 0 3.066.293 4.453.88a11.695 11.695 0 015.037 4.186 11.446 11.446 0 011.971 6.46c0 1.616-.292 3.084-.876 4.48a11.732 11.732 0 01-4.161 5.065 11.29 11.29 0 01-6.424 1.983c-1.606 0-3.066-.294-4.453-.881a11.695 11.695 0 01-5.037-4.185 11.445 11.445 0 01-1.971-6.461c0-1.616.365-3.084.876-4.479zm1.606 17.768c2.555 1.762 5.621 2.716 8.906 2.716 2.19 0 4.307-.44 6.205-1.248 2.847-1.248 5.329-3.23 7.008-5.8 1.753-2.57 2.702-5.653 2.702-8.957a16.13 16.13 0 00-1.241-6.241c-1.242-2.864-3.213-5.36-5.768-7.048-2.555-1.762-5.621-2.717-8.906-2.717-2.19 0-4.307.44-6.205 1.248-2.847 1.248-5.33 3.23-7.008 5.8-1.752 2.57-2.701 5.654-2.701 8.958 0 2.202.438 4.331 1.24 6.24 1.242 2.864 3.286 5.36 5.768 7.049zm39.932 31.057c0-.221-.073-.367-.146-.588 0 0-5.548-16.446-6.278-17.694a9.68 9.68 0 00-3.212-3.23c-5.037-3.158-10.878-4.773-16.791-4.773h-9.198c-5.913 0-11.753 1.615-16.79 4.772a9.68 9.68 0 00-3.213 3.231c-.73 1.175-6.278 17.621-6.278 17.621-.073.147-.073.367-.146.587l-1.314 14.097v.587c0 .735.146 1.542.438 2.203.438 1.028 1.095 1.909 1.971 2.57.876.661 1.971 1.101 3.14 1.248h.583c.803 0 1.533-.147 2.19-.441 1.022-.44 1.898-1.101 2.555-1.982.657-.881 1.096-1.982 1.242-3.157l1.24-13.803 1.972-5.58v5.139a2.28 2.28 0 002.263 2.276c1.24 0 2.263-1.027 2.263-2.276V88.178 87.958 87.738c0-.074-.073-.147-.073-.147v-.074c0-.073-.073-.146-.073-.22 0-.073-.073-.147-.073-.147 0-.073-.073-.073-.073-.147 0-.073-.073-.073-.073-.146v-.074l-.146-.147-.073-.073a2.256 2.256 0 00-.95-.44H95.342h-.146H94.976c-.073 0-.073 0-.146.073h-.073c-.073 0-.073.073-.146.073h-.073l-1.533.881c-.292.147-.511.367-.73.661-.073.147-.22.367-.292.587l-4.965 13.877c-.073.147-.073.367-.146.587l-1.314 14.097c0 .22-.073.367-.146.587-.146.221-.292.441-.584.588-.219.147-.51.22-.803.22h-.146c-.219 0-.365-.073-.51-.147-.22-.147-.439-.294-.585-.587a1.486 1.486 0 01-.219-.808v-.147l1.241-13.803s5.403-15.859 5.767-16.52a5.048 5.048 0 011.753-1.761c4.307-2.717 9.344-4.112 14.381-4.112h9.198c5.11 0 10.075 1.395 14.382 4.112a5.048 5.048 0 011.752 1.762c.438.734 5.767 16.519 5.767 16.519l1.241 13.73v.147c0 .22 0 .367-.073.514-.073.293-.292.514-.511.66-.219.147-.438.294-.803.294h-.146c-.219 0-.365 0-.584-.073a1.479 1.479 0 01-.657-.514c-.146-.22-.292-.441-.292-.808l-1.314-14.097c0-.22-.073-.367-.146-.587l-4.964-13.876c-.073-.22-.146-.441-.292-.588-.219-.293-.438-.514-.73-.66l-1.533-.882h-.073c-.073 0-.073-.073-.146-.073h-.073c-.073 0-.073 0-.146-.074h-.073-1.023-.073c-.073 0-.073 0-.146.074-.146.073-.292.073-.365.147l-.073.073c-.073 0-.073.074-.146.074s-.073.073-.146.073-.073.074-.146.147l-.073.073-.073.074-.073.073-.073.074s0 .073-.073.073c0 .073-.073.073-.073.147v.073c0 .074-.073.074-.073.147v36.123c0 .073 0 .22-.073.294a.568.568 0 01-.292.293c-.146.074-.219.147-.438.147H98.553c-.073 0-.22 0-.292-.073a.574.574 0 01-.292-.294c-.073-.147-.146-.22-.146-.44v-5.14c0-1.248-1.022-2.276-2.263-2.276-1.241 0-2.263 1.028-2.263 2.276v5.14c0 .734.146 1.395.438 2.055a6.007 6.007 0 001.898 2.35c.803.587 1.825.881 2.92.881h23.36a4.87 4.87 0 002.044-.441c.95-.367 1.753-1.101 2.337-1.909.584-.807.876-1.835.876-2.936V97.87l1.971 5.58 1.241 13.803c.073.807.292 1.542.657 2.202a5.845 5.845 0 002.19 2.423c.949.588 2.044.881 3.212.881h.584a5.433 5.433 0 002.19-.661 5.834 5.834 0 002.409-2.202c.584-.955.876-2.056.876-3.231v-.587l-1.387-13.656zM90.888 17.768c-1.096 0-1.898.88-1.898 1.909a1.89 1.89 0 001.898 1.909c1.022 0 1.898-.881 1.898-1.91 0-1.027-.803-1.908-1.898-1.908zm0-7.049c-1.096 0-1.898.882-1.898 1.91a1.89 1.89 0 001.898 1.908c1.022 0 1.898-.88 1.898-1.909 0-1.027-.803-1.909-1.898-1.909zm13.286 16.96a2.226 2.226 0 00-1.679-.22c-1.46.367-2.993.588-4.6.588-2.116 0-4.16-.367-6.058-.955-2.775-.954-5.038-2.496-6.644-4.405a11.857 11.857 0 01-1.825-3.01c-.438-1.102-.657-2.203-.657-3.304 0-1.542.365-3.01 1.095-4.405.511-1.028 1.241-1.983 2.19-2.864 1.315-1.321 3.067-2.423 5.11-3.23 2.045-.808 4.308-1.248 6.717-1.248 2.117 0 4.161.367 6.059.954 2.774.954 5.037 2.496 6.643 4.405a11.855 11.855 0 011.825 3.01c.438 1.102.657 2.203.657 3.304 0 1.175-.219 2.35-.657 3.451-.438 1.101-1.095 2.13-1.898 3.084-.511.587-.657 1.395-.438 2.129l2.117 7.342-7.957-4.625zM117.46 16.3c0-2.35-.584-4.552-1.606-6.534a18.078 18.078 0 00-2.993-4.038 19.355 19.355 0 00-6.643-4.185C103.663.514 100.889 0 97.896 0c-2.628 0-5.183.44-7.447 1.248-3.504 1.175-6.497 3.157-8.687 5.727-1.095 1.322-1.97 2.717-2.555 4.332-.584 1.542-.949 3.23-.949 4.992 0 2.35.584 4.553 1.606 6.535a18.08 18.08 0 002.993 4.038 19.356 19.356 0 006.644 4.185c2.555.954 5.402 1.542 8.322 1.542 1.679 0 3.285-.147 4.818-.514l11.972 6.975a2.46 2.46 0 002.555-.147 2.373 2.373 0 00.803-2.423l-3.358-11.747c.803-1.028 1.387-2.203 1.898-3.378.657-1.615.949-3.303.949-5.066zm-19.272-5.58c-1.022 0-1.898.882-1.898 1.91a1.89 1.89 0 001.898 1.908c1.095 0 1.898-.88 1.898-1.909 0-1.027-.876-1.909-1.898-1.909zm7.3 7.049c-1.022 0-1.898.88-1.898 1.909a1.89 1.89 0 001.898 1.909c1.095 0 1.898-.881 1.898-1.91 0-1.027-.876-1.908-1.898-1.908zm0-7.049c-1.022 0-1.898.882-1.898 1.91a1.89 1.89 0 001.898 1.908c1.095 0 1.898-.88 1.898-1.909 0-1.027-.876-1.909-1.898-1.909zm-7.3 7.049c-1.022 0-1.898.88-1.898 1.909a1.89 1.89 0 001.898 1.909c1.095 0 1.898-.881 1.898-1.91 0-1.027-.876-1.908-1.898-1.908zm-41.32.514H36.94a1.469 1.469 0 000 2.937h19.93c.803 0 1.46-.661 1.46-1.469.073-.808-.584-1.468-1.46-1.468zm0-6.608H36.94a1.469 1.469 0 000 2.937h19.93c.803 0 1.46-.661 1.46-1.469.073-.807-.584-1.468-1.46-1.468zm-9.636 16.3c-1.606 0-3.139-.221-4.599-.588a2.226 2.226 0 00-1.679.22l-7.884 4.626 2.117-7.342c.219-.735 0-1.542-.438-2.13-.803-.954-1.46-1.982-1.898-3.083a9.07 9.07 0 01-.657-3.451c0-1.542.365-3.01 1.095-4.405.51-1.028 1.241-1.983 2.19-2.864 1.314-1.321 3.066-2.423 5.11-3.23 1.971-.808 4.307-1.248 6.716-1.248 2.117 0 4.161.367 5.986.954 2.775.955 5.038 2.496 6.644 4.405a11.852 11.852 0 011.825 3.01c.438 1.102.657 2.203.657 3.304 0 1.542-.365 3.01-1.095 4.406-.511 1.028-1.241 1.982-2.19 2.863-1.314 1.322-3.066 2.423-5.11 3.23-2.117.882-4.38 1.322-6.79 1.322zm16.134-2.424c1.095-1.321 1.97-2.716 2.555-4.331.584-1.542.949-3.231.949-4.993 0-2.35-.584-4.552-1.606-6.534a18.078 18.078 0 00-2.993-4.039 19.357 19.357 0 00-6.643-4.185A24.32 24.32 0 0047.232 0c-2.628 0-5.183.44-7.446 1.248-3.504 1.175-6.497 3.157-8.687 5.727-1.095 1.322-1.971 2.717-2.555 4.332-.584 1.542-.95 3.23-.95 4.992s.366 3.525.95 5.066c.51 1.175 1.095 2.35 1.898 3.378l-3.358 11.674c-.292.88.073 1.835.803 2.422.73.588 1.752.661 2.555.147l11.972-6.975c1.533.294 3.14.514 4.818.514 2.628 0 5.184-.44 7.447-1.248 3.504-1.175 6.497-3.157 8.687-5.727z" fill="#333"/><path d="M140.31 24a27.764 27.764 0 00-15.545 5.029 27.718 27.718 0 00-10.015 12.896 27.717 27.717 0 00-9.993-12.881A27.764 27.764 0 0089.243 24C77.528 24 61.5 31.021 61.5 53.787c0 30.426 39.938 57.607 53.25 67.713C128.062 111.394 168 84.266 168 53.787 168 31.021 152.025 24 140.31 24z" fill="#F50A00" fill-opacity=".1"/></svg>