<svg width="128" height="95" viewBox="0 0 128 95" fill="none" xmlns="http://www.w3.org/2000/svg">
<circle opacity="0.2" cx="89.5" cy="56.5" r="38.5" fill="#33AADD"/>
<path d="M108.072 63.1072C108.134 62.9847 108.134 62.8009 108.134 62.6783C108.134 62.5558 108.134 62.4945 108.072 62.372L105.311 52.14L103.47 45.2779C103.347 44.849 103.408 44.3589 103.592 43.93C105.495 40.1926 106.538 35.965 106.538 31.4923C106.538 25.733 104.82 20.4639 101.813 15.9912C98.8055 11.5799 94.571 8.08753 89.6 5.94311C86.286 4.53392 82.6652 3.79869 78.7989 3.79869C73.0301 3.79869 67.691 5.51422 63.2723 8.51641C58.8537 11.5186 55.3556 15.7462 53.2077 20.709C51.7962 24.0175 50.9984 27.6324 50.9984 31.4923C50.9984 37.2516 52.7167 42.5208 55.7238 46.9934C58.731 51.4048 62.9655 54.9584 67.9364 57.0416C71.2504 58.4508 74.8712 59.2473 78.7375 59.2473C81.0082 59.2473 83.2175 58.9409 85.3655 58.4508C85.6723 58.3895 85.9792 58.3895 86.286 58.4508L96.2893 61.1466L106.538 63.9037C106.661 63.9037 106.784 63.965 106.845 63.965C107.09 63.965 107.275 63.9037 107.459 63.7812C107.827 63.5361 108.011 63.3523 108.072 63.1072ZM107.95 19.2385C109.545 22.9759 110.404 27.1422 110.404 31.4923C110.404 36.3326 109.3 40.8665 107.397 44.9716L109.054 51.1597L111.816 61.3917C111.939 61.8206 112 62.2495 112 62.6783C112 63.7199 111.693 64.639 111.141 65.4354C110.588 66.2319 109.852 66.8446 108.932 67.2122C108.318 67.4573 107.704 67.5799 106.968 67.5799C106.538 67.5799 106.108 67.5186 105.679 67.3961L95.4301 64.6389L85.9178 62.0656C83.6471 62.5558 81.3151 62.8621 78.9216 62.8621C73.1529 62.8621 67.691 61.2691 63.0268 58.5733L60.7562 62.8621C57.8718 68.0088 53.6373 72.2976 48.4822 75.1772C47.5616 75.6674 46.3956 75.3611 45.9047 74.442C45.4137 73.523 45.7205 72.3589 46.6411 71.8687C51.1825 69.3567 54.926 65.558 57.4422 61.0241L59.897 56.4289C55.5397 53.1203 52.103 48.709 49.8937 43.6236C48.2981 39.8249 47.4389 35.7199 47.4389 31.3698C47.4389 29.2254 47.6844 27.081 48.0526 25.0591L46.6411 24.14C42.6521 21.5055 37.9879 20.035 33.2625 20.035C33.0784 20.035 32.8942 20.035 32.7101 20.035C27.0641 20.1575 21.8477 21.9344 17.4904 24.9365C13.1332 27.9387 9.69644 32.1663 7.60986 37.0678C6.13699 40.4989 5.33918 44.0525 5.33918 47.8512V47.9125C5.33918 52.3851 6.38247 56.5514 8.28493 60.2888C8.46904 60.7177 8.53041 61.2079 8.40767 61.6368L6.56658 68.4989L3.80493 78.7309C3.74356 78.8534 3.74356 78.9759 3.74356 79.0372C3.74356 79.2823 3.80493 79.4661 3.92767 79.6499C4.05041 79.8337 4.23452 80.0175 4.48 80.0788C4.60274 80.14 4.78685 80.2013 4.90959 80.2013C5.03233 80.2013 5.0937 80.2013 5.21644 80.14L15.4652 77.3829L25.4685 74.6871C25.7753 74.6258 26.0822 74.6258 26.389 74.6871C28.4756 75.1772 30.7463 75.4836 33.017 75.4836C33.5693 75.4836 34.1216 75.4836 34.6126 75.4223C35.6559 75.361 36.5764 76.1575 36.6378 77.1991C36.6992 78.2407 35.9014 79.1597 34.8581 79.221C34.2444 79.2823 33.6307 79.2823 33.017 79.2823C30.6236 79.2823 28.2301 78.9759 26.0208 78.4858L16.5085 81.0591L6.25973 83.8162C5.83014 83.9387 5.40055 84 4.97096 84C3.92767 84 2.94575 83.6936 2.20931 83.1422C1.41151 82.5908 0.797808 81.8556 0.429589 80.9365C0.18411 80.3239 0 79.7112 0 78.9759C0 78.547 0.0613699 78.1182 0.18411 77.6893L2.94575 67.4573L4.60274 61.2691C2.6389 57.2254 1.59562 52.6915 1.59562 47.8512C1.59562 47.8512 1.59562 47.7899 1.59562 47.7287C1.59562 41.2954 3.55945 35.291 6.87342 30.3282C10.1874 25.4267 14.9129 21.4442 20.4362 18.9934C24.1184 17.3392 28.2301 16.4201 32.526 16.3589C32.7101 16.3589 32.9556 16.3589 33.1397 16.3589C38.663 16.3589 44.0636 18.0744 48.6049 21.0766L48.9732 21.3217C49.8937 18.6871 51.1211 16.1751 52.6553 13.8468C56.1534 8.88403 60.9403 4.84026 66.6477 2.45077C70.3912 0.857768 74.5644 0 78.9216 0C85.4268 0 91.5025 1.96061 96.5348 5.39169C101.567 8.76149 105.556 13.6018 107.95 19.2385ZM35.84 51.221C36.7605 49.9344 37.2515 48.5252 37.2515 46.9934C37.2515 46.0131 37.0674 45.0328 36.6992 44.1751C36.331 43.3173 35.7786 42.5208 35.1036 41.8468C34.4285 41.1729 33.6921 40.6827 32.7715 40.3151C31.9123 39.9475 30.9304 39.7024 29.9485 39.7024C28.9052 39.7024 27.9847 39.8862 27.1255 40.3151C26.2663 40.6827 25.4685 41.2341 24.8548 41.9081C24.2411 42.5821 23.7501 43.3786 23.3819 44.2363C23.0137 45.1554 22.8296 46.0744 22.8296 47.0547C22.8296 48.035 23.0137 49.0153 23.3819 49.8731C23.7501 50.7309 24.2411 51.5274 24.9162 52.14C25.5299 52.814 26.3277 53.3042 27.1868 53.6718C28.046 54.0394 29.0279 54.2232 30.0099 54.2232C30.4395 54.2232 30.9304 54.1619 31.36 54.1007C31.7896 54.0394 32.2805 53.9168 32.7101 53.733L32.8329 53.6718L31.851 52.7527C31.6055 52.5077 31.4214 52.3238 31.36 52.14C31.2986 51.9562 31.2373 51.7112 31.2373 51.4661C31.2373 50.9147 31.4214 50.4245 31.851 50.0569C32.2805 49.628 32.7715 49.4442 33.3238 49.4442C33.5079 49.4442 33.7534 49.5055 33.9375 49.628C34.183 49.6893 34.4285 49.8731 34.6126 50.0569L35.7786 51.3435L35.84 51.221ZM40.5041 50.7921C40.0745 51.895 39.4608 52.9978 38.6016 53.9781L38.5403 54.0394L39.6449 55.1422C39.8904 55.3873 40.0131 55.6324 40.0745 55.8775C40.1359 56.1225 40.1973 56.3676 40.1973 56.4902C40.1973 56.9803 40.0131 57.4092 39.6449 57.7768C39.2767 58.1444 38.7858 58.3895 38.2334 58.3895C37.7425 58.3895 37.3129 58.2057 36.9447 57.8381L35.5945 56.5514H35.5331C34.7353 56.9803 33.8762 57.3479 32.8942 57.593C31.9737 57.8381 30.9918 58.0219 30.0099 58.0219C28.4756 58.0219 27.0027 57.7155 25.6526 57.1641C24.3025 56.6127 23.0751 55.8162 22.0931 54.8359C21.1112 53.8556 20.3134 52.6915 19.6997 51.3435C19.086 49.9956 18.8405 48.5864 18.8405 47.0547C18.8405 45.5842 19.1474 44.1138 19.6997 42.8271C20.2521 41.4792 21.0499 40.3151 22.0318 39.2735C23.0137 38.2319 24.1797 37.4354 25.5299 36.8228C26.88 36.2101 28.3529 35.9037 29.8871 35.9037C31.4827 35.9037 32.9556 36.2101 34.3671 36.8228C35.7173 37.4354 36.9447 38.2319 37.9266 39.2123C38.9085 40.1926 39.7063 41.4179 40.32 42.7046C40.8723 44.0525 41.1792 45.523 41.1792 46.9934C41.1792 48.4026 40.9337 49.6893 40.5041 50.7921ZM77.6329 30.6346H81.6833L79.5967 25.9168L77.6329 30.6346ZM88.9863 37.9869C89.0477 38.1094 89.109 38.2319 89.2318 38.477C89.2931 38.6608 89.3545 38.8446 89.3545 39.0284C89.3545 39.5799 89.1704 40.0088 88.8022 40.3764C88.434 40.744 87.943 40.9278 87.452 40.9278C86.9611 40.9278 86.5929 40.8053 86.286 40.6214C86.0406 40.4376 85.7951 40.07 85.611 39.6411L83.4016 34.5558H75.9759L73.8279 39.5799C73.6438 39.9475 73.3984 40.3151 73.0301 40.5602C72.6619 40.8052 72.3551 40.9278 71.9868 40.9278C71.4959 40.9278 71.0663 40.744 70.6367 40.4376C70.2685 40.07 70.0844 39.6411 70.0844 39.0897C70.0844 38.7221 70.1458 38.4158 70.3299 38.1094L77.9397 20.7702C78.1238 20.4026 78.3693 20.0963 78.6148 19.8512C78.9216 19.6061 79.2899 19.4836 79.7194 19.4836C80.2104 19.4836 80.5786 19.6061 80.8855 19.8512C81.1923 20.0963 81.3764 20.4639 81.5605 20.8315L88.9863 37.9869Z" fill="#333333"/>
</svg>
