<svg width="40" height="30" fill="none" xmlns="http://www.w3.org/2000/svg"><path d="M33.5 28h-27c-.275 0-.5.225-.5.5v1c0 .275.225.5.5.5h27c.275 0 .5-.225.5-.5v-1c0-.275-.225-.5-.5-.5zm3-20a3.502 3.502 0 00-3.5 3.5c0 .475.094.925.269 1.338L29.75 14.95a1.99 1.99 0 01-1.025.288 2.001 2.001 0 01-1.738-1.007l-4.65-8.137A3.504 3.504 0 0023.5 3.5C23.5 1.569 21.931 0 20 0a3.502 3.502 0 00-3.5 3.5 3.48 3.48 0 001.163 2.588l-4.65 8.137a1.988 1.988 0 01-2.763.719L6.731 12.83C6.9 12.42 7 11.97 7 11.494c0-1.931-1.569-3.5-3.5-3.5A3.502 3.502 0 003.5 15c.125 0 .244-.025.362-.037L8 26h24l4.138-11.037c.118.012.237.037.362.037 1.931 0 3.5-1.569 3.5-3.5S38.431 8 36.5 8zM20 2c.825 0 1.5.675 1.5 1.5S20.825 5 20 5s-1.5-.675-1.5-1.5S19.175 2 20 2zM3.5 13c-.825 0-1.5-.675-1.5-1.5S2.675 10 3.5 10s1.5.675 1.5 1.5S4.325 13 3.5 13zm27.113 11H9.387l-3.5-9.338 3.338 2a3.982 3.982 0 002.056.57 4.017 4.017 0 003.475-2.02l4.725-8.268c.175.025.344.05.525.05.181 0 .35-.025.525-.05l4.719 8.275a4.011 4.011 0 003.475 2.012c.725 0 1.431-.2 2.056-.569l3.338-2L30.613 24zM36.5 13c-.825 0-1.5-.675-1.5-1.5s.675-1.5 1.5-1.5 1.5.675 1.5 1.5-.675 1.5-1.5 1.5z" fill="#D3B822"/></svg>