<svg width="125" height="232" fill="none" xmlns="http://www.w3.org/2000/svg"><path d="M80.525 222.635s.324-1.066 1.115-2.551c.791-1.471 2.05-3.36 4.016-4.952 1.942-1.552 4.616-2.834 8.189-2.902.443-.013.91 0 1.378.041.468.04.96.094 1.451.162.504.081 1.02.162 1.547.283.527.135 1.055.284 1.606.459a27.85 27.85 0 011.702.607c.576.243 1.163.513 1.763.796a30.16 30.16 0 011.846.972 37.16 37.16 0 011.894 1.201s-.695.931-1.978 2.132a24.712 24.712 0 01-2.35 1.957 25.322 25.322 0 01-3.129 1.957 20.413 20.413 0 01-3.812 1.538c-1.39.418-2.865.675-4.448.742-3.165.122-6.714-.539-10.79-2.442zm27.67-29.891a23.322 23.322 0 012.302 5.358c.48 1.754.719 3.4.791 4.925a22.17 22.17 0 01-.215 4.183 22.98 22.98 0 01-.732 3.239c-.551 1.795-1.103 2.821-1.103 2.821-4.771-4.454-8.02-8.286-10.13-11.876-2.122-3.562-3.117-6.801-3.453-9.648-.348-2.807-.024-5.182.42-6.842.431-1.66.983-2.618.983-2.618 5.479 3.077 8.979 6.828 11.137 10.458zm-49.393 19.419s.335-1.066 1.282-2.443c.935-1.389 2.47-3.076 4.736-4.439.288-.176.575-.338.875-.486.312-.162.623-.324.96-.472a17.813 17.813 0 013.308-1.147c.408-.095.827-.216 1.259-.297a23.785 23.785 0 012.745-.405 25.146 25.146 0 013.105-.189h.408c.132 0 .252 0 .384-.014h.779c.527.014 1.079.041 1.654.081.576.054 1.151.149 1.763.257.6.108 1.234.229 1.87.405.635.175 1.295.377 1.966.593.336.108.683.23 1.02.351.347.135.695.27 1.042.419 0 0-.527 1.052-1.594 2.496a26.115 26.115 0 01-4.772 4.966c-.527.418-1.079.823-1.654 1.201a21.83 21.83 0 01-1.835 1.107c-.635.351-1.306.647-2.002.931a16.37 16.37 0 01-2.146.755c-.18.054-.371.095-.563.149l-.144.027c-.024 0-.048.013-.072.013h-.108c-.132 0-.276 0-.407.014-.552.013-1.127 0-1.715-.041-.587-.04-1.199-.081-1.822-.162a27.879 27.879 0 01-1.906-.364c-.648-.148-1.331-.31-2.002-.513a41.226 41.226 0 01-2.075-.728c-1.402-.5-2.829-1.242-4.34-2.065zm21.076-37.38c.347.283.683.58.995.891.323.296.623.58.923.877.288.297.575.607.84.931.263.31.527.607.778.918.252.31.48.634.708.971.06.081.108.162.168.257l.036.067a.178.178 0 00.072.067l.143.149c.192.202.372.405.552.594a25.32 25.32 0 011.882 2.402c.54.809.983 1.633 1.367 2.429.383.796.707 1.592.97 2.375.253.782.457 1.552.612 2.307.624 2.983.516 5.587.276 7.476-.252 1.876-.623 3.01-.623 3.01-.672-.432-1.32-.851-1.954-1.255a42.484 42.484 0 01-1.81-1.242c-.576-.418-1.14-.796-1.68-1.201-.539-.405-1.042-.81-1.546-1.201a37.384 37.384 0 01-1.427-1.174c-.227-.202-.443-.391-.67-.594-.109-.094-.217-.202-.325-.297a2.923 2.923 0 01-.275-.283 20.928 20.928 0 01-1.883-2.267 19.608 19.608 0 01-1.33-2.321 11.46 11.46 0 01-.48-1.134 16.028 16.028 0 01-.935-4.372 14.934 14.934 0 01-.036-1.026c0-2.685.636-4.912 1.223-6.504.587-1.579 1.15-2.523 1.15-2.523.828.512 1.571 1.133 2.279 1.673zm-43.352 18.838s.588-.917 1.81-1.97a13.512 13.512 0 012.314-1.592 14.244 14.244 0 013.273-1.282c1.247-.324 2.626-.499 4.208-.513.78 0 1.607.041 2.458.162.851.108 1.775.243 2.722.472.48.108.959.243 1.45.378.504.135 1.02.284 1.535.445.515.162 1.055.351 1.594.567.552.203 1.115.405 1.69.635.576.229 1.152.499 1.763.755.611.257 1.235.54 1.87.837.324.148.636.31.971.472.336.149.672.311 1.008.472.335.162.683.338 1.019.513.347.176.695.365 1.055.527 0 0-.144.256-.444.674-.3.419-.743 1.026-1.343 1.674-1.199 1.322-3.021 2.955-5.599 4.115a15.36 15.36 0 01-4.4 1.188c-.203.027-.419.04-.635.067-.216.014-.42.027-.647.027-.432.014-.875 0-1.343-.027a17.93 17.93 0 01-1.415-.134c-.48-.068-.983-.149-1.474-.27a25.814 25.814 0 01-3.13-.958c-1.066-.432-2.17-.986-3.32-1.633-1.14-.662-2.278-1.471-3.465-2.375a41.696 41.696 0 01-1.762-1.512c-.3-.27-.588-.54-.888-.823-.143-.148-.3-.283-.443-.432-.144-.148-.288-.31-.432-.459zm27.73-31.577c.084.108.168.202.264.31.168.203.336.405.492.621.323.405.611.837.899 1.242a25.142 25.142 0 011.522 2.429c.456.782.84 1.592 1.175 2.402.348.782.636 1.579.876 2.375.12.405.24.796.335 1.187a21.112 21.112 0 01.588 2.942c.024.189.06.378.084.567.203 1.525.275 3.036.251 4.467a34.484 34.484 0 01-.827 7.206 21.905 21.905 0 01-.575 2.145c-.156.5-.264.783-.264.783-.312-.216-.612-.459-.911-.702-.288-.243-.576-.472-.852-.701-.275-.23-.551-.473-.815-.702-.264-.23-.503-.486-.755-.729-.48-.486-.935-.971-1.367-1.457-.431-.486-.803-.999-1.175-1.485-.36-.485-.707-.971-1.007-1.457-.3-.499-.575-.985-.827-1.457-.252-.486-.48-.945-.695-1.417a19.002 19.002 0 01-.54-1.404c-.311-.931-.563-1.795-.707-2.658a16.975 16.975 0 01-.264-2.483c-.072-1.566.132-3.037.432-4.332a16.703 16.703 0 011.223-3.414c.48-.985.995-1.835 1.474-2.51.947-1.363 1.715-2.078 1.715-2.078.084.094.167.202.251.31zm-44.718 8.083s.767-.742 2.17-1.444c.708-.35 1.559-.701 2.566-.958a13.283 13.283 0 013.429-.418c.635 0 1.306.04 1.99.135.347.054.695.108 1.055.189.36.067.743.148 1.115.256 1.522.392 3.117 1.053 4.867 1.957 3.489 1.849 7.397 4.845 12.157 9.338 0 0-.803.796-2.266 1.728-.732.458-1.643.944-2.698 1.376-1.055.418-2.29.796-3.632.958a15.281 15.281 0 01-4.484-.081 17.285 17.285 0 01-2.506-.648c-.431-.148-.875-.31-1.318-.499a15.05 15.05 0 01-1.331-.648c-3.62-1.889-7.577-5.384-11.114-11.241zm36.722-12.725c.036.432.06.864.084 1.282.024.418.036.823.036 1.241 0 .824-.036 1.633-.108 2.416a27.982 27.982 0 01-.731 4.44 32.85 32.85 0 01-1.175 3.792 28.667 28.667 0 01-1.295 2.941c-.827 1.647-1.51 2.578-1.51 2.578a45.426 45.426 0 01-1.38-1.889c-.431-.621-.803-1.255-1.174-1.863-.36-.62-.708-1.201-.995-1.808-.3-.607-.564-1.201-.816-1.768-.503-1.147-.85-2.294-1.15-3.36a20.82 20.82 0 01-.6-3.09 18.364 18.364 0 01.108-5.303c.072-.392.144-.77.228-1.134.096-.364.204-.729.311-1.08.228-.688.48-1.335.768-1.929a16.436 16.436 0 011.882-3.037 16.878 16.878 0 011.942-2.078c1.199-1.079 2.086-1.579 2.086-1.579 2.146 4.13 3.165 7.8 3.489 11.228zM7.705 143.341s.887-.54 2.386-.891c1.51-.364 3.645-.54 6.126.081.624.148 1.26.351 1.919.621a18.752 18.752 0 014.184 2.28c.719.513 1.486 1.08 2.241 1.741 3.046 2.631 6.27 6.518 9.987 12.105 0 0-.947.566-2.565 1.093-.804.256-1.787.513-2.902.647a14.851 14.851 0 01-3.728.027 15.963 15.963 0 01-4.34-1.174 18.883 18.883 0 01-4.652-2.968 25.517 25.517 0 01-2.35-2.335 31.471 31.471 0 01-2.265-2.996c-.744-1.12-1.44-2.361-2.135-3.724-.683-1.377-1.306-2.888-1.906-4.507zm37.825-12.132c.228 1.053.36 2.078.456 3.063.107.985.155 1.943.143 2.875.012.917-.036 1.808-.12 2.685a31.345 31.345 0 01-.371 2.523c-.156.81-.348 1.593-.576 2.362a26.785 26.785 0 01-1.582 4.183 29.992 29.992 0 01-1.894 3.414 28.371 28.371 0 01-1.847 2.537c-1.139 1.39-1.99 2.119-1.99 2.119a48.853 48.853 0 01-.959-2.186c-.3-.715-.54-1.43-.767-2.119a30.088 30.088 0 01-.612-2.024 45.513 45.513 0 01-.443-1.943 24.86 24.86 0 01-.468-3.576 25.817 25.817 0 01-.06-1.633 30.4 30.4 0 01.072-1.538c.084-.999.204-1.917.396-2.78.204-.864.443-1.66.72-2.402.287-.742.587-1.404.934-2.024.348-.621.732-1.188 1.115-1.701a15.225 15.225 0 014.688-4.075c1.379-.769 2.338-1.053 2.338-1.053.36 1.134.623 2.24.827 3.293zM1.207 114.273s.971-.31 2.506-.297c1.547.014 3.657.365 5.958 1.579.288.149.576.311.864.5.3.175.6.364.899.58.6.405 1.21.877 1.822 1.417.3.27.611.553.911.863.3.311.612.621.923.958a25.325 25.325 0 011.859 2.254c2.481 3.306 4.915 7.867 7.48 14.21 0 0-1.03.337-2.709.459a15.915 15.915 0 01-6.606-.918 16.948 16.948 0 01-4.004-2.186c-.695-.499-1.343-1.08-2.026-1.754a20.033 20.033 0 01-1.978-2.267 28.99 28.99 0 01-1.846-2.848c-.144-.256-.3-.526-.444-.809-.144-.284-.276-.567-.42-.851-.275-.58-.54-1.187-.803-1.821-.527-1.269-.971-2.659-1.379-4.17-.431-1.512-.73-3.158-1.007-4.899zm38.077 5.803a26.8 26.8 0 01-.828 2.375c-.3.756-.659 1.484-1.007 2.159a24.817 24.817 0 01-2.337 3.711 26.022 26.022 0 01-4.784 4.926c-1.379 1.079-2.35 1.592-2.35 1.592-.192-.81-.36-1.606-.515-2.375-.072-.391-.144-.769-.204-1.134-.06-.377-.108-.742-.156-1.12a35.812 35.812 0 01-.216-2.118 28.787 28.787 0 01-.06-1.998c0-.647.012-1.268.036-1.862a25.77 25.77 0 01.168-1.741c.072-.553.156-1.093.252-1.605.048-.257.096-.513.156-.756s.132-.486.192-.729a19.33 19.33 0 01.923-2.618c.168-.391.36-.769.551-1.133.192-.365.396-.702.612-1.026a15.68 15.68 0 011.306-1.754c.228-.257.456-.5.684-.729.24-.229.48-.445.72-.648 1.917-1.633 3.883-2.415 5.37-2.834 1.487-.418 2.482-.458 2.482-.458.443 4.709 0 8.555-.995 11.875zM.608 83.964s1.007-.054 2.494.365c.743.216 1.618.54 2.541 1.039.935.5 1.906 1.174 2.925 2.065a19.242 19.242 0 012.974 3.36c.48.688.97 1.43 1.438 2.253.468.823.9 1.714 1.343 2.672.444.958.875 2.01 1.259 3.13a48.63 48.63 0 011.175 3.631c.168.648.383 1.322.551 2.024.18.702.36 1.417.516 2.173.168.742.36 1.511.527 2.321.168.796.312 1.633.492 2.483 0 0-1.067.081-2.746-.203-1.666-.283-3.908-.944-6.258-2.523-1.187-.783-2.35-1.808-3.488-3.131a17.598 17.598 0 01-.84-1.052 13.574 13.574 0 01-.803-1.174 25.622 25.622 0 01-1.475-2.726c-.48-.999-.875-2.092-1.234-3.28-.18-.593-.36-1.214-.516-1.862-.168-.647-.276-1.309-.408-2.01-.227-1.39-.443-2.875-.503-4.467a79.61 79.61 0 01-.072-2.47v-.634c.012-.216.012-.432.024-.648.036-.445.06-.877.084-1.336zm35.918 15.37a21.34 21.34 0 01-1.283 2.079c-.227.324-.455.648-.683.945-.228.31-.467.607-.707.89a26.885 26.885 0 01-2.997 3.023 24.42 24.42 0 01-5.635 3.63c-1.535.715-2.59.985-2.59.985-.06-.837-.048-1.66-.048-2.442a46.06 46.06 0 01.072-2.281c.06-.729.132-1.444.216-2.119.084-.674.168-1.336.312-1.956.264-1.255.551-2.402.91-3.455a24.97 24.97 0 011.212-2.86c.431-.851.935-1.62 1.427-2.295.503-.675 1.006-1.282 1.546-1.795 1.091-1.039 2.194-1.795 3.285-2.334 1.079-.54 2.17-.864 3.153-1.066.995-.203 1.894-.27 2.661-.27 1.535-.014 2.518.202 2.518.202-.563 4.602-1.738 8.164-3.369 11.12zM6.542 54.02s.983.216 2.338 1.052c1.355.824 3.093 2.268 4.628 4.562.384.566.755 1.2 1.115 1.875s.72 1.43 1.03 2.227c.324.796.624 1.66.888 2.578.132.458.264.944.396 1.43.131.5.24 1.012.347 1.538.864 4.251 1.211 9.554 1.08 16.558 0 0-1.056-.202-2.614-.918a16.926 16.926 0 01-5.575-4.115c-1.954-2.16-3.789-5.277-4.712-9.703-.215-1.106-.42-2.294-.503-3.563a40.695 40.695 0 01-.06-4.048c.072-1.43.252-2.928.503-4.52.06-.405.132-.797.228-1.202.084-.404.18-.81.276-1.228.18-.81.396-1.66.635-2.523zm31.519 24.749a23.321 23.321 0 01-6.966 5.155c-2.361 1.133-4.567 1.74-6.222 2.038-1.654.296-2.721.283-2.721.283.132-.823.264-1.62.443-2.389.18-.755.372-1.497.564-2.186.096-.35.204-.688.3-1.025.107-.338.227-.661.347-.972.24-.634.48-1.241.72-1.822.12-.283.24-.566.371-.836.132-.27.276-.54.408-.796.276-.513.551-1 .839-1.458a17.215 17.215 0 011.786-2.429c.312-.35.612-.688.924-.985.311-.31.61-.594.935-.85a13.934 13.934 0 011.906-1.296c.635-.35 1.247-.647 1.858-.863a12.376 12.376 0 011.822-.473c2.362-.418 4.424-.08 5.899.324 1.486.419 2.386.904 2.386.904-1.511 4.238-3.43 7.3-5.6 9.676zM18.987 26.653s.91.5 2.038 1.673c.563.594 1.187 1.35 1.774 2.294.6.945 1.187 2.079 1.69 3.414.504 1.336.9 2.848 1.151 4.562.144.863.24 1.794.3 2.766.024.486.048.985.048 1.498v1.593a39.43 39.43 0 01-.228 3.44c-.072.594-.12 1.228-.215 1.876-.084.634-.18 1.296-.3 1.97-.06.338-.12.675-.18 1.026-.06.35-.12.702-.18 1.066a61.506 61.506 0 01-.443 2.2c-.18.742-.324 1.525-.504 2.334-.18.796-.384 1.62-.6 2.456 0 0-.24-.121-.659-.391-.407-.27-.995-.661-1.666-1.228a18.915 18.915 0 01-4.484-5.56c-.707-1.322-1.295-2.86-1.75-4.656-.468-1.808-.66-3.805-.636-6.1 0-1.146.132-2.334.324-3.589s.444-2.577.851-3.927c.192-.674.42-1.376.66-2.078.24-.715.503-1.43.827-2.145a60.37 60.37 0 011.007-2.2 21.35 21.35 0 011.175-2.294zM43.97 59.499a21.497 21.497 0 01-7.876 2.995 23.467 23.467 0 01-6.462.23c-.84-.095-1.51-.216-1.978-.31-.468-.095-.72-.176-.72-.176.312-.756.648-1.484.971-2.172.336-.689.648-1.364 1.02-1.97.36-.621.719-1.202 1.066-1.755.18-.283.36-.54.54-.81.18-.256.372-.499.563-.742.372-.486.756-.931 1.127-1.363.384-.418.732-.823 1.127-1.187a21.782 21.782 0 012.278-1.85c.192-.134.372-.256.552-.364.191-.108.383-.215.563-.323.372-.203.743-.392 1.115-.54a12.219 12.219 0 012.122-.729 12.158 12.158 0 013.884-.256c1.187.121 2.254.405 3.201.769.96.364 1.775.796 2.458 1.214 1.355.824 2.11 1.539 2.11 1.539-2.493 3.71-5 6.14-7.66 7.8zM36.658 3.82s.78.715 1.643 2.16c.863 1.443 1.81 3.602 2.241 6.423.42 2.806.36 6.302-.683 10.458a35.759 35.759 0 01-.947 3.266c-.204.553-.384 1.147-.611 1.754a53.593 53.593 0 01-.708 1.822c-.527 1.228-1.067 2.55-1.714 3.913-.671 1.35-1.33 2.82-2.134 4.318 0 0-.84-.755-1.894-2.226a20.45 20.45 0 01-3.13-6.64 21.956 21.956 0 01-.683-4.98 18.76 18.76 0 01.012-1.416c.024-.472.06-.972.12-1.47a24.76 24.76 0 01.552-3.145c.06-.27.131-.553.203-.823.072-.27.168-.554.252-.824.18-.553.384-1.12.6-1.7.215-.58.467-1.16.73-1.754.133-.297.277-.594.42-.89l.468-.891a42.597 42.597 0 012.266-3.657 47.207 47.207 0 012.997-3.698zm24.23 34.87a20.15 20.15 0 01-2.326 1.62c-.192.12-.384.229-.588.337-.192.108-.383.216-.563.324-.372.202-.755.391-1.127.566-.372.176-.755.324-1.127.473-.192.067-.384.135-.564.202-.18.068-.36.135-.551.19a16.617 16.617 0 01-3.261.714c-.36.04-.695.095-1.055.122-1.39.121-2.745.08-4.016-.068a23.391 23.391 0 01-6.306-1.579c-1.583-.634-2.506-1.241-2.506-1.241.96-1.296 1.87-2.483 2.841-3.468.96-.999 1.87-1.89 2.83-2.605.467-.364.935-.701 1.39-1.012.456-.31.9-.607 1.355-.836a21.137 21.137 0 012.614-1.188c3.38-1.16 6.222-.89 8.512-.027 2.278.85 3.968 2.213 5.119 3.36 1.15 1.134 1.738 2.051 1.738 2.051a27.29 27.29 0 01-2.41 2.065zm12.96-35.261c-.552 1.025-1.151 1.956-1.739 2.874-1.199 1.822-2.554 3.347-3.92 4.764-.684.701-1.415 1.322-2.122 1.93a28.524 28.524 0 01-2.158 1.713c-.372.257-.732.513-1.103.756-.36.256-.72.5-1.08.729-.719.472-1.45.904-2.17 1.295-.359.189-.707.391-1.054.58a36.205 36.205 0 01-3.033 1.511 50.39 50.39 0 01-3.441 1.499c-.504.189-.96.364-1.355.526-.396.148-.743.283-1.031.378-.575.202-.9.297-.9.297.145-.743.3-1.458.48-2.16.084-.35.18-.701.276-1.039.108-.337.216-.66.324-.998.443-1.31.947-2.55 1.498-3.725 1.151-2.267 2.458-4.318 3.945-5.964C58.166 5.008 61.51 2.956 64.52 1.7 67.565.501 70.287.07 72.253.015c1.966-.068 3.14.121 3.14.121a34.397 34.397 0 01-1.546 3.293zM122.641 232l-1.259-1.714-.624-.863a19.897 19.897 0 00-.671-.824l-1.355-1.632c-.215-.284-.467-.527-.707-.797l-.719-.782-.708-.783-.359-.391c-.12-.135-.252-.243-.372-.378l-1.499-1.485c-.251-.243-.491-.499-.743-.742l-.779-.715-1.547-1.417c-.515-.472-1.067-.904-1.594-1.363-.54-.445-1.067-.904-1.607-1.349l-1.642-1.296c-.552-.432-1.091-.864-1.655-1.268l-1.678-1.228c-.276-.203-.563-.419-.839-.608l-.851-.58-1.715-1.174c-.563-.391-1.163-.756-1.738-1.133l-1.739-1.121-1.774-1.066c-1.175-.728-2.374-1.39-3.573-2.064-.3-.162-.599-.338-.899-.5l-.91-.472-1.823-.958c-.612-.31-1.223-.594-1.835-.904-.61-.297-1.222-.607-1.846-.877-1.247-.554-2.47-1.134-3.728-1.62l-3.837-1.578c-.647-.257-1.282-.581-1.918-.878l-.947-.445-.48-.229-.467-.243-1.87-.985-.468-.243-.456-.27-.91-.54c-4.892-2.847-9.46-6.356-13.704-10.283l-.395-.364-.384-.378-.78-.756-.779-.755c-.263-.257-.515-.5-.767-.77-.995-1.052-2.026-2.091-2.973-3.198-1.966-2.159-3.789-4.467-5.575-6.801a118.804 118.804 0 01-9.519-15.047 128.272 128.272 0 01-7.29-16.53 135.298 135.298 0 01-4.89-17.597 129.171 129.171 0 01-2.362-18.232 49.586 49.586 0 01-.108-2.307l-.084-2.308-.012-2.307c0-.77-.012-1.539.012-2.308.048-1.538.06-3.077.18-4.602l.131-2.294.216-2.294c.12-1.525.336-3.05.528-4.574.084-.756.216-1.512.335-2.267l.36-2.267.444-2.254c.156-.742.275-1.498.467-2.24l.528-2.227c.084-.364.168-.742.264-1.106l.3-1.107a109.66 109.66 0 016.09-17.057 104.681 104.681 0 018.751-15.478 105.944 105.944 0 0111.006-13.482l1.499-1.551 1.546-1.485 1.547-1.484 1.594-1.417 1.595-1.417c.54-.459 1.09-.904 1.642-1.35l1.643-1.349c.276-.23.551-.445.839-.648l.84-.634-.828.661c-.276.216-.552.446-.815.675l-1.607 1.39c-.54.472-1.079.918-1.606 1.403l-1.559 1.458-1.558 1.457-1.51 1.525-1.511 1.525-1.463 1.579a106.33 106.33 0 00-10.67 13.683 103.037 103.037 0 00-8.428 15.492 107.25 107.25 0 00-5.743 16.936l-.276 1.093c-.096.364-.168.729-.24 1.093l-.479 2.2c-.168.728-.288 1.47-.42 2.213l-.395 2.226-.336 2.24c-.108.743-.228 1.485-.312 2.24-.168 1.498-.371 2.996-.467 4.494l-.18 2.254-.108 2.267c-.096 1.511-.096 3.023-.132 4.52-.024.756 0 1.512.012 2.268l.036 2.267.096 2.267c.036.756.06 1.511.132 2.253a127.56 127.56 0 002.506 17.867 131 131 0 004.975 17.192 126.903 126.903 0 007.23 16.14 115.894 115.894 0 009.374 14.642c1.763 2.267 3.55 4.507 5.467 6.585.935 1.066 1.93 2.065 2.914 3.09.24.257.491.5.755.742l.755.729.755.729.384.364.396.351c4.148 3.779 8.572 7.166 13.307 9.932l.887.526.444.257.456.243 1.81.958.456.243.455.216.923.431c.612.284 1.223.594 1.847.837l3.788 1.565c1.295.5 2.553 1.093 3.824 1.66.636.27 1.26.594 1.883.891.623.31 1.258.607 1.882.918l1.858.971.923.486c.312.162.612.337.911.513 1.223.688 2.446 1.363 3.645 2.105l1.798 1.093 1.775 1.147c.587.391 1.187.756 1.762 1.161l1.738 1.201.876.607c.287.202.575.418.863.634l1.714 1.269c.576.418 1.127.863 1.691 1.309l1.678 1.335c.551.459 1.091.932 1.642 1.39.54.473 1.091.918 1.631 1.404l1.582 1.471.792.728c.263.257.515.513.767.77l1.535 1.538.383.391.372.405.731.81.731.81c.24.269.492.539.72.823l1.39 1.714c.228.283.468.566.696.863l.647.904 1.307 1.809-1.858 1.592z" fill="#F50A00"/><path d="M80.525 222.635s.324-1.066 1.115-2.551c.791-1.471 2.05-3.36 4.016-4.952 1.942-1.552 4.616-2.834 8.189-2.902.443-.013.91 0 1.378.041.468.04.96.094 1.451.162.504.081 1.02.162 1.547.283.527.135 1.055.284 1.606.459a27.85 27.85 0 011.702.607c.576.243 1.163.513 1.763.796a30.16 30.16 0 011.846.972 37.16 37.16 0 011.894 1.201s-.695.931-1.978 2.132a24.712 24.712 0 01-2.35 1.957 25.322 25.322 0 01-3.129 1.957 20.413 20.413 0 01-3.812 1.538c-1.39.418-2.865.675-4.448.742-3.165.122-6.714-.539-10.79-2.442zm27.67-29.891a23.322 23.322 0 012.302 5.358c.48 1.754.719 3.4.791 4.925a22.17 22.17 0 01-.215 4.183 22.98 22.98 0 01-.732 3.239c-.551 1.795-1.103 2.821-1.103 2.821-4.771-4.454-8.02-8.286-10.13-11.876-2.122-3.562-3.117-6.801-3.453-9.648-.348-2.807-.024-5.182.42-6.842.431-1.66.983-2.618.983-2.618 5.479 3.077 8.979 6.828 11.137 10.458zm-49.393 19.419s.335-1.066 1.282-2.443c.935-1.389 2.47-3.076 4.736-4.439.288-.176.575-.338.875-.486.312-.162.623-.324.96-.472a17.813 17.813 0 013.308-1.147c.408-.095.827-.216 1.259-.297a23.785 23.785 0 012.745-.405 25.146 25.146 0 013.105-.189h.408c.132 0 .252 0 .384-.014h.779c.527.014 1.079.041 1.654.081.576.054 1.151.149 1.763.257.6.108 1.234.229 1.87.405.635.175 1.295.377 1.966.593.336.108.683.23 1.02.351.347.135.695.27 1.042.419 0 0-.527 1.052-1.594 2.496a26.115 26.115 0 01-4.772 4.966c-.527.418-1.079.823-1.654 1.201a21.83 21.83 0 01-1.835 1.107c-.635.351-1.306.647-2.002.931a16.37 16.37 0 01-2.146.755c-.18.054-.371.095-.563.149l-.144.027c-.024 0-.048.013-.072.013h-.108c-.132 0-.276 0-.407.014-.552.013-1.127 0-1.715-.041-.587-.04-1.199-.081-1.822-.162a27.879 27.879 0 01-1.906-.364c-.648-.148-1.331-.31-2.002-.513a41.226 41.226 0 01-2.075-.728c-1.402-.5-2.829-1.242-4.34-2.065zm21.076-37.38c.347.283.683.58.995.891.323.296.623.58.923.877.288.297.575.607.84.931.263.31.527.607.778.918.252.31.48.634.708.971.06.081.108.162.168.257l.036.067a.178.178 0 00.072.067l.143.149c.192.202.372.405.552.594a25.32 25.32 0 011.882 2.402c.54.809.983 1.633 1.367 2.429.383.796.707 1.592.97 2.375.253.782.457 1.552.612 2.307.624 2.983.516 5.587.276 7.476-.252 1.876-.623 3.01-.623 3.01-.672-.432-1.32-.851-1.954-1.255a42.484 42.484 0 01-1.81-1.242c-.576-.418-1.14-.796-1.68-1.201-.539-.405-1.042-.81-1.546-1.201a37.384 37.384 0 01-1.427-1.174c-.227-.202-.443-.391-.67-.594-.109-.094-.217-.202-.325-.297a2.923 2.923 0 01-.275-.283 20.928 20.928 0 01-1.883-2.267 19.608 19.608 0 01-1.33-2.321 11.46 11.46 0 01-.48-1.134 16.028 16.028 0 01-.935-4.372 14.934 14.934 0 01-.036-1.026c0-2.685.636-4.912 1.223-6.504.587-1.579 1.15-2.523 1.15-2.523.828.512 1.571 1.133 2.279 1.673zm-43.352 18.838s.588-.917 1.81-1.97a13.512 13.512 0 012.314-1.592 14.244 14.244 0 013.273-1.282c1.247-.324 2.626-.499 4.208-.513.78 0 1.607.041 2.458.162.851.108 1.775.243 2.722.472.48.108.959.243 1.45.378.504.135 1.02.284 1.535.445.515.162 1.055.351 1.594.567.552.203 1.115.405 1.69.635.576.229 1.152.499 1.763.755.611.257 1.235.54 1.87.837.324.148.636.31.971.472.336.149.672.311 1.008.472.335.162.683.338 1.019.513.347.176.695.365 1.055.527 0 0-.144.256-.444.674-.3.419-.743 1.026-1.343 1.674-1.199 1.322-3.021 2.955-5.599 4.115a15.36 15.36 0 01-4.4 1.188c-.203.027-.419.04-.635.067-.216.014-.42.027-.647.027-.432.014-.875 0-1.343-.027a17.93 17.93 0 01-1.415-.134c-.48-.068-.983-.149-1.474-.27a25.814 25.814 0 01-3.13-.958c-1.066-.432-2.17-.986-3.32-1.633-1.14-.662-2.278-1.471-3.465-2.375a41.696 41.696 0 01-1.762-1.512c-.3-.27-.588-.54-.888-.823-.143-.148-.3-.283-.443-.432-.144-.148-.288-.31-.432-.459zm27.73-31.577c.084.108.168.202.264.31.168.203.336.405.492.621.323.405.611.837.899 1.242a25.142 25.142 0 011.522 2.429c.456.782.84 1.592 1.175 2.402.348.782.636 1.579.876 2.375.12.405.24.796.335 1.187a21.112 21.112 0 01.588 2.942c.024.189.06.378.084.567.203 1.525.275 3.036.251 4.467a34.484 34.484 0 01-.827 7.206 21.905 21.905 0 01-.575 2.145c-.156.5-.264.783-.264.783-.312-.216-.612-.459-.911-.702-.288-.243-.576-.472-.852-.701-.275-.23-.551-.473-.815-.702-.264-.23-.503-.486-.755-.729-.48-.486-.935-.971-1.367-1.457-.431-.486-.803-.999-1.175-1.485-.36-.485-.707-.971-1.007-1.457-.3-.499-.575-.985-.827-1.457-.252-.486-.48-.945-.695-1.417a19.002 19.002 0 01-.54-1.404c-.311-.931-.563-1.795-.707-2.658a16.975 16.975 0 01-.264-2.483c-.072-1.566.132-3.037.432-4.332a16.703 16.703 0 011.223-3.414c.48-.985.995-1.835 1.474-2.51.947-1.363 1.715-2.078 1.715-2.078.084.094.167.202.251.31zm-44.718 8.083s.767-.742 2.17-1.444c.708-.35 1.559-.701 2.566-.958a13.283 13.283 0 013.429-.418c.635 0 1.306.04 1.99.135.347.054.695.108 1.055.189.36.067.743.148 1.115.256 1.522.392 3.117 1.053 4.867 1.957 3.489 1.849 7.397 4.845 12.157 9.338 0 0-.803.796-2.266 1.728-.732.458-1.643.944-2.698 1.376-1.055.418-2.29.796-3.632.958a15.281 15.281 0 01-4.484-.081 17.285 17.285 0 01-2.506-.648c-.431-.148-.875-.31-1.318-.499a15.05 15.05 0 01-1.331-.648c-3.62-1.889-7.577-5.384-11.114-11.241zm36.722-12.725c.036.432.06.864.084 1.282.024.418.036.823.036 1.241 0 .824-.036 1.633-.108 2.416a27.982 27.982 0 01-.731 4.44 32.85 32.85 0 01-1.175 3.792 28.667 28.667 0 01-1.295 2.941c-.827 1.647-1.51 2.578-1.51 2.578a45.426 45.426 0 01-1.38-1.889c-.431-.621-.803-1.255-1.174-1.863-.36-.62-.708-1.201-.995-1.808-.3-.607-.564-1.201-.816-1.768-.503-1.147-.85-2.294-1.15-3.36a20.82 20.82 0 01-.6-3.09 18.364 18.364 0 01.108-5.303c.072-.392.144-.77.228-1.134.096-.364.204-.729.311-1.08.228-.688.48-1.335.768-1.929a16.436 16.436 0 011.882-3.037 16.878 16.878 0 011.942-2.078c1.199-1.079 2.086-1.579 2.086-1.579 2.146 4.13 3.165 7.8 3.489 11.228zM7.705 143.341s.887-.54 2.386-.891c1.51-.364 3.645-.54 6.126.081.624.148 1.26.351 1.919.621a18.752 18.752 0 014.184 2.28c.719.513 1.486 1.08 2.241 1.741 3.046 2.631 6.27 6.518 9.987 12.105 0 0-.947.566-2.565 1.093-.804.256-1.787.513-2.902.647a14.851 14.851 0 01-3.728.027 15.963 15.963 0 01-4.34-1.174 18.883 18.883 0 01-4.652-2.968 25.517 25.517 0 01-2.35-2.335 31.471 31.471 0 01-2.265-2.996c-.744-1.12-1.44-2.361-2.135-3.724-.683-1.377-1.306-2.888-1.906-4.507zm37.825-12.132c.228 1.053.36 2.078.456 3.063.107.985.155 1.943.143 2.875.012.917-.036 1.808-.12 2.685a31.345 31.345 0 01-.371 2.523c-.156.81-.348 1.593-.576 2.362a26.785 26.785 0 01-1.582 4.183 29.992 29.992 0 01-1.894 3.414 28.371 28.371 0 01-1.847 2.537c-1.139 1.39-1.99 2.119-1.99 2.119a48.853 48.853 0 01-.959-2.186c-.3-.715-.54-1.43-.767-2.119a30.088 30.088 0 01-.612-2.024 45.513 45.513 0 01-.443-1.943 24.86 24.86 0 01-.468-3.576 25.817 25.817 0 01-.06-1.633 30.4 30.4 0 01.072-1.538c.084-.999.204-1.917.396-2.78.204-.864.443-1.66.72-2.402.287-.742.587-1.404.934-2.024.348-.621.732-1.188 1.115-1.701a15.225 15.225 0 014.688-4.075c1.379-.769 2.338-1.053 2.338-1.053.36 1.134.623 2.24.827 3.293zM1.207 114.273s.971-.31 2.506-.297c1.547.014 3.657.365 5.958 1.579.288.149.576.311.864.5.3.175.6.364.899.58.6.405 1.21.877 1.822 1.417.3.27.611.553.911.863.3.311.612.621.923.958a25.325 25.325 0 011.859 2.254c2.481 3.306 4.915 7.867 7.48 14.21 0 0-1.03.337-2.709.459a15.915 15.915 0 01-6.606-.918 16.948 16.948 0 01-4.004-2.186c-.695-.499-1.343-1.08-2.026-1.754a20.033 20.033 0 01-1.978-2.267 28.99 28.99 0 01-1.846-2.848c-.144-.256-.3-.526-.444-.809-.144-.284-.276-.567-.42-.851-.275-.58-.54-1.187-.803-1.821-.527-1.269-.971-2.659-1.379-4.17-.431-1.512-.73-3.158-1.007-4.899zm38.077 5.803a26.8 26.8 0 01-.828 2.375c-.3.756-.659 1.484-1.007 2.159a24.817 24.817 0 01-2.337 3.711 26.022 26.022 0 01-4.784 4.926c-1.379 1.079-2.35 1.592-2.35 1.592-.192-.81-.36-1.606-.515-2.375-.072-.391-.144-.769-.204-1.134-.06-.377-.108-.742-.156-1.12a35.812 35.812 0 01-.216-2.118 28.787 28.787 0 01-.06-1.998c0-.647.012-1.268.036-1.862a25.77 25.77 0 01.168-1.741c.072-.553.156-1.093.252-1.605.048-.257.096-.513.156-.756s.132-.486.192-.729a19.33 19.33 0 01.923-2.618c.168-.391.36-.769.551-1.133.192-.365.396-.702.612-1.026a15.68 15.68 0 011.306-1.754c.228-.257.456-.5.684-.729.24-.229.48-.445.72-.648 1.917-1.633 3.883-2.415 5.37-2.834 1.487-.418 2.482-.458 2.482-.458.443 4.709 0 8.555-.995 11.875zM.608 83.964s1.007-.054 2.494.365c.743.216 1.618.54 2.541 1.039.935.5 1.906 1.174 2.925 2.065a19.242 19.242 0 012.974 3.36c.48.688.97 1.43 1.438 2.253.468.823.9 1.714 1.343 2.672.444.958.875 2.01 1.259 3.13a48.63 48.63 0 011.175 3.631c.168.648.383 1.322.551 2.024.18.702.36 1.417.516 2.173.168.742.36 1.511.527 2.321.168.796.312 1.633.492 2.483 0 0-1.067.081-2.746-.203-1.666-.283-3.908-.944-6.258-2.523-1.187-.783-2.35-1.808-3.488-3.131a17.598 17.598 0 01-.84-1.052 13.574 13.574 0 01-.803-1.174 25.622 25.622 0 01-1.475-2.726c-.48-.999-.875-2.092-1.234-3.28-.18-.593-.36-1.214-.516-1.862-.168-.647-.276-1.309-.408-2.01-.227-1.39-.443-2.875-.503-4.467a79.61 79.61 0 01-.072-2.47v-.634c.012-.216.012-.432.024-.648.036-.445.06-.877.084-1.336zm35.918 15.37a21.34 21.34 0 01-1.283 2.079c-.227.324-.455.648-.683.945-.228.31-.467.607-.707.89a26.885 26.885 0 01-2.997 3.023 24.42 24.42 0 01-5.635 3.63c-1.535.715-2.59.985-2.59.985-.06-.837-.048-1.66-.048-2.442a46.06 46.06 0 01.072-2.281c.06-.729.132-1.444.216-2.119.084-.674.168-1.336.312-1.956.264-1.255.551-2.402.91-3.455a24.97 24.97 0 011.212-2.86c.431-.851.935-1.62 1.427-2.295.503-.675 1.006-1.282 1.546-1.795 1.091-1.039 2.194-1.795 3.285-2.334 1.079-.54 2.17-.864 3.153-1.066.995-.203 1.894-.27 2.661-.27 1.535-.014 2.518.202 2.518.202-.563 4.602-1.738 8.164-3.369 11.12zM6.542 54.02s.983.216 2.338 1.052c1.355.824 3.093 2.268 4.628 4.562.384.566.755 1.2 1.115 1.875s.72 1.43 1.03 2.227c.324.796.624 1.66.888 2.578.132.458.264.944.396 1.43.131.5.24 1.012.347 1.538.864 4.251 1.211 9.554 1.08 16.558 0 0-1.056-.202-2.614-.918a16.926 16.926 0 01-5.575-4.115c-1.954-2.16-3.789-5.277-4.712-9.703-.215-1.106-.42-2.294-.503-3.563a40.695 40.695 0 01-.06-4.048c.072-1.43.252-2.928.503-4.52.06-.405.132-.797.228-1.202.084-.404.18-.81.276-1.228.18-.81.396-1.66.635-2.523zm31.519 24.749a23.321 23.321 0 01-6.966 5.155c-2.361 1.133-4.567 1.74-6.222 2.038-1.654.296-2.721.283-2.721.283.132-.823.264-1.62.443-2.389.18-.755.372-1.497.564-2.186.096-.35.204-.688.3-1.025.107-.338.227-.661.347-.972.24-.634.48-1.241.72-1.822.12-.283.24-.566.371-.836.132-.27.276-.54.408-.796.276-.513.551-1 .839-1.458a17.215 17.215 0 011.786-2.429c.312-.35.612-.688.924-.985.311-.31.61-.594.935-.85a13.934 13.934 0 011.906-1.296c.635-.35 1.247-.647 1.858-.863a12.376 12.376 0 011.822-.473c2.362-.418 4.424-.08 5.899.324 1.486.419 2.386.904 2.386.904-1.511 4.238-3.43 7.3-5.6 9.676zM18.987 26.653s.91.5 2.038 1.673c.563.594 1.187 1.35 1.774 2.294.6.945 1.187 2.079 1.69 3.414.504 1.336.9 2.848 1.151 4.562.144.863.24 1.794.3 2.766.024.486.048.985.048 1.498v1.593a39.43 39.43 0 01-.228 3.44c-.072.594-.12 1.228-.215 1.876-.084.634-.18 1.296-.3 1.97-.06.338-.12.675-.18 1.026-.06.35-.12.702-.18 1.066a61.506 61.506 0 01-.443 2.2c-.18.742-.324 1.525-.504 2.334-.18.796-.384 1.62-.6 2.456 0 0-.24-.121-.659-.391-.407-.27-.995-.661-1.666-1.228a18.915 18.915 0 01-4.484-5.56c-.707-1.322-1.295-2.86-1.75-4.656-.468-1.808-.66-3.805-.636-6.1 0-1.146.132-2.334.324-3.589s.444-2.577.851-3.927c.192-.674.42-1.376.66-2.078.24-.715.503-1.43.827-2.145a60.37 60.37 0 011.007-2.2 21.35 21.35 0 011.175-2.294zM43.97 59.499a21.497 21.497 0 01-7.876 2.995 23.467 23.467 0 01-6.462.23c-.84-.095-1.51-.216-1.978-.31-.468-.095-.72-.176-.72-.176.312-.756.648-1.484.971-2.172.336-.689.648-1.364 1.02-1.97.36-.621.719-1.202 1.066-1.755.18-.283.36-.54.54-.81.18-.256.372-.499.563-.742.372-.486.756-.931 1.127-1.363.384-.418.732-.823 1.127-1.187a21.782 21.782 0 012.278-1.85c.192-.134.372-.256.552-.364.191-.108.383-.215.563-.323.372-.203.743-.392 1.115-.54a12.219 12.219 0 012.122-.729 12.158 12.158 0 013.884-.256c1.187.121 2.254.405 3.201.769.96.364 1.775.796 2.458 1.214 1.355.824 2.11 1.539 2.11 1.539-2.493 3.71-5 6.14-7.66 7.8zM36.658 3.82s.78.715 1.643 2.16c.863 1.443 1.81 3.602 2.241 6.423.42 2.806.36 6.302-.683 10.458a35.759 35.759 0 01-.947 3.266c-.204.553-.384 1.147-.611 1.754a53.593 53.593 0 01-.708 1.822c-.527 1.228-1.067 2.55-1.714 3.913-.671 1.35-1.33 2.82-2.134 4.318 0 0-.84-.755-1.894-2.226a20.45 20.45 0 01-3.13-6.64 21.956 21.956 0 01-.683-4.98 18.76 18.76 0 01.012-1.416c.024-.472.06-.972.12-1.47a24.76 24.76 0 01.552-3.145c.06-.27.131-.553.203-.823.072-.27.168-.554.252-.824.18-.553.384-1.12.6-1.7.215-.58.467-1.16.73-1.754.133-.297.277-.594.42-.89l.468-.891a42.597 42.597 0 012.266-3.657 47.207 47.207 0 012.997-3.698zm24.23 34.87a20.15 20.15 0 01-2.326 1.62c-.192.12-.384.229-.588.337-.192.108-.383.216-.563.324-.372.202-.755.391-1.127.566-.372.176-.755.324-1.127.473-.192.067-.384.135-.564.202-.18.068-.36.135-.551.19a16.617 16.617 0 01-3.261.714c-.36.04-.695.095-1.055.122-1.39.121-2.745.08-4.016-.068a23.391 23.391 0 01-6.306-1.579c-1.583-.634-2.506-1.241-2.506-1.241.96-1.296 1.87-2.483 2.841-3.468.96-.999 1.87-1.89 2.83-2.605.467-.364.935-.701 1.39-1.012.456-.31.9-.607 1.355-.836a21.137 21.137 0 012.614-1.188c3.38-1.16 6.222-.89 8.512-.027 2.278.85 3.968 2.213 5.119 3.36 1.15 1.134 1.738 2.051 1.738 2.051a27.29 27.29 0 01-2.41 2.065zm12.96-35.261c-.552 1.025-1.151 1.956-1.739 2.874-1.199 1.822-2.554 3.347-3.92 4.764-.684.701-1.415 1.322-2.122 1.93a28.524 28.524 0 01-2.158 1.713c-.372.257-.732.513-1.103.756-.36.256-.72.5-1.08.729-.719.472-1.45.904-2.17 1.295-.359.189-.707.391-1.054.58a36.205 36.205 0 01-3.033 1.511 50.39 50.39 0 01-3.441 1.499c-.504.189-.96.364-1.355.526-.396.148-.743.283-1.031.378-.575.202-.9.297-.9.297.145-.743.3-1.458.48-2.16.084-.35.18-.701.276-1.039.108-.337.216-.66.324-.998.443-1.31.947-2.55 1.498-3.725 1.151-2.267 2.458-4.318 3.945-5.964C58.166 5.008 61.51 2.956 64.52 1.7 67.565.501 70.287.07 72.253.015c1.966-.068 3.14.121 3.14.121a34.397 34.397 0 01-1.546 3.293zM122.641 232l-1.259-1.714-.624-.863a19.897 19.897 0 00-.671-.824l-1.355-1.632c-.215-.284-.467-.527-.707-.797l-.719-.782-.708-.783-.359-.391c-.12-.135-.252-.243-.372-.378l-1.499-1.485c-.251-.243-.491-.499-.743-.742l-.779-.715-1.547-1.417c-.515-.472-1.067-.904-1.594-1.363-.54-.445-1.067-.904-1.607-1.349l-1.642-1.296c-.552-.432-1.091-.864-1.655-1.268l-1.678-1.228c-.276-.203-.563-.419-.839-.608l-.851-.58-1.715-1.174c-.563-.391-1.163-.756-1.738-1.133l-1.739-1.121-1.774-1.066c-1.175-.728-2.374-1.39-3.573-2.064-.3-.162-.599-.338-.899-.5l-.91-.472-1.823-.958c-.612-.31-1.223-.594-1.835-.904-.61-.297-1.222-.607-1.846-.877-1.247-.554-2.47-1.134-3.728-1.62l-3.837-1.578c-.647-.257-1.282-.581-1.918-.878l-.947-.445-.48-.229-.467-.243-1.87-.985-.468-.243-.456-.27-.91-.54c-4.892-2.847-9.46-6.356-13.704-10.283l-.395-.364-.384-.378-.78-.756-.779-.755c-.263-.257-.515-.5-.767-.77-.995-1.052-2.026-2.091-2.973-3.198-1.966-2.159-3.789-4.467-5.575-6.801a118.804 118.804 0 01-9.519-15.047 128.272 128.272 0 01-7.29-16.53 135.298 135.298 0 01-4.89-17.597 129.171 129.171 0 01-2.362-18.232 49.586 49.586 0 01-.108-2.307l-.084-2.308-.012-2.307c0-.77-.012-1.539.012-2.308.048-1.538.06-3.077.18-4.602l.131-2.294.216-2.294c.12-1.525.336-3.05.528-4.574.084-.756.216-1.512.335-2.267l.36-2.267.444-2.254c.156-.742.275-1.498.467-2.24l.528-2.227c.084-.364.168-.742.264-1.106l.3-1.107a109.66 109.66 0 016.09-17.057 104.681 104.681 0 018.751-15.478 105.944 105.944 0 0111.006-13.482l1.499-1.551 1.546-1.485 1.547-1.484 1.594-1.417 1.595-1.417c.54-.459 1.09-.904 1.642-1.35l1.643-1.349c.276-.23.551-.445.839-.648l.84-.634-.828.661c-.276.216-.552.446-.815.675l-1.607 1.39c-.54.472-1.079.918-1.606 1.403l-1.559 1.458-1.558 1.457-1.51 1.525-1.511 1.525-1.463 1.579a106.33 106.33 0 00-10.67 13.683 103.037 103.037 0 00-8.428 15.492 107.25 107.25 0 00-5.743 16.936l-.276 1.093c-.096.364-.168.729-.24 1.093l-.479 2.2c-.168.728-.288 1.47-.42 2.213l-.395 2.226-.336 2.24c-.108.743-.228 1.485-.312 2.24-.168 1.498-.371 2.996-.467 4.494l-.18 2.254-.108 2.267c-.096 1.511-.096 3.023-.132 4.52-.024.756 0 1.512.012 2.268l.036 2.267.096 2.267c.036.756.06 1.511.132 2.253a127.56 127.56 0 002.506 17.867 131 131 0 004.975 17.192 126.903 126.903 0 007.23 16.14 115.894 115.894 0 009.374 14.642c1.763 2.267 3.55 4.507 5.467 6.585.935 1.066 1.93 2.065 2.914 3.09.24.257.491.5.755.742l.755.729.755.729.384.364.396.351c4.148 3.779 8.572 7.166 13.307 9.932l.887.526.444.257.456.243 1.81.958.456.243.455.216.923.431c.612.284 1.223.594 1.847.837l3.788 1.565c1.295.5 2.553 1.093 3.824 1.66.636.27 1.26.594 1.883.891.623.31 1.258.607 1.882.918l1.858.971.923.486c.312.162.612.337.911.513 1.223.688 2.446 1.363 3.645 2.105l1.798 1.093 1.775 1.147c.587.391 1.187.756 1.762 1.161l1.738 1.201.876.607c.287.202.575.418.863.634l1.714 1.269c.576.418 1.127.863 1.691 1.309l1.678 1.335c.551.459 1.091.932 1.642 1.39.54.473 1.091.918 1.631 1.404l1.582 1.471.792.728c.263.257.515.513.767.77l1.535 1.538.383.391.372.405.731.81.731.81c.24.269.492.539.72.823l1.39 1.714c.228.283.468.566.696.863l.647.904 1.307 1.809-1.858 1.592z" fill="url(#paint0_linear)"/><defs><linearGradient id="paint0_linear" x1="62.5" y1="0" x2="62.5" y2="232" gradientUnits="userSpaceOnUse"><stop stop-color="#D3B822"/><stop offset="1" stop-color="#fff" stop-opacity="0"/></linearGradient></defs></svg>