<svg version="1.1" id="レイヤー_1" xmlns="http://www.w3.org/2000/svg" xmlns:xlink="http://www.w3.org/1999/xlink" x="0" y="0" viewBox="0 0 400 128" xml:space="preserve"><style>.st1{fill:#fce2c4}.st4{fill:#3e3a39}.st10,.st11,.st8{fill:#3e3a39;stroke:#231815;stroke-width:1.51;stroke-miterlimit:10}.st10,.st11{fill:none;stroke:#212321;stroke-width:2.01;stroke-linecap:round}.st11{stroke:#d36267;stroke-width:1.51}.st12{fill:#f9f9fa}.st13{fill:#2a2b2b}.st14{fill:#fff}.st15{fill:#231815}.st16{fill:#e69e3a}</style><defs><circle id="SVGID_1_" cx="62.6" cy="63" r="62.6"/></defs><clipPath id="SVGID_2_"><use xlink:href="#SVGID_1_" overflow="visible"/></clipPath><g clip-path="url(#SVGID_2_)"><path class="st1" d="M67 82.1h-8.4s-3.9 32.3-28.8 55.6l19 88h28l19-88C70.9 114.5 67 82.1 67 82.1z"/><path d="M100.1 142.1l-21.6-30.7c-3.7 3.3-9.6 5.5-16.3 5.5-6.2 0-11.7-1.8-15.4-4.7l-21 30-16 89.8 13.6 1.9 14.4-49.5 5 45.7h40.4l5-45.7 14.5 49.5 13.6-1.9-16.2-89.9z" fill="#595757"/><defs><path id="SVGID_3_" d="M100.1 142.1l-21.6-30.7c-3.7 3.3-9.6 5.5-16.3 5.5-6.2 0-11.7-1.8-15.4-4.7l-21 30-16 89.8 13.6 1.9 14.4-49.5 5 45.7h40.4l5-45.7 14.5 49.5 13.6-1.9-16.2-89.9z"/></defs><clipPath id="SVGID_4_"><use xlink:href="#SVGID_3_" overflow="visible"/></clipPath><g clip-path="url(#SVGID_4_)"><path class="st4" d="M48.7 114.2l-12.2 36.9 1.5 38.3-3.3 49.5-29.9-4.7 19-94.9 16.1-24.7z"/></g><defs><path id="SVGID_5_" d="M100.1 142.1l-21.6-30.7c-3.7 3.3-9.6 5.5-16.3 5.5-6.2 0-11.7-1.8-15.4-4.7l-21 30-16 89.8 13.6 1.9 14.4-49.5 5 45.7h40.4l5-45.7 14.5 49.5 13.6-1.9-16.2-89.9z"/></defs><clipPath id="SVGID_6_"><use xlink:href="#SVGID_5_" overflow="visible"/></clipPath><g clip-path="url(#SVGID_6_)"><path class="st4" d="M77.4 114.2l12.2 36.9-1.5 38.3 3.3 49.5 29.8-4.7-18.9-94.9-16.1-24.7z"/></g><defs><path id="SVGID_7_" d="M100.1 142.1l-21.6-30.7c-3.7 3.3-9.6 5.5-16.3 5.5-6.2 0-11.7-1.8-15.4-4.7l-21 30-16 89.8 13.6 1.9 14.4-49.5 5 45.7h40.4l5-45.7 14.5 49.5 13.6-1.9-16.2-89.9z"/></defs><clipPath id="SVGID_8_"><use xlink:href="#SVGID_7_" overflow="visible"/></clipPath><g clip-path="url(#SVGID_8_)"><ellipse class="st4" cx="62.3" cy="103.5" rx="26.3" ry="17.4"/></g><path class="st4" d="M70.1 231.6h14.1l4.2-45.5 10.4 48.7 21.2-1.7-19.6-97.3L82 111.9l-4.9 35.2zM56 231.6H41.9l-4.3-45.5-10.3 48.7-21.2-1.7 19.6-97.3 18.4-23.9 4.9 35.2z"/><defs><path id="SVGID_9_" d="M56 231.6H41.9l-4.3-45.5-10.3 48.7-21.2-1.7 19.6-97.3 18.4-23.9 4.9 35.2z"/></defs><clipPath id="SVGID_10_"><use xlink:href="#SVGID_9_" overflow="visible"/></clipPath><g clip-path="url(#SVGID_10_)"><path class="st8" d="M52.9 102.8c-2 5.6-3.7 11.3-5.1 17.1-2.7 12.4-2.5 10.8-9.2 6.8-5.5-3.3-10.5-9.7-4.3-15.6s18.6-8.3 18.6-8.3z"/></g><defs><path id="SVGID_11_" d="M70.1 231.6h14.1l4.2-45.5 10.4 48.7 21.2-1.7-19.6-97.3L82 111.9l-4.9 35.2z"/></defs><clipPath id="SVGID_12_"><use xlink:href="#SVGID_11_" overflow="visible"/></clipPath><g clip-path="url(#SVGID_12_)"><path class="st8" d="M72.9 103.5s4.3 13.2 4.1 20 1.3 9 6.7 7.4 9.7-3.8 7.6-8.2c-2.6-5.4-5.8-10.6-9.5-15.2-2.3-2.5-5.5-3.9-8.9-4z"/></g><path class="st4" d="M52.9 102.8c-2 5.6-3.7 11.3-5.1 17.1-2.7 12.4-2.5 10.8-9.2 6.8-5.5-3.3-10.5-9.7-4.3-15.6s18.6-8.3 18.6-8.3zM72.9 103.5s4.3 13.2 4.1 20 1.3 9 6.7 7.4 9.7-3.8 7.6-8.2c-2.6-5.4-5.8-10.6-9.5-15.2-2.3-2.5-5.5-3.9-8.9-4z"/><path class="st1" d="M101 61c0 20.7-17.3 37.5-38.7 37.5S23.8 81.7 23.8 61 41 20.2 62.4 20.2 101 40.3 101 61z"/><path class="st1" d="M28 59.3S17.4 58 17.9 63c.8 9 4.8 13 9 13h2.4L28 59.3zM97 59.3s10.6-1.4 10.1 3.7c-.8 9-4.8 13-9 13h-2.4L97 59.3z"/><path class="st10" d="M40.3 64.3c2.2-3 6-4.4 9.7-3.5M84.2 64.3c-2.2-3-6-4.4-9.6-3.5"/><path class="st11" d="M67.8 84.6C64.4 83 60.4 83 57 84.5"/><path class="st12" d="M52.6 69.6c0 2.8-2.2 5.2-5 5.4-3.3.3-6.5-1.7-6.9-4.6s1.6-5.4 5.3-6c3.1-.5 6 1.5 6.5 4.6 0 .2.1.4.1.6z"/><ellipse class="st13" cx="46.8" cy="71.3" rx="4" ry="3.9"/><circle class="st14" cx="45.1" cy="73.5" r="1"/><path class="st12" d="M72.2 69.6c0 2.8 2.2 5.2 5 5.4 3.3.3 6.5-1.7 6.9-4.6s-1.6-5.4-5.3-6c-3.1-.5-6 1.5-6.5 4.6 0 .2-.1.4-.1.6z"/><ellipse class="st13" cx="78" cy="71.3" rx="4" ry="3.9"/><circle class="st14" cx="76.3" cy="73.5" r="1"/><path class="st11" d="M62.4 74v2"/><path class="st15" d="M41.9 61.5c-13.6-1-19.2 2.7-17.5 8.8 1.8 6.8 6.8 11.1 17.5 11.1 9.7 0 17.5-5 17.5-11.1s-6.7-8.1-17.5-8.8zm0 18.7c-9.5 0-14-3.8-15.6-9.9-1.5-5.4 3.5-8.7 15.6-7.8 9.6.7 15.6 2.4 15.6 7.8s-7 9.9-15.6 9.9zM65.4 70.2c0 6.1 7.8 11.1 17.5 11.1 10.7 0 15.7-4.2 17.5-11.1 1.6-6.1-4-9.7-17.5-8.8-10.8.8-17.5 2.7-17.5 8.8zm1.9.2c0-5.5 6-7.1 15.6-7.8C95 61.7 100 65 98.5 70.4c-1.6 6.1-6.1 9.9-15.6 9.9-8.6-.1-15.6-4.5-15.6-9.9z"/><path class="st15" d="M66 67.2l6.6-4.2s-6.4 3.8-10.2 3.9c-3.8-.1-10.2-3.9-10.2-3.9l6.6 4.2v1.7l-.9 5.9 1.3-2.7c1.3-2.7 3.2-2.6 3.2-2.6s2-.1 3.2 2.6l1.3 2.7-.9-6v-1.6zM64.7 34c17.5 0 31.7 10.6 38.1 25.7h4c-.6-22.8-19.2-40.9-42-40.8-29.9 0-41.6 18.2-42 40.8h4C32.9 44.6 47.2 34 64.7 34z"/><path class="st15" d="M97.5 50.8s2.8 3.2 0 16.3l2.6 1s6.3-6.1.3-18.3c-.9-1.9-5.2-1.9-5.2-1.9l2.3 2.9zM30.8 52.2s-4.3 7.9.4 15.8l-2.6 1s-6.3-6-.3-18.3c.9-1.9 5-1.9 5-1.9l-2.5 3.4z"/><path class="st15" d="M83.9 23.5S72.3 14.8 47.1 20c-26.4 5.4-30.7 20.2-30.7 20.2l6.3 19.5L36.9 33l42.4-6 4.6-3.5z"/><path class="st15" d="M83.9 23.5s28.1 0 22.6 37.7L103 60 91.7 32.9l-17.6-6.6 9.8-2.8zM78.2 42.4s-14.8-6.8-27.2-.2c-12.6 6.7-11.7 11.7-11.7 11.7s-5.1-1.5-3.1-9.7 19.3-15.3 19.3-15.3l22.7 13.5z"/><path class="st15" d="M78.2 42.4s-10.5-6.5-28-3L32.7 43s5.4-8.2 18.7-11.7 26.8.4 27.6.4 3.5 3.1 3.5 3.1l-4.3 7.6z"/><path class="st15" d="M78.2 42.4s9.9-1.1 15.2 6.8c5.4 8.2 5.1 12 4.7 15.9 2.7-4.6 3.6-10.1 2.5-15.4-1.7-9.1-4.4-10.3-7.5-12.6s-8.5-4.7-12.1-4.7-4.3 1.9-4.3 1.9l1.5 8.1z"/></g><path class="st16" d="M63.5 5.3c32.1 0 58.2 26.1 58.2 58.2s-26.1 58.2-58.2 58.2S5.3 95.6 5.3 63.5 31.4 5.3 63.5 5.3m0-5.3C28.4 0 0 28.4 0 63.5S28.4 127 63.5 127 127 98.6 127 63.5 98.6 0 63.5 0z" id="SVGID"/><path class="st16" d="M153.2 8.9h234c7.1 0 12.8 5.7 12.8 12.8v84.4c0 7.1-5.7 12.8-12.8 12.8h-234c-7.1 0-12.8-5.7-12.8-12.8V21.7c0-7 5.7-12.8 12.8-12.8zM125.3 103.1c-5 0-9.2-4-9.2-9 0-4.3 2.9-8 7-9 .7-.2 1.4-.3 2.2-.3 5-.1 9.2 4 9.2 9 0 4.3-2.9 8-7 9-.7.2-1.5.3-2.2.3z"/><path class="st14" d="M125.3 86c4.4 0 8 3.6 8 8 0 3.7-2.5 6.9-6.1 7.8-.6.2-1.3.2-1.9.2-4.4 0-8-3.6-8-8s3.6-8 8-8m0-2.2c-.8 0-1.6.1-2.4.3-5.5 1.4-8.8 6.9-7.5 12.4 1.1 4.6 5.2 7.8 9.9 7.8.8 0 1.6-.1 2.4-.3 5.5-1.4 8.8-6.9 7.5-12.4-1.1-4.6-5.2-7.8-9.9-7.8z"/><path class="st16" d="M104 99.5c-3 0-5.5-2.4-5.5-5.5 0-2.6 1.7-4.8 4.2-5.4.4-.1.9-.2 1.3-.2 3 0 5.5 2.5 5.5 5.5 0 2.5-1.7 4.7-4.1 5.3-.5.2-1 .3-1.4.3z"/><path class="st14" d="M104 89.2c2.7 0 4.8 2.1 4.8 4.8 0 2.2-1.5 4.2-3.7 4.7-.4.1-.8.1-1.2.1-2.7 0-4.8-2.1-4.8-4.8 0-2.2 1.5-4.2 3.7-4.7.4-.1.8-.2 1.2-.1m0-1.4c-2.2 0-4.2 1.1-5.3 3-1.8 2.9-.8 6.7 2.1 8.5 1.4.9 3.1 1.1 4.7.7 3.3-.8 5.3-4.1 4.5-7.4v-.1c-.7-2.8-3.2-4.7-6-4.7zM221.4 35.1l-.2 23.4h-1.8v-1.3l-18.7-.2v1.3H199l.1-23.3 22.3.1zm-2 20.4l.2-18.7-18.7-.2-.1 18.7 18.6.2zm-7.6-12.3c1.3 3.2 3.6 5.9 6.5 7.8-.5.4-.9.8-1.2 1.3-2.7-2-4.9-4.7-6.2-7.9l-.1 9.5h-1.7l.1-9.4c-1.4 3-3.5 5.7-6.2 7.7-.3-.5-.7-.9-1.1-1.3 2.9-1.9 5.1-4.6 6.4-7.8h-5.8v-1.6h6.7v-3.9h1.7v3.9h7.1v1.6l-6.2.1zM228.6 45.1c1.9-.6 6.3-2.2 9.4-2.1 3.7 0 6.4 2.3 6.4 5.9 0 5.2-5.2 7.7-12.2 8.1l-.7-1.9c5.7-.1 10.9-1.8 10.9-6.2 0-2.3-1.8-4-4.6-4.1-3.4 0-9.3 2.4-10.9 3l-.8-2c.9-.2 1.7-.4 2.5-.7zM261.3 40.8c-1.8.4-3.7.7-5.6.9-.2 1.2-.5 2.4-.9 3.6-1.1 4.2-2.5 8.2-4.3 12.2l-2.1-.7c1.9-3.8 3.5-7.8 4.5-11.9.2-.9.5-1.9.8-2.9-.9.1-1.8.1-2.6.1-1.2 0-2.1-.1-3.1-.1v-1.9c1.1.1 2.1.2 3.2.2 1 0 1.9 0 2.9-.1.2-1 .4-1.9.5-2.5.1-.7.2-1.4.1-2.1l2.3.2c-.2.6-.4 1.5-.5 2L256 40c1.8-.2 3.5-.6 5.2-1l.1 1.8zm-1.2 9.4c-.2.8-.4 1.6-.4 2.4 0 1.3.6 2.6 4.5 2.6 1.7 0 3.5-.2 5.2-.5l-.1 1.9c-1.7.2-3.4.4-5.1.3-4.2 0-6.3-1.3-6.3-4 0-1 .2-2 .4-3l1.8.3zm-.5-6.5c1.4-.1 3.1-.2 4.8-.2 1.5 0 3.1.1 4.6.3l-.1 1.8c-1.5-.2-3-.3-4.5-.4-1.6 0-3.3.1-4.9.2l.1-1.7zM285 40.7c-1.6.4-3.2.7-4.9.9-1.5 4-3.5 7.8-5.9 11.2l-1.9-1c2.5-3 4.4-6.4 5.9-10.1-.8 0-1.7.1-2.5.1-1 0-2.1 0-3.1-.1l-.1-1.8c1.1.1 2.1.2 3.2.2 1 0 2.1 0 3.1-.1.5-1.5.8-3.1.9-4.6l2.2.2c-.2 1-.6 2.6-1.1 4.2 1.4-.2 2.8-.5 4.2-.9v1.8zm3 3.2c-.1.9-.1 1.9 0 2.8 0 1 .1 2.8.1 4.5 2 .8 3.9 1.9 5.5 3.4l-1.1 1.6c-1.3-1.2-2.8-2.3-4.4-3.1v1.2c0 2.1-1.4 3.8-4.6 3.7-2.9 0-5.3-1.2-5.2-3.8 0-2.4 2.4-3.9 5.3-3.9.9 0 1.8.1 2.7.3-.1-2.2-.2-4.9-.2-6.8l1.9.1zm-1.6 8.5c-.9-.3-1.9-.4-2.8-.4-2 0-3.4.9-3.4 2.2s1 2.2 3.2 2.2 3-1.2 3-2.5v-1.5zm7.1-7.9c-1.9-1.5-3.9-2.7-6-3.7l1-1.5c2.2 1 4.2 2.2 6.2 3.6l-1.2 1.6zM312.4 46.1c2.6.5 4.4 2.8 4.4 5.4 0 3-2.1 5.8-7.4 6.7l-.9-1.5c3.9-.3 6.6-2.4 6.6-5.3 0-1.9-1.4-3.5-3.2-3.8-1 2.7-2.7 5.2-4.9 7.1.1.7.3 1.2.5 1.8l-1.6.5c-.1-.4-.3-.8-.3-1.2-1.1.7-2.4 1.1-3.7 1.2-1.4.1-2.6-.9-2.7-2.2v-.5c0-3.1 2.6-5.8 5.6-7.2.1-1.1.2-2.2.3-3.2h-1.3c-.9 0-2.7-.1-3.6-.2V42c.8.1 2.9.3 3.6.3h1.5c.1-.7.1-1.3.2-1.8 0-.3.1-.7.1-1h1.9c-.1.2-.2.7-.2 1s-.2 1.1-.3 1.7c2.6-.1 5.2-.4 7.8-.8V43c-2.7.4-5.3.6-8 .8-.1.8-.2 1.7-.2 2.6 1.2-.3 2.4-.5 3.7-.5h.8l.1-.2c.1-.4.2-.9.3-1.3l1.7.4-.4 1.2v.1zm-7.9 2.5c-2.1 1.2-3.9 3.3-3.9 5.3-.1.7.4 1.3 1.1 1.3h.3c1.1-.1 2.1-.5 3-1.1-.3-1.7-.5-3.5-.5-5.3v-.2zm1.7 0c0 1.4.1 2.8.4 4.2 1.7-1.6 2.9-3.5 3.8-5.6h-.4c-1.3 0-2.5.2-3.7.7v.7zM327.5 55.9c0-.8.7-1.5 1.6-1.5s1.5.7 1.5 1.6-.7 1.5-1.6 1.5c-.8-.1-1.5-.7-1.5-1.6zM334.1 56c-.1-.9.6-1.7 1.5-1.8s1.7.6 1.8 1.5v.2c.1.9-.6 1.7-1.5 1.8-.9.1-1.7-.6-1.8-1.5V56zM340.8 56c-.1-.9.6-1.7 1.5-1.8.9-.1 1.7.6 1.8 1.5v.2c.1.9-.6 1.7-1.5 1.8s-1.7-.6-1.8-1.5V56zM165.8 72.8c-.3 1.9-1.2 3.6-2.6 4.9-.3-.5-.7-.9-1.2-1.2 1.5-1.4 2.4-3.5 2.3-5.6v-2.7l1.5.4c2.1-.2 4.3-.6 6.4-1.1l1.2 1.2c-2.5.6-5 1-7.5 1.2v1.5l8.2.1V73h-3.3v3.5h-1.6V73l-3.4-.2zm6 16.3c-2.6 1.4-5.4 2.4-8.3 3.1-.4-.5-.9-.9-1.3-1.4 2.8-.5 5.4-1.4 8-2.6l1.6.9zm-6.1-12.2l17.4.1-.1 11-17.4-.1.1-11zm1.6 9.7l14 .1v-2l-14-.1v2zm0-3.2l14 .1v-2l-13.9-.1-.1 2zm0-3.3l14 .1v-2l-14-.1v2zm18.9-8.5V73h-4.1v3.6h-1.6V73h-3.9c-.5 1.6-1.5 2.9-2.8 3.8-.3-.5-.6-.9-1.1-1.2 1.7-.9 2.7-2.7 2.6-4.7v-2.4l1.5.4c2.3-.2 4.6-.6 6.9-1.1l1.2 1.1c-2.6.6-5.3.9-8 1.1v1.6h9.3zm-8.3 16.9c2.9.9 6.1 2.1 8.1 3l-2 .9c-2.5-1.2-5-2.2-7.6-3l1.5-.9zM191.5 78.3l-.1 14.1h-1.8l.2-23.4 9.6.1-.1 9.3-7.8-.1zm6.2-1.4v-2.7h-6.1v2.7h6.1zm-6.1-6.5v2.4h6.1v-2.4h-6.1zm5.5 18.2v1.6h-1.7l.1-9.4 10 .1-.1 7.8-8.3-.1zm.1-6.2v4.7l6.6.1v-4.7l-6.6-.1zm14.4 7.7c0 1.2-.3 1.8-1.1 2.2-1.6.3-3.2.4-4.8.3-.1-.6-.3-1.3-.6-1.8 1.8.1 3.6.1 4.1.1s.7-.2.7-.7l.1-11.6-8-.1V69l9.8.1-.2 21zm-1.7-13v-2.7h-6.3V77l6.3.1zm-6.3-6.5V73h6.3v-2.4h-6.3zM220.7 69.7c-.1.8-.2 1.7-.3 2.5-.1 3-.4 9.4-.4 13.6 0 3 1.9 4 4.5 4.1 5 0 7.8-2.7 9.7-5.5l1.3 1.7c-2.5 3.6-6.7 5.8-11.1 5.7-3.8 0-6.4-1.6-6.3-5.9 0-4 .4-10.7.4-13.7 0-.9 0-1.7-.2-2.6l2.4.1zM237.7 72.8c1.6-.1 6.8-.6 11.8-1 3-.2 5.4-.4 7.1-.4v1.9c-1.8-.1-3.5.1-5.2.4-3.6 1.3-6.1 4.7-6.3 8.6 0 5.4 4.9 7.1 9.3 7.2l-.7 2c-4.8-.2-10.5-2.8-10.5-8.8 0-3.7 2-7.2 5.2-9.1-2.4.2-9.9.9-12.8 1.5l-.2-2.2c1 0 1.8-.1 2.3-.1zM281.3 86.6c-.9-.8-1.9-1.5-2.9-2.2-1 3.6-3.7 6.5-7.1 8l-1.6-1.3c3.5-1.3 6.1-4.1 7.1-7.7-2.4-1.3-5.1-2.2-7.8-2.5-1 2.4-2.2 4.7-3.5 7-.7 1.1-1.9 1.8-3.3 1.8-1.8 0-3.3-1.5-3.4-3.3v-.3c0-3.9 3.7-6.9 8.9-7 1-2.2 2-4.5 2.9-6.3-1.1 0-4.5.2-5.7.2-.6 0-1.3.1-1.9.2l-.1-2c.7.1 1.3.1 2 .1 1.4 0 5-.1 6.1-.2.4 0 .8-.1 1.2-.2l1.2 1c-.3.3-.5.6-.7.9-.7 1.2-2 4-3.1 6.5 2.6.3 5.2 1.1 7.5 2.3.1-.8.2-1.5.3-2.2.1-.8.1-1.6 0-2.4l1.9.2c-.1 1.7-.3 3.5-.6 5.2 1.1.6 2.2 1.4 3.3 2.1l-.7 2.1zM267 80.9c-4 .3-6.3 2.6-6.3 5-.1.9.6 1.8 1.5 1.9h.1c.7 0 1.3-.3 1.7-.9 1.1-1.9 2.2-3.9 3-6zM303.8 90.8c-2-2-4.4-3.5-7.1-4.5v1.9c0 2.2-1.4 4-4.8 3.9-3.6 0-6.3-1.2-6.3-4.2 0-2.3 2.1-4.3 6.7-4.2.8 0 1.6.1 2.4.2-.1-2.2-.2-4.7-.2-6.3v-5c0-.9-.1-1.7-.2-2.6h2.3c-.1.8-.2 1.7-.2 2.6v2.8c2.1 0 5.6-.2 8-.4l.1 1.8c-2.4.2-5.9.4-8.1.4v.4c0 1.8.1 4.4.2 6.7 3.1.9 5.9 2.5 8.3 4.6l-1.1 1.9zm-9.1-5c-.9-.2-1.8-.3-2.6-.3-2.9 0-4.5 1-4.5 2.5s1.5 2.4 4.2 2.4c2 0 3-.9 3-2.8 0-.4-.1-1.1-.1-1.8zM320.2 78.4c-2.5.1-5 .5-7.4 1.3-.8.2-1.5.5-2.2.7l-.6-2.2c.8-.1 1.6-.2 2.4-.4 2.6-.7 5.3-1.1 8-1.2 3.7 0 6.5 2.1 6.5 5.9 0 5.8-5.2 9-12.1 10l-1.1-1.8c6.5-.8 11.1-3.4 11.2-8.2-.1-2.5-1.9-4.1-4.7-4.1zm4.6-6.7l-.3 1.9c-2.9-.2-8.2-.8-11.2-1.4l.3-1.8c3.7.7 7.5 1.2 11.2 1.3zM340.9 70.6l-.3 1.5c-.1.8-.4 2.4-.7 4 1.3-.1 2.5-.2 3.1-.2 2.3 0 4.3.9 4.2 4.5 0 3.2-.5 7.4-1.6 9.6-.7 1.5-2.2 2.4-3.9 2.2-1.1 0-2.1-.2-3.1-.4l-.3-2.1c1.1.4 2.2.6 3.3.6 1 .1 2-.5 2.4-1.4.9-1.8 1.3-5.4 1.4-8.3 0-2.5-1.1-3-2.9-3-.7 0-1.8.1-3.1.2-1.2 5-3.1 9.9-5.7 14.3l-2-.8c2.8-3.7 4.8-9.8 5.8-13.3l-3.6.3c-.6 0-1.6.2-2.3.3l-.2-2.1h2.3c.9 0 2.5-.2 4.2-.3.4-1.9.7-3.9.7-5.8l2.3.2zm9.2 3c2 3 3.6 6.2 4.9 9.5l-1.9.9c-.8-2.7-2.9-7.4-4.8-9.7l1.8-.7zM369.9 75.6c-1.6.4-3.2.7-4.9.9-1.5 4-3.5 7.8-6 11.2l-1.9-1c2.4-3 4.4-6.4 5.9-10-.8 0-1.7.1-2.5.1-1 0-2.1 0-3.1-.1l-.1-1.8c1.1.1 2.1.2 3.2.2 1 0 2.1 0 3.1-.1.5-1.5.8-3.1.9-4.6l2.2.2c-.3 1-.6 2.6-1.1 4.2 1.4-.2 2.9-.6 4.2-1l.1 1.8zm3 3.2v2.8c0 1 .1 2.8.2 4.5 2 .8 3.9 1.9 5.5 3.4l-1.1 1.6c-1.3-1.2-2.8-2.3-4.4-3.1v1.2c0 2.1-1.4 3.8-4.6 3.7-2.9 0-5.3-1.2-5.2-3.8 0-2.4 2.4-3.9 5.3-3.9.9 0 1.8.1 2.7.3-.1-2.2-.2-4.9-.2-6.8l1.8.1zm-1.7 8.5c-.9-.3-1.9-.4-2.8-.4-2.1 0-3.4.9-3.4 2.2s1 2.2 3.2 2.2 3-1.2 3-2.5c0-.5.1-1 0-1.5zm7.1-7.9c-1.9-1.5-3.9-2.7-6-3.7l1-1.5c2.1 1 4.2 2.2 6.1 3.6l-1.1 1.6z"/></svg>