<svg version="1.1" id="レイヤー_1" xmlns="http://www.w3.org/2000/svg" xmlns:xlink="http://www.w3.org/1999/xlink" x="0" y="0" viewBox="0 0 400 128" xml:space="preserve"><style>.st1{fill:#fce2c4}.st2{fill:#fff}.st4{fill:#e95513}.st7{fill:#dadf00}.st9{fill:none;stroke:#fff;stroke-width:.92;stroke-miterlimit:10}.st13{fill:#f9f9fa}.st14{fill:#6a3906}.st15{fill:none;stroke:#b28146;stroke-width:1.84;stroke-linecap:round;stroke-miterlimit:10}.st18{fill:#b28146}.st19{fill:#3ad}</style><defs><circle id="SVGID_1_" cx="63.2" cy="63.8" r="61.4"/></defs><clipPath id="SVGID_2_"><use xlink:href="#SVGID_1_" overflow="visible"/></clipPath><g clip-path="url(#SVGID_2_)"><path class="st1" d="M67.3 83.3h-8.2s-3.8 31.7-28.3 54.6l18.6 86.3h27.5l18.6-86.3C71.1 115 67.3 83.3 67.3 83.3z"/><path class="st2" d="M99.6 137.9l-21.1-27.5H48l-21.3 27.5-10.1 45.8 17.4 9.8 4.4-14.2 4.9 44.9h39.6l5-44.9 4.3 14.2 17.4-9.8z"/><defs><path id="SVGID_3_" d="M78.5 110.4H48l-9.6 68.9 4.9 44.9h39.6l5-44.9z"/></defs><clipPath id="SVGID_4_"><use xlink:href="#SVGID_3_" overflow="visible"/></clipPath><g clip-path="url(#SVGID_4_)"><path class="st4" d="M37.9 126h49.3v3H37.9zM37.9 119.2h49.3v3.1H37.9zM37.9 112.3h49.3v3.1H37.9z"/></g><defs><path id="SVGID_5_" d="M44.7 114.4l-18 23.5-10.1 45.8 17.4 9.8 4.4-14.2z"/></defs><clipPath id="SVGID_6_"><use xlink:href="#SVGID_5_" overflow="visible"/></clipPath><g clip-path="url(#SVGID_6_)"><path transform="rotate(-60.071 47.456 133.113)" class="st4" d="M45.9 108.4h3v49.3h-3z"/><path transform="rotate(-60.071 44.036 139.066)" class="st4" d="M42.5 114.4h3v49.3h-3z"/></g><defs><path id="SVGID_7_" d="M81.7 114.4l18 23.5 10 45.8-17.3 9.8-4.4-14.2z"/></defs><clipPath id="SVGID_8_"><use xlink:href="#SVGID_7_" overflow="visible"/></clipPath><g clip-path="url(#SVGID_8_)"><path transform="rotate(-29.929 78.92 133.131)" class="st4" d="M54.3 131.6h49.3v3.1H54.3z"/><path transform="rotate(-29.929 82.342 139.077)" class="st4" d="M57.7 137.5H107v3.1H57.7z"/></g><path class="st7" d="M47.5 108.5l-22 29.4-20.7 87.3 21.4 3.4 12.2-49.3 4.9 44.9H51l11.4-106.3c-6.1.9-12.1-3.6-14.9-9.4z"/><defs><path id="SVGID_9_" d="M48.9 111.4l-14.1 33.9 1.4 89.7 21.5-1.9-.3-50.8 15.8 42.3 7.4-1.9-15.1-105.8c-5.5 2.3-12.4-.5-16.6-5.5z"/></defs><clipPath id="SVGID_10_"><use xlink:href="#SVGID_9_" overflow="visible"/></clipPath><g clip-path="url(#SVGID_10_)"><ellipse transform="rotate(-14.28 59.817 104.312)" class="st9" cx="59.8" cy="104.3" rx="16.7" ry="18.4"/></g><path class="st7" d="M78.9 108.5l22 29.4 20.8 87.3-21.4 3.4L88 179.3l-4.9 44.9h-7.7L64.1 117.9c6 .9 11.9-3.6 14.8-9.4z"/><defs><path id="SVGID_11_" d="M55.6 97.3L41.5 63.4 43-26.4l21.5 1.9-.3 50.8L80-16l7.4 1.9L72.3 91.8c-5.6-2.3-12.5.5-16.7 5.5z"/></defs><clipPath id="SVGID_12_"><use xlink:href="#SVGID_11_" overflow="visible"/></clipPath><g clip-path="url(#SVGID_12_)"><ellipse transform="rotate(-75.718 66.555 104.356)" class="st9" cx="66.6" cy="104.4" rx="18.4" ry="16.7"/></g><defs><path id="SVGID_13_" d="M78.9 108.5l22 29.4 20.8 87.3-21.4 3.4L88 179.3l-4.9 44.9h-7.7L64.1 117.9c6 .9 11.9-3.6 14.8-9.4z"/></defs><clipPath id="SVGID_14_"><use xlink:href="#SVGID_13_" overflow="visible"/></clipPath><g clip-path="url(#SVGID_14_)"><circle cx="66.8" cy="120.1" r="1.3" fill="#f7f7f7"/></g><path class="st1" d="M100.7 62.6c0 20.3-17 36.8-37.9 36.8S24.9 82.9 24.9 62.6s17-40.1 37.9-40.1 37.9 19.8 37.9 40.1z"/><path class="st13" d="M53.2 71c0 2.8-2.1 5.1-4.9 5.3-3.3.3-6.4-1.7-6.8-4.5s1.6-5.3 5.2-5.9c3-.5 5.9 1.5 6.4 4.5 0 .2 0 .4.1.6z"/><ellipse class="st14" cx="47.5" cy="69.6" rx="4" ry="3.8"/><circle class="st2" cx="45.9" cy="68.6" r="1"/><path class="st13" d="M72.4 71c0 2.8 2.1 5.1 4.9 5.3 3.3.3 6.4-1.7 6.8-4.5s-1.6-5.3-5.2-5.9c-3-.5-5.9 1.5-6.4 4.5 0 .2-.1.4-.1.6z"/><ellipse class="st14" cx="78.1" cy="69.6" rx="4" ry="3.8"/><circle class="st2" cx="76.5" cy="68.6" r="1"/><path class="st15" d="M40.6 62c3-2 7-2 10 0M84.8 62c-3-2-7-2-10 0"/><path d="M54.6 81.8c1.7 4.5 6.7 6.9 11.2 5.2 2.4-.9 4.3-2.8 5.2-5.2-5.4 1.6-11.1 1.6-16.4 0z" fill="#d36267"/><path fill="none" stroke="#d36267" stroke-width="1.38" stroke-linecap="round" stroke-miterlimit="10" d="M62.8 75.3v2"/><path class="st18" d="M63.2 36.1c17.2 0 31.1 10.4 37.3 25.2h3.9c-.7-22.8-19.7-40.7-42.5-39.9C40.1 22 22.6 39.5 22 61.3h3.9C32 46.5 46 36.1 63.2 36.1z"/><path class="st18" d="M107.3 65c-.5-3.8-1.2-7.5-2.2-11.2-5.6-22.5-26.8-42.1-55.8-31.9S72.9 44 72.9 44l18.7 14.1s3.1 33.2-15.2 38.5c3.3.3 6.7.1 10-.6 4.1-.8 8.1-1.9 12-3.3 13.8-4.4 10.6-17.1 8.9-27.7z"/><path class="st18" d="M37.9 85.6c-7.2-17.2 0-35.6 3.8-42.9C48.4 37.1 52 36 52 36l-10.7-8s-13.4-.4-19.8 30.1c-.8 3.8-1.4 7.2-1.8 10.2-.5 3.4-.8 6.9-.9 10.4 0 8.8 5 13.7 8.8 14.9 5.9 1.8 3.4 1.1 9.9 2.3 2 .3 3.5.6 4.7.7 2.1.4 4.3.5 6.4.1-.1 0-8.1-3.5-10.7-11.1z"/><path class="st18" d="M40.5 41.4s3.1 8.7 9.2 12.6c8.4 5.3 35.1 5.1 40.8 4.6 4.2-.4 8-1.2 8-1.2s-9.2-18.7-21.3-22.5-29.4 2.7-36.7 6.5z"/></g><path class="st19" d="M63.5 5.3c32.1 0 58.2 26.1 58.2 58.2s-26.1 58.2-58.2 58.2S5.3 95.6 5.3 63.5 31.4 5.3 63.5 5.3m0-5.3C28.4 0 0 28.4 0 63.5S28.4 127 63.5 127 127 98.6 127 63.5 98.6 0 63.5 0z" id="SVGID"/><path class="st19" d="M153.2 9h234c7.1 0 12.8 5.7 12.8 12.8v84.4c0 7.1-5.7 12.8-12.8 12.8h-234c-7.1 0-12.8-5.7-12.8-12.8V21.8c0-7.1 5.7-12.8 12.8-12.8zM125.3 103.1c-5 0-9.2-4-9.2-9 0-4.3 2.9-8 7-9 .7-.2 1.4-.3 2.2-.3 5-.1 9.2 4 9.2 9 0 4.3-2.9 8-7 9-.7.2-1.5.3-2.2.3z"/><path class="st2" d="M125.3 86c4.4 0 8 3.6 8 8 0 3.7-2.5 6.9-6.1 7.8-.6.2-1.3.2-1.9.2-4.4 0-8-3.6-8-8s3.6-8 8-8m0-2.2c-5.7.1-10.1 4.8-10 10.5.1 5.7 4.8 10.1 10.5 10 .6 0 1.3-.1 1.9-.2 5.5-1.4 8.8-6.9 7.5-12.4-1.1-4.7-5.2-7.9-9.9-7.9z"/><path class="st19" d="M104 99.5c-3 0-5.5-2.4-5.5-5.5 0-2.6 1.7-4.8 4.2-5.4.4-.1.9-.2 1.3-.2 3 0 5.5 2.5 5.5 5.5 0 2.5-1.7 4.7-4.1 5.3-.5.3-1 .3-1.4.3z"/><path class="st2" d="M104 89.2c2.7 0 4.8 2.1 4.8 4.8 0 2.2-1.5 4.2-3.7 4.7-.4.1-.8.1-1.2.1-2.7 0-4.8-2.1-4.8-4.8 0-2.2 1.5-4.2 3.7-4.7.4-.1.8-.1 1.2-.1m0-1.4c-2.2 0-4.2 1.1-5.3 3-1.8 2.9-.8 6.7 2.1 8.5 1.4.9 3.1 1.1 4.7.7 3.3-.8 5.3-4.1 4.5-7.4v-.1c-.7-2.7-3.2-4.7-6-4.7zM269.3 40.4c3.5 1 5.6 3.6 5.5 6.6 0 4-2.8 7.4-9.2 8.4l-1.1-1.7c5-.5 8.3-3 8.3-6.8 0-2.4-1.8-4.5-4.2-4.9-1.3 3.5-3.5 6.6-6.3 9.2.2.8.4 1.6.6 2.3l-1.8.5c-.2-.5-.3-1-.5-1.6-1.4.9-3.1 1.5-4.8 1.6-1.7.1-3.2-1.2-3.3-2.9v-.5c0-3.6 3.3-7.3 7.1-9 .1-1.5.2-2.9.4-4.2h-1.9c-1.2 0-3.3-.1-4.5-.2v-2c1.5.2 3 .3 4.5.4h2c.1-.9.2-1.7.2-2.3 0-.4.1-.8.1-1.2l2.1.1-.3 1.2c-.1.6-.3 1.4-.4 2.2 3.3-.1 6.6-.4 9.9-1.1v1.9c-3.4.5-6.7.8-10.1.9-.1 1.1-.2 2.3-.3 3.6 1.6-.5 3.2-.7 4.8-.7.4 0 .7 0 1.1.1l.1-.5.3-1.5 2 .5c-.2.4-.4 1-.5 1.4l.2.2zm-9.6 3c-2.8 1.5-5.1 4.4-5.1 6.8 0 1.2.6 1.8 1.6 1.8 1.5-.1 2.9-.6 4.1-1.6-.4-2.1-.6-4.2-.6-6.3v-.7zm7.2-1.7h-.5c-1.7 0-3.3.3-4.9.9v1.3c0 1.7.2 3.5.5 5.2 2.2-2.1 3.9-4.6 4.9-7.4zM282.3 42.5c2-.6 6.6-2.3 9.9-2.2 3.9 0 6.8 2.4 6.7 6.2 0 5.5-5.4 8.1-12.8 8.5l-.8-2c6-.2 11.4-1.8 11.5-6.5 0-2.4-1.9-4.2-4.8-4.3-3.5 0-9.8 2.5-11.5 3.2l-.8-2.1c.9-.3 1.7-.5 2.6-.8zM175.9 81c-.4 1-.5 2.1-.6 3.2 0 2.2 2.2 3.7 6.7 3.8 3.2.1 6.5-.2 9.6-1v2.2c-3.1.7-6.3 1-9.6.9-5.6 0-8.9-1.9-8.9-5.4.1-1.3.2-2.6.6-3.9l2.2.2zm-.9-11.3c2.5.3 4.9.4 7.4.4 2.7 0 5.4-.2 7.5-.3v2.1c-1.9.1-4.9.3-7.5.3-2.8 0-5.2-.2-7.4-.4v-2.1zM221.6 87.5c-1.3 1.4-3.2 2.3-5.1 2.3-1.8 0-3.1-1.2-3-3.5 0-3.1 1.1-7.8 1.2-10.6.2-1.1-.5-2.1-1.6-2.3h-.6c-2.3 0-5.7 2.6-8.4 5.4-.1 1.2-.1 2.4-.1 3.4v6.7c0 .5.1 1.1.1 1.7h-2.3c0-.4.1-1.1.1-1.6 0-2.7.1-4 .1-7 0-.5 0-1.1.1-1.6-1.4 2.1-3.4 4.8-4.8 6.8l-1.3-1.8c1.6-2 4.9-6.4 6.3-8.6.1-1 .2-2 .2-2.9l-5.5.7-.2-2.1h1.7c1.4-.1 2.8-.2 4.2-.4.1-1.4.2-2.4.2-2.7 0-.7 0-1.3-.1-2l2.4.1c-.1.7-.4 2.3-.6 4.3h.2l.8.9c-.3.5-.8 1.2-1.2 1.9-.1.6-.1 1.2-.1 1.8 2.2-2 5.8-4.8 8.7-4.7 2.6 0 3.9 1.5 3.9 3.8 0 2.8-1.1 7.8-1.2 10.6 0 .9.4 1.8 1.5 1.8 1.7-.1 3.3-1 4.4-2.3v1.9zM236.5 72.8c3.4 3.7 7.7 6.5 12.5 8.2-.4.5-.8 1-1.2 1.6-2.1-.9-4.2-2-6.1-3.2v1.3l-11.7-.1v-1.3c-2 1.4-4.2 2.5-6.4 3.5-.3-.6-.6-1.1-1.1-1.5 4.9-1.9 9.6-5.2 12-8.3-.3-.3-.6-.5-1-.7 2-1.7 3.5-3.9 4.4-6.4l1.8.5c-.3.8-.7 1.7-1.1 2.4l9.7.1v1.6l-6.3-.1c.8 1 1.4 2.1 1.9 3.2l-1.8.6c-.6-1.4-1.3-2.7-2.2-3.8h-2.3c-.6.8-1.2 1.6-1.9 2.4h.8zm-9.5-2.5c-.8 1.4-1.7 2.8-2.8 4-.5-.4-1-.8-1.6-1.1 2-2.1 3.6-4.6 4.5-7.4l1.8.5c-.3.8-.7 1.6-1 2.4h7.3v1.7h-5.1c.6 1.1 1.1 2.2 1.5 3.3l-1.7.6c-.4-1.4-1-2.7-1.7-3.9l-1.2-.1zm.7 12.9l16.3.1-.1 8.8H242v-.8l-12.6-.1v.8h-1.8l.1-8.8zm1.7 1.6v4.6l12.6.1v-4.6l-12.6-.1zm11.9-5.6c-2-1.3-3.9-2.9-5.5-4.7-1.5 1.8-3.3 3.3-5.2 4.6l10.7.1zM265.7 77.1c-1 1-4.3 3.9-5.4 5.1.3 0 .7 0 1 .1 1.1.1 2 .9 2.2 2 .3.9.6 2.3 1 3.3.3 1.1.9 1.6 2.5 1.6 1.8 0 3.5-.2 5.3-.6l-.2 2.2c-1.7.2-3.5.4-5.2.4-2.2 0-3.6-.6-4.1-2.4-.3-.8-.7-2.5-.9-3.3-.3-1-.9-1.5-1.7-1.5-.8 0-1.6.4-2.1 1-2.1 2-4.1 4-5.9 6.2l-1.9-1.3c.3-.2.8-.7 1.3-1.1 1.1-1.1 9.1-9 11.9-11.8-2.2.1-7.2.5-9 .7-.9.1-1.6.1-2.2.2l-.1-2.2c.8.1 1.5.1 2.3.1 1.7 0 8.2-.4 10.3-.7.4 0 .9-.2 1.3-.3l1.2 1.4c-.6.1-1.3.7-1.6.9zm1.1-7.6l-.3 1.9c-2.8-.3-7.6-1-11-1.6l.3-1.9c3.6.8 7.3 1.3 11 1.6zM278.4 81.3c2.5-2.3 5.8-3.5 9.3-3.4 4.2 0 7.1 2.6 7 5.9 0 5-4.6 8.3-14.8 7.3l-.6-2.1c8.9 1.2 13.2-1.4 13.2-5.4 0-2.3-2.1-3.9-5-4-3.4-.2-6.6 1.2-8.8 3.8-.4.4-.6.9-.8 1.4l-1.9-.5c.7-3.7 1.2-7.5 1.5-11.3l2.2.3c-.5 2-1 6.2-1.3 8zm2-13c3.5 1 7.1 1.7 10.8 2.2l-.5 2c-2.6-.4-8.7-1.7-10.8-2.3l.5-1.9zM324.8 88.3c-1.3 1.4-3.2 2.3-5.1 2.3-1.8 0-3-1.2-3-3.4 0-3.1 1.1-7.8 1.2-10.6.2-1.1-.5-2.1-1.6-2.3h-.7c-2.3 0-5.7 2.6-8.4 5.4-.1 1.2-.1 2.4-.1 3.4 0 2.6-.1 4.2 0 6.7 0 .5.1 1.1.1 1.7H305c0-.4.1-1.1.1-1.6 0-2.7 0-4 .1-7 0-.5 0-1.1.1-1.6-1.4 2.1-3.4 4.8-4.8 6.8l-1.2-1.7c1.6-1.9 4.9-6.4 6.3-8.6.1-1 .2-2 .2-2.9l-5.5.7-.2-2.1h1.7c1.4-.1 2.8-.2 4.2-.4.1-1.4.2-2.4.2-2.7 0-.7 0-1.3-.1-2l2.4.1c-.1.7-.4 2.3-.6 4.3h.2l.8.9c-.4.5-.8 1.2-1.2 1.9 0 .6-.1 1.2-.1 1.8 2.2-2 5.9-4.7 8.7-4.7 2.6 0 3.9 1.5 3.9 3.8 0 2.8-1.1 7.8-1.2 10.6 0 .9.4 1.8 1.5 1.8 1.7-.2 3.3-1 4.4-2.3l-.1 1.7zM345.1 71.2c-.5.3-1.1.7-1.5 1-1.4 1-5.3 4.5-7.6 6.3 1.3-.4 2.6-.6 4-.6 4.6 0 7.9 2.8 7.9 6.6 0 4.6-3.9 7.4-9.7 7.3-3.8 0-6-1.7-6-4 0-1.8 1.7-3.6 4.3-3.5 2.9-.1 5.4 2.1 5.7 5.1 2.2-.6 3.7-2.6 3.7-4.9 0-2.8-2.8-4.9-6.4-4.9-4.7 0-7.2 1.9-10.9 5.5l-1.5-1.5c2.4-1.9 6-5 7.7-6.3s5.2-4.3 6.6-5.5c-1.5 0-7.4.3-8.8.3-.6 0-1.2.1-1.8.2v-2.1c.6.1 1.3.1 1.9.1 1.5 0 8.2-.2 9.7-.3.5 0 1-.1 1.4-.2l1.3 1.4zm-4.7 18.7c-.3-2.3-1.6-3.9-3.9-3.9-1.3 0-2.3.7-2.3 1.8 0 1.4 1.7 2.3 3.9 2.3.7-.1 1.5-.1 2.3-.2zM357 89c0-1.2 1-2.2 2.1-2.2 1.2 0 2.2 1 2.2 2.2 0 1.2-1 2.2-2.1 2.2-1.2 0-2.2-1-2.2-2.2zm.8-16v-3.2h3.1l-.2 3.2-.7 11.2h-1.7l-.5-11.2zM367.6 89c-.1-1.2.8-2.2 2-2.3 1.2-.1 2.2.8 2.3 2v.3c0 1.2-.9 2.1-2.1 2.2-1.1 0-2.1-.9-2.1-2l-.1-.2zm.8-16v-3.2h3.1l-.1 3.2-.7 11.2H369l-.6-11.2z"/></svg>