<svg version="1.1" id="レイヤー_1" xmlns="http://www.w3.org/2000/svg" xmlns:xlink="http://www.w3.org/1999/xlink" x="0" y="0" viewBox="0 0 400 128" xml:space="preserve"><style>.st1{fill:#fce2c4}.st2{fill:#fff}.st4{fill:#e95513}.st7{fill:#dadf00}.st13,.st9{fill:none;stroke:#fff;stroke-width:.99;stroke-miterlimit:10}.st13{stroke:#b28146;stroke-width:1.99;stroke-linecap:round}.st16{fill:#2a2b2b}.st17{fill:#b28146}.st18{fill:#3ad}</style><defs><circle id="SVGID_1_" cx="63.5" cy="63.5" r="61.5"/></defs><clipPath id="SVGID_2_"><use xlink:href="#SVGID_1_" overflow="visible"/></clipPath><g clip-path="url(#SVGID_2_)"><path class="st1" d="M67.7 84.2h-8.2s-3.8 31.6-28.1 54.4l18.6 86h27.4l18.6-86c-24.4-22.8-28.3-54.4-28.3-54.4z"/><path class="st2" d="M99.8 138.6l-21-27.3H48.4l-21.2 27.3-10 45.7 17.4 9.7 4.3-14.1 4.9 44.7h39.5l4.9-44.7 4.3 14.1 17.4-9.7z"/><defs><path id="SVGID_3_" d="M78.8 111.3H48.4l-9.5 68.6 4.9 44.7h39.5l4.9-44.7z"/></defs><clipPath id="SVGID_4_"><use xlink:href="#SVGID_3_" overflow="visible"/></clipPath><g clip-path="url(#SVGID_4_)"><path class="st4" d="M38.4 126.9h49.1v3H38.4zM38.4 120h49.1v3H38.4zM38.4 113.2h49.1v3H38.4z"/></g><defs><path id="SVGID_5_" d="M45.2 115.3l-18 23.3-10 45.7 17.4 9.7 4.3-14.1z"/></defs><clipPath id="SVGID_6_"><use xlink:href="#SVGID_5_" overflow="visible"/></clipPath><g clip-path="url(#SVGID_6_)"><path transform="rotate(-60.071 47.956 133.913)" class="st4" d="M46.4 109.3h3v49.1h-3z"/><path transform="rotate(-60.071 44.535 139.832)" class="st4" d="M43 115.3h3v49.1h-3z"/></g><defs><path id="SVGID_7_" d="M82.1 115.3l17.9 23.3 10 45.7-17.3 9.7-4.4-14.1z"/></defs><clipPath id="SVGID_8_"><use xlink:href="#SVGID_7_" overflow="visible"/></clipPath><g clip-path="url(#SVGID_8_)"><path transform="rotate(-29.929 79.302 133.93)" class="st4" d="M54.7 132.4h49.1v3H54.7z"/><path transform="rotate(-29.929 82.711 139.849)" class="st4" d="M58.1 138.3h49.1v3H58.1z"/></g><path class="st7" d="M48 109.4l-21.9 29.2-20.7 87 21.3 3.4 12.2-49 4.9 44.7h7.6l11.3-105.9c-5.9.8-11.9-3.6-14.7-9.4z"/><defs><path id="SVGID_9_" d="M49.4 112.3l-14 33.8 1.4 89.4 21.5-1.9-.3-50.7L73.7 225l7.4-1.9L66 117.7c-5.6 2.3-12.4-.5-16.6-5.4z"/></defs><clipPath id="SVGID_10_"><use xlink:href="#SVGID_9_" overflow="visible"/></clipPath><g clip-path="url(#SVGID_10_)"><ellipse transform="rotate(-14.28 60.275 105.212)" class="st9" cx="60.3" cy="105.2" rx="16.6" ry="18.4"/></g><path class="st7" d="M79.3 109.4l21.9 29.2 20.7 87-21.3 3.4-12.2-49.1-4.9 44.7h-7.6L64.5 118.8c6 .8 11.9-3.6 14.8-9.4z"/><defs><path id="SVGID_11_" d="M56.1 98.2l-14-33.7L43.5-25 65-23l-.3 50.6 15.8-42.1 7.4 1.9L72.7 92.8c-5.6-2.3-12.4.5-16.6 5.4z"/></defs><clipPath id="SVGID_12_"><use xlink:href="#SVGID_11_" overflow="visible"/></clipPath><g clip-path="url(#SVGID_12_)"><ellipse transform="rotate(-75.718 66.983 105.251)" class="st9" cx="67" cy="105.3" rx="18.4" ry="16.6"/></g><defs><path id="SVGID_13_" d="M79.3 109.4l21.9 29.2 20.7 87-21.3 3.4-12.2-49.1-4.9 44.7h-7.6L64.5 118.8c6 .8 11.9-3.6 14.8-9.4z"/></defs><clipPath id="SVGID_14_"><use xlink:href="#SVGID_13_" overflow="visible"/></clipPath><g clip-path="url(#SVGID_14_)"><circle cx="67.2" cy="121" r="1.3" fill="#f7f7f7"/></g><path class="st1" d="M101 63.6c0 20.2-16.9 36.6-37.8 36.6S25.5 83.9 25.5 63.6s16.9-39.9 37.8-39.9S101 43.4 101 63.6z"/><path class="st13" d="M41.1 63.1c3-2 7-2 10 0M85.1 63.1c-3-2-7-2-10 0"/><path d="M55 82.8c1.7 4.5 6.7 6.8 11.3 5.1 2.4-.9 4.2-2.7 5.1-5.1-5.4 1.6-11.1 1.6-16.4 0z" fill="#d36267"/><path fill="none" stroke="#d36267" stroke-width="1.49" stroke-linecap="round" stroke-miterlimit="10" d="M63.2 76.3v2"/><path class="st16" d="M54.7 71.8s.5-2.1-4-2.3c-5.5-.3-8.9 5-8.9 5 3.9-2.4 8.4-3.3 12.9-2.7zM73.4 71.8s-.6-2.1 4-2.3c5.5-.3 8.9 5 8.9 5-3.9-2.4-8.4-3.3-12.9-2.7z"/><path class="st17" d="M63.6 37.3c17.1 0 31 10.4 37.2 25.1h3.9c-.4-22.1-18.6-39.9-41.1-39.9-22.3-.1-40.5 17.6-41.1 39.9h3.9c6.2-14.8 20.1-25.1 37.2-25.1z"/><path class="st17" d="M107.5 66.1c-.5-3.8-1.2-7.5-2.2-11.2-5.6-22.4-26.7-42-55.5-31.8s23.6 22 23.6 22L92 59.2s3 33-15.2 38.4c3.3.3 6.7.1 10-.6 4.1-.8 8.1-1.9 12-3.2 13.7-4.6 10.4-17.2 8.7-27.7z"/><path class="st17" d="M38.4 86.6c-7.2-17.1 0-35.5 3.8-42.8 6.8-5.6 10.3-6.6 10.3-6.6l-10.6-8s-13.3-.4-19.8 30c-.8 3.8-1.4 7.1-1.8 10.2-.5 3.4-.8 6.9-.9 10.3 0 8.7 4.9 13.7 8.7 14.8 5.9 1.8 3.4 1.1 9.9 2.3 2 .3 3.5.6 4.7.7 2.1.4 4.2.5 6.3.1 0 0-8-3.4-10.6-11z"/><path class="st17" d="M41 42.5s3.1 8.7 9.1 12.5c8.4 5.3 34.9 5.1 40.7 4.6 4.2-.4 8-1.1 8-1.1s-9.1-18.6-21.3-22.4-29.2 2.6-36.5 6.4z"/></g><path class="st18" d="M63.5 5.3c32.1 0 58.2 26.1 58.2 58.2s-26.1 58.2-58.2 58.2S5.3 95.6 5.3 63.5 31.4 5.3 63.5 5.3m0-5.3C28.4 0 0 28.4 0 63.5S28.4 127 63.5 127 127 98.6 127 63.5 98.6 0 63.5 0z" id="SVGID"/><path class="st18" d="M153.2 9h234c7.1 0 12.8 5.7 12.8 12.8v84.4c0 7.1-5.7 12.8-12.8 12.8h-234c-7.1 0-12.8-5.7-12.8-12.8V21.8c0-7.1 5.7-12.8 12.8-12.8zM125.3 103.1c-5 0-9.2-4-9.2-9 0-4.3 2.9-8 7-9 .7-.2 1.4-.3 2.2-.3 5-.1 9.2 4 9.2 9 0 4.3-2.9 8-7 9-.7.2-1.5.3-2.2.3z"/><path class="st2" d="M125.3 86c4.4 0 8 3.6 8 8 0 3.7-2.5 6.9-6.1 7.8-.6.2-1.3.2-1.9.2-4.4 0-8-3.6-8-8s3.6-8 8-8m0-2.2c-5.7.1-10.1 4.8-10 10.5.1 5.7 4.8 10.1 10.5 10 .6 0 1.3-.1 1.9-.2 5.5-1.4 8.8-6.9 7.5-12.4-1.1-4.7-5.2-7.9-9.9-7.9z"/><path class="st18" d="M104 99.5c-3 0-5.5-2.4-5.5-5.5 0-2.6 1.7-4.8 4.2-5.4.4-.1.9-.2 1.3-.2 3 0 5.5 2.5 5.5 5.5 0 2.5-1.7 4.7-4.1 5.3-.5.3-1 .3-1.4.3z"/><path class="st2" d="M104 89.2c2.7 0 4.8 2.1 4.8 4.8 0 2.2-1.5 4.2-3.7 4.7-.4.1-.8.1-1.2.1-2.7 0-4.8-2.1-4.8-4.8 0-2.2 1.5-4.2 3.7-4.7.4-.1.8-.1 1.2-.1m0-1.4c-2.2 0-4.2 1.1-5.3 3-1.8 2.9-.8 6.7 2.1 8.5 1.4.9 3.1 1.1 4.7.7 3.3-.8 5.3-4.1 4.5-7.4v-.1c-.7-2.7-3.2-4.7-6-4.7zM199.8 57.1c0 1-.2 1.5-.9 1.8-1.3.3-2.5.4-3.8.3-.1-.6-.3-1.1-.6-1.6h3.2c.4 0 .5-.1.5-.5v-5.3h-7c-.2 2.6-.9 5.2-2.2 7.5-.4-.4-.9-.7-1.4-.9 1.9-3 2.1-7.2 2.1-10.4v-5.4c-.2.3-.5.7-.8 1-.4-.4-.9-.8-1.4-1.1 2.2-2.6 3.7-5.7 4.5-9l1.7.4-.6 2.1h3.5l.3-.1 1.1.7c-.5 1.4-1.1 2.7-1.9 4h3.6l.1 16.5zm-7.2-19.7c-.4 1.1-.9 2.1-1.5 3.1h3.4c.5-1 1-2 1.4-3.1h-3.3zM191.3 48c0 .7 0 1.5-.1 2.2h2.8v-3.5h-2.7V48zm0-2.7h2.7V42h-2.7v3.3zm4.2 0h2.7V42h-2.7v3.3zm2.7 4.9v-3.5h-2.7v3.5h2.7zm8.2-13.8c-.6 3.4-2 6.1-5.5 7.8-.3-.5-.7-.9-1.1-1.3 3.1-1.3 4.3-3.7 4.9-6.5h-4v-1.6H213c0 .2 0 .5-.1.7-.2 4.7-.4 6.5-1 7.2-.4.4-.9.7-1.5.7-1 .1-2 .1-3 0 0-.6-.2-1.1-.4-1.6 1.2.1 2.2.1 2.7.1.3.1.6 0 .8-.3.3-.4.6-1.8.8-5.2h-4.9zm7.3 17.2h-5.5V59h-1.8v-5.4h-6.1V52h6.1v-3.7h-3.2c-.4 1-.9 2-1.6 2.9-.5-.3-1-.6-1.5-.8 1.3-1.9 2.2-4.1 2.6-6.4l1.6.3c-.2.8-.4 1.6-.6 2.3h2.7v-2.9h1.8v2.9h5v1.6h-5V52h5.5v1.6zM220.7 45.6c-1.6-1.2-3.3-2.2-5.2-3l1-1.4c1.8.7 3.6 1.7 5.2 2.9l-1 1.5zm1.9 4c-1.3 3-3.1 6.6-4.6 9.2l-1.6-1.2c1.8-2.9 3.4-6 4.9-9.2l1.3 1.2zm-.5-11.4c-1.5-1.3-3.2-2.4-5.1-3.2l1.1-1.3c1.8.8 3.5 1.8 5.1 3l-1.1 1.5zm11.3 9.9c1.4 4.5 4.1 8 8.3 9.5-.5.5-1 1-1.3 1.6-4.3-1.8-7.1-5.5-8.6-10.5-.8 4-3 7.7-8.5 10.5-.4-.5-.9-1-1.4-1.4 5.4-2.6 7.4-6 8.2-9.8H223v-1.8h7.2c.1-1.1.1-2.2.1-3.4v-3.3h-5.7v-1.8h5.7v-4.5h1.9v4.5h6.8v8.4h2.4v1.8l-8 .2zm-1.2-5.1c0 1.1 0 2.2-.1 3.3h5.1v-6.7h-5V43zM249.5 35.1c-.1.8-.2 1.8-.2 2.6-.1 3.2-.3 9.9-.3 14.2 0 3.1 2 4.2 4.7 4.2 5.3 0 8.1-2.9 10.2-5.8l1.4 1.8c-2.6 3.8-7 6.1-11.6 6.1-3.9 0-6.7-1.6-6.7-6.1 0-4.3.3-11.3.3-14.4 0-.9-.1-1.8-.2-2.7l2.4.1zM282.3 40.3c-1.9.4-3.9.7-5.9 1-.3 1.2-.6 2.5-.9 3.8-1.1 4.4-2.6 8.7-4.4 12.8l-2.2-.7c2-4 3.6-8.2 4.7-12.6.2-.9.5-2 .8-3.1-1 .1-1.9.1-2.7.1-1.2 0-2.2-.1-3.2-.1l-.1-2c1.1.1 2.2.2 3.4.2.9 0 2 0 3.1-.1.2-1.1.4-2 .5-2.6.1-.7.2-1.5.1-2.2l2.4.2c-.2.6-.4 1.6-.5 2.2l-.5 2.3c1.9-.2 3.7-.6 5.5-1v1.8zm-1.2 9.9c-.2.8-.4 1.7-.4 2.5 0 1.4.6 2.7 4.8 2.7 1.8 0 3.6-.2 5.4-.5l-.1 2c-1.8.3-3.6.4-5.4.4-4.4 0-6.7-1.3-6.7-4.1 0-1.1.2-2.2.4-3.2l2 .2zm-.6-6.8c1.5-.1 3.2-.2 5.1-.2 1.6 0 3.2.1 4.9.2l-.1 1.9c-1.6-.2-3.1-.3-4.7-.3-1.7 0-3.4.1-5.2.3v-1.9zM307.1 37.1c-1.2 1.9-4 7.1-5.5 9.8 1.1-1.2 2.7-1.8 4.3-1.8 1.7-.1 3.2 1.3 3.3 3v.3c.1 1.7 0 3.9.1 5.3 0 1.1.9 2.1 2.1 2.1h.3c3.2 0 5.1-4 5.9-6.9l1.7 1.3c-1.5 4.5-3.8 7.6-7.9 7.6-3 0-3.9-1.9-4-3.5s0-3.8-.1-5.4c0-1.1-.8-2-1.9-2h-.3c-2.3 0-4.5 2.3-5.6 4.5-1 2.1-1.8 4.2-2.4 6.4l-2.2-.7c2-5.7 8.5-17.6 10-20.2.4-.6.7-1.3 1-2l2.3.9c-.5.4-.8.8-1.1 1.3zM334.7 40.7c-1.9.4-3.9.8-5.9 1-.3 1.2-.6 2.5-.9 3.7-1.1 4.4-2.6 8.7-4.4 12.8l-2.2-.7c2-4 3.6-8.2 4.7-12.5.3-1 .5-2 .8-3.1-1 .1-1.9.1-2.7.1-1.1 0-2.2 0-3.2-.1l-.1-2c1.1.1 2.2.2 3.4.2.9 0 2 0 3.1-.1.2-1.1.4-2 .5-2.6.1-.7.2-1.5.1-2.2l2.4.2c-.2.6-.4 1.6-.5 2.2l-.5 2.3c1.9-.2 3.7-.6 5.5-1l-.1 1.8zm-1.2 10c-.3.8-.4 1.7-.4 2.5 0 1.3.6 2.7 4.8 2.7 1.8 0 3.7-.2 5.5-.5l-.1 2.1c-1.8.3-3.6.4-5.4.4-4.4 0-6.7-1.3-6.7-4.1 0-1.1.2-2.2.4-3.2l1.9.1zm-.6-6.8c1.5-.1 3.2-.2 5.1-.2 1.6 0 3.2.1 4.9.2l-.1 2c-1.6-.2-3.1-.3-4.7-.3-1.7 0-3.5.1-5.2.3v-2zm7.9-3.3c-.7-1.4-1.5-2.7-2.3-4l1.4-.6c.9 1.2 1.7 2.5 2.4 3.9l-1.5.7zM343 35c.9 1.2 1.7 2.5 2.4 3.9l-1.4.7c-.7-1.4-1.5-2.7-2.4-3.9l1.4-.7zM354.7 58.6c-1.9-2.3-4-4.4-6.3-6.3l1.6-1.5c2.3 1.9 4.5 4 6.4 6.3l-1.7 1.5zM234.8 84.6c-2.3 1.7-4.7 3.3-7.3 4.7 2.6 2 5.6 3.3 8.8 3.7-.5.5-.9 1.1-1.2 1.7-7.1-1.4-11.5-5.1-13.8-11.2h-5v8.3c2.5-.4 5.4-.9 8.1-1.4l.1 1.7c-4.6.8-9.4 1.6-12.8 2.2l-.4-1.8 3.1-.5V71.5h7.9v-2.8h1.9v2.8h8.6v12h-9.4c.7 1.7 1.7 3.3 3 4.7 2.5-1.4 4.8-2.9 7-4.7l1.4 1.1zm-18.3-11.4v3.5H231v-3.5h-14.5zm0 8.6H231v-3.6h-14.5v3.6zM249.2 70.5c-.1.5-.2 1-.3 1.6-.1.8-.4 2.6-.7 4.2 1.4-.1 2.6-.2 3.3-.2 2.4 0 4.5.9 4.5 4.7 0 3.3-.5 7.8-1.6 10.1-.7 1.6-2.3 2.5-4 2.3-1.1 0-2.2-.2-3.3-.4l-.3-2.2c1.1.4 2.3.6 3.5.6 1.1.1 2.1-.5 2.5-1.5.9-2 1.4-5.7 1.4-8.7 0-2.6-1.2-3.1-3-3.1-.7 0-1.9.1-3.2.2-1 4-2.9 10.2-5.9 15.1l-2.1-.8c2.9-3.9 5-10.3 6-14.1l-3.7.4c-.6.1-1.7.2-2.4.3l-.2-2.2h2.4c.9 0 2.6-.2 4.4-.3.4-2 .7-4.1.7-6.1l2 .1zm9.6 3c2.1 3.1 3.9 6.4 5.2 9.9l-1.9 1c-.9-2.9-3.1-7.8-5.1-10.1l1.8-.8zM270.6 80.6c2-.7 6.6-2.3 9.9-2.3 3.9 0 6.8 2.3 6.8 6.1 0 5.5-5.4 8.1-12.7 8.6l-.8-2c6-.2 11.4-1.9 11.4-6.6 0-2.4-1.9-4.2-4.9-4.2-3.5 0-9.7 2.6-11.5 3.2l-.8-2.1c.9-.3 1.7-.5 2.6-.7zM304.8 75.7c-1.9.4-3.9.7-5.9 1-.3 1.2-.6 2.5-.9 3.7-1.1 4.4-2.6 8.7-4.4 12.8l-2.2-.7c2-4 3.6-8.2 4.7-12.6.3-.9.5-2 .8-3.1-1 .1-1.9.1-2.7.1-1.2 0-2.2 0-3.2-.1l-.1-2c1.1.1 2.2.2 3.3.2.9 0 2-.1 3.1-.2.2-1.1.4-2 .5-2.6.1-.7.2-1.5.1-2.2l2.4.2c-.2.6-.4 1.6-.5 2.2l-.5 2.3c1.9-.2 3.7-.6 5.5-1.1v2.1zm-1.2 9.9c-.2.8-.4 1.7-.4 2.6 0 1.4.6 2.7 4.8 2.7 1.8 0 3.7-.2 5.5-.6l-.1 2c-1.8.3-3.6.4-5.4.4-4.4 0-6.7-1.3-6.7-4.1 0-1.1.2-2.2.4-3.2l1.9.2zm-.5-6.8c1.4-.1 3.2-.2 5.1-.2 1.6 0 3.2.1 4.9.3v1.9c-1.6-.2-3.1-.3-4.7-.3-1.7 0-3.4.1-5.2.3l-.1-2zM322 90.4c0-1.2.9-2.2 2.1-2.2s2.2.9 2.2 2.1c0 1.2-.9 2.2-2.1 2.2-1.1 0-2.1-.9-2.1-2l-.1-.1zm.7-16l-.1-3.2h3.1l-.1 3.2-.6 11.3h-1.7l-.6-11.3z"/></svg>