<svg version="1.1" id="レイヤー_1" xmlns="http://www.w3.org/2000/svg" xmlns:xlink="http://www.w3.org/1999/xlink" x="0" y="0" viewBox="0 0 355 355" xml:space="preserve"><style>.st4{fill:#fce2c4}.st10{fill:#b4b4b5}.st11{fill:#3e3a39}.st14,.st15{fill:none;stroke:#231815;stroke-width:2;stroke-linecap:round;stroke-miterlimit:10}.st15{stroke:#212321;stroke-width:4}.st18{fill:#231815}.st19{fill:#2a2b2b}.st21{fill:#fff}</style><defs><circle id="SVGID_1_" cx="-228" cy="178" r="168"/></defs><clipPath id="SVGID_2_"><use xlink:href="#SVGID_1_" overflow="visible"/></clipPath><g><defs><circle id="SVGID_3_" cx="177.5" cy="177.5" r="167.9"/></defs><clipPath id="SVGID_4_"><use xlink:href="#SVGID_3_" overflow="visible"/></clipPath><path clip-path="url(#SVGID_4_)" fill="#e69e3a" d="M-106.4-23.8h601.5v175.7h-601.5z"/><defs><circle id="SVGID_5_" cx="177.5" cy="177.5" r="167.9"/></defs><clipPath id="SVGID_6_"><use xlink:href="#SVGID_5_" overflow="visible"/></clipPath><g clip-path="url(#SVGID_6_)"><path class="st4" d="M189.4 259.7h-16.8s-7.7 64.5-57.5 111L153 546.4h56l38-175.7c-49.8-46.5-57.6-111-57.6-111z"/><path class="st4" d="M115.1 370.7S105 413.9 91.4 481.4L77.8 549l23.1 3.4 35.8-170.5-21.6-11.2zM248 370.7s10.1 43.2 23.7 110.7l13.6 67.5-23.1 3.4-35.8-170.5 21.6-11.1z"/><path d="M255.6 379.5l-43.1-61.4c-7.3 6.6-19.2 10.9-32.5 10.9-12.3 0-23.3-3.6-30.7-9.4l-42 59.8-32 179.3 27.2 3.9 28.7-98.7 10 91.3h80.7l10-91.3 28.9 98.7 27.2-3.9-32.4-179.2z" fill="#595757"/><defs><path id="SVGID_7_" d="M255.6 379.5l-43.1-61.4c-7.3 6.6-19.2 10.9-32.5 10.9-12.3 0-23.3-3.6-30.7-9.4l-42 59.8-32 179.3 27.2 3.9 28.7-98.7 10 91.3h80.7l10-91.3 28.9 98.7 27.2-3.9-32.4-179.2z"/></defs><clipPath id="SVGID_8_"><use xlink:href="#SVGID_7_" overflow="visible"/></clipPath><path clip-path="url(#SVGID_8_)" fill="#3e3a39" d="M152.9 323.6l-24.4 73.8 3.1 76.4-6.7 98.7-59.5-9.3 37.7-189.3 32.2-49.5z"/><defs><path id="SVGID_9_" d="M255.6 379.5l-43.1-61.4c-7.3 6.6-19.2 10.9-32.5 10.9-12.3 0-23.3-3.6-30.7-9.4l-42 59.8-32 179.3 27.2 3.9 28.7-98.7 10 91.3h80.7l10-91.3 28.9 98.7 27.2-3.9-32.4-179.2z"/></defs><clipPath id="SVGID_10_"><use xlink:href="#SVGID_9_" overflow="visible"/></clipPath><path clip-path="url(#SVGID_10_)" fill="#3e3a39" d="M210.3 323.6l24.3 73.8-3.1 76.4 6.7 98.7 59.5-9.3-37.8-189.3-32.1-49.5z"/><g><defs><path id="SVGID_11_" d="M255.6 379.5l-43.1-61.4c-7.3 6.6-19.2 10.9-32.5 10.9-12.3 0-23.3-3.6-30.7-9.4l-42 59.8-32 179.3 27.2 3.9 28.7-98.7 10 91.3h80.7l10-91.3 28.9 98.7 27.2-3.9-32.4-179.2z"/></defs><clipPath id="SVGID_12_"><use xlink:href="#SVGID_11_" overflow="visible"/></clipPath><ellipse cx="180" cy="302.3" rx="52.5" ry="34.8" clip-path="url(#SVGID_12_)" fill="#3e3a39"/></g><g><defs><path id="SVGID_13_" d="M255.6 379.5l-43.1-61.4c-7.3 6.6-19.2 10.9-32.5 10.9-12.3 0-23.3-3.6-30.7-9.4l-42 59.8-32 179.3 27.2 3.9 28.7-98.7 10 91.3h80.7l10-91.3 28.9 98.7 27.2-3.9-32.4-179.2z"/></defs><clipPath id="SVGID_14_"><use xlink:href="#SVGID_13_" overflow="visible"/></clipPath><g clip-path="url(#SVGID_14_)"><path class="st10" d="M148.8 359.1c0-.4.2-.8.6-1.1.4-.3.9-.5 1.5-.6.6-.1 1.3-.2 2.1-.2s1.4 0 1.9.1.9.1 1.2.3c.3.1.5.3.7.5.1.2.2.5.2.8 0 .4-.2.7-.3.8-.2.1-.3.3-.3.5 0 .1 0 .3.1.6l1 2.7c.3.9.6 1.3.8 1.4.2 0 .4-.4.7-.9l.5-1.5-.6-1.9c-.2-.4-.4-.7-.7-.9-.3-.2-.4-.5-.4-1 0-.6.3-1 1-1.2.7-.2 1.7-.3 3.1-.3 1.1 0 1.9.1 2.6.3.6.2 1 .6 1.1 1.2 0 .6-.2.9-.5 1-.3.1-.4.3-.4.6v.2l1 2.7c.4 1.1.7 1.7 1 1.8.3-.1.6-.6.9-1.4l.8-2.1c.1-.4.2-.8.2-1 0-.3-.2-.5-.5-.6-.3-.1-.5-.4-.6-1.2 0-.3.1-.6.4-.9s.7-.4 1.1-.5c.4-.1 1-.1 1.6-.1h1.3c.1 0 .2 0 .4.1.2 0 .4.1.6.2.5.1.7.5.7 1.2s-.2 1.1-.7 1.2c-.5.1-1 .6-1.4 1.5l-4.5 11.5c0 .1-.1.3-.2.4s-.2.3-.3.5c-.1.2-.3.3-.5.4-.2.1-.5.2-.8.2-.4 0-.7-.1-1-.3-.3-.2-.5-.6-.8-1.2l-.6-1.6-.7-2-.6-1.7c-.2-.5-.3-.7-.4-.7-.1 0-.3.3-.5.8s-.5 1.1-.7 1.8l-.7 2.1-.5 1.6c-.2.4-.4.7-.6 1-.3.3-.6.4-1.1.4-.4 0-.8-.1-1.1-.4-.3-.3-.5-.6-.8-1.1l-4.4-11.6c-.3-.7-.6-1-1.1-1.1-.6-.3-.8-.7-.8-1.3zM181.5 362.9c0 .2.1.4.3.6.2.1.6.2 1.1.2h1.2c.7 0 1.2-.1 1.3-.2.1-.1.2-.3.3-.4 0-.1.1-.2.1-.3v-1c0-1.2-.2-1.9-.7-2-.5-.1-.7-.5-.8-1.3 0-.5.2-.8.7-1 .4-.2.9-.3 1.5-.4.3 0 .5-.1.9-.1h1.1c1.6 0 2.8.1 3.6.3.8.2 1.2.6 1.2 1.2-.1.6-.4 1-.9 1.2-.6.2-.9.8-.9 2v6.2c0 2.2.3 3.3.8 3.3.4 0 .7.4.8 1.1-.1.8-.5 1.2-1.3 1.3-.4.1-.7.1-1 .2-.3 0-.6.1-.8.1H188.7c-1.5 0-2.6-.1-3.3-.4-.7-.2-1-.6-1-1.2.1-.7.3-1.1.8-1.2.4-.1.7-.4.8-.9l.1-2.2c0-.4-.1-.8-.2-1-.1-.2-.5-.4-1.1-.4h-1.9c-.5 0-.9.1-1 .3 0 .1-.1.2-.1.3 0 .1-.1.2-.1.2v.7l.2 2.1c0 .5.3.8.7 1 .4.1.6.5.7 1.1 0 .5-.4.9-1.1 1.2-.7.3-1.9.4-3.4.4h-1.1c-.2 0-.8-.1-1.7-.2-.9-.1-1.4-.6-1.5-1.3.1-.7.4-1.1.9-1.1.6 0 .9-1 .9-3v-6.4c0-1.3-.3-2-.8-2.1-.5 0-.8-.4-.9-.9 0-.6.4-1 1.1-1.3s1.9-.4 3.6-.4c1.5 0 2.5.1 3.2.4.6.2.9.6.9 1.1-.1.7-.3 1.1-.8 1.2-.4.2-.7.5-.8 1.1v1.9zM193.4 358.8c0-.5.2-.8.7-1.2.5-.3 1.7-.4 3.5-.4s3.1.1 3.8.4c.7.3 1 .7 1 1.2s-.2.8-.3.9c-.2.1-.3.3-.3.4s.1.3.2.5l.5.7c.2.2.4.4.7.6.3-.1.5-.3.7-.6l.4-.9c.1-.2.1-.3.1-.3 0-.1-.1-.3-.3-.4-.2-.2-.3-.5-.4-1 0-.2.1-.4.2-.5.1-.1.2-.3.4-.4l.6-.3c.2-.1.4-.1.6-.2.2 0 .4-.1.7-.1h.8c1.4 0 2.3.1 2.7.4.5.3.7.6.7 1 0 .7-.3 1.1-.9 1.1-.5 0-1.1.4-1.8 1.1l-2.2 2.7c-.5.6-.8 1.1-.9 1.4-.1.3-.2.8-.2 1.3v2.9c0 .1 0 .2.1.4 0 .2 0 .4.1.7.1.4.3.7.8.8.5.1.7.5.8 1.1 0 .7-.4 1.2-1.2 1.5-.4.1-.9.2-1.4.3s-1.2.1-1.9.1h-1.4c-.3 0-.5 0-.8-.1-.3 0-.6-.1-1-.2-.8-.2-1.2-.6-1.4-1.4.1-.7.3-1.1.8-1.2.5-.1.8-.5.9-1.1v-3.7-.6-.3c-.1-.2-.1-.3-.2-.5s-.2-.3-.3-.5l-2.5-3.3c-.6-.7-1.1-1-1.6-1.1-.5 0-.8-.5-.8-1.2zM156.4 376.9c1.6 0 3 .2 4.1.7 1.2.5 2.3 1.4 3.3 2.7 1.1 1.3 1.6 3.1 1.6 5.2 0 1.2-.2 2.4-.6 3.4-.4 1-1 1.9-1.9 2.8-.8.8-1.8 1.5-2.9 1.9-1.1.4-2.3.7-3.7.7-1.5 0-2.8-.2-3.9-.7-1.1-.5-2.3-1.4-3.5-2.8-1.2-1.4-1.8-3.1-1.8-5.2 0-1.2.2-2.3.6-3.3.4-1.1 1.1-2 1.9-2.8s1.8-1.4 2.9-1.9c1.3-.5 2.5-.8 3.9-.7zm-3 6.1c0 .4 0 .9.1 1.3s.1.9.3 1.3c.1.5.3.9.5 1.4.2.5.5 1 .8 1.6.6 1.2 1.5 1.8 2.5 1.9.3 0 .6-.1.8-.2l.6-.6c.1-.3.3-.6.3-.9.1-.3.1-.7.1-1.1 0-1.5-.4-3-1.1-4.6-.7-1.6-1.7-2.5-2.9-2.7-.6 0-1 .2-1.4.7-.4.6-.6 1.2-.6 1.9zM174.2 378.7c0 .6-.2 1-.6 1.2-.4.1-.6.5-.7 1l-.1 1.8c0 .1 0 .1.1.2 0 0 .1.1.2.1s.2.1.3.1c.5-.1 1.1-.6 1.6-1.4l.9-1.6-.3-.6c-.1-.2-.2-.5-.2-.7 0-.5.3-.9.9-1.2.6-.3 1.4-.4 2.5-.4h1.9c.6 0 1.2.1 1.8.3.6.2 1 .6 1 1.2s-.2 1-.6 1.2c-.4.1-1.1.2-2.1.2-.3.1-.9.5-1.7 1.2-.8.7-1.3 1.4-1.5 2.1.1.2.2.5.3.7.2.3.4.6.7 1 .2.2.3.4.4.5.1.1.2.3.3.4.1.1.2.3.4.5s.4.5.7.8l2.1 2.2 1.8 1.8.7.4c.3.1.4.5.4 1.2 0 .5-.1.9-.4 1-.2.2-.5.3-.8.3h-5.4c-.2 0-.4 0-.6-.1-.1 0-.2-.1-.3-.2l-.4-.4c-.2-.2-.4-.5-.6-.8l-1.3-1.7c-.5-.7-.8-1-.8-1.1l-.2-.2-.4-.4c-.3-.3-.6-.5-.8-.6-.2 0-.3.1-.3.2-.1.2-.1.4-.2.6 0 1.3.2 1.9.6 2.1.4.1.7.5.8 1.2 0 .5-.2.9-.7 1.1-.2.1-.5.2-.7.2-.3.1-.5.1-.8.1-.3 0-.6.1-1 .1h-2.8c-.1 0-.3 0-.5-.1-.2 0-.5-.1-.9-.1-.7-.1-1.2-.5-1.3-1.2 0-.6.2-1.1.7-1.3.5-.2.7-.8.7-1.9l.1-1.3v-5.3l-.2-2.2c0-.4-.3-.6-.6-.8-.4-.2-.6-.5-.7-1.1 0-.6.4-1 1.2-1.3.8-.3 1.9-.4 3.2-.4 1.3 0 2.3.1 3 .3.8.2 1.2.5 1.2 1.1z"/><path class="st10" d="M182.5 379.1c0-.4.2-.8.6-1.1.4-.3.9-.5 1.5-.6.6-.1 1.3-.2 2.1-.2s1.4 0 1.9.1.9.1 1.2.3c.3.1.5.3.7.5.1.2.2.5.2.8 0 .4-.2.7-.3.8-.2.1-.3.3-.3.5 0 .1 0 .3.1.6l1 2.7c.3.9.6 1.3.8 1.4.2 0 .4-.4.7-.9l.5-1.5-.6-1.9c-.2-.4-.4-.7-.7-.9-.3-.2-.4-.5-.4-1 0-.6.3-1 1-1.2.7-.2 1.7-.3 3.1-.3 1.1 0 1.9.1 2.6.3.6.2 1 .6 1.1 1.2 0 .6-.2.9-.5 1-.3.1-.4.3-.4.6v.2l1 2.7c.4 1.1.7 1.7 1 1.8.3-.1.6-.6.9-1.4l.8-2.1c.1-.4.2-.8.2-1 0-.3-.2-.5-.5-.6-.3-.1-.5-.4-.6-1.2 0-.3.1-.6.4-.9s.7-.4 1.1-.5c.4-.1 1-.1 1.6-.1h1.3c.1 0 .2 0 .4.1.2 0 .4.1.6.2.5.1.7.5.7 1.2s-.2 1.1-.7 1.2c-.5.1-1 .6-1.4 1.5l-4.5 11.5c0 .1-.1.3-.2.4s-.2.3-.3.5c-.1.2-.3.3-.5.4-.2.1-.5.2-.8.2-.4 0-.7-.1-1-.3-.3-.2-.5-.6-.8-1.2l-.6-1.6-.7-2-.6-1.7c-.2-.5-.3-.7-.4-.7-.1 0-.3.3-.5.8s-.5 1.1-.7 1.8l-.7 2.1-.5 1.6c-.2.4-.4.7-.6 1-.3.3-.6.4-1.1.4-.4 0-.8-.1-1.1-.4-.3-.3-.5-.6-.8-1.1l-4.4-11.6c-.3-.7-.6-1-1.1-1.1-.6-.3-.8-.7-.8-1.3zM159.9 410.7c0-.4-.3-.6-.9-.6-.6-.1-1.1-.1-1.4-.1h-2.3c-.3 0-.6.1-1 .1-.4.1-.5.3-.5.8s.3.8.7.8c.4 0 .7.3.7.9 0 .6-.3 1-.8 1.2l-1.5.3c-.5 0-1 .1-1.6.1-.5 0-.9 0-1.3-.1-.4 0-.8-.1-1.1-.2-.3-.1-.5-.3-.7-.4-.2-.2-.3-.4-.3-.7 0-.7.3-1.1.9-1.1.6 0 1.2-.7 1.8-2.1l3.1-7.1c.2-.5.4-1 .5-1.4s.3-.8.5-1.3c.1-.3.1-.5.2-.7 0-.2.1-.4.1-.5l.1-.6s.1-.1.1-.2l.3-.3c.1-.1.3-.2.5-.3s.5-.1.8-.1h.3c.4 0 .8 0 1.1.1.3.1.5.1.7.2.2.1.4.2.5.3s.3.2.3.3c.6.6 1.1 1.3 1.5 2.1.2.4.4.8.6 1.1.2.3.3.6.4.9.1.2.2.5.4.8.1.3.3.6.4.9l1.5 3.5c.2.6.5 1.1.8 1.7.3.5.5 1.1.8 1.6.3.5.7.9 1.2.9.5.1.7.4.8 1 0 .6-.3 1-1 1.2-.3.1-.6.2-.9.2-.3.1-.6.1-.8.1s-.6.1-.9.1h-3.2c-.6 0-1.2-.1-1.9-.2s-1-.5-1-1.2c.1-.6.3-.9.7-1 .5-.2.7-.5.8-1zm-1-3.9c-.1-.3-.2-.6-.4-.9-.1-.3-.3-.7-.5-1.1-.4-.8-.7-1.2-1-1.3-.3.1-.6.5-.9 1.3l-.9 2.1h3.7zM168.8 399.2c0-.5.3-1 .9-1.4.3-.2.8-.3 1.4-.4.6-.1 1.3-.2 2.1-.2s1.5 0 2.1.1c.6.1 1 .2 1.4.3.3.2.6.3.7.6s.2.5.2.8c-.1.6-.3.9-.6 1-.2 0-.3.1-.3.4 0 .1 0 .2.1.4l1.2 3c.4 1 .7 1.5 1.1 1.6.2 0 .4-.2.6-.5.2-.3.4-.7.6-1.2l.6-1.6.7-1.6c0-.1.1-.3.1-.4 0-.3-.2-.5-.5-.5-.3-.1-.6-.4-.6-.9 0-.2.1-.4.2-.6.1-.2.3-.4.5-.5s.6-.2 1-.3c.4-.1.9-.1 1.5-.1h1.5c.4 0 .8.1 1.3.3.4.1.6.5.6 1.2 0 .8-.3 1.2-.8 1.2-.5-.1-1 .2-1.3.9l-1.2 2.7-1.5 3.4c-.2.5-.4.9-.5 1.2-.1.3-.2.5-.3.6 0 .1-.1.3-.2.5l-.5 1-1.2 2.8c-.2.4-.5.7-.8.9-.3.3-.7.4-1.2.4-.4 0-.8-.1-1.1-.4-.3-.3-.6-.6-.8-1l-4.7-11.6c-.3-.7-.7-1-1.2-1.1-.8-.1-1-.4-1.1-1zM188.7 398.4c0-.3.2-.6.5-.8.3-.2.9-.4 1.8-.4l5.7.1h2.8c.4 0 .9 0 1.4-.1.5 0 1-.1 1.6-.2.8.1 1.3.5 1.5 1.2.3.7.4 1.4.4 2 0 .6-.1 1.2-.3 1.6-.2.4-.5.6-1 .6-.6-.1-1.1-.4-1.4-.9-.3-.5-.6-.9-1-1.1-.4-.2-.9-.3-1.5-.3h-1.6c-.5 0-.8.1-1.1.3-.2.3-.3.7-.3 1.3v1.4c0 .4.1.8.2.9.1.2.4.3.8.3.9-.1 1.3-.5 1.3-1.3-.1-.8.3-1.2 1-1.3.7 0 1.1.4 1.3 1.1.2.7.3 1.4.3 2.1 0 1.5-.1 2.6-.4 3.3-.3.7-.7 1.1-1.3 1.1-.7-.1-1-.5-.9-1.3.1-.8-.3-1.2-1.1-1.3-.4 0-.7.1-.9.3-.2.2-.2.4-.2.7V410.1c0 .2.1.5.3.7.2.3.6.4 1.2.4h1c1 0 1.8-.2 2.4-.5.6-.3 1-.7 1.2-1.1l.7-1.1c.2-.3.5-.5.9-.5.5 0 .9.2 1.1.5s.3.7.3 1c0 1-.2 2.1-.7 3.1-.5 1-1 1.5-1.5 1.6-.4 0-.9-.1-1.5-.2s-1.6-.2-2.8-.2h-8.8c-.4 0-.7-.1-.9-.3s-.3-.5-.3-.8c.1-.6.3-.9.8-1.1.5-.2.8-.5 1-.9.2-.4.3-1 .3-1.8v-.6-1-1V402.5c0-2.1-.3-3.1-1-3.1-.9.2-1.2-.2-1.3-1z"/></g></g><g><path class="st11" d="M195.6 557.9h28.3l8.4-90.7 20.7 97.2 42.3-3.4L256 366.7l-36.5-47.6-9.9 70.2zM167.6 557.9h-28.3l-8.4-90.7-20.8 97.2-42.2-3.4 39.2-194.3 36.6-47.6 9.8 70.2z"/><defs><path id="SVGID_15_" d="M167.6 557.9h-28.3l-8.4-90.7-20.8 97.2-42.2-3.4 39.2-194.3 36.6-47.6 9.8 70.2z"/></defs><clipPath id="SVGID_16_"><use xlink:href="#SVGID_15_" overflow="visible"/></clipPath><path d="M161.3 300.9s-6.6 18.2-10.1 34.2c-5.4 24.7-5 21.6-18.3 13.6-11-6.6-21-19.4-8.6-31.2 12.3-11.7 37-16.6 37-16.6z" clip-path="url(#SVGID_16_)" fill="#3e3a39" stroke="#231815" stroke-width="3" stroke-miterlimit="10"/><defs><path id="SVGID_17_" d="M195.6 557.9h28.3l8.4-90.7 20.7 97.2 42.3-3.4L256 366.7l-36.5-47.6-9.9 70.2z"/></defs><clipPath id="SVGID_18_"><use xlink:href="#SVGID_17_" overflow="visible"/></clipPath><path d="M201.2 302.4s8.6 26.4 8.2 39.9c-.4 13.4 2.5 18.1 13.4 14.9 10.8-3.2 19.3-7.5 15.1-16.4-4.2-8.9-12.2-22.5-19-30.5-7.1-8.2-17.7-7.9-17.7-7.9z" clip-path="url(#SVGID_18_)" fill="#3e3a39" stroke="#231815" stroke-width="3" stroke-miterlimit="10"/><path class="st11" d="M161.3 300.9s-6.6 18.2-10.1 34.2c-5.4 24.7-5 21.6-18.3 13.6-11-6.6-21-19.4-8.6-31.2 12.3-11.7 37-16.6 37-16.6zM201.2 302.4s8.6 26.4 8.2 39.9c-.4 13.4 2.5 18.1 13.4 14.9 10.8-3.2 19.3-7.5 15.1-16.4-4.2-8.9-12.2-22.5-19-30.5-7.1-8.2-17.7-7.9-17.7-7.9z"/><path class="st14" d="M130.4 465.4l-13.2-61.1M232.4 465.4l13.2-61.1"/></g><g><path class="st4" d="M257.4 217.6c0 41.3-34.5 74.8-77.1 74.8-42.6 0-77.1-33.5-77.1-74.8s34.5-81.6 77.1-81.6c42.6 0 77.1 40.3 77.1 81.6z"/><path class="st4" d="M111.6 214.2s-21-2.8-20.2 7.4c1.5 18 9.7 25.9 18.1 25.9h4.8l-2.7-33.3zM249.3 214.2s21-2.8 20.2 7.4c-1.5 18-9.7 25.9-18.1 25.9h-4.8l2.7-33.3z"/><path class="st15" d="M135.1 216.4c2.6-1.9 6.2-3.1 10.2-3.1 4 0 7.6 1.2 10.2 3.1M224.9 216.4c-2.6-1.9-6.2-3.1-10.2-3.1-4 0-7.6 1.2-10.2 3.1"/><path d="M163.5 256.7c2.6 6.8 9.1 11.6 16.7 11.6s14.1-4.8 16.7-11.6c-4.9 1.6-10.6 2.5-16.7 2.5-6 0-11.7-.9-16.7-2.5z" fill="#d36267"/><path fill="none" stroke="#d36267" stroke-width="3" stroke-linecap="round" stroke-miterlimit="10" d="M180.3 243.5v3.9"/><path class="st18" d="M139.3 218.4c-27.1-1.9-38.3 5.3-35 17.5 3.7 13.7 13.6 22.1 35 22.1 19.3 0 35-9.9 35-22.1s-13.4-16-35-17.5zm0 37.5c-19 0-27.9-7.6-31.2-19.7-2.9-10.9 7-17.3 31.2-15.6 19.2 1.4 31.2 4.7 31.2 15.6s-14 19.7-31.2 19.7zM186.2 235.9c0 12.2 15.7 22.1 35 22.1 21.4 0 31.3-8.5 35-22.1 3.3-12.2-7.9-19.4-35-17.5-21.6 1.5-35 5.3-35 17.5zm3.9.3c0-10.9 11.9-14.3 31.2-15.6 24.1-1.7 34.1 4.7 31.2 15.6-3.3 12.2-12.1 19.7-31.2 19.7-17.3 0-31.2-8.8-31.2-19.7z"/><path class="st18" d="M187.5 229.8l13.2-8.4s-12.8 7.6-20.4 7.9c-7.7-.3-20.4-7.9-20.4-7.9l13.2 8.4v3.4l-1.8 11.8 2.6-5.3c2.6-5.3 6.5-5.1 6.5-5.1s3.9-.2 6.5 5.1l2.6 5.3-1.8-11.8v-3.4z"/><path class="st19" d="M157.5 231.3s1.1-4-7.9-4.5c-10.7-.7-17.3 9.7-17.3 9.7s11.3-7.7 25.2-5.2zM204 231.3s-1.1-4 7.9-4.5c10.7-.7 17.3 9.7 17.3 9.7s-11.4-7.7-25.2-5.2z"/></g><g><path class="st18" d="M184.8 163.6c34.9 0 63.3 21.1 76 51.2h7.9c-.8-45.1-38.1-81.5-83.9-81.5-59.7 0-83 36.3-83.9 81.5h7.9c12.6-30 41-51.2 76-51.2z"/><path class="st18" d="M250.4 197.1s5.6 6.4 0 32.5l5.3 2s12.6-12.1.6-36.6c-1.8-3.7-10.3-3.8-10.3-3.8l4.4 5.9zM117.2 200s-8.6 15.8.8 31.6l-5.3 2s-12.6-12.1-.6-36.6c1.8-3.7 10-3.8 10-3.8l-4.9 6.8z"/><path class="st18" d="M223.2 142.6s-23.2-17.3-73.5-6.9C96.9 146.5 88.4 176 88.4 176l12.5 38.8 28.3-53.4 84.6-12 9.4-6.8z"/><path class="st18" d="M223.2 142.6s56 .1 45.2 75.3l-7-2.3-22.6-54.1-35.2-13.1 19.6-5.8zM211.8 180.4s-29.5-13.7-54.3-.5c-25.1 13.4-23.3 23.3-23.3 23.3s-10.3-3-6.2-19.4c4.1-16.4 38.6-30.6 38.6-30.6l45.2 27.2z"/><path class="st18" d="M211.8 180.4s-20.9-12.9-55.9-5.9l-34.9 7s10.9-16.3 37.2-23.3c26.4-7 53.5.8 55.1.8s7 6.2 7 6.2l-8.5 15.2z"/><path class="st18" d="M211.8 180.4s19.8-2.1 30.3 13.5c10.9 16.3 10.1 24.1 9.3 31.8 0 0 8.3-12.4 4.9-30.7s-8.8-20.5-15-25.2c-6.2-4.7-17.1-9.3-24.1-9.3s-8.5 3.9-8.5 3.9l3.1 16z"/></g></g><g><defs><circle id="SVGID_19_" cx="177.5" cy="177.5" r="167.9"/></defs><clipPath id="SVGID_20_"><use xlink:href="#SVGID_19_" overflow="visible"/></clipPath><g clip-path="url(#SVGID_20_)"><path class="st21" d="M129.9 56c3.9 1 6.2 3.9 6.2 7.3 0 4.5-3 8.2-10.1 9.4l-1.2-1.9c5.5-.6 9.2-3.4 9.2-7.6 0-2.4-1.6-4.6-4.7-5.4-1.8 4.4-4.2 7.8-6.9 10.2.2.9.5 1.7.7 2.5l-2 .6c-.2-.6-.3-1.2-.5-1.8-1.7 1.1-3.6 1.8-5.3 1.8-2 0-3.6-1.3-3.6-3.8 0-4 3.5-8.1 7.8-10 .1-1.6.2-3.2.3-4.7h-2c-1.3 0-3.7-.1-4.9-.2l-.1-2.2c1.1.2 3.8.4 5 .4h2.2c.1-1 .2-1.8.3-2.5 0-.5.1-1 .1-1.4l2.4.1c-.1.3-.3.9-.3 1.3-.1.7-.3 1.5-.4 2.4 4-.2 7.8-.6 10.9-1.3v2.1c-3.3.6-7.4 1-11.2 1.2-.1 1.3-.2 2.6-.3 4 1.8-.5 3.7-.8 5.3-.8.4 0 .8 0 1.2.1l.1-.5c.1-.4.3-1.2.3-1.6l2.3.5c-.2.4-.4 1.1-.6 1.6l-.2.2zm-10.7 3.3c-3.1 1.7-5.5 4.9-5.5 7.6 0 1.3.6 2 1.8 2 1.3 0 2.9-.6 4.5-1.8-.4-2.2-.8-4.7-.8-7v-.8zm8-1.9h-.6c-2 0-3.9.4-5.4 1v1.4c0 1.9.2 3.9.6 5.7 2.1-1.9 4-4.5 5.4-8.1zM146.2 46.8c-.7 2.4-1.3 6.8-1.5 9 1.2-3.4 4.5-7.4 8.5-7.4 4.1 0 7 4.1 7 10.6 0 8.6-5.5 12.3-13 13.7l-1.3-2c6.7-1 12-3.8 12-11.6 0-5-1.6-8.6-5-8.6-3.9 0-7.6 5.6-8 9.7-.2 1.3-.2 2.4.1 3.9l-2.2.2c-.2-1.2-.3-2.9-.3-4.9 0-2.9.6-7.6 1-10 .1-1 .2-1.8.3-2.6h2.4zM177 47.1c-.1.5-.2 1.1-.3 1.7-.1.9-.4 2.9-.8 4.6 1.5-.1 2.9-.2 3.6-.2 2.7 0 5 1 5 5.1 0 3.7-.5 8.6-1.8 11.2-1 2.1-2.5 2.5-4.5 2.5-1.2 0-2.7-.2-3.6-.4l-.4-2.4c1.3.4 3 .7 3.8.7 1.2 0 2.1-.3 2.8-1.6 1-2.2 1.5-6.2 1.5-9.7 0-2.9-1.3-3.4-3.3-3.4-.8 0-2.1.1-3.5.2-1.1 4.5-3.2 11.3-6.6 16.7l-2.3-.9c3.2-4.3 5.5-11.4 6.6-15.5-1.7.2-3.3.3-4.1.4-.7.1-1.9.3-2.7.4l-.3-2.5c1 .1 1.7 0 2.7 0 1.1 0 2.9-.2 4.9-.3.4-2.2.8-4.7.8-6.8l2.5.2zm10.7 3.7c2 2.5 4.7 8.1 5.7 11l-2.2 1c-.9-3.1-3.4-8.5-5.6-11.1l2.1-.9zm1.6.4c-.6-1.3-1.7-3.2-2.6-4.4l1.5-.7c.8 1.1 1.9 3 2.6 4.3l-1.5.8zm3.5-1.3c-.7-1.4-1.7-3.2-2.6-4.3l1.5-.7c.8 1.2 2 3.1 2.7 4.3l-1.6.7zM217.5 52.6c-.7.4-1.4.8-2.3 1.2-2.1 1.1-6.5 3.2-9.6 5.2-2.9 1.9-4.7 4-4.7 6.4 0 2.6 2.5 4.3 7.5 4.3 3.4 0 7.6-.4 9.9-1v2.5c-2.3.4-5.9.8-9.8.8-5.8 0-9.9-1.8-9.9-6.3 0-3.1 2-5.7 5.4-8-1.4-2.5-3.1-6.2-4.5-9.6l2.2-.9c1.3 3.4 2.9 6.9 4.2 9.3 3-1.8 6.5-3.5 8.2-4.5.8-.5 1.5-.9 2.1-1.4l1.3 2zM235.3 56.2c-3.6 0-6.6 1-8.5 1.6-1 .3-1.8.6-2.6.9l-.7-2.6c.8-.1 1.8-.3 2.8-.5 2.2-.5 5.7-1.5 9.2-1.5 4.3 0 7.6 2.4 7.6 6.8 0 6.7-6 10.5-13.9 11.7l-1.3-2.1c7.5-1 12.9-4 12.9-9.7-.1-2.7-2.3-4.6-5.5-4.6zm5.3-7.7l-.3 2.2c-3.4-.2-9.6-.8-13.1-1.5l.3-2.1c3.4.7 10.2 1.3 13.1 1.4zM84.4 104.4c-.4 1.3-.6 2.4-.6 3.6 0 2.4 2.4 4.1 7.5 4.1 4.3 0 8.3-.5 10.6-1.2v2.4c-2.1.6-6.1 1.1-10.5 1.1-6.2 0-9.8-2-9.8-5.9 0-1.6.3-3 .6-4.3l2.2.2zm-1-12.4c2.2.3 5.1.4 8.2.4 3 0 6.1-.2 8.3-.4v2.3c-2.1.2-5.4.4-8.2.4-3.1 0-5.7-.1-8.2-.3V92zm20 .7l-1.6.7c-.6-1.3-1.7-3.2-2.6-4.4l1.5-.7c.8 1.2 2 3.1 2.7 4.4zm3.4-1.3l-1.6.7c-.7-1.4-1.7-3.2-2.6-4.3l1.5-.7c.9 1.2 2.1 3.2 2.7 4.3zM129.4 87.7c.8 1.1 1.9 3 2.6 4.3l-1.5.7.6-.2.4 2.2c-2 .5-4 1-5.9 1.3 1.1 2.4 2.8 6.1 4.2 8.8l-1.3 1.3c-1.3-.3-4.4-.7-6.3-.9l.3-1.8c1.2.1 3.4.4 4.5.5-.9-2-2.6-5.4-3.5-7.6-4 .5-8.5.5-13.2.1l-.1-2.3c4.5.6 8.8.6 12.4.2-.3-.8-.7-1.5-1.1-2.4-.5-1.2-.8-1.8-1.3-2.6l2.5-.5c.8 2.2 1.3 3.5 2 5.1 1.9-.3 3.8-.7 5.7-1.3-.6-1.3-1.7-3.2-2.6-4.4l1.6-.5zm-15.5 16.5c-.5 1.2-.9 3-.9 4 0 2.8 2 4.5 6.6 4.5 4.1 0 5.9-.4 8.1-.8v2.3c-2 .3-4 .7-8.1.7-5.7 0-8.9-2.3-8.9-6.1 0-1.4.3-3 .9-4.7l2.3.1zm18.9-17.7c.8 1.2 2 3.1 2.6 4.3l-1.5.7c-.7-1.4-1.7-3.2-2.6-4.4l1.5-.6zM140.7 94.6c0 1.9 0 4.9.3 7.5.5 5.3 2.1 8.8 4.4 8.8 1.6 0 3.1-3.1 3.9-6.4l1.8 2c-1.8 5.2-3.8 7-5.8 7-2.8 0-5.6-2.9-6.5-10.9-.3-2.7-.3-6.4-.3-8.2 0-.7 0-2-.2-2.7l2.7.1c-.1.6-.2 2-.3 2.8zm22 13.1l-2.3.9c-.6-5.7-2.5-11.6-5.4-15.2l2.2-.8c2.8 3.6 5 9.8 5.5 15.1zM188 113c-1.8-1.7-4.5-3.6-7.7-4.7 0 .8.1 1.5.1 2 0 2.1-1.3 4.3-5.4 4.3-4.4 0-6.8-1.6-6.8-4.5 0-2.8 2.7-4.6 7.1-4.6.9 0 1.9.1 2.7.2-.1-1.5-.1-3-.2-4.4H176c-2.2 0-5.6-.2-7.8-.4v-2.1c2.1.3 5.7.6 7.9.6h1.7V94.7h-1.6c-2.2 0-5.5-.2-7.4-.5v-2.1c1.8.3 5.3.6 7.4.6h1.6v-2.1c0-.5-.1-1.4-.1-1.8h2.4c-.1.5-.1 1.1-.2 2v1.8c2.7-.1 5.4-.4 8.1-.8v2.1c-2.5.3-5.2.5-8.1.6v4.7c2.9-.1 5.9-.4 8.7-.8v2.1c-3 .4-5.7.6-8.7.7.1 1.7.2 3.4.2 4.9 4.1 1.2 7.3 3.5 9.1 4.9l-1.2 2zm-9.8-5.3c-1-.2-2-.3-3.1-.3-3.1 0-4.8 1.2-4.8 2.7s1.3 2.6 4.5 2.6c1.8 0 3.4-.5 3.4-2.8v-2.2zM199.5 89.2c-.2.9-.2 1.9-.3 2.9-.1 3.5-.4 10.9-.4 15.7 0 3.4 2.3 4.7 5.2 4.7 5.8 0 9-3.2 11.2-6.5l1.6 1.9c-2.1 2.9-6.1 6.8-12.9 6.8-4.4 0-7.4-1.8-7.4-6.8 0-4.7.3-12.5.3-15.9 0-1.1-.1-2.1-.3-2.9l3 .1zM235.7 94.9c-2.1.4-4.3.8-6.5 1.1-.3 1.3-.6 2.8-1 4.1-1.1 4.4-3.2 10.8-4.9 14.2l-2.5-.8c1.8-3.2 4-9.5 5.2-13.9.3-1 .6-2.2.8-3.4-1.1.1-2.1.1-3 .1-1.3 0-2.4-.1-3.6-.1l-.1-2.2c1.4.2 2.6.2 3.7.2 1 0 2.2-.1 3.4-.2.2-1.2.4-2.2.5-2.9.1-.8.2-1.8.1-2.5l2.7.2c-.2.7-.4 1.8-.5 2.4l-.5 2.5c2.1-.3 4.2-.7 6.1-1.2v2.4zm-1.3 11c-.3 1-.5 2-.5 2.8 0 1.5.7 3 5.3 3 2 0 4.2-.3 6-.6l-.1 2.3c-1.7.3-3.7.4-6 .4-4.8 0-7.4-1.5-7.4-4.5 0-1.1.2-2.2.4-3.5l2.3.1zm-.6-7.5c1.6-.1 3.6-.3 5.6-.3 1.8 0 3.7.1 5.4.3l-.1 2.1c-1.6-.2-3.4-.4-5.2-.4-1.9 0-3.8.1-5.7.3v-2zM254.7 111.2c0-1.4 1.1-2.3 2.4-2.3s2.4.9 2.4 2.3c0 1.5-1.1 2.4-2.4 2.4s-2.4-.9-2.4-2.4zm.8-17.7l-.1-3.5h3.4l-.1 3.5-.7 12.4h-1.8l-.7-12.4zM262.9 111.2c0-1.4 1.1-2.3 2.4-2.3 1.3 0 2.4.9 2.4 2.3 0 1.5-1.1 2.4-2.4 2.4-1.3 0-2.4-.9-2.4-2.4zm.7-17.7l-.1-3.5h3.4l-.1 3.5-.7 12.4h-1.8l-.7-12.4z"/></g></g><g><circle id="SVGID_23_" cx="177.5" cy="177.5" r="167.9" fill="none" stroke="#e69e3a" stroke-width="14" stroke-miterlimit="10"/></g></g></svg>