<svg version="1.1" id="レイヤー_1" xmlns="http://www.w3.org/2000/svg" xmlns:xlink="http://www.w3.org/1999/xlink" x="0" y="0" viewBox="0 0 355 355" xml:space="preserve"><style>.st2{fill:#fce2c4}.st3{fill:#fff}.st5{fill:#e95513}.st8{fill:#dadf00}.st25{fill:none;stroke:#b28146;stroke-width:4.011;stroke-linecap:round;stroke-miterlimit:10}.st28{fill:#2a2b2b}.st29{fill:#b28146}</style><defs><circle id="SVGID_2_" cx="177.5" cy="177.5" r="167.9"/></defs><clipPath id="SVGID_3_"><use xlink:href="#SVGID_2_" overflow="visible"/></clipPath><path clip-path="url(#SVGID_3_)" fill="#3ad" d="M-74.1 2.3h578v148h-578z"/><g><defs><circle id="SVGID_4_" cx="177.5" cy="177.5" r="167.9"/></defs><clipPath id="SVGID_5_"><use xlink:href="#SVGID_4_" overflow="visible"/></clipPath><g clip-path="url(#SVGID_5_)"><path class="st2" d="M183.7 246.4H167s-7.7 63.9-56.9 109.9l37.5 173.8H203l37.5-173.8c-49.2-46-56.8-109.9-56.8-109.9z"/><path class="st2" d="M110.1 356.3s-10 42.8-23.4 109.5l-13.5 66.8 22.8 3.3 35.4-168.7-21.3-10.9zM241.6 356.3s10 42.8 23.4 109.5l13.5 66.8-22.8 3.3-35.4-168.7 21.3-10.9z"/><path class="st3" d="M248.5 356.3L206.1 301h-61.4l-42.8 55.3-20.3 92.3 35 19.6 8.8-28.4 9.9 90.3h79.8l9.9-90.3 8.8 28.4 35-19.6z"/><defs><path id="SVGID_6_" d="M206.1 301h-61.4l-19.3 138.8 9.9 90.3h79.8l9.9-90.3z"/></defs><clipPath id="SVGID_7_"><use xlink:href="#SVGID_6_" overflow="visible"/></clipPath><g clip-path="url(#SVGID_7_)"><path class="st5" d="M124.4 346.3h99.3v6.1h-99.3zM124.4 332.5h99.3v6.1h-99.3zM124.4 318.7h99.3v6.1h-99.3zM124.4 304.9h99.3v6.1h-99.3zM124.4 360.1h99.3v6.1h-99.3zM124.4 373.9h99.3v6.1h-99.3zM124.4 387.8h99.3v6.1h-99.3zM124.4 401.6h99.3v6.1h-99.3zM124.4 415.4h99.3v6.1h-99.3zM124.4 429.2h99.3v6.1h-99.3zM124.4 443h99.3v6.1h-99.3zM124.4 456.9h99.3v6.1h-99.3zM124.4 470.7h99.3v6.1h-99.3zM124.4 484.5h99.3v6.1h-99.3zM124.4 498.3h99.3v6.1h-99.3zM124.4 512.1h99.3v6.1h-99.3zM124.4 525.9h99.3v6.1h-99.3z"/></g><g><defs><path id="SVGID_8_" d="M138.1 309.1l-36.2 47.2-20.3 92.3 35 19.6 8.8-28.4z"/></defs><clipPath id="SVGID_9_"><use xlink:href="#SVGID_8_" overflow="visible"/></clipPath><g clip-path="url(#SVGID_9_)"><path transform="rotate(-60.066 54.07 502.444)" class="st5" d="M51 452.8h6.1v99.3H51z"/><path transform="rotate(-60.066 143.67 346.783)" class="st5" d="M140.6 297.1h6.1v99.3h-6.1z"/><path transform="rotate(-60.066 136.794 358.773)" class="st5" d="M133.7 309.1h6.1v99.3h-6.1z"/><path transform="rotate(-60.066 129.831 370.718)" class="st5" d="M126.8 321.1h6.1v99.3h-6.1z"/><path transform="rotate(-60.066 122.955 382.708)" class="st5" d="M119.9 333.1h6.1v99.3h-6.1z"/><path transform="rotate(-60.066 116.08 394.699)" class="st5" d="M113 345h6.1v99.3H113z"/><path transform="rotate(-60.066 109.203 406.692)" class="st5" d="M106.2 357h6.1v99.3h-6.1z"/><path transform="rotate(-60.066 102.24 418.635)" class="st5" d="M99.2 369h6.1v99.3h-6.1z"/><path transform="rotate(-60.066 95.364 430.63)" class="st5" d="M92.3 381h6.1v99.3h-6.1z"/><path transform="rotate(-60.066 88.488 442.62)" class="st5" d="M85.4 393h6.1v99.3h-6.1z"/><path transform="rotate(-60.066 81.662 454.525)" class="st5" d="M78.6 404.9h6.1v99.3h-6.1z"/><path transform="rotate(-60.066 74.699 466.467)" class="st5" d="M71.6 416.8h6.1v99.3h-6.1z"/><path transform="rotate(-60.066 67.822 478.462)" class="st5" d="M64.8 428.8h6.1v99.3h-6.1z"/><path transform="rotate(-60.066 60.946 490.452)" class="st5" d="M57.9 440.8H64v99.3h-6.1z"/></g></g><g><defs><path id="SVGID_10_" d="M212.6 309.1l36.2 47.2 20.3 92.3-35 19.6-8.8-28.4z"/></defs><clipPath id="SVGID_11_"><use xlink:href="#SVGID_10_" overflow="visible"/></clipPath><g clip-path="url(#SVGID_11_)"><path transform="rotate(-29.934 296.627 502.336)" class="st5" d="M247 499.3h99.3v6.1H247z"/><path transform="rotate(-29.934 207.058 346.714)" class="st5" d="M157.4 343.7h99.3v6.1h-99.3z"/><path transform="rotate(-29.934 213.919 358.623)" class="st5" d="M164.3 355.6h99.3v6.1h-99.3z"/><path transform="rotate(-29.934 220.833 370.614)" class="st5" d="M171.2 367.6h99.3v6.1h-99.3z"/><path transform="rotate(-29.934 227.743 382.61)" class="st5" d="M178.1 379.6h99.3v6.1h-99.3z"/><path transform="rotate(-29.934 234.568 394.653)" class="st5" d="M184.9 391.6h99.3v6.1h-99.3z"/><path transform="rotate(-29.934 241.43 406.56)" class="st5" d="M191.8 403.5h99.3v6.1h-99.3z"/><path transform="rotate(-29.934 248.342 418.554)" class="st5" d="M198.7 415.5H298v6.1h-99.3z"/><path transform="rotate(-29.934 255.256 430.544)" class="st5" d="M205.6 427.5h99.3v6.1h-99.3z"/><path transform="rotate(-29.934 262.166 442.541)" class="st5" d="M212.5 439.5h99.3v6.1h-99.3z"/><path transform="rotate(-29.934 269.029 454.448)" class="st5" d="M219.4 451.4h99.3v6.1h-99.3z"/><path transform="rotate(-29.934 275.94 466.441)" class="st5" d="M226.3 463.4h99.3v6.1h-99.3z"/><path transform="rotate(-29.934 282.854 478.432)" class="st5" d="M233.2 475.4h99.3v6.1h-99.3z"/><path transform="rotate(-29.934 289.765 490.429)" class="st5" d="M240.1 487.4h99.3v6.1h-99.3z"/></g></g><g><path class="st8" d="M143.7 297.2l-44.2 59.1-41.7 175.8 43 6.9 24.6-99.2 9.9 90.3h15.4l22.9-214c-12.1 1.7-24.1-7.2-29.9-18.9z"/><defs><path id="SVGID_12_" d="M150.8 308l-10.6 73 47.4 174.4 41.1-14.5-25.8-98.9 51.9 74.6 13.5-7.4-82.2-198.9c-9.8 7.4-24.7 5.3-35.3-2.3z"/></defs><clipPath id="SVGID_13_"><use xlink:href="#SVGID_12_" overflow="visible"/></clipPath><ellipse transform="rotate(-14.28 168.58 288.798)" cx="168.6" cy="288.8" rx="33.5" ry="37.1" clip-path="url(#SVGID_13_)" fill="none" stroke="#fff" stroke-width="2.006" stroke-miterlimit="10"/><defs><path id="SVGID_14_" d="M143.7 297.2l-44.2 59.1-41.7 175.8 43 6.9 24.6-99.2 9.9 90.3h15.4l22.9-214c-12.1 1.7-24.1-7.2-29.9-18.9z"/></defs><clipPath id="SVGID_15_"><use xlink:href="#SVGID_14_" overflow="visible"/></clipPath><path clip-path="url(#SVGID_15_)" fill="none" stroke="#fff" stroke-width="2.006" stroke-miterlimit="10" d="M127.6 509.1h31.5v23h-31.5z"/><g><defs><path id="SVGID_16_" d="M143.7 297.2l-44.2 59.1-41.7 175.8 43 6.9 24.6-99.2 9.9 90.3h15.4l22.9-214c-12.1 1.7-24.1-7.2-29.9-18.9z"/></defs><clipPath id="SVGID_17_"><use xlink:href="#SVGID_16_" overflow="visible"/></clipPath><path clip-path="url(#SVGID_17_)" fill="none" stroke="#fff" stroke-width="2.006" stroke-miterlimit="10" d="M139.9 509.1v23"/></g><g><defs><path id="SVGID_18_" d="M143.7 297.2l-44.2 59.1-41.7 175.8 43 6.9 24.6-99.2 9.9 90.3h15.4l22.9-214c-12.1 1.7-24.1-7.2-29.9-18.9z"/></defs><clipPath id="SVGID_19_"><use xlink:href="#SVGID_18_" overflow="visible"/></clipPath><path clip-path="url(#SVGID_19_)" fill="none" stroke="#fff" stroke-width="2.006" stroke-miterlimit="10" d="M146 509.1v23"/></g><path class="st8" d="M206.9 297.2l44.2 59.1 41.7 175.8-43 6.9-24.6-99.2-9.9 90.3H200l-22.9-214c12.1 1.7 24.1-7.2 29.8-18.9z"/><g><defs><path id="SVGID_20_" d="M162.9 306.6l-73.1 10.6-174.4-47.4 14.5-41.1 98.9 25.8-74.6-51.9 7.4-13.5 198.9 82.2c-7.3 9.9-5.2 24.6 2.4 35.3z"/></defs><clipPath id="SVGID_21_"><use xlink:href="#SVGID_20_" overflow="visible"/></clipPath><ellipse transform="rotate(-75.724 182.1 288.834)" cx="182.1" cy="288.8" rx="37.1" ry="33.5" clip-path="url(#SVGID_21_)" fill="none" stroke="#fff" stroke-width="2.006" stroke-miterlimit="10"/><defs><path id="SVGID_22_" d="M206.9 297.2l44.2 59.1 41.7 175.8-43 6.9-24.6-99.2-9.9 90.3H200l-22.9-214c12.1 1.7 24.1-7.2 29.8-18.9z"/></defs><clipPath id="SVGID_23_"><use xlink:href="#SVGID_22_" overflow="visible"/></clipPath><path clip-path="url(#SVGID_23_)" fill="none" stroke="#fff" stroke-width="2.006" stroke-miterlimit="10" d="M205.2 509.1v23"/><defs><path id="SVGID_24_" d="M206.9 297.2l44.2 59.1 41.7 175.8-43 6.9-24.6-99.2-9.9 90.3H200l-22.9-214c12.1 1.7 24.1-7.2 29.8-18.9z"/></defs><clipPath id="SVGID_25_"><use xlink:href="#SVGID_24_" overflow="visible"/></clipPath><path clip-path="url(#SVGID_25_)" fill="none" stroke="#fff" stroke-width="2.006" stroke-miterlimit="10" d="M211.3 509.1v23"/><defs><path id="SVGID_26_" d="M206.9 297.2l44.2 59.1 41.7 175.8-43 6.9-24.6-99.2-9.9 90.3H200l-22.9-214c12.1 1.7 24.1-7.2 29.8-18.9z"/></defs><clipPath id="SVGID_27_"><use xlink:href="#SVGID_26_" overflow="visible"/></clipPath><path clip-path="url(#SVGID_27_)" fill="none" stroke="#fff" stroke-width="2.006" stroke-miterlimit="10" d="M189 509.1h31.5v23H189z"/><g><defs><path id="SVGID_28_" d="M206.9 297.2l44.2 59.1 41.7 175.8-43 6.9-24.6-99.2-9.9 90.3H200l-22.9-214c12.1 1.7 24.1-7.2 29.8-18.9z"/></defs><clipPath id="SVGID_29_"><use xlink:href="#SVGID_28_" overflow="visible"/></clipPath><circle cx="201.7" cy="501" r="2.7" clip-path="url(#SVGID_29_)" fill="#f7f7f7"/></g><g><defs><path id="SVGID_30_" d="M206.9 297.2l44.2 59.1 41.7 175.8-43 6.9-24.6-99.2-9.9 90.3H200l-22.9-214c12.1 1.7 24.1-7.2 29.8-18.9z"/></defs><clipPath id="SVGID_31_"><use xlink:href="#SVGID_30_" overflow="visible"/></clipPath><circle cx="198.6" cy="468" r="2.7" clip-path="url(#SVGID_31_)" fill="#f7f7f7"/></g><g><defs><path id="SVGID_32_" d="M206.9 297.2l44.2 59.1 41.7 175.8-43 6.9-24.6-99.2-9.9 90.3H200l-22.9-214c12.1 1.7 24.1-7.2 29.8-18.9z"/></defs><clipPath id="SVGID_33_"><use xlink:href="#SVGID_32_" overflow="visible"/></clipPath><circle cx="194.8" cy="432.7" r="2.7" clip-path="url(#SVGID_33_)" fill="#f7f7f7"/></g><g><defs><path id="SVGID_34_" d="M206.9 297.2l44.2 59.1 41.7 175.8-43 6.9-24.6-99.2-9.9 90.3H200l-22.9-214c12.1 1.7 24.1-7.2 29.8-18.9z"/></defs><clipPath id="SVGID_35_"><use xlink:href="#SVGID_34_" overflow="visible"/></clipPath><circle cx="191.7" cy="396.6" r="2.7" clip-path="url(#SVGID_35_)" fill="#f7f7f7"/></g><g><defs><path id="SVGID_36_" d="M206.9 297.2l44.2 59.1 41.7 175.8-43 6.9-24.6-99.2-9.9 90.3H200l-22.9-214c12.1 1.7 24.1-7.2 29.8-18.9z"/></defs><clipPath id="SVGID_37_"><use xlink:href="#SVGID_36_" overflow="visible"/></clipPath><circle cx="187.1" cy="358.2" r="2.7" clip-path="url(#SVGID_37_)" fill="#f7f7f7"/></g><g><defs><path id="SVGID_38_" d="M206.9 297.2l44.2 59.1 41.7 175.8-43 6.9-24.6-99.2-9.9 90.3H200l-22.9-214c12.1 1.7 24.1-7.2 29.8-18.9z"/></defs><clipPath id="SVGID_39_"><use xlink:href="#SVGID_38_" overflow="visible"/></clipPath><circle cx="182.5" cy="320.6" r="2.7" clip-path="url(#SVGID_39_)" fill="#f7f7f7"/></g></g><g><defs><path id="SVGID_40_" d="M248.5 356.3l-51.8-70.6H195c-3.3 8.6-36.4 8.6-39.6 0h-1.7l-51.9 70.6-20.2 92.3 35 19.7 8.8-28.5 9.9 90.3h79.8l9.9-90.3 8.8 28.5 35-19.7-20.3-92.3z"/></defs><clipPath id="SVGID_41_"><use xlink:href="#SVGID_40_" overflow="visible"/></clipPath><path clip-path="url(#SVGID_41_)" fill="none" stroke="#fff" stroke-width="2.006" stroke-miterlimit="10" d="M125.3 439l-13-60.5"/><g><defs><path id="SVGID_42_" d="M248.5 356.3l-51.8-70.6H195c-3.3 8.6-36.4 8.6-39.6 0h-1.7l-51.9 70.6-20.2 92.3 35 19.7 8.8-28.5 9.9 90.3h79.8l9.9-90.3 8.8 28.5 35-19.7-20.3-92.3z"/></defs><clipPath id="SVGID_43_"><use xlink:href="#SVGID_42_" overflow="visible"/></clipPath><path clip-path="url(#SVGID_43_)" fill="none" stroke="#fff" stroke-width="2.006" stroke-miterlimit="10" d="M225.1 439l13.1-60.5"/></g></g></g><g><path class="st2" d="M250.9 204.7c0 40.9-34.2 74-76.3 74s-76.3-33.1-76.3-74 34.2-80.7 76.3-80.7c42.1 0 76.3 39.9 76.3 80.7z"/><path class="st25" d="M129.9 203.6c2.6-1.9 6.2-3 10.1-3 3.9 0 7.5 1.2 10.1 3.1M218.8 203.6c-2.6-1.9-6.2-3-10.1-3-3.9 0-7.5 1.2-10.1 3.1"/><path d="M158 243.4c2.6 6.7 9 11.5 16.6 11.5s14-4.8 16.6-11.5c-4.9 1.6-10.5 2.5-16.6 2.5s-11.7-.9-16.6-2.5z" fill="#d36267"/><path fill="none" stroke="#d36267" stroke-width="3.008" stroke-linecap="round" stroke-miterlimit="10" d="M174.6 230.4v3.9"/><path class="st28" d="M157.3 221.2s1.1-4.2-8.1-4.7c-11.2-.7-17.9 10-17.9 10s11.6-7.8 26-5.3zM195.1 221.2s-1.1-4.2 8.1-4.7c11.2-.7 17.9 10 17.9 10s-11.7-7.8-26-5.3z"/></g><g><path class="st2" d="M106.7 201.4s-20.8-2.8-19.9 7.3c1.5 17.8 9.6 25.6 17.9 25.6h4.8l-2.8-32.9zM242.9 201.4s20.8-2.8 19.9 7.3c-1.5 17.8-9.6 25.6-17.9 25.6h-4.8l2.8-32.9z"/><path class="st29" d="M175.3 151.5c34.6 0 62.7 20.9 75.2 50.7h7.8c-.8-44.7-37.7-80.6-83-80.6s-82.2 35.9-83 80.6h7.8c12.6-29.8 40.7-50.7 75.2-50.7z"/><path class="st29" d="M264.1 209.7c-2.5-15.6-4-21.1-4.4-22.6-11.4-45.3-54-84.8-112.2-64.2-58.3 20.6 47.6 44.5 47.6 44.5l37.6 28.4s6.2 66.8-30.6 77.5c0 0 9.8 1 20.2-1.1 5.7-1.1 13.6-3 24.2-6.6 27.6-9.1 21-34.6 17.6-55.9z"/><path class="st29" d="M124.4 251.1c-14.6-34.5-.1-71.7 7.6-86.4 13.7-11.2 20.8-13.4 20.8-13.4l-21.5-16.1s-26.9-.8-39.9 60.6c-1.6 7.6-2.9 14.4-3.6 20.6-.8 5.5-1.8 13.3-1.8 20.9 0 17.7 10 27.6 17.7 29.9 12 3.6 6.9 2.3 20 4.6 4 .7 7.1 1.1 9.5 1.4 8.5 1.4 12.8.2 12.8.2s-16.3-6.9-21.6-22.3z"/><path class="st29" d="M129.7 162.1s6.2 17.6 18.4 25.3c16.9 10.7 70.6 10.3 82.1 9.2 8.4-.8 16.1-2.3 16.1-2.3s-18.4-37.6-43-45.3c-24.4-7.7-59 5.4-73.6 13.1z"/></g></g></g><g><circle id="SVGID_1_" cx="177.5" cy="177.5" r="167.9" fill="none" stroke="#3ad" stroke-width="14" stroke-miterlimit="10"/></g><g><path class="st3" d="M99 70c0 1.1-.2 1.6-1 1.9-.7.3-2 .3-4.2.3-.1-.5-.4-1.3-.6-1.8h3.5c.4 0 .6-.1.6-.5v-5.8h-7.6c-.3 2.9-.9 5.9-2.4 8.2-.3-.3-1.1-.8-1.5-1 2.1-3.2 2.3-7.8 2.3-11.3v-5.9c-.3.4-.6.7-.8 1.1-.3-.3-1.1-1-1.5-1.2 2.2-2.4 3.9-6 4.9-9.8l1.9.4c-.2.8-.5 1.5-.7 2.3h3.8l.3-.1 1.2.8c-.5 1.4-1.3 3-2 4.4h4v18H99zm-7.9-21.5c-.5 1.2-1.1 2.3-1.6 3.4h3.7c.5-1 1.1-2.3 1.5-3.4h-3.6zm-1.3 11.6c0 .8 0 1.6-.1 2.4h3v-3.8h-3l.1 1.4zm0-2.9h3v-3.6h-3v3.6zm4.5 0h3v-3.6h-3v3.6zm2.9 5.3v-3.8h-3v3.8h3zm9-15.1c-.7 3.7-2.2 6.7-6 8.4-.2-.4-.8-1.1-1.2-1.4 3.4-1.4 4.7-4 5.3-7H100v-1.8h13.3s0 .6-.1.8c-.2 5.2-.5 7.1-1.1 7.8-.4.5-.9.7-1.6.7-.6.1-1.9 0-3.2 0 0-.6-.2-1.3-.5-1.7 1.3.1 2.4.1 2.9.1.4 0 .7 0 .9-.3.4-.4.6-1.9.8-5.7h-5.2v.1zm8 18.8h-6v5.9h-2v-5.9h-6.6v-1.8h6.6v-4h-3.6c-.5 1.2-1.1 2.3-1.7 3.1-.3-.2-1.1-.6-1.6-.8 1.4-1.8 2.3-4.4 2.9-7l1.8.3c-.2.9-.4 1.7-.7 2.6h2.9v-3.2h2v3.2h5.5v1.8h-5.5v4h6v1.8zM121.8 57.5c-1.2-1-3.6-2.4-5.6-3.3l1.1-1.5c1.9.8 4.4 2.1 5.7 3.1l-1.2 1.7zm2.1 4.3c-1.5 3.3-3.4 7.2-5 10.1l-1.8-1.3c1.5-2.4 3.7-6.5 5.3-10l1.5 1.2zm-.6-12.4c-1.2-1.1-3.5-2.6-5.5-3.5l1.2-1.5c1.9.8 4.3 2.2 5.5 3.3l-1.2 1.7zm12.3 10.8c1.5 4.9 4.5 8.7 9 10.4-.5.4-1.1 1.2-1.5 1.7-4.7-2-7.7-6-9.4-11.5-.9 4.4-3.3 8.4-9.3 11.5-.3-.4-1.1-1.1-1.6-1.5 5.8-2.9 8.1-6.6 8.9-10.7h-7.5v-1.9h7.8c.1-1.2.2-2.4.2-3.7V51H126v-1.9h6.2v-4.9h2v4.9h7.5v9.2h2.6v1.9h-8.7zm-1.3-5.6c0 1.2 0 2.4-.1 3.6h5.6V51h-5.5v3.6zM153.2 46.1c-.2.9-.2 1.9-.3 2.9-.1 3.5-.4 10.8-.4 15.5 0 3.4 2.2 4.6 5.2 4.6 5.7 0 8.9-3.2 11.1-6.4l1.5 1.9c-2.1 2.9-6 6.7-12.7 6.7-4.3 0-7.3-1.8-7.3-6.7 0-4.6.3-12.3.3-15.6 0-1.1-.1-2.1-.2-2.9h2.8zM188.9 51.7c-2 .4-4.3.8-6.4 1.1-.3 1.3-.6 2.8-1 4.1-1.1 4.4-3.2 10.7-4.8 14l-2.4-.8c1.8-3.2 4-9.3 5.1-13.7.3-1 .6-2.2.8-3.4-1.1.1-2.1.1-3 .1-1.3 0-2.4-.1-3.5-.1l-.1-2.2c1.4.2 2.5.2 3.6.2 1 0 2.1-.1 3.3-.2.2-1.2.4-2.2.5-2.8.1-.8.2-1.8.1-2.4l2.7.2c-.2.6-.4 1.8-.5 2.4l-.5 2.5c2-.3 4.1-.6 6-1.1l.1 2.1zm-1.3 10.8c-.3 1-.5 2-.5 2.8 0 1.5.7 2.9 5.2 2.9 2 0 4.1-.2 5.9-.6l-.1 2.2c-1.6.2-3.7.4-5.9.4-4.8 0-7.3-1.5-7.3-4.5 0-1.1.2-2.2.4-3.5l2.3.3zm-.6-7.4c1.6-.1 3.6-.2 5.5-.2 1.8 0 3.6.1 5.3.3l-.1 2.1c-1.6-.2-3.4-.4-5.1-.4-1.9 0-3.8.1-5.6.3v-2.1zM216 48.2c-1.3 2.1-4.4 7.7-6 10.7 1.5-1.5 3.2-2 4.7-2 2 0 3.5 1.3 3.6 3.7.1 1.9 0 4.2.1 5.8s1.1 2.3 2.5 2.3c3.6 0 5.6-4.3 6.4-7.5l1.8 1.5c-1.6 4.9-4.2 8.3-8.6 8.3-3.2 0-4.2-2.1-4.3-3.8-.1-1.8 0-4.2-.1-5.9-.1-1.4-.9-2.2-2.3-2.2-2.5 0-4.9 2.5-6.1 4.9-.9 1.8-2.3 5.5-2.7 7l-2.4-.8c2.2-6.2 9.2-19.1 10.9-22.1.4-.7.7-1.4 1.1-2.2l2.5 1c-.4.1-.8.7-1.1 1.3zM246.1 52.1c-2 .5-4.3.8-6.4 1.1-.3 1.3-.6 2.8-1 4.1-1.1 4.4-3.2 10.7-4.8 14l-2.4-.8c1.8-3.2 4-9.4 5.1-13.7.3-1.1.6-2.2.8-3.4-1.1.1-2.1.1-3 .1-1.3 0-2.4 0-3.5-.1l-.1-2.2c1.4.2 2.5.2 3.6.2 1 0 2.1-.1 3.3-.2.2-1.2.4-2.2.5-2.8.1-.8.2-1.8.1-2.4l2.7.2c-.2.6-.4 1.8-.5 2.3L240 51c2-.3 4.1-.6 6-1.1l.1 2.2zM244.8 63c-.3 1-.5 2-.5 2.8 0 1.5.7 2.9 5.2 2.9 2 0 4.1-.2 5.9-.6l-.1 2.3c-1.6.2-3.7.4-5.9.4-4.8 0-7.3-1.5-7.3-4.5 0-1.1.2-2.2.4-3.5l2.3.2zm-.6-7.5c1.6-.1 3.6-.2 5.5-.2 1.8 0 3.6.1 5.3.2l-.1 2.1c-1.6-.2-3.4-.4-5.1-.4-1.9 0-3.8.1-5.6.3v-2zm8.6-3.4c-.6-1.2-1.7-3.1-2.5-4.3l1.5-.6c.8 1.1 1.9 3 2.6 4.3l-1.6.6zm2.3-6.2c.8 1.1 2 3.1 2.6 4.2l-1.5.7c-.7-1.4-1.7-3.1-2.6-4.3l1.5-.6zM267.9 71.6c-2-2.5-4.7-5.1-6.9-6.9l1.8-1.6c2.2 1.8 5 4.6 7 6.9l-1.9 1.6zM137.2 99.9c-2.3 1.8-5.3 3.7-7.9 5.1 2.4 2 5.7 3.4 9.6 4.1-.5.4-1 1.3-1.3 1.8-7.7-1.6-12.5-5.5-15-12.2h-5.4v9.1c2.8-.4 5.8-1 8.8-1.5l.1 1.9c-5 .9-10.2 1.8-13.9 2.4l-.5-2 3.4-.5V85.7h8.5v-3h2.1v3h9.3v13.1h-10.3c.8 1.9 1.9 3.6 3.2 5.1 2.6-1.4 5.7-3.5 7.6-5.2l1.7 1.2zm-20-12.4v3.8H133v-3.8h-15.8zm0 9.4H133V93h-15.8v3.9zM152.9 84.6c-.1.5-.2 1.1-.3 1.7-.2.9-.5 2.8-.8 4.5 1.5-.1 2.8-.2 3.6-.2 2.6 0 4.9 1 4.9 5.1 0 3.6-.5 8.5-1.8 11-1 2-2.5 2.5-4.4 2.5-1.2 0-2.6-.2-3.6-.5l-.4-2.3c1.3.4 2.9.7 3.8.7 1.1 0 2.1-.2 2.8-1.6 1-2.1 1.5-6.2 1.5-9.5 0-2.9-1.3-3.4-3.3-3.4-.8 0-2.1.1-3.5.2-1.1 4.4-3.2 11.2-6.4 16.5l-2.3-.9c3.1-4.2 5.4-11.3 6.5-15.3-1.7.2-3.2.3-4.1.4-.7.1-1.9.2-2.7.3l-.2-2.4c.9.1 1.7 0 2.6 0 1 0 2.9-.2 4.8-.3.4-2.2.8-4.6.8-6.7l2.5.2zm10.5 3.3c1.9 2.4 4.6 8 5.7 10.9l-2.1 1.1c-.9-3.1-3.4-8.5-5.5-11l1.9-1zM176.2 95.6c2.2-.7 7.2-2.5 10.8-2.5 4.2 0 7.4 2.6 7.4 6.6 0 6-5.8 8.8-13.9 9.3l-.9-2.1c6.6-.2 12.5-2.1 12.5-7.2 0-2.6-2.1-4.6-5.3-4.6-3.8 0-10.6 2.8-12.5 3.6l-.9-2.3c.9-.3 1.8-.5 2.8-.8zM213.6 90.3c-2 .4-4.3.8-6.4 1.1-.3 1.3-.6 2.8-1 4.1-1.1 4.4-3.2 10.7-4.8 14l-2.4-.8c1.8-3.2 4-9.3 5.1-13.7.3-1 .6-2.2.8-3.4-1.1.1-2.1.1-3 .1-1.3 0-2.4-.1-3.5-.1l-.1-2.2c1.4.2 2.5.2 3.6.2 1 0 2.1-.1 3.3-.2.2-1.2.4-2.2.5-2.8.1-.8.2-1.8.1-2.4l2.7.2c-.2.6-.4 1.8-.5 2.4l-.5 2.5c2-.3 4.1-.6 6-1.1l.1 2.1zm-1.4 10.8c-.3 1-.5 2-.5 2.8 0 1.5.7 2.9 5.2 2.9 2 0 4.1-.2 5.9-.6l-.1 2.2c-1.6.2-3.7.4-5.9.4-4.8 0-7.3-1.5-7.3-4.5 0-1.1.2-2.2.4-3.5l2.3.3zm-.6-7.4c1.6-.1 3.6-.2 5.5-.2 1.8 0 3.6.1 5.3.3l-.1 2.1c-1.6-.2-3.4-.4-5.1-.4-1.9 0-3.8.1-5.6.3v-2.1zM232.3 106.4c0-1.4 1.1-2.3 2.3-2.3 1.3 0 2.3.9 2.3 2.3 0 1.5-1.1 2.3-2.3 2.3-1.2 0-2.3-.9-2.3-2.3zm.7-17.5l-.1-3.5h3.3l-.1 3.5-.7 12.2h-1.8l-.6-12.2z"/></g></svg>