<svg version="1.1" id="レイヤー_1" xmlns="http://www.w3.org/2000/svg" xmlns:xlink="http://www.w3.org/1999/xlink" x="0" y="0" viewBox="0 0 355 355" xml:space="preserve"><style>.st1{fill:#3ad}.st3{fill:#fce2c4}.st4{fill:#fff}.st6{fill:#e95513}.st9{fill:#dadf00}.st26{fill:#f9f9fa}.st27{fill:#6a3906}.st28{fill:none;stroke:#b28146;stroke-width:3.8192;stroke-linecap:round;stroke-miterlimit:10}.st31{fill:#b28146}</style><defs><circle id="SVGID_1_" cx="177.5" cy="182.1" r="167.9"/></defs><clipPath id="SVGID_2_"><use xlink:href="#SVGID_1_" overflow="visible"/></clipPath><g clip-path="url(#SVGID_2_)"><path class="st1" d="M386.4-2.6c48.6 0 127.9 33.3 170.4 47.7 28.8 9.8 41.2 43.1 28.1 71.2-13.1 28.1-40.5 37.9-67.3 38.6-34.2.8-63.8-7.7-106.9-7.1-22.2.3-61.8 5.5-80.2 12.5-4.9 1.8-12 8-17.4 4-6.6-4.9-4.9-13.8-4.9-13.8l-290.3.2S6.4-9.9 79.9-3.8c62.4 5.1 282.3 1.2 306.5 1.2z"/><ellipse class="st1" cx="302.4" cy="167.6" rx="6" ry="5.1"/><ellipse class="st1" cx="288.9" cy="178" rx="4.8" ry="4.1"/></g><g><defs><circle id="SVGID_3_" cx="177.5" cy="177.5" r="167.9"/></defs><clipPath id="SVGID_4_"><use xlink:href="#SVGID_3_" overflow="visible"/></clipPath><g clip-path="url(#SVGID_4_)"><path class="st3" d="M177.5 251.3h-17.1s-7.9 65.7-58.5 113l38.6 178.9h57L236 364.4c-50.6-47.4-58.5-113.1-58.5-113.1z"/><path class="st3" d="M101.8 364.4s-10.3 44-24.1 112.7l-13.9 68.7 23.5 3.4 36.5-173.6-22-11.2zM237.1 364.4s10.3 44 24.1 112.7l13.9 68.7-23.5 3.4-36.5-173.6 22-11.2z"/><path class="st4" d="M244.3 364.4l-43.7-56.9h-63.2l-44.1 56.9-20.8 95 36 20.2 9-29.3 10.2 92.9h82.2l10.1-92.9 9.1 29.3 36-20.2z"/><defs><path id="SVGID_5_" d="M200.6 307.5h-63.2l-19.9 142.8 10.2 92.9h82.2l10.1-92.9z"/></defs><clipPath id="SVGID_6_"><use xlink:href="#SVGID_5_" overflow="visible"/></clipPath><g clip-path="url(#SVGID_6_)"><path class="st6" d="M116.6 354.1h102.2v6.3H116.6zM116.6 339.9h102.2v6.3H116.6zM116.6 325.7h102.2v6.3H116.6zM116.6 311.5h102.2v6.3H116.6zM116.6 368.4h102.2v6.3H116.6zM116.6 382.6h102.2v6.3H116.6zM116.6 396.8h102.2v6.3H116.6zM116.6 411h102.2v6.3H116.6zM116.6 425.2h102.2v6.3H116.6zM116.6 439.5h102.2v6.3H116.6zM116.6 453.7h102.2v6.3H116.6zM116.6 467.9h102.2v6.3H116.6zM116.6 482.1h102.2v6.3H116.6zM116.6 496.3h102.2v6.3H116.6zM116.6 510.5h102.2v6.3H116.6zM116.6 524.8h102.2v6.3H116.6zM116.6 539h102.2v6.3H116.6z"/></g><g><defs><path id="SVGID_7_" d="M130.6 315.9l-37.3 48.5-20.8 95 36 20.2 9-29.3z"/></defs><clipPath id="SVGID_8_"><use xlink:href="#SVGID_7_" overflow="visible"/></clipPath><g clip-path="url(#SVGID_8_)"><path transform="rotate(-60.066 44.153 514.783)" class="st6" d="M41 463.7h6.3v102.2H41z"/><path transform="rotate(-60.066 136.358 354.614)" class="st6" d="M133.2 303.5h6.3v102.2h-6.3z"/><path transform="rotate(-60.066 129.242 366.928)" class="st6" d="M126.1 315.8h6.3V418h-6.3z"/><path transform="rotate(-60.066 122.212 379.296)" class="st6" d="M119.1 328.2h6.3v102.2h-6.3z"/><path transform="rotate(-60.066 115.095 391.61)" class="st6" d="M111.9 340.5h6.3v102.2h-6.3z"/><path transform="rotate(-60.066 107.979 403.925)" class="st6" d="M104.8 352.8h6.3V455h-6.3z"/><path transform="rotate(-60.066 100.862 416.242)" class="st6" d="M97.7 365.1h6.3v102.2h-6.3z"/><path transform="rotate(-60.066 93.746 428.558)" class="st6" d="M90.6 377.5h6.3v102.2h-6.3z"/><path transform="rotate(-60.066 86.715 440.927)" class="st6" d="M83.6 389.8h6.3V492h-6.3z"/><path transform="rotate(-60.066 79.6 453.24)" class="st6" d="M76.4 402.1h6.3v102.2h-6.3z"/><path transform="rotate(-60.066 72.483 465.556)" class="st6" d="M69.3 414.5h6.3v102.2h-6.3z"/><path transform="rotate(-60.066 65.366 477.872)" class="st6" d="M62.2 426.8h6.3V529h-6.3z"/><path transform="rotate(-60.066 58.299 490.104)" class="st6" d="M55.1 439h6.3v102.2h-6.3z"/><path transform="rotate(-60.066 51.27 502.467)" class="st6" d="M48.1 451.4h6.3v102.2h-6.3z"/></g></g><g><defs><path id="SVGID_9_" d="M207.3 315.9l37.2 48.5 20.9 95-36 20.2-9.1-29.3z"/></defs><clipPath id="SVGID_10_"><use xlink:href="#SVGID_9_" overflow="visible"/></clipPath><g clip-path="url(#SVGID_10_)"><path transform="rotate(-29.934 293.792 514.709)" class="st6" d="M242.7 511.6h102.2v6.3H242.7z"/><path transform="rotate(-29.934 201.491 354.552)" class="st6" d="M150.4 351.4h102.2v6.3H150.4z"/><path transform="rotate(-29.934 208.629 366.94)" class="st6" d="M157.5 363.8h102.2v6.3H157.5z"/><path transform="rotate(-29.934 215.719 379.237)" class="st6" d="M164.6 376.1h102.2v6.3H164.6z"/><path transform="rotate(-29.934 222.806 391.54)" class="st6" d="M171.7 388.4h102.2v6.3H171.7z"/><path transform="rotate(-29.934 229.894 403.839)" class="st6" d="M178.8 400.7H281v6.3H178.8z"/><path transform="rotate(-29.934 236.983 416.138)" class="st6" d="M185.9 413h102.2v6.3H185.9z"/><path transform="rotate(-29.934 244.121 428.525)" class="st6" d="M193 425.4h102.2v6.3H193z"/><path transform="rotate(-29.934 251.212 440.821)" class="st6" d="M200.1 437.7h102.2v6.3H200.1z"/><path transform="rotate(-29.934 258.299 453.124)" class="st6" d="M207.2 450h102.2v6.3H207.2z"/><path transform="rotate(-29.934 265.387 465.424)" class="st6" d="M214.3 462.3h102.2v6.3H214.3z"/><path transform="rotate(-29.934 272.476 477.723)" class="st6" d="M221.4 474.6h102.2v6.3H221.4z"/><path transform="rotate(-29.934 279.616 490.107)" class="st6" d="M228.5 487h102.2v6.3H228.5z"/><path transform="rotate(-29.934 286.703 502.41)" class="st6" d="M235.6 499.3h102.2v6.3H235.6z"/></g></g><g><path class="st9" d="M136.4 303.6l-45.5 60.8L48 545.3l44.2 7.1 25.3-102.1 10.2 92.9h15.9L167.1 323c-12.4 1.8-24.8-7.3-30.7-19.4z"/><defs><path id="SVGID_11_" d="M143.6 314.7l-10.9 75.1 48.8 179.4 42.2-14.9-26.6-101.8 53.4 76.8 14-7.6L179.9 317c-10 7.7-25.3 5.6-36.3-2.3z"/></defs><clipPath id="SVGID_12_"><use xlink:href="#SVGID_11_" overflow="visible"/></clipPath><ellipse transform="rotate(-14.28 161.985 294.997)" cx="162" cy="295" rx="34.5" ry="38.2" clip-path="url(#SVGID_12_)" fill="none" stroke="#fff" stroke-width="1.91" stroke-miterlimit="10"/><defs><path id="SVGID_13_" d="M136.4 303.6l-45.5 60.8L48 545.3l44.2 7.1 25.3-102.1 10.2 92.9h15.9L167.1 323c-12.4 1.8-24.8-7.3-30.7-19.4z"/></defs><clipPath id="SVGID_14_"><use xlink:href="#SVGID_13_" overflow="visible"/></clipPath><path clip-path="url(#SVGID_14_)" fill="none" stroke="#fff" stroke-width="1.91" stroke-miterlimit="10" d="M119.8 521.6h32.4v23.7h-32.4z"/><g><defs><path id="SVGID_15_" d="M136.4 303.6l-45.5 60.8L48 545.3l44.2 7.1 25.3-102.1 10.2 92.9h15.9L167.1 323c-12.4 1.8-24.8-7.3-30.7-19.4z"/></defs><clipPath id="SVGID_16_"><use xlink:href="#SVGID_15_" overflow="visible"/></clipPath><path clip-path="url(#SVGID_16_)" fill="none" stroke="#fff" stroke-width="1.91" stroke-miterlimit="10" d="M132.5 521.6v23.7"/></g><g><defs><path id="SVGID_17_" d="M136.4 303.6l-45.5 60.8L48 545.3l44.2 7.1 25.3-102.1 10.2 92.9h15.9L167.1 323c-12.4 1.8-24.8-7.3-30.7-19.4z"/></defs><clipPath id="SVGID_18_"><use xlink:href="#SVGID_17_" overflow="visible"/></clipPath><path clip-path="url(#SVGID_18_)" fill="none" stroke="#fff" stroke-width="1.91" stroke-miterlimit="10" d="M138.8 521.6v23.7"/></g><path class="st9" d="M201.5 303.6l45.5 60.8 43 180.9-44.2 7.1-25.3-102.1-10.2 92.9h-15.9L170.9 323c12.3 1.8 24.7-7.3 30.6-19.4z"/><g><defs><path id="SVGID_19_" d="M156.1 313.3L81 324.2l-179.4-48.8 14.9-42.2 101.8 26.6-76.8-53.4 7.6-14L153.8 277c-7.6 10.1-5.4 25.3 2.3 36.3z"/></defs><clipPath id="SVGID_20_"><use xlink:href="#SVGID_19_" overflow="visible"/></clipPath><ellipse transform="rotate(-75.724 175.919 295.003)" cx="175.9" cy="295" rx="38.2" ry="34.5" clip-path="url(#SVGID_20_)" fill="none" stroke="#fff" stroke-width="1.91" stroke-miterlimit="10"/><defs><path id="SVGID_21_" d="M201.5 303.6l45.5 60.8 43 180.9-44.2 7.1-25.3-102.1-10.2 92.9h-15.9L170.9 323c12.3 1.8 24.7-7.3 30.6-19.4z"/></defs><clipPath id="SVGID_22_"><use xlink:href="#SVGID_21_" overflow="visible"/></clipPath><path clip-path="url(#SVGID_22_)" fill="none" stroke="#fff" stroke-width="1.91" stroke-miterlimit="10" d="M199.6 521.6v23.7"/><defs><path id="SVGID_23_" d="M201.5 303.6l45.5 60.8 43 180.9-44.2 7.1-25.3-102.1-10.2 92.9h-15.9L170.9 323c12.3 1.8 24.7-7.3 30.6-19.4z"/></defs><clipPath id="SVGID_24_"><use xlink:href="#SVGID_23_" overflow="visible"/></clipPath><path clip-path="url(#SVGID_24_)" fill="none" stroke="#fff" stroke-width="1.91" stroke-miterlimit="10" d="M205.9 521.6v23.7"/><defs><path id="SVGID_25_" d="M201.5 303.6l45.5 60.8 43 180.9-44.2 7.1-25.3-102.1-10.2 92.9h-15.9L170.9 323c12.3 1.8 24.7-7.3 30.6-19.4z"/></defs><clipPath id="SVGID_26_"><use xlink:href="#SVGID_25_" overflow="visible"/></clipPath><path clip-path="url(#SVGID_26_)" fill="none" stroke="#fff" stroke-width="1.91" stroke-miterlimit="10" d="M183 521.6h32.4v23.7H183z"/><g><defs><path id="SVGID_27_" d="M201.5 303.6l45.5 60.8 43 180.9-44.2 7.1-25.3-102.1-10.2 92.9h-15.9L170.9 323c12.3 1.8 24.7-7.3 30.6-19.4z"/></defs><clipPath id="SVGID_28_"><use xlink:href="#SVGID_27_" overflow="visible"/></clipPath><circle cx="196.1" cy="513.3" r="2.8" clip-path="url(#SVGID_28_)" fill="#f7f7f7"/></g><g><defs><path id="SVGID_29_" d="M201.5 303.6l45.5 60.8 43 180.9-44.2 7.1-25.3-102.1-10.2 92.9h-15.9L170.9 323c12.3 1.8 24.7-7.3 30.6-19.4z"/></defs><clipPath id="SVGID_30_"><use xlink:href="#SVGID_29_" overflow="visible"/></clipPath><circle cx="192.9" cy="479.3" r="2.8" clip-path="url(#SVGID_30_)" fill="#f7f7f7"/></g><g><defs><path id="SVGID_31_" d="M201.5 303.6l45.5 60.8 43 180.9-44.2 7.1-25.3-102.1-10.2 92.9h-15.9L170.9 323c12.3 1.8 24.7-7.3 30.6-19.4z"/></defs><clipPath id="SVGID_32_"><use xlink:href="#SVGID_31_" overflow="visible"/></clipPath><circle cx="188.9" cy="443" r="2.8" clip-path="url(#SVGID_32_)" fill="#f7f7f7"/></g><g><defs><path id="SVGID_33_" d="M201.5 303.6l45.5 60.8 43 180.9-44.2 7.1-25.3-102.1-10.2 92.9h-15.9L170.9 323c12.3 1.8 24.7-7.3 30.6-19.4z"/></defs><clipPath id="SVGID_34_"><use xlink:href="#SVGID_33_" overflow="visible"/></clipPath><circle cx="185.8" cy="405.9" r="2.8" clip-path="url(#SVGID_34_)" fill="#f7f7f7"/></g><g><defs><path id="SVGID_35_" d="M201.5 303.6l45.5 60.8 43 180.9-44.2 7.1-25.3-102.1-10.2 92.9h-15.9L170.9 323c12.3 1.8 24.7-7.3 30.6-19.4z"/></defs><clipPath id="SVGID_36_"><use xlink:href="#SVGID_35_" overflow="visible"/></clipPath><circle cx="181.1" cy="366.4" r="2.8" clip-path="url(#SVGID_36_)" fill="#f7f7f7"/></g><g><defs><path id="SVGID_37_" d="M201.5 303.6l45.5 60.8 43 180.9-44.2 7.1-25.3-102.1-10.2 92.9h-15.9L170.9 323c12.3 1.8 24.7-7.3 30.6-19.4z"/></defs><clipPath id="SVGID_38_"><use xlink:href="#SVGID_37_" overflow="visible"/></clipPath><circle cx="176.3" cy="327.7" r="2.8" clip-path="url(#SVGID_38_)" fill="#f7f7f7"/></g></g><g><defs><path id="SVGID_40_" d="M244.2 364.4l-53.3-72.6h-1.7c-3.3 8.8-37.4 8.8-40.8 0h-1.7l-53.4 72.6-20.8 95 36 20.3 9-29.3 10.2 92.9h82.1l10.2-92.9 9 29.3 36-20.3-20.8-95z"/></defs><clipPath id="SVGID_41_"><use xlink:href="#SVGID_40_" overflow="visible"/></clipPath><path clip-path="url(#SVGID_41_)" fill="none" stroke="#fff" stroke-width="1.91" stroke-miterlimit="10" d="M117.5 449.5L104 387.3"/><g><defs><path id="SVGID_42_" d="M244.2 364.4l-53.3-72.6h-1.7c-3.3 8.8-37.4 8.8-40.8 0h-1.7l-53.4 72.6-20.8 95 36 20.3 9-29.3 10.2 92.9h82.1l10.2-92.9 9 29.3 36-20.3-20.8-95z"/></defs><clipPath id="SVGID_43_"><use xlink:href="#SVGID_42_" overflow="visible"/></clipPath><path clip-path="url(#SVGID_43_)" fill="none" stroke="#fff" stroke-width="1.91" stroke-miterlimit="10" d="M220.2 449.5l13.4-62.2"/></g></g></g><g><path class="st3" d="M246.7 208.5c0 42-35.2 76.1-78.5 76.1-43.4 0-78.5-34.1-78.5-76.1s35.2-83 78.5-83c43.3-.1 78.5 40.9 78.5 83z"/><path class="st26" d="M148.2 225.9c.1 3.6-2.3 10.2-10.2 11-6.8.7-13.2-3.4-14.1-9.4s3.2-11.1 10.8-12.2c7.7-1.2 13.2 4.5 13.5 10.6z"/><ellipse class="st27" cx="136.4" cy="223.1" rx="8.2" ry="8"/><circle class="st4" cx="133.1" cy="220.9" r="2"/><path class="st26" d="M188.1 225.9c-.1 3.6 2.3 10.2 10.2 11 6.8.7 13.2-3.4 14.1-9.4.9-6-3.2-11.1-10.8-12.2-7.7-1.2-13.2 4.5-13.5 10.6z"/><ellipse class="st27" cx="199.9" cy="223.1" rx="8.2" ry="8"/><circle class="st4" cx="196.5" cy="220.9" r="2"/><path class="st28" d="M122.2 207.3c2.7-1.9 6.3-3.1 10.4-3.1 4.1 0 7.7 1.2 10.4 3.2M213.6 207.3c-2.7-1.9-6.3-3.1-10.4-3.1-4.1 0-7.7 1.2-10.4 3.2"/><path d="M151.1 248.3c2.7 6.9 9.3 11.8 17 11.8 7.8 0 14.4-4.9 17-11.8-5 1.6-10.8 2.5-17 2.5-6.2 0-12-.9-17-2.5z" fill="#d36267"/><path fill="none" stroke="#d36267" stroke-width="2.864" stroke-linecap="round" stroke-miterlimit="10" d="M168.1 234.9v4"/></g><g><path class="st3" d="M98.3 205s-21.4-2.8-20.5 7.5c1.6 18.3 9.8 26.4 18.4 26.3h4.9L98.3 205zM238.5 205s21.4-2.8 20.5 7.5c-1.5 18.3-9.8 26.4-18.4 26.3h-4.9l2.8-33.8z"/><path class="st31" d="M168.9 153.7c35.6 0 64.5 21.5 77.3 52.1h8.1c-.9-45.9-38.8-82.9-85.4-82.9s-84.5 37-85.4 82.9h8.1c12.8-30.6 41.8-52.1 77.3-52.1z"/><path class="st31" d="M260.2 213.5c-2.6-16.1-4.1-21.7-4.6-23.2-11.7-46.6-55.5-87.3-115.5-66-60 21.2 49 45.8 49 45.8l38.7 29.2s6.4 68.7-31.5 79.8c0 0 10.1 1 20.8-1.2 5.9-1.1 14-3.1 24.9-6.7 28.5-9.5 21.8-35.7 18.2-57.7z"/><path class="st31" d="M116.5 256.2c-15-35.5-.1-73.8 7.8-88.9 14.1-11.6 21.4-13.8 21.4-13.8l-22.1-16.6s-27.6-.8-41.1 62.4c-1.7 7.8-3 14.8-3.7 21.2-.9 5.7-1.8 13.7-1.8 21.5 0 18.2 10.3 28.4 18.2 30.8 12.3 3.7 7.1 2.4 20.5 4.7 4.1.7 7.3 1.1 9.7 1.4 8.7 1.4 13.2.2 13.2.2s-16.6-7.1-22.1-22.9z"/><path class="st31" d="M122 164.6s6.4 18.1 19 26.1c17.4 11.1 72.6 10.6 84.5 9.5 8.7-.8 16.6-2.4 16.6-2.4s-19-38.7-44.2-46.6c-25.3-8-60.9 5.5-75.9 13.4z"/></g></g></g><g><circle id="SVGID_39_" cx="177.5" cy="177.5" r="167.9" fill="none" stroke="#3ad" stroke-width="14" stroke-miterlimit="10"/></g><g><path class="st4" d="M174.3 52.5c3.7 1 5.9 3.8 5.9 7 0 4.3-2.9 7.9-9.8 8.9l-1.2-1.8c5.3-.5 8.8-3.2 8.8-7.2 0-2.3-1.5-4.5-4.4-5.2-1.7 4.2-4.1 7.5-6.7 9.7.2.8.4 1.7.7 2.4l-2 .6c-.2-.5-.3-1.1-.5-1.7-1.7 1-3.5 1.7-5.1 1.7-2 0-3.4-1.2-3.4-3.7 0-3.8 3.5-7.7 7.5-9.5.1-1.5.2-3.1.4-4.5h-2c-1.2 0-3.5-.1-4.7-.2v-2.1c1 .2 3.6.4 4.8.4h2.1c.1-.9.2-1.7.3-2.4 0-.5.1-1 .1-1.3l2.3.1c-.1.3-.2.9-.3 1.3-.1.6-.3 1.4-.4 2.3 3.8-.1 7.4-.5 10.5-1.1v2c-3.1.5-7.1.9-10.7 1-.1 1.2-.2 2.5-.3 3.8 1.7-.5 3.6-.8 5.1-.8.4 0 .8 0 1.2.1l.1-.5c.1-.4.2-1.1.3-1.5l2.2.5c-.2.4-.4 1.1-.6 1.5l-.2.2zm-10.2 3.1c-3 1.6-5.3 4.7-5.4 7.2 0 1.3.6 1.9 1.7 1.9 1.2 0 2.7-.5 4.3-1.6-.4-2.1-.7-4.5-.7-6.7l.1-.8zm7.6-1.8h-.6c-1.9 0-3.7.4-5.1.9v1.4c0 1.9.2 3.7.5 5.5 2-1.9 3.9-4.4 5.2-7.8zM188 54.7c2.1-.7 7-2.4 10.5-2.4 4.1 0 7.1 2.5 7.1 6.5 0 5.8-5.7 8.5-13.5 8.9l-.8-2.1c6.4-.2 12.1-1.9 12.1-6.9 0-2.5-2-4.5-5.1-4.5-3.7 0-10.3 2.7-12.1 3.3l-.9-2.3c.9 0 1.8-.2 2.7-.5zM75.4 95.3c-.4 1.2-.6 2.3-.6 3.4 0 2.3 2.3 3.9 7.1 4 4.1 0 8-.4 10.1-1.1v2.3c-2.1.6-5.9 1-10.1 1-5.9 0-9.4-2-9.4-5.7 0-1.5.4-2.9.6-4.1l2.3.2zm-.9-11.8c2.1.3 4.9.4 7.8.5 2.8 0 5.8-.2 7.9-.4v2.2c-2 .1-5.2.3-7.9.3-3 0-5.5-.2-7.8-.4v-2.2zM123.8 102.2c-1.6 1.6-3.5 2.5-5.5 2.5-1.9 0-3.2-1.3-3.2-3.7 0-3.3 1.2-8.3 1.2-11.2 0-1.8-.9-2.5-2.4-2.5-2.4 0-6.1 2.7-8.9 5.7-.1 1.3-.1 2.5-.2 3.6 0 2.8-.1 4.5 0 7.1 0 .5.1 1.2.1 1.7h-2.3c0-.4.1-1.2.1-1.7 0-2.9.1-4.3.1-7.4 0-.4 0-1 .1-1.7-1.5 2.2-3.6 5.1-5.1 7.2l-1.3-1.9c1.7-2.1 5.2-6.8 6.7-9.1.1-1 .2-2.1.2-3.1-1.3.2-3.9.5-5.9.8l-.2-2.2h1.8c1-.1 2.8-.2 4.4-.5.1-1.4.2-2.5.2-2.9 0-.7 0-1.4-.1-2.1l2.6.1c-.2.7-.4 2.4-.6 4.5l.2-.1.8 1c-.4.5-.9 1.3-1.3 2-.1.6-.1 1.3-.2 1.9 2.3-2.1 6.2-5 9.2-5 2.7 0 4.1 1.6 4.1 4 0 3-1.2 8.2-1.2 11.2 0 1 .5 1.9 1.6 1.9 1.6 0 3.2-1 4.6-2.5l.4 2.4zM139.6 86.7c3.2 3.8 8.5 7.1 13.2 8.7-.5.5-.9 1.2-1.2 1.7-2.1-.9-4.3-2-6.5-3.4v1.4l-12.4-.1v-1.3c-2.1 1.4-4.4 2.7-6.8 3.7-.2-.5-.7-1.1-1.1-1.6 5.2-2 10.2-5.6 12.8-8.8-.4-.3-.8-.6-1.1-.8 2-1.6 3.7-4.1 4.7-6.8l1.9.5c-.3.9-.7 1.7-1.2 2.6l10.3.1v1.7l-6.7-.1c.8 1.1 1.6 2.4 2 3.4l-1.9.6c-.4-1.1-1.4-2.7-2.3-4.1h-2.5c-.6.9-1.3 1.8-2.1 2.5l.9.1zm-10.1-2.6c-.9 1.6-2 3.1-3 4.2-.3-.3-1.2-.8-1.6-1.1 2-1.9 3.8-4.9 4.8-7.9l1.9.5c-.3.9-.7 1.7-1.1 2.6l7.8.1v1.7h-5.4c.7 1.2 1.3 2.6 1.6 3.5l-1.8.6c-.3-1.1-1.1-2.8-1.8-4.1l-1.4-.1zm.7 13.6l17.2.1-.1 9.3h-2v-.9l-13.4-.1v1H130l.2-9.4zm1.9 1.7v4.9l13.4.1v-4.9l-13.4-.1zm12.5-6c-2.3-1.5-4.4-3.2-5.8-4.9-1.3 1.6-3.3 3.3-5.5 4.8l11.3.1zM170.4 91.3c-1.1 1-4.5 4.1-5.7 5.4.3 0 .8 0 1.1.1 1.2.1 1.9.9 2.4 2.1.3.9.7 2.5 1 3.5.3 1.2 1 1.7 2.6 1.7 1.9 0 4.2-.2 5.6-.6l-.2 2.3c-1.2.2-3.9.4-5.5.4-2.3 0-3.8-.6-4.4-2.6-.3-.9-.7-2.7-1-3.5-.4-1.1-.9-1.6-1.8-1.6-.8 0-1.5.4-2.2 1-1.1 1-4.6 4.6-6.2 6.6l-2.1-1.4c.3-.3.9-.7 1.4-1.2 1.1-1.1 9.7-9.5 12.6-12.4-2.4.1-7.6.6-9.5.7-.9.1-1.7.1-2.3.2l-.2-2.4c.7.1 1.5.1 2.5.1 1.8 0 8.7-.5 10.9-.7.5-.1 1.1-.2 1.4-.3L172 90c-.5.4-1.2 1-1.6 1.3zm1.2-8.1l-.3 2c-2.9-.3-8.1-1-11.7-1.7l.3-2c3.2.8 8.9 1.6 11.7 1.7zM183.9 95.7c2.9-2.6 6.2-3.7 9.8-3.6 4.4 0 7.5 2.7 7.4 6.2 0 5.3-4.9 8.7-15.7 7.8l-.6-2.2c9.4 1.2 14-1.5 14.1-5.7 0-2.4-2.2-4.2-5.3-4.2-4.1 0-7.2 1.4-9.4 3.9-.4.5-.7 1-.9 1.5l-2-.5c.6-2.7 1.4-9 1.6-12l2.3.3c-.4 2.1-1 6.6-1.3 8.5zM186 82c2.5.8 8.8 2.1 11.4 2.4l-.5 2.1c-2.8-.4-9.2-1.8-11.4-2.4l.5-2.1zM233 103.1c-1.6 1.6-3.5 2.5-5.5 2.5-1.9 0-3.2-1.3-3.2-3.7 0-3.3 1.2-8.3 1.2-11.2 0-1.8-.9-2.5-2.4-2.5-2.4 0-6.1 2.7-8.9 5.7-.1 1.3-.1 2.5-.2 3.6 0 2.8-.1 4.5 0 7.1 0 .5.1 1.2.1 1.7h-2.3c0-.4.1-1.2.1-1.7 0-2.9.1-4.3.1-7.4 0-.4 0-1 .1-1.7-1.5 2.2-3.6 5.1-5.1 7.2l-1.3-1.9c1.7-2.1 5.2-6.8 6.7-9.1.1-1 .2-2.1.2-3.1-1.3.2-3.9.5-5.9.8l-.2-2.2h1.8c1-.1 2.8-.2 4.4-.5.1-1.4.2-2.5.2-2.9 0-.7 0-1.4-.1-2.1l2.6.1c-.2.7-.4 2.4-.6 4.5l.2-.1.8 1c-.4.5-.9 1.3-1.3 2-.1.6-.1 1.3-.2 1.9 2.3-2.1 6.2-5 9.2-5 2.7 0 4.1 1.6 4.1 4 0 3-1.2 8.2-1.2 11.2 0 1 .5 1.9 1.6 1.9 1.6 0 3.2-1 4.6-2.5l.4 2.4zM254.5 85c-.5.4-1.1.8-1.6 1.1-1.4 1.1-5.6 4.7-8 6.7 1.4-.5 2.9-.6 4.3-.6 4.9 0 8.4 3 8.4 7 0 4.8-4.1 7.8-10.2 7.7-4 0-6.4-1.8-6.4-4.2 0-1.9 1.8-3.8 4.5-3.7 3.7 0 5.6 2.6 6 5.4 2.5-.9 3.9-2.7 3.9-5.2 0-3-2.9-5.2-6.7-5.2-4.9 0-7.6 2-11.5 5.8l-1.5-1.6c2.5-2 6.4-5.3 8.2-6.7 1.7-1.4 5.5-4.5 7-5.9-1.6 0-7.8.3-9.3.3-.7.1-1.3.1-1.9.2v-2.2c.6.1 1.4.1 2 .1 1.5 0 8.7-.2 10.2-.3.8-.1 1.2-.1 1.5-.2l1.1 1.5zm-4.9 19.8c-.3-2.4-1.7-4.1-4.1-4.1-1.4 0-2.5.8-2.5 1.9 0 1.5 1.8 2.4 4.1 2.4.9-.1 1.7-.1 2.5-.2zM267.1 103.8c0-1.3 1.1-2.2 2.3-2.2 1.2 0 2.3.9 2.3 2.2 0 1.4-1.1 2.2-2.3 2.2-1.3.1-2.3-.8-2.3-2.2zm.8-16.9v-3.4h3.2l-.1 3.4-.8 11.9h-1.8l-.5-11.9zM278.3 103.9c0-1.3 1.1-2.2 2.3-2.2 1.2 0 2.3.9 2.3 2.2 0 1.4-1.1 2.2-2.3 2.2-1.2.1-2.3-.8-2.3-2.2zm.9-16.9v-3.4h3.2l-.1 3.4-.8 11.9h-1.8l-.5-11.9z"/></g></svg>