<svg version="1.1" id="レイヤー_1" xmlns="http://www.w3.org/2000/svg" xmlns:xlink="http://www.w3.org/1999/xlink" x="0" y="0" viewBox="0 0 355 355" xml:space="preserve"><style>.st1{fill:#e69e3a}.st3{fill:#fce2c4}.st9{fill:#b4b4b5}.st10{fill:#3e3a39}.st13,.st14,.st15{fill:none;stroke:#231815;stroke-width:2;stroke-linecap:round;stroke-miterlimit:10}.st14,.st15{stroke:#212321;stroke-width:4}.st15{stroke:#d36267;stroke-width:3}.st16{fill:#f9f9fa}.st17{fill:#2a2b2b}.st18{fill:#fff}.st19{fill:#231815}</style><defs><circle id="SVGID_1_" cx="177.5" cy="177.5" r="167.9"/></defs><clipPath id="SVGID_2_"><use xlink:href="#SVGID_1_" overflow="visible"/></clipPath><g clip-path="url(#SVGID_2_)"><path class="st1" d="M377.2-1.1c48.6 0 127.9 33.3 170.4 47.7 28.8 9.8 41.2 43.1 28.1 71.2-13.1 28.1-40.5 37.9-67.3 38.6-34.2.8-63.8-7.7-106.9-7.1-22.2.3-61.8 5.5-80.2 12.5-4.9 1.8-12 8-17.4 4-6.6-4.9-4.9-13.8-4.9-13.8l-290.4.1S-2.9-8.5 70.6-2.4c62.5 5.1 282.3 1.3 306.6 1.3z"/><ellipse class="st1" cx="294.4" cy="172.5" rx="6" ry="5.1"/><ellipse class="st1" cx="280.8" cy="183" rx="4.8" ry="4.1"/></g><defs><circle id="SVGID_4_" cx="177.5" cy="177.5" r="167.9"/></defs><clipPath id="SVGID_5_"><use xlink:href="#SVGID_4_" overflow="visible"/></clipPath><g clip-path="url(#SVGID_5_)"><path class="st3" d="M186.6 259.6h-16.8s-7.7 64.4-57.4 110.7l37.8 175.2H206l38-175.2c-49.6-46.4-57.4-110.7-57.4-110.7z"/><path class="st3" d="M112.5 370.3s-10 43.1-23.6 110.4L75.3 548l23 3.4L134 381.3l-21.5-11zM245 370.3s10 43.1 23.6 110.4l13.6 67.3-23 3.4-35.7-170.1 21.5-11z"/><path d="M252.6 379l-43-61.2c-7.3 6.6-19.1 10.9-32.5 10.9-12.2 0-23.2-3.6-30.6-9.4L104.8 379l-32 178.8 27.1 3.9 28.7-98.5 10 91h80.5l10-91 28.8 98.5 27.1-3.9L252.6 379z" fill="#595757"/><defs><path id="SVGID_6_" d="M252.6 379l-43-61.2c-7.3 6.6-19.1 10.9-32.5 10.9-12.2 0-23.2-3.6-30.6-9.4L104.8 379l-32 178.8 27.1 3.9 28.7-98.5 10 91h80.5l10-91 28.8 98.5 27.1-3.9L252.6 379z"/></defs><clipPath id="SVGID_7_"><use xlink:href="#SVGID_6_" overflow="visible"/></clipPath><path clip-path="url(#SVGID_7_)" fill="#3e3a39" d="M150.1 323.3l-24.3 73.6 3.1 76.2-6.6 98.4-59.4-9.2 37.7-188.9 32.1-49.3z"/><defs><path id="SVGID_8_" d="M252.6 379l-43-61.2c-7.3 6.6-19.1 10.9-32.5 10.9-12.2 0-23.2-3.6-30.6-9.4L104.8 379l-32 178.8 27.1 3.9 28.7-98.5 10 91h80.5l10-91 28.8 98.5 27.1-3.9L252.6 379z"/></defs><clipPath id="SVGID_9_"><use xlink:href="#SVGID_8_" overflow="visible"/></clipPath><path clip-path="url(#SVGID_9_)" fill="#3e3a39" d="M207.4 323.3l24.3 73.6-3.1 76.2 6.6 98.4 59.4-9.2L257 373.4l-32.1-49.3z"/><g><defs><path id="SVGID_10_" d="M252.6 379l-43-61.2c-7.3 6.6-19.1 10.9-32.5 10.9-12.2 0-23.2-3.6-30.6-9.4L104.8 379l-32 178.8 27.1 3.9 28.7-98.5 10 91h80.5l10-91 28.8 98.5 27.1-3.9L252.6 379z"/></defs><clipPath id="SVGID_11_"><use xlink:href="#SVGID_10_" overflow="visible"/></clipPath><ellipse cx="177.2" cy="302" rx="52.3" ry="34.7" clip-path="url(#SVGID_11_)" fill="#3e3a39"/></g><g><defs><path id="SVGID_12_" d="M252.6 379l-43-61.2c-7.3 6.6-19.1 10.9-32.5 10.9-12.2 0-23.2-3.6-30.6-9.4L104.8 379l-32 178.8 27.1 3.9 28.7-98.5 10 91h80.5l10-91 28.8 98.5 27.1-3.9L252.6 379z"/></defs><clipPath id="SVGID_13_"><use xlink:href="#SVGID_12_" overflow="visible"/></clipPath><g clip-path="url(#SVGID_13_)"><path class="st9" d="M149.4 364.5c0-.3.1-.5.4-.7.3-.2.6-.3.9-.4.4-.1.8-.1 1.2-.1h1.1c.3 0 .6.1.8.2.2.1.3.2.4.3.1.1.1.3.1.5 0 .3-.1.4-.2.5-.1.1-.2.2-.2.3 0 .1 0 .2.1.4l.6 1.7c.2.5.4.8.5.8.1 0 .3-.2.4-.6l.3-.9-.4-1.2c-.1-.2-.2-.4-.4-.5-.2-.1-.2-.3-.2-.6s.2-.6.6-.7c.4-.1 1.1-.2 1.9-.2.6 0 1.2.1 1.6.2.4.1.6.3.6.7 0 .3-.1.6-.3.6-.2.1-.3.2-.3.4v.1l.6 1.6c.2.7.4 1 .6 1.1.2-.1.3-.3.5-.9l.5-1.3c.1-.3.1-.5.1-.6 0-.2-.1-.3-.3-.3-.2 0-.3-.3-.4-.7 0-.2.1-.4.3-.5s.4-.3.7-.3c.3-.1.6-.1 1-.1h1c.1 0 .2.1.3.1.3.1.4.3.4.7 0 .4-.1.7-.4.7-.3 0-.6.3-.9.9l-2.7 7c0 .1-.1.2-.1.3-.1.1-.1.2-.2.3-.1.1-.2.2-.3.2-.1.1-.3.1-.5.1s-.4-.1-.6-.2c-.2-.1-.3-.4-.5-.8l-.4-1-.4-1.2-.4-1c-.1-.3-.2-.4-.2-.4-.1 0-.2.2-.3.5-.1.3-.3.6-.4 1.1l-.4 1.2-.3 1c-.1.2-.2.4-.4.6s-.4.3-.6.3c-.3 0-.5-.1-.6-.3-.2-.2-.3-.4-.5-.6l-2.7-7c-.2-.4-.4-.6-.7-.7-.1 0-.3-.2-.3-.6zM180.9 366.8c0 .1.1.3.2.4.1.1.4.1.7.1h.7c.4 0 .7 0 .8-.1.1-.1.1-.2.2-.2v-.8c0-.7-.1-1.1-.4-1.2-.3-.1-.5-.3-.5-.8 0-.3.1-.5.4-.6.3-.1.6-.2.9-.2h1.1c1 0 1.7.1 2.2.2.5.1.7.4.7.7 0 .4-.2.6-.5.7-.4.1-.5.5-.5 1.2v3.7c0 1.4.2 2 .5 2s.4.2.5.7c-.1.5-.3.7-.8.8-.2 0-.4.1-.6.1h-1.3c-.9 0-1.6-.1-2-.2s-.6-.4-.6-.7c0-.4.2-.7.5-.8.3-.1.4-.3.5-.6l.1-1.3c0-.3 0-.5-.1-.6-.1-.1-.3-.2-.7-.2h-1.1c-.3 0-.5.1-.6.2 0 .1 0 .1-.1.2v.5l.1 1.3c0 .3.2.5.4.6.2.1.4.3.4.6s-.2.6-.7.7c-.4.2-1.1.2-2.1.2h-.7c-.1 0-.5-.1-1-.1-.5-.1-.8-.4-.9-.8 0-.4.2-.7.5-.7.4 0 .5-.6.5-1.8v-3.8c0-.8-.2-1.2-.5-1.2s-.5-.2-.5-.6c0-.4.2-.6.7-.8s1.2-.2 2.2-.2c.9 0 1.5.1 1.9.2.4.1.6.4.6.7 0 .4-.2.6-.5.7-.3.1-.4.3-.5.7v1.1zM199.8 364.3c0-.3.1-.5.4-.7.3-.2 1-.3 2.1-.3s1.9.1 2.3.2c.4.2.6.4.6.7 0 .3-.1.5-.2.5s-.2.2-.2.2 0 .2.1.3l.3.4c.1.1.2.3.4.3.2-.1.3-.2.4-.3l.3-.5c0-.1.1-.2.1-.2 0-.1-.1-.2-.2-.3-.1-.1-.2-.3-.2-.6 0-.1 0-.2.1-.3.1-.1.2-.2.3-.2.1-.1.2-.1.3-.2.1 0 .3-.1.4-.1h.9c.8 0 1.4.1 1.6.2.3.2.4.4.4.6 0 .4-.2.7-.5.7s-.7.2-1.1.7l-1.3 1.6c-.3.4-.5.6-.5.8-.1.2-.1.5-.1.8v2.4c0 .2.2.4.5.5.3.1.4.3.5.7 0 .4-.3.7-.8.9-.3.1-.6.1-.9.2s-.7.1-1.2.1h-1.3c-.2 0-.4-.1-.6-.1-.5-.1-.7-.4-.8-.8 0-.4.2-.6.5-.7.3-.1.5-.3.5-.6v-2.3-.4-.2c0-.1-.1-.2-.1-.3 0-.1-.1-.2-.2-.3l-1.5-2c-.4-.4-.7-.6-1-.7-.2 0-.3-.2-.3-.7zM158 376.8c1.6 0 3 .2 4.2.7 1.2.5 2.3 1.4 3.4 2.7 1.1 1.3 1.6 3.1 1.6 5.2 0 1.3-.2 2.4-.6 3.4-.4 1-1 1.9-1.9 2.8-.8.8-1.8 1.5-2.9 1.9-1.1.4-2.3.7-3.7.7-1.5 0-2.8-.2-3.9-.7-1.1-.5-2.3-1.4-3.5-2.8-1.2-1.4-1.8-3.1-1.8-5.2 0-1.2.2-2.3.6-3.4.4-1.1 1.1-2 1.9-2.8s1.8-1.5 2.9-1.9c1-.4 2.3-.6 3.7-.6zm-3.1 6.2c0 .4 0 .9.1 1.3s.1.9.3 1.3c.1.5.3.9.5 1.4.2.5.5 1 .8 1.6.6 1.2 1.5 1.8 2.5 1.9.3 0 .6-.1.8-.2l.6-.6c.1-.3.3-.6.3-.9.1-.3.1-.7.1-1.1 0-1.5-.4-3-1.1-4.6-.7-1.6-1.7-2.5-2.9-2.7-.6 0-1 .2-1.4.7-.4.5-.6 1.1-.6 1.9zM175.8 378.6c0 .7-.2 1-.6 1.2-.4.1-.6.5-.7 1l-.1 1.8c0 .1 0 .1.1.2 0 0 .1.1.2.1s.2.1.3.1c.5-.1 1.1-.6 1.6-1.4l.9-1.6-.3-.6c-.1-.2-.2-.5-.2-.7 0-.5.3-.9.9-1.2.6-.3 1.4-.4 2.5-.4h2c.6 0 1.2.1 1.8.3.6.2 1 .6 1 1.2s-.2 1-.6 1.2c-.4.1-1.1.2-2.1.2-.3.1-.9.5-1.7 1.2-.9.7-1.3 1.5-1.5 2.1.1.2.2.5.3.7.2.3.4.6.7 1 .2.2.3.4.4.5.1.1.2.3.3.4.1.1.2.3.4.5s.4.5.7.8l2.1 2.3 1.8 1.8.7.4c.3.1.4.5.4 1.2 0 .5-.1.9-.4 1s-.5.3-.8.3h-5.4c-.2 0-.4 0-.6-.1-.1 0-.2-.1-.3-.2l-.4-.4c-.2-.2-.4-.5-.6-.8l-1.3-1.7c-.5-.7-.8-1-.8-1.1l-.2-.2-.4-.4c-.3-.3-.6-.5-.8-.6-.2 0-.3.1-.3.2-.1.2-.1.4-.2.6 0 1.3.2 2 .6 2.1.4.1.7.5.8 1.2 0 .5-.2.9-.7 1.1-.2.1-.5.2-.7.2-.3.1-.5.1-.8.1-.3 0-.6.1-1 .1H170c-.1 0-.3 0-.5-.1-.2 0-.5-.1-.9-.1-.7-.1-1.2-.5-1.3-1.3 0-.6.2-1.1.7-1.3s.7-.8.7-1.9l.1-1.3v-5.4l-.2-2.2c0-.4-.3-.6-.7-.8-.4-.2-.6-.5-.7-1.1 0-.6.4-1 1.2-1.3.8-.3 1.9-.4 3.2-.4 1.3 0 2.4.1 3 .3.9.3 1.2.7 1.2 1.2z"/><path class="st9" d="M184.2 379c0-.4.2-.8.6-1.1s.9-.5 1.5-.6c.6-.1 1.3-.2 2.1-.2s1.4 0 1.9.1.9.1 1.3.3.5.3.7.5c.1.2.2.5.2.8 0 .4-.2.7-.3.8-.2.1-.3.3-.3.5 0 .1 0 .3.1.6l1 2.8c.3.9.6 1.3.8 1.4.2 0 .4-.4.7-.9l.5-1.5-.6-2c-.2-.4-.4-.7-.7-.9-.3-.2-.4-.5-.4-1 0-.6.3-1 1-1.2.7-.2 1.8-.3 3.1-.3 1.1 0 1.9.1 2.6.3.6.2 1 .6 1.1 1.2 0 .6-.2.9-.5 1-.3.1-.4.3-.4.6v.2l1 2.7c.4 1.1.7 1.7 1 1.9.3-.1.6-.6.9-1.4l.8-2.1c.1-.4.2-.8.2-1 0-.3-.2-.5-.5-.6-.3-.1-.5-.4-.6-1.2 0-.3.1-.6.4-.9.3-.2.7-.4 1.1-.5s1-.1 1.6-.1h1.3c.1 0 .2 0 .4.1s.4.1.6.2c.5.1.7.5.7 1.2s-.2 1.1-.7 1.2c-.5.1-1 .6-1.4 1.5l-4.5 11.6c0 .1-.1.3-.2.4-.1.2-.2.3-.3.5-.1.2-.3.3-.5.4-.2.1-.5.2-.8.2-.4 0-.7-.1-1-.3-.3-.2-.5-.6-.8-1.3l-.6-1.6-.7-2-.6-1.7c-.2-.5-.3-.7-.4-.7-.1 0-.3.3-.5.8s-.5 1.1-.7 1.8l-.7 2.1-.5 1.6c-.2.4-.4.7-.6 1-.3.3-.6.4-1.1.4-.4 0-.8-.1-1.1-.4-.3-.3-.5-.6-.8-1.1l-4.5-11.6c-.3-.7-.7-1-1.1-1.1-.6-.4-.8-.7-.8-1.4zM161.4 410.8c0-.4-.3-.6-.9-.7-.6-.1-1.1-.1-1.4-.1h-2.3c-.3 0-.6.1-1 .1-.4.1-.5.3-.5.8s.3.8.7.8c.4 0 .7.3.7.9 0 .6-.3 1-.8 1.2l-1.5.3c-.5 0-1 .1-1.6.1-.5 0-.9 0-1.3-.1-.4 0-.8-.1-1.1-.2s-.5-.3-.7-.4c-.2-.2-.3-.4-.3-.7 0-.7.3-1.1 1-1.1.6 0 1.2-.7 1.8-2.1l3.1-7.1c.2-.5.4-1 .5-1.4.1-.4.3-.8.5-1.3.1-.3.1-.5.2-.7 0-.2.1-.4.1-.5l.1-.6s.1-.1.1-.2l.3-.3c.1-.1.3-.2.5-.3.2-.1.5-.1.8-.1h.3c.4 0 .8 0 1.1.1.3.1.5.1.7.2.2.1.4.2.5.3.1.1.3.2.3.3.6.6 1.1 1.3 1.5 2.1.2.4.4.8.6 1.1.2.3.3.6.4.9.1.2.2.5.4.8.1.3.3.6.4.9l1.5 3.5c.2.6.5 1.1.8 1.7.3.5.5 1.1.8 1.6.3.5.7.9 1.2 1 .5.1.7.4.8 1 0 .6-.3 1-1 1.2-.3.1-.6.2-.9.2-.3.1-.6.1-.8.1-.3 0-.6.1-.9.1H162.8c-.6 0-1.3-.1-2-.2s-1-.5-1-1.2c.1-.6.3-.9.7-1 .6-.2.9-.5.9-1zm-.9-3.9c-.1-.3-.2-.6-.4-.9-.1-.3-.3-.7-.5-1.1-.4-.8-.7-1.3-1-1.3-.3.1-.6.5-.9 1.3l-.9 2.1h3.7zM170.4 399.2c0-.5.3-1 .9-1.4.3-.2.8-.3 1.4-.4.6-.1 1.3-.2 2.1-.2s1.5 0 2.1.1c.6.1 1 .2 1.4.3.3.2.6.3.7.6s.2.5.2.8c-.1.6-.3 1-.6 1-.2 0-.3.1-.3.4 0 .1 0 .2.1.4l1.2 3c.4 1 .7 1.5 1.1 1.6.2 0 .4-.2.6-.5.2-.3.4-.7.6-1.2l.6-1.6.7-1.6c0-.1.1-.3.1-.4 0-.3-.2-.5-.5-.5-.3-.1-.6-.4-.7-.9 0-.2.1-.4.2-.6.1-.2.3-.4.5-.5.3-.1.6-.3 1-.3.4-.1.9-.1 1.5-.1h1.6c.4 0 .8.1 1.3.3.4.1.6.5.6 1.2 0 .8-.3 1.2-.8 1.2-.5-.1-1 .2-1.3.9l-1.3 2.8-1.5 3.4c-.2.5-.4.9-.5 1.3-.1.3-.2.5-.3.6 0 .1-.1.3-.2.5l-.5 1-1.3 2.8c-.2.4-.5.7-.8.9-.3.3-.7.4-1.2.4-.4 0-.8-.1-1.1-.4-.3-.3-.6-.6-.8-1l-4.7-11.6c-.3-.7-.7-1-1.2-1.1-.5-.2-.8-.6-.9-1.2zM190.4 398.5c0-.3.2-.6.5-.8.3-.2.9-.4 1.8-.4l5.7.1h2.8c.4 0 .9 0 1.4-.1.5 0 1-.1 1.6-.2.8.1 1.3.5 1.6 1.2.3.7.4 1.4.4 2 0 .6-.1 1.2-.3 1.6-.2.4-.5.6-1 .6-.6-.1-1.1-.4-1.4-.9-.3-.5-.6-.9-1-1.1s-.9-.3-1.5-.3h-1.6c-.5 0-.9.1-1.1.3-.2.3-.3.7-.3 1.3v1.4c0 .4.1.8.2 1 .1.2.4.3.8.3.9-.1 1.3-.5 1.3-1.3-.1-.8.3-1.2 1-1.3.7 0 1.1.4 1.3 1.1.2.7.3 1.4.3 2.1 0 1.5-.1 2.6-.4 3.3-.3.7-.7 1.1-1.3 1.1-.7-.1-1-.5-.9-1.3.1-.8-.3-1.2-1.1-1.3-.4 0-.7.1-.9.3-.2.2-.2.4-.2.7V410.3c0 .2.1.5.3.7.2.3.6.4 1.2.4h1c1 0 1.8-.2 2.4-.5.6-.3 1-.7 1.2-1.1l.7-1.1c.2-.3.5-.5.9-.5.5 0 .9.2 1.1.5.2.3.3.7.3 1 0 1-.2 2.1-.7 3.1-.5 1-1 1.5-1.5 1.6-.4 0-.9-.1-1.5-.2s-1.6-.2-2.9-.2h-8.9c-.4 0-.7-.1-.9-.3s-.3-.5-.3-.8c.1-.6.3-.9.8-1.1.5-.2.8-.5 1-.9.2-.4.3-1 .3-1.8v-.6-1-1V402.7c0-2.1-.3-3.1-1-3.1-.8 0-1.1-.4-1.2-1.1z"/></g></g><g><path class="st10" d="M192.7 557H221l8.3-90.5 20.7 97 42.2-3.4-39.1-193.8-36.5-47.5-9.9 70zM164.8 557h-28.2l-8.4-90.5-20.6 97-42.2-3.4 39.1-193.8 36.5-47.5 9.8 70z"/><defs><path id="SVGID_14_" d="M164.8 557h-28.2l-8.4-90.5-20.6 97-42.2-3.4 39.1-193.8 36.5-47.5 9.8 70z"/></defs><clipPath id="SVGID_15_"><use xlink:href="#SVGID_14_" overflow="visible"/></clipPath><path d="M158.6 300.7s-6.6 18.2-10.1 34.1c-5.4 24.6-5 21.5-18.3 13.5-11-6.6-21-19.4-8.6-31.1 12.3-11.7 37-16.5 37-16.5z" clip-path="url(#SVGID_15_)" fill="#3e3a39" stroke="#231815" stroke-width="3" stroke-miterlimit="10"/><defs><path id="SVGID_16_" d="M192.7 557H221l8.3-90.5 20.7 97 42.2-3.4-39.1-193.8-36.5-47.5-9.9 70z"/></defs><clipPath id="SVGID_17_"><use xlink:href="#SVGID_16_" overflow="visible"/></clipPath><path d="M198.4 302.1s8.6 26.4 8.2 39.8c-.4 13.4 2.5 18 13.3 14.8 10.8-3.2 19.2-7.5 15.1-16.4-4.1-8.9-12.1-22.5-19-30.4-7-8-17.6-7.8-17.6-7.8z" clip-path="url(#SVGID_17_)" fill="#3e3a39" stroke="#231815" stroke-width="3" stroke-miterlimit="10"/><path class="st10" d="M158.6 300.7s-6.6 18.2-10.1 34.1c-5.4 24.6-5 21.5-18.3 13.5-11-6.6-21-19.4-8.6-31.1 12.3-11.7 37-16.5 37-16.5zM198.4 302.1s8.6 26.4 8.2 39.8c-.4 13.4 2.5 18 13.3 14.8 10.8-3.2 19.2-7.5 15.1-16.4-4.1-8.9-12.1-22.5-19-30.4-7-8-17.6-7.8-17.6-7.8z"/><path class="st13" d="M127.7 464.7l-13.1-60.9M229.5 464.7l13.1-60.9"/></g><g><path class="st3" d="M254.4 217.6c0 41.2-34.4 74.6-76.9 74.6-42.5 0-76.9-33.4-76.9-74.6s34.4-81.4 76.9-81.4c42.5 0 76.9 40.2 76.9 81.4z"/><path class="st3" d="M109 214.2s-21-2.8-20.1 7.4c1.5 17.9 9.6 25.8 18 25.8h4.8l-2.7-33.2zM246.4 214.2s21-2.8 20.1 7.4c-1.5 17.9-9.6 25.8-18 25.8h-4.8l2.7-33.2z"/><path class="st14" d="M133.6 224.1c1.8-2.7 4.8-5 8.5-6.3 3.7-1.3 7.5-1.5 10.6-.6M220.9 224.1c-1.8-2.7-4.8-5-8.5-6.3-3.7-1.3-7.5-1.5-10.6-.6"/><path class="st15" d="M188.3 264.5c-3.3-1.5-6.8-2.5-11-2.5-4 0-7.5.9-10.7 2.3"/><path class="st16" d="M157.9 234.6c.1 3.5-2.2 10-10 10.7-6.7.7-12.9-3.3-13.8-9.2-.9-5.8 3.2-10.9 10.6-12 7.6-1 13 4.6 13.2 10.5z"/><ellipse class="st17" cx="146.4" cy="237.9" rx="8" ry="7.8"/><circle class="st18" cx="143.1" cy="242.3" r="2"/><path class="st16" d="M197.1 234.6c-.1 3.5 2.2 10 10 10.7 6.7.7 12.9-3.3 13.8-9.2.9-5.8-3.2-10.9-10.6-12-7.6-1-13 4.6-13.2 10.5z"/><ellipse class="st17" cx="208.6" cy="237.9" rx="8" ry="7.8"/><circle class="st18" cx="205.3" cy="242.3" r="2"/><path class="st15" d="M177.5 243.4v4"/><path class="st19" d="M136.6 218.4c-27-1.9-38.2 5.3-34.9 17.5 3.7 13.6 13.6 22.1 34.9 22.1 19.3 0 34.9-9.9 34.9-22.1.1-12.2-13.3-16-34.9-17.5zm0 37.4c-19 0-27.8-7.5-31.1-19.7-2.9-10.9 7-17.3 31.1-15.6 19.2 1.3 31.1 4.7 31.1 15.6s-13.9 19.7-31.1 19.7zM183.4 235.9c0 12.2 15.6 22.1 34.9 22.1 21.3 0 31.3-8.5 34.9-22.1 3.3-12.2-7.9-19.4-34.9-17.5-21.5 1.5-34.9 5.3-34.9 17.5zm3.9.2c0-10.9 11.9-14.2 31.1-15.6 24.1-1.7 34 4.7 31.1 15.6-3.3 12.1-12.1 19.7-31.1 19.7-17.2 0-31.1-8.8-31.1-19.7z"/><path class="st19" d="M184.7 229.7l13.2-8.4s-12.7 7.6-20.4 7.9c-7.6-.3-20.4-7.9-20.4-7.9l13.2 8.4v3.4l-1.8 11.8 2.6-5.3c2.6-5.3 6.5-5.1 6.5-5.1s3.9-.2 6.5 5.1l2.6 5.3-1.8-11.8v-3.4z"/></g><g><path class="st19" d="M182 163.8c34.9 0 63.2 21.1 75.8 51.1h7.9c-.8-45-38-81.3-83.7-81.3-59.5 0-82.8 36.2-83.7 81.3h7.9c12.6-30.1 40.9-51.1 75.8-51.1z"/><path class="st19" d="M247.4 197.2s5.6 6.4 0 32.4l5.3 2s12.5-12.1.6-36.5c-1.8-3.7-10.3-3.8-10.3-3.8l4.4 5.9zM114.5 200s-8.5 15.7.8 31.5l-5.3 2s-12.5-12.1-.6-36.5c1.8-3.7 9.9-3.8 9.9-3.8l-4.8 6.8z"/><path class="st19" d="M220.3 142.8s-23.1-17.2-73.3-6.9c-52.6 10.8-61.1 40.2-61.1 40.2l12.5 38.7 28.2-53.2 84.4-12 9.3-6.8z"/><path class="st19" d="M220.3 142.8s55.9.1 45.1 75.1l-7-2.3-22.6-54-35.1-13.1 19.6-5.7zM208.9 180.4s-29.4-13.6-54.2-.5c-25.1 13.3-23.3 23.2-23.3 23.2s-10.2-2.9-6.1-19.3c4.1-16.4 38.5-30.5 38.5-30.5l45.1 27.1z"/><path class="st19" d="M208.9 180.4s-20.9-12.9-55.7-5.9l-34.8 7s10.8-16.3 37.1-23.2 53.4.8 54.9.8 7 6.2 7 6.2l-8.5 15.1z"/><path class="st19" d="M208.9 180.4s19.8-2.1 30.2 13.5c10.8 16.3 10.1 24 9.3 31.7 0 0 8.3-12.4 4.9-30.6-3.4-18.2-8.8-20.5-15-25.1s-17-9.3-24-9.3-8.5 3.9-8.5 3.9l3.1 15.9z"/></g></g><g><defs><circle id="SVGID_18_" cx="177.5" cy="177.5" r="167.9"/></defs><clipPath id="SVGID_19_"><use xlink:href="#SVGID_18_" overflow="visible"/></clipPath><g clip-path="url(#SVGID_19_)"><path class="st18" d="M124.4 51.6l-.2 25.9h-2v-1.4l-20.8-.2v1.4h-2l.2-25.9 24.8.2zm-2.2 22.7l.2-20.8-20.8-.2-.2 20.8 20.8.2zm-8.5-13.7c1.6 3.6 4.3 7 7.2 8.6-.5.3-1.1 1-1.3 1.5-2.7-1.8-5.3-5.1-6.9-8.8l-.1 10.6h-1.9l.1-10.4c-1.7 3.6-4.2 6.8-6.9 8.6-.3-.5-.8-1.1-1.2-1.4 2.8-1.7 5.5-5.1 7.1-8.6l-6.5-.1v-1.7l7.5.1v-4.3h1.9V59l7.9.1v1.7l-6.9-.2zM132.3 62.7c2.1-.7 7-2.4 10.5-2.4 4.1 0 7.1 2.5 7.1 6.5 0 5.8-5.7 8.5-13.5 8.9l-.8-2.1c6.4-.2 12.1-1.9 12.1-6.9 0-2.5-2-4.5-5.1-4.5-3.7 0-10.3 2.7-12.1 3.3l-.9-2.3c.9.1 1.8-.2 2.7-.5zM168.7 57.9c-2 .4-4.1.7-6.2 1-.3 1.3-.6 2.7-1 4-1.1 4.2-3.2 10.4-4.8 13.5l-2.4-.8c1.8-3 3.9-9 5.1-13.2.3-1 .6-2.1.8-3.3-1.1.1-2 .1-2.9.1-1.3 0-2.3-.1-3.4-.1V57c1.4.2 2.5.2 3.5.2s2.1 0 3.2-.1c.2-1.1.4-2.1.5-2.7.1-.8.2-1.7.1-2.4l2.6.2c-.2.6-.4 1.7-.5 2.3l-.5 2.4c2-.3 4-.6 5.8-1.1l.1 2.1zm-1.4 10.5c-.3 1-.5 1.9-.5 2.7 0 1.4.6 2.9 5 2.9 1.9 0 4-.2 5.8-.5l-.1 2.2c-1.6.2-3.6.4-5.7.4-4.6 0-7-1.5-7-4.4 0-1 .2-2.1.4-3.4l2.1.1zm-.5-7.2c1.5-.1 3.5-.2 5.4-.2 1.7 0 3.5.1 5.1.3l-.1 2c-1.5-.2-3.3-.4-5-.4-1.8 0-3.7.1-5.5.3l.1-2zM195.1 57.8c-1.6.4-3.5.8-5.4 1-1.5 4.2-4.2 9.3-6.6 12.5l-2.1-1.1c2.5-2.9 5.1-7.6 6.5-11.2-.9.1-1.9.1-2.8.1-1.1 0-2.3 0-3.4-.1l-.1-2c1 .1 2.2.2 3.6.2 1.1 0 2.3 0 3.4-.1.5-1.6.9-3.6 1-5.2l2.4.2c-.3 1.1-.7 2.9-1.2 4.7 1.6-.2 3.2-.6 4.7-1.1v2.1zm3.3 3.6c-.1 1.2 0 2 0 3.1s.1 3.2.2 5c2.5 1 4.6 2.4 6.1 3.7l-1.2 1.8c-1.3-1.2-2.9-2.5-4.9-3.5v1.3c0 2.3-1.6 4.2-5.2 4.2-3.2 0-5.8-1.3-5.8-4.2 0-2.7 2.7-4.4 5.9-4.3 1 0 2 .1 3 .3-.1-2.5-.2-5.4-.3-7.5l2.2.1zm-1.8 9.4c-1-.3-2-.5-3.1-.5-2.3 0-3.8 1-3.8 2.4s1.1 2.4 3.5 2.4c2.5 0 3.4-1.4 3.4-2.8v-1.5zm7.9-8.7c-1.6-1.4-4.7-3.2-6.7-4.1l1.1-1.6c2.1 1 5.4 2.9 6.8 4l-1.2 1.7zM225.4 63.8c3.2.9 5 3.3 4.9 6 0 3.3-2.3 6.5-8.3 7.4l-1-1.7c4.3-.4 7.3-2.6 7.4-5.9 0-2-1.3-3.6-3.6-4.3-1.4 3.4-3.3 6.1-5.5 7.9.2.7.3 1.4.6 2l-1.8.5c-.1-.4-.3-.8-.4-1.3-1.4.8-2.9 1.3-4.1 1.3-1.7 0-3-1-3-3.1 0-3.4 2.9-6.5 6.2-8 .1-1.2.2-2.5.3-3.6h-1.5c-1 0-3-.1-4-.2v-1.9c.9.1 3.2.3 4 .3h1.7c.1-.7.2-1.4.2-2 0-.4.1-.9.1-1.1h2.2c-.1.3-.2.7-.3 1.1-.1.5-.2 1.2-.3 1.9 3-.1 5.9-.4 8.6-.9V60c-2.5.4-5.9.7-8.9.9-.1.9-.2 1.9-.3 2.9 1.4-.4 2.9-.6 4.1-.6h.9l.1-.2c.1-.3.3-1.1.3-1.4l1.9.5c-.1.3-.3 1-.5 1.3v.4zm-8.7 2.8c-2.3 1.3-4.3 3.7-4.3 5.8 0 1 .6 1.5 1.5 1.5s2.1-.4 3.4-1.3c-.4-1.8-.6-3.9-.6-5.9v-.1zm1.9 0c0 1.7.2 3.3.4 4.7 1.6-1.5 3.1-3.6 4.2-6.3h-.4c-1.6 0-3 .3-4.1.7l-.1.9zM242.2 74.7c0-1.2.9-2 1.8-2 1 0 1.9.8 1.8 2 0 1.1-.9 1.9-1.9 1.9-.8 0-1.7-.8-1.7-1.9zM249.6 74.8c0-1.2.9-2 1.8-2 1 0 1.9.8 1.8 2 0 1.1-.9 1.9-1.9 1.9-.9 0-1.7-.8-1.7-1.9zM257 74.8c0-1.2.9-2 1.8-2 1 0 1.9.8 1.8 2 0 1.1-.9 1.9-1.9 1.9-.9.1-1.7-.7-1.7-1.9zM62.6 93.6c-.3 1.8-1.1 3.9-2.8 5.5-.3-.4-.9-1-1.3-1.3 2.1-1.9 2.5-4.3 2.5-6.2v-3l1.6.5c2.6-.3 5.4-.7 7.1-1.2l1.3 1.3c-2.2.6-5.5 1-8.3 1.3V92.2l9.2.1v1.6h-3.6v3.9h-1.8v-3.9l-3.9-.3zm6.6 18c-2.4 1.4-6.2 2.7-9.2 3.5-.3-.4-1-1.1-1.5-1.5 3.1-.6 6.6-1.7 8.8-2.8l1.9.8zm-6.8-13.5l19.4.2-.1 12.2-19.4-.2.1-12.2zm1.9 10.8l15.5.1v-2.3l-15.5-.1v2.3zm0-3.7l15.5.1v-2.2l-15.5-.1v2.2zm0-3.6l15.5.1v-2.2l-15.5-.1v2.2zm21.1-9.4v1.6h-4.6v4H79v-4h-4.4c-.4 1.4-1.3 3-3.2 4.2-.2-.5-.8-1.1-1.2-1.4 2.4-1.6 2.9-3.5 2.9-5.2v-2.6l1.6.4c2.8-.3 5.9-.7 7.7-1.1l1.3 1.3c-2.4.6-5.9 1-8.9 1.2v1.7l10.6-.1zm-9.3 18.7c3.3 1 6.8 2.3 9 3.3l-2.2 1c-1.9-1-5.1-2.2-8.4-3.3l1.6-1zM91.1 99.6l-.1 15.7h-1.9l.2-26 10.6.1-.1 10.4-8.7-.2zm6.8-1.6v-2.9l-6.7-.1v2.9l6.7.1zm-6.7-7.2v2.7l6.8.1v-2.7l-6.8-.1zm6.2 20.3v1.8h-1.9l.1-10.4 11.1.1-.1 8.6-9.2-.1zm0-6.9v5.2l7.4.1v-5.2l-7.4-.1zm16 8.5c0 1.4-.4 2-1.3 2.4-1 .3-2.7.3-5.3.3-.1-.5-.4-1.5-.7-2 2 .1 4 .1 4.5.1s.8-.2.8-.8l.1-12.8-8.9-.1.1-10.4 10.9.1-.2 23.2zm-1.8-14.5v-2.9l-7-.1v2.9l7 .1zm-7-7.2v2.7l7 .1v-2.7l-7-.1zM123.6 90.1c-.2.9-.2 1.9-.3 2.8-.1 3.4-.4 10.5-.5 15.1 0 3.3 2.1 4.5 5 4.5 5.5 0 8.6-3 10.8-6.1l1.5 1.9c-2.1 2.8-5.9 6.4-12.4 6.4-4.2 0-7.1-1.8-7-6.6 0-4.5.4-11.9.4-15.2 0-1 0-2-.2-2.8h2.7zM142.5 93.5c1.8-.2 7.6-.7 13.1-1.1 3.3-.3 6-.4 7.9-.4v2.1c-1.7 0-4.3 0-5.8.4-4.4 1.4-6.9 6-6.9 9.5 0 6 5.5 7.8 10.3 8.1l-.8 2.2c-5.4-.2-11.7-3.1-11.6-9.8 0-4.7 2.9-8.5 5.8-10.1-2.6.3-11 1-14.2 1.7l-.2-2.4c.9-.1 1.8-.2 2.4-.2zM190.9 108.8c-.9-.8-2-1.6-3.2-2.4-1.2 3.9-3.5 6.8-7.9 8.9l-1.8-1.5c4.8-1.9 6.9-5.2 7.9-8.5-2.6-1.4-5.5-2.5-8.7-2.8-1.2 2.6-2.7 6.1-3.9 7.8-1.1 1.5-2.2 2-3.6 2-2.1 0-3.7-1.6-3.7-4 0-4.3 4.1-7.6 9.9-7.7 1.1-2.4 2.3-5.1 3.3-7-1.2.1-5 .2-6.4.3-.7.1-1.5.1-2.2.2l-.1-2.3c.7.1 1.6.1 2.2.1 1.5 0 5.6-.2 6.8-.2.5 0 1-.1 1.4-.3l1.3 1.1c-.3.3-.5.6-.8 1-.8 1.3-2.2 4.4-3.4 7.2 3.1.3 5.9 1.3 8.3 2.5l.3-2.4c0-.7.1-1.7.1-2.6l2.2.3c-.1 2.1-.3 4-.7 5.8 1.4.8 2.7 1.6 3.6 2.4l-.9 2.1zm-15.9-6.3c-4.5.3-7 2.9-7 5.6 0 1.3.9 2.1 1.8 2.1.7 0 1.2-.2 1.8-1 1.1-1.5 2.3-4.3 3.4-6.7zM215.9 113.5c-1.9-2-4.7-3.9-7.9-5v2.2c0 2.4-1.6 4.4-5.3 4.4-4 0-7-1.3-7-4.6 0-2.6 2.3-4.8 7.4-4.7.9 0 1.8.1 2.6.2-.1-2.4-.2-5.2-.2-7v-5.5c0-1-.1-2.3-.2-2.9h2.6c-.1.6-.2 2-.3 2.8v3.2c2.4 0 6.2-.2 8.9-.5l.1 2c-2.7.2-6.5.4-9 .4v.4c0 2 .1 4.9.2 7.4 3.8 1.1 7.1 3.1 9.2 5.1l-1.1 2.1zm-10.1-5.6c-1-.2-1.9-.3-2.9-.3-3.2 0-5 1.1-5 2.7 0 1.7 1.7 2.7 4.7 2.7 2.2 0 3.3-1 3.4-3.1-.1-.4-.1-1.2-.2-2zM234.1 99.7c-3.4 0-6.4.9-8.2 1.5-.9.2-1.7.6-2.5.8l-.7-2.5c.8-.1 1.8-.2 2.6-.4 2.1-.5 5.5-1.4 8.9-1.4 4.1 0 7.3 2.4 7.2 6.5-.1 6.4-5.8 10-13.4 11.1l-1.2-2c7.2-.9 12.4-3.7 12.4-9.2.1-2.6-2-4.4-5.1-4.4zm5.2-7.4l-.3 2.1c-3.3-.2-9.2-.9-12.5-1.5l.3-2c3.2.7 9.7 1.3 12.5 1.4zM257.2 91.1c-.1.5-.2 1.1-.3 1.6-.2.8-.5 2.7-.8 4.4 1.4-.1 2.7-.2 3.5-.2 2.6 0 4.7 1 4.7 5 0 3.5-.6 8.2-1.8 10.7-1 1.9-2.4 2.4-4.3 2.4-1.1 0-2.5-.3-3.5-.5l-.3-2.3c1.3.4 2.8.7 3.7.7 1.1 0 2-.2 2.7-1.5 1-2.1 1.5-6 1.5-9.2 0-2.8-1.3-3.3-3.2-3.3-.8 0-2 .1-3.4.2-1.1 4.3-3.1 10.8-6.4 15.9l-2.2-.9c3.1-4.1 5.4-10.9 6.4-14.8-1.6.2-3.2.3-4 .4-.7.1-1.8.2-2.6.3l-.2-2.4c.9.1 1.6 0 2.5 0 1 0 2.8-.2 4.7-.3.4-2.1.8-4.5.8-6.5l2.5.3zm10.2 3.3c1.8 2.4 4.4 7.8 5.4 10.6l-2.1 1c-.9-3-3.2-8.3-5.3-10.7l2-.9zM289.3 96.6c-1.6.4-3.5.8-5.4 1-1.5 4.2-4.2 9.3-6.6 12.5l-2.1-1.1c2.5-2.9 5.1-7.6 6.5-11.2-.9.1-1.9.1-2.8.1-1.1 0-2.3 0-3.4-.1l-.1-2c1 .1 2.2.2 3.6.2 1.1 0 2.2 0 3.4-.1.5-1.6.9-3.6 1-5.2l2.4.2c-.3 1.1-.7 2.9-1.2 4.7 1.6-.2 3.2-.6 4.7-1.1v2.1zm3.4 3.6c-.1 1.2 0 2 0 3.1s.1 3.2.2 5c2.5 1 4.6 2.4 6.1 3.7l-1.2 1.8c-1.3-1.2-2.9-2.5-4.9-3.5v1.4c0 2.3-1.6 4.2-5.2 4.2-3.2 0-5.8-1.3-5.8-4.2 0-2.7 2.7-4.4 5.9-4.3 1 0 2 .1 3 .3-.1-2.5-.2-5.4-.3-7.5h2.2zm-1.8 9.4c-1-.3-2-.5-3.1-.5-2.3 0-3.8 1-3.8 2.4s1.1 2.4 3.6 2.4 3.4-1.4 3.4-2.8c-.1-.4-.1-.9-.1-1.5zm7.9-8.7c-1.6-1.4-4.7-3.2-6.7-4.1l1.1-1.6c2.1 1 5.4 2.9 6.8 4l-1.2 1.7z"/></g></g><g><circle id="SVGID_3_" cx="177.5" cy="177.5" r="167.9" fill="none" stroke="#e69e3a" stroke-width="14" stroke-miterlimit="10"/></g></svg>