<svg id="レイヤー_1" data-name="レイヤー 1" xmlns="http://www.w3.org/2000/svg" viewBox="0 0 400 128"><defs><clipPath id="clip-path"><circle class="cls-1" cx="63.79" cy="61.99" r="61.99"/></clipPath><clipPath id="clip-path-2"><path class="cls-1" d="M100.57 144.06L79 113.27c-3.66 3.31-9.63 5.51-16.3 5.51-6.16 0-11.68-1.8-15.39-4.71l-21.06 30-16 89.86 13.64 2 14.39-49.49 5 45.78h40.39l5-45.78 14.49 49.49 13.64-2z"/></clipPath><clipPath id="clip-path-5"><path class="cls-1" d="M56.45 233.52h-14.2l-4.21-45.49-10.38 48.75-21.21-1.71 19.66-97.43 18.35-23.87 4.91 35.15 7.08 84.6z"/></clipPath><clipPath id="clip-path-6"><path class="cls-1" d="M70.49 233.52h14.19l4.16-45.49 10.43 48.75 21.16-1.71-19.66-97.43-18.35-23.87-4.91 35.15-7.02 84.6z"/></clipPath><style>.cls-1,.cls-10{fill:none}.cls-3{fill:#fce2c4}.cls-5{clip-path:url(#clip-path-2)}.cls-6,.cls-8{fill:#3e3a39}.cls-8{stroke:#231815}.cls-10,.cls-8{stroke-miterlimit:10}.cls-8{stroke-width:1.5px}.cls-10{stroke:#212321;stroke-width:2.01px;stroke-linecap:round}.cls-13{fill:#231815}.cls-14{fill:#2a2b2b}.cls-15{fill:#e69e3a}.cls-16{fill:#fff}</style></defs><g clip-path="url(#clip-path)"><path class="cls-3" d="M67.38 84H59s-4 32.33-28.88 55.64l19 88.11h28.09l19.05-88.11C71.29 116.33 67.38 84 67.38 84z"/><path d="M100.57 144.06L79 113.27c-3.66 3.31-9.63 5.51-16.3 5.51-6.16 0-11.68-1.8-15.39-4.71l-21.06 30-16 89.86 13.64 2 14.39-49.49 5 45.78h40.39l5-45.78 14.49 49.49 13.64-2z" fill="#595757"/><g class="cls-5"><path class="cls-6" d="M49.07 116.03l-12.23 37 1.55 38.31-3.36 49.5-29.83-4.66 18.95-94.93 16.1-24.82 8.82-.4z"/></g><g class="cls-5"><path class="cls-6" d="M77.86 116.03l12.18 37-1.55 38.31 3.36 49.5 29.84-4.66-18.96-94.93-16.1-24.82-8.77-.4z"/></g><g class="cls-5"><ellipse class="cls-6" cx="62.66" cy="105.34" rx="26.28" ry="17.45"/></g><path class="cls-6" d="M70.49 233.52h14.19l4.16-45.49 10.43 48.75 21.16-1.71-19.66-97.43-18.35-23.87-4.91 35.15-7.02 84.6zM56.45 233.52h-14.2l-4.21-45.49-10.38 48.75-21.21-1.71 19.66-97.43 18.35-23.87 4.91 35.15 7.08 84.6z"/><g clip-path="url(#clip-path-5)"><path class="cls-8" d="M53.29 104.64a154.72 154.72 0 00-5.07 17.15c-2.71 12.39-2.51 10.83-9.18 6.82-5.51-3.31-10.53-9.73-4.31-15.64s18.56-8.33 18.56-8.33z"/></g><g clip-path="url(#clip-path-6)"><path class="cls-8" d="M73.29 105.39s4.32 13.24 4.12 20 1.3 9.08 6.72 7.47 9.67-3.76 7.57-8.22a78.72 78.72 0 00-9.58-15.29 12.12 12.12 0 00-8.83-3.96z"/></g><path class="cls-6" d="M53.29 104.64a154.72 154.72 0 00-5.07 17.15c-2.71 12.39-2.51 10.83-9.18 6.82-5.51-3.31-10.53-9.73-4.31-15.64s18.56-8.33 18.56-8.33zM73.29 105.39s4.32 13.24 4.12 20 1.3 9.08 6.72 7.47 9.67-3.76 7.57-8.22a78.72 78.72 0 00-9.58-15.29 12.12 12.12 0 00-8.83-3.96z"/><path class="cls-3" d="M101.48 62.87c0 20.71-17.3 37.51-38.67 37.51s-38.66-16.8-38.66-37.51S41.45 22 62.81 22s38.67 20.16 38.67 40.87z"/><path class="cls-3" d="M28.36 61.16s-10.53-1.4-10.13 3.72c.76 9 4.87 13 9.08 13h2.41zM97.41 61.16s10.54-1.4 10.13 3.72c-.75 9-4.86 13-9.07 13h-2.41z"/><path class="cls-10" d="M40.15 62.27a9.15 9.15 0 0110.23 0M85.18 62.27a9.15 9.15 0 00-10.23 0"/><path d="M54.39 82.48a8.94 8.94 0 0011.53 5.26 8.82 8.82 0 005.27-5.26 29.13 29.13 0 01-16.8 0z" fill="#d36267"/><path stroke="#d36267" stroke-linecap="round" stroke-width="1.5" stroke-miterlimit="10" fill="none" d="M62.81 75.86v1.95"/><path class="cls-13" d="M42.25 63.27c-13.59-1-19.2 2.66-17.55 8.78 1.86 6.82 6.87 11.08 17.55 11.08 9.68 0 17.55-5 17.55-11.08S53.09 64 42.25 63.27zm0 18.81c-9.52 0-14-3.82-15.64-9.88-1.46-5.47 3.51-8.68 15.64-7.83 9.63.71 15.6 2.36 15.6 7.83s-7 9.88-15.6 9.88zM65.77 72.1c0 6.11 7.88 11.08 17.55 11.08 10.73 0 15.7-4.26 17.55-11.08 1.66-6.12-4-9.73-17.55-8.78-10.83.68-17.55 2.61-17.55 8.78zm2 .1c0-5.47 6-7.17 15.59-7.83 12.09-.85 17.1 2.36 15.6 7.83-1.66 6.06-6.07 9.88-15.6 9.88-8.62 0-15.59-4.42-15.59-9.88z"/><path class="cls-13" d="M66.42 69L73 64.78s-6.42 3.81-10.23 4c-3.86-.1-10.23-4-10.23-4L59.2 69v1.7l-.9 5.92L59.6 74c1.31-2.66 3.26-2.56 3.26-2.56s2-.1 3.26 2.56l1.31 2.66-.91-5.92V69z"/><path class="cls-14" d="M51.38 69.74s.55-2-4-2.26c-5.37-.35-8.63 4.87-8.63 4.87a18.79 18.79 0 0112.63-2.61zM74.7 69.74s-.55-2 4-2.26c5.42-.35 8.63 4.87 8.63 4.87a18.9 18.9 0 00-12.63-2.61z"/><path class="cls-13" d="M65.07 35.79c17.5 0 31.79 10.58 38.11 25.68h4C106.74 38.85 88 20.6 65.07 20.6 35.13 20.6 23.45 38.8 23 61.47h4c6.28-15.05 20.52-25.68 38.07-25.68z"/><path class="cls-13" d="M98 52.59s2.8 3.21 0 16.3l2.65 1s6.32-6.07.3-18.35c-.9-1.86-5.16-1.91-5.16-1.91zM31.17 54s-4.31 7.93.4 15.85l-2.66 1s-6.31-6.06-.3-18.35c.91-1.86 5-1.91 5-1.91z"/><path class="cls-13" d="M84.33 25.26s-11.64-8.68-36.86-3.46C21 27.22 16.73 42 16.73 42L23 61.47l14.19-26.78 42.42-6z"/><path class="cls-13" d="M84.33 25.26S112.41 25.31 107 63l-3.51-1.15-11.34-27.11-17.6-6.57zM78.61 44.22S63.82 37.35 51.38 44C38.79 50.68 39.7 55.65 39.7 55.65s-5.17-1.51-3.11-9.73 19.35-15.34 19.35-15.34z"/><path class="cls-13" d="M78.61 44.22s-10.48-6.47-28-3l-17.5 3.51s5.46-8.18 18.65-11.69 26.83.4 27.63.4 3.51 3.11 3.51 3.11z"/><path class="cls-13" d="M78.61 44.22S88.54 43.16 93.8 51c5.47 8.17 5.07 12.08 4.67 15.94a22.07 22.07 0 002.45-15.39c-1.7-9.18-4.41-10.28-7.52-12.64s-8.57-4.66-12.08-4.66-4.26 1.95-4.26 1.95z"/></g><path class="cls-15" d="M63.38 5.28a58.1 58.1 0 11-58.1 58.1 58.16 58.16 0 0158.1-58.1m0-5.28a63.38 63.38 0 1063.37 63.38A63.37 63.37 0 0063.38 0z" id="SVGID"/><rect class="cls-15" x="140.42" y="8.95" width="259.58" height="110" rx="12.78"/><path class="cls-15" d="M125.3 103.09a9.12 9.12 0 01-2.16-18 8.92 8.92 0 012.18-.27 9.12 9.12 0 012.17 18 9 9 0 01-2.19.27z"/><path class="cls-16" d="M125.32 86a8 8 0 011.9 15.77 7.88 7.88 0 01-1.92.23 8 8 0 110-16m0-2.24a10.24 10.24 0 102.43 20.18 10.24 10.24 0 00-2.43-20.18z"/><path class="cls-15" d="M104 99.46a5.49 5.49 0 01-1.3-10.83 5.8 5.8 0 011.31-.16 5.5 5.5 0 011.31 10.83 5.88 5.88 0 01-1.32.16z"/><path class="cls-16" d="M104 89.15a4.81 4.81 0 011.15 9.49 4.66 4.66 0 01-1.16.14 4.81 4.81 0 01-1.14-9.49 4.53 4.53 0 011.15-.14m0-1.35a6.2 6.2 0 00-5.28 3 6.16 6.16 0 006.75 9.18 6.16 6.16 0 004.53-7.49 6.15 6.15 0 00-6-4.69zM229.86 42.32c3.56.89 5.59 3.49 5.59 6.65 0 4.05-2.75 7.45-9.15 8.5l-1.14-1.7c5-.57 8.26-3.08 8.26-6.89a5 5 0 00-4.21-4.88 23.59 23.59 0 01-6.21 9.18 18.8 18.8 0 00.64 2.27l-1.86.56c-.16-.48-.32-1-.49-1.62A9.34 9.34 0 01216.5 56a3.06 3.06 0 01-3.24-3.4c0-3.65 3.24-7.37 7-9.07.08-1.46.16-2.92.33-4.21h-1.87c-1.13 0-3.32-.09-4.45-.17l-.08-1.94a28.76 28.76 0 004.53.32h2c.08-.89.16-1.62.24-2.26 0-.41.08-.81.08-1.22l2.19.08a3.31 3.31 0 00-.24 1.22c-.08.56-.25 1.37-.41 2.18a57.4 57.4 0 009.88-1.13v1.7a83 83 0 01-10.12 1c-.08 1.14-.16 2.35-.24 3.57a15.68 15.68 0 014.77-.73 5.86 5.86 0 011.14.08l.08-.49a4.59 4.59 0 00.24-1.45l2 .48c-.16.41-.33 1.05-.49 1.46zm-9.56 3c-2.83 1.54-5 4.46-5 6.8 0 1.22.57 1.79 1.62 1.79a8.17 8.17 0 004-1.62 34 34 0 01-.62-6.29zm7.21-1.7h-.57a13.91 13.91 0 00-4.86.89v1.3a28.39 28.39 0 00.49 5.18 19 19 0 004.94-7.37zM244.68 34.06a55.09 55.09 0 00-1.29 8.1c1.05-3 4.05-6.72 7.69-6.72s6.32 3.72 6.32 9.56c0 7.77-4.94 11.17-11.83 12.39l-1.21-1.78c6-.89 10.85-3.49 10.85-10.53 0-4.46-1.45-7.78-4.53-7.78-3.49 0-6.81 5.1-7.21 8.83a10.17 10.17 0 00.08 3.48l-1.94.17c-.17-1.46-.25-2.92-.33-4.46a68.28 68.28 0 01.89-9.07c.08-.89.16-1.7.25-2.35zM272.55 34.3a9.19 9.19 0 01-.33 1.54c-.08.81-.4 2.6-.73 4.22 1.38-.09 2.6-.17 3.33-.17 2.43 0 4.45.89 4.45 4.62 0 3.32-.49 7.78-1.62 10.13-.89 1.86-2.27 2.26-4 2.26a15.69 15.69 0 01-3.32-.4l-.33-2.19a16 16 0 003.48.65A2.41 2.41 0 00276 53.5c1-1.94 1.3-5.67 1.3-8.75 0-2.59-1.22-3.07-3-3.07-.73 0-1.86.08-3.16.16-1 4-2.92 10.2-5.91 15.06l-2.11-.81c2.84-3.88 5-10.36 5.91-14.09l-3.72.4c-.65.09-1.7.25-2.43.33l-.16-2.27a12.33 12.33 0 002.43 0c1 0 2.67-.16 4.37-.32a39.26 39.26 0 00.68-6.14zm9.64 3.33a47.81 47.81 0 015.18 9.88l-1.94 1a32.44 32.44 0 00-5.11-10zm1.45.32a23.21 23.21 0 00-2.34-3.89l1.37-.57c.89 1.3 1.62 2.6 2.35 3.89zm3.16-1.13a22.24 22.24 0 00-2.35-3.89l1.38-.57a31.85 31.85 0 012.43 3.89zM309.16 39.33c-.57.32-1.22.73-2 1.13-3 1.46-5.83 3-8.66 4.7s-4.21 3.64-4.21 5.75c0 2.35 2.26 3.89 6.8 3.89a42.31 42.31 0 009-1v2.27a46.07 46.07 0 01-8.83.65c-5.18 0-9-1.62-9-5.67 0-2.83 1.78-5.1 4.86-7.29A85.72 85.72 0 01293 35l1.94-.81a61.65 61.65 0 003.81 8.43c2.67-1.62 5.83-3.16 7.45-4l1.95-1.22zM325.28 42.57a24.94 24.94 0 00-7.7 1.45c-.81.25-1.54.49-2.35.81l-.64-2.35c.81-.08 1.7-.24 2.51-.4a36.53 36.53 0 018.34-1.38c3.89 0 6.89 2.19 6.89 6.16 0 6.07-5.43 9.48-12.64 10.61l-1.22-1.94c6.81-.9 11.67-3.65 11.67-8.75 0-2.59-1.95-4.21-4.86-4.21zm4.86-7l-.33 1.94c-3.07-.16-8.66-.81-11.82-1.37l.32-2a72.32 72.32 0 0011.83 1.38zM188.79 86.06a11.07 11.07 0 00-.56 3.24c0 2.19 2.18 3.73 6.8 3.73a34.68 34.68 0 009.56-1v2.18a37.51 37.51 0 01-9.56 1c-5.59 0-8.91-1.86-8.91-5.34a15.84 15.84 0 01.57-3.89zm-1-11.17c2.43.24 4.94.32 7.37.32a73.1 73.1 0 007.45-.41v2.11c-1.86.16-4.86.32-7.45.32a67.58 67.58 0 01-7.37-.32zm18.15.64l-1.46.65a28.73 28.73 0 00-2.35-4l1.38-.56a31.72 31.72 0 012.49 3.91zm3.15-1.13l-1.45.65a23.53 23.53 0 00-2.35-3.89l1.37-.65a29.58 29.58 0 012.46 3.89zM229.46 71c.81 1.29 1.62 2.59 2.34 3.89l-1.37.56.56-.08.33 2a45.68 45.68 0 01-5.32 1.16c1 2.19 2.59 5.59 3.81 7.94l-1.22 1.21c-1.13-.24-4-.64-5.75-.81l.25-1.62c1.05.17 3.07.33 4.13.41-.89-1.78-2.35-4.94-3.24-6.89a58.6 58.6 0 01-12 .08l-.08-2a47.07 47.07 0 0011.26.16c-.33-.73-.65-1.38-1-2.19s-.73-1.53-1.14-2.34l2.27-.41c.73 1.94 1.21 3.16 1.86 4.62a28.79 28.79 0 005.19-1.22 29.34 29.34 0 00-2.35-4zm-14 14.9a11 11 0 00-.81 3.57c0 2.59 1.78 4 6 4a32.91 32.91 0 007.37-.73v2.1a36.94 36.94 0 01-7.37.65c-5.19 0-8-2.11-8-5.51a14.23 14.23 0 01.81-4.21zm17.17-16a26.13 26.13 0 012.37 3.85l-1.37.65a24 24 0 00-2.35-3.89zM239.74 77.23A59.85 59.85 0 00240 84c.48 4.78 1.94 7.94 4 7.94 1.46 0 2.84-2.84 3.57-5.76l1.62 1.79c-1.7 4.69-3.4 6.31-5.27 6.31-2.51 0-5.1-2.67-5.83-9.88-.24-2.43-.32-5.83-.32-7.45 0-.81-.08-1.62-.16-2.43l2.43.08a14.84 14.84 0 00-.3 2.63zm19.85 11.91l-2 .81c-.48-5.18-2.27-10.53-4.86-13.77l2-.65c2.43 3.16 4.45 8.75 4.86 13.61zM282.51 93.84a19.77 19.77 0 00-7-4.21c0 .81.09 1.37.09 1.86 0 1.86-1.22 3.89-4.86 3.89-4 0-6.16-1.46-6.16-4s2.43-4.21 6.48-4.21c.81 0 1.62.08 2.43.16-.08-1.3-.08-2.76-.16-4h-1.62a70.74 70.74 0 01-7.13-.41V81a52.49 52.49 0 007.13.49h1.54v-4.26h-1.46a62.94 62.94 0 01-6.72-.4V75a61.72 61.72 0 006.64.56h1.46v-1.97c0-.57-.09-1-.09-1.62h2.19c-.08.49-.08 1-.16 1.86v1.7a54.55 54.55 0 007.29-.73v1.87c-2.27.24-4.7.48-7.37.56v4.22a64 64 0 007.86-.73v1.94c-2.68.33-5.19.57-7.86.65.08 1.54.16 3.08.16 4.45a23.45 23.45 0 018.26 4.46zm-8.91-4.78a16 16 0 00-2.75-.24c-2.84 0-4.3 1.05-4.3 2.43s1.14 2.35 4.05 2.35c1.62 0 3.08-.49 3.08-2.51a15.29 15.29 0 01-.08-2zM292.88 72.37c-.16.81-.16 1.79-.24 2.6-.09 3.24-.33 9.88-.33 14.25 0 3.08 2 4.21 4.78 4.21 5.27 0 8.18-2.91 10.13-5.83l1.45 1.78A13.93 13.93 0 01297 95.54c-4 0-6.72-1.62-6.72-6.16 0-4.21.32-11.26.32-14.33a15.17 15.17 0 00-.24-2.68zM325.68 77.56c-1.86.4-3.88.73-5.91 1-.24 1.21-.57 2.51-.89 3.73a88 88 0 01-4.37 12.79l-2.27-.73c1.7-2.91 3.64-8.58 4.7-12.55.24-1 .48-2 .72-3.08-1 .08-1.86.08-2.75.08-1.21 0-2.19-.08-3.24-.08l-.08-1.94a15.41 15.41 0 003.32.16c1 0 1.94-.08 3.08-.16.16-1.06.4-2 .48-2.59a10 10 0 00.09-2.27l2.43.16c-.17.57-.33 1.62-.49 2.19l-.5 2.23a40 40 0 005.51-1zm-1.21 9.88a9.23 9.23 0 00-.41 2.59c0 1.38.65 2.68 4.78 2.68a24.48 24.48 0 005.43-.57l-.08 2a38.55 38.55 0 01-5.35.41c-4.37 0-6.64-1.3-6.64-4.13a14.31 14.31 0 01.41-3.24zm-.57-6.8c1.46-.08 3.24-.25 5.1-.25a46.53 46.53 0 014.86.25l-.08 1.94a30.9 30.9 0 00-4.69-.32 37.57 37.57 0 00-5.19.32zM342.86 92.3a2.15 2.15 0 114.29-.08 2.22 2.22 0 01-2.15 2.19 2.09 2.09 0 01-2.18-2zm.64-16l-.08-3.3h3.08l-.08 3.24-.65 11.26h-1.7zM350.23 92.3a2.15 2.15 0 114.29-.08 2.22 2.22 0 01-2.11 2.19 2.09 2.09 0 01-2.18-2zm.64-16l-.08-3.3h3.08l-.08 3.24-.57 11.26h-1.7z"/></svg>