<?xml version="1.0" encoding="utf-8"?>
<!-- Generator: Adobe Illustrator 23.0.3, SVG Export Plug-In . SVG Version: 6.00 Build 0)  -->
<svg version="1.1" id="レイヤー_1" xmlns="http://www.w3.org/2000/svg" xmlns:xlink="http://www.w3.org/1999/xlink" x="0px"
	 y="0px" viewBox="0 0 290.7 90" style="enable-background:new 0 0 290.7 90;" xml:space="preserve">
<style type="text/css">
	.st0{fill:#FFFFFF;}
</style>
<g>
	<g>
		<g>
			<g>
				<g>
					<g>
						<path class="st0" d="M45,0C7.3,0,0,7.3,0,45s7.3,45,45,45s45-7.3,45-45S82.7,0,45,0z M45,85.5C10,85.5,4.5,80,4.5,45
							S10,4.5,45,4.5S85.5,10,85.5,45S80,85.5,45,85.5z"/>
						<path class="st0" d="M59.4,21c-6.5,0-12,4.2-14.4,10.1C42.6,25.2,37.1,21,30.6,21C24,21,15,25,15,37.8C15,55,37.5,70.3,45,76
							c7.5-5.7,30-21,30-38.2C75,25,66,21,59.4,21z"/>
					</g>
				</g>
			</g>
			<g>
				<g>
					<path class="st0" d="M125.1,12.7c-11.6,0-16.8,7.9-16.8,18.2s5.3,18.2,16.8,18.2c11.6,0,16.8-7.9,16.8-18.2
						C141.9,20.6,136.6,12.7,125.1,12.7z M125.1,42.8c-6,0-9.2-3.8-9.2-12s3.2-12,9.2-12c6,0,9.2,3.8,9.2,12S131.1,42.8,125.1,42.8z
						"/>
					<path class="st0" d="M227.9,13.2c0,0-0.6-0.3-3.2-0.3s-3.2,0.3-3.2,0.3l-12.3,35.2c0,0,0.6,0.3,3.7,0.3c2.8,0,4-0.3,4-0.3
						l7.7-26l0,0l8.2,26c0,0,1.2,0.3,4,0.3c3.1,0,3.7-0.3,3.7-0.3L227.9,13.2z"/>
					<path class="st0" d="M209.7,13c-2.8,0-4,0.3-4,0.3L201,38.5l-6.1-25.3c0,0-0.6-0.3-3.1-0.3s-3.1,0.3-3.1,0.3l-6.1,25.3
						l-4.7-25.3c0,0-1.2-0.3-4-0.3c-3.2,0-3.8,0.3-3.8,0.3l8.5,35.2c0,0,0.6,0.3,3.1,0.3c3.5,0,4.7-0.3,4.7-0.3l5.4-22.4l5.4,22.4
						c0,0,1.2,0.3,4.7,0.3c2.5,0,3.1-0.3,3.1-0.3l8.5-35.2C213.5,13.2,212.9,13,209.7,13z"/>
					<path class="st0" d="M262,13c-2.8,0-4,0.3-4,0.3l-7.8,27.8l-7.8-27.8c0,0-1.2-0.3-4-0.3c-3.2,0-3.8,0.3-3.8,0.3L246,48.4
						c0,0,0.6,0.3,4.2,0.3s4.2-0.3,4.2-0.3l11.3-35.2C265.8,13.2,265.2,13,262,13z"/>
					<g>
						<path class="st0" d="M159.8,30.2l10.8-17c0,0-0.6-0.3-3.8-0.3c-3.1,0-4.2,0.3-4.2,0.3l-10.4,17l11,18.2c0,0,1.2,0.3,4.2,0.3
							c3.2,0,3.8-0.3,3.8-0.3L159.8,30.2z"/>
						<path class="st0" d="M143.7,13.2v35.2c0,0,0.6,0.3,3.7,0.3s3.7-0.3,3.7-0.3V13.2c0,0-0.6-0.3-3.7-0.3
							C144.2,13,143.7,13.2,143.7,13.2z"/>
					</g>
					<path class="st0" d="M274.9,42.2v-8.9h13.2c0,0,0.3-0.6,0.3-3.1s-0.3-3.1-0.3-3.1h-13.2v-7.8h15.5l0,0c0,0,0.3-0.6,0.3-3.1
						s-0.3-3.1-0.3-3.1h-22.8v35.2h22.8c0,0,0.3-0.6,0.3-3.1s-0.3-3.1-0.3-3.1L274.9,42.2L274.9,42.2z"/>
				</g>
			</g>
			<g>
				<g>
					<path class="st0" d="M132,78.1h-2.9l-2.3-6.2h-9.4l-2.2,6.2h-2.9l8.5-22.1h2.7L132,78.1z M126,69.6l-3.5-9.4
						c-0.1-0.3-0.2-0.8-0.3-1.5h-0.1c-0.1,0.6-0.2,1.1-0.4,1.5l-3.4,9.4H126z"/>
					<path class="st0" d="M159.9,56l-6.2,22.1h-3L146,61.9c-0.2-0.7-0.3-1.4-0.4-2.3h-0.1c-0.1,0.8-0.2,1.5-0.4,2.2L140.5,78h-3
						l-6.3-22h2.9l4.7,17c0.2,0.7,0.3,1.4,0.4,2.2h0.1c0.1-0.5,0.2-1.3,0.5-2.2l4.9-17h2.5l4.7,17.1c0.2,0.6,0.3,1.3,0.4,2.1h0.1
						c0-0.5,0.2-1.2,0.4-2.1l4.5-17L159.9,56L159.9,56z"/>
					<path class="st0" d="M178.8,78.1H176l-2.3-6.2h-9.4l-2.2,6.2h-2.9l8.5-22.1h2.7L178.8,78.1z M172.8,69.6l-3.5-9.4
						c-0.1-0.3-0.2-0.8-0.3-1.5h-0.1c-0.1,0.6-0.2,1.1-0.4,1.5l-3.4,9.4H172.8z"/>
					<path class="st0" d="M197.7,78.1h-3.1l-3.7-6.2c-0.3-0.6-0.7-1.1-1-1.5s-0.6-0.7-1-1c-0.3-0.3-0.7-0.4-1.1-0.6
						c-0.4-0.1-0.8-0.2-1.3-0.2h-2.1V78h-2.6V56h6.6c1,0,1.9,0.1,2.7,0.4c0.8,0.2,1.5,0.6,2.1,1.1s1.1,1.1,1.4,1.8
						c0.3,0.7,0.5,1.6,0.5,2.6c0,0.8-0.1,1.5-0.3,2.1c-0.2,0.6-0.6,1.2-1,1.7s-0.9,0.9-1.5,1.3s-1.3,0.6-2,0.8v0.1
						c0.4,0.2,0.7,0.4,1,0.6s0.5,0.5,0.8,0.7c0.2,0.3,0.5,0.6,0.7,1s0.5,0.8,0.8,1.3L197.7,78.1z M184.4,58.3v8h3.5
						c0.6,0,1.2-0.1,1.8-0.3c0.5-0.2,1-0.5,1.4-0.8c0.4-0.4,0.7-0.8,0.9-1.3c0.2-0.5,0.3-1.1,0.3-1.8c0-1.2-0.4-2.1-1.1-2.8
						c-0.8-0.7-1.9-1-3.3-1H184.4z"/>
					<path class="st0" d="M200.6,78.1V56h6.1c7.8,0,11.7,3.6,11.7,10.8c0,3.4-1.1,6.2-3.2,8.2c-2.2,2.1-5.1,3.1-8.7,3.1H200.6z
						 M203.1,58.3v17.4h3.3c2.9,0,5.2-0.8,6.8-2.3c1.6-1.6,2.4-3.8,2.4-6.6c0-5.7-3-8.5-9-8.5C206.6,58.3,203.1,58.3,203.1,58.3z"/>
					<path class="st0" d="M239.6,78.1h-13.3v-2.3l6.4-6.5c1.6-1.6,2.8-3,3.5-4.1s1.1-2.3,1.1-3.5c0-1.3-0.4-2.3-1.1-3
						c-0.7-0.7-1.8-1-3.1-1c-2,0-3.9,0.8-5.7,2.5v-2.7c1.7-1.3,3.7-2,6-2c2,0,3.5,0.5,4.7,1.6c1.1,1.1,1.7,2.5,1.7,4.3
						c0,1.4-0.4,2.8-1.2,4.2c-0.8,1.4-2.2,3-4.2,5l-5.1,5v0.1h10.3L239.6,78.1L239.6,78.1z"/>
					<path class="st0" d="M249.6,78.5c-2.2,0-3.9-0.9-5.1-2.8c-1.2-1.9-1.8-4.6-1.8-8.2c0-3.9,0.6-6.9,1.9-8.9c1.3-2,3.1-3,5.5-3
						c4.6,0,6.9,3.8,6.9,11.3c0,3.7-0.7,6.6-2,8.6C253.8,77.5,251.9,78.5,249.6,78.5z M250,57.7c-3.2,0-4.7,3.2-4.7,9.6
						c0,6,1.5,9,4.6,9s4.6-3,4.6-9.1C254.4,60.9,252.9,57.7,250,57.7z"/>
					<path class="st0" d="M272.5,78.1H260v-2.2h5V58.7l-5.1,1.5v-2.4l7.6-2.3v20.4h5V78.1z"/>
				</g>
			</g>
		</g>
	</g>
	<g>
		<g>
			<g>
				<g>
					<path class="st0" d="M275.5,77.4V75c1.2,0.7,2.5,1,3.9,1c2,0,3.5-0.8,4.7-2.4c1.1-1.6,1.7-3.9,1.7-6.8c0,0,0,0-0.1,0
						c-0.9,1.9-2.6,2.8-4.9,2.8c-1.9,0-3.4-0.6-4.6-1.9s-1.8-2.9-1.8-4.9c0-2.1,0.7-3.9,2-5.3c1.3-1.4,3-2.1,5.1-2.1
						c2.2,0,3.9,0.9,5.1,2.6c1.2,1.7,1.8,4.2,1.8,7.5c0,4.1-0.8,7.2-2.4,9.4c-1.6,2.2-3.8,3.3-6.6,3.3
						C277.9,78.2,276.6,77.9,275.5,77.4z M281.2,57.6c-1.2,0-2.2,0.5-3,1.4c-0.8,0.9-1.2,2.1-1.2,3.5c0,1.5,0.4,2.8,1.2,3.6
						c0.8,0.9,1.9,1.3,3.2,1.3c1.2,0,2.2-0.4,3-1.2c0.8-0.8,1.2-1.8,1.2-3c0-1.7-0.4-3-1.2-4.1C283.6,58.1,282.5,57.6,281.2,57.6z"
						/>
				</g>
			</g>
		</g>
	</g>
</g>
</svg>
