<svg xmlns="http://www.w3.org/2000/svg" width="380" height="380" viewBox="0 0 380 380">
  <g id="グループ_7824" data-name="グループ 7824" transform="translate(-718 -4471)">
    <g id="グループ_3547" data-name="グループ 3547" transform="translate(72 656)">
      <g id="グループ_3550" data-name="グループ 3550" transform="translate(344.5 3725.875)">
        <path id="パス_6601" data-name="パス 6601" d="M491.5,89.125A190.075,190.075,0,0,0,309.213,225.41L491.5,279.125Z" fill="#cae2f2"/>
        <path id="パス_6602" data-name="パス 6602" d="M491.5,89.125v190L309.213,225.41a190.052,190.052,0,0,0-7.713,53.715c0,104.934,85.066,190,190,190s190-85.066,190-190S596.434,89.125,491.5,89.125Z" fill="#0a46c8"/>
      </g>
      <circle id="楕円形_154" data-name="楕円形 154" cx="113" cy="113" r="113" transform="translate(723 3892)" fill="#fff"/>
      <path id="パス_10020" data-name="パス 10020" d="M-93.434-7.436H-106.04V-4.95h11.286c-.836,1.914-1.958,4.268-2.926,6.16l2.772.77c1.364-2.794,2.948-6.226,4.026-8.91l-2.09-.616Zm-8.866-4.51a24.983,24.983,0,0,0,3.872-4.268,26.219,26.219,0,0,0,4,4.268Zm2.442-6.82a26.183,26.183,0,0,1-8.91,8.316,10.275,10.275,0,0,1,1.65,2.09,29.82,29.82,0,0,0,4.07-2.926v1.76h9.328v-1.826A31.334,31.334,0,0,0-89.562-8.4a12.435,12.435,0,0,1,1.716-2.288,25.476,25.476,0,0,1-9.394-8.074Zm17.446.154a18.382,18.382,0,0,1-4.312,4.356,20.02,20.02,0,0,1,1.364,1.914A27.047,27.047,0,0,0-80.1-17.71Zm.4,4.686a18.467,18.467,0,0,1-4.906,5.654A15.891,15.891,0,0,1-85.558-5.83a19.477,19.477,0,0,0,1.716-1.628V1.958H-81.4V-10.406a29.482,29.482,0,0,0,1.672-2.662ZM-75.592-5.3h4.268a9.8,9.8,0,0,1-2.112,2.156A10.045,10.045,0,0,1-75.614-5.28Zm6.05-2.046-.418.088h-3.982c.308-.418.594-.858.858-1.3,1.43-.044,2.926-.088,4.378-.154A12.7,12.7,0,0,1-67.98-7.26l2.2-1.232a21.691,21.691,0,0,0-3.344-4.818l-2.024,1.122c.374.44.748.9,1.1,1.408l-3.938.066a70.309,70.309,0,0,0,5.39-5.1l-2.31-1.276A39.473,39.473,0,0,1-74.448-13.2,16.541,16.541,0,0,0-75.7-14.3c.924-.924,2-2.112,2.948-3.256l-2.266-1.166a22.786,22.786,0,0,1-2.354,3.19c-.418-.286-.836-.55-1.21-.792l-1.562,1.694a25.026,25.026,0,0,1,3.872,3.124c-.308.286-.638.572-.946.836-1.254.022-2.4.022-3.388.022l.22,2.31,4.4-.132A14.2,14.2,0,0,1-80.894-4.4,15.247,15.247,0,0,1-79.2-2.464a21.281,21.281,0,0,0,1.98-1.364,11.984,11.984,0,0,0,1.738,1.914A19.02,19.02,0,0,1-80.894-.2,8.509,8.509,0,0,1-79.64,2.024,21.5,21.5,0,0,0-73.414-.33a17.821,17.821,0,0,0,6.072,2.31A9.782,9.782,0,0,1-65.78-.264,19.741,19.741,0,0,1-71.258-1.87a12.017,12.017,0,0,0,3.344-4.752ZM-50.974-9A6.048,6.048,0,0,1-48.73-4.774c0,1.8-1.672,3.19-4.708,3.19-2.156,0-3.256-.99-3.256-2.772,0-.4.044-.946.088-1.584h.88c1.342,0,2.618-.088,3.85-.2l.066-2.6a43.218,43.218,0,0,1-4.378.264h-.154c.11-.968.242-2,.374-2.97a39.042,39.042,0,0,0,4.246-.2l.088-2.6a31.974,31.974,0,0,1-4,.264c.11-.7.176-1.276.242-1.65.088-.572.2-1.144.374-1.936l-3.058-.176a13.722,13.722,0,0,1-.044,1.936c-.044.484-.088,1.078-.176,1.738a20.2,20.2,0,0,1-4.466-.814l-.154,2.53a27.232,27.232,0,0,0,4.334.77c-.132.99-.242,2-.374,2.97a18.546,18.546,0,0,1-4.29-.858L-63.4-6.82a24.431,24.431,0,0,0,4.18.726c-.088.9-.154,1.672-.154,2.2,0,3.63,2.42,5.126,5.852,5.126,4.774,0,7.722-2.376,7.722-5.654a8.1,8.1,0,0,0-2.112-5.236ZM-24.134.484c-.044-.66-.088-1.826-.088-2.6v-11.4c0-.638.044-1.518.066-2.024-.374.022-1.3.044-1.936.044H-37.158c-.77,0-1.914-.044-2.728-.132v3.058c.616-.044,1.8-.088,2.728-.088h9.878v9.108H-37.422c-.99,0-1.98-.066-2.75-.132V-.528c.726-.066,1.98-.132,2.838-.132H-27.3c0,.418,0,.792-.022,1.144Zm9.064-17.71-1.034,2.6A75.474,75.474,0,0,1-4.2-11.88l1.122-2.75A80.341,80.341,0,0,0-15.07-17.226Zm-1.012,5.918-1.012,2.662A76.488,76.488,0,0,1-5.654-5.874l1.078-2.75A90.693,90.693,0,0,0-16.082-11.308ZM-17.2-5.016l-1.1,2.772A78.488,78.488,0,0,1-4.862,1.034l1.21-2.75A88.551,88.551,0,0,0-17.2-5.016ZM16.06-2.4c.33-2.09.9-5.874,1.078-7.172a6.132,6.132,0,0,1,.22-.924l-2.112-1.034a5.22,5.22,0,0,1-1.65.242H7.964c-.594,0-1.606-.066-2.178-.132v2.9c.638-.044,1.5-.11,2.2-.11h5.94c-.066,1.232-.55,4.356-.858,6.226H5.94a21.135,21.135,0,0,1-2.178-.11V.352C4.6.308,5.148.286,5.94.286H17.534c.572,0,1.65.044,2.09.066V-2.486c-.572.066-1.584.088-2.156.088ZM24.552-.814c.814-.066,1.892-.132,2.75-.132H39.93a23.9,23.9,0,0,1,2.42.132V-4.18a22.335,22.335,0,0,1-2.42.154H27.3c-.858,0-1.892-.088-2.75-.154ZM26.4-11.748c.748-.044,1.76-.088,2.6-.088h9.086c.77,0,1.8.066,2.442.088v-3.19c-.616.066-1.562.132-2.442.132H28.974c-.748,0-1.782-.044-2.574-.132Zm33.88-2.376c.77,0,1.606.044,2.376.088v-2.838a17.236,17.236,0,0,1-2.376.154H51.436a16.392,16.392,0,0,1-2.332-.154v2.838c.66-.044,1.584-.088,2.354-.088ZM48.642-11.11c-.682,0-1.452-.066-2.112-.132V-8.36c.616-.044,1.474-.088,2.112-.088h6.05a9.454,9.454,0,0,1-1.364,4.862A9.139,9.139,0,0,1,49.346-.44L51.92,1.43a10.556,10.556,0,0,0,4.422-4.224A13.957,13.957,0,0,0,57.75-8.448h5.3c.616,0,1.452.022,2,.066v-2.86a16.928,16.928,0,0,1-2,.132Zm32.406-2.684a21.9,21.9,0,0,1-5.654,4.576,29.381,29.381,0,0,1-7.766,2.97L69.1-3.7a41.212,41.212,0,0,0,6.2-2.4V-.44a23,23,0,0,1-.11,2.376h3.256A12.248,12.248,0,0,1,78.3-.44V-7.766a27.453,27.453,0,0,0,4.95-3.982Zm20,10.626c-.022-.99-.066-2.6-.088-3.806,1.342-.616,2.574-1.1,3.542-1.474a23.1,23.1,0,0,1,2.6-.924L106-11.9c-.792.374-1.562.748-2.4,1.122-.9.4-1.826.77-2.948,1.3a2.968,2.968,0,0,0-2.9-1.694,6.818,6.818,0,0,0-2.464.44,13.308,13.308,0,0,0,1.254-2.2,70.975,70.975,0,0,0,7.106-.572l.022-2.552a50.309,50.309,0,0,1-6.16.638c.264-.88.418-1.628.528-2.156l-2.86-.242a12.124,12.124,0,0,1-.44,2.486H93.676a27.952,27.952,0,0,1-3.828-.242v2.552c1.188.11,2.794.154,3.674.154h.264a21.3,21.3,0,0,1-4.8,5.984l2.332,1.738a27.9,27.9,0,0,1,2.024-2.4,5.392,5.392,0,0,1,3.41-1.5,1.7,1.7,0,0,1,1.518.748c-2.486,1.276-5.126,3.036-5.126,5.808,0,2.816,2.574,3.63,5.984,3.63a60.278,60.278,0,0,0,6.16-.352l.088-2.838a33.324,33.324,0,0,1-6.182.638c-2.134,0-3.168-.33-3.168-1.54,0-1.078.88-1.936,2.486-2.816-.022.946-.044,1.958-.088,2.6Zm-159.3,27.444h3.784v-2.4h-3.784V18.6a28.6,28.6,0,0,0,3.718-1.144l-1.848-2.024A37.152,37.152,0,0,1-65.23,17.7a8.208,8.208,0,0,1,.748,2.046c1.188-.154,2.442-.352,3.7-.594v2.728h-4.18v2.4h3.674a21.31,21.31,0,0,1-4.18,6.336,14.724,14.724,0,0,1,1.32,2.552,21.887,21.887,0,0,0,3.366-5.17V35.87h2.53V28.28c.88.9,1.8,1.892,2.332,2.574l1.518-2.244c-.594-.462-2.772-2.332-3.85-3.146Zm7.37-6.248h-2.552v12.3h2.552Zm2.64-2.244V32.7c0,.4-.176.528-.594.55-.462,0-1.87,0-3.3-.066a10.041,10.041,0,0,1,.9,2.706,10.833,10.833,0,0,0,4.378-.506c.9-.418,1.21-1.144,1.21-2.662V15.784ZM-31.46,27.026V24.32h4.642v2.706Zm-6.842,0c.044-.814.066-1.606.066-2.31v-.4H-34.1v2.706Zm4.2-7.7v2.552h-4.136V19.326Zm7.282,2.552H-31.46V19.326h4.642Zm2.6-5.038h-16.61v7.854c0,3.08-.2,7-2.6,9.636a9.664,9.664,0,0,1,2.068,1.694,12.6,12.6,0,0,0,2.772-6.534H-34.1v6.138h2.64V29.49h4.642v3.3c0,.4-.154.528-.572.528-.4,0-1.848.022-3.08-.044a9.891,9.891,0,0,1,.836,2.508,10.216,10.216,0,0,0,4.224-.462c.88-.4,1.188-1.1,1.188-2.508Zm6.908-.264a13.679,13.679,0,0,1,.286,2.948c0,1.87-.22,7.59-.22,10.516,0,3.718,2.31,5.28,5.874,5.28a11.338,11.338,0,0,0,9.46-4.972l-1.98-2.442c-1.562,2.376-3.85,4.444-7.458,4.444-1.672,0-2.992-.7-2.992-2.9,0-2.706.154-7.59.264-9.922a22.359,22.359,0,0,1,.286-2.9Zm29.04,9.086a32.009,32.009,0,0,1,4.2-.242,31.469,31.469,0,0,1,3.74.264l.066-2.618a37.825,37.825,0,0,0-3.828-.2c-1.408,0-2.97.11-4.18.22Zm1.716-7c-1.188.286-2.42.528-3.652.726l.176-.836c.11-.484.308-1.452.462-2.046l-3.322-.264a11.311,11.311,0,0,1-.088,2.2q-.066.528-.2,1.254c-.66.044-1.3.066-1.936.066a21.448,21.448,0,0,1-2.75-.176L2.2,22.318c.77.044,1.584.088,2.64.088.44,0,.924-.022,1.43-.044-.154.616-.308,1.232-.462,1.8a48.036,48.036,0,0,1-3.762,9.812L5.1,34.99A70.264,70.264,0,0,0,8.558,24.914c.242-.88.462-1.848.66-2.794,1.452-.176,2.926-.418,4.224-.7Zm-3.058,9.658a14.953,14.953,0,0,0-.374,2.9c0,2.2,1.87,3.476,5.544,3.476A34.863,34.863,0,0,0,20,34.4l.11-2.794a25.258,25.258,0,0,1-4.532.44c-2.332,0-2.882-.7-2.882-1.65A7.537,7.537,0,0,1,13,28.566Zm17.38-9.988-3.344-.044a12.626,12.626,0,0,1,.154,2.2c0,1.342.044,3.872.242,5.874.616,5.852,2.706,8.008,5.082,8.008,1.76,0,3.124-1.342,4.576-5.126l-2.2-2.64c-.418,1.716-1.276,4.268-2.31,4.268-1.364,0-2.024-2.134-2.332-5.28-.132-1.562-.154-3.212-.132-4.62A17.264,17.264,0,0,1,27.764,18.336Zm10.89.462-2.772.924c2.376,2.684,3.542,7.81,3.872,11.308l2.882-1.1C42.394,26.586,40.722,21.328,38.654,18.8ZM50.93,16.356a24.121,24.121,0,0,1-.462,4.62c-1.1.088-2.134.154-2.816.176a20.229,20.229,0,0,1-2.31,0l.242,2.948c.682-.11,1.8-.264,2.42-.33.418-.066,1.1-.154,1.87-.242-.792,2.97-2.266,7.326-4.4,10.186l2.86,1.144c2-3.212,3.586-8.338,4.422-11.638.616-.044,1.144-.088,1.5-.088,1.386,0,2.134.242,2.134,1.98a16.113,16.113,0,0,1-.9,5.962,1.584,1.584,0,0,1-1.628.946,12.537,12.537,0,0,1-2.662-.462l.484,2.882a12.162,12.162,0,0,0,2.6.308,3.5,3.5,0,0,0,3.586-2c.924-1.892,1.232-5.368,1.232-7.942,0-3.124-1.628-4.158-3.938-4.158-.44,0-1.1.044-1.826.088.154-.792.33-1.584.44-2.244.11-.55.264-1.232.4-1.8Zm8.118,3.476a25.162,25.162,0,0,1,3.7,8.294l2.75-1.3a39.268,39.268,0,0,0-3.806-8.1Z" transform="translate(836 3998)" fill="#0b3880"/>
    </g>
    <path id="パス_10021" data-name="パス 10021" d="M-20.976,0h1.888c.192-4.608.624-7.2,3.392-10.656v-1.12H-23.28v1.552h5.536C-20.016-7.056-20.768-4.3-20.976,0ZM-10.64-5.76c-1.232,0-1.9-.864-1.9-2.368,0-1.536.8-2.448,1.808-2.448,1.28,0,2.16,1.056,2.336,3.376A2.824,2.824,0,0,1-10.64-5.76Zm-3.424,4.72A4.041,4.041,0,0,0-11.056.208c2.272,0,4.384-1.856,4.384-6.5C-6.672-10.176-8.5-12-10.752-12a3.6,3.6,0,0,0-3.5,3.872c0,2.464,1.328,3.7,3.3,3.7A3.541,3.541,0,0,0-8.368-5.808C-8.48-2.448-9.712-1.3-11.136-1.3a2.625,2.625,0,0,1-1.936-.88ZM-3.44.208a1.224,1.224,0,0,0,1.232-1.28A1.252,1.252,0,0,0-3.44-2.384,1.252,1.252,0,0,0-4.672-1.072,1.224,1.224,0,0,0-3.44.208ZM2.032,0H3.92c.192-4.608.624-7.2,3.392-10.656v-1.12H-.272v1.552H5.264C2.992-7.056,2.24-4.3,2.032,0Zm9.84-4.736c1.664,0,2.768-1.376,2.768-3.76,0-2.352-1.1-3.712-2.768-3.712-1.648,0-2.768,1.36-2.768,3.712C9.1-6.112,10.224-4.736,11.872-4.736Zm0-1.1c-.816,0-1.408-.832-1.408-2.656,0-1.808.592-2.624,1.408-2.624.848,0,1.424.816,1.424,2.624C13.3-6.672,12.72-5.84,11.872-5.84Zm8.4,5.888c1.648,0,2.768-1.376,2.768-3.76,0-2.368-1.12-3.712-2.768-3.712S17.488-6.08,17.488-3.712C17.488-1.328,18.624.048,20.272.048Zm0-1.1c-.832,0-1.424-.832-1.424-2.656s.592-2.624,1.424-2.624,1.424.8,1.424,2.624S21.1-1.056,20.272-1.056ZM12.24.048h1.168l6.48-12.256H18.72Z" transform="translate(908 4812)" fill="#fff"/>
  </g>
</svg>
