<svg xmlns="http://www.w3.org/2000/svg" width="1160" height="529.421" viewBox="0 0 1160 529.421">
  <g id="グループ_7834" data-name="グループ 7834" transform="translate(-140 -2616)">
    <rect id="長方形_3240" data-name="長方形 3240" width="692.971" height="66.632" transform="translate(140 2616)" fill="#0a46c8"/>
    <rect id="長方形_3242" data-name="長方形 3242" width="692.971" height="411.906" transform="translate(140 2733.514)" fill="#fff"/>
    <rect id="長方形_3244" data-name="長方形 3244" width="231.032" height="411.906" transform="translate(140 2733.514)" fill="#fff"/>
    <rect id="長方形_3245" data-name="長方形 3245" width="231.032" height="411.906" transform="translate(371.394 2733.514)" fill="#fff"/>
    <rect id="長方形_3246" data-name="長方形 3246" width="231.032" height="411.906" transform="translate(601.577 2733.514)" fill="#fff"/>
    <rect id="長方形_3241" data-name="長方形 3241" width="466.423" height="66.632" transform="translate(832.971 2616)" fill="#f50a00"/>
    <rect id="長方形_3247" data-name="長方形 3247" width="233.211" height="411.906" transform="translate(832.971 2733.514)" fill="#fcf2ef"/>
    <rect id="長方形_3248" data-name="長方形 3248" width="233.211" height="411.906" transform="translate(1066.788 2733.514)" fill="#fcf2ef"/>
    <g id="male" transform="translate(1199.301 2857.086)">
      <path id="パス_6173" data-name="パス 6173" d="M219.559,173.308a28.47,28.47,0,1,1-42.178,0" transform="translate(-170 -155.382)" fill="none" stroke="#000" stroke-linecap="round" stroke-linejoin="round" stroke-width="1.5"/>
      <path id="パス_6174" data-name="パス 6174" d="M191.926,187.308v4.218a2.325,2.325,0,0,1-2.109,2.109l-7.381,1.054c-5.272,1.054-8.436,5.272-8.436,11.6" transform="translate(-169.782 -154.62)" fill="none" stroke="#000" stroke-linecap="round" stroke-linejoin="round" stroke-width="1.5"/>
      <path id="パス_6175" data-name="パス 6175" d="M203,187.308v4.218a2.324,2.324,0,0,0,2.109,2.109l7.381,1.054a9.813,9.813,0,0,1,6.471,4.219" transform="translate(-168.203 -154.62)" fill="none" stroke="#000" stroke-linecap="round" stroke-linejoin="round" stroke-width="1.5"/>
      <path id="パス_6176" data-name="パス 6176" d="M189,193.308s1.054,4.218,8.436,4.218,8.436-4.218,8.436-4.218" transform="translate(-168.966 -154.294)" fill="none" stroke="#000" stroke-linecap="round" stroke-linejoin="round" stroke-width="1.5"/>
      <path id="パス_6177" data-name="パス 6177" d="M184,207.308v7.381" transform="translate(-169.238 -153.531)" fill="none" stroke="#000" stroke-linecap="round" stroke-linejoin="round" stroke-width="1.5"/>
      <path id="パス_6178" data-name="パス 6178" d="M210,207.308v7.381" transform="translate(-167.822 -153.531)" fill="none" stroke="#000" stroke-linecap="round" stroke-linejoin="round" stroke-width="1.5"/>
      <path id="パス_6179" data-name="パス 6179" d="M185.163,178.526h-1.054a2.109,2.109,0,1,1,0-4.218h1.054" transform="translate(-169.347 -155.328)" fill="none" stroke="#000" stroke-linecap="round" stroke-linejoin="round" stroke-width="1.5"/>
      <path id="パス_6180" data-name="パス 6180" d="M209,178.526h1.054a2.109,2.109,0,0,0,0-4.218H209" transform="translate(-167.877 -155.328)" fill="none" stroke="#000" stroke-linecap="round" stroke-linejoin="round" stroke-width="1.5"/>
      <path id="パス_6181" data-name="パス 6181" d="M213.688,177.4a21.439,21.439,0,0,0,1.054-5.272c0-2.108-.91-4.009-2.109-6.327a7.676,7.676,0,0,0,2.109-5.272h-3.163v-4.218a22.985,22.985,0,0,1-6.327,1.054c-2.109,0-4.737-1.054-7.381-1.054-9.319,0-16.871,6.327-16.871,14.762a22.986,22.986,0,0,0,1.054,6.327" transform="translate(-169.401 -156.308)" fill="none" stroke="#000" stroke-linecap="round" stroke-linejoin="round" stroke-width="1.5"/>
      <path id="パス_6182" data-name="パス 6182" d="M210.307,170.6a12.216,12.216,0,0,0-1.565-3.576,15.571,15.571,0,0,1-3.707.412c-4.683,0-16.153-4.836-18.342-1.054A12.594,12.594,0,0,0,185,172.709v2.109" transform="translate(-169.183 -155.838)" fill="none" stroke="#000" stroke-linecap="round" stroke-linejoin="round" stroke-width="1.5"/>
      <path id="パス_6183" data-name="パス 6183" d="M185.166,178.31a12.656,12.656,0,0,0,24.963-.032" transform="translate(-169.174 -155.112)" fill="none" stroke="#000" stroke-linecap="round" stroke-linejoin="round" stroke-width="1.5"/>
    </g>
    <g id="businessman" transform="translate(227.227 2748.052)">
      <path id="パス_6184" data-name="パス 6184" d="M186.218,510.308h-2.109a2.109,2.109,0,1,0,0,4.218h1.054" transform="translate(-169.347 -491.328)" fill="none" stroke="#0b3880" stroke-linecap="round" stroke-linejoin="round" stroke-width="1.5"/>
      <path id="パス_6185" data-name="パス 6185" d="M209.054,514.526h1.054a2.109,2.109,0,0,0,0-4.218H208" transform="translate(-167.931 -491.328)" fill="none" stroke="#0b3880" stroke-linecap="round" stroke-linejoin="round" stroke-width="1.5"/>
      <path id="パス_6186" data-name="パス 6186" d="M185.166,514.31a12.656,12.656,0,0,0,24.963-.031" transform="translate(-169.174 -491.112)" fill="none" stroke="#0b3880" stroke-linecap="round" stroke-linejoin="round" stroke-width="1.5"/>
      <path id="パス_6187" data-name="パス 6187" d="M218.5,508.308a27.912,27.912,0,0,1,8.436,20.034,28.47,28.47,0,1,1-56.94,0,27.912,27.912,0,0,1,8.436-20.034" transform="translate(-170 -491.437)" fill="none" stroke="#0b3880" stroke-linecap="round" stroke-linejoin="round" stroke-width="1.5"/>
      <path id="パス_6188" data-name="パス 6188" d="M186,510.961v-5.272a3.164,3.164,0,0,1,3.163-3.163h1.054l4.218-4.218s1.054,4.218,6.327,4.218" transform="translate(-169.129 -491.981)" fill="none" stroke="#0b3880" stroke-linecap="round" stroke-linejoin="round" stroke-width="1.5"/>
      <path id="パス_6189" data-name="パス 6189" d="M208.218,506.526v-1.054a3.164,3.164,0,0,0-3.163-3.163H204" transform="translate(-168.149 -491.764)" fill="none" stroke="#0b3880" stroke-linecap="round" stroke-linejoin="round" stroke-width="1.5"/>
      <path id="パス_6190" data-name="パス 6190" d="M213.633,513.4v-5.272c0-2.108.144-4.008-1.054-6.327a7.677,7.677,0,0,0,2.109-5.272v-3.163H205.2c-2.109,0-4.737-1.054-7.381-1.054-9.319,0-15.817,6.327-15.817,14.762V513.4" transform="translate(-169.347 -492.308)" fill="none" stroke="#0b3880" stroke-linecap="round" stroke-linejoin="round" stroke-width="1.5"/>
      <path id="パス_6191" data-name="パス 6191" d="M198.218,537.58a2.065,2.065,0,0,0,2.109-2.109v-3.163H194v3.163a2.065,2.065,0,0,0,2.109,2.109Z" transform="translate(-168.693 -490.13)" fill="none" stroke="#0b3880" stroke-linecap="round" stroke-linejoin="round" stroke-width="1.5"/>
      <path id="パス_6192" data-name="パス 6192" d="M194.436,532.8h-1.054s-3.163,5.272-6.327,5.272H186v-8.436a7.761,7.761,0,0,1,5.272-6.327" transform="translate(-169.129 -490.62)" fill="none" stroke="#0b3880" stroke-linecap="round" stroke-linejoin="round" stroke-width="1.5"/>
      <line id="線_136" data-name="線 136" x1="1.816" y2="17.252" transform="translate(24.486 47.216)" fill="none" stroke="#0b3880" stroke-linecap="round" stroke-linejoin="round" stroke-width="1.5"/>
      <line id="線_137" data-name="線 137" x2="1.816" y2="17.252" transform="translate(30.842 47.216)" fill="none" stroke="#0b3880" stroke-linecap="round" stroke-linejoin="round" stroke-width="1.5"/>
      <path id="パス_6193" data-name="パス 6193" d="M186.561,529.749l-4.125.589c-5.272,1.055-8.436,5.272-8.436,11.6" transform="translate(-169.782 -490.27)" fill="none" stroke="#0b3880" stroke-linecap="round" stroke-linejoin="round" stroke-width="1.5"/>
      <path id="パス_6194" data-name="パス 6194" d="M200,532.8h1.054s3.163,5.272,6.327,5.272h1.054v-8.436a7.763,7.763,0,0,0-5.272-6.327" transform="translate(-168.367 -490.62)" fill="none" stroke="#0b3880" stroke-linecap="round" stroke-linejoin="round" stroke-width="1.5"/>
      <path id="パス_6195" data-name="パス 6195" d="M208.088,529.749l4.125.589a9.813,9.813,0,0,1,6.471,4.219" transform="translate(-167.926 -490.27)" fill="none" stroke="#0b3880" stroke-linecap="round" stroke-linejoin="round" stroke-width="1.5"/>
      <path id="パス_6196" data-name="パス 6196" d="M191,523.308v5.272s0,4.218,3.163,4.218" transform="translate(-168.857 -490.62)" fill="none" stroke="#0b3880" stroke-linecap="round" stroke-linejoin="round" stroke-width="1.5"/>
      <path id="パス_6197" data-name="パス 6197" d="M203.163,523.308v5.272s0,4.218-3.163,4.218" transform="translate(-168.367 -490.62)" fill="none" stroke="#0b3880" stroke-linecap="round" stroke-linejoin="round" stroke-width="1.5"/>
      <path id="パス_6198" data-name="パス 6198" d="M183,550.308" transform="translate(-169.292 -489.15)" fill="none" stroke="#0b3880" stroke-linecap="round" stroke-linejoin="round" stroke-width="1.5"/>
    </g>
    <text id="サポートコスト" transform="translate(140 2719.227)" fill="#0b3880" font-size="14" font-family="NotoSansCJKjp-Medium, Noto Sans CJK JP" font-weight="500"><tspan x="0" y="0">サポートコスト</tspan></text>
    <text id="企業が手をかけて対応すべきサポート" transform="translate(322.935 2656.172)" fill="#fff" font-size="19" font-family="NotoSansCJKjp-Bold, Noto Sans CJK JP" font-weight="700"><tspan x="0" y="0">企業</tspan><tspan y="0">が</tspan><tspan y="0">手</tspan><tspan y="0">をかけて</tspan><tspan y="0">対応</tspan><tspan y="0">すべきサポート</tspan></text>
    <text id="自己解決可能" transform="translate(1008.637 2656.172)" fill="#fff" font-size="19" font-family="NotoSansCJKjp-Bold, Noto Sans CJK JP" font-weight="700"><tspan x="0" y="0">自己解決可能</tspan></text>
    <text id="直接対応" transform="translate(254.016 2834.319)" fill="#0b3880" font-size="14" font-family="NotoSansCJKjp-Medium, Noto Sans CJK JP" font-weight="500"><tspan x="-28" y="0">直接対応</tspan></text>
    <text id="_4次対応" data-name="4次対応" transform="translate(254.65 3128.71)" fill="#0b3880" font-size="14" font-family="NotoSansCJKjp-Medium, Noto Sans CJK JP" font-weight="500"><tspan x="-24.99" y="0">4次対応</tspan></text>
    <text id="電話対応" transform="translate(485.41 2962.736)" fill="#0b3880" font-size="14" font-family="NotoSansCJKjp-Medium, Noto Sans CJK JP" font-weight="500"><tspan x="-28" y="0">電話対応</tspan></text>
    <text id="_3次対応" data-name="3次対応" transform="translate(486.044 3128.71)" fill="#0b3880" font-size="14" font-family="NotoSansCJKjp-Medium, Noto Sans CJK JP" font-weight="500"><tspan x="-24.99" y="0">3次対応</tspan></text>
    <text id="メール対応" transform="translate(715.324 3057.232)" fill="#0b3880" font-size="14" font-family="NotoSansCJKjp-Medium, Noto Sans CJK JP" font-weight="500"><tspan x="-35" y="0">メール</tspan><tspan y="0">対応</tspan></text>
    <text id="FAQ" transform="translate(942.679 3057.232)" fill="#f50a00" font-size="14" font-family="NotoSansCJKjp-Bold, Noto Sans CJK JP" font-weight="700"><tspan x="-13.58" y="0">FAQ</tspan></text>
    <text id="_2次対応" data-name="2次対応" transform="translate(716.227 3128.71)" fill="#0b3880" font-size="14" font-family="NotoSansCJKjp-Medium, Noto Sans CJK JP" font-weight="500"><tspan x="-24.99" y="0">2次対応</tspan></text>
    <text id="_1次対応" data-name="1次対応" transform="translate(953.679 3128.71)" fill="#f50a00" font-size="14" font-family="NotoSansCJKjp-Medium, Noto Sans CJK JP" font-weight="500"><tspan x="-24.99" y="0">1次対応</tspan></text>
    <text id="_0次対応" data-name="0次対応" transform="translate(1182.65 3128.71)" fill="#f50a00" font-size="14" font-family="NotoSansCJKjp-Medium, Noto Sans CJK JP" font-weight="500"><tspan x="-24.99" y="0">0次対応</tspan></text>
    <text id="サポート範囲を拡大" transform="translate(1179.825 2719.016)" fill="#f50a00" font-size="15" font-family="NotoSansCJKjp-Bold, Noto Sans CJK JP" font-weight="700"><tspan x="-67.5" y="0">サポート</tspan><tspan y="0">範囲</tspan><tspan y="0">を</tspan><tspan y="0">拡大</tspan></text>
    <text id="ユーザーサポート_コミュニティ" data-name="ユーザーサポート
コミュニティ" transform="translate(1179.248 3073.559)" fill="#f50a00" font-size="16" font-family="NotoSansCJKjp-Bold, Noto Sans CJK JP" font-weight="700"><tspan x="-63.68" y="0">ユーザーサポート</tspan><tspan x="-47.52" y="18">コミュニティ</tspan></text>
    <text id="OKBIZ._for_Community_Support" data-name="OKBIZ. for Community Support" transform="translate(1179.269 3031.791)" font-size="14" font-family="NotoSansCJKjp-Medium, Noto Sans CJK JP" font-weight="500"><tspan x="-103.964" y="0">OKBIZ. for Community Support</tspan></text>
    <g id="email" transform="translate(694.861 3008.077)">
      <path id="パス_2241-2" data-name="パス 2241-2" d="M297.8,10.6V33.855c-.007,1.832-1.767,3.316-3.938,3.32H258.413c-2.172,0-3.931-1.488-3.938-3.32V10.6" transform="translate(-254.475 -10.602)" fill="none" stroke="#0053a5" stroke-linecap="round" stroke-linejoin="round" stroke-width="1.5"/>
      <path id="パス_2242-2" data-name="パス 2242-2" d="M297.8,10.6,278.454,24.13a4.543,4.543,0,0,1-4.632,0L254.477,10.6Z" transform="translate(-254.475 -10.602)" fill="none" stroke="#0053a5" stroke-linecap="round" stroke-linejoin="round" stroke-width="1.5"/>
      <line id="線_119-2" data-name="線 119-2" x2="43.322" transform="translate(0)" fill="none" stroke="#0053a5" stroke-linecap="round" stroke-linejoin="round" stroke-width="1.5"/>
    </g>
    <g id="グループ_3534" data-name="グループ 3534" transform="translate(953.64 2964.303)">
      <path id="パス_6537" data-name="パス 6537" d="M143.542,285.468a1.539,1.539,0,1,1,1.666-1.534A1.606,1.606,0,0,1,143.542,285.468Z" transform="translate(-134.64 -260.695)" fill="#f50a00"/>
      <path id="パス_6538" data-name="パス 6538" d="M143.542,299.088a1.539,1.539,0,1,1,1.666-1.534A1.606,1.606,0,0,1,143.542,299.088Z" transform="translate(-134.64 -264.282)" fill="#f50a00"/>
      <path id="パス_6539" data-name="パス 6539" d="M143.542,312.853a1.539,1.539,0,1,1,1.666-1.534A1.606,1.606,0,0,1,143.542,312.853Z" transform="translate(-134.64 -267.908)" fill="#f50a00"/>
      <path id="パス_6540" data-name="パス 6540" d="M151.863,252.935c-10.641,0-18.976,4.585-18.976,10.439v20.351l-.057,10.039c0,5.854,8.335,10.439,18.976,10.439s18.976-4.585,18.976-10.433l.056-10.033h0V263.374C170.838,257.52,162.5,252.935,151.863,252.935Zm0,2.21c8.985,0,16.575,3.768,16.575,8.229s-7.59,8.229-16.575,8.229-16.576-3.768-16.576-8.229S142.878,255.145,151.863,255.145Zm16.519,38.619c0,4.461-7.591,8.229-16.575,8.229s-16.576-3.768-16.576-8.223l.028-4.914c3.209,3.195,9.372,5.314,16.6,5.314,7.189,0,13.321-2.095,16.546-5.258Zm.056-10.039v.007c0,4.46-7.59,8.228-16.575,8.228s-16.576-3.769-16.576-8.229V279c3.217,3.179,9.364,5.286,16.576,5.286s13.358-2.107,16.575-5.286Zm0-9.881c0,4.46-7.59,8.229-16.575,8.229s-16.576-3.769-16.576-8.229v-5.317c3.217,3.179,9.364,5.286,16.576,5.286s13.358-2.107,16.575-5.286Z" transform="translate(-132.831 -252.935)" fill="#f50a00"/>
    </g>
    <g id="male_with_glasses" data-name="male with glasses" transform="translate(1103.703 2817.107)">
      <path id="パス_6541" data-name="パス 6541" d="M73,511.288v-6.327a12.653,12.653,0,1,1,25.307,0v2.109" transform="translate(-57.183 -492.308)" fill="none" stroke="#000" stroke-linecap="round" stroke-linejoin="round" stroke-width="1.5"/>
      <path id="パス_6542" data-name="パス 6542" d="M79.926,523.308v4.218a2.324,2.324,0,0,1-2.109,2.109l-7.381,1.054c-5.272,1.054-8.436,5.272-8.436,11.6" transform="translate(-57.782 -490.62)" fill="none" stroke="#000" stroke-linecap="round" stroke-linejoin="round" stroke-width="1.5"/>
      <path id="パス_6543" data-name="パス 6543" d="M91,523.308v4.218a2.324,2.324,0,0,0,2.109,2.109l7.381,1.054a9.813,9.813,0,0,1,6.471,4.219" transform="translate(-56.203 -490.62)" fill="none" stroke="#000" stroke-linecap="round" stroke-linejoin="round" stroke-width="1.5"/>
      <path id="パス_6544" data-name="パス 6544" d="M77,529.308s1.054,4.218,8.436,4.218,8.436-4.218,8.436-4.218" transform="translate(-56.966 -490.294)" fill="none" stroke="#000" stroke-linecap="round" stroke-linejoin="round" stroke-width="1.5"/>
      <path id="パス_6545" data-name="パス 6545" d="M73,530.308s1.054,7.381,12.653,7.381,12.653-7.381,12.653-7.381" transform="translate(-57.183 -490.239)" fill="none" stroke="#000" stroke-linecap="round" stroke-linejoin="round" stroke-width="1.5"/>
      <path id="パス_6546" data-name="パス 6546" d="M72,543.308v7.381" transform="translate(-57.238 -489.531)" fill="none" stroke="#000" stroke-linecap="round" stroke-linejoin="round" stroke-width="1.5"/>
      <path id="パス_6547" data-name="パス 6547" d="M98,543.308v7.381" transform="translate(-55.822 -489.531)" fill="none" stroke="#000" stroke-linecap="round" stroke-linejoin="round" stroke-width="1.5"/>
      <path id="パス_6548" data-name="パス 6548" d="M73.163,510.308H72.109a2.109,2.109,0,1,0,0,4.218h1.054" transform="translate(-57.347 -491.328)" fill="none" stroke="#000" stroke-linecap="round" stroke-linejoin="round" stroke-width="1.5"/>
      <path id="パス_6549" data-name="パス 6549" d="M97,514.526h1.054a2.109,2.109,0,1,0,0-4.218H97" transform="translate(-55.877 -491.328)" fill="none" stroke="#000" stroke-linecap="round" stroke-linejoin="round" stroke-width="1.5"/>
      <path id="パス_6550" data-name="パス 6550" d="M73.166,514.31a12.656,12.656,0,0,0,24.963-.032" transform="translate(-57.174 -491.112)" fill="none" stroke="#000" stroke-linecap="round" stroke-linejoin="round" stroke-width="1.5"/>
      <path id="パス_6551" data-name="パス 6551" d="M103.341,505.308a28.786,28.786,0,0,1,11.6,23.2,28.47,28.47,0,0,1-56.94,0,28.786,28.786,0,0,1,11.6-23.2" transform="translate(-58 -491.6)" fill="none" stroke="#000" stroke-linecap="round" stroke-linejoin="round" stroke-width="1.5"/>
      <path id="パス_6552" data-name="パス 6552" d="M77,510.308v3.3a1.936,1.936,0,0,0,1.977,1.977h2.5s1.845-.527,1.845-2.109v-2.109s0-1.054-3.163-1.054Z" transform="translate(-56.966 -491.328)" fill="none" stroke="#000" stroke-linecap="round" stroke-linejoin="round" stroke-width="1.5"/>
      <path id="パス_6553" data-name="パス 6553" d="M93.327,510.308v3.3a1.936,1.936,0,0,1-1.977,1.977h-2.5S87,515.053,87,513.471v-2.109s0-1.054,3.163-1.054Z" transform="translate(-56.421 -491.328)" fill="none" stroke="#000" stroke-linecap="round" stroke-linejoin="round" stroke-width="1.5"/>
      <line id="線_145" data-name="線 145" x2="4.218" transform="translate(26.361 20.034)" fill="none" stroke="#000" stroke-linecap="round" stroke-linejoin="round" stroke-width="1.5"/>
      <line id="線_146" data-name="線 146" x1="4.218" transform="translate(15.817 18.98)" fill="none" stroke="#000" stroke-linecap="round" stroke-linejoin="round" stroke-width="1.5"/>
      <line id="線_147" data-name="線 147" x1="4.218" transform="translate(36.906 18.98)" fill="none" stroke="#000" stroke-linecap="round" stroke-linejoin="round" stroke-width="1.5"/>
      <path id="パス_6554" data-name="パス 6554" d="M85.436,502.308H80.163A3.164,3.164,0,0,0,77,505.471v1.054" transform="translate(-56.966 -491.764)" fill="none" stroke="#000" stroke-linecap="round" stroke-linejoin="round" stroke-width="1.5"/>
      <path id="パス_6555" data-name="パス 6555" d="M93.218,506.526v-1.054a3.164,3.164,0,0,0-3.163-3.163H89" transform="translate(-56.312 -491.764)" fill="none" stroke="#000" stroke-linecap="round" stroke-linejoin="round" stroke-width="1.5"/>
    </g>
    <g id="woman_with_pigtail" data-name="woman with pigtail" transform="translate(1125.84 2914.026)">
      <path id="パス_6556" data-name="パス 6556" d="M539,527.308v4.218a2.324,2.324,0,0,0,2.109,2.109l7.381,1.054a8.451,8.451,0,0,1,5.244,3.163" transform="translate(-504.203 -490.403)" fill="none" stroke="#000" stroke-linecap="round" stroke-linejoin="round" stroke-width="1.5"/>
      <path id="パス_6557" data-name="パス 6557" d="M525,533.308s0,9.49,8.436,9.49,8.436-9.49,8.436-9.49" transform="translate(-504.966 -490.076)" fill="none" stroke="#000" stroke-linecap="round" stroke-linejoin="round" stroke-width="1.5"/>
      <path id="パス_6558" data-name="パス 6558" d="M520,547.308V551" transform="translate(-505.238 -489.314)" fill="none" stroke="#000" stroke-linecap="round" stroke-linejoin="round" stroke-width="1.5"/>
      <path id="パス_6559" data-name="パス 6559" d="M546,547.308V551" transform="translate(-503.822 -489.314)" fill="none" stroke="#000" stroke-linecap="round" stroke-linejoin="round" stroke-width="1.5"/>
      <path id="パス_6560" data-name="パス 6560" d="M521.163,514.308h-1.054a2.109,2.109,0,1,0,0,4.218h1.054" transform="translate(-505.347 -491.11)" fill="none" stroke="#000" stroke-linecap="round" stroke-linejoin="round" stroke-width="1.5"/>
      <path id="パス_6561" data-name="パス 6561" d="M545,518.526h1.055a2.109,2.109,0,0,0,0-4.218H545" transform="translate(-503.877 -491.11)" fill="none" stroke="#000" stroke-linecap="round" stroke-linejoin="round" stroke-width="1.5"/>
      <path id="パス_6562" data-name="パス 6562" d="M542.089,508.58c0-3.163-3.779-5.272-8.435-5.272s-8.436,2.109-8.436,6.327V512.8a2.11,2.11,0,0,1-2.109,2.109H521" transform="translate(-505.183 -491.709)" fill="none" stroke="#000" stroke-linecap="round" stroke-linejoin="round" stroke-width="1.5"/>
      <path id="パス_6563" data-name="パス 6563" d="M545.218,514.417h-2.109A2.109,2.109,0,0,1,541,512.308" transform="translate(-504.095 -491.219)" fill="none" stroke="#000" stroke-linecap="round" stroke-linejoin="round" stroke-width="1.5"/>
      <path id="パス_6564" data-name="パス 6564" d="M521.163,514.308h-1.054a2.109,2.109,0,1,0,0,4.218h1.054" transform="translate(-505.347 -491.11)" fill="none" stroke="#000" stroke-linecap="round" stroke-linejoin="round" stroke-width="1.5"/>
      <path id="パス_6565" data-name="パス 6565" d="M521.166,518.31a12.656,12.656,0,0,0,24.963-.032" transform="translate(-505.174 -490.894)" fill="none" stroke="#000" stroke-linecap="round" stroke-linejoin="round" stroke-width="1.5"/>
      <path id="パス_6566" data-name="パス 6566" d="M527.907,527.308v4.218a2.324,2.324,0,0,1-2.109,2.109l-7.381,1.054a9.984,9.984,0,0,0-8.074,8.11" transform="translate(-505.764 -490.403)" fill="none" stroke="#000" stroke-linecap="round" stroke-linejoin="round" stroke-width="1.5"/>
      <path id="パス_6567" data-name="パス 6567" d="M558.817,513.762a28.494,28.494,0,1,1-40.164-8.843" transform="translate(-506 -491.621)" fill="none" stroke="#000" stroke-linecap="round" stroke-linejoin="round" stroke-width="1.5"/>
      <path id="パス_6568" data-name="パス 6568" d="M530.489,497.308A13.1,13.1,0,0,0,521,509.93v5.3" transform="translate(-505.183 -492.036)" fill="none" stroke="#000" stroke-linecap="round" stroke-linejoin="round" stroke-width="1.5"/>
      <path id="パス_6569" data-name="パス 6569" d="M545.488,511.016V509.93a13.108,13.108,0,0,0-9.453-12.622" transform="translate(-504.365 -492.036)" fill="none" stroke="#000" stroke-linecap="round" stroke-linejoin="round" stroke-width="1.5"/>
      <line id="線_148" data-name="線 148" y2="1.054" transform="translate(13.708 31.633)" fill="none" stroke="#000" stroke-linecap="round" stroke-linejoin="round" stroke-width="1.5"/>
      <line id="線_149" data-name="線 149" y2="1.054" transform="translate(43.232 31.633)" fill="none" stroke="#000" stroke-linecap="round" stroke-linejoin="round" stroke-width="1.5"/>
      <path id="パス_6570" data-name="パス 6570" d="M532.109,497.58H530v-2.109a3.162,3.162,0,0,1,3.163-3.163h5.272A14.763,14.763,0,0,1,553.2,507.07v24.252h-7.381c-2.109,0-2.109-1.055-2.109-1.055" transform="translate(-504.693 -492.308)" fill="none" stroke="#000" stroke-linecap="round" stroke-linejoin="round" stroke-width="1.5"/>
    </g>
    <g id="グループ_3537" data-name="グループ 3537" transform="translate(895.351 2975.835)">
      <g id="グループ_931-2" data-name="グループ 931-2" transform="translate(0 6.034)">
        <path id="パス_2249" data-name="パス 2249" d="M275.324,16.875H264.255L277.544,3.1V14.58A2.262,2.262,0,0,1,275.324,16.875Z" transform="translate(-264.243 -3.1)" fill="none" stroke="#f50a00" stroke-linecap="round" stroke-linejoin="round" stroke-width="2"/>
        <path id="パス_2250" data-name="パス 2250" d="M306.321,32.155V50.378a2.262,2.262,0,0,1-2.219,2.3H266.465a2.262,2.262,0,0,1-2.22-2.3v-32" transform="translate(-264.245 0.131)" fill="none" stroke="#f50a00" stroke-linecap="round" stroke-linejoin="round" stroke-width="2"/>
        <path id="パス_2251" data-name="パス 2251" d="M279.419,3.105h22.139a2.262,2.262,0,0,1,2.219,2.3v35.52" transform="translate(-261.693 -3.099)" fill="none" stroke="#f50a00" stroke-linecap="round" stroke-linejoin="round" stroke-width="2"/>
      </g>
      <path id="パス_6571" data-name="パス 6571" d="M-7539.465,2852.02h28.416c1.576,0,3.2-.034,3.2,2.414s-.05,49.871-.05,51.613-.729,2.474-1.99,2.474" transform="translate(7556.026 -2852.02)" fill="none" stroke="#f50a00" stroke-linecap="round" stroke-width="2"/>
    </g>
    <g id="グループ_3536" data-name="グループ 3536" transform="translate(458.621 2873.358)">
      <g id="female" transform="translate(0 0)">
        <path id="パス_6164" data-name="パス 6164" d="M73,174.907c12.936.181,17.926-5.759,17.926-11.6v3.163c0,6.327,5.272,6.327,7.381,6.327" transform="translate(-57.183 -152.726)" fill="none" stroke="#0b3880" stroke-linecap="round" stroke-linejoin="round" stroke-width="1.5"/>
        <path id="パス_6165" data-name="パス 6165" d="M107.559,173.308a28.47,28.47,0,1,1-42.178,0" transform="translate(-58 -152.181)" fill="none" stroke="#0b3880" stroke-linecap="round" stroke-linejoin="round" stroke-width="1.5"/>
        <path id="パス_6166" data-name="パス 6166" d="M102.573,174.013c0-11.376-7.442-17.705-16.762-17.705s-16.57,6.329-16.57,17.705" transform="translate(-57.342 -156.308)" fill="none" stroke="#0b3880" stroke-linecap="round" stroke-linejoin="round" stroke-width="1.5"/>
        <path id="パス_6167" data-name="パス 6167" d="M98.307,176.418a12.653,12.653,0,0,1-25.307,0v-2.11" transform="translate(-57.183 -152.127)" fill="none" stroke="#0b3880" stroke-linecap="round" stroke-linejoin="round" stroke-width="1.5"/>
        <path id="パス_6168" data-name="パス 6168" d="M79.926,190.693a2.324,2.324,0,0,1-2.109,2.109l-7.381,1.054c-5.272,1.054-8.436,5.272-8.436,11.6" transform="translate(-57.782 -150.586)" fill="none" stroke="#0b3880" stroke-linecap="round" stroke-linejoin="round" stroke-width="1.5"/>
        <path id="パス_6169" data-name="パス 6169" d="M91,187.308v4.218a2.324,2.324,0,0,0,2.109,2.109l7.381,1.054a9.813,9.813,0,0,1,6.471,4.219" transform="translate(-56.203 -151.419)" fill="none" stroke="#0b3880" stroke-linecap="round" stroke-linejoin="round" stroke-width="1.5"/>
        <path id="パス_6170" data-name="パス 6170" d="M77,193.308s1.054,4.218,8.436,4.218,8.436-4.218,8.436-4.218" transform="translate(-56.966 -151.092)" fill="none" stroke="#0b3880" stroke-linecap="round" stroke-linejoin="round" stroke-width="1.5"/>
        <path id="パス_6171" data-name="パス 6171" d="M72.054,207.308A25.746,25.746,0,0,1,71,214.689" transform="translate(-57.292 -150.33)" fill="none" stroke="#0b3880" stroke-linecap="round" stroke-linejoin="round" stroke-width="1.5"/>
        <path id="パス_6172" data-name="パス 6172" d="M98,207.308a25.746,25.746,0,0,0,1.054,7.381" transform="translate(-55.822 -150.33)" fill="none" stroke="#0b3880" stroke-linecap="round" stroke-linejoin="round" stroke-width="1.5"/>
        <path id="パス_6573" data-name="パス 6573" d="M9.969,19.861V29.4a5.031,5.031,0,0,1-3,4.5" transform="translate(1.714 8.087)" fill="none" stroke="#0b3880" stroke-linecap="round" stroke-width="1.5"/>
        <path id="パス_6574" data-name="パス 6574" d="M6.968,19.695v9.748a5.031,5.031,0,0,0,3,4.5" transform="translate(37.848 8.046)" fill="none" stroke="#0b3880" stroke-linecap="round" stroke-width="1.5"/>
      </g>
      <g id="グループ_3535" data-name="グループ 3535" transform="translate(7.476 2.301)">
        <path id="パス_6572" data-name="パス 6572" d="M856.416,455.381h-1.287a14.7,14.7,0,0,0-1.02-5.082c-.9-2.659-5.726-9.542-13.889-9.542s-13.208,6.009-14.038,9.542a19.842,19.842,0,0,0-.871,5.082h-1.268c-2.812.048-5.087,2.635-5.087,5.807s2.293,5.78,5.12,5.808h1.309a17.345,17.345,0,0,0,9.307,12.559,3.065,3.065,0,0,0,1.877,3.233l3.295,1.152a2.65,2.65,0,0,0,.878.149,3.375,3.375,0,0,0,3.065-2.392,3.227,3.227,0,0,0-1.685-4.212l-3.3-1.152a2.648,2.648,0,0,0-.878-.149,3.162,3.162,0,0,0-2.476,1.309c-6.014-3.138-8-9.267-8-11.878v-9.137a16.506,16.506,0,0,1,.913-5.45c1.727-2.646,4.543-7.5,11.836-7.5s10.109,4.855,11.836,7.5a16.5,16.5,0,0,1,.913,5.45h.018V467h3.4a5.827,5.827,0,0,0,.032-11.615ZM836.957,479.3a1.244,1.244,0,0,1,.992-.92.445.445,0,0,1,.153.026l3.295,1.151c.351.124.576.735.338,1.415-.244.7-.8,1.016-1.145.9l-3.294-1.152C836.944,480.594,836.718,479.983,836.957,479.3Zm-15.806-18.112c0-1.992,1.333-3.613,2.973-3.613h1.151V464.8h-1.151C822.484,464.8,821.151,463.182,821.151,461.189Zm35.183,3.613h-1.151v-7.226h1.151a3.637,3.637,0,0,1,0,7.226Z" transform="translate(-818.955 -440.756)" fill="#0b3880"/>
      </g>
    </g>
    <line id="線_150" data-name="線 150" y2="410.695" transform="translate(370.789 2734.12)" fill="none" stroke="#edf7ff" stroke-width="2"/>
    <line id="線_151" data-name="線 151" y2="410.695" transform="translate(602.183 2734.12)" fill="none" stroke="#edf7ff" stroke-width="2"/>
    <g id="長方形_3249" data-name="長方形 3249" transform="translate(1066.788 2693.535)" fill="none" stroke="#f50a00" stroke-width="2" stroke-dasharray="3">
      <rect width="233.211" height="451.885" stroke="none"/>
      <rect x="1" y="1" width="231.211" height="449.885" fill="none"/>
    </g>
    <g id="woman_with_sunglasses" data-name="woman with sunglasses" transform="translate(1190.36 2768.647)">
      <path id="パス_6575" data-name="パス 6575" d="M656.6,505.635a2.11,2.11,0,0,0-2.109-2.109h-4.218c-5.272,0-5.272-4.218-5.272-4.218" transform="translate(-616.53 -491.927)" fill="none" stroke="#333" stroke-linecap="round" stroke-linejoin="round" stroke-width="1.5"/>
      <path id="パス_6576" data-name="パス 6576" d="M631,551.179a25.745,25.745,0,0,0,1.054-7.381v-9.49" transform="translate(-617.292 -490.021)" fill="none" stroke="#333" stroke-linecap="round" stroke-linejoin="round" stroke-width="1.5"/>
      <path id="パス_6577" data-name="パス 6577" d="M639.926,523.308v4.218a2.325,2.325,0,0,1-2.109,2.109l-7.381,1.054c-5.272,1.054-8.436,5.272-8.436,11.6" transform="translate(-617.782 -490.62)" fill="none" stroke="#333" stroke-linecap="round" stroke-linejoin="round" stroke-width="1.5"/>
      <path id="パス_6578" data-name="パス 6578" d="M651,523.308v4.218a2.324,2.324,0,0,0,2.109,2.109l7.381,1.054a9.813,9.813,0,0,1,6.471,4.219" transform="translate(-616.203 -490.62)" fill="none" stroke="#333" stroke-linecap="round" stroke-linejoin="round" stroke-width="1.5"/>
      <path id="パス_6579" data-name="パス 6579" d="M643.6,513.526c0,2.109-2.36,4.218-5.272,4.218a5.272,5.272,0,0,1-5.272-5.272c0-.923,0-3.163-1.054-3.163h9.49a4.569,4.569,0,0,1,4.218,2.109A2.065,2.065,0,0,0,643.6,513.526Z" transform="translate(-617.238 -491.382)" fill="none" stroke="#333" stroke-linecap="round" stroke-linejoin="round" stroke-width="1.5"/>
      <path id="パス_6580" data-name="パス 6580" d="M647.109,513.526c0,2.109,2.36,4.218,5.272,4.218a5.272,5.272,0,0,0,5.272-5.272c0-.923,0-3.163,1.054-3.163h-9.49A4.569,4.569,0,0,0,645,511.417,2.065,2.065,0,0,1,647.109,513.526Z" transform="translate(-616.53 -491.382)" fill="none" stroke="#333" stroke-linecap="round" stroke-linejoin="round" stroke-width="1.5"/>
      <path id="パス_6581" data-name="パス 6581" d="M668.521,510.378a28.47,28.47,0,1,1-44.1,0" transform="translate(-618 -491.324)" fill="none" stroke="#333" stroke-linecap="round" stroke-linejoin="round" stroke-width="1.5"/>
      <path id="パス_6582" data-name="パス 6582" d="M658.307,512.308a12.653,12.653,0,0,1-25.307,0" transform="translate(-617.183 -491.219)" fill="none" stroke="#333" stroke-linecap="round" stroke-linejoin="round" stroke-width="1.5"/>
      <path id="パス_6583" data-name="パス 6583" d="M634,505.635a2.109,2.109,0,0,1,2.109-2.109h4.218c5.272,0,5.272-4.218,5.272-4.218" transform="translate(-617.129 -491.927)" fill="none" stroke="#333" stroke-linecap="round" stroke-linejoin="round" stroke-width="1.5"/>
      <path id="パス_6584" data-name="パス 6584" d="M656.47,526.05h5.272s2.109-12.653,2.109-15.817a17.926,17.926,0,1,0-35.851,0c0,3.163,2.109,15.817,2.109,15.817h5.272" transform="translate(-617.456 -492.308)" fill="none" stroke="#333" stroke-linecap="round" stroke-linejoin="round" stroke-width="1.5"/>
      <path id="パス_6585" data-name="パス 6585" d="M632,543.308s2.109,2.109,13.708,2.109" transform="translate(-617.238 -489.531)" fill="none" stroke="#333" stroke-linecap="round" stroke-linejoin="round" stroke-width="1.5"/>
      <path id="パス_6586" data-name="パス 6586" d="M659.054,551.179A25.745,25.745,0,0,1,658,543.8v-9.49" transform="translate(-615.822 -490.021)" fill="none" stroke="#333" stroke-linecap="round" stroke-linejoin="round" stroke-width="1.5"/>
      <path id="パス_6587" data-name="パス 6587" d="M658.708,543.308S656.6,545.417,645,545.417" transform="translate(-616.53 -489.531)" fill="none" stroke="#333" stroke-linecap="round" stroke-linejoin="round" stroke-width="1.5"/>
    </g>
    <rect id="長方形_3250" data-name="長方形 3250" width="10.903" height="27.864" transform="translate(1061.943 2765.013)" fill="#fcf2ef"/>
    <text id="FAQやサポートコミュニティで_問題解決することで_サポートコストを低減" data-name="FAQやサポートコミュニティで
問題解決することで
サポートコストを低減" transform="translate(868.104 2786.436)" fill="#f50a00" font-size="16" font-family="NotoSansCJKjp-Bold, Noto Sans CJK JP" font-weight="700"><tspan x="0" y="0">FAQ</tspan><tspan y="0">やサポートコミュニティで</tspan><tspan x="0" y="23">問題解決</tspan><tspan y="23">することで</tspan><tspan x="0" y="46">サポートコストを</tspan><tspan y="46">低減</tspan></text>
    <path id="パス_6588" data-name="パス 6588" d="M-8132.715,2742s41.692,73.016,111.836,130.793,190.885,122.63,326.4,159.661,486.687,42.355,486.687,42.355" transform="translate(8291.232 26.648)" fill="none" stroke="#f50a00" stroke-width="4"/>
    <path id="多角形_5" data-name="多角形 5" d="M11.509,0,23.018,20.6H0Z" transform="translate(1101.922 3089.692) rotate(90)" fill="#f50a00"/>
    <path id="多角形_6" data-name="多角形 6" d="M8.48,0l8.48,14.538H0Z" transform="matrix(-0.914, 0.407, -0.407, -0.914, 911.519, 2965.677)" fill="#0098db"/>
    <path id="多角形_7" data-name="多角形 7" d="M8.48,0l8.48,14.538H0Z" transform="translate(928.298 2961.386) rotate(159)" fill="#0098db"/>
    <path id="多角形_8" data-name="多角形 8" d="M8.48,0l8.48,14.538H0Z" transform="translate(977.604 2963.83) rotate(-159)" fill="#0098db"/>
    <path id="パス_6589" data-name="パス 6589" d="M-7826.07,2867.6s52.155-65.273,187.364-62.135,198.552,106.758,198.552,106.758" transform="translate(8356.084 40.046)" fill="none" stroke="#0098db" stroke-width="3"/>
    <path id="パス_6590" data-name="パス 6590" d="M-7673,2937.579s18.782-72.238,90.946-73.961,91.979,41.214,91.979,41.214" transform="translate(8388.456 52.358)" fill="none" stroke="#0098db" stroke-width="3"/>
    <path id="パス_6425" data-name="パス 6425" d="M102.422,257.648a22.738,22.738,0,0,0-3.965,45.129c.566.1,1.136.184,1.715.24.74.073,1.49.113,2.249.113a22.477,22.477,0,0,0,4.381-.435q.816-.161,1.618-.382A22.848,22.848,0,0,0,113.9,300l13.746,5.346a.812.812,0,0,0,.3.056.825.825,0,0,0,.743-1.185l-6.291-12.979a22.779,22.779,0,0,0,2.27-6.179c.114-.543.213-1.088.288-1.637a22.546,22.546,0,0,0,.21-3.03,22.8,22.8,0,0,0-.3-3.7q-.137-.839-.337-1.656A22.776,22.776,0,0,0,102.422,257.648Z" transform="translate(1001.647 2630.551)" fill="#0a46c8"/>
    <path id="パス_6426" data-name="パス 6426" d="M.3-1.756a3.988,3.988,0,0,0,1.027-.131,5.112,5.112,0,0,0,.695-.252l-1.5-1.43,1.6-1.671,1.5,1.43a7.011,7.011,0,0,0,.493-1.269,7.3,7.3,0,0,0,.221-1.9,6.338,6.338,0,0,0-1.022-3.861A3.5,3.5,0,0,0,.326-12.206,3.641,3.641,0,0,0-2.614-10.9a5.978,5.978,0,0,0-1.1,3.916q0,3.051,1.571,4.369A3.66,3.66,0,0,0,.3-1.756ZM7.434-7.2A9.872,9.872,0,0,1,6.95-3.88,5.535,5.535,0,0,1,5.793-1.756L7.5-.155,5.883,1.536,4.091-.155A7.469,7.469,0,0,1,2.682.539,7.582,7.582,0,0,1,.3.872,6.826,6.826,0,0,1-4.5-.86a7.85,7.85,0,0,1-2.3-6.121,7.781,7.781,0,0,1,2.356-6.151,6.954,6.954,0,0,1,4.782-1.7,6.858,6.858,0,0,1,4.833,1.8A7.542,7.542,0,0,1,7.434-7.2Z" transform="translate(1104.466 2917.966)" fill="#fff"/>
    <g id="グループ_3538" data-name="グループ 3538" transform="translate(1253.999 2843.526)">
      <path id="パス_6424" data-name="パス 6424" d="M96.25,257.648a14.3,14.3,0,0,1,2.494,28.386c-.356.063-.715.116-1.079.151-.465.046-.937.071-1.415.071a14.134,14.134,0,0,1-2.755-.273q-.513-.1-1.018-.24a14.372,14.372,0,0,1-3.444-1.457l-8.646,3.363a.51.51,0,0,1-.188.035.519.519,0,0,1-.468-.745l3.957-8.164a14.328,14.328,0,0,1-1.428-3.887c-.072-.342-.134-.684-.181-1.029a14.183,14.183,0,0,1-.132-1.906,14.345,14.345,0,0,1,.192-2.324q.086-.528.212-1.042A14.326,14.326,0,0,1,96.25,257.648Z" transform="translate(-79.679 -257.648)" fill="#f50a00"/>
      <path id="パス_6427" data-name="パス 6427" d="M-1.207-3.872H1.617L.228-8.251Zm.143-6.924H1.564L5.506.334H2.984L2.266-1.954h-4.1L-2.6.334H-5.035Z" transform="translate(16.52 18.371)" fill="#fff"/>
    </g>
    <g id="グループ_3539" data-name="グループ 3539" transform="translate(1244.307 2755.087)">
      <path id="パス_6424-2" data-name="パス 6424" d="M96.25,257.648a14.3,14.3,0,0,1,2.494,28.386c-.356.063-.715.116-1.079.151-.465.046-.937.071-1.415.071a14.134,14.134,0,0,1-2.755-.273q-.513-.1-1.018-.24a14.372,14.372,0,0,1-3.444-1.457l-8.646,3.363a.51.51,0,0,1-.188.035.519.519,0,0,1-.468-.745l3.957-8.164a14.328,14.328,0,0,1-1.428-3.887c-.072-.342-.134-.684-.181-1.029a14.183,14.183,0,0,1-.132-1.906,14.345,14.345,0,0,1,.192-2.324q.086-.528.212-1.042A14.326,14.326,0,0,1,96.25,257.648Z" transform="translate(-79.679 -257.648)" fill="#f50a00"/>
      <path id="パス_6427-2" data-name="パス 6427" d="M-1.207-3.872H1.617L.228-8.251Zm.143-6.924H1.564L5.506.334H2.984L2.266-1.954h-4.1L-2.6.334H-5.035Z" transform="translate(16.52 18.371)" fill="#fff"/>
    </g>
    <g id="グループ_3540" data-name="グループ 3540" transform="translate(1152.234 2797.489)">
      <path id="パス_6424-3" data-name="パス 6424" d="M96.25,257.648a14.3,14.3,0,0,1,2.494,28.386c-.356.063-.715.116-1.079.151-.465.046-.937.071-1.415.071a14.134,14.134,0,0,1-2.755-.273q-.513-.1-1.018-.24a14.372,14.372,0,0,1-3.444-1.457l-8.646,3.363a.51.51,0,0,1-.188.035.519.519,0,0,1-.468-.745l3.957-8.164a14.328,14.328,0,0,1-1.428-3.887c-.072-.342-.134-.684-.181-1.029a14.183,14.183,0,0,1-.132-1.906,14.345,14.345,0,0,1,.192-2.324q.086-.528.212-1.042A14.326,14.326,0,0,1,96.25,257.648Z" transform="translate(-79.679 -257.648)" fill="#f50a00"/>
      <path id="パス_6427-3" data-name="パス 6427" d="M-1.207-3.872H1.617L.228-8.251Zm.143-6.924H1.564L5.506.334H2.984L2.266-1.954h-4.1L-2.6.334H-5.035Z" transform="translate(16.52 18.371)" fill="#fff"/>
    </g>
    <path id="パス_6591" data-name="パス 6591" d="M-7357.9,2872.38s-19.682-19.729-56.319-11.722-47.339,42.354-47.339,42.354" transform="translate(8433.174 51.338)" fill="none" stroke="#0098db" stroke-width="3"/>
    <g id="長方形_3251" data-name="長方形 3251" transform="translate(868.104 2863.144)" fill="#fff" stroke="#0a46c8" stroke-width="3">
      <rect width="176.877" height="77.535" stroke="none"/>
      <rect x="1.5" y="1.5" width="173.877" height="74.535" fill="none"/>
    </g>
    <text id="お客様の声を_FAQに" data-name="お客様の声を
FAQに" transform="translate(953.661 2896.681)" fill="#0a46c8" font-size="16" font-family="NotoSansCJKjp-Bold, Noto Sans CJK JP" font-weight="700"><tspan x="-48" y="0">お</tspan><tspan y="0">客様</tspan><tspan y="0">の</tspan><tspan y="0">声</tspan><tspan y="0">を</tspan><tspan x="-23.52" y="21">FAQ</tspan><tspan y="21">に</tspan></text>
  </g>
</svg>
