<svg xmlns="http://www.w3.org/2000/svg" width="260" height="210" viewBox="0 0 260 210">
  <g id="グループ_7831" data-name="グループ 7831" transform="translate(-510 -5175)">
    <circle id="楕円形_82" data-name="楕円形 82" cx="100" cy="100" r="100" transform="translate(540 5180)" fill="#f0f7fc"/>
    <g id="グループ_3551" data-name="グループ 3551" transform="translate(378.77 5061.474)">
      <path id="パス_6605" data-name="パス 6605" d="M366.429,276.721a.9.9,0,0,1-.367-.078c-12.648-5.626-21.927-13.786-26.833-23.6-7.425-14.85-5.207-37.679-5.108-38.644a.9.9,0,0,1,1.236-.744,19.211,19.211,0,0,0,7.265,1.329c10.026,0,20.061-6.247,21.859-7.925a1.667,1.667,0,0,1,1.1-.422,1.758,1.758,0,0,1,.966.434c3.2,2.228,13.639,8.113,23.463,8.113h0a19.424,19.424,0,0,0,7.343-1.429.9.9,0,0,1,.808.015.857.857,0,0,1,.429.664c.087.959,2.037,23.65-5.134,38.608-7.922,16.521-22.06,21.867-26.708,23.626A.882.882,0,0,1,366.429,276.721Z" transform="translate(-77.835 -34.82)" fill="#03abf2"/>
      <path id="パス_6606" data-name="パス 6606" d="M294.968,248.785a.893.893,0,0,1-.837-.585l-9.954-27.145a.882.882,0,0,1-.035-.12,7.176,7.176,0,0,1,3.944-7.478c2.291-1.281,5.491-2.691,7.827-3.722l1.013-.448a.892.892,0,0,1,.725,1.631l-1.018.449c-2.3,1.016-5.459,2.407-7.676,3.646a5.37,5.37,0,0,0-3.078,5.5l9.686,26.413,12.074-1.421a.892.892,0,0,1,.209,1.772l-12.774,1.5A.83.83,0,0,1,294.968,248.785Z" transform="translate(-53.028 -36.105)" fill="#0b3880"/>
      <path id="パス_6607" data-name="パス 6607" d="M335.553,209.017a.893.893,0,0,1-.288-.048l-5.2-1.772a.892.892,0,1,1,.576-1.689l5.2,1.772a.892.892,0,0,1-.288,1.737Z" transform="translate(-75.702 -34.232)" fill="#0b3880"/>
      <path id="パス_6608" data-name="パス 6608" d="M336.69,398.876c-2.285,0-11.206-.1-11.206-.1l-.749-.039-.129-.756c-.082-.473-8.148-46.822-13.563-67.864-.037.011-.075.016-.114.027-.489,4.827-3.818,37.641-6.414,62.323.436.264.8.511,1.14.738.25.168.487.327.731.478a3.328,3.328,0,0,1,1.322,3.42,1.878,1.878,0,0,1-1.653,1.554l-.086,0c-2.421,0-12.546-.157-12.648-.159l-.918-.014.041-.918c.022-.473,2.134-47.586,3.01-71.349a.892.892,0,0,1,1.783.066c-.809,21.927-2.669,63.724-2.97,70.444,2.529.039,9.539.142,11.622.145a.812.812,0,0,0,.106-.567,1.478,1.478,0,0,0-.55-1.11c-.261-.162-.516-.334-.785-.514-.453-.305-.922-.62-1.53-.962l-.511-.288.062-.582c2.8-26.619,6.5-63.127,6.534-63.492l.061-.6.574-.169c.413-.122,1.405-.409,1.7-.452l.788-.115.2.771c5.06,19.269,12.612,61.978,13.689,68.121,2.154.005,8.345.019,10.348.02a.988.988,0,0,0,.171-.58,1.424,1.424,0,0,0-.595-1.2,4.112,4.112,0,0,0-1.114-.615c-.282-.121-.648-.279-1.17-.522l-.43-.2-.074-.47c-2.178-13.829-5.717-39.26-7.832-54.455-.619-4.448-1.117-8.026-1.424-10.189a.892.892,0,0,1,1.766-.251c.307,2.165.805,5.744,1.425,10.193,2.09,15.017,5.572,40.038,7.753,53.953.283.127.506.223.692.3a5.819,5.819,0,0,1,1.479.825,3.214,3.214,0,0,1,1.227,3.3,2.167,2.167,0,0,1-1.54,1.747l-.159.092C336.736,398.876,336.713,398.876,336.69,398.876Z" transform="translate(-57.202 -94.085)" fill="#0b3880"/>
      <path id="パス_6609" data-name="パス 6609" d="M325.1,187.9a.892.892,0,0,1-.244-1.75l1.979-.565-.022-4.211.51-.244c1.073-.516,2.624-1.634,2.713-2.5a37.834,37.834,0,0,0-1.034-12.541.892.892,0,1,1,1.715-.489,38.936,38.936,0,0,1,1.094,13.212c-.179,1.753-2.212,3.1-3.207,3.662l.023,4.457-3.28.938A.918.918,0,0,1,325.1,187.9Z" transform="translate(-73.081 -14.01)" fill="#0b3880"/>
      <path id="パス_6610" data-name="パス 6610" d="M303.253,167.178a.893.893,0,0,1-.845-.606,9.771,9.771,0,0,1,.531-6.661c1.143-2.563,5.353-5.851,10.758-4.769,2.9.579,4.748,2.186,5.994,5.21l.126.307-.105.315c-.945,2.83-3.693,4.265-8.171,4.265-1.862,0-2.39.855-2.412.891a.88.88,0,0,1-1.194.379.9.9,0,0,1-.384-1.212c.1-.188,1.023-1.842,3.99-1.842,3.44,0,5.578-.922,6.364-2.743a5.837,5.837,0,0,0-4.558-3.821c-4.257-.851-7.834,1.629-8.778,3.746A8,8,0,0,0,304.1,166a.9.9,0,0,1-.845,1.179Z" transform="translate(-62.023 -9.009)" fill="#0b3880"/>
      <path id="パス_6611" data-name="パス 6611" d="M326.521,331.847a.892.892,0,0,1-.243-1.75l4.761-1.352a.892.892,0,0,1,.487,1.716l-4.761,1.353A.939.939,0,0,1,326.521,331.847Z" transform="translate(-73.788 -95.756)" fill="#0b3880"/>
      <path id="パス_6612" data-name="パス 6612" d="M304.35,202.321a.892.892,0,0,1-.374-1.7l2.3-1.06-.586-9.032a.892.892,0,0,1,1.78-.116l.666,10.255-3.415,1.574A.891.891,0,0,1,304.35,202.321Z" transform="translate(-62.72 -26.304)" fill="#0b3880"/>
      <path id="パス_6613" data-name="パス 6613" d="M307.061,185.7a.847.847,0,0,1-.112-.007c-1.9-.238-3.113-1.091-3.609-2.536a3.272,3.272,0,0,1,4.945-3.762.892.892,0,1,1-1.009,1.472,1.488,1.488,0,0,0-2.249,1.71c.166.483.568,1.147,2.144,1.345a.892.892,0,0,1-.11,1.777Z" transform="translate(-62.573 -20.937)" fill="#0b3880"/>
      <path id="パス_6614" data-name="パス 6614" d="M296.894,302.969a1.009,1.009,0,0,1-.628-.357,1.134,1.134,0,0,1-.264-.732V286.913a.891.891,0,1,1,1.783,0v14.068l7.555-.241h.008a.972.972,0,0,1,.892.972,1.026,1.026,0,0,1-.884,1.042l-8.453.216Z" transform="translate(-58.999 -74.446)" fill="#0b3880"/>
      <path id="パス_6615" data-name="パス 6615" d="M312.609,251.281a.891.891,0,0,1-.859-.653l-4.259-15.28a.892.892,0,1,1,1.718-.479l4.068,14.6,5.305-.22a.892.892,0,1,1,.074,1.782l-6.011.25Z" transform="translate(-64.717 -48.587)" fill="#0b3880"/>
      <path id="パス_6616" data-name="パス 6616" d="M178.369,296.65a.546.546,0,0,1-.387-.932l5.378-5.393a.546.546,0,0,1,.774.771l-5.378,5.393A.544.544,0,0,1,178.369,296.65Z" transform="translate(-0.007 -76.514)" fill="#03abf2"/>
      <path id="パス_6617" data-name="パス 6617" d="M183.748,296.651a.547.547,0,0,1-.386-.159l-5.392-5.379a.546.546,0,1,1,.771-.774l5.393,5.379a.546.546,0,0,1-.386.933Z" transform="translate(0 -76.522)" fill="#03abf2"/>
      <path id="パス_6618" data-name="パス 6618" d="M487.109,197.213a.546.546,0,0,1-.387-.932l5.378-5.393a.546.546,0,1,1,.774.772l-5.378,5.393A.546.546,0,0,1,487.109,197.213Z" transform="translate(-154.122 -26.879)" fill="#03abf2"/>
      <path id="パス_6619" data-name="パス 6619" d="M492.488,197.213a.547.547,0,0,1-.386-.159l-5.392-5.379a.546.546,0,0,1,.771-.774l5.392,5.379a.546.546,0,0,1-.386.933Z" transform="translate(-154.115 -26.886)" fill="#03abf2"/>
      <path id="パス_6620" data-name="パス 6620" d="M251.053,306.708a.893.893,0,0,1-.892-.892V249.286l-12.934-11.021V184.5a.892.892,0,1,1,1.784,0v52.939l12.934,11.021v57.353A.893.893,0,0,1,251.053,306.708Z" transform="translate(-29.66 -23.326)" fill="#03abf2"/>
      <path id="パス_6621" data-name="パス 6621" d="M231.711,186.186l.654.608,2.994-3.222,2.995,3.222.653-.608-3.648-3.923Z" transform="translate(-26.907 -22.653)" fill="#03abf2"/>
      <path id="パス_6622" data-name="パス 6622" d="M450.065,389.85a.893.893,0,0,1-.892-.892V358.506l5.352-4.435V342.128a.892.892,0,0,1,1.784,0v12.783l-5.353,4.435v29.613A.892.892,0,0,1,450.065,389.85Z" transform="translate(-135.458 -102.008)" fill="#03abf2"/>
      <path id="パス_6623" data-name="パス 6623" d="M454.114,343.854l.653.608,2.994-3.222,3,3.222.653-.608-3.649-3.923Z" transform="translate(-137.924 -101.357)" fill="#03abf2"/>
      <path id="パス_6624" data-name="パス 6624" d="M381.494,160.36a.893.893,0,0,1-.892-.892V139.021a.892.892,0,1,1,1.784,0v20.447A.892.892,0,0,1,381.494,160.36Z" transform="translate(-101.229 -0.623)" fill="#03abf2"/>
      <path id="パス_6625" data-name="パス 6625" d="M375.187,140.8l.653.609,2.994-3.222,3,3.222.653-.609-3.649-3.923Z" transform="translate(-98.526 0)" fill="#03abf2"/>
      <path id="パス_6626" data-name="パス 6626" d="M206.677,403.048a4.192,4.192,0,1,1,4.191-4.191A4.2,4.2,0,0,1,206.677,403.048Zm0-7.045a2.853,2.853,0,1,0,2.853,2.854A2.857,2.857,0,0,0,206.677,396Z" transform="translate(-12.319 -128.678)" fill="#0b3880"/>
      <path id="パス_6627" data-name="パス 6627" d="M399.573,397.558a6.861,6.861,0,1,1,6.859-6.859A6.865,6.865,0,0,1,399.573,397.558Zm0-12.383a5.522,5.522,0,1,0,5.521,5.524A5.528,5.528,0,0,0,399.573,385.175Z" transform="translate(-107.276 -123.273)" fill="#0b3880"/>
      <path id="パス_6628" data-name="パス 6628" d="M239.009,361.294a.892.892,0,0,1-.892-.892V348.36a.892.892,0,0,1,1.784,0V360.4A.892.892,0,0,1,239.009,361.294Z" transform="translate(-30.104 -105.119)" fill="#03abf2"/>
      <path id="パス_6629" data-name="パス 6629" d="M182.949,4300c0,8-6.491,11.188-14.5,11.188s-14.5-3.191-14.5-11.188a11.515,11.515,0,0,1,1.265-5.264c.535-1.19,1.818,4.244,2.689,3.291,2.141-2.344-2.372-7.693,5.931-11.755-1.483,4.146-.294,5.792,1.317,5.792,3.5,0,3.555-5.228,3.171-11.846,10.708,8.267,4.8,11.45,6.013,12.462,5.972.657,1.983-12.417,7.289.082A18,18,0,0,1,182.949,4300Z" transform="translate(120.067 -4091.218)" fill="#f50a00"/>
    </g>
    <rect id="長方形_3339" data-name="長方形 3339" width="260" height="210" transform="translate(510 5175)" fill="none"/>
  </g>
</svg>
