<svg xmlns="http://www.w3.org/2000/svg" width="380" height="380" viewBox="0 0 380 380">
  <g id="グループ_7823" data-name="グループ 7823" transform="translate(-140 -4111)">
    <g id="グループ_3546" data-name="グループ 3546" transform="translate(140 4111)">
      <g id="グループ_3549" data-name="グループ 3549" transform="translate(-273.375 -93.292)">
        <path id="パス_6598" data-name="パス 6598" d="M640.775,351.437a189.517,189.517,0,0,0,12.6-68.145c0-104.934-85.066-190-190-190v190Z" fill="#0a46c8"/>
        <path id="パス_6599" data-name="パス 6599" d="M463.375,283.292v190a190.059,190.059,0,0,0,177.4-121.855Z" fill="#0a70c8"/>
        <path id="パス_6600" data-name="パス 6600" d="M463.375,93.292c-104.934,0-190,85.066-190,190s85.066,190,190,190v-380Z" fill="#cae2f2"/>
      </g>
    </g>
    <path id="パス_6604" data-name="パス 6604" d="M113,0A113,113,0,1,1,0,113,113,113,0,0,1,113,0Z" transform="translate(217 4188)" fill="#fff"/>
    <path id="パス_10017" data-name="パス 10017" d="M-57.134.484c-.044-.66-.088-1.826-.088-2.6v-11.4c0-.638.044-1.518.066-2.024-.374.022-1.3.044-1.936.044H-70.158c-.77,0-1.914-.044-2.728-.132v3.058c.616-.044,1.8-.088,2.728-.088h9.878v9.108H-70.422c-.99,0-1.98-.066-2.75-.132V-.528c.726-.066,1.98-.132,2.838-.132H-60.3c0,.418,0,.792-.022,1.144Zm9.064-17.71-1.034,2.6a75.474,75.474,0,0,1,11.9,2.75l1.122-2.75A80.341,80.341,0,0,0-48.07-17.226Zm-1.012,5.918-1.012,2.662a76.488,76.488,0,0,1,11.44,2.772l1.078-2.75A90.693,90.693,0,0,0-49.082-11.308ZM-50.2-5.016l-1.1,2.772A78.488,78.488,0,0,1-37.862,1.034l1.21-2.75A88.551,88.551,0,0,0-50.2-5.016ZM-16.94-2.4c.33-2.09.9-5.874,1.078-7.172a6.132,6.132,0,0,1,.22-.924l-2.112-1.034a5.22,5.22,0,0,1-1.65.242h-5.632c-.594,0-1.606-.066-2.178-.132v2.9c.638-.044,1.5-.11,2.2-.11h5.94c-.066,1.232-.55,4.356-.858,6.226H-27.06a21.135,21.135,0,0,1-2.178-.11V.352C-28.4.308-27.852.286-27.06.286h11.594c.572,0,1.65.044,2.09.066V-2.486c-.572.066-1.584.088-2.156.088ZM-8.448-.814C-7.634-.88-6.556-.946-5.7-.946H6.93a23.9,23.9,0,0,1,2.42.132V-4.18a22.335,22.335,0,0,1-2.42.154H-5.7c-.858,0-1.892-.088-2.75-.154ZM-6.6-11.748c.748-.044,1.76-.088,2.6-.088H5.082c.77,0,1.8.066,2.442.088v-3.19c-.616.066-1.562.132-2.442.132H-4.026c-.748,0-1.782-.044-2.574-.132Zm33.88-2.376c.77,0,1.606.044,2.376.088v-2.838a17.236,17.236,0,0,1-2.376.154H18.436a16.392,16.392,0,0,1-2.332-.154v2.838c.66-.044,1.584-.088,2.354-.088ZM15.642-11.11c-.682,0-1.452-.066-2.112-.132V-8.36c.616-.044,1.474-.088,2.112-.088h6.05a9.454,9.454,0,0,1-1.364,4.862A9.139,9.139,0,0,1,16.346-.44L18.92,1.43a10.556,10.556,0,0,0,4.422-4.224A13.957,13.957,0,0,0,24.75-8.448h5.3c.616,0,1.452.022,2,.066v-2.86a16.928,16.928,0,0,1-2,.132Zm32.406-2.684a21.9,21.9,0,0,1-5.654,4.576,29.381,29.381,0,0,1-7.766,2.97L36.1-3.7a41.212,41.212,0,0,0,6.2-2.4V-.44a23,23,0,0,1-.11,2.376h3.256A12.249,12.249,0,0,1,45.3-.44V-7.766a27.453,27.453,0,0,0,4.95-3.982ZM75.9-16.06a26.033,26.033,0,0,0-1.782-2.992l-1.738.726a21.951,21.951,0,0,1,1.782,3.036ZM61.116-17.49a24.121,24.121,0,0,1-.462,4.62c-1.1.088-2.134.154-2.816.176a20.229,20.229,0,0,1-2.31,0l.242,2.948c.682-.11,1.8-.264,2.42-.33.418-.066,1.1-.154,1.87-.242-.77,2.97-2.266,7.326-4.378,10.186L58.52,1.012c2-3.212,3.586-8.338,4.444-11.638.616-.044,1.144-.088,1.5-.088,1.364,0,2.112.242,2.112,1.98a16.634,16.634,0,0,1-.88,5.962,1.6,1.6,0,0,1-1.628.946,12.713,12.713,0,0,1-2.684-.462L61.864.594A12.334,12.334,0,0,0,64.46.9a3.481,3.481,0,0,0,3.586-2c.924-1.892,1.232-5.368,1.232-7.942,0-3.124-1.628-4.158-3.938-4.158-.44,0-1.1.044-1.826.088.154-.792.33-1.584.462-2.244.11-.55.242-1.232.374-1.8Zm12.166,2.442c-.44-.814-1.21-2.2-1.76-3.014l-1.738.726a24.324,24.324,0,0,1,1.5,2.6l-2.024.858A24.672,24.672,0,0,1,72.93-5.676l2.772-1.3a43.29,43.29,0,0,0-3.542-7.59ZM-61.358,22.78H-63.03V19.964h1.672Zm0,5.126H-63.03V25.112h1.672Zm-9.24-2.794h1.584v2.794H-70.6Zm5.39,0v2.794h-1.628V25.112Zm-1.628-2.332V19.964h1.628V22.78ZM-70.6,19.964h1.584V22.78H-70.6Zm-2.31,2.816h-2.948v2.332h2.948v2.794h-2.618v2.332h19.118V27.906H-58.96V25.112h2.86V22.78h-2.86V19.964h2.068v-2.31h-13.2a11.843,11.843,0,0,0,.858-1.54l-2.552-.748a13.529,13.529,0,0,1-4.554,5.258,24.229,24.229,0,0,1,2.134,1.716,15.118,15.118,0,0,0,1.3-1.144Zm-.682,13.156a12.04,12.04,0,0,0,2.508-4.62l-2.53-.616a10.841,10.841,0,0,1-2.464,4.224Zm3.916-4.466a27.927,27.927,0,0,1,.418,4.2L-66.7,35.3a28.487,28.487,0,0,0-.528-4.114Zm4.356.044a23.444,23.444,0,0,1,1.122,4.18l2.618-.506A24.517,24.517,0,0,0-62.854,31.1Zm4.356-.11a28.336,28.336,0,0,1,2.6,4.51l2.684-.9a29.84,29.84,0,0,0-2.772-4.4ZM-48.07,16.356a24.121,24.121,0,0,1-.462,4.62c-1.1.088-2.134.154-2.816.176a20.229,20.229,0,0,1-2.31,0l.242,2.948c.682-.11,1.8-.264,2.42-.33.418-.066,1.1-.154,1.87-.242-.792,2.97-2.266,7.326-4.4,10.186l2.86,1.144c2-3.212,3.586-8.338,4.422-11.638.616-.044,1.144-.088,1.5-.088,1.386,0,2.134.242,2.134,1.98a16.113,16.113,0,0,1-.9,5.962,1.584,1.584,0,0,1-1.628.946,12.537,12.537,0,0,1-2.662-.462l.484,2.882a12.162,12.162,0,0,0,2.6.308,3.5,3.5,0,0,0,3.586-2c.924-1.892,1.232-5.368,1.232-7.942,0-3.124-1.628-4.158-3.938-4.158-.44,0-1.1.044-1.826.088.154-.792.33-1.584.44-2.244.11-.55.264-1.232.4-1.8Zm8.118,3.476a25.162,25.162,0,0,1,3.7,8.294l2.75-1.3a39.268,39.268,0,0,0-3.806-8.1Zm10.186,4.818,1.122,2.86c1.87-.792,6.2-2.6,8.734-2.6a2.809,2.809,0,0,1,3.124,2.772c0,2.97-3.7,4.268-8.646,4.4l1.144,2.706c6.93-.418,10.384-3.124,10.384-7.062,0-3.3-2.31-5.346-5.742-5.346-2.64,0-6.336,1.254-7.81,1.694A18.615,18.615,0,0,1-29.766,24.65ZM.726,25.662a32.009,32.009,0,0,1,4.2-.242,31.469,31.469,0,0,1,3.74.264l.066-2.618a37.825,37.825,0,0,0-3.828-.2c-1.408,0-2.97.11-4.18.22Zm1.716-7c-1.188.286-2.42.528-3.652.726l.176-.836c.11-.484.308-1.452.462-2.046l-3.322-.264a11.311,11.311,0,0,1-.088,2.2q-.066.528-.2,1.254c-.66.044-1.3.066-1.936.066a21.448,21.448,0,0,1-2.75-.176l.066,2.728c.77.044,1.584.088,2.64.088.44,0,.924-.022,1.43-.044-.154.616-.308,1.232-.462,1.8a48.036,48.036,0,0,1-3.762,9.812L-5.9,34.99A70.264,70.264,0,0,0-2.442,24.914c.242-.88.462-1.848.66-2.794,1.452-.176,2.926-.418,4.224-.7ZM-.616,28.324a14.953,14.953,0,0,0-.374,2.9c0,2.2,1.87,3.476,5.544,3.476A34.863,34.863,0,0,0,9,34.4l.11-2.794a25.258,25.258,0,0,1-4.532.44c-2.332,0-2.882-.7-2.882-1.65A7.537,7.537,0,0,1,2,28.566Zm28.974-9.548H22.682V17.72h5.676Zm0,2.772H22.682V20.492h5.676Zm2.42-5.632H20.372v7.436H30.778Zm1.5,10.472v-2.2H18.436v2.2h2.486A10.716,10.716,0,0,1,18.9,28.72l-.462-1.87-1.76.77V22.428h2.068V19.964H16.676V15.63h-2.42v4.334h-2.2v2.464h2.2v6.2c-1.034.418-1.958.792-2.706,1.078l.968,2.64c1.342-.66,2.926-1.452,4.51-2.244a9.062,9.062,0,0,1,1.716,1.54A13.691,13.691,0,0,0,21.3,29.49h1.32a13.271,13.271,0,0,1-4.488,3.982,7.729,7.729,0,0,1,1.716,1.54,16.787,16.787,0,0,0,5.148-5.522h1.3A12.1,12.1,0,0,1,22.2,34.55,7.207,7.207,0,0,1,24.046,36a15.677,15.677,0,0,0,4.4-6.512H29.3c-.242,2.662-.506,3.784-.814,4.114a.753.753,0,0,1-.66.242c-.286,0-.858,0-1.562-.066a5.217,5.217,0,0,1,.594,2.046,13.828,13.828,0,0,0,2.222-.044,2.051,2.051,0,0,0,1.452-.748c.594-.638.946-2.4,1.254-6.688.022-.308.044-.9.044-.9H22.9c.22-.352.44-.7.616-1.056Zm16.1,2.838v3.586h-8.69V29.226Zm-11.264,6.71h2.574v-.814h8.69v.814h2.684v-9.02H37.114Zm2.442-13.508a22.479,22.479,0,0,0,4.378-4.466,24.1,24.1,0,0,0,4.51,4.466Zm2.9-7.04a23.29,23.29,0,0,1-8.954,7.832,10.683,10.683,0,0,1,1.65,2.134,30.653,30.653,0,0,0,3.41-2.156v1.54H49.522V23.22a26.388,26.388,0,0,0,3.366,2.09,12.787,12.787,0,0,1,1.694-2.354,22.1,22.1,0,0,1-9.416-7.568Zm20.5,18.106a41.238,41.238,0,0,0-4.8-4.818l-2.288,1.98a41.291,41.291,0,0,1,4.73,4.862ZM-72.644,53.282a14.381,14.381,0,0,1-2,1.3c-1.012.594-2.552,1.364-4.158,2.31a51.079,51.079,0,0,1-2.728-6.028l-2.75,1.122c.99,2.31,2.046,4.642,3.036,6.49-2.09,1.54-3.608,3.322-3.608,5.72,0,3.762,3.278,4.972,7.612,4.972a40.027,40.027,0,0,0,7-.55l.044-3.124a36.4,36.4,0,0,1-7.106.792c-3.036,0-4.532-.836-4.532-2.4,0-1.518,1.21-2.772,3.014-3.96A59.889,59.889,0,0,1-73.436,57c.814-.4,1.5-.77,2.156-1.166Zm-.044-2.112a26.33,26.33,0,0,1,1.716,3.058l1.782-.748a32.485,32.485,0,0,0-1.76-3.014Zm2.6-.99a23.326,23.326,0,0,1,1.782,3.036l1.738-.748a29.481,29.481,0,0,0-1.76-3.014Zm10.1,13.86c-.814,0-1.694-1.078-1.694-3.278a6.831,6.831,0,0,1,5.522-6.314,34.97,34.97,0,0,1-1.166,5.28C-58.212,62.676-59.092,64.04-59.994,64.04ZM-54.01,68.9c5.5-.836,8.316-4.092,8.316-8.668,0-4.752-3.41-8.514-8.8-8.514-5.654,0-10.032,4.312-10.032,9.328,0,3.674,2.046,6.336,4.444,6.336,2.376,0,4.268-2.684,5.566-7.084a47.347,47.347,0,0,0,1.3-5.918c2.926.506,4.554,2.75,4.554,5.764,0,3.168-2.156,5.17-4.95,5.83-.572.132-1.188.242-2.024.352Zm19.778-4.4c0,1.43-.506,2.068-1.914,2.068-1.518,0-2.618-.4-2.618-1.474,0-.924,1.012-1.5,2.706-1.5a11.967,11.967,0,0,1,1.8.154C-34.232,64.04-34.232,64.3-34.232,64.5Zm9.416,1.012a17.228,17.228,0,0,0-6.622-3.74c-.11-1.606-.2-3.322-.242-4.642,1.76-.044,4.356-.132,6.182-.308l-.11-2.6c-1.8.2-4.356.286-6.072.33V52.974c.044-.858.11-1.914.2-2.552H-34.76a13.822,13.822,0,0,1,.22,2.552c.022.924.044,2.222.044,3.542,0,1.144.088,3.014.154,4.708a12.5,12.5,0,0,0-1.3-.066c-4,0-5.94,1.8-5.94,4.07,0,2.97,2.552,3.982,5.654,3.982,3.652,0,4.642-1.848,4.642-3.762,0-.22,0-.462-.022-.748a16.827,16.827,0,0,1,4.818,3.41ZM-7,60.762c0,3.41-3.454,5.17-8.866,5.786l1.584,2.728c6.05-.836,10.362-3.74,10.362-8.4,0-3.41-2.42-5.368-5.874-5.368a30.181,30.181,0,0,0-6.578.99,21.359,21.359,0,0,1-2.376.374l.814,3.1c.638-.22,1.474-.55,2.112-.748a19.548,19.548,0,0,1,5.676-1.056C-8.1,58.144-7,59.332-7,60.762ZM-15.532,50.29l-.44,2.64c2.508.44,7.238.858,9.79,1.034l.44-2.684A61.539,61.539,0,0,1-15.532,50.29Zm36.3,5.7A39.2,39.2,0,0,0,15.4,53.04L13.992,55.2a29.048,29.048,0,0,1,5.236,3.1Zm-8.206-3.344a23.012,23.012,0,0,1-2.926.682c.308-1.166.572-2.266.748-2.97L7.37,50.048A18.55,18.55,0,0,1,6.776,53.7c-.66.044-1.32.066-1.958.066a27.693,27.693,0,0,1-2.9-.154l.2,2.552c.946.044,1.826.066,2.728.066.374,0,.748,0,1.122-.022a33.241,33.241,0,0,1-4.444,7.7L4.18,65.25a40.216,40.216,0,0,0,4.664-9.328,31.926,31.926,0,0,0,3.784-.748Zm.528,12.122c0,1.166-.484,2.024-1.958,2.024-1.188,0-1.87-.55-1.87-1.364,0-.77.814-1.3,2.068-1.3a7.711,7.711,0,0,1,1.76.22Zm-.352-7.634c.066,1.32.176,3.234.242,4.862-.462-.044-.968-.088-1.474-.088-3.036,0-4.818,1.65-4.818,3.784,0,2.4,2.134,3.608,4.84,3.608,3.1,0,4.2-1.584,4.2-3.608v-.2a19.4,19.4,0,0,1,2.948,2.31L20.13,65.47a14.514,14.514,0,0,0-4.51-2.794c-.066-1.078-.11-2.134-.132-2.75-.022-.968-.066-1.87,0-2.794ZM42.526,50.62H31.834v2.486H42.526ZM27.61,49.366a19.572,19.572,0,0,1-4.972,4.686,15.21,15.21,0,0,1,1.452,2.134A29.535,29.535,0,0,0,30.14,50.4Zm.836,4.752A21.435,21.435,0,0,1,22.4,60.7a25.777,25.777,0,0,1,1.782,2.266c.594-.484,1.188-1.034,1.8-1.628v8.6H28.6V58.452a29.179,29.179,0,0,0,2.354-3.366Zm14.63,2.552H30.91v2.486H37.4v7.656c0,.33-.154.418-.55.418-.4.022-1.848.022-3.1-.044a10.836,10.836,0,0,1,.792,2.662,12.145,12.145,0,0,0,4.29-.44c.968-.4,1.232-1.122,1.232-2.53V59.156h3.014Zm8.492,8.69H55.55V63.512H51.568v-.858h3.894v-6.8H51.568V55h4.224v1.716h2c-.154,3.938-.682,7.084-2.4,9.46-1.276.11-2.574.22-3.828.308Zm-4.092-4.334v-.99h1.716v.99Zm5.808-.99v.99H51.568v-.99Zm-1.716-1.562v-.968h1.716v.968Zm-4.092-.968h1.716v.968H47.476Zm12.87-3.19c.044-1.452.044-2.992.044-4.6H57.882c0,1.628,0,3.146-.022,4.6H55.792v-1.21H51.568V52.028c1.43-.154,2.794-.352,3.96-.594l-1.144-1.958A68.163,68.163,0,0,1,44.9,50.554a8.148,8.148,0,0,1,.572,1.848c1.188-.022,2.442-.088,3.718-.176v.88H44.858V55h4.334v.858H45.408v6.8h3.784v.858H45.32V65.36h3.872v1.32c-1.694.11-3.234.22-4.466.308l.308,2.2c2.376-.2,5.544-.528,8.712-.858a8.572,8.572,0,0,1,1.54,1.738c3.7-2.926,4.708-7.458,4.994-13.354h1.98c-.132,7.106-.352,9.79-.814,10.384a.8.8,0,0,1-.748.374c-.418,0-1.254-.022-2.222-.11a6.125,6.125,0,0,1,.77,2.508,14.758,14.758,0,0,0,2.728-.088,2.455,2.455,0,0,0,1.738-1.1c.7-1.012.88-4.2,1.078-13.2,0-.308.022-1.166.022-1.166Zm19.36,10.516c-.022-.99-.066-2.6-.088-3.806,1.342-.616,2.574-1.1,3.542-1.474a23.1,23.1,0,0,1,2.6-.924l-1.1-2.53c-.792.374-1.562.748-2.4,1.122-.9.4-1.826.77-2.948,1.3a2.968,2.968,0,0,0-2.9-1.694,6.818,6.818,0,0,0-2.464.44,13.308,13.308,0,0,0,1.254-2.2,70.975,70.975,0,0,0,7.106-.572l.022-2.552a50.309,50.309,0,0,1-6.16.638c.264-.88.418-1.628.528-2.156l-2.86-.242a12.124,12.124,0,0,1-.44,2.486H72.336a27.952,27.952,0,0,1-3.828-.242v2.552c1.188.11,2.794.154,3.674.154h.264a21.3,21.3,0,0,1-4.8,5.984l2.332,1.738a27.9,27.9,0,0,1,2.024-2.4,5.392,5.392,0,0,1,3.41-1.5,1.7,1.7,0,0,1,1.518.748c-2.486,1.276-5.126,3.036-5.126,5.808,0,2.816,2.574,3.63,5.984,3.63a60.278,60.278,0,0,0,6.16-.352l.088-2.838a33.324,33.324,0,0,1-6.182.638c-2.134,0-3.168-.33-3.168-1.54,0-1.078.88-1.936,2.486-2.816-.022.946-.044,1.958-.088,2.6ZM-54.8,87.018h.77v1.716h6.49a24.953,24.953,0,0,1-1.892,6.556,26.53,26.53,0,0,1-2.024-6.512l-2.508.506A31.171,31.171,0,0,0-51,98a11.928,11.928,0,0,1-3.806,3.5Zm-5.654,8.976h3.124v1.98c-1.056.132-2.112.286-3.124.418Zm0-4.532h3.124v2.2h-3.124Zm3.124-4.444v2.09h-3.124v-2.09Zm10.956-.924-.44.066h-6.578V84.6H-64.438v2.42h1.5V98.7c-.748.088-1.43.154-2.024.22l.506,2.618c2.024-.308,4.6-.7,7.128-1.144v3.52h2.53v-2.068a10.464,10.464,0,0,1,1.452,1.914,15.071,15.071,0,0,0,3.916-3.366,13.879,13.879,0,0,0,3.784,3.366,9.5,9.5,0,0,1,1.8-2.156,12.1,12.1,0,0,1-3.982-3.564A29.2,29.2,0,0,0-44.66,86.512Zm6.16,6.556,1.122,2.86c1.87-.792,6.2-2.6,8.734-2.6a2.809,2.809,0,0,1,3.124,2.772c0,2.97-3.7,4.268-8.646,4.4l1.144,2.706c6.93-.418,10.384-3.124,10.384-7.062,0-3.3-2.31-5.346-5.742-5.346-2.64,0-6.336,1.254-7.81,1.694A18.617,18.617,0,0,1-40.216,92.65Zm19.338-5.742.264,2.992c2.53-.55,7.128-1.034,9-1.232a8.708,8.708,0,0,0-3.212,6.71c0,4.708,4.312,7.172,8.888,7.48l1.012-3.014c-3.674-.2-7.04-1.474-7.04-5.06a6.643,6.643,0,0,1,4.6-6.094,22.5,22.5,0,0,1,4.2-.286l-.022-2.816c-1.518.066-3.916.2-6.16.374-3.982.352-7.59.66-9.394.836C-19.184,86.842-20.02,86.886-20.878,86.908Zm26.092-.572L1.87,86.292a12.626,12.626,0,0,1,.154,2.2c0,1.342.044,3.872.242,5.874.616,5.852,2.706,8.008,5.082,8.008,1.76,0,3.124-1.342,4.576-5.126l-2.2-2.64c-.418,1.716-1.276,4.268-2.31,4.268-1.364,0-2.024-2.134-2.332-5.28-.132-1.562-.154-3.212-.132-4.62A17.264,17.264,0,0,1,5.214,86.336ZM16.1,86.8l-2.772.924c2.376,2.684,3.542,7.81,3.872,11.308l2.882-1.1C19.844,94.586,18.172,89.328,16.1,86.8Zm17.072,6.864a32.008,32.008,0,0,1,4.2-.242,31.47,31.47,0,0,1,3.74.264l.066-2.618a37.824,37.824,0,0,0-3.828-.2c-1.408,0-2.97.11-4.18.22Zm1.716-7c-1.188.286-2.42.528-3.652.726l.176-.836c.11-.484.308-1.452.462-2.046l-3.322-.264a11.311,11.311,0,0,1-.088,2.2q-.066.528-.2,1.254c-.66.044-1.3.066-1.936.066a21.448,21.448,0,0,1-2.75-.176l.066,2.728c.77.044,1.584.088,2.64.088.44,0,.924-.022,1.43-.044-.154.616-.308,1.232-.462,1.8a48.035,48.035,0,0,1-3.762,9.812l3.058,1.012a70.264,70.264,0,0,0,3.454-10.076c.242-.88.462-1.848.66-2.794,1.452-.176,2.926-.418,4.224-.7Zm-3.058,9.658a14.954,14.954,0,0,0-.374,2.9c0,2.2,1.87,3.476,5.544,3.476a34.863,34.863,0,0,0,4.444-.308l.11-2.794a25.258,25.258,0,0,1-4.532.44c-2.332,0-2.882-.7-2.882-1.65a7.537,7.537,0,0,1,.308-1.826ZM50.38,84.356a24.12,24.12,0,0,1-.462,4.62c-1.1.088-2.134.154-2.816.176a20.23,20.23,0,0,1-2.31,0l.242,2.948c.682-.11,1.8-.264,2.42-.33.418-.066,1.1-.154,1.87-.242-.792,2.97-2.266,7.326-4.4,10.186l2.86,1.144c2-3.212,3.586-8.338,4.422-11.638.616-.044,1.144-.088,1.5-.088,1.386,0,2.134.242,2.134,1.98a16.113,16.113,0,0,1-.9,5.962,1.584,1.584,0,0,1-1.628.946,12.537,12.537,0,0,1-2.662-.462l.484,2.882a12.162,12.162,0,0,0,2.6.308,3.5,3.5,0,0,0,3.586-2c.924-1.892,1.232-5.368,1.232-7.942,0-3.124-1.628-4.158-3.938-4.158-.44,0-1.1.044-1.826.088.154-.792.33-1.584.44-2.244.11-.55.264-1.232.4-1.8ZM58.5,87.832a25.162,25.162,0,0,1,3.7,8.294l2.75-1.3a39.267,39.267,0,0,0-3.806-8.1Z" transform="translate(330 4260)" fill="#0b3880"/>
    <path id="パス_10018" data-name="パス 10018" d="M-19.776.208c2.16,0,3.936-1.248,3.936-3.376a2.982,2.982,0,0,0-2.432-2.944v-.08A2.846,2.846,0,0,0-16.24-8.96c0-1.952-1.488-3.04-3.6-3.04a4.963,4.963,0,0,0-3.376,1.424l.96,1.152a3.448,3.448,0,0,1,2.352-1.12A1.648,1.648,0,0,1-18.1-8.832c0,1.184-.768,2.064-3.088,2.064v1.36c2.656,0,3.488.848,3.488,2.16A1.977,1.977,0,0,1-19.936-1.3a3.806,3.806,0,0,1-2.784-1.3l-.9,1.184A4.888,4.888,0,0,0-19.776.208Zm9.392,0c2.3,0,3.808-2.048,3.808-6.144C-6.576-10-8.08-12-10.384-12c-2.32,0-3.808,1.984-3.808,6.064C-14.192-1.84-12.7.208-10.384.208Zm0-1.456c-1.2,0-2.048-1.28-2.048-4.688,0-3.376.848-4.608,2.048-4.608s2.048,1.232,2.048,4.608C-8.336-2.528-9.184-1.248-10.384-1.248ZM-3.44.208a1.224,1.224,0,0,0,1.232-1.28A1.252,1.252,0,0,0-3.44-2.384,1.252,1.252,0,0,0-4.672-1.072,1.224,1.224,0,0,0-3.44.208ZM-.352,0h7.6V-1.568H4.3c-.576,0-1.312.048-1.92.112,2.5-2.384,4.3-4.736,4.3-7.008A3.33,3.33,0,0,0,3.136-12,4.621,4.621,0,0,0-.448-10.24L.592-9.216a3.194,3.194,0,0,1,2.32-1.312,1.92,1.92,0,0,1,2,2.16c0,1.936-1.792,4.224-5.264,7.3ZM11.872-4.736c1.664,0,2.768-1.376,2.768-3.76,0-2.352-1.1-3.712-2.768-3.712-1.648,0-2.768,1.36-2.768,3.712C9.1-6.112,10.224-4.736,11.872-4.736Zm0-1.1c-.816,0-1.408-.832-1.408-2.656,0-1.808.592-2.624,1.408-2.624.848,0,1.424.816,1.424,2.624C13.3-6.672,12.72-5.84,11.872-5.84Zm8.4,5.888c1.648,0,2.768-1.376,2.768-3.76,0-2.368-1.12-3.712-2.768-3.712S17.488-6.08,17.488-3.712C17.488-1.328,18.624.048,20.272.048Zm0-1.1c-.832,0-1.424-.832-1.424-2.656s.592-2.624,1.424-2.624,1.424.8,1.424,2.624S21.1-1.056,20.272-1.056ZM12.24.048h1.168l6.48-12.256H18.72Z" transform="translate(464 4236)" fill="#fff"/>
    <path id="パス_10019" data-name="パス 10019" d="M-22.688,0h6.72V-1.52h-2.3V-11.776h-1.392a7.234,7.234,0,0,1-2.56.9v1.168h2.112V-1.52h-2.576ZM-10.64-5.76c-1.232,0-1.9-.864-1.9-2.368,0-1.536.8-2.448,1.808-2.448,1.28,0,2.16,1.056,2.336,3.376A2.824,2.824,0,0,1-10.64-5.76Zm-3.424,4.72A4.041,4.041,0,0,0-11.056.208c2.272,0,4.384-1.856,4.384-6.5C-6.672-10.176-8.5-12-10.752-12a3.6,3.6,0,0,0-3.5,3.872c0,2.464,1.328,3.7,3.3,3.7A3.541,3.541,0,0,0-8.368-5.808C-8.48-2.448-9.712-1.3-11.136-1.3a2.625,2.625,0,0,1-1.936-.88ZM-3.44.208a1.224,1.224,0,0,0,1.232-1.28A1.252,1.252,0,0,0-3.44-2.384,1.252,1.252,0,0,0-4.672-1.072,1.224,1.224,0,0,0-3.44.208ZM-.352,0h7.6V-1.568H4.3c-.576,0-1.312.048-1.92.112,2.5-2.384,4.3-4.736,4.3-7.008A3.33,3.33,0,0,0,3.136-12,4.621,4.621,0,0,0-.448-10.24L.592-9.216a3.194,3.194,0,0,1,2.32-1.312,1.92,1.92,0,0,1,2,2.16c0,1.936-1.792,4.224-5.264,7.3ZM11.872-4.736c1.664,0,2.768-1.376,2.768-3.76,0-2.352-1.1-3.712-2.768-3.712-1.648,0-2.768,1.36-2.768,3.712C9.1-6.112,10.224-4.736,11.872-4.736Zm0-1.1c-.816,0-1.408-.832-1.408-2.656,0-1.808.592-2.624,1.408-2.624.848,0,1.424.816,1.424,2.624C13.3-6.672,12.72-5.84,11.872-5.84Zm8.4,5.888c1.648,0,2.768-1.376,2.768-3.76,0-2.368-1.12-3.712-2.768-3.712S17.488-6.08,17.488-3.712C17.488-1.328,18.624.048,20.272.048Zm0-1.1c-.832,0-1.424-.832-1.424-2.656s.592-2.624,1.424-2.624,1.424.8,1.424,2.624S21.1-1.056,20.272-1.056ZM12.24.048h1.168l6.48-12.256H18.72Z" transform="translate(423 4421)" fill="#fff"/>
  </g>
</svg>
