<?xml version="1.0" encoding="utf-8"?>
<!-- Generator: Adobe Illustrator 23.0.4, SVG Export Plug-In . SVG Version: 6.00 Build 0)  -->
<svg version="1.1" id="レイヤー_1" xmlns="http://www.w3.org/2000/svg" xmlns:xlink="http://www.w3.org/1999/xlink" x="0px"
	 y="0px" viewBox="0 0 315 350" style="enable-background:new 0 0 315 350;" xml:space="preserve">
<style type="text/css">
	.st0{fill:none;}
	.st1{fill:#F50A00;}
	.st2{fill:#FFFFFF;}
</style>
<path class="st0" d="M-0.5,0h315v350h-315V0z"/>
<g>
	<path class="st1" d="M54.2,232.8c-15.5,0-22.5,10.6-22.5,24.3c0,13.7,7.1,24.3,22.5,24.3s22.5-10.6,22.5-24.3
		C76.7,243.4,69.7,232.8,54.2,232.8z M54.2,273.2c-8,0-12.3-5.1-12.3-16.1c0-11,4.3-16.1,12.3-16.1s12.4,5.1,12.4,16.1
		C66.6,268.1,62.3,273.2,54.2,273.2z M198.2,280.6c1.7,0.3,3.5,0.4,5.3,0.4c4.1,0,4.9-0.4,4.9-0.4l-16.5-47.1c0,0-0.8-0.4-4.3-0.4
		s-4.3,0.4-4.3,0.4l-16.5,47.1c0,0,0.8,0.4,4.9,0.4c1.8,0.1,3.6-0.1,5.3-0.4l10.6-34.8L198.2,280.6z M167.6,233.2
		c-1.8-0.1-3.6,0.1-5.3,0.4l-6.3,33.8l-8.2-33.8c0,0-0.8-0.4-4.1-0.4s-4.1,0.4-4.1,0.4l-8.2,33.8l-6.3-33.8
		c-1.7-0.3-3.5-0.4-5.3-0.4c-4.3,0-5.1,0.4-5.1,0.4l11.4,47.1c0,0,0.8,0.4,4.1,0.4c2.1,0.1,4.2,0,6.3-0.4l7.2-30l7.3,30
		c2.1,0.3,4.2,0.5,6.3,0.4c3.3,0,4.1-0.4,4.1-0.4l11.4-47.1C172.7,233.6,171.9,233.2,167.6,233.2z M237.6,233.2
		c-1.8-0.1-3.6,0.1-5.3,0.4l-10.4,37.2l-10.4-37.2c-1.7-0.3-3.5-0.4-5.3-0.4c-4.3,0-5.1,0.4-5.1,0.4l15.1,47.1c0,0,0.8,0.4,5.7,0.4
		s5.7-0.4,5.7-0.4l15.1-47.1C242.7,233.6,241.9,233.2,237.6,233.2L237.6,233.2z"/>
	<path class="st1" d="M100.7,256.3l14.5-22.8c0,0-0.8-0.4-5.1-0.4c-1.9-0.1-3.8,0.1-5.7,0.4l-13.9,22.8l14.7,24.3
		c1.9,0.3,3.8,0.5,5.7,0.4c4.3,0,5.1-0.4,5.1-0.4L100.7,256.3z M79.1,233.6v47.1c0,0,0.8,0.4,4.9,0.4c4.1,0,4.9-0.4,4.9-0.4v-47.1
		c0,0-0.8-0.4-4.9-0.4C79.9,233.2,79.1,233.6,79.1,233.6z M254.8,272.4v-12h17.6c0,0,0.4-0.8,0.4-4.1c0-3.3-0.4-4.1-0.4-4.1h-17.6
		v-10.4h20.8c0,0,0.4-0.8,0.4-4.1s-0.4-4.1-0.4-4.1h-30.6v47.1h30.6c0,0,0.4-0.8,0.4-4.1s-0.4-4.1-0.4-4.1L254.8,272.4z M152.8,54.9
		C85,54.9,71.9,68,71.9,135.8s13.1,80.9,80.9,80.9s80.9-13.1,80.9-80.9S220.6,54.9,152.8,54.9L152.8,54.9z M152.8,208.5
		c-62.9,0-72.8-9.9-72.8-72.8S89.9,63,152.8,63s72.8,9.9,72.8,72.8S215.7,208.5,152.8,208.5L152.8,208.5z"/>
	<path class="st1" d="M178.7,92.6c-11.6,0-21.6,7.5-25.9,18.2c-4.3-10.7-14.2-18.2-25.9-18.2c-11.9,0-28.1,7.1-28.1,30.2
		c0,30.9,40.4,58.4,53.9,68.7c13.5-10.3,53.9-37.8,53.9-68.7C206.8,99.7,190.6,92.6,178.7,92.6z M40.4,301.4v1.3H37v-16.3h3.4v6.9
		c0.8-1.2,2.1-2,3.6-1.9c1.3-0.1,2.5,0.5,3.3,1.5c0.8,1.2,1.2,2.6,1.2,4c0.1,1.6-0.4,3.1-1.3,4.4c-0.9,1.1-2.2,1.7-3.6,1.7
		C42.3,303,41.1,302.4,40.4,301.4L40.4,301.4z M40.3,296.8v1.1c0,0.6,0.2,1.3,0.6,1.8c0.4,0.5,1,0.7,1.6,0.7c0.7,0,1.4-0.3,1.8-0.9
		c0.5-0.8,0.7-1.6,0.6-2.5c0-0.8-0.2-1.5-0.6-2.1c-0.4-0.5-1-0.8-1.7-0.8c-0.7,0-1.3,0.3-1.7,0.8C40.5,295.3,40.3,296,40.3,296.8
		L40.3,296.8z M72.7,298.1h-7.2c0.1,1.6,1.1,2.4,3,2.4c1.1,0,2.2-0.3,3.2-0.9v2.4c-1.2,0.6-2.6,0.9-4,0.8c-2.8,0.3-5.3-1.8-5.6-4.6
		c0-0.3,0-0.7,0-1c-0.1-1.6,0.5-3.2,1.6-4.3c1-1,2.4-1.6,3.9-1.6c1.4-0.1,2.7,0.4,3.7,1.4c0.9,1.1,1.4,2.5,1.3,3.9L72.7,298.1z
		 M69.6,296.1c0-1.6-0.6-2.4-1.9-2.4c-0.5,0-1.1,0.3-1.4,0.7c-0.4,0.5-0.7,1.1-0.7,1.7L69.6,296.1L69.6,296.1z M86.5,302.4v-2.8
		c0.5,0.3,1.1,0.6,1.7,0.8c0.5,0.2,1,0.2,1.6,0.2c0.5,0,1-0.1,1.4-0.2c0.3-0.1,0.5-0.4,0.5-0.8c0-0.2-0.1-0.4-0.2-0.5
		c-0.2-0.2-0.4-0.3-0.6-0.4c-0.3-0.1-0.5-0.2-0.8-0.3c-0.3-0.1-0.6-0.2-0.8-0.3c-0.4-0.1-0.8-0.3-1.2-0.5c-0.3-0.2-0.6-0.4-0.8-0.7
		c-0.2-0.3-0.4-0.5-0.5-0.9c-0.1-0.4-0.2-0.8-0.2-1.2c0-0.6,0.1-1.1,0.4-1.6c0.3-0.4,0.6-0.8,1.1-1.1c0.5-0.3,1-0.5,1.5-0.6
		c0.6-0.1,1.2-0.2,1.8-0.2c0.5,0,1,0,1.5,0.1s1,0.2,1.5,0.3v2.6c-0.4-0.3-0.9-0.4-1.4-0.6c-0.5-0.1-1-0.2-1.4-0.2
		c-0.2,0-0.4,0-0.6,0.1c-0.2,0-0.4,0.1-0.5,0.2c-0.1,0.1-0.3,0.2-0.4,0.3c-0.1,0.1-0.1,0.3-0.1,0.4c0,0.2,0.1,0.4,0.2,0.5
		c0.1,0.2,0.3,0.3,0.5,0.4s0.5,0.2,0.7,0.3l0.8,0.3c0.4,0.1,0.8,0.3,1.2,0.5c0.3,0.2,0.7,0.4,0.9,0.7c0.3,0.2,0.5,0.5,0.6,0.9
		c0.1,0.4,0.2,0.8,0.2,1.2c0,0.6-0.1,1.2-0.4,1.7s-0.7,0.8-1.1,1.1c-0.5,0.3-1,0.5-1.6,0.6c-0.6,0.1-1.3,0.2-1.9,0.2
		C88.7,303,87.6,302.8,86.5,302.4L86.5,302.4z M117.1,302.5c-0.7,0.3-1.5,0.4-2.3,0.4c-2.4,0-3.6-1.2-3.6-3.7v-5h-1.8v-2.5h1.8v-2.4
		l3.4-1v3.3h2.5v2.5h-2.5v4.4c0,1.1,0.4,1.7,1.4,1.7c0.4,0,0.8-0.1,1.1-0.3L117.1,302.5L117.1,302.5z M155.6,302.7h-3.2v-1.6
		c-0.7,1.2-1.9,1.9-3.3,1.9c-0.9,0.1-1.8-0.3-2.5-0.9c-0.6-0.6-1-1.5-0.9-2.4c0-2.1,1.3-3.4,3.8-3.7l3-0.4c0-1.2-0.6-1.8-1.9-1.8
		c-1.3,0-2.6,0.4-3.7,1.2v-2.5c0.6-0.3,1.3-0.5,1.9-0.6c0.7-0.2,1.5-0.3,2.2-0.3c3.1,0,4.7,1.6,4.7,4.7L155.6,302.7z M152.4,298.2
		v-0.7l-2,0.3c-1.1,0.1-1.7,0.6-1.7,1.5c0,0.4,0.1,0.7,0.4,1c0.3,0.3,0.7,0.4,1.1,0.4c0.6,0,1.2-0.2,1.6-0.7
		C152.2,299.5,152.4,298.8,152.4,298.2L152.4,298.2z M181.1,302.9h-3.4v-6.1c0-1.7-0.6-2.6-1.8-2.6c-0.6,0-1.1,0.2-1.4,0.7
		c-0.4,0.5-0.6,1.1-0.6,1.7v6.3h-3.4v-11h3.4v1.7c0.7-1.3,2.1-2,3.5-2c2.4,0,3.6,1.5,3.6,4.5L181.1,302.9z M194.4,302.4v-2.8
		c0.5,0.3,1.1,0.6,1.7,0.8c0.5,0.2,1,0.2,1.6,0.2c0.5,0,1-0.1,1.4-0.2c0.3-0.1,0.5-0.4,0.5-0.8c0-0.2-0.1-0.4-0.2-0.5
		c-0.2-0.2-0.4-0.3-0.6-0.4c-0.3-0.1-0.5-0.2-0.8-0.3c-0.3-0.1-0.6-0.2-0.9-0.3c-0.4-0.1-0.8-0.3-1.2-0.5c-0.3-0.2-0.6-0.4-0.8-0.7
		c-0.2-0.3-0.4-0.6-0.5-0.9c-0.1-0.4-0.2-0.8-0.2-1.2c0-0.6,0.1-1.1,0.4-1.6c0.3-0.4,0.6-0.8,1.1-1.1c0.5-0.3,1-0.5,1.5-0.6
		c0.6-0.1,1.2-0.2,1.8-0.2c0.5,0,1,0,1.5,0.1s1,0.2,1.5,0.3v2.6c-0.4-0.3-0.9-0.4-1.4-0.6c-0.5-0.1-1-0.2-1.4-0.2
		c-0.2,0-0.4,0-0.6,0.1c-0.2,0-0.4,0.1-0.5,0.2s-0.3,0.2-0.4,0.3c-0.1,0.1-0.1,0.3-0.1,0.4c0,0.2,0.1,0.4,0.2,0.5
		c0.1,0.2,0.3,0.3,0.5,0.4s0.5,0.2,0.7,0.3l0.8,0.3c0.4,0.1,0.8,0.3,1.2,0.5c0.3,0.2,0.7,0.4,0.9,0.7c0.3,0.2,0.5,0.5,0.6,0.9
		s0.2,0.8,0.2,1.2c0,0.6-0.1,1.2-0.4,1.7c-0.3,0.5-0.7,0.8-1.1,1.1c-0.5,0.3-1,0.5-1.6,0.6s-1.3,0.2-1.9,0.2
		C196.6,302.9,195.4,302.8,194.4,302.4L194.4,302.4z M232,291.9l-3.2,11h-3.5l-1.6-6.4c-0.1-0.5-0.2-0.9-0.2-1.4h-0.1
		c0,0.5-0.1,0.9-0.2,1.4l-1.7,6.5H218l-3.1-11h3.5l1.5,7.2c0.1,0.4,0.1,0.8,0.2,1.2h0.1c0-0.4,0.1-0.9,0.2-1.3l1.9-7.1h3.2l1.7,7.2
		c0,0.2,0.1,0.6,0.1,1.2h0.1c0-0.4,0.1-0.8,0.2-1.2l1.4-7.2L232,291.9z M252.1,298.1h-7.2c0.1,1.6,1.1,2.4,3,2.4
		c1.1,0,2.2-0.3,3.2-0.9v2.4c-1.2,0.6-2.6,0.9-4,0.8c-2.8,0.3-5.3-1.8-5.6-4.6c0-0.3,0-0.7,0-1c-0.1-1.6,0.5-3.2,1.6-4.3
		c1-1,2.4-1.6,3.9-1.6c1.4-0.1,2.7,0.4,3.7,1.4c0.9,1.1,1.4,2.5,1.3,3.9L252.1,298.1z M248.9,296.1c0-1.6-0.6-2.4-1.9-2.4
		c-0.5,0-1.1,0.3-1.4,0.7c-0.4,0.5-0.7,1.1-0.7,1.7L248.9,296.1L248.9,296.1z M272.8,295c-0.4-0.2-0.9-0.3-1.4-0.3
		c-0.7,0-1.3,0.3-1.7,0.8c-0.4,0.6-0.7,1.4-0.6,2.2v5.2h-3.4v-11h3.4v2c0.3-1.3,1.5-2.3,2.9-2.2c0.3,0,0.6,0,0.8,0.1L272.8,295z"/>
	<circle class="st2" cx="281.5" cy="301.2" r="1.8"/>
</g>
</svg>
