<?xml version="1.0" encoding="utf-8"?>
<!-- Generator: Adobe Illustrator 19.2.1, SVG Export Plug-In . SVG Version: 6.00 Build 0)  -->
<svg version="1.1" id="_x34_" xmlns="http://www.w3.org/2000/svg" xmlns:xlink="http://www.w3.org/1999/xlink" x="0px" y="0px"
	 viewBox="0 0 795.7 17.6" style="enable-background:new 0 0 795.7 17.6;" xml:space="preserve">
<style type="text/css">
	.st0{fill:#B6B6B6;}
</style>
<g>
	<g>
		<g>
			<polygon class="st0" points="257.8,0 253.6,4.6 253.6,8.3 253.6,12.1 257.8,16.7 262,12.1 262,8.3 262,4.6 			"/>
			<circle class="st0" cx="267.7" cy="8.4" r="3.2"/>
			<circle class="st0" cx="246.7" cy="8.4" r="3.2"/>
		</g>
		<g>
			<polygon class="st0" points="537.9,17.6 542,12.9 542,9.2 542,5.5 537.9,0.9 533.7,5.5 533.7,9.2 533.7,12.9 			"/>
			<circle class="st0" cx="528" cy="9.2" r="3.2"/>
			<circle class="st0" cx="549" cy="9.2" r="3.2"/>
		</g>
		<path class="st0" d="M235.6,0c0,0-7.9,5.1-16.2,5.1c-8.3,0-47.7,0-47.7,0s-3.7-3.6-7.8-3.6c-2,0-32,0.5-57.9,2
			C83.6,4.8,10.9,7.1,0,8.3c10.9,1.2,83.6,3.3,105.9,4.8c25.1,1.7,56,2,57.9,2c4,0,7.8-3.6,7.8-3.6s39.4,0,47.7,0
			c8.3,0,16.2,5.1,16.2,5.1l4.2-4.6V8.3V4.7L235.6,0z M235.8,4.9c-1.8,0.6-13.4,2.7-13.4,2.7h-52.8l-4.2-1.2L32.3,7.6
			c-2.1,0.1-3.4,0.1-3.6,0l3.6,0c17.3-0.4,89.9-3.3,96.8-3.5c7.7-0.3,34.9-1.2,37,0c2.1,1.2,4.8,2.5,4.8,2.5h51.3
			c0,0,11-2.8,13.1-4.3C237,2.2,237.6,4.3,235.8,4.9z"/>
		<path class="st0" d="M293.6,5.5c-8.3,0-16.2-5.1-16.2-5.1l-4.2,4.6v3.7v3.7l4.2,4.6c0,0,7.9-5.1,16.2-5.1c8.3,0,47.7,0,47.7,0V8.8
			V5.5C341.3,5.5,301.9,5.5,293.6,5.5z M340.2,8h-50.5l-13.9-3.4l2-2.2c0,0,9.3,4,12.7,4c3.4,0,49.7,0,49.7,0V8z"/>
		<path class="st0" d="M518.3,0.4c0,0-7.9,5.1-16.2,5.1c-8.3,0-47.7,0-47.7,0v3.2V12c0,0,39.4,0,47.7,0c8.3,0,16.2,5.1,16.2,5.1
			l4.2-4.6V8.8V5.1L518.3,0.4z M507.4,8.3c-1.6,0-52.2,0-52.2,0V6.5h51.9l11.3-4.4l0.8,1.1C519.2,3.2,509,8.3,507.4,8.3z"/>
		<path class="st0" d="M689.8,4.5c-25.1-1.7-56-2-57.9-2c-4,0-7.8,3.6-7.8,3.6s-39.4,0-47.7,0c-8.3,0-16.2-5.1-16.2-5.1l-4.2,4.6
			v3.6v3.6l4.2,4.6c0,0,7.9-5.1,16.2-5.1c8.3,0,47.7,0,47.7,0s3.7,3.6,7.8,3.6c2,0,32-0.5,57.9-2c22.3-1.3,95-3.6,105.9-4.8
			C784.8,8.1,712.1,6,689.8,4.5z M631.9,5.6c-0.7,0.1-6.4,3.2-6.4,3.2h-51.3l-14-3.2c0,0,0.3-2.1,1.3-1.9c1.7,0.4,9.9,3.6,12.9,3.6
			c2.9,0,50.9,0,50.9,0s4.5-3,6.6-3.3c2.1-0.3,130.6,4.4,130.6,4.4S632.6,5.5,631.9,5.6z"/>
	</g>
	<path class="st0" d="M346.4,12.2c0,1.5-1.2,2.7-2.7,2.7l0,0c-1.5,0-2.7-1.2-2.7-2.7V4.8c0-1.5,1.2-2.7,2.7-2.7l0,0
		c1.5,0,2.7,1.2,2.7,2.7V12.2z"/>
	<path class="st0" d="M453.4,12.2c0,1.5-1.2,2.7-2.7,2.7l0,0c-1.5,0-2.7-1.2-2.7-2.7V4.8c0-1.5,1.2-2.7,2.7-2.7l0,0
		c1.5,0,2.7,1.2,2.7,2.7V12.2z"/>
	<path class="st0" d="M390.7,14.4c-4.6,0-7.5-13.2-14.7-13.2c-7.2,0-10.1,13.2-14.7,13.2c-4.6,0-10.1-8.4-13-8.4v3.7
		c1.6,0,8.6,7.5,13.2,7.5c4.6,0,11.5-10.7,14.4-10.7c2.9,0,9.8,10.7,14.4,10.7c4.6,0,11.7-7.5,13.2-7.5V6
		C400.7,6,395.3,14.4,390.7,14.4z"/>
	<path class="st0" d="M404.6,14.4c4.6,0,7.5-13.2,14.7-13.2c7.2,0,10.1,13.2,14.7,13.2c4.6,0,10.1-8.4,13-8.4v3.7
		c-1.6,0-8.6,7.5-13.2,7.5c-4.6,0-11.5-10.7-14.4-10.7c-2.9,0-9.8,10.7-14.4,10.7c-4.6,0-11.7-7.5-13.2-7.5V6
		C394.5,6,400,14.4,404.6,14.4z"/>
	<path class="st0" d="M404.6,3.7c4.6,0,7.5,13.2,14.7,13.2c7.2,0,10.1-13.2,14.7-13.2c4.6,0,10.1,8.3,13,8.3V8.3
		c-1.6,0-8.6-7.5-13.2-7.5c-4.6,0-11.5,10.7-14.4,10.7c-2.9,0-9.8-10.7-14.4-10.7c-4.6,0-11.7,7.5-13.2,7.5V12
		C394.5,12,400,3.7,404.6,3.7z"/>
	<path class="st0" d="M390.7,3.7c-4.6,0-7.5,13.2-14.7,13.2c-7.2,0-10.1-13.2-14.7-13.2c-4.6,0-10.1,8.3-13,8.3V8.3
		c1.6,0,8.6-7.5,13.2-7.5c4.6,0,11.5,10.7,14.4,10.7c2.9,0,9.8-10.7,14.4-10.7c4.6,0,11.7,7.5,13.2,7.5V12
		C400.7,12,395.3,3.7,390.7,3.7z"/>
</g>
</svg>
