<?xml version="1.0" encoding="utf-8"?>
<!-- Generator: Adobe Illustrator 19.2.1, SVG Export Plug-In . SVG Version: 6.00 Build 0)  -->
<svg version="1.1" id="_x32_" xmlns="http://www.w3.org/2000/svg" xmlns:xlink="http://www.w3.org/1999/xlink" x="0px" y="0px"
	 viewBox="0 0 803 65" style="enable-background:new 0 0 803 65;" xml:space="preserve">
<style type="text/css">
	.st0{fill:#ECC340;}
</style>
<g>
	<g>
		<path class="st0" d="M350.8,49.3c-0.3-1.1,1.8-7.9-6.3-15.3c-6-5.6-9-6.3-20.2-10.2c-8-2.8-9.4-10.4-6.2-10.4
			c3.1,0.1,0,4.9,3.7,5.5c3.6,0.6,1.5-6.1-2-7.3c-3.4-1.2-8.5,1.7-6.2,7.6c3.5,8.9,18.9,12.6,23,18.2c3.8,5.2-4.6,1.9-6,8.2
			c-0.7,3.2,5.4-1.1,13.1,2c1.4,0.6-2-0.7,0,0c2.5,0.9,6,3.8,3.8,6.9c-2.1,3.1-5.4,0.5-4-1.4c1.4-2-1.2-3.6-2.3-1.5
			c-1.1,2.1,0,5.9,3.2,6.7C347.7,59,352.1,54.3,350.8,49.3z"/>
		<path class="st0" d="M194.8,40.5c0,0-2.4-2.4-2.4-7.1s4.7-7.1,4.7-7.1l-5.9-8.8v22.9L194.8,40.5L194.8,40.5z"/>
		<path class="st0" d="M194.8,42.2c0,0-2.4,2.4-2.4,7.1s4.7,7.1,4.7,7.1l-5.9,8.8v-23H194.8z"/>
		<g>
			<path class="st0" d="M187.7,40.5c0,0,2.4-2.4,2.4-7.1s-4.7-7.1-4.7-7.1l5.9-8.8v22.9L187.7,40.5L187.7,40.5z"/>
			<path class="st0" d="M187.7,42.2c0,0,2.4,2.4,2.4,7.1s-4.7,7.1-4.7,7.1l5.9,8.8v-23H187.7z"/>
		</g>
		<path class="st0" d="M352.2,42.5c0,0,1.7-8.7-2.9-17.2c-1.1,0.3-2.3,3.7-2.3,3.7s-1.6-7.1-6.2-9.8c-1.5,2.2-1.3,4.7-1.3,4.7
			s-6.1-2.2-7.5-3.3c-1.3-1.2,0.4,2.9,0.4,2.9l-5-1.4c0,0,0.3,1.1,8.5,4.4C344,29.6,350.5,35.7,352.2,42.5z"/>
		<path class="st0" d="M182.3,42.4V40c4.7-2.4,2.9-11.2-4.1-10.6c-7.1,0.6-5.3,8.8-2.4,7.6c2.9-1.2-0.6-2.9,0-4.1
			c3.6-1,6.8,4.8,2.6,6.2h-4.2c-5.2-1.5-6.1-7.9-6.1-7.9s-5.1,6.5-12.4,7.9h-8.8c-8-2.5-12.1-13.9-14.3-13.1c-2.4,1-2.4,6.8,0.5,9.7
			c-6.3-2.4-14-9.7-16.5-10.2c-2.4-0.5-2.9,4.8,1.5,7.7c3.1,2.1,6.6,4.7,16.8,5.8h-12c-3.1-1.3-7.1-3.3-9.1-5.8
			c-3.4-0.5-1.9,3.4-1.9,3.4s-6.8-0.5-9.2-1.9c-1.8-1.1-1.4,2.2,1.2,4.4H64.1c0,0-0.5,1.2-2.1,1.2c-0.6,0-1.1,0-2.4,0
			s-4.9-2.2-4.9-2.9l-54.8,4.1L54.7,45c0-0.7,3.6-2.9,4.9-2.9s1.7,0,2.4,0c1.6,0,2.1,1.2,2.1,1.2h18.7c-6.4,6.2,1.3,12.1,5.7,9.8
			c2.9-1.5,2.9-4.7,0.7-5.8c-2.2-1.1-2.9,0.4-1.5,1.5c1.5,1.1,0.2,4.1-3,1.9c-3.3-2.2-1-5.2,2.7-6.3c3.6-1.1,6.5,1.1,6.5,1.1
			s0,0-1.5,1.5c3.3,0.4,7.6-1.8,7.6-1.8s-5.8,5.8-3.3,7.3c12-1.3,11.1-7.2,15.4-9h10.2c-2.6,1.6-4.3,2.8-4.9,4.7
			c-1.5,4.5,12.3-3.6,12.3-3.6s-1.8,2.2-4.4,5.1c-2.5,2.9-0.4,1.8,4,1.5c4.4-0.4,9.1-5.8,9.1-5.8s-3.3,6.2-2.2,7.3s9.3-8.2,14-9h5.4
			c7.3,1.5,12.4,7.9,12.4,7.9s0.9-6.5,6.1-7.9h4.2c4.2,1.4,1,7.2-2.6,6.2c-0.6-1.2,2.9-2.9,0-4.1s-4.7,7.1,2.4,7.6
			C185.3,53.6,187,44.7,182.3,42.4z M32.7,40.3l21.8-2c0.1,0.3,2.2,2,2.2,2H32.7z M180.6,40.7H64.9l0.7-0.9h73.1l0.2-0.9l2.9,1.1
			c0,0,12.5,0,16.9,0s9.4-2.9,9.4-2.9s1.3,2.9,3.8,3.1s9.3-0.9,9.3-0.9L180.6,40.7z"/>
		<path class="st0" d="M307.7,39.1c-4.7-2.3-8-7.2-9.6-9.2c-1.7-2.2-3.4,4.1-1.1,7.1c0.8,1,2.6,1.7,4.5,2.1h-11.9
			c-8.6-1.9-13.4-8.4-12-14.3c1.6-7.1,14.1-1.6,8.6,4.7c0,1.6,5.5,4.7,7.8-1.6c2.4-6.3-3.9-14.1-14.1-11.8
			c-6.9,1.6-10.5,7.8-9.6,13.8c-3.5-2.1-7.1-3.6-9.8-3.1c-1.1,1.6,3.4,9.3,11,12.3h-9.6c-1-2.3-1.7-7.1-6.4-9.5
			c-5.6-2.9-5-0.6-5-0.6s0,5.6,2.4,7.1c-1.5-0.9-10-3.8-7.9-1.5c1.5,1.8,1.3,3.2,2.8,4.5h-6.2c0.2-0.1,0.3-0.2,0.3-0.2
			c-4.8,0-10.7-3.4-10.2-9.4c0.5-5.1,9-2.9,6.5,1.2c-0.7,1.2-1.2-1-2.7-0.5c-1.5,0.5-1,3.9,2.2,3.4c3.1-0.5,4.8-5.3,2.2-7.7
			c-2.7-2.4-8.2-3.1-10.4,1.7s0.7,7.5,0.7,7.5s-4.1-1.9-4.1-0.5c0,0.9,1.1,3,3.1,4.6H226c-7.3-1.5-12.4-7.9-12.4-7.9
			s-0.9,6.5-6.1,7.9h-4.2c-4.2-1.4-1-7.2,2.6-6.2c0.6,1.2-2.9,2.9,0,4.1c2.9,1.2,4.7-7.1-2.4-7.6c-7.1-0.6-8.8,8.2-4.1,10.6v2.4
			c-4.7,2.4-2.9,11.2,4.1,10.6c7.1-0.6,5.3-8.8,2.4-7.6c-2.9,1.2,0.6,2.9,0,4.1c-3.6,1-6.8-4.8-2.6-6.2h4.2c5.2,1.5,6.1,7.9,6.1,7.9
			s5.1-6.5,12.4-7.9h23.6c-3.4,1.4-5.3,4.8-6.4,7.6c-1.7,4.4,3.6,5.6,3.9,1.9c0.2-2.6,3.2-9.9,9.8-9.5h-0.1h0.7
			c-5.8,2.4-8.7,9.3-8.7,14.1c0,7.1,8,5.9,6.5,0.6c-1.1-3.8,1.8-15.3,11.8-14.7H267h14.4c-4.9,3.9-8.8,10.2-9.7,12.4
			c-1.4,3.2,7.8-2.3,12.4-4.6c2.3,2.8,6.9,0.5,6-1.8c-3.7,0-3.2-6,4.6-6h5c0.2,0,0.4,0,0.6,0h2.6c0.6,0.1-0.5,0.4-1.8,1.7
			c-2.8,1.4-1.7,7.4,2.9,7.4c0-6.7,6-8.7,11.6-9.2h9l3.3-4.1h-20.2V39.1z M206.3,40.8l5-1.8l2.3-2.9c0,0,3.3,4.1,14.8,4.1
			c5.3,0,94.6,0,94.6,0l0.5,0.6C323.5,40.8,206.3,40.8,206.3,40.8z"/>
	</g>
	<g>
		<path class="st0" d="M447.4,49.3c0.3-1.1-1.8-7.9,6.3-15.3c6-5.6,9-6.3,20.2-10.2c8-2.8,9.4-10.4,6.2-10.4c-3.1,0.1,0,4.9-3.7,5.5
			c-3.6,0.6-1.5-6.1,2-7.3c3.4-1.2,8.5,1.7,6.2,7.6c-3.5,8.9-18.9,12.6-23,18.2c-3.8,5.2,4.6,1.9,6,8.2c0.7,3.2-5.4-1.1-13.1,2
			c-1.4,0.6,2-0.7,0,0c-2.5,0.9-6,3.8-3.8,6.9c2.1,3.1,5.4,0.5,4-1.4c-1.4-2,1.2-3.6,2.3-1.5c1.1,2.1,0,5.9-3.2,6.7
			C450.5,59,446,54.3,447.4,49.3z"/>
		<path class="st0" d="M608.4,40.5c0,0,2.4-2.4,2.4-7.1s-4.7-7.1-4.7-7.1l5.9-8.8v22.9L608.4,40.5L608.4,40.5z"/>
		<path class="st0" d="M608.4,42.2c0,0,2.4,2.4,2.4,7.1s-4.7,7.1-4.7,7.1l5.9,8.8v-23H608.4z"/>
		<g>
			<path class="st0" d="M615.4,40.5c0,0-2.4-2.4-2.4-7.1s4.7-7.1,4.7-7.1l-5.9-8.8v22.9L615.4,40.5L615.4,40.5z"/>
			<path class="st0" d="M615.4,42.2c0,0-2.4,2.4-2.4,7.1s4.7,7.1,4.7,7.1l-5.9,8.8v-23H615.4z"/>
		</g>
		<path class="st0" d="M446,42.5c0,0-1.7-8.7,2.9-17.2c1.1,0.3,2.3,3.7,2.3,3.7s1.6-7.1,6.2-9.8c1.5,2.2,1.3,4.7,1.3,4.7
			s6.1-2.2,7.5-3.3c1.3-1.2-0.4,2.9-0.4,2.9l5-1.4c0,0-0.3,1.1-8.5,4.4C454.2,29.6,447.7,35.7,446,42.5z"/>
		<path class="st0" d="M624.9,53c7.1-0.6,5.3-8.8,2.4-7.6c-2.9,1.2,0.6,2.9,0,4.1c-3.6,1-6.8-4.8-2.6-6.2h4.2
			c5.2,1.5,6.1,7.9,6.1,7.9s5.1-6.5,12.4-7.9h5.4c4.7,0.9,12.9,10.1,14,9s-2.2-7.3-2.2-7.3s4.7,5.4,9.1,5.8c4.4,0.4,6.5,1.5,4-1.5
			c-2.5-2.9-4.4-5.1-4.4-5.1s13.8,8.1,12.3,3.6c-0.6-1.9-2.3-3.1-4.9-4.7h10.2c4.2,1.8,3.4,7.7,15.4,9c2.5-1.5-3.3-7.3-3.3-7.3
			s4.4,2.2,7.6,1.8c-1.5-1.5-1.5-1.5-1.5-1.5s2.9-2.2,6.5-1.1s5.9,4.1,2.7,6.3c-3.3,2.2-4.5-0.8-3-1.9s0.7-2.5-1.5-1.5
			c-2.2,1.1-2.1,4.3,0.7,5.8c4.3,2.3,12.1-3.6,5.7-9.8h18.7c0,0,0.5-1.2,2.1-1.2c0.6,0,1.1,0,2.4,0s4.9,2.2,4.9,2.9l54.8-3.5
			L748.3,37c0,0.7-3.6,2.9-4.9,2.9s-1.7,0-2.4,0c-1.6,0-2.1-1.2-2.1-1.2h-39.8c2.6-2.1,3-5.5,1.2-4.4c-2.4,1.5-9.2,1.9-9.2,1.9
			s1.5-3.9-1.9-3.4c-2,2.5-6,4.5-9.1,5.8H668c10.2-1.1,13.6-3.7,16.8-5.8c4.4-2.9,3.9-8.2,1.5-7.7s-10.2,7.7-16.5,10.2
			c2.9-2.9,2.9-8.7,0.5-9.7c-2.2-0.9-6.2,10.6-14.3,13.1h-8.8c-7.3-1.5-12.4-7.9-12.4-7.9s-0.9,6.5-6.1,7.9h-4.2
			c-4.2-1.4-1-7.2,2.6-6.2c0.6,1.2-2.9,2.9,0,4.1s4.7-7.1-2.4-7.6c-7.1-0.6-8.8,8.2-4.1,10.6V42C616.1,44.7,617.9,53.6,624.9,53z
			 M746.5,40.3c0,0,2.1-1.7,2.2-2l21.8,2H746.5z M621.9,39.2c0,0,6.7,1.1,9.3,0.9c2.5-0.2,3.8-3.1,3.8-3.1s5.1,2.9,9.4,2.9
			s16.9,0,16.9,0l2.9-1.1l0.2,0.9h73.1l0.7,0.9H622.5L621.9,39.2z"/>
		<path class="st0" d="M475.5,39.1l3.3,4.1h9c5.6,0.5,11.6,2.5,11.6,9.2c4.6,0,5.6-6.1,2.9-7.4c-1.3-1.3-2.5-1.7-1.8-1.7h2.6
			c0.2,0,0.4,0,0.6,0h5c7.8,0,8.3,6,4.6,6c-0.9,2.3,3.7,4.6,6,1.8c4.6,2.3,13.8,7.8,12.4,4.6c-0.9-2.2-4.8-8.5-9.7-12.4h14.4h-0.1
			c10-0.6,12.9,10.9,11.8,14.7c-1.6,5.3,6.5,6.5,6.5-0.6c0-4.9-2.8-11.8-8.7-14.1h0.7h-0.1c6.6-0.4,9.6,6.9,9.8,9.5
			c0.3,3.7,5.6,2.5,3.9-1.9c-1.1-2.8-3-6.2-6.4-7.6h23.6c7.3,1.5,12.4,7.9,12.4,7.9s0.9-6.5,6.1-7.9h4.2c4.2,1.4,1,7.2-2.6,6.2
			c-0.6-1.2,2.9-2.9,0-4.1c-2.9-1.2-4.7,7.1,2.4,7.6c7.1,0.6,8.8-8.2,4.1-10.6V40c4.7-2.4,2.9-11.2-4.1-10.6
			c-7.1,0.6-5.3,8.8-2.4,7.6c2.9-1.2-0.6-2.9,0-4.1c3.6-1,6.8,4.8,2.6,6.2h-4.2c-5.2-1.5-6.1-7.9-6.1-7.9s-5.1,6.5-12.4,7.9h-3.5
			c2-1.6,3.1-3.7,3.1-4.6c0-1.5-4.1,0.5-4.1,0.5s2.9-2.7,0.7-7.5s-7.7-4.1-10.4-1.7s-1,7.3,2.2,7.7c3.1,0.5,3.6-2.9,2.2-3.4
			c-1.5-0.5-1.9,1.7-2.7,0.5c-2.4-4.1,6-6.3,6.5-1.2c0.6,6-5.3,9.4-10.2,9.4c0,0,0.1,0.1,0.3,0.2h-6.2c1.5-1.3,1.2-2.8,2.8-4.5
			c2.1-2.4-6.5,0.6-7.9,1.5c2.4-1.5,2.4-7.1,2.4-7.1s0.6-2.4-5,0.6c-4.7,2.5-5.4,7.2-6.4,9.5h-9.6c7.6-3,12.1-10.7,11-12.3
			c-2.8-0.4-6.4,1.1-9.8,3.1c1-6-2.7-12.2-9.6-13.8c-10.2-2.4-16.5,5.5-14.1,11.8s7.8,3.1,7.8,1.6c-5.5-6.3,7.1-11.8,8.6-4.7
			c1.3,5.9-3.5,12.4-12,14.3h-11.9c1.9-0.4,3.7-1.1,4.5-2.1c2.3-3,0.7-9.3-1.1-7.1c-1.6,2-4.9,6.9-9.6,9.2L475.5,39.1L475.5,39.1z
			 M479.7,40.8l0.5-0.6c0,0,89.3,0,94.6,0c11.5,0,14.8-4.1,14.8-4.1l2.3,2.9l5,1.8H479.7z"/>
	</g>
	<path class="st0" d="M440.2,14.5c-1.2,0-2.1,1-2.1,2.2c0,0.6,0.3,1.2,0.7,1.6c-3.2,3.4-10.8,11.3-15.1,12.8l1.1-4.6
		c0.1,0,0.3,0.1,0.4,0.1c0.9,0,1.7-0.8,1.7-1.7c0-0.9-0.8-1.7-1.7-1.7c-0.9,0-1.7,0.8-1.7,1.7c0,0.5,0.2,0.9,0.5,1.2l-3.6,3.5
		c-1.2-2.7-0.9-7.8-0.7-10.7c0.1,0,0.2,0,0.2,0c1.2,0,2.1-1,2.1-2.1c0-1.2-1-2.2-2.1-2.2c-1.2,0-2.1,1-2.1,2.2c0,0.8,0.4,1.4,1,1.8
		c-1.8,2.7-5.4,7.7-8.2,9.2c-0.2-1.1-0.4-2.4-0.6-3.4c0.9-0.1,1.5-0.8,1.5-1.7c0-0.9-0.8-1.7-1.7-1.7c-0.9,0-1.7,0.8-1.7,1.7
		c0,0.6,0.3,1.2,0.8,1.5c-0.5,0.9-1.2,2-1.9,3c-3-2.8-5.3-10.6-6.5-15.2c0-0.1,0-0.3,0-0.4c0.1,0,0.2,0,0.4,0c0.6,0,1.5-0.4,1.5-0.9
		l0,0c0-0.5-0.8-0.9-1.5-0.9h-0.4c0-0.1,0-0.2,0-0.4V9.3c0-0.3,0-0.6,0-0.8c0.2-0.1,0.4-0.3,0.5-0.5c0.5,0,0.8,0,0.8,0s0.2,0,0.5,0
		c0,0.1,0,0.2,0,0.4c0,0.6,0.4,1.5,0.9,1.5l0,0c0.5,0,0.9-0.8,0.9-1.5V8c0.1,0,0.2,0,0.4,0c0.6,0,2.2-0.4,2.2-0.9l0,0
		c0-0.5-1.5-0.9-2.2-0.9h-0.4c0-0.1,0-0.3,0-0.4c0-0.6-0.4-1.5-0.9-1.5l0,0c-0.5,0-0.9,0.8-0.9,1.5v0.4c-0.1,0-0.3,0-0.4,0
		s-0.2,0-0.2,0c-0.1,0-0.4,0-0.7,0c-0.1-0.2-0.3-0.4-0.5-0.5c0-0.5,0-0.9,0-1.3c0.1,0,0.2,0,0.4,0c0.6,0,1.5-0.4,1.5-0.9l0,0
		c0-0.5-0.8-0.9-1.5-0.9h-0.4c0-0.1,0-0.2,0-0.4c0-0.6-0.4-2.2-0.9-2.2l0,0c-0.5,0-0.9,1.5-0.9,2.2v0.4c-0.1,0-0.3,0-0.4,0
		c-0.6,0-1.5,0.4-1.5,0.9l0,0c0,0.5,0.8,0.9,1.5,0.9h0.4c0,0.1,0,0.3,0,0.4c0,0.1,0,0.2,0,0.2v0.7c-0.2,0.1-0.4,0.3-0.5,0.5
		c-0.5,0-0.9,0-1.3,0c0-0.1,0-0.2,0-0.4c0-0.6-0.4-1.5-0.9-1.5l0,0c-0.5,0-0.9,0.8-0.9,1.5v0.4c-0.1,0-0.3,0-0.4,0
		c-0.6,0-2.2,0.4-2.2,0.9l0,0c0,0.5,1.5,0.9,2.2,0.9h0.4c0,0.1,0,0.2,0,0.4c0,0.6,0.4,1.5,0.9,1.5l0,0c0.5,0,0.9-0.8,0.9-1.5V8
		c0.1,0,0.2,0,0.4,0c0.1,0,0.2,0,0.2,0h0.7c0.1,0.2,0.3,0.4,0.5,0.5v0.8c0,0,0,0.2,0,0.5c-0.1,0-0.2,0-0.4,0c-0.6,0-1.5,0.4-1.5,0.9
		l0,0c0,0.5,0.8,0.9,1.5,0.9h0.4c0,0.1,0,0.3,0,0.4c0,0,0,0,0,0.1c-1.2,4.7-3.5,12.4-6.5,15.2c-0.6-0.9-1.3-2.1-1.9-3
		c0.5-0.3,0.8-0.8,0.8-1.5c0-0.9-0.8-1.7-1.7-1.7c-0.9,0-1.7,0.8-1.7,1.7c0,0.9,0.7,1.6,1.5,1.7c-0.2,1-0.4,2.3-0.6,3.4
		c-2.7-1.5-6.4-6.5-8.2-9.2c0.6-0.4,1-1,1-1.8c0-1.2-1-2.2-2.1-2.2c-1.2,0-2.1,1-2.1,2.2s1,2.1,2.1,2.1c0.1,0,0.2,0,0.2,0
		c0.3,2.9,0.5,8.1-0.7,10.7l-3.5-3.4c0.1-0.2,0.2-0.5,0.2-0.8c0-0.9-0.8-1.7-1.7-1.7c-0.9,0-1.7,0.8-1.7,1.7c0,0.9,0.8,1.7,1.7,1.7
		c0.3,0,0.5-0.1,0.7-0.2l1,4.2c-3.8-1.3-10.3-7.8-13.9-11.6c0.5-0.4,0.8-1,0.8-1.7c0-1.2-1-2.1-2.1-2.1c-1.2,0-2.1,1-2.1,2.1
		c0,1.2,1,2.1,2.1,2.1c0.2,0,0.4,0,0.6-0.1c6.6,11.3,11.2,20.5,12.8,23.8c-0.6,0.2-1,0.7-1,1.4c0,0.8,0.6,1.4,1.4,1.4h0.1v5h-0.1
		c-0.8,0-1.4,0.6-1.4,1.4s0.6,1.4,1.4,1.4h50.8c0.8,0,1.4-0.6,1.4-1.4c0-0.8-0.6-1.4-1.4-1.4h-0.1v-5h0.1c0.8,0,1.4-0.6,1.4-1.4
		c0-0.6-0.4-1.2-1-1.4c1.7-3.5,6.5-13.2,13.5-25.1c0.3,0.2,0.7,0.3,1.1,0.3c1.2,0,2.1-1,2.1-2.1C442.3,15.5,441.4,14.5,440.2,14.5z
		 M377.5,43.6h-1.6c0,0-4.7-11.6-5.9-13l5.7,3.4C375.8,34,377.6,42.7,377.5,43.6z M384,42.7l-2.9-1.3l-0.2-4.9l3.8,3.4L384,42.7z
		 M387.1,35.8l-5.3-3.9c0,0,0.6-2.7,1-4.9c0,0,3.3,3,5.2,4.4C388,31.5,387.5,34.7,387.1,35.8z M396,37.8l0.7,3.8
		c-5.2-5.2-5.2-9.6-5.2-9.6L396,37.8z M391.7,42c-1.8-2-1.3-3.8-1.3-3.8s3.1,4.3,7.1,5.9C397.6,44.2,393.5,44,391.7,42z M398,36
		c-0.7-1.1-3.4-5.3-3.4-5.3c1.4-1.1,3.4-5.2,3.4-5.2V36z M407.6,32.1c0,0,0,4.4-5.2,9.6l0.7-3.8L407.6,32.1z M401.1,25.5
		c0,0,2,4,3.4,5.2c0,0-2.7,4.2-3.4,5.3V25.5z M407.4,42c-1.8,2-5.9,2.2-5.9,2.2c4-1.7,7.1-5.9,7.1-5.9S409.2,40,407.4,42z
		 M411.2,31.5c1.9-1.4,5.2-4.4,5.2-4.4c0.4,2.1,1,4.9,1,4.9l-5.3,3.9C411.6,34.7,411.2,31.5,411.2,31.5z M418.4,41.3l-2.9,1.3
		l-0.7-2.9l3.8-3.4L418.4,41.3z M423.2,43.6h-1.6c-0.1-0.9,1.7-9.6,1.7-9.6l5.7-3.4C427.9,32,423.2,43.6,423.2,43.6z"/>
</g>
</svg>
