<?xml version="1.0" encoding="utf-8"?>
<!-- Generator: Adobe Illustrator 23.0.2, SVG Export Plug-In . SVG Version: 6.00 Build 0)  -->
<svg version="1.1" id="レイヤー_1" xmlns="http://www.w3.org/2000/svg" xmlns:xlink="http://www.w3.org/1999/xlink" x="0px"
	 y="0px" viewBox="0 0 128.9 31" style="enable-background:new 0 0 128.9 31;" xml:space="preserve">
<style type="text/css">
	.st0{fill:#F50A00;}
</style>
<title>Logo_OKWAVE_company_main_RGB_smallest</title>
<path class="st0" d="M45.5,3.2c-5.7,0-8.3,3.9-8.3,8.9s2.6,8.9,8.3,8.9s8.3-3.9,8.3-8.9S51.2,3.2,45.5,3.2z M45.5,18
	c-2.9,0-4.5-1.9-4.5-5.9s1.6-5.9,4.5-5.9c3,0,4.5,1.8,4.5,5.9S48.4,18,45.5,18z M95.8,3.4c-1-0.2-2.1-0.2-3.2,0l-6,17.2
	c0.6,0.1,1.2,0.2,1.8,0.1c0.6,0,1.3,0,1.9-0.1L94.2,8l0,0l3.9,12.6c0.6,0.1,1.3,0.2,1.9,0.1c0.6,0,1.2,0,1.8-0.1
	C101.8,20.6,95.8,3.4,95.8,3.4z M86.9,3.3c-0.6,0-1.3,0-1.9,0.1l-2.3,12.4l-3-12.4c-1-0.2-2-0.2-3,0l-3,12.4L71.4,3.4
	c-0.6-0.1-1.3-0.2-1.9-0.1c-0.6-0.1-1.3,0-1.9,0.1l4.2,17.2c0.5,0.1,1,0.2,1.5,0.1c0.8,0,1.5,0,2.3-0.1l2.7-11l2.7,11
	c0.8,0.1,1.5,0.2,2.3,0.1c0.5,0,1,0,1.5-0.1L89,3.4C88.2,3.3,87.6,3.2,86.9,3.3z M112.5,3.3c-0.6,0-1.3,0-1.9,0.1L106.8,17L103,3.4
	c-0.6-0.1-1.3-0.2-1.9-0.1c-0.6-0.1-1.3,0-1.9,0.1l5.5,17.2c1.4,0.2,2.8,0.2,4.2,0l5.5-17.2C113.8,3.3,113.2,3.3,112.5,3.3z"/>
<path class="st0" d="M62.5,11.8l5.3-8.3c-0.6-0.2-1.2-0.2-1.8-0.2c-0.7,0-1.4,0-2.1,0.1l-5.1,8.4l5.4,8.9c0.7,0.1,1.4,0.2,2.1,0.1
	c0.6,0.1,1.3,0,1.9-0.1C68.2,20.7,62.5,11.8,62.5,11.8z M54.6,3.4v17.2c0.6,0.1,1.2,0.2,1.8,0.1c0.6,0,1.2,0,1.8-0.1V3.4
	c-0.6-0.1-1.2-0.2-1.8-0.1C55.8,3.2,55.2,3.3,54.6,3.4z M118.8,17.7v-4.4h6.5c0.1-0.5,0.2-1,0.1-1.5c0-0.5,0-1-0.1-1.5h-6.5V6.5h7.6
	c0.1-0.5,0.2-1,0.1-1.5c0-0.5,0-1-0.1-1.5h-11.2v17.2h11.2c0.1-0.5,0.2-1,0.1-1.5c0-0.5,0-1-0.1-1.5H118.8z M40.5,27.5V28h-1.2v-6
	h1.2v2.5c0.3-0.5,0.8-0.7,1.3-0.7s0.9,0.2,1.2,0.5c0.3,0.4,0.4,0.9,0.4,1.5s-0.1,1.1-0.5,1.6c-0.3,0.4-0.8,0.6-1.3,0.6
	C41.2,28.1,40.8,27.9,40.5,27.5z M40.5,25.8v0.4c0,0.2,0.1,0.5,0.2,0.6c0.1,0.2,0.4,0.3,0.6,0.3c0.3,0,0.5-0.1,0.7-0.3
	c0.2-0.3,0.3-0.6,0.2-0.9c0-0.3-0.1-0.5-0.2-0.8c-0.1-0.2-0.4-0.3-0.6-0.3c-0.2,0-0.5,0.1-0.6,0.3C40.6,25.3,40.5,25.5,40.5,25.8z
	 M52.4,26.3h-2.7c0,0.5,0.4,0.9,1,0.9h0.2c0.4,0,0.8-0.1,1.2-0.3v0.9c-0.5,0.2-1,0.3-1.5,0.3c-1,0.1-1.9-0.6-2.1-1.7V26
	c0-0.6,0.2-1.2,0.6-1.6c0.4-0.4,0.9-0.6,1.4-0.6s1,0.2,1.4,0.5c0.3,0.4,0.5,0.9,0.5,1.4C52.4,25.7,52.4,26.3,52.4,26.3z M51.2,25.6
	c0.1-0.4-0.1-0.8-0.5-0.8h-0.2c-0.2,0-0.4,0.1-0.5,0.2c-0.2,0.2-0.2,0.4-0.3,0.6C49.7,25.6,51.2,25.6,51.2,25.6z M57.4,27.9v-1
	l0.6,0.3c0.2,0.1,0.4,0.1,0.6,0.1c0.2,0,0.4,0,0.5-0.1c0.1,0,0.2-0.1,0.2-0.3c0-0.1,0-0.1-0.1-0.2c-0.1,0-0.2-0.1-0.2-0.1l-0.3-0.1
	l-0.3-0.1c-0.1-0.1-0.3-0.1-0.4-0.2c-0.1-0.1-0.2-0.1-0.3-0.2s-0.1-0.2-0.2-0.3c0-0.1-0.1-0.3-0.1-0.4c0-0.2,0-0.4,0.1-0.6
	s0.2-0.3,0.4-0.5c0.2-0.1,0.4-0.2,0.6-0.2c0.2,0,0.4-0.1,0.7-0.1h0.5c0.2,0,0.4,0.1,0.5,0.1v1c-0.2-0.1-0.3-0.2-0.5-0.2
	s-0.4-0.1-0.5-0.1H59l-0.2,0.1c-0.1,0-0.1,0.1-0.1,0.1V25c0,0.1,0,0.1,0.1,0.2s0.1,0.1,0.2,0.1l0.3,0.1l0.3,0.1l0.4,0.2
	c0.1,0.1,0.2,0.1,0.3,0.2s0.2,0.2,0.2,0.3c0.1,0.3,0.1,0.7-0.1,1.1c-0.1,0.2-0.2,0.3-0.4,0.4s-0.4,0.2-0.6,0.2
	C59.2,28,59,28,58.7,28C58.3,28.1,57.8,28,57.4,27.9z M68.6,27.9c-0.3,0.1-0.5,0.2-0.8,0.1c-0.7,0.1-1.3-0.5-1.3-1.1v-2h-0.7V24h0.7
	v-0.9l1.2-0.4V24h0.9v0.9h-0.9v1.6c-0.1,0.3,0.1,0.5,0.4,0.6h0.1c0.1,0,0.3,0,0.4-0.1C68.6,27,68.6,27.9,68.6,27.9z M82.7,28h-1.2
	v-0.6c-0.2,0.4-0.7,0.7-1.2,0.7c-0.3,0-0.6-0.1-0.8-0.3c-0.2-0.2-0.3-0.6-0.3-0.9c0-0.7,0.6-1.3,1.3-1.4h0.1l1.1-0.2
	c0-0.3-0.2-0.6-0.6-0.7h-0.2c-0.5,0-1,0.2-1.4,0.4v-0.9c0.2-0.1,0.5-0.2,0.7-0.2c0.3-0.1,0.5-0.1,0.8-0.1c0.8-0.1,1.6,0.5,1.7,1.3
	C82.7,25.1,82.7,28,82.7,28z M81.5,26.4v-0.3l-0.7,0.1c-0.3,0-0.6,0.2-0.6,0.5c0,0.1,0.1,0.3,0.1,0.3c0.1,0.1,0.3,0.1,0.4,0.1
	c0.2,0,0.4-0.1,0.6-0.2S81.5,26.6,81.5,26.4z M91.8,28h-1.2v-2.2c0-0.6-0.2-0.9-0.7-0.9c-0.2,0-0.4,0.1-0.5,0.2
	c-0.1,0.2-0.2,0.4-0.2,0.6V28H88v-4h1.2v0.6c0.3-0.5,0.8-0.8,1.3-0.7c0.7,0,1.4,0.6,1.4,1.3L91.8,28L91.8,28z M96.8,27.9v-1l0.6,0.3
	c0.2,0.1,0.4,0.1,0.6,0.1s0.4,0,0.5-0.1c0.1,0,0.2-0.1,0.2-0.3c0-0.1,0-0.1-0.1-0.2c-0.1,0-0.1-0.1-0.2-0.1l-0.3-0.1l-0.3-0.1
	c-0.1-0.1-0.3-0.1-0.4-0.2s-0.2-0.1-0.3-0.2c-0.1-0.1-0.1-0.2-0.2-0.3c0-0.1-0.1-0.3-0.1-0.4c0-0.2,0-0.4,0.1-0.6s0.2-0.3,0.4-0.5
	c0.2-0.1,0.4-0.2,0.6-0.2s0.4-0.1,0.7-0.1h0.5c0.2,0,0.4,0.1,0.5,0.1v1c-0.2-0.1-0.3-0.2-0.5-0.2s-0.4-0.1-0.5-0.1h-0.2l-0.2,0.1
	c-0.1,0-0.1,0.1-0.1,0.1V25c0,0.1,0,0.1,0.1,0.2s0.1,0.1,0.2,0.1l0.3,0.1l0.3,0.1l0.4,0.2c0.1,0.1,0.2,0.1,0.3,0.2
	c0.1,0.1,0.2,0.2,0.2,0.3c0.1,0.3,0.1,0.7-0.1,1.1c-0.1,0.2-0.2,0.3-0.4,0.4c-0.2,0.1-0.4,0.2-0.6,0.2S98.3,28,98.1,28
	C97.6,28.1,97.2,28,96.8,27.9z M110.2,24l-1.2,4h-1.3l-0.6-2.4c0-0.2-0.1-0.3-0.1-0.5c0,0.2,0,0.3-0.1,0.5l-0.6,2.4h-1.2l-1.1-4h1.2
	l0.5,2.6V27c0-0.2,0.1-0.3,0.1-0.4l0.7-2.6h1.2l0.6,2.6v0.5c0-0.2,0.1-0.3,0.1-0.5l0.5-2.6H110.2z M118.1,26.3h-2.6
	c0,0.5,0.4,0.9,1,0.9h0.2c0.4,0,0.8-0.1,1.2-0.3v0.9c-0.5,0.2-1,0.3-1.5,0.3c-1,0.1-1.9-0.6-2.1-1.7V26c0-0.6,0.2-1.2,0.6-1.6
	s0.9-0.6,1.4-0.6s1,0.2,1.4,0.5c0.3,0.4,0.5,0.9,0.5,1.4L118.1,26.3z M116.9,25.6c0.1-0.4-0.1-0.8-0.5-0.8h-0.2
	c-0.2,0-0.4,0.1-0.5,0.2c-0.2,0.2-0.2,0.4-0.3,0.6C115.4,25.6,116.9,25.6,116.9,25.6z M125.6,25.1c-0.2-0.1-0.3-0.1-0.5-0.1
	s-0.5,0.1-0.6,0.3c-0.2,0.2-0.2,0.5-0.2,0.8V28H123v-4h1.2v0.8c0.1-0.5,0.6-0.8,1.1-0.8h0.3C125.6,24,125.6,25.1,125.6,25.1z
	 M128.1,28.1c-0.2,0-0.4-0.1-0.5-0.2s-0.2-0.3-0.2-0.5s0.1-0.4,0.2-0.5s0.3-0.2,0.5-0.2s0.4,0.1,0.5,0.2c0.3,0.2,0.3,0.6,0,0.9
	C128.5,28,128.3,28.1,128.1,28.1z M15.5,0C2.5,0,0,2.5,0,15.5S2.5,31,15.5,31S31,28.5,31,15.5S28.5,0,15.5,0z M15.5,29.5
	c-12.1,0-14-1.9-14-14s1.9-14,14-14s14,1.9,14,14S27.6,29.5,15.5,29.5z"/>
<path class="st0" d="M20.4,7.2c-2.2,0-4.1,1.4-4.9,3.5c-0.8-2.1-2.7-3.4-4.9-3.5c-2.3,0-5.4,1.4-5.4,5.8c0,5.9,7.8,11.2,10.3,13.2
	c2.6-2,10.3-7.2,10.3-13.2C25.8,8.6,22.7,7.2,20.4,7.2z"/>
</svg>
