<svg id="_x32_" xmlns="http://www.w3.org/2000/svg" width="512" height="512" viewBox="0 0 512 512"><style>.st0{fill:#4b4b4b}</style><path class="st0" d="M499.523 439.313l-79.547-79.563-60.219 60.219 79.547 79.563C447.352 507.563 458.039 512 469.43 512c11.359 0 22.047-4.438 30.094-12.469 8.047-8.047 12.469-18.75 12.469-30.125s-4.423-22.062-12.47-30.093zm-100.125-77l-41.391-41.406c.063-.094.063-.188.125-.25 26.563-34.719 41.156-77.688 41.125-121.031.047-53.281-20.719-103.438-58.469-141.156C303.117 20.766 253.07 0 199.383 0 146.18 0 96.148 20.766 58.477 58.469 20.711 96.188-.055 146.344.008 199.641c-.047 53.297 20.719 103.422 58.453 141.141 37.688 37.719 87.766 58.469 141.188 58.469h.188c43.234 0 86.141-14.594 120.828-41.125a.835.835 0 0 1 .234-.125l41.406 41.406 37.093-37.094zm-104.703-67.625c-25.391 25.344-59.125 39.344-95.078 39.406-35.922-.063-69.672-14.063-95.047-39.406-25.359-25.359-39.344-59.125-39.391-95.063.047-35.938 14.031-69.688 39.375-95.063 25.375-25.344 59.125-39.313 95.063-39.391.016-.016.031 0 .031 0 35.922.078 69.672 14.047 95.047 39.391 25.344 25.359 39.328 59.125 39.391 95.094-.063 35.922-14.047 69.688-39.391 95.032z"/><path class="st0" d="M266.789 180.031h-47.563v-47.563c0-10.813-8.781-19.594-19.594-19.594s-19.594 8.781-19.594 19.594v47.563h-47.547c-10.828 0-19.594 8.781-19.594 19.594s8.766 19.594 19.594 19.594h47.547v47.563c0 10.813 8.781 19.594 19.594 19.594s19.594-8.781 19.594-19.594v-47.563h47.563c10.813 0 19.594-8.781 19.594-19.594s-8.781-19.594-19.594-19.594z"/></svg>