<?xml version="1.0" encoding="utf-8"?>
<!-- Generator: Adobe Illustrator 24.0.1, SVG Export Plug-In . SVG Version: 6.00 Build 0)  -->
<svg version="1.1" id="レイヤー_1" xmlns="http://www.w3.org/2000/svg" xmlns:xlink="http://www.w3.org/1999/xlink" x="0px"
	 y="0px" viewBox="0 0 411.1 411.1" style="enable-background:new 0 0 411.1 411.1;" xml:space="preserve">
<style type="text/css">
	.st0{fill:none;}
	.st1{fill:#F50A00;}
	.st2{clip-path:url(#SVGID_2_);fill:#8F1D22;}
	.st3{fill:#4D4D4D;}
	.st4{fill:#191919;}
	.st5{fill:#666666;}
	.st6{fill:#FFFFFF;}
</style>
<g>
	<g>
		<rect y="-0.2" class="st0" width="411.1" height="411.1"/>
		<path class="st1" d="M207.1,22.5C93,22.5,68,53.6,68,53.6s0,171.4,0,186.5c0,92.4,139,145.1,139,145.1S346,334,346,241.6
			c0-15.1,0-186.5,0-186.5S321.2,22.5,207.1,22.5z"/>
		<g>
			<g>
				<g>
					<defs>
						<path id="SVGID_1_" d="M207.1,22.5C93,22.5,68,53.6,68,53.6s0,171.4,0,186.5c0,92.4,139,145.1,139,145.1S346,334,346,241.6
							c0-15.1,0-186.5,0-186.5S321.2,22.5,207.1,22.5z"/>
					</defs>
					<clipPath id="SVGID_2_">
						<use xlink:href="#SVGID_1_"  style="overflow:visible;"/>
					</clipPath>
					<rect x="48.4" y="293" class="st2" width="317.4" height="60.4"/>
				</g>
			</g>
		</g>
		<polygon class="st3" points="25.7,377.6 86.2,362.5 86.2,302 25.7,317.2 		"/>
		<polygon class="st3" points="388.4,377.6 328,362.5 328,302 388.4,317.2 		"/>
		<polygon class="st4" points="86.2,362.5 48.4,347.4 48.4,286.9 86.2,302 		"/>
		<polygon class="st4" points="328,362.5 365.7,347.4 365.7,286.9 328,302 		"/>
		<rect x="48.4" y="286.9" class="st5" width="317.4" height="60.4"/>
		<g>
			<g>
				<path class="st6" d="M71.3,302.6h9.5c6.4,0,11.4,2.2,11.4,9.1c0,6.6-5,9.6-11.2,9.6h-3.9v10.3h-5.8V302.6z M80.6,316.7
					c4,0,5.9-1.7,5.9-5c0-3.4-2.1-4.5-6.1-4.5h-3.3v9.5H80.6z"/>
				<path class="st6" d="M112.8,331.7l-6-11h-4v11H97v-29h10.1c6.1,0,10.9,2.1,10.9,8.8c0,4.4-2.2,7.1-5.5,8.4l6.8,11.9L112.8,331.7
					L112.8,331.7z M102.8,316.1h3.8c3.7,0,5.8-1.6,5.8-4.7s-2-4.2-5.8-4.2h-3.8V316.1z"/>
				<path class="st6" d="M123.6,302.6h5.8v29h-5.8C123.6,331.6,123.6,302.6,123.6,302.6z"/>
				<path class="st6" d="M134.1,328.2l13.5-20.7h-12.2v-4.8h19.3v3.5l-13.5,20.7h13.7v4.9h-20.8V328.2z"/>
				<path class="st6" d="M159.8,302.6h17.8v4.8h-12v6.7h10.2v4.9h-10.2v7.8H178v4.9h-18.2V302.6z"/>
				<path class="st6" d="M190,302.6h5.9l2.3,14.2c0.4,3.1,0.9,6.2,1.3,9.3h0.2c0.6-3.1,1.2-6.2,1.8-9.3l3.4-14.2h4.9l3.4,14.2
					c0.6,3,1.2,6.1,1.8,9.3h0.2c0.4-3.1,0.9-6.2,1.3-9.3l2.3-14.2h5.5l-5.4,29h-7.2l-3.3-14.4c-0.5-2.3-0.9-4.5-1.3-6.7h-0.2
					c-0.4,2.2-0.8,4.4-1.3,6.7l-3.2,14.4h-7.1L190,302.6z"/>
				<path class="st6" d="M228.7,302.6h5.8v29h-5.8V302.6z"/>
				<path class="st6" d="M241.3,302.6h5.9l8.4,15.5l2.9,6.3h0.2c-0.3-3-0.7-6.9-0.7-10.2v-11.6h5.5v29h-5.9l-8.4-15.5l-2.9-6.2h-0.2
					c0.3,3.1,0.7,6.8,0.7,10.1v11.7h-5.5L241.3,302.6L241.3,302.6z"/>
				<path class="st6" d="M270.4,302.6h5.9l8.4,15.5l2.9,6.3h0.2c-0.3-3-0.7-6.9-0.7-10.2v-11.6h5.5v29h-5.9l-8.4-15.5l-2.9-6.2h-0.2
					c0.3,3.1,0.7,6.8,0.7,10.1v11.7h-5.5V302.6z"/>
				<path class="st6" d="M299.5,302.6h17.8v4.8h-12v6.7h10.2v4.9h-10.2v7.8h12.4v4.9h-18.2L299.5,302.6L299.5,302.6z"/>
				<path class="st6" d="M339,331.7l-6-11h-4v11h-5.8v-29h10.1c6.1,0,10.9,2.1,10.9,8.8c0,4.4-2.2,7.1-5.5,8.4l6.8,11.9L339,331.7
					L339,331.7z M329,316.1h3.8c3.7,0,5.8-1.6,5.8-4.7s-2-4.2-5.8-4.2H329V316.1z"/>
			</g>
		</g>
	</g>
	<g>
		<g>
			<rect x="265.3" y="97.7" class="st0" width="33.9" height="33.9"/>
			<rect x="299.2" y="97.7" class="st0" width="33.9" height="33.9"/>
			<rect x="207.1" y="39.4" class="st0" width="33.9" height="33.9"/>
			<rect x="81" y="52.4" class="st0" width="252.1" height="252.1"/>
			<g>
				<rect x="122.1" y="202" class="st0" width="175.9" height="33.9"/>
				<rect x="119.3" y="202" class="st0" width="181.6" height="33.9"/>
				<g>
					<path class="st6" d="M207.1,73.3c-48.8,0-58.3,9.4-58.3,58.2s9.4,58.2,58.3,58.2c48.8,0,58.2-9.4,58.2-58.2
						C265.3,82.7,255.9,73.3,207.1,73.3z M207.1,184c-45.3,0-52.4-7.1-52.4-52.4s7.1-52.4,52.4-52.4s52.4,7.1,52.4,52.4
						S252.4,184,207.1,184z"/>
					<path class="st6" d="M225.7,100.5c-8.4,0-15.6,5.4-18.6,13.1c-3.1-7.7-10.3-13.1-18.6-13.1c-8.6,0-20.2,5.1-20.2,21.7
						c0,22.2,29.1,42.1,38.8,49.5c9.7-7.4,38.8-27.2,38.8-49.5C245.9,105.6,234.2,100.5,225.7,100.5z"/>
				</g>
			</g>
			<rect x="207.1" y="22.5" class="st0" width="33.9" height="16.9"/>
		</g>
		<g>
			<g>
				<path class="st6" d="M142.3,266.7h-2.7l-2.2-5.9h-9l-2.1,5.9h-2.8l8.1-21.1h2.6L142.3,266.7z M136.5,258.6l-3.3-9
					c-0.1-0.3-0.2-0.8-0.3-1.4h-0.1c-0.1,0.6-0.2,1.1-0.3,1.4l-3.3,9H136.5z"/>
				<path class="st6" d="M169,245.6l-6,21.1h-2.9l-4.4-15.5c-0.2-0.7-0.3-1.4-0.3-2.2h-0.1c-0.1,0.7-0.2,1.4-0.4,2.1l-4.4,15.5h-2.9
					l-6.2-21.1h2.7l4.5,16.2c0.2,0.7,0.3,1.4,0.4,2.1h0.1c0-0.5,0.2-1.2,0.5-2.1l4.7-16.2h2.4l4.5,16.3c0.2,0.6,0.3,1.2,0.4,2h0.1
					c0-0.5,0.2-1.2,0.4-2l4.3-16.3L169,245.6L169,245.6z"/>
				<path class="st6" d="M187.3,266.7h-2.7l-2.2-5.9h-9l-2.1,5.9h-2.8l8.1-21.1h2.6L187.3,266.7z M181.5,258.6l-3.3-9
					c-0.1-0.3-0.2-0.8-0.3-1.4h-0.1c-0.1,0.6-0.2,1.1-0.3,1.4l-3.3,9H181.5z"/>
				<path class="st6" d="M205.4,266.7h-2.9l-3.5-5.9c-0.3-0.6-0.6-1-0.9-1.4c-0.3-0.4-0.6-0.7-0.9-1c-0.3-0.2-0.7-0.4-1-0.5
					c-0.4-0.1-0.8-0.2-1.2-0.2h-2v9h-2.5v-21.1h6.3c0.9,0,1.8,0.1,2.6,0.3s1.5,0.6,2,1.1c0.6,0.5,1,1.1,1.3,1.8s0.5,1.5,0.5,2.5
					c0,0.7-0.1,1.4-0.3,2s-0.5,1.2-0.9,1.6c-0.4,0.5-0.9,0.9-1.5,1.2c-0.6,0.3-1.2,0.6-1.9,0.8v0.1c0.4,0.2,0.7,0.3,0.9,0.5
					c0.3,0.2,0.5,0.4,0.7,0.7c0.2,0.3,0.5,0.6,0.7,0.9s0.5,0.8,0.8,1.2L205.4,266.7z M192.8,247.8v7.7h3.4c0.6,0,1.2-0.1,1.7-0.3
					s1-0.5,1.4-0.8s0.7-0.8,0.9-1.3s0.3-1.1,0.3-1.7c0-1.1-0.4-2-1.1-2.6c-0.7-0.6-1.8-1-3.2-1L192.8,247.8L192.8,247.8z"/>
				<path class="st6" d="M208.3,266.7v-21.1h5.8c7.5,0,11.2,3.4,11.2,10.3c0,3.3-1,5.9-3.1,7.9s-4.8,3-8.3,3h-5.6L208.3,266.7
					L208.3,266.7z M210.8,247.8v16.7h3.2c2.8,0,4.9-0.7,6.5-2.2c1.5-1.5,2.3-3.6,2.3-6.3c0-5.4-2.9-8.1-8.6-8.1L210.8,247.8
					L210.8,247.8z"/>
			</g>
		</g>
		<g>
			<g>
				<path class="st6" d="M249,266.7h-12.7v-2.1l6.1-6.1c1.6-1.6,2.7-2.9,3.3-3.9s1-2.2,1-3.3c0-1.2-0.3-2.1-1-2.8s-1.7-1-3-1
					c-1.9,0-3.7,0.8-5.4,2.4v-2.5c1.6-1.3,3.6-1.9,5.7-1.9c1.9,0,3.3,0.5,4.4,1.5s1.6,2.4,1.6,4.1c0,1.3-0.4,2.7-1.1,3.9
					c-0.7,1.3-2.1,2.9-4,4.8l-4.8,4.8v0.1h9.8L249,266.7L249,266.7z"/>
				<path class="st6" d="M257.8,267.1c-2.1,0-3.7-0.9-4.9-2.7c-1.2-1.8-1.8-4.4-1.8-7.7c0-3.7,0.6-6.5,1.8-8.4s3-2.9,5.3-2.9
					c4.4,0,6.6,3.6,6.6,10.8c0,3.6-0.6,6.3-1.9,8.1S260,267.1,257.8,267.1z M258.1,247.4c-3,0-4.5,3-4.5,9.1c0,5.7,1.5,8.5,4.4,8.5
					s4.4-2.9,4.4-8.7C262.4,250.4,261,247.4,258.1,247.4z"/>
			</g>
		</g>
		<g>
			<g>
				<path class="st6" d="M278.7,266.7H266v-2.1l6.1-6.1c1.6-1.6,2.7-2.9,3.3-3.9s1-2.2,1-3.3c0-1.2-0.3-2.1-1-2.8
					c-0.7-0.7-1.7-1-3-1c-1.9,0-3.7,0.8-5.4,2.4v-2.5c1.6-1.3,3.6-1.9,5.7-1.9c1.9,0,3.3,0.5,4.4,1.5c1.1,1,1.6,2.4,1.6,4.1
					c0,1.3-0.4,2.7-1.1,3.9c-0.7,1.3-2.1,2.9-4,4.8l-4.8,4.8v0.1h9.8L278.7,266.7L278.7,266.7z"/>
				<path class="st6" d="M287.5,267.1c-2.1,0-3.7-0.9-4.9-2.7c-1.2-1.8-1.8-4.4-1.8-7.7c0-3.7,0.6-6.5,1.8-8.4
					c1.2-1.9,3-2.9,5.3-2.9c4.4,0,6.6,3.6,6.6,10.8c0,3.6-0.6,6.3-1.9,8.1S289.7,267.1,287.5,267.1z M287.8,247.4
					c-3,0-4.5,3-4.5,9.1c0,5.7,1.5,8.5,4.4,8.5s4.4-2.9,4.4-8.7C292.1,250.4,290.7,247.4,287.8,247.4z"/>
			</g>
		</g>
		<g>
			<path class="st6" d="M136.2,201.2c-11.2,0-16.3,7.6-16.3,17.6c0,9.9,5.1,17.6,16.3,17.6s16.3-7.6,16.3-17.6
				S147.4,201.2,136.2,201.2z M136.2,230.4c-5.8,0-8.9-3.7-8.9-11.6c0-7.9,3.1-11.6,8.9-11.6s8.9,3.7,8.9,11.6
				C145.1,226.7,142,230.4,136.2,230.4z"/>
			<path class="st6" d="M232.5,210.6l7.6,25.1c0,0,1.1,0.3,3.8,0.3c3,0,3.5-0.3,3.5-0.3l-11.9-34c0,0-0.6-0.3-3.1-0.3
				s-3.1,0.3-3.1,0.3l-11.9,34c0,0,0.6,0.3,3.5,0.3c2.7,0,3.8-0.3,3.8-0.3L232.5,210.6z"/>
			<path class="st6" d="M218,201.5c-2.7,0-3.8,0.3-3.8,0.3l-4.6,24.4l-5.9-24.4c0,0-0.6-0.3-3-0.3s-3,0.3-3,0.3l-5.9,24.4l-4.6-24.4
				c0,0-1.1-0.3-3.8-0.3c-3.1,0-3.7,0.3-3.7,0.3l8.2,34c0,0,0.6,0.3,3,0.3c3.4,0,4.5-0.3,4.5-0.3l5.2-21.7l5.2,21.7
				c0,0,1.1,0.3,4.5,0.3c2.4,0,3-0.3,3-0.3l8.2-34C221.7,201.8,221.1,201.5,218,201.5z"/>
			<path class="st6" d="M268.6,201.5c-2.7,0-3.8,0.3-3.8,0.3l-7.5,26.9l-7.5-26.9c0,0-1.1-0.3-3.8-0.3c-3.1,0-3.7,0.3-3.7,0.3
				l10.9,34c0,0,0.6,0.3,4.1,0.3s4.1-0.3,4.1-0.3l10.9-34C272.2,201.8,271.7,201.5,268.6,201.5z"/>
			<path class="st6" d="M169.7,218.2l10.5-16.4c0,0-0.6-0.3-3.7-0.3c-3,0-4.1,0.3-4.1,0.3l-10.1,16.4l10.6,17.6c0,0,1.1,0.3,4.1,0.3
				c3.1,0,3.7-0.3,3.7-0.3L169.7,218.2z"/>
			<path class="st6" d="M154.2,201.8v34c0,0,0.6,0.3,3.5,0.3c3,0,3.5-0.3,3.5-0.3v-34c0,0-0.6-0.3-3.5-0.3
				C154.7,201.5,154.2,201.8,154.2,201.8z"/>
			<path class="st6" d="M281,229.8v-8.6h12.7c0,0,0.3-0.6,0.3-3s-0.3-3-0.3-3H281v-7.5h15l0,0c0,0,0.3-0.6,0.3-3s-0.3-3-0.3-3h-22.1
				v34H296c0,0,0.3-0.6,0.3-3s-0.3-3-0.3-3h-15V229.8z"/>
		</g>
	</g>
</g>
</svg>
